<svg width="500" height="600" viewBox="0 0 500 600" fill="none" xmlns="http://www.w3.org/2000/svg">
<g clip-path="url(#clip0_313_13183)">
<path d="M500 0H0V600H500V0Z" fill="#A9AD81"/>
<path d="M349.718 422.116C349.718 436.798 341.368 448.82 345.905 450.176C346.958 450.176 355.111 436.798 355.111 422.116C355.111 407.434 325.418 405.579 327.325 405.579C316.332 409.764 349.718 407.434 349.718 422.116Z" fill="black"/>
<path d="M330.651 423.593C330.651 438.276 327.627 448.82 330.651 450.177C333.675 451.534 336.371 438.276 336.371 423.593C336.371 408.911 331.217 408.947 333.124 408.947C321.683 398.609 330.651 408.911 330.651 423.593Z" fill="black"/>
<path d="M322.132 408.948C312.035 421.482 316.635 433.63 316.334 432.549C317.695 437.428 324.579 419.259 327.325 405.579C330.38 408.948 345.085 417.319 346.992 417.319C339.365 414.365 322.132 394.265 322.132 408.948Z" fill="black"/>
<path d="M340.116 424.134C340.116 438.817 333.124 448.82 338.621 450.177C339.673 450.177 345.508 437.339 345.508 422.657C345.508 407.976 326.264 404.504 328.171 404.504C325.422 408.301 340.116 409.452 340.116 424.134Z" fill="black"/>
<path d="M356.608 424.134C356.608 438.816 349.616 448.82 355.113 450.177C356.166 450.177 362 437.339 362 422.657C362 407.976 333.033 406.245 334.941 406.245C332.192 410.042 356.608 409.452 356.608 424.134Z" fill="black"/>
<path d="M362 419.889L359.11 414.236L353.328 410.467L348.064 397.16L326.385 399.75L321.533 406.699L318.642 414.236H324.423L327.313 412.351L330.205 421.772L362 419.889Z" fill="black"/>
<path d="M150.762 417.132C151.277 429.437 159.939 439.323 155.51 440.564C154.471 440.587 145.956 429.56 145.441 417.254C144.926 404.949 174.161 402.719 172.279 402.762C183.274 406.019 150.247 404.827 150.762 417.132Z" fill="black"/>
<path d="M169.63 417.936C170.145 430.24 173.499 439.009 170.562 440.216C167.626 441.423 164.5 430.371 163.985 418.066C163.47 405.76 168.557 405.674 166.676 405.716C177.602 396.792 169.114 405.631 169.63 417.936Z" fill="black"/>
<path d="M177.522 405.467C187.926 415.742 183.812 426.03 184.072 425.117C182.9 429.236 175.469 414.165 172.279 402.762C169.383 405.656 155.166 413.006 153.284 413.05C160.707 410.4 177.007 393.163 177.522 405.467Z" fill="black"/>
<path d="M160.309 418.605C160.825 430.909 168.075 439.135 162.698 440.398C161.659 440.422 155.451 429.794 154.936 417.49C154.421 405.185 173.289 401.836 171.407 401.879C174.253 405 159.794 406.3 160.309 418.605Z" fill="black"/>
<path d="M144.035 418.98C144.55 431.285 151.8 439.51 146.424 440.773C145.385 440.797 139.177 430.17 138.662 417.865C138.146 405.56 166.67 403.45 164.788 403.493C167.634 406.614 143.52 406.675 144.035 418.98Z" fill="black"/>
<path d="M137.952 414.336L140.617 409.545L144.778 405.397L160.731 391.193L176.143 396.498L177.593 402.39L180.723 408.626L174.994 408.757L172.063 407.248L169.53 415.19L137.952 414.336Z" fill="black"/>
<path d="M306.254 447.682L298.104 459.526L289.954 461.5L285.065 459.526L275.285 447.682L281.805 485.188V568.098L293.214 572.046L301.364 564.15V483.215L306.254 447.682Z" fill="#8CC3B9"/>
<path d="M244.315 447.682L236.164 459.526L228.015 461.5L223.125 459.526L213.345 447.682L219.865 485.188V568.098L231.275 572.046L239.425 564.15V483.215L244.315 447.682Z" fill="#8CC3B9"/>
<path d="M310.9 570.75L309.351 569.454L301.609 555.204V524.114L296.963 546.136L292.318 524.114L289.221 546.136L281.479 524.114V560.386V566.864V577.228L284.575 578.522H290.769L293.867 577.228V570.75L287.673 566.864L296.963 578.522L303.157 581.114L309.351 582.41L313.997 583.704L320.191 585L329.482 568.16L323.288 573.34L317.094 574.636L310.9 570.75Z" fill="#5B2F2F"/>
<path d="M210.847 567.856L212.446 566.533L220.438 551.98V520.228L225.233 542.719L230.028 520.228L233.225 542.719L241.218 520.228V557.272V563.887V574.471L238.021 575.794H231.627L228.43 574.471V567.856L234.824 563.887L225.233 575.794L218.839 578.44L212.446 579.763L207.65 581.086L201.257 582.409L191.666 565.21L198.06 570.502L204.453 571.825L210.847 567.856Z" fill="#5B2F2F"/>
<path d="M324.836 575.932L321.739 581.114L319.507 584.632V585L326.997 583.506L327.933 577.271L329.482 568.159L324.836 575.932Z" fill="#5B2F2F"/>
<path d="M195.993 572.644L198.877 578.224L200.957 582.013V582.409L193.98 580.8L193.108 574.085L191.666 564.272L195.993 572.644Z" fill="#5B2F2F"/>
<path d="M250.51 426.825C256.704 433.302 248.961 473.468 228.83 473.468C211.728 473.468 202.939 452.546 202.939 426.789C209.133 395.698 231.858 396.992 248.961 396.992C266.063 396.992 354.258 423.068 250.51 426.825Z" fill="#26574E"/>
<path d="M264.445 426.954C258.858 447.647 274.607 473.588 291.711 473.588C308.815 473.588 312.448 452.711 312.448 426.954C306.255 395.864 281.549 395.864 264.445 395.864C180.827 401.009 262.289 394.566 264.445 426.954Z" fill="#26574E"/>
<path d="M162.245 315.546L169.987 322.755L177.73 323.957L182.375 322.755L191.666 315.546L185.472 338.376L179.278 393.649L176.181 397.254L166.89 398.454L159.148 396.052L157.599 391.245L166.89 337.174L162.245 315.546Z" fill="#8CC3B9"/>
<path d="M195.192 289.636C195.192 315.393 193.714 325.909 176.612 325.909C159.51 325.909 154.935 305.029 154.935 279.273C161.129 248.182 187.38 248.182 204.482 248.182C221.584 248.182 195.192 263.88 195.192 289.636Z" fill="#26574E"/>
<path d="M343.418 315.546L335.676 323.318L327.933 324.614L323.288 323.318L313.997 315.546L320.191 340.16L326.385 399.75L329.482 403.636L334.127 404.932H340.321L346.515 403.636L349.612 401.046L338.772 338.864L343.418 315.546Z" fill="#8CC3B9"/>
<path d="M332.579 112.159L327.933 104.386L321.739 101.795L317.094 104.386L318.642 121.875L317.094 138.716L323.288 136.772L332.579 125.762V118.636V112.159Z" fill="#E9CFCF"/>
<path d="M169.987 113.454L174.633 105.682L180.827 103.091L185.472 105.682L183.923 123.17L185.472 140.011L179.278 138.068L169.987 127.057V119.932V113.454Z" fill="#EDC1C1"/>
<path d="M193.214 285.276C190.117 282.684 216.67 418.708 255.154 418.708C293.639 418.708 315.545 331.064 315.545 285.276C315.545 239.486 290.541 248.182 252.057 248.182C213.573 248.182 193.214 239.486 193.214 285.276Z" fill="#4E9E90"/>
<path d="M219.539 380.318L207.151 408.818L217.99 414L222.636 415.296L238.121 419.182L256.703 421.773L293.867 416.591L309.351 410.114L295.415 380.318L282.082 383.376L256.703 385.5L234.327 383.376L219.539 380.318Z" fill="#4E9E90"/>
<path d="M272.187 224.864L253.606 233.932L235.024 224.864V239.114V253.364L241.218 259.841L253.606 262.432L265.993 259.841L270.639 252.068V239.114V231.341L272.187 224.864Z" fill="#E9CFCF"/>
<path d="M301.609 75.3903L276.833 68.9131H252.057H225.733L202.505 72.7995L183.923 107.777V146.64L202.505 172.549L225.733 223.072L247.412 234.731H262.897L284.575 223.072L301.609 172.549L318.642 149.231V107.777L301.609 75.3903Z" fill="#E9CFCF"/>
<path d="M253.606 116.844L224.103 173.197L253.606 179.026L283.108 173.197L253.606 116.844Z" fill="#D29E9E"/>
<path d="M253.605 116.844V173.844L283.027 173.174L253.605 116.844Z" fill="#D29E9E"/>
<path d="M200.957 116.845C200.957 124 208.583 129.8 217.99 129.8C227.398 129.8 235.024 124 235.024 116.845C235.024 109.691 227.398 103.891 217.99 103.891C208.583 103.891 200.957 109.691 200.957 116.845Z" fill="#F5F0F0"/>
<path d="M217.99 120.378C215.425 120.378 213.345 118.796 213.345 116.845C213.345 114.894 215.425 113.312 217.99 113.312C220.556 113.312 222.636 114.894 222.636 116.845C222.636 118.796 220.556 120.378 217.99 120.378Z" fill="black"/>
<path d="M269.091 116.845C269.091 124 276.717 129.8 286.123 129.8C295.531 129.8 303.157 124 303.157 116.845C303.157 109.691 295.531 103.891 286.123 103.891C276.717 103.891 269.091 109.691 269.091 116.845Z" fill="#F5F0F0"/>
<path d="M286.124 120.378C283.558 120.378 281.478 118.796 281.478 116.845C281.478 114.894 283.558 113.312 286.124 113.312C288.689 113.312 290.769 114.894 290.769 116.845C290.769 118.796 288.689 120.378 286.124 120.378Z" fill="black"/>
<path d="M239.588 201.173C239.588 201.889 237.518 202.345 252.057 202.345C266.596 202.345 270.811 201.889 270.811 201.173C270.811 200.458 266.596 199.754 252.057 199.754C237.518 199.754 239.588 200.458 239.588 201.173Z" fill="#393535"/>
<path d="M202.505 72.7993L183.923 108.077V146.64L202.505 172.549L225.733 222.989L247.412 234.731L225.733 220.481L205.602 168.663L190.117 145.345L191.666 108.077L202.505 72.7993Z" fill="#E9CFCF"/>
<path d="M255.154 92.2317C216.67 92.2317 185.472 78.3118 185.472 61.1408C185.472 43.9697 216.67 30.0498 255.154 30.0498C293.639 30.0498 324.836 43.9697 324.836 61.1408C324.836 78.3118 293.639 92.2317 255.154 92.2317Z" fill="#4E9E90"/>
<path d="M247.89 37.219C247.89 37.9344 249.277 38.5145 250.987 38.5145C252.698 38.5145 254.084 37.9344 254.084 37.219C254.084 36.5035 253.767 35.2314 252.057 35.2314C250.346 35.2314 247.89 36.5035 247.89 37.219Z" fill="#B93A3A"/>
<path d="M269.091 231.34L264.445 233.932H261.348H258.251H255.154H247.412L235.024 227.454V232.636L234.894 239.059L241.088 235.173L256.572 241.65L264.315 240.354L270.639 244.296V231.34H269.091Z" fill="#E9CFCF"/>
<path d="M243.736 15L241.218 18.3905L239.669 20.9814V23.5723L235.569 19.6859L235.024 23.5723L230.378 20.9814V22.7727H220.509L239.669 30.0495L248.96 36.5268V37.8223H253.606L243.736 15Z" fill="#C2EDC1"/>
<path d="M255.315 261.257L252.221 284.574L261.511 307.892L255.315 342.87L259.964 383.029L258.416 420.598" stroke="black"/>
<path d="M310.9 288.341C310.9 314.097 312.377 324.614 329.482 324.614C346.586 324.614 351.16 303.733 351.16 277.977C344.966 246.886 318.713 246.886 301.609 246.886C284.505 246.886 310.9 262.584 310.9 288.341Z" fill="#26574E"/>
<path d="M267.542 425.469L258.251 424.174L245.863 425.469L247.412 430.651L256.703 431.947L267.542 430.651V425.469Z" fill="#26574E"/>
<path d="M327.933 568.16C327.933 568.874 329.482 569.454 329.482 569.454C329.482 569.454 331.03 568.874 331.03 568.16C331.03 567.444 330.336 566.864 329.482 566.864C328.627 566.864 327.933 567.444 327.933 568.16Z" fill="#D9D9D9"/>
<path d="M188.569 565.568C188.569 566.284 187.02 566.864 187.02 566.864C187.02 566.864 185.472 566.284 185.472 565.568C185.472 564.852 186.165 564.272 187.02 564.272C187.876 564.272 188.569 564.852 188.569 565.568Z" fill="#D9D9D9"/>
<path d="M329.482 569.455C328.627 569.455 327.933 568.875 327.933 568.159C327.933 567.444 328.627 566.864 329.482 566.864C330.337 566.864 331.03 567.444 331.03 568.159C331.03 568.875 330.337 569.455 329.482 569.455Z" fill="#644F1B"/>
<path d="M194.763 565.568C194.763 566.284 194.07 566.864 193.214 566.864C192.359 566.864 191.666 566.284 191.666 565.568C191.666 564.852 192.359 564.272 193.214 564.272C194.07 564.272 194.763 564.852 194.763 565.568Z" fill="#644F1B"/>
<path d="M293.91 574.612L287.716 566.839" stroke="#9C3838" stroke-width="0.1"/>
<path d="M227.281 573.341L231.106 567.639L235.023 561.682" stroke="#9C3838" stroke-width="0.1"/>
</g>
<defs>
<clipPath id="clip0_313_13183">
<rect width="500" height="600" fill="white"/>
</clipPath>
</defs>
</svg>
