<svg width="450" height="200" viewBox="0 0 450 200" fill="none" xmlns="http://www.w3.org/2000/svg">
<path d="M7.84843 29.9785L4.12524 29.9061L4.16391 33.9144L4.60197 79.3323L4.63137 82.3805L7.38694 83.0831L79.129 101.375L104.684 143.382L105.726 145.095L107.627 145.143L400.549 152.521L420.083 179.412L426.664 188.473L426.553 176.971L425.038 19.8375L424.947 10.5649L418.858 17.1237L399.84 37.607L7.84843 29.9785Z" fill="#A9AD81" stroke="#E1EE50" stroke-width="6"/>
<path d="M430.394 193.813C433.057 193.783 434.794 191.761 435.759 190.24C436.815 188.575 437.682 186.379 438.424 183.93C439.925 178.978 441.195 172.032 442.218 163.708C444.271 147 445.406 124.065 445.162 98.8375C444.918 73.61 443.343 50.7062 440.967 34.0476C439.784 25.7476 438.381 18.8322 436.785 13.915C435.994 11.4817 435.086 9.3053 433.998 7.66507C433.004 6.16566 431.228 4.18298 428.565 4.21273C425.904 4.24249 424.165 6.2641 423.2 7.78556C422.145 9.44977 421.278 11.6461 420.535 14.0964C419.034 19.0483 417.764 25.9937 416.741 34.3182C414.688 51.0265 413.554 73.9605 413.797 99.1881C414.04 124.416 415.617 147.319 417.992 163.978C419.176 172.278 420.579 179.193 422.175 184.111C422.965 186.544 423.875 188.721 424.962 190.361C425.956 191.861 427.733 193.843 430.394 193.813Z" fill="black" stroke="#E1EE50" stroke-width="6"/>
<mask id="mask0_309_12649" style="mask-type:luminance" maskUnits="userSpaceOnUse" x="72" y="24" width="337" height="119">
<path d="M408.177 30.3735L74.0356 24.6753L72.3802 136.349L406.522 142.048L408.177 30.3735Z" fill="white"/>
</mask>
<g mask="url(#mask0_309_12649)">
<path d="M117.467 125.951C118.596 118.85 119.227 110.832 119.359 101.897C119.378 100.608 119.385 99.3173 119.381 98.0269C119.345 87.5126 119.024 80.243 118.416 76.2184L118.219 74.9964C121.107 74.7113 124.041 73.746 127.021 72.1005L127.273 71.9614C126.127 78.5606 125.472 86.5661 125.309 95.9778C128.354 96.3883 131.556 96.6223 134.914 96.6799C135.129 96.6835 135.344 96.6871 135.559 96.6908C140.657 96.778 144.305 96.6017 146.505 96.1614C146.447 87.176 146.126 80.6831 145.541 76.6826L145.345 75.4606C148.232 75.1756 151.166 74.2103 154.146 72.5648L154.398 72.4257C153.226 79.1679 152.568 87.3764 152.426 97.0512C152.42 97.4573 152.414 97.8753 152.408 98.3054C152.238 109.796 152.562 117.687 153.38 121.978L153.647 123.273C152.024 123.436 150.566 123.746 149.272 124.201C147.189 124.93 145.629 125.668 144.592 126.415C145.724 119.194 146.356 111.045 146.49 101.968C146.496 101.585 146.502 101.179 146.508 100.749C144.202 100.399 141.429 100.196 138.189 100.141C137.307 100.126 136.461 100.123 135.65 100.133C129.905 100.202 126.449 100.334 125.277 100.529C125.222 110.779 125.548 117.774 126.255 121.514L126.521 122.808C124.899 122.972 123.44 123.281 122.147 123.737C120.062 124.466 118.503 125.204 117.467 125.951ZM163.835 96.6371C164.476 95.2145 165.543 93.9186 167.038 92.7493L168.738 91.4165L176.962 86.4677C178.315 86.8492 179.984 87.5708 181.97 88.6323C183.862 89.6443 185.629 90.9769 187.274 92.6297C189.34 94.7201 190.784 96.9551 191.607 99.3348C192.502 101.644 192.966 104.161 192.997 106.885C193.063 113.673 193.426 118.936 194.086 122.674L194.353 123.969C192.73 124.133 191.272 124.442 189.978 124.898C187.894 125.627 186.334 126.365 185.299 127.112C186.299 120.677 186.847 114.271 186.941 107.893C186.946 107.582 186.95 107.26 186.955 106.925C186.995 104.202 186.597 102.116 185.761 100.668C184.293 98.4209 182.245 96.6535 179.619 95.3661C177.253 94.2026 173.742 93.0673 169.088 91.9601C168.698 92.5509 168.492 93.5866 168.47 95.0678C168.456 95.9995 168.593 97.2205 168.88 98.7306L163.835 96.6371ZM177.757 126.983C176.406 126.482 174.266 125.442 171.333 123.862C169.135 122.678 167.015 120.921 164.976 118.592C163.488 116.177 162.758 113.954 162.788 111.924C162.788 111.876 162.789 111.816 162.79 111.745C163.19 108.86 164.559 106.542 166.897 104.79C170.848 101.847 175.767 100.402 181.653 100.455C174.347 103.006 170.096 105.92 168.905 109.197C168.656 109.886 168.527 110.552 168.517 111.198C168.502 112.296 168.868 113.282 169.617 114.155C171.636 116.269 173.343 117.684 174.739 118.401C179.019 120.601 182.552 121.856 185.336 122.166L177.757 126.983ZM203.24 127.419C204.251 120.268 204.791 114.327 204.861 109.597C204.896 107.232 204.903 105.942 204.883 105.727C204.917 100.16 204.61 95.1487 203.961 90.6931L203.79 90.1169C206.678 89.8317 209.612 88.8664 212.591 87.2209L212.844 87.0817C212.346 88.4831 211.81 90.0987 211.235 91.9287L219.133 87.1893C220.487 87.5709 222.155 88.2926 224.142 89.354C226.01 90.3657 227.777 91.6982 229.445 93.3516L243.364 87.6042C244.717 87.9857 246.387 88.7073 248.374 89.7688C250.217 90.78 251.984 92.1125 253.676 93.7662C255.742 95.8087 257.188 98.0438 258.009 100.471C258.904 102.781 259.368 105.297 259.399 108.022C259.511 114.977 259.874 120.24 260.489 123.811L260.755 125.106C259.157 125.27 257.698 125.579 256.381 126.035C254.297 126.764 252.737 127.501 251.701 128.248C252.723 122.005 253.276 115.958 253.363 110.105C253.351 109.34 253.348 108.659 253.357 108.062C253.397 105.315 253 103.229 252.163 101.805C250.741 99.6061 248.694 97.8387 246.022 96.5026C241.762 94.3748 237.966 93.2825 234.63 93.2253C232.963 93.1968 231.41 93.421 229.973 93.8982C231.756 95.8165 233.024 97.8692 233.778 100.056C234.673 102.366 235.138 104.883 235.169 107.607C235.28 114.562 235.643 119.825 236.259 123.396L236.524 124.691C234.925 124.855 233.468 125.164 232.149 125.62C230.066 126.349 228.506 127.087 227.47 127.834C228.491 121.591 229.045 115.543 229.132 109.69C229.12 108.925 229.118 108.244 229.126 107.647C229.167 104.9 228.769 102.814 227.932 101.39C226.533 99.2634 224.486 97.4961 221.79 96.0879C219.425 94.8527 215.916 93.7174 211.26 92.6819L211.224 92.6813C211.031 94.4223 210.891 98.2909 210.802 104.287L210.783 105.541C210.685 112.254 211.098 118.067 212.027 122.982L212.294 124.276C210.671 124.44 209.213 124.749 207.919 125.205C205.835 125.934 204.275 126.672 203.24 127.419ZM284.22 128.948C282.821 128.59 281.139 127.868 279.177 126.783C277.215 125.674 275.447 124.342 273.874 122.786C271.807 120.719 270.374 118.484 269.575 116.081C268.795 114.085 268.32 111.568 268.149 108.53L268.152 108.387C268.189 105.831 268.813 103.201 270.021 100.498C270.933 98.4344 272.139 96.6032 273.64 95.0039C274.27 94.3458 274.995 93.713 275.813 93.1057L283.391 88.2892C284.647 88.7409 286.79 89.7812 289.816 91.41C292.015 92.5945 294.132 94.3512 296.172 96.6799C297.662 99.0949 298.392 101.318 298.362 103.348C298.361 103.396 298.361 103.456 298.36 103.527C297.958 106.436 296.591 108.754 294.253 110.482C290.277 113.425 285.358 114.87 279.497 114.817C286.92 112.412 291.335 109.56 292.743 106.263C293.037 105.575 293.19 104.896 293.201 104.228C293.201 104.204 293.201 104.18 293.201 104.156C293.202 104.132 293.202 104.108 293.202 104.084C293.218 103.081 292.815 102.094 291.996 101.125C290.709 99.5493 288.847 98.1317 286.41 96.8713C282.248 94.7213 278.859 93.4925 276.242 93.1848C275.314 94.6504 274.459 96.8818 273.676 99.8791C273.068 102.211 272.754 104.236 272.728 105.956C272.717 106.768 272.764 107.546 272.873 108.288C273.175 110.42 274.025 112.573 275.422 114.748C276.866 116.971 278.902 118.738 281.529 120.049C283.799 121.187 287.298 122.334 292.024 123.49L292.059 123.455C292.449 122.865 292.656 121.829 292.677 120.348C292.692 119.416 292.553 118.195 292.267 116.685L297.311 118.778C296.647 120.224 295.579 121.52 294.109 122.666C293 123.531 292.445 123.976 292.443 123.999L284.22 128.948ZM306.952 129.194C308.082 122.045 308.713 114.027 308.845 105.141C308.864 103.827 308.873 102.536 308.867 101.27C308.83 90.8035 308.508 83.534 307.901 79.4614L307.705 78.2395C310.617 77.9548 313.551 76.9895 316.506 75.3436L316.759 75.2045C315.586 81.9705 314.929 90.1791 314.787 99.83C314.78 100.236 314.774 100.654 314.768 101.084C314.598 112.551 314.923 120.442 315.741 124.757L316.009 126.052C314.384 126.215 312.926 126.524 311.632 126.98C309.549 127.709 307.988 128.447 306.952 129.194ZM326.681 129.532C327.811 122.383 328.442 114.365 328.574 105.478C328.593 104.164 328.599 102.874 328.594 101.608C328.558 91.1412 328.237 83.8717 327.63 79.7991L327.434 78.5771C330.345 78.2925 333.279 77.3271 336.234 75.6813L336.487 75.5422C335.314 82.3082 334.655 90.5167 334.513 100.168C334.507 100.574 334.501 100.992 334.495 101.422C334.326 112.888 334.649 120.779 335.467 125.094L335.735 126.389C334.112 126.553 332.654 126.862 331.361 127.318C329.276 128.047 327.717 128.785 326.681 129.532ZM347.035 87.443C347.517 85.4919 347.773 83.4413 347.804 81.2914C347.814 80.6465 347.799 80.001 347.762 79.3552C347.748 78.7099 347.698 78.0639 347.612 77.4171L347.409 76.661C350.487 76.403 353.612 75.3932 356.783 73.6316L357.036 73.4925C356.634 74.8477 356.415 76.7912 356.377 79.3235C356.367 79.9923 356.381 80.7332 356.416 81.5464C356.476 82.3358 356.558 83.2094 356.663 84.167C355.685 84.2699 354.705 84.4442 353.724 84.6903C352.767 84.9127 351.858 85.1839 350.995 85.5036C350.157 85.8 349.391 86.1213 348.692 86.4678C348.02 86.8148 347.469 87.1399 347.035 87.443ZM347.015 129.879C347.522 126.28 347.903 123.013 348.161 120.079C348.444 117.12 348.603 114.447 348.638 112.058C348.667 110.123 348.669 108.319 348.646 106.646C348.648 104.95 348.61 103.348 348.538 101.841C348.465 100.311 348.356 98.8396 348.21 97.4273C348.087 96.0153 347.93 94.591 347.735 93.1539L347.567 92.5777C349.023 92.4352 350.468 92.1255 351.906 91.6483C353.366 91.1475 354.855 90.4921 356.367 89.6817L356.62 89.5425C355.369 93.6549 354.687 99.39 354.578 106.748L354.559 108.002C354.46 114.715 354.875 120.528 355.804 125.442L356.069 126.737C355.044 126.839 354.063 127.014 353.131 127.26C352.222 127.484 351.373 127.744 350.583 128.041C349.815 128.339 349.118 128.649 348.494 128.973C347.895 129.297 347.401 129.599 347.015 129.879ZM366.923 130.221C367.934 123.069 368.473 117.129 368.543 112.399C368.578 110.034 368.586 108.744 368.565 108.528C368.6 102.961 368.292 97.9501 367.643 93.4945L367.473 92.9183C370.361 92.6331 373.294 91.6678 376.274 90.0223L376.526 89.8832C376.03 91.2845 375.493 92.9001 374.918 94.7303L382.816 89.9909C384.17 90.3725 385.838 91.094 387.824 92.1556C389.669 93.1668 391.436 94.4992 393.128 96.153C395.194 98.1956 396.638 100.431 397.461 102.858C398.356 105.167 398.821 107.684 398.852 110.409C398.963 117.364 399.326 122.627 399.941 126.198L400.208 127.493C398.608 127.656 397.15 127.966 395.832 128.421C393.749 129.15 392.188 129.888 391.153 130.635C392.173 124.392 392.728 118.344 392.814 112.492C392.802 111.727 392.801 111.046 392.809 110.449C392.85 107.701 392.451 105.616 391.615 104.192C390.216 102.065 388.169 100.298 385.473 98.8893C383.108 97.6542 379.599 96.519 374.943 95.4834L374.906 95.4827C374.713 97.2238 374.574 101.092 374.485 107.088L374.466 108.343C374.367 115.055 374.781 120.869 375.709 125.783L375.977 127.078C374.354 127.241 372.894 127.551 371.602 128.007C369.518 128.736 367.958 129.473 366.923 130.221ZM109.576 133.462C113.07 133.692 117.277 133.849 122.199 133.934C127.121 134.018 131.348 134.005 134.881 133.896L134.83 137.368C129.911 137.044 125.688 136.853 122.156 136.792C118.661 136.733 114.45 136.781 109.524 136.934L109.576 133.462ZM136.675 133.926C140.168 134.156 144.376 134.313 149.299 134.398C154.22 134.482 158.447 134.469 161.981 134.36L161.929 137.831C157.01 137.509 152.787 137.317 149.257 137.257C145.76 137.196 141.549 137.244 136.624 137.398L136.675 133.926ZM163.774 134.39C167.267 134.621 171.475 134.778 176.398 134.861C181.32 134.946 185.547 134.933 189.08 134.824L189.028 138.295C184.11 137.973 179.885 137.781 176.355 137.721C172.859 137.661 168.649 137.708 163.723 137.861L163.774 134.39ZM190.874 134.855C194.368 135.085 198.574 135.242 203.497 135.326C208.419 135.409 212.646 135.398 216.179 135.287L216.128 138.759C211.209 138.436 206.984 138.244 203.454 138.185C199.958 138.125 195.748 138.172 190.822 138.326L190.874 134.855ZM217.973 135.318C221.466 135.548 225.674 135.705 230.596 135.79C235.517 135.873 239.744 135.861 243.278 135.751L243.227 139.222C238.308 138.9 234.085 138.708 230.553 138.648C227.057 138.588 222.847 138.635 217.921 138.79L217.973 135.318ZM245.07 135.782C248.565 136.012 252.773 136.169 257.694 136.253C262.618 136.338 266.845 136.325 270.376 136.214L270.325 139.686C265.407 139.364 261.183 139.173 257.652 139.112C254.156 139.052 249.947 139.099 245.02 139.253L245.07 135.782ZM272.172 136.246C275.664 136.475 279.872 136.633 284.795 136.717C289.716 136.801 293.943 136.788 297.477 136.678L297.426 140.149C292.506 139.827 288.281 139.636 284.752 139.575C281.255 139.516 277.044 139.562 272.12 139.717L272.172 136.246ZM299.271 136.709C302.763 136.939 306.972 137.096 311.893 137.181C316.815 137.265 321.042 137.252 324.576 137.143L324.524 140.614C319.606 140.291 315.382 140.1 311.851 140.039C308.355 139.979 304.143 140.027 299.219 140.181L299.271 136.709ZM326.368 137.173C329.862 137.403 334.071 137.56 338.992 137.644C343.913 137.729 348.141 137.716 351.674 137.607L351.623 141.078C346.705 140.755 342.48 140.564 338.95 140.503C335.454 140.443 331.242 140.491 326.318 140.644L326.368 137.173ZM353.467 137.636C356.962 137.868 361.169 138.024 366.091 138.108C371.014 138.192 375.241 138.179 378.773 138.07L378.722 141.542C373.804 141.22 369.579 141.027 366.049 140.968C362.553 140.908 358.342 140.955 353.417 141.108L353.467 137.636ZM380.567 138.1C384.061 138.331 388.268 138.488 393.191 138.572C398.113 138.656 402.34 138.644 405.874 138.534L405.822 142.005C400.903 141.683 396.678 141.491 393.149 141.431C389.652 141.372 385.441 141.418 380.517 141.573L380.567 138.1Z" fill="black"/>
<path d="M101.312 82.2643C103.741 86.033 106.843 91.6638 112.62 87.9273C118.398 84.1907 139.523 73.3245 137.093 69.5556C134.665 65.7868 131.379 52.6417 119.287 62.243C95.2314 74.7471 98.8826 78.4954 101.312 82.2643Z" fill="#4E9E90"/>
<path d="M120.148 75.6128C106.609 84.3689 92.4047 86.4589 88.4225 80.281C84.4403 74.103 92.1879 61.9965 105.727 53.2403C119.267 44.4842 133.47 42.3942 137.453 48.572C141.435 54.7499 133.687 66.8564 120.148 75.6128Z" fill="#4E9E90"/>
<path d="M112.336 63.4956L116.334 78.0801L111.675 80.4326L112.336 63.4956Z" fill="black"/>
<path d="M104.541 64.5752L111.675 80.4332L107.261 81.9673L104.541 64.5752Z" fill="black"/>
<path d="M112.336 63.4956L122.326 74.2046L119.359 76.7839L116.334 78.08L112.336 63.4956Z" fill="black"/>
<path d="M97.647 67.0513L107.261 81.9663L101.457 83.7383L97.647 67.0513Z" fill="black"/>
<path d="M93.7212 66.9492L101.458 83.7388L95.2967 83.7608L93.7212 66.9492Z" fill="black"/>
<path d="M112.336 63.4956L126.384 70.9199L122.326 74.2046L112.336 63.4956Z" fill="black"/>
<path d="M116.394 60.2109L129.353 68.3398L126.384 70.9199L116.394 60.2109Z" fill="black"/>
<path d="M120.339 54.3574L133.899 63.4187L129.353 68.3402L120.339 54.3574Z" fill="black"/>
<path d="M125.786 50.834L137.301 57.9163L133.898 63.4185L125.786 50.834Z" fill="black"/>
<path d="M104.834 57.4718C105 57.7292 105.622 57.6224 106.224 57.2332C106.826 56.844 107.179 56.3199 107.013 56.0624C106.847 55.805 106.441 55.4194 105.839 55.8085C105.237 56.1977 104.668 57.2142 104.834 57.4718Z" fill="#B93A3A"/>
<path d="M92.6244 44.8833L92.7608 47.8946L93.0552 50.0729L94.1327 51.7446L90.4429 50.5781L91.7834 53.264L88.3564 53.1117L89.1014 54.2675L84.1101 57.4955L97.5127 56.9882L104.219 57.0645L104.758 57.9002L107.108 56.381L100.965 50.6845L92.6244 44.8833Z" fill="#C2EDC1"/>
<mask id="mask1_309_12649" style="mask-type:luminance" maskUnits="userSpaceOnUse" x="336" y="44" width="31" height="92">
<path d="M363.477 135.683L366.57 45.6397L339.7 44.6509L336.607 134.695L363.477 135.683Z" fill="white"/>
</mask>
<g mask="url(#mask1_309_12649)">
<path d="M363.035 45.5093L360.187 128.452L363.543 133.725L337.63 132.772L342.518 127.802L346.846 53.2827L354.635 49.7064L354.758 46.1703L363.035 45.5093Z" fill="#E1EE50"/>
<path d="M356.086 56.8805C356.055 57.7684 357.085 58.5267 358.386 58.5746C359.688 58.6224 360.767 57.9416 360.798 57.0538C360.829 56.1662 359.797 55.4076 358.496 55.3598C357.195 55.3119 356.115 55.9928 356.086 56.8805Z" fill="black"/>
<path d="M355.741 66.8859C355.712 67.7737 356.741 68.5322 358.043 68.5801C359.344 68.628 360.424 67.9471 360.455 67.0594C360.485 66.1715 359.454 65.4132 358.153 65.3652C356.851 65.3174 355.771 65.9982 355.741 66.8859Z" fill="black"/>
<path d="M355.252 81.1779C355.221 82.0656 356.251 82.8242 357.552 82.872C358.853 82.9199 359.933 82.239 359.963 81.3513C359.994 80.4635 358.963 79.7051 357.663 79.6572C356.362 79.6094 355.282 80.2901 355.252 81.1779Z" fill="black"/>
<path d="M354.76 95.4704C354.729 96.3581 355.759 97.1166 357.06 97.1644C358.362 97.2124 359.441 96.5314 359.472 95.6438C359.502 94.756 358.473 93.9976 357.171 93.9496C355.87 93.9018 354.791 94.5826 354.76 95.4704Z" fill="black"/>
<path d="M354.219 111.193C354.189 112.08 355.22 112.839 356.521 112.887C357.823 112.935 358.902 112.254 358.932 111.366C358.961 110.478 357.932 109.72 356.631 109.672C355.33 109.624 354.25 110.305 354.219 111.193Z" fill="black"/>
<path d="M353.828 122.627C353.796 123.514 354.827 124.273 356.127 124.321C357.429 124.369 358.509 123.688 358.539 122.8C358.569 121.912 357.54 121.154 356.238 121.106C354.938 121.058 353.858 121.739 353.828 122.627Z" fill="black"/>
<path d="M350.521 135.178C343.365 134.915 337.588 133.981 337.62 133.094C337.65 132.206 343.476 131.699 350.631 131.963C357.787 132.226 363.564 133.159 363.533 134.047C363.504 134.936 357.678 135.441 350.521 135.178Z" fill="black"/>
</g>
<path d="M278.072 98.6279C278.039 100.967 274.501 104.014 272.723 103.984C270.945 103.953 268.68 100.202 268.715 97.8624C268.749 95.5229 270.218 93.6511 271.998 93.6815C273.775 93.7119 278.107 96.2884 278.072 98.6279Z" fill="#D9D9D9"/>
<path d="M287.438 98.8067C287.405 101.009 291.071 103.996 292.96 104.028C294.85 104.061 297.367 100.609 297.399 98.4075C297.432 96.2058 295.925 94.3945 294.037 94.3622C292.146 94.3298 287.47 96.605 287.438 98.8067Z" fill="#D9D9D9"/>
<path d="M282.805 95.3799L286.871 97.5681L289.456 100.941L292.623 104.627L291.97 109.156L282.559 112.021L273.237 108.835L271.823 105.482L275.992 100.711L278.677 97.4278L282.805 95.3799Z" fill="#D9D9D9"/>
<path d="M282.442 103.994L280.928 103.52L280.351 102.904L280.666 101.397L282.494 100.437L284.179 101.457L284.45 102.974L283.855 103.57L282.442 103.994Z" fill="#D2A8A8"/>
<path d="M272.822 101.231L270.296 100.376L269.336 99.2552L269.876 96.4941L272.935 94.7231L275.741 96.575L276.183 99.3496L275.184 100.443L272.822 101.231Z" fill="#D2A8A8"/>
<path d="M293.311 101.581L290.786 100.726L289.827 99.6058L290.365 96.8446L293.427 95.0737L296.232 96.9255L296.672 99.7004L295.673 100.794L293.311 101.581Z" fill="#D2A8A8"/>
<path d="M287.422 99.8865C287.41 100.66 283.723 102.625 285.949 100.562C288.112 102.7 284.485 100.61 284.495 99.8364C284.507 99.063 285.97 99.2264 285.981 98.4609C285.97 99.1613 287.433 99.1131 287.422 99.8865Z" fill="#060404"/>
<path d="M283.848 105.347C283.848 105.347 283.55 106.762 282.358 107.137C281.477 106.529 280.772 105.28 280.94 104.087C280.94 104.087 282.411 103.53 282.393 104.717C283.739 102.607 284.289 105.037 283.848 105.347Z" fill="#B95076"/>
<path d="M280.982 99.7762C280.971 100.55 277.283 102.515 279.508 100.451C281.674 102.59 278.046 100.5 278.057 99.7262C278.068 98.9527 279.529 99.116 279.539 98.3506C279.53 99.051 280.994 99.0028 280.982 99.7762Z" fill="#060404"/>
<path d="M279.513 100.166C279.673 100.168 279.807 100.035 279.81 99.8683C279.812 99.701 279.683 99.5633 279.521 99.5606C279.361 99.5579 279.227 99.691 279.224 99.8581C279.222 100.025 279.352 100.163 279.513 100.166Z" fill="#D9D9D9"/>
<path d="M285.952 100.276C286.113 100.279 286.247 100.146 286.25 99.9786C286.252 99.8115 286.122 99.6738 285.961 99.6709C285.801 99.6682 285.667 99.8015 285.664 99.9686C285.661 100.136 285.791 100.273 285.952 100.276Z" fill="#D9D9D9"/>
<path d="M283.57 102.959C283.568 103.126 283.435 103.26 283.272 103.257C283.112 103.254 282.981 103.116 282.984 102.949C282.986 102.782 283.116 102.951 283.277 102.954C283.44 102.957 283.572 102.792 283.57 102.959Z" fill="#211D1D"/>
<path d="M281.815 102.917C281.812 103.084 281.678 103.217 281.518 103.214C281.355 103.212 281.227 103.074 281.23 102.907C281.232 102.74 281.36 102.909 281.523 102.912C281.683 102.914 281.817 102.75 281.815 102.917Z" fill="#211D1D"/>
<path d="M278.85 85.6279L279.278 96.2277L280.313 85.653L280.449 96.2477L281.026 96.8629L282.069 85.683L282.777 97.1956L283.241 85.703L284.246 96.9179L284.84 96.3229L285.582 85.7431L286.596 96.3529L287.045 85.7682L286.871 97.5683L285.102 98.4458L282.756 98.7084L280.124 98.3607L278.677 97.4281L278.85 85.6279Z" fill="#C55879"/>
<path d="M291.16 104.602L287.207 106.442C286.192 106.915 285.009 106.784 284.131 106.102C283.086 105.289 281.624 105.279 280.539 106.067C279.662 106.704 278.52 106.836 277.543 106.404L274.173 104.917" stroke="black" stroke-width="0.2"/>
<path d="M275.801 104.304C274.781 103.415 275.678 102.219 273.951 100.071" stroke="black" stroke-width="0.1"/>
<path d="M288.481 103.915C289.559 103.062 288.671 101.836 290.513 99.749" stroke="black" stroke-width="0.1"/>
<path d="M277.126 103.226C275.361 103.727 278.32 101.769 273.494 100.779" stroke="black" stroke-width="0.1"/>
<path d="M287.147 102.792C288.951 103.354 285.962 101.295 290.963 100.473" stroke="black" stroke-width="0.1"/>
<path d="M274.767 104.396C273.893 104.004 274.204 102.799 271.276 102.749" stroke="black" stroke-width="0.1"/>
<path d="M289.544 104.043C290.455 103.682 290.171 102.467 293.189 102.518" stroke="black" stroke-width="0.1"/>
<path d="M276.532 103.821C275.75 102.423 276.701 102.842 271.877 101.851" stroke="black" stroke-width="0.1"/>
<path d="M287.743 103.407C288.59 102.037 287.598 102.422 292.598 101.6" stroke="black" stroke-width="0.1"/>
<path d="M275.267 94.3164L277.975 94.0874L279.093 94.6569L279.303 95.7609L279.295 96.3112L278.836 96.8535L278.38 97.1208L277.484 96.8304L275.235 96.5168L273.44 95.9357L274.587 94.5797L275.267 94.3164Z" fill="#7D7171"/>
<path d="M289.167 94.5536L287.281 94.2461L286.483 94.7828L286.31 95.8803L286.301 96.4305L286.609 96.986L286.921 97.2665L287.555 97.0022L289.134 96.7541L290.404 96.2254L289.637 94.8367L289.167 94.5536Z" fill="#B4AAAA"/>
<path d="M275.844 94.9305L278.551 94.7017L279.669 95.271L279.879 96.375L279.871 96.9253L279.411 97.4676L278.956 97.735L278.06 97.4445L275.811 97.1309L274.016 96.5498L275.163 95.1939L275.844 94.9305Z" fill="#5B5656"/>
<path d="M288.311 95.2026L285.958 94.8687L284.967 95.4388L284.754 96.609L284.745 97.1958L285.13 97.7893L285.518 98.0893L286.306 97.8094L288.276 97.5497L289.856 96.9898L288.895 95.5061L288.311 95.2026Z" fill="#A09292"/>
<path d="M277.547 95.62L281.065 95.3501L282.518 96.0352L282.792 97.3605L282.782 98.0207L282.186 98.6709L281.596 98.9909L280.431 98.6407L277.509 98.2606L275.176 97.5604L276.664 95.935L277.547 95.62Z" fill="#795858"/>
<path d="M286.806 95.8522L283.749 95.4771L282.462 96.1007L282.19 97.3873L282.18 98.0328L282.681 98.6871L283.185 99.0185L284.212 98.7133L286.767 98.4342L288.818 97.8237L287.567 96.1881L286.806 95.8522Z" fill="#8F7171"/>
<path d="M273.096 109.288C273.115 109.204 273.198 109.15 273.284 109.168L277.831 110.111C277.878 110.12 277.924 110.11 277.959 110.083L280.158 108.436C280.222 108.387 280.313 108.395 280.369 108.454L280.847 108.965L282.202 110.411C282.253 110.465 282.333 110.477 282.397 110.44L284.505 109.216C284.67 109.12 284.833 109.345 284.691 109.473L282.865 111.118L282.663 111.321C282.608 111.376 282.522 111.383 282.458 111.338L280.05 109.619C279.996 109.581 279.924 109.58 279.87 109.616L278.235 110.703C278.205 110.724 278.165 110.733 278.126 110.728L273.1 110.063C273.006 110.051 272.945 109.961 272.965 109.87L273.096 109.288Z" fill="#C55879"/>
<path d="M292.006 109.587C291.983 109.513 291.909 109.466 291.832 109.476L285.757 110.25C285.71 110.256 285.667 110.242 285.632 110.212L283.294 108.177C283.238 108.13 283.161 108.125 283.101 108.163L281.845 108.983L280.319 110.111C280.273 110.145 280.211 110.151 280.16 110.128L277.823 109.075C277.654 108.999 277.514 109.224 277.656 109.343L279.356 110.756L280.128 111.306C280.186 111.348 280.265 111.346 280.319 111.301L283.084 109.089C283.146 109.041 283.231 109.043 283.29 109.094L285.241 110.813C285.272 110.842 285.315 110.856 285.357 110.853L292.045 110.385C292.147 110.378 292.217 110.278 292.187 110.179L292.006 109.587Z" fill="#C55879"/>
<path d="M287.615 111.31L292.459 106.605L293.231 108.214L292.4 110.594L289.205 111.337L287.615 111.31Z" fill="black"/>
<path d="M268.432 50.6494C268.432 53.1294 266.487 55.5613 262.941 57.4117C259.438 59.2405 254.555 60.3897 249.129 60.3897C243.702 60.3897 238.82 59.2405 235.316 57.4117C231.77 55.5613 229.826 53.1294 229.826 50.6494C229.826 48.1694 231.77 45.7376 235.316 43.8872C238.82 42.0584 243.702 40.9092 249.129 40.9092C254.555 40.9092 259.438 42.0584 262.941 43.8872C266.487 45.7376 268.432 48.1694 268.432 50.6494Z" fill="black" stroke="#E1EE50"/>
<path d="M199.665 50.6494C199.665 53.1294 197.72 55.5613 194.175 57.4117C190.671 59.2405 185.789 60.3897 180.362 60.3897C174.935 60.3897 170.053 59.2405 166.55 57.4117C163.004 55.5613 161.059 53.1294 161.059 50.6494C161.059 48.1694 163.004 45.7376 166.55 43.8872C170.053 42.0584 174.935 40.9092 180.362 40.9092C185.789 40.9092 190.671 42.0584 194.175 43.8872C197.72 45.7376 199.665 48.1694 199.665 50.6494Z" fill="black" stroke="#E1EE50"/>
<path d="M337.198 50.6494C337.198 53.1294 335.254 55.5613 331.708 57.4117C328.204 59.2405 323.322 60.3897 317.895 60.3897C312.469 60.3897 307.586 59.2405 304.083 57.4117C300.537 55.5613 298.593 53.1294 298.593 50.6494C298.593 48.1694 300.537 45.7376 304.083 43.8872C307.586 42.0584 312.469 40.9092 317.895 40.9092C323.322 40.9092 328.204 42.0584 331.708 43.8872C335.254 45.7376 337.198 48.1694 337.198 50.6494Z" fill="black" stroke="#E1EE50"/>
</g>
</svg>
