<svg width="620" height="620" viewBox="0 0 620 620" fill="none" xmlns="http://www.w3.org/2000/svg">
<g clip-path="url(#clip0_341_27143)">
<mask id="mask0_341_27143" style="mask-type:luminance" maskUnits="userSpaceOnUse" x="10" y="10" width="600" height="600">
<path d="M580 10H40C23.4315 10 10 23.4315 10 40V580C10 596.569 23.4315 610 40 610H580C596.569 610 610 596.569 610 580V40C610 23.4315 596.569 10 580 10Z" fill="white"/>
</mask>
<g mask="url(#mask0_341_27143)">
<path d="M580 10H40C23.4315 10 10 23.4315 10 40V580C10 596.569 23.4315 610 40 610H580C596.569 610 610 596.569 610 580V40C610 23.4315 596.569 10 580 10Z" fill="black"/>
<path d="M681 333H6V623H681V333Z" fill="#C1C1C1"/>
<path d="M162.69 81.4107L59.4553 8.53572L-17.9707 -35V25.5714L122.134 123.054L188.499 227.161L265.925 336H320L216.765 147.661L162.69 81.4107Z" fill="#939393"/>
<path d="M121.626 88.9729L18.7656 18.2626L-58.3799 -23.98V34.7923L81.2167 129.379L147.341 230.394L224.487 336H278.366L175.506 153.255L121.626 88.9729Z" fill="#939393"/>
<path d="M67.7465 88.9729L-35.1141 18.2626L-112.26 -23.98V34.7923L27.337 129.379L93.4617 230.394L170.607 336H224.486L121.626 153.255L67.7465 88.9729Z" fill="#939393"/>
<path d="M1.55885 100.316L-106.164 32.8526L-186.957 -7.4502V48.6233L-40.7609 138.866L28.4897 235.243L109.282 336H171.831L57.9853 161.646L1.55885 100.316Z" fill="#939393"/>
<path d="M-44.9104 88.9729L-147.771 18.2626L-224.916 -23.98V34.7923L-85.3199 129.379L-19.1953 230.394L57.9502 336H111.83L8.96895 153.255L-44.9104 88.9729Z" fill="#939393"/>
<path d="M-88.9939 88.9729L-191.855 18.2626L-269 -23.98V34.7923L-129.403 129.379L-63.2787 230.394L13.8667 336H67.7461L-35.1145 153.255L-88.9939 88.9729Z" fill="#939393"/>
<path d="M513.5 324.3H502V181.5L510 306.45L513.5 181.5L520.5 306.45L524.5 181.5L530 324.3H513.5Z" fill="#535353"/>
<path d="M439.5 315.8H428V173L436 297.95L439.5 173L446.5 297.95L450.5 173L456 315.8H439.5Z" fill="#535353"/>
<path d="M593.5 322.6H582V179.8L590 304.75L593.5 179.8L600.5 304.75L604.5 179.8L610 322.6H593.5Z" fill="#535353"/>
<path d="M327.5 320.9H316V178.1L324 303.05L327.5 178.1L334.5 303.05L338.5 178.1L344 320.9H327.5Z" fill="#535353"/>
<path d="M485.5 324.3H474V181.5L482 306.45L485.5 181.5L492.5 306.45L496.5 181.5L502 324.3H485.5Z" fill="#535353"/>
<path d="M411.5 315.8H400V173L408 297.95L411.5 173L418.5 297.95L422.5 173L428 315.8H411.5Z" fill="#535353"/>
<path d="M565.5 322.6H554V179.8L562 304.75L565.5 179.8L572.5 304.75L576.5 179.8L582 322.6H565.5Z" fill="#535353"/>
<path d="M299.5 320.9H288V178.1L296 303.05L299.5 178.1L306.5 303.05L310.5 178.1L316 320.9H299.5Z" fill="#535353"/>
<path d="M457.5 324.3H446V181.5L454 306.45L457.5 181.5L464.5 306.45L468.5 181.5L474 324.3H457.5Z" fill="#535353"/>
<path d="M383.5 315.8H372V173L380 297.95L383.5 173L390.5 297.95L394.5 173L400 315.8H383.5Z" fill="#535353"/>
<path d="M537.5 322.6H526V179.8L534 304.75L537.5 179.8L544.5 304.75L548.5 179.8L554 322.6H537.5Z" fill="#535353"/>
<path d="M271.5 320.9H260V178.1L268 303.05L271.5 178.1L278.5 303.05L282.5 178.1L288 320.9H271.5Z" fill="#535353"/>
<path d="M429.5 324.3H418V181.5L426 306.45L429.5 181.5L436.5 306.45L440.5 181.5L446 324.3H429.5Z" fill="#535353"/>
<path d="M355.5 315.8H344V173L352 297.95L355.5 173L362.5 297.95L366.5 173L372 315.8H355.5Z" fill="#535353"/>
<path d="M509.5 322.6H498V179.8L506 304.75L509.5 179.8L516.5 304.75L520.5 179.8L526 322.6H509.5Z" fill="#535353"/>
<path d="M243.5 320.9H232V178.1L240 303.05L243.5 178.1L250.5 303.05L254.5 178.1L260 320.9H243.5Z" fill="#535353"/>
<path d="M411.5 341.3H400V198.5L408 323.45L411.5 198.5L418.5 323.45L422.5 198.5L428 341.3H411.5Z" fill="#535353"/>
<path d="M337.5 332.8H326V190L334 314.95L337.5 190L344.5 314.95L348.5 190L354 332.8H337.5Z" fill="#535353"/>
<path d="M491.5 339.6H480V196.8L488 321.75L491.5 196.8L498.5 321.75L502.5 196.8L508 339.6H491.5Z" fill="#535353"/>
<path d="M225.5 337.9H214V195.1L222 320.05L225.5 195.1L232.5 320.05L236.5 195.1L242 337.9H225.5Z" fill="#535353"/>
<path d="M443.5 324.3H432V181.5L440 306.45L443.5 181.5L450.5 306.45L454.5 181.5L460 324.3H443.5Z" fill="#535353"/>
<path d="M369.5 315.8H358V173L366 297.95L369.5 173L376.5 297.95L380.5 173L386 315.8H369.5Z" fill="#535353"/>
<path d="M523.5 322.6H512V179.8L520 304.75L523.5 179.8L530.5 304.75L534.5 179.8L540 322.6H523.5Z" fill="#535353"/>
<path d="M257.5 320.9H246V178.1L254 303.05L257.5 178.1L264.5 303.05L268.5 178.1L274 320.9H257.5Z" fill="#535353"/>
<path d="M463.5 324.3H452V181.5L460 306.45L463.5 181.5L470.5 306.45L474.5 181.5L480 324.3H463.5Z" fill="#535353"/>
<path d="M389.5 315.8H378V173L386 297.95L389.5 173L396.5 297.95L400.5 173L406 315.8H389.5Z" fill="#535353"/>
<path d="M543.5 322.6H532V179.8L540 304.75L543.5 179.8L550.5 304.75L554.5 179.8L560 322.6H543.5Z" fill="#535353"/>
<path d="M277.5 320.9H266V178.1L274 303.05L277.5 178.1L284.5 303.05L288.5 178.1L294 320.9H277.5Z" fill="#535353"/>
<path d="M453.5 343H442V200.2L450 325.15L453.5 200.2L460.5 325.15L464.5 200.2L470 343H453.5Z" fill="#535353"/>
<path d="M379.5 334.5H368V191.7L376 316.65L379.5 191.7L386.5 316.65L390.5 191.7L396 334.5H379.5Z" fill="#535353"/>
<path d="M533.5 341.3H522V198.5L530 323.45L533.5 198.5L540.5 323.45L544.5 198.5L550 341.3H533.5Z" fill="#535353"/>
<path d="M267.5 339.6H256V196.8L264 321.75L267.5 196.8L274.5 321.75L278.5 196.8L284 339.6H267.5Z" fill="#535353"/>
<path d="M485.5 324.3H474V181.5L482 306.45L485.5 181.5L492.5 306.45L496.5 181.5L502 324.3H485.5Z" fill="#535353"/>
<path d="M411.5 315.8H400V173L408 297.95L411.5 173L418.5 297.95L422.5 173L428 315.8H411.5Z" fill="#535353"/>
<path d="M565.5 322.6H554V179.8L562 304.75L565.5 179.8L572.5 304.75L576.5 179.8L582 322.6H565.5Z" fill="#535353"/>
<path d="M299.5 320.9H288V178.1L296 303.05L299.5 178.1L306.5 303.05L310.5 178.1L316 320.9H299.5Z" fill="#535353"/>
<path d="M491.5 343H480V200.2L488 325.15L491.5 200.2L498.5 325.15L502.5 200.2L508 343H491.5Z" fill="#535353"/>
<path d="M417.5 334.5H406V191.7L414 316.65L417.5 191.7L424.5 316.65L428.5 191.7L434 334.5H417.5Z" fill="#535353"/>
<path d="M571.5 341.3H560V198.5L568 323.45L571.5 198.5L578.5 323.45L582.5 198.5L588 341.3H571.5Z" fill="#535353"/>
<path d="M305.5 339.6H294V196.8L302 321.75L305.5 196.8L312.5 321.75L316.5 196.8L322 339.6H305.5Z" fill="#535353"/>
<path d="M261.5 346.3H250V203.5L258 328.45L261.5 203.5L268.5 328.45L272.5 203.5L278 346.3H261.5Z" fill="#535353"/>
<path d="M187.5 337.8H176V195L184 319.95L187.5 195L194.5 319.95L198.5 195L204 337.8H187.5Z" fill="#535353"/>
<path d="M341.5 344.6H330V201.8L338 326.75L341.5 201.8L348.5 326.75L352.5 201.8L358 344.6H341.5Z" fill="#535353"/>
<path d="M75.5 342.9H64V200.1L72 325.05L75.5 200.1L82.5 325.05L86.5 200.1L92 342.9H75.5Z" fill="#535353"/>
<path d="M233.5 346.3H222V203.5L230 328.45L233.5 203.5L240.5 328.45L244.5 203.5L250 346.3H233.5Z" fill="#535353"/>
<path d="M159.5 337.8H148V195L156 319.95L159.5 195L166.5 319.95L170.5 195L176 337.8H159.5Z" fill="#535353"/>
<path d="M313.5 344.6H302V201.8L310 326.75L313.5 201.8L320.5 326.75L324.5 201.8L330 344.6H313.5Z" fill="#535353"/>
<path d="M47.5 342.9H36V200.1L44 325.05L47.5 200.1L54.5 325.05L58.5 200.1L64 342.9H47.5Z" fill="#535353"/>
<path d="M205.5 346.3H194V203.5L202 328.45L205.5 203.5L212.5 328.45L216.5 203.5L222 346.3H205.5Z" fill="#535353"/>
<path d="M131.5 337.8H120V195L128 319.95L131.5 195L138.5 319.95L142.5 195L148 337.8H131.5Z" fill="#535353"/>
<path d="M285.5 344.6H274V201.8L282 326.75L285.5 201.8L292.5 326.75L296.5 201.8L302 344.6H285.5Z" fill="#535353"/>
<path d="M19.5 342.9H8V200.1L16 325.05L19.5 200.1L26.5 325.05L30.5 200.1L36 342.9H19.5Z" fill="#535353"/>
<path d="M177.5 346.3H166V203.5L174 328.45L177.5 203.5L184.5 328.45L188.5 203.5L194 346.3H177.5Z" fill="#535353"/>
<path d="M103.5 337.8H92V195L100 319.95L103.5 195L110.5 319.95L114.5 195L120 337.8H103.5Z" fill="#535353"/>
<path d="M257.5 344.6H246V201.8L254 326.75L257.5 201.8L264.5 326.75L268.5 201.8L274 344.6H257.5Z" fill="#535353"/>
<path d="M159.5 363.3H148V220.5L156 345.45L159.5 220.5L166.5 345.45L170.5 220.5L176 363.3H159.5Z" fill="#535353"/>
<path d="M85.5 354.8H74V212L82 336.95L85.5 212L92.5 336.95L96.5 212L102 354.8H85.5Z" fill="#535353"/>
<path d="M239.5 361.6H228V218.8L236 343.75L239.5 218.8L246.5 343.75L250.5 218.8L256 361.6H239.5Z" fill="#535353"/>
<path d="M191.5 346.3H180V203.5L188 328.45L191.5 203.5L198.5 328.45L202.5 203.5L208 346.3H191.5Z" fill="#535353"/>
<path d="M117.5 337.8H106V195L114 319.95L117.5 195L124.5 319.95L128.5 195L134 337.8H117.5Z" fill="#535353"/>
<path d="M271.5 344.6H260V201.8L268 326.75L271.5 201.8L278.5 326.75L282.5 201.8L288 344.6H271.5Z" fill="#535353"/>
<path d="M5.5 342.9H-6V200.1L2 325.05L5.5 200.1L12.5 325.05L16.5 200.1L22 342.9H5.5Z" fill="#535353"/>
<path d="M211.5 346.3H200V203.5L208 328.45L211.5 203.5L218.5 328.45L222.5 203.5L228 346.3H211.5Z" fill="#535353"/>
<path d="M137.5 337.8H126V195L134 319.95L137.5 195L144.5 319.95L148.5 195L154 337.8H137.5Z" fill="#535353"/>
<path d="M291.5 344.6H280V201.8L288 326.75L291.5 201.8L298.5 326.75L302.5 201.8L308 344.6H291.5Z" fill="#535353"/>
<path d="M25.5 342.9H14V200.1L22 325.05L25.5 200.1L32.5 325.05L36.5 200.1L42 342.9H25.5Z" fill="#535353"/>
<path d="M201.5 365H190V222.2L198 347.15L201.5 222.2L208.5 347.15L212.5 222.2L218 365H201.5Z" fill="#535353"/>
<path d="M127.5 356.5H116V213.7L124 338.65L127.5 213.7L134.5 338.65L138.5 213.7L144 356.5H127.5Z" fill="#535353"/>
<path d="M281.5 363.3H270V220.5L278 345.45L281.5 220.5L288.5 345.45L292.5 220.5L298 363.3H281.5Z" fill="#535353"/>
<path d="M15.5 361.6H4V218.8L12 343.75L15.5 218.8L22.5 343.75L26.5 218.8L32 361.6H15.5Z" fill="#535353"/>
<path d="M233.5 346.3H222V203.5L230 328.45L233.5 203.5L240.5 328.45L244.5 203.5L250 346.3H233.5Z" fill="#535353"/>
<path d="M159.5 337.8H148V195L156 319.95L159.5 195L166.5 319.95L170.5 195L176 337.8H159.5Z" fill="#535353"/>
<path d="M313.5 344.6H302V201.8L310 326.75L313.5 201.8L320.5 326.75L324.5 201.8L330 344.6H313.5Z" fill="#535353"/>
<path d="M47.5 342.9H36V200.1L44 325.05L47.5 200.1L54.5 325.05L58.5 200.1L64 342.9H47.5Z" fill="#535353"/>
<path d="M239.5 365H228V222.2L236 347.15L239.5 222.2L246.5 347.15L250.5 222.2L256 365H239.5Z" fill="#535353"/>
<path d="M165.5 356.5H154V213.7L162 338.65L165.5 213.7L172.5 338.65L176.5 213.7L182 356.5H165.5Z" fill="#535353"/>
<path d="M319.5 363.3H308V220.5L316 345.45L319.5 220.5L326.5 345.45L330.5 220.5L336 363.3H319.5Z" fill="#535353"/>
<path d="M53.5 361.6H42V218.8L50 343.75L53.5 218.8L60.5 343.75L64.5 218.8L70 361.6H53.5Z" fill="#535353"/>
<path d="M438.735 163.346L445.905 167.054L454.867 165.2L456.66 356.167L447.697 371L449.49 358.022L438.735 356.167L431.566 350.605L415.434 358.022L427.981 348.751L431.566 335.773L430.174 340.812L419.019 341.335L424.396 339.481L429.773 337.627L433.358 330.211L438.735 231.946L399.302 213.405L402.887 209.697L436.943 220.822L438.735 215.259V163.346Z" fill="#7C7C7C"/>
<path d="M454.867 165.2H463.829L470.999 157.784V187.449L479.961 185.595L505.055 167.054L506.848 168.908L490.716 181.886L497.886 178.178L530.149 159.638L533.734 161.492L472.791 202.281L479.961 332.065L483.546 337.627L492.508 341.335H488.923H479.961L474.584 348.751L472.791 352.459V363.584L469.207 356.167H456.66L454.867 165.2Z" fill="#7C7C7C"/>
<path d="M411.85 200.427C427.981 207.843 404.679 230.092 399.303 217.114C383.17 230.092 374.208 202.281 386.756 200.427C377.793 185.595 397.509 172.616 399.303 183.741C424.396 174.47 415.434 196.719 411.85 200.427Z" fill="#999999"/>
<path d="M417.759 193.483C433.89 200.899 410.588 223.148 405.212 210.17C389.079 223.148 380.117 195.337 392.665 193.483C383.702 178.651 403.419 165.672 405.212 176.797C430.305 167.526 421.343 189.775 417.759 193.483Z" fill="#999999"/>
<path d="M407.005 193.483C423.135 200.899 399.834 223.148 394.458 210.17C378.325 223.148 369.363 195.337 381.911 193.483C372.948 178.651 392.664 165.672 394.458 176.797C419.551 167.526 410.588 189.775 407.005 193.483Z" fill="#999999"/>
<path d="M550.399 160.11C566.53 167.526 543.228 189.775 537.852 176.797C521.719 189.775 512.757 161.964 525.305 160.11C516.342 145.278 536.059 132.299 537.852 143.424C562.945 134.153 553.983 156.402 550.399 160.11Z" fill="#999999"/>
<path d="M485.802 117.498C525.53 141.363 468.141 212.961 454.901 171.196C415.167 212.961 393.095 123.465 423.999 117.498C401.924 69.7666 450.483 28.0005 454.901 63.8002C516.701 33.967 494.628 105.564 485.802 117.498Z" fill="#999999"/>
<path d="M509.186 95.1512C548.914 119.016 491.525 190.614 478.285 148.849C438.551 190.614 416.479 101.118 447.383 95.1512C425.308 47.4195 473.867 5.65337 478.285 41.453C540.085 11.6199 518.012 83.2175 509.186 95.1512Z" fill="#999999"/>
<path d="M473.87 95.1512C513.597 119.016 456.209 190.614 442.968 148.849C403.234 190.614 381.162 101.118 412.067 95.1512C389.991 47.4195 438.551 5.65337 442.968 41.453C504.768 11.6199 482.696 83.2175 473.87 95.1512Z" fill="#999999"/>
<path d="M390.735 151.346L397.905 155.054L406.867 153.2L408.66 344.167L399.697 359L401.49 346.022L390.735 344.167L383.566 338.605L367.434 346.022L379.981 336.751L383.566 323.773L382.174 328.812L371.019 329.335L376.396 327.481L381.773 325.627L385.358 318.211L390.735 219.946L351.302 201.405L354.887 197.697L388.943 208.822L390.735 203.259V151.346Z" fill="#8F8F8F"/>
<path d="M406.867 153.2H415.829L422.999 145.784V175.449L431.961 173.595L457.055 155.054L458.848 156.908L442.716 169.886L449.886 166.178L482.149 147.638L485.734 149.492L424.791 190.281L431.961 320.065L435.546 325.627L444.508 329.335H440.923H431.961L426.584 336.751L424.791 340.459V351.584L421.207 344.167H408.66L406.867 153.2Z" fill="#8F8F8F"/>
<path d="M363.85 188.427C379.981 195.843 356.679 218.092 351.303 205.114C335.17 218.092 326.208 190.281 338.756 188.427C329.793 173.595 349.509 160.616 351.303 171.741C376.396 162.47 367.434 184.719 363.85 188.427Z" fill="#858585"/>
<path d="M369.759 181.483C385.89 188.899 362.588 211.148 357.212 198.17C341.079 211.148 332.117 183.337 344.665 181.483C335.702 166.651 355.419 153.672 357.212 164.797C382.305 155.526 373.343 177.775 369.759 181.483Z" fill="#858585"/>
<path d="M359.005 181.483C375.135 188.899 351.834 211.148 346.458 198.17C330.325 211.148 321.363 183.337 333.911 181.483C324.948 166.651 344.664 153.672 346.458 164.797C371.551 155.526 362.588 177.775 359.005 181.483Z" fill="#858585"/>
<path d="M502.399 148.11C518.53 155.526 495.228 177.775 489.852 164.797C473.719 177.775 464.757 149.964 477.305 148.11C468.342 133.278 488.059 120.299 489.852 131.424C514.945 122.153 505.983 144.402 502.399 148.11Z" fill="#858585"/>
<path d="M437.802 105.498C477.53 129.363 420.141 200.961 406.901 159.196C367.167 200.961 345.095 111.465 375.999 105.498C353.924 57.7666 402.483 16.0005 406.901 51.8002C468.701 21.967 446.628 93.5646 437.802 105.498Z" fill="#858585"/>
<path d="M461.186 83.1512C500.914 107.016 443.525 178.614 430.285 136.849C390.551 178.614 368.479 89.1177 399.383 83.1512C377.308 35.4195 425.867 -6.34663 430.285 29.453C492.085 -0.380089 470.012 71.2175 461.186 83.1512Z" fill="#858585"/>
<path d="M425.87 83.1512C465.597 107.016 408.209 178.614 394.968 136.849C355.234 178.614 333.162 89.1177 364.067 83.1512C341.991 35.4195 390.551 -6.34663 394.968 29.453C456.768 -0.380089 434.696 71.2175 425.87 83.1512Z" fill="#858585"/>
<path d="M276.781 150.346L284.07 154.054L293.181 152.2L295.004 343.167L285.892 358L287.715 345.022L276.781 343.167L269.491 337.605L253.091 345.022L265.847 335.751L269.491 322.773L268.076 327.812L256.735 328.335L262.202 326.481L267.669 324.627L271.314 317.211L276.781 218.946L236.69 200.405L240.335 196.697L274.958 207.822L276.781 202.259V150.346Z" fill="#878787"/>
<path d="M293.181 152.2H302.293L309.582 144.784V174.449L318.694 172.595L344.206 154.054L346.028 155.908L329.628 168.886L336.917 165.178L369.718 146.638L373.363 148.492L311.404 189.281L318.694 319.065L322.338 324.627L331.45 328.335H327.805H318.694L313.227 335.751L311.404 339.459V350.584L307.76 343.167H295.004L293.181 152.2Z" fill="#878787"/>
<path d="M249.447 187.427C265.847 194.843 242.157 217.092 236.691 204.114C220.289 217.092 211.178 189.281 223.935 187.427C214.822 172.595 234.868 159.616 236.691 170.741C262.202 161.47 253.091 183.719 249.447 187.427Z" fill="#919191"/>
<path d="M255.455 180.483C271.855 187.899 248.165 210.148 242.699 197.17C226.297 210.148 217.186 182.337 229.943 180.483C220.83 165.651 240.875 152.672 242.699 163.797C268.21 154.526 259.098 176.775 255.455 180.483Z" fill="#919191"/>
<path d="M244.522 180.483C260.921 187.899 237.231 210.148 231.765 197.17C215.363 210.148 206.252 182.337 219.009 180.483C209.897 165.651 229.942 152.672 231.765 163.797C257.276 154.526 248.165 176.775 244.522 180.483Z" fill="#919191"/>
<path d="M390.306 147.11C406.706 154.526 383.016 176.775 377.55 163.797C361.148 176.775 352.037 148.964 364.794 147.11C355.681 132.278 375.727 119.299 377.55 130.424C403.061 121.153 393.95 143.402 390.306 147.11Z" fill="#919191"/>
<path d="M324.632 104.498C365.022 128.363 306.677 199.961 293.216 158.196C252.82 199.961 230.38 110.465 261.799 104.498C239.356 56.7666 288.724 15.0005 293.216 50.8002C356.046 20.967 333.605 92.5646 324.632 104.498Z" fill="#919191"/>
<path d="M348.406 82.1512C388.795 106.016 330.45 177.614 316.989 135.849C276.593 177.614 254.153 88.1177 285.572 82.1512C263.129 34.4195 312.498 -7.34663 316.989 28.453C379.819 -1.38008 357.379 70.2175 348.406 82.1512Z" fill="#919191"/>
<path d="M312.501 82.1512C352.891 106.016 294.545 177.614 281.084 135.849C240.688 177.614 218.248 88.1177 249.668 82.1512C227.225 34.4195 276.593 -7.34663 281.084 28.453C343.914 -1.38008 321.474 70.2175 312.501 82.1512Z" fill="#919191"/>
<path d="M67.7807 154.346L75.0699 158.054L84.1814 156.2L86.0037 347.167L76.8922 362L78.7145 349.022L67.7807 347.167L60.4914 341.605L44.0907 349.022L56.8468 339.751L60.4914 326.773L59.0763 331.812L47.7353 332.335L53.2022 330.481L58.6691 328.627L62.3138 321.211L67.7807 222.946L27.6899 204.405L31.3346 200.697L65.9584 211.822L67.7807 206.259V154.346Z" fill="#878787"/>
<path d="M84.1816 156.2H93.2931L100.582 148.784V178.449L109.694 176.595L135.206 158.054L137.028 159.908L120.628 172.886L127.917 169.178L160.718 150.638L164.363 152.492L102.404 193.281L109.694 323.065L113.338 328.627L122.45 332.335H118.805H109.694L104.227 339.751L102.404 343.459V354.584L98.7601 347.167H86.0039L84.1816 156.2Z" fill="#878787"/>
<path d="M40.4475 191.427C56.847 198.843 33.1571 221.092 27.6914 208.114C11.2893 221.092 2.178 193.281 14.9352 191.427C5.82261 176.595 25.8678 163.616 27.6914 174.741C53.2024 165.47 44.0909 187.719 40.4475 191.427Z" fill="#919191"/>
<path d="M46.4553 184.483C62.8548 191.899 39.1649 214.148 33.6992 201.17C17.2971 214.148 8.18582 186.337 20.943 184.483C11.8304 169.651 31.8757 156.672 33.6992 167.797C59.2102 158.526 50.0987 180.775 46.4553 184.483Z" fill="#919191"/>
<path d="M35.5217 184.483C51.9212 191.899 28.2313 214.148 22.7656 201.17C6.36347 214.148 -2.7478 186.337 10.0095 184.483C0.896809 169.651 20.9421 156.672 22.7656 167.797C48.2766 158.526 39.1651 180.775 35.5217 184.483Z" fill="#919191"/>
<path d="M181.306 151.11C197.706 158.526 174.016 180.775 168.55 167.797C152.148 180.775 143.037 152.964 155.794 151.11C146.681 136.278 166.727 123.299 168.55 134.424C194.061 125.153 184.95 147.402 181.306 151.11Z" fill="#919191"/>
<path d="M115.632 108.498C156.022 132.363 97.6768 203.961 84.2156 162.196C43.8195 203.961 21.3797 114.465 52.799 108.498C30.3559 60.7666 79.7245 19.0005 84.2156 54.8002C147.046 24.967 124.605 96.5646 115.632 108.498Z" fill="#919191"/>
<path d="M139.406 86.1512C179.795 110.016 121.45 181.614 107.989 139.849C67.5929 181.614 45.1531 92.1177 76.5724 86.1512C54.1293 38.4195 103.498 -3.34663 107.989 32.453C170.819 2.61992 148.379 74.2175 139.406 86.1512Z" fill="#919191"/>
<path d="M103.501 86.1512C143.891 110.016 85.5455 181.614 72.0843 139.849C31.6882 181.614 9.24832 92.1177 40.6676 86.1512C18.2245 38.4195 67.5931 -3.34663 72.0843 32.453C134.914 2.61992 112.474 74.2175 103.501 86.1512Z" fill="#919191"/>
<path d="M143.781 144.346L151.07 148.054L160.181 146.2L162.004 337.167L152.892 352L154.715 339.022L143.781 337.167L136.491 331.605L120.091 339.022L132.847 329.751L136.491 316.773L135.076 321.812L123.735 322.335L129.202 320.481L134.669 318.627L138.314 311.211L143.781 212.946L103.69 194.405L107.335 190.697L141.958 201.822L143.781 196.259V144.346Z" fill="#878787"/>
<path d="M160.181 146.2H169.293L176.582 138.784V168.449L185.694 166.595L211.206 148.054L213.028 149.908L196.628 162.886L203.917 159.178L236.718 140.638L240.363 142.492L178.404 183.281L185.694 313.065L189.338 318.627L198.45 322.335H194.805H185.694L180.227 329.751L178.404 333.459V344.584L174.76 337.167H162.004L160.181 146.2Z" fill="#878787"/>
<path d="M116.447 181.427C132.847 188.843 109.157 211.092 103.691 198.114C87.2893 211.092 78.178 183.281 90.9352 181.427C81.8226 166.595 101.868 153.616 103.691 164.741C129.202 155.47 120.091 177.719 116.447 181.427Z" fill="#8C8C8C" fill-opacity="0.6"/>
<path d="M122.455 174.483C138.855 181.899 115.165 204.148 109.699 191.17C93.2971 204.148 84.1858 176.337 96.943 174.483C87.8304 159.651 107.875 146.672 109.699 157.797C135.21 148.526 126.098 170.775 122.455 174.483Z" fill="#8C8C8C" fill-opacity="0.6"/>
<path d="M111.522 174.483C127.921 181.899 104.231 204.148 98.7656 191.17C82.3635 204.148 73.2522 176.337 86.0095 174.483C76.8968 159.651 96.9421 146.672 98.7656 157.797C124.276 148.526 115.165 170.775 111.522 174.483Z" fill="#8C8C8C" fill-opacity="0.6"/>
<path d="M257.306 141.11C273.706 148.526 250.016 170.775 244.55 157.797C228.148 170.775 219.037 142.964 231.794 141.11C222.681 126.278 242.727 113.299 244.55 124.424C270.061 115.153 260.95 137.402 257.306 141.11Z" fill="#8C8C8C" fill-opacity="0.6"/>
<path d="M191.632 98.4983C232.022 122.363 173.677 193.961 160.216 152.196C119.82 193.961 97.3795 104.465 128.799 98.4983C106.356 50.7666 155.724 9.00051 160.216 44.8002C223.046 14.967 200.605 86.5646 191.632 98.4983Z" fill="#8C8C8C" fill-opacity="0.6"/>
<path d="M215.406 76.1512C255.795 100.016 197.45 171.614 183.989 129.849C143.593 171.614 121.153 82.1177 152.572 76.1512C130.129 28.4195 179.498 -13.3466 183.989 22.453C246.819 -7.3801 224.379 64.2175 215.406 76.1512Z" fill="#8C8C8C" fill-opacity="0.6"/>
<path d="M179.501 76.1512C219.891 100.016 161.545 171.614 148.084 129.849C107.688 171.614 85.2483 82.1177 116.668 76.1512C94.2244 28.4195 143.593 -13.3466 148.084 22.453C210.914 -7.3801 188.474 64.2175 179.501 76.1512Z" fill="#8C8C8C" fill-opacity="0.6"/>
<path d="M44.7353 158.216L51.905 161.784L60.8671 160L62.6596 343.73L59 381.5L56.5 382V359.5L55.4898 345.513L43.5 356L41 361L44.7353 366L39.358 362L36.1735 370.5V354.5L44.7353 343.73L37.5655 338.378L21.4336 345.513L33.9807 336.594L37.5655 324.108L36.1735 328.956L25.0185 329.459L30.3958 327.676L35.7731 325.892L39.358 318.757L44.7353 224.216L5.30176 206.378L8.88662 202.811L42.9428 213.513L44.7353 208.162V158.216Z" fill="#242424"/>
<path d="M60.8672 160H69.8294L76.9991 152.865V181.405L85.9613 179.622L111.055 161.784L112.848 163.567L96.7159 176.054L103.886 172.486L136.149 154.649L139.734 156.432L78.7916 195.676L85.9613 320.54L89.5462 325.892L104.5 326.5L107 328L103 327.5L98.5083 329.459H94.9234H85.9613L80.584 336.594L78.7916 340.162V350.865L75.2067 343.73H62.6597L60.8672 160Z" fill="#242424"/>
<path d="M17.8502 193.892C33.9809 201.027 10.6793 222.433 5.30315 209.946C-10.83 222.433 -19.7919 195.676 -7.24388 193.892C-16.2071 179.622 3.5095 167.135 5.30315 177.838C30.396 168.919 21.4338 190.324 17.8502 193.892Z" fill="#B4B4B4" fill-opacity="0.8"/>
<path d="M23.7594 187.211C39.89 194.346 16.5884 215.752 11.2124 203.265C-4.92085 215.752 -13.8828 188.995 -1.33466 187.211C-10.2979 172.941 9.41872 160.454 11.2124 171.157C36.3052 162.238 27.343 183.644 23.7594 187.211Z" fill="#B4B4B4" fill-opacity="0.8"/>
<path d="M13.005 187.211C29.1357 194.346 5.83401 215.752 0.457937 203.265C-15.6752 215.752 -24.6371 188.995 -12.0891 187.211C-21.0523 172.941 -1.33572 160.454 0.457937 171.157C25.5508 162.238 16.5886 183.644 13.005 187.211Z" fill="#B4B4B4" fill-opacity="0.8"/>
<path d="M156.399 155.103C172.53 162.238 149.228 183.643 143.852 171.157C127.719 183.643 118.757 156.887 131.305 155.103C122.342 140.833 142.059 128.346 143.852 139.049C168.945 130.13 159.983 151.535 156.399 155.103Z" fill="#B4B4B4" fill-opacity="0.8"/>
<path d="M91.8024 114.106C131.53 137.067 74.1414 205.951 60.9008 165.769C21.167 205.951 -0.905019 119.846 29.9992 114.106C7.92401 68.1835 56.4833 28.0003 60.9008 62.4432C122.701 33.7407 100.628 102.625 91.8024 114.106Z" fill="#B4B4B4" fill-opacity="0.8"/>
<path d="M115.186 92.6061C154.914 115.567 97.5252 184.451 84.2846 144.269C44.5508 184.451 22.4788 98.3465 53.383 92.6061C31.3078 46.6835 79.8671 6.50029 84.2846 40.9432C146.085 12.2407 124.012 81.1247 115.186 92.6061Z" fill="#B4B4B4" fill-opacity="0.8"/>
<path d="M79.8698 92.6061C119.597 115.567 62.2087 184.451 48.9682 144.269C9.23431 184.451 -12.8376 98.3465 18.0666 92.6061C-4.00861 46.6835 44.5507 6.50029 48.9682 40.9432C110.768 12.2407 88.6958 81.1247 79.8698 92.6061Z" fill="#B4B4B4" fill-opacity="0.8"/>
<path d="M360.45 172.346L356.387 176.054L351.309 174.2L350.293 365.167L355.372 380L354.356 367.022L360.45 365.167L364.513 359.605L373.654 367.022L366.545 357.751L364.513 344.773L365.302 349.812L371.623 350.335L368.576 348.481L365.529 346.627L363.497 339.211L360.45 240.946L382.796 222.405L380.764 218.697L361.466 229.822L360.45 224.259V172.346Z" fill="#878787"/>
<path d="M351.309 174.2H346.23L342.167 166.784V196.449L337.089 194.595L322.869 176.054L321.853 177.908L330.995 190.886L326.932 187.178L308.649 168.638L306.618 170.492L341.152 211.281L337.089 341.065L335.057 346.627L329.979 350.335H332.01H337.089L340.136 357.751L341.152 361.459V372.584L343.183 365.167H350.293L351.309 174.2Z" fill="#878787"/>
<path d="M375.685 209.427C366.544 216.843 379.749 239.092 382.795 226.114C391.937 239.092 397.016 211.281 389.905 209.427C394.984 194.595 383.811 181.616 382.795 192.741C368.576 183.47 373.654 205.719 375.685 209.427Z" fill="#919191"/>
<path d="M372.336 202.483C363.196 209.899 376.4 232.148 379.446 219.17C388.589 232.148 393.667 204.337 386.556 202.483C391.636 187.651 380.463 174.672 379.446 185.797C365.227 176.526 370.306 198.775 372.336 202.483Z" fill="#919191"/>
<path d="M378.431 202.483C369.29 209.899 382.494 232.148 385.541 219.17C394.683 232.148 399.761 204.337 392.651 202.483C397.73 187.651 386.557 174.672 385.541 185.797C371.321 176.526 376.4 198.775 378.431 202.483Z" fill="#919191"/>
<path d="M297.174 169.11C288.033 176.526 301.237 198.775 304.284 185.797C313.426 198.775 318.504 170.964 311.394 169.11C316.473 154.278 305.3 141.299 304.284 152.424C290.064 143.153 295.143 165.402 297.174 169.11Z" fill="#919191"/>
<path d="M333.779 126.498C311.267 150.363 343.787 221.961 351.29 180.196C373.806 221.961 386.313 132.465 368.801 126.498C381.31 78.7666 353.793 37.0005 351.29 72.8002C316.27 42.967 328.777 114.564 333.779 126.498Z" fill="#919191"/>
<path d="M320.528 104.151C298.016 128.016 330.536 199.614 338.039 157.849C360.555 199.614 373.062 110.118 355.55 104.151C368.059 56.4195 340.542 14.6534 338.039 50.453C303.019 20.6199 315.526 92.2175 320.528 104.151Z" fill="#919191"/>
<path d="M340.541 104.151C318.028 128.016 350.548 199.614 358.051 157.849C380.567 199.614 393.075 110.118 375.562 104.151C388.072 56.4195 360.555 14.6534 358.051 50.453C323.031 20.6199 335.539 92.2175 340.541 104.151Z" fill="#919191"/>
<path d="M490.735 153.346L497.905 157.054L506.867 155.2L508.66 346.167L499.697 361L501.49 348.022L490.735 346.167L483.566 340.605L467.434 348.022L479.981 338.751L483.566 325.773L482.174 330.812L471.019 331.335L476.396 329.481L481.773 327.627L485.358 320.211L490.735 221.946L451.302 203.405L454.887 199.697L488.943 210.822L490.735 205.259V153.346Z" fill="#878787"/>
<path d="M506.867 155.2H515.829L522.999 147.784V177.449L531.961 175.595L557.055 157.054L558.848 158.908L542.716 171.886L549.886 168.178L582.149 149.638L585.734 151.492L524.791 192.281L531.961 322.065L535.546 327.627L544.508 331.335H540.923H531.961L526.584 338.751L524.791 342.459V353.584L521.207 346.167H508.66L506.867 155.2Z" fill="#878787"/>
<path d="M463.85 190.427C479.981 197.843 456.679 220.092 451.303 207.114C435.17 220.092 426.208 192.281 438.756 190.427C429.793 175.595 449.509 162.616 451.303 173.741C476.396 164.47 467.434 186.719 463.85 190.427Z" fill="#B4B4B4"/>
<path d="M469.759 183.483C485.89 190.899 462.588 213.148 457.212 200.17C441.079 213.148 432.117 185.337 444.665 183.483C435.702 168.651 455.419 155.672 457.212 166.797C482.305 157.526 473.343 179.775 469.759 183.483Z" fill="#B4B4B4"/>
<path d="M459.005 183.483C475.135 190.899 451.834 213.148 446.458 200.17C430.325 213.148 421.363 185.337 433.911 183.483C424.948 168.651 444.664 155.672 446.458 166.797C471.551 157.526 462.588 179.775 459.005 183.483Z" fill="#B4B4B4"/>
<path d="M602.399 150.11C618.53 157.526 595.228 179.775 589.852 166.797C573.719 179.775 564.757 151.964 577.305 150.11C568.342 135.278 588.059 122.299 589.852 133.424C614.945 124.153 605.983 146.402 602.399 150.11Z" fill="#B4B4B4"/>
<path d="M537.802 107.498C577.53 131.363 520.141 202.961 506.901 161.196C467.167 202.961 445.095 113.465 475.999 107.498C453.924 59.7666 502.483 18.0005 506.901 53.8002C568.701 23.967 546.628 95.5646 537.802 107.498Z" fill="#B4B4B4"/>
<path d="M561.186 85.1512C600.914 109.016 543.525 180.614 530.285 138.849C490.551 180.614 468.479 91.1177 499.383 85.1512C477.308 37.4195 525.867 -4.34663 530.285 31.453C592.085 1.61992 570.012 73.2175 561.186 85.1512Z" fill="#B4B4B4"/>
<path d="M525.87 85.1512C565.597 109.016 508.209 180.614 494.968 138.849C455.234 180.614 433.162 91.1177 464.067 85.1512C441.991 37.4195 490.551 -4.34663 494.968 31.453C556.768 1.61992 534.696 73.2175 525.87 85.1512Z" fill="#B4B4B4"/>
<path d="M523.5 345H512V261L520 334.5L523.5 261L530.5 334.5L534.5 261L540 345H523.5Z" fill="#B1B1B1"/>
<path d="M449.5 340H438V256L446 329.5L449.5 256L456.5 329.5L460.5 256L466 340H449.5Z" fill="#B1B1B1"/>
<path d="M603.5 344H592V260L600 333.5L603.5 260L610.5 333.5L614.5 260L620 344H603.5Z" fill="#B1B1B1"/>
<path d="M337.5 343H326V259L334 332.5L337.5 259L344.5 332.5L348.5 259L354 343H337.5Z" fill="#B1B1B1"/>
<path d="M495.5 345H484V261L492 334.5L495.5 261L502.5 334.5L506.5 261L512 345H495.5Z" fill="#B1B1B1"/>
<path d="M421.5 340H410V256L418 329.5L421.5 256L428.5 329.5L432.5 256L438 340H421.5Z" fill="#B1B1B1"/>
<path d="M575.5 344H564V260L572 333.5L575.5 260L582.5 333.5L586.5 260L592 344H575.5Z" fill="#B1B1B1"/>
<path d="M309.5 343H298V259L306 332.5L309.5 259L316.5 332.5L320.5 259L326 343H309.5Z" fill="#B1B1B1"/>
<path d="M467.5 345H456V261L464 334.5L467.5 261L474.5 334.5L478.5 261L484 345H467.5Z" fill="#B1B1B1"/>
<path d="M393.5 340H382V256L390 329.5L393.5 256L400.5 329.5L404.5 256L410 340H393.5Z" fill="#B1B1B1"/>
<path d="M547.5 344H536V260L544 333.5L547.5 260L554.5 333.5L558.5 260L564 344H547.5Z" fill="#B1B1B1"/>
<path d="M281.5 343H270V259L278 332.5L281.5 259L288.5 332.5L292.5 259L298 343H281.5Z" fill="#B1B1B1"/>
<path d="M439.5 345H428V261L436 334.5L439.5 261L446.5 334.5L450.5 261L456 345H439.5Z" fill="#B1B1B1"/>
<path d="M365.5 340H354V256L362 329.5L365.5 256L372.5 329.5L376.5 256L382 340H365.5Z" fill="#B1B1B1"/>
<path d="M519.5 344H508V260L516 333.5L519.5 260L526.5 333.5L530.5 260L536 344H519.5Z" fill="#B1B1B1"/>
<path d="M253.5 343H242V259L250 332.5L253.5 259L260.5 332.5L264.5 259L270 343H253.5Z" fill="#B1B1B1"/>
<path d="M421.5 355H410V271L418 344.5L421.5 271L428.5 344.5L432.5 271L438 355H421.5Z" fill="#B1B1B1"/>
<path d="M347.5 350H336V266L344 339.5L347.5 266L354.5 339.5L358.5 266L364 350H347.5Z" fill="#B1B1B1"/>
<path d="M501.5 354H490V270L498 343.5L501.5 270L508.5 343.5L512.5 270L518 354H501.5Z" fill="#B1B1B1"/>
<path d="M235.5 353H224V269L232 342.5L235.5 269L242.5 342.5L246.5 269L252 353H235.5Z" fill="#B1B1B1"/>
<path d="M453.5 345H442V261L450 334.5L453.5 261L460.5 334.5L464.5 261L470 345H453.5Z" fill="#B1B1B1"/>
<path d="M379.5 340H368V256L376 329.5L379.5 256L386.5 329.5L390.5 256L396 340H379.5Z" fill="#B1B1B1"/>
<path d="M533.5 344H522V260L530 333.5L533.5 260L540.5 333.5L544.5 260L550 344H533.5Z" fill="#B1B1B1"/>
<path d="M267.5 343H256V259L264 332.5L267.5 259L274.5 332.5L278.5 259L284 343H267.5Z" fill="#B1B1B1"/>
<path d="M473.5 345H462V261L470 334.5L473.5 261L480.5 334.5L484.5 261L490 345H473.5Z" fill="#B1B1B1"/>
<path d="M399.5 340H388V256L396 329.5L399.5 256L406.5 329.5L410.5 256L416 340H399.5Z" fill="#B1B1B1"/>
<path d="M553.5 344H542V260L550 333.5L553.5 260L560.5 333.5L564.5 260L570 344H553.5Z" fill="#B1B1B1"/>
<path d="M287.5 343H276V259L284 332.5L287.5 259L294.5 332.5L298.5 259L304 343H287.5Z" fill="#B1B1B1"/>
<path d="M463.5 356H452V272L460 345.5L463.5 272L470.5 345.5L474.5 272L480 356H463.5Z" fill="#B1B1B1"/>
<path d="M389.5 351H378V267L386 340.5L389.5 267L396.5 340.5L400.5 267L406 351H389.5Z" fill="#B1B1B1"/>
<path d="M543.5 355H532V271L540 344.5L543.5 271L550.5 344.5L554.5 271L560 355H543.5Z" fill="#B1B1B1"/>
<path d="M277.5 354H266V270L274 343.5L277.5 270L284.5 343.5L288.5 270L294 354H277.5Z" fill="#B1B1B1"/>
<path d="M495.5 345H484V261L492 334.5L495.5 261L502.5 334.5L506.5 261L512 345H495.5Z" fill="#B1B1B1"/>
<path d="M421.5 340H410V256L418 329.5L421.5 256L428.5 329.5L432.5 256L438 340H421.5Z" fill="#B1B1B1"/>
<path d="M575.5 344H564V260L572 333.5L575.5 260L582.5 333.5L586.5 260L592 344H575.5Z" fill="#B1B1B1"/>
<path d="M309.5 343H298V259L306 332.5L309.5 259L316.5 332.5L320.5 259L326 343H309.5Z" fill="#B1B1B1"/>
<path d="M501.5 356H490V272L498 345.5L501.5 272L508.5 345.5L512.5 272L518 356H501.5Z" fill="#B1B1B1"/>
<path d="M427.5 351H416V267L424 340.5L427.5 267L434.5 340.5L438.5 267L444 351H427.5Z" fill="#B1B1B1"/>
<path d="M581.5 355H570V271L578 344.5L581.5 271L588.5 344.5L592.5 271L598 355H581.5Z" fill="#B1B1B1"/>
<path d="M315.5 354H304V270L312 343.5L315.5 270L322.5 343.5L326.5 270L332 354H315.5Z" fill="#B1B1B1"/>
<path d="M283.5 352.88H272V275.6L280 343.22L283.5 275.6L290.5 343.22L294.5 275.6L300 352.88H283.5Z" fill="#939393"/>
<path d="M209.5 348.28H198V271L206 338.62L209.5 271L216.5 338.62L220.5 271L226 348.28H209.5Z" fill="#939393"/>
<path d="M363.5 351.96H352V274.68L360 342.3L363.5 274.68L370.5 342.3L374.5 274.68L380 351.96H363.5Z" fill="#939393"/>
<path d="M97.5 351.04H86V273.76L94 341.38L97.5 273.76L104.5 341.38L108.5 273.76L114 351.04H97.5Z" fill="#939393"/>
<path d="M255.5 352.88H244V275.6L252 343.22L255.5 275.6L262.5 343.22L266.5 275.6L272 352.88H255.5Z" fill="#939393"/>
<path d="M181.5 348.28H170V271L178 338.62L181.5 271L188.5 338.62L192.5 271L198 348.28H181.5Z" fill="#939393"/>
<path d="M335.5 351.96H324V274.68L332 342.3L335.5 274.68L342.5 342.3L346.5 274.68L352 351.96H335.5Z" fill="#939393"/>
<path d="M69.5 351.04H58V273.76L66 341.38L69.5 273.76L76.5 341.38L80.5 273.76L86 351.04H69.5Z" fill="#939393"/>
<path d="M227.5 352.88H216V275.6L224 343.22L227.5 275.6L234.5 343.22L238.5 275.6L244 352.88H227.5Z" fill="#939393"/>
<path d="M153.5 348.28H142V271L150 338.62L153.5 271L160.5 338.62L164.5 271L170 348.28H153.5Z" fill="#939393"/>
<path d="M307.5 351.96H296V274.68L304 342.3L307.5 274.68L314.5 342.3L318.5 274.68L324 351.96H307.5Z" fill="#939393"/>
<path d="M41.5 351.04H30V273.76L38 341.38L41.5 273.76L48.5 341.38L52.5 273.76L58 351.04H41.5Z" fill="#939393"/>
<path d="M199.5 352.88H188V275.6L196 343.22L199.5 275.6L206.5 343.22L210.5 275.6L216 352.88H199.5Z" fill="#939393"/>
<path d="M125.5 348.28H114V271L122 338.62L125.5 271L132.5 338.62L136.5 271L142 348.28H125.5Z" fill="#939393"/>
<path d="M279.5 351.96H268V274.68L276 342.3L279.5 274.68L286.5 342.3L290.5 274.68L296 351.96H279.5Z" fill="#939393"/>
<path d="M13.5 351.04H2V273.76L10 341.38L13.5 273.76L20.5 341.38L24.5 273.76L30 351.04H13.5Z" fill="#939393"/>
<path d="M181.5 362.08H170V284.8L178 352.42L181.5 284.8L188.5 352.42L192.5 284.8L198 362.08H181.5Z" fill="#939393"/>
<path d="M107.5 357.48H96V280.2L104 347.82L107.5 280.2L114.5 347.82L118.5 280.2L124 357.48H107.5Z" fill="#939393"/>
<path d="M261.5 361.16H250V283.88L258 351.5L261.5 283.88L268.5 351.5L272.5 283.88L278 361.16H261.5Z" fill="#939393"/>
<path d="M-4.5 360.24H-16V282.96L-8 350.58L-4.5 282.96L2.5 350.58L6.5 282.96L12 360.24H-4.5Z" fill="#939393"/>
<path d="M213.5 352.88H202V275.6L210 343.22L213.5 275.6L220.5 343.22L224.5 275.6L230 352.88H213.5Z" fill="#939393"/>
<path d="M139.5 348.28H128V271L136 338.62L139.5 271L146.5 338.62L150.5 271L156 348.28H139.5Z" fill="#939393"/>
<path d="M293.5 351.96H282V274.68L290 342.3L293.5 274.68L300.5 342.3L304.5 274.68L310 351.96H293.5Z" fill="#939393"/>
<path d="M27.5 351.04H16V273.76L24 341.38L27.5 273.76L34.5 341.38L38.5 273.76L44 351.04H27.5Z" fill="#939393"/>
<path d="M233.5 352.88H222V275.6L230 343.22L233.5 275.6L240.5 343.22L244.5 275.6L250 352.88H233.5Z" fill="#939393"/>
<path d="M159.5 348.28H148V271L156 338.62L159.5 271L166.5 338.62L170.5 271L176 348.28H159.5Z" fill="#939393"/>
<path d="M313.5 351.96H302V274.68L310 342.3L313.5 274.68L320.5 342.3L324.5 274.68L330 351.96H313.5Z" fill="#939393"/>
<path d="M47.5 351.04H36V273.76L44 341.38L47.5 273.76L54.5 341.38L58.5 273.76L64 351.04H47.5Z" fill="#939393"/>
<path d="M223.5 363H212V285.72L220 353.34L223.5 285.72L230.5 353.34L234.5 285.72L240 363H223.5Z" fill="#939393"/>
<path d="M149.5 358.4H138V281.12L146 348.74L149.5 281.12L156.5 348.74L160.5 281.12L166 358.4H149.5Z" fill="#939393"/>
<path d="M303.5 362.08H292V284.8L300 352.42L303.5 284.8L310.5 352.42L314.5 284.8L320 362.08H303.5Z" fill="#939393"/>
<path d="M255.5 352.88H244V275.6L252 343.22L255.5 275.6L262.5 343.22L266.5 275.6L272 352.88H255.5Z" fill="#939393"/>
<path d="M181.5 348.28H170V271L178 338.62L181.5 271L188.5 338.62L192.5 271L198 348.28H181.5Z" fill="#939393"/>
<path d="M335.5 351.96H324V274.68L332 342.3L335.5 274.68L342.5 342.3L346.5 274.68L352 351.96H335.5Z" fill="#939393"/>
<path d="M69.5 351.04H58V273.76L66 341.38L69.5 273.76L76.5 341.38L80.5 273.76L86 351.04H69.5Z" fill="#939393"/>
<path d="M261.5 363H250V285.72L258 353.34L261.5 285.72L268.5 353.34L272.5 285.72L278 363H261.5Z" fill="#939393"/>
<path d="M187.5 358.4H176V281.12L184 348.74L187.5 281.12L194.5 348.74L198.5 281.12L204 358.4H187.5Z" fill="#939393"/>
<path d="M341.5 362.08H330V284.8L338 352.42L341.5 284.8L348.5 352.42L352.5 284.8L358 362.08H341.5Z" fill="#939393"/>
<path d="M75.5 361.16H64V283.88L72 351.5L75.5 283.88L82.5 351.5L86.5 283.88L92 361.16H75.5Z" fill="#939393"/>
<path d="M482.735 159.216L489.905 162.784L498.867 161L500.66 344.73L491.697 359L493.49 346.513L482.735 344.73L475.566 339.378L459.434 346.513L471.981 337.594L475.566 325.108L474.174 329.956L463.019 330.459L468.396 328.676L473.773 326.892L477.358 319.757L482.735 225.216L443.302 207.378L446.887 203.811L480.943 214.513L482.735 209.162V159.216Z" fill="#7A7A7A"/>
<path d="M498.867 161H507.829L514.999 153.865V182.405L523.961 180.622L549.055 162.784L550.848 164.567L534.716 177.054L541.886 173.486L574.149 155.649L577.734 157.432L516.791 196.676L523.961 321.54L527.546 326.892L536.508 330.459H532.923H523.961L518.584 337.594L516.791 341.162V351.865L513.207 344.73H500.66L498.867 161Z" fill="#7A7A7A"/>
<path d="M455.85 194.892C471.981 202.027 448.679 223.432 443.303 210.946C427.17 223.432 418.208 196.676 430.756 194.892C421.793 180.622 441.509 168.135 443.303 178.838C468.396 169.919 459.434 191.324 455.85 194.892Z" fill="#BFBFBF"/>
<path d="M461.759 188.211C477.89 195.346 454.588 216.752 449.212 204.265C433.079 216.752 424.117 189.995 436.665 188.211C427.702 173.941 447.419 161.454 449.212 172.157C474.305 163.238 465.343 184.644 461.759 188.211Z" fill="#BFBFBF"/>
<path d="M451.005 188.211C467.135 195.346 443.834 216.752 438.458 204.265C422.325 216.752 413.363 189.995 425.911 188.211C416.948 173.941 436.664 161.454 438.458 172.157C463.551 163.238 454.588 184.644 451.005 188.211Z" fill="#BFBFBF"/>
<path d="M594.399 156.103C610.53 163.238 587.228 184.643 581.852 172.157C565.719 184.643 556.757 157.887 569.305 156.103C560.342 141.833 580.059 129.346 581.852 140.049C606.945 131.13 597.983 152.535 594.399 156.103Z" fill="#BFBFBF"/>
<path d="M529.802 115.106C569.53 138.067 512.141 206.951 498.901 166.769C459.167 206.951 437.095 120.846 467.999 115.106C445.924 69.1835 494.483 29.0003 498.901 63.4432C560.701 34.7407 538.628 103.625 529.802 115.106Z" fill="#BFBFBF"/>
<path d="M553.186 93.6061C592.914 116.567 535.525 185.451 522.285 145.269C482.551 185.451 460.479 99.3465 491.383 93.6061C469.308 47.6835 517.867 7.50029 522.285 41.9432C584.085 13.2407 562.012 82.1247 553.186 93.6061Z" fill="#BFBFBF"/>
<path d="M517.87 93.6061C557.597 116.567 500.209 185.451 486.968 145.269C447.234 185.451 425.162 99.3465 456.067 93.6061C433.991 47.6835 482.551 7.50029 486.968 41.9432C548.768 13.2407 526.696 82.1247 517.87 93.6061Z" fill="#BFBFBF"/>
<path d="M138.735 159.216L145.905 162.784L154.867 161L156.66 344.73L147.697 359L149.49 346.513L138.735 344.73L131.566 339.378L115.434 346.513L127.981 337.594L131.566 325.108L130.174 329.956L119.019 330.459L124.396 328.676L129.773 326.892L133.358 319.757L138.735 225.216L99.3018 207.378L102.887 203.811L136.943 214.513L138.735 209.162V159.216Z" fill="#7A7A7A"/>
<path d="M154.867 161H163.829L170.999 153.865V182.405L179.961 180.622L205.055 162.784L206.848 164.567L190.716 177.054L197.886 173.486L230.149 155.649L233.734 157.432L172.791 196.676L179.961 321.54L183.546 326.892L192.508 330.459H188.923H179.961L174.584 337.594L172.791 341.162V351.865L169.207 344.73H156.66L154.867 161Z" fill="#7A7A7A"/>
<path d="M111.85 194.892C127.981 202.027 104.679 223.432 99.3031 210.946C83.1699 223.432 74.208 196.676 86.7561 194.892C77.7928 180.622 97.5094 168.135 99.3031 178.838C124.396 169.919 115.434 191.324 111.85 194.892Z" fill="#979797"/>
<path d="M117.759 188.211C133.89 195.346 110.588 216.752 105.212 204.265C89.0792 216.752 80.1172 189.995 92.6653 188.211C83.7021 173.941 103.419 161.454 105.212 172.157C130.305 163.238 121.343 184.644 117.759 188.211Z" fill="#979797"/>
<path d="M107.005 188.211C123.135 195.346 99.834 216.752 94.458 204.265C78.3248 216.752 69.3629 189.995 81.9109 188.211C72.9477 173.941 92.6643 161.454 94.458 172.157C119.551 163.238 110.588 184.644 107.005 188.211Z" fill="#979797"/>
<path d="M250.399 156.103C266.53 163.238 243.228 184.643 237.852 172.157C221.719 184.643 212.757 157.887 225.305 156.103C216.342 141.833 236.059 129.346 237.852 140.049C262.945 131.13 253.983 152.535 250.399 156.103Z" fill="#979797"/>
<path d="M185.802 115.106C225.53 138.067 168.141 206.951 154.901 166.769C115.167 206.951 93.095 120.846 123.999 115.106C101.924 69.1835 150.483 29.0003 154.901 63.4432C216.701 34.7407 194.628 103.625 185.802 115.106Z" fill="#979797"/>
<path d="M209.186 93.6061C248.914 116.567 191.525 185.451 178.285 145.269C138.551 185.451 116.479 99.3465 147.383 93.6061C125.308 47.6835 173.867 7.50029 178.285 41.9432C240.085 13.2407 218.012 82.1247 209.186 93.6061Z" fill="#979797"/>
<path d="M173.87 93.6061C213.597 116.567 156.209 185.451 142.968 145.269C103.234 185.451 81.1623 99.3465 112.067 93.6061C89.9913 47.6835 138.551 7.50029 142.968 41.9432C204.768 13.2407 182.696 82.1247 173.87 93.6061Z" fill="#979797"/>
<path d="M560.32 62.4259C587.558 78.436 621.276 71.6174 635.63 47.1961C649.984 22.7749 639.539 -10.0011 612.301 -26.0112C585.062 -42.0213 551.345 -35.2027 536.99 -10.7814C522.636 13.6398 533.081 46.4158 560.32 62.4259Z" fill="#E2E2E2"/>
<path d="M219.735 149.216L226.905 152.784L235.867 151L237.66 334.73L228.697 349L230.49 336.513L219.735 334.73L212.566 329.378L196.434 336.513L208.981 327.594L212.566 315.108L211.174 319.956L200.019 320.459L205.396 318.676L210.773 316.892L214.358 309.757L219.735 215.216L180.302 197.378L183.887 193.811L217.943 204.513L219.735 199.162V149.216Z" fill="#696969"/>
<path d="M235.867 151H244.829L251.999 143.865V172.405L260.961 170.622L286.055 152.784L287.848 154.567L271.716 167.054L278.886 163.486L311.149 145.649L314.734 147.432L253.791 186.676L260.961 311.54L264.546 316.892L273.508 320.459H269.923H260.961L255.584 327.594L253.791 331.162V341.865L250.207 334.73H237.66L235.867 151Z" fill="#696969"/>
<path d="M192.85 184.892C208.981 192.027 185.679 213.432 180.303 200.946C164.17 213.432 155.208 186.676 167.756 184.892C158.793 170.622 178.509 158.135 180.303 168.838C205.396 159.919 196.434 181.324 192.85 184.892Z" fill="#BFBFBF"/>
<path d="M198.759 178.211C214.89 185.346 191.588 206.752 186.212 194.265C170.079 206.752 161.117 179.995 173.665 178.211C164.702 163.941 184.419 151.454 186.212 162.157C211.305 153.238 202.343 174.644 198.759 178.211Z" fill="#BFBFBF"/>
<path d="M188.005 178.211C204.135 185.346 180.834 206.752 175.458 194.265C159.325 206.752 150.363 179.995 162.911 178.211C153.948 163.941 173.664 151.454 175.458 162.157C200.551 153.238 191.588 174.644 188.005 178.211Z" fill="#BFBFBF"/>
<path d="M331.399 146.103C347.53 153.238 324.228 174.643 318.852 162.157C302.719 174.643 293.757 147.887 306.305 146.103C297.342 131.833 317.059 119.346 318.852 130.049C343.945 121.13 334.983 142.535 331.399 146.103Z" fill="#BFBFBF"/>
<path d="M266.802 105.106C306.53 128.067 249.141 196.951 235.901 156.769C196.167 196.951 174.095 110.846 204.999 105.106C182.924 59.1835 231.483 19.0003 235.901 53.4432C297.701 24.7407 275.628 93.6247 266.802 105.106Z" fill="#BFBFBF"/>
<path d="M290.186 83.6061C329.914 106.567 272.525 175.451 259.285 135.269C219.551 175.451 197.479 89.3465 228.383 83.6061C206.308 37.6835 254.867 -2.49971 259.285 31.9432C321.085 3.2407 299.012 72.1247 290.186 83.6061Z" fill="#BFBFBF"/>
<path d="M254.87 83.6061C294.597 106.567 237.209 175.451 223.968 135.269C184.234 175.451 162.162 89.3465 193.067 83.6061C170.991 37.6835 219.551 -2.49971 223.968 31.9432C285.768 3.2407 263.696 72.1247 254.87 83.6061Z" fill="#BFBFBF"/>
<path d="M533.735 212.216L540.905 215.784L549.867 214L551.66 397.73L542.697 412L544.49 399.513L533.735 397.73L526.566 392.378L510.434 399.513L522.981 390.594L526.566 378.108L525.174 382.956L514.019 383.459L519.396 381.676L524.773 379.892L528.358 372.757L533.735 278.216L494.302 260.378L497.887 256.811L531.943 267.513L533.735 262.162V212.216Z" fill="#7A7A7A"/>
<path d="M549.867 214H558.829L565.999 206.865V235.405L574.961 233.622L600.055 215.784L601.848 217.567L585.716 230.054L592.886 226.486L625.149 208.649L628.734 210.432L567.791 249.676L574.961 374.54L578.546 379.892L587.508 383.459H583.923H574.961L569.584 390.594L567.791 394.162V404.865L564.207 397.73H551.66L549.867 214Z" fill="#7A7A7A"/>
<path d="M506.85 247.892C522.981 255.027 499.679 276.432 494.303 263.946C478.17 276.432 469.208 249.676 481.756 247.892C472.793 233.622 492.509 221.135 494.303 231.838C519.396 222.919 510.434 244.324 506.85 247.892Z" fill="#BFBFBF"/>
<path d="M512.759 241.211C528.89 248.346 505.588 269.752 500.212 257.265C484.079 269.752 475.117 242.995 487.665 241.211C478.702 226.941 498.419 214.454 500.212 225.157C525.305 216.238 516.343 237.644 512.759 241.211Z" fill="#BFBFBF"/>
<path d="M502.005 241.211C518.135 248.346 494.834 269.752 489.458 257.265C473.325 269.752 464.363 242.995 476.911 241.211C467.948 226.941 487.664 214.454 489.458 225.157C514.551 216.238 505.588 237.644 502.005 241.211Z" fill="#BFBFBF"/>
<path d="M645.399 209.103C661.53 216.238 638.228 237.643 632.852 225.157C616.719 237.643 607.757 210.887 620.305 209.103C611.342 194.833 631.059 182.346 632.852 193.049C657.945 184.13 648.983 205.535 645.399 209.103Z" fill="#BFBFBF"/>
<path d="M580.802 168.106C620.53 191.067 563.141 259.951 549.901 219.769C510.167 259.951 488.095 173.846 518.999 168.106C496.924 122.183 545.483 82.0004 549.901 116.443C611.701 87.7408 589.628 156.625 580.802 168.106Z" fill="#BFBFBF"/>
<path d="M604.186 146.606C643.914 169.567 586.525 238.451 573.285 198.269C533.551 238.451 511.479 152.346 542.383 146.606C520.308 100.683 568.867 60.5004 573.285 94.9433C635.085 66.2408 613.012 135.125 604.186 146.606Z" fill="#BFBFBF"/>
<path d="M568.87 146.606C608.597 169.567 551.209 238.451 537.968 198.269C498.234 238.451 476.162 152.346 507.067 146.606C484.991 100.683 533.551 60.5004 537.968 94.9433C599.768 66.2408 577.696 135.125 568.87 146.606Z" fill="#BFBFBF"/>
<path d="M45.7353 215.216L52.905 218.784L61.8671 217L63.6596 400.73L54.6974 415L56.4898 402.513L45.7353 400.73L38.5655 395.378L22.4336 402.513L34.9807 393.594L38.5655 381.108L37.1735 385.956L26.0185 386.459L31.3958 384.676L36.7731 382.892L40.358 375.757L45.7353 281.216L6.30176 263.378L9.88662 259.811L43.9428 270.513L45.7353 265.162V215.216Z" fill="#7A7A7A"/>
<path d="M61.8672 217H70.8294L77.9991 209.865V238.405L86.9613 236.622L112.055 218.784L113.848 220.567L97.7159 233.054L104.886 229.486L137.149 211.649L140.734 213.432L79.7916 252.676L86.9613 377.54L90.5462 382.892L99.5083 386.459H95.9234H86.9613L81.584 393.594L79.7916 397.162V407.865L76.2067 400.73H63.6597L61.8672 217Z" fill="#7A7A7A"/>
<path d="M18.8502 250.892C34.9809 258.027 11.6793 279.432 6.30315 266.946C-9.83006 279.432 -18.7919 252.676 -6.24388 250.892C-15.2071 236.622 4.5095 224.135 6.30315 234.838C31.396 225.919 22.4338 247.324 18.8502 250.892Z" fill="#BFBFBF"/>
<path d="M24.7594 244.211C40.89 251.346 17.5884 272.752 12.2124 260.265C-3.92085 272.752 -12.8828 245.995 -0.334663 244.211C-9.29789 229.941 10.4187 217.454 12.2124 228.157C37.3052 219.238 28.343 240.644 24.7594 244.211Z" fill="#BFBFBF"/>
<path d="M14.005 244.211C30.1357 251.346 6.83401 272.752 1.45794 260.265C-14.6752 272.752 -23.6371 245.995 -11.0891 244.211C-20.0523 229.941 -0.335717 217.454 1.45794 228.157C26.5508 219.238 17.5886 240.644 14.005 244.211Z" fill="#BFBFBF"/>
<path d="M157.399 212.103C173.53 219.238 150.228 240.643 144.852 228.157C128.719 240.643 119.757 213.887 132.305 212.103C123.342 197.833 143.059 185.346 144.852 196.049C169.945 187.13 160.983 208.535 157.399 212.103Z" fill="#BFBFBF"/>
<path d="M92.8024 171.106C132.53 194.067 75.1414 262.951 61.9008 222.769C22.167 262.951 0.0949802 176.846 30.9992 171.106C8.92401 125.183 57.4833 85.0004 61.9008 119.443C123.701 90.7408 101.628 159.625 92.8024 171.106Z" fill="#BFBFBF"/>
<path d="M116.186 149.606C155.914 172.567 98.5252 241.451 85.2846 201.269C45.5508 241.451 23.4788 155.346 54.383 149.606C32.3078 103.683 80.8671 63.5004 85.2846 97.9433C147.085 69.2408 125.012 138.125 116.186 149.606Z" fill="#BFBFBF"/>
<path d="M80.8698 149.606C120.597 172.567 63.2087 241.451 49.9682 201.269C10.2343 241.451 -11.8376 155.346 19.0666 149.606C-3.0086 103.683 45.5507 63.5004 49.9682 97.9433C111.768 69.2408 89.6958 138.125 80.8698 149.606Z" fill="#BFBFBF"/>
<path d="M587.735 186.216L594.905 189.784L603.867 188L605.66 371.73L596.697 386L598.49 373.513L587.735 371.73L580.566 366.378L564.434 373.513L576.981 364.594L580.566 352.108L579.174 356.956L568.019 357.459L573.396 355.676L578.773 353.892L582.358 346.757L587.735 252.216L548.302 234.378L551.887 230.811L585.943 241.513L587.735 236.162V186.216Z" fill="#858585"/>
<path d="M603.867 188H612.829L619.999 180.865V209.405L628.961 207.622L654.055 189.784L655.848 191.567L639.716 204.054L646.886 200.486L679.149 182.649L682.734 184.432L621.791 223.676L628.961 348.54L632.546 353.892L641.508 357.459H637.923H628.961L623.584 364.594L621.791 368.162V378.865L618.207 371.73H605.66L603.867 188Z" fill="#858585"/>
<path d="M560.85 221.892C576.981 229.027 553.679 250.432 548.303 237.946C532.17 250.432 523.208 223.676 535.756 221.892C526.793 207.622 546.509 195.135 548.303 205.838C573.396 196.919 564.434 218.324 560.85 221.892Z" fill="#4B4B4B"/>
<path d="M566.759 215.211C582.89 222.346 559.588 243.752 554.212 231.265C538.079 243.752 529.117 216.995 541.665 215.211C532.702 200.941 552.419 188.454 554.212 199.157C579.305 190.238 570.343 211.644 566.759 215.211Z" fill="#4B4B4B"/>
<path d="M556.005 215.211C572.135 222.346 548.834 243.752 543.458 231.265C527.325 243.752 518.363 216.995 530.911 215.211C521.948 200.941 541.664 188.454 543.458 199.157C568.551 190.238 559.588 211.644 556.005 215.211Z" fill="#4B4B4B"/>
<path d="M634.802 142.106C674.53 165.067 617.141 233.951 603.901 193.769C564.167 233.951 542.095 147.846 572.999 142.106C550.924 96.1835 599.483 56.0003 603.901 90.4432C665.701 61.7407 643.628 130.625 634.802 142.106Z" fill="#4B4B4B"/>
<path d="M658.186 120.606C697.914 143.567 640.525 212.451 627.285 172.269C587.551 212.451 565.479 126.346 596.383 120.606C574.308 74.6835 622.867 34.5003 627.285 68.9432C689.085 40.2407 667.012 109.125 658.186 120.606Z" fill="#4B4B4B"/>
<path d="M622.87 120.606C662.597 143.567 605.209 212.451 591.968 172.269C552.234 212.451 530.162 126.346 561.067 120.606C538.991 74.6835 587.551 34.5003 591.968 68.9432C653.768 40.2407 631.696 109.125 622.87 120.606Z" fill="#4B4B4B"/>
<path d="M328.812 174.168L323.076 177.432L315.907 175.8L314.473 343.941L321.642 357L320.208 345.573L328.812 343.941L334.548 339.043L347.453 345.573L337.416 337.411L334.548 325.984L335.661 330.421L344.585 330.881L340.284 329.249L335.982 327.616L333.114 321.086L328.812 234.568L360.359 218.243L357.491 214.978L330.246 224.773L328.812 219.876V174.168Z" fill="#7C7C7C"/>
<path d="M315.907 175.8H308.737L303.001 169.27V195.389L295.831 193.757L275.756 177.432L274.322 179.065L287.228 190.492L281.492 187.227L255.681 170.903L252.813 172.535L301.567 208.449L295.831 322.719L292.963 327.616L285.794 330.881H288.662H295.831L300.133 337.411L301.567 340.676V350.47L304.435 343.941H314.473L315.907 175.8Z" fill="#7C7C7C"/>
<path d="M350.32 206.817C337.416 213.346 356.057 232.935 360.358 221.508C373.264 232.935 380.434 208.449 370.395 206.817C377.566 193.757 361.793 182.33 360.358 192.125C340.284 183.962 347.453 203.551 350.32 206.817Z" fill="#999999"/>
<path d="M345.593 200.702C332.688 207.232 351.329 226.821 355.63 215.394C368.537 226.821 375.706 202.335 365.668 200.702C372.838 187.643 357.065 176.216 355.63 186.011C335.556 177.848 342.726 197.437 345.593 200.702Z" fill="#999999"/>
<path d="M354.196 200.702C341.292 207.232 359.933 226.821 364.234 215.394C377.14 226.821 384.31 202.335 374.271 200.702C381.442 187.643 365.669 176.216 364.234 186.011C344.16 177.848 351.329 197.437 354.196 200.702Z" fill="#999999"/>
<path d="M239.48 171.319C226.576 177.848 245.217 197.437 249.518 186.011C262.425 197.437 269.594 172.951 259.556 171.319C266.726 158.259 250.953 146.832 249.518 156.627C229.444 148.464 236.613 168.054 239.48 171.319Z" fill="#999999"/>
<path d="M291.158 133.8C259.376 154.813 305.287 217.852 315.879 181.08C347.666 217.852 365.324 139.053 340.6 133.8C358.26 91.774 319.413 55.0003 315.879 86.5207C266.439 60.2536 284.097 123.293 291.158 133.8Z" fill="#999999"/>
<path d="M272.451 114.124C240.669 135.137 286.58 198.176 297.172 161.404C328.959 198.176 346.617 119.378 321.894 114.124C339.554 72.0982 300.706 35.3245 297.172 66.8449C247.732 40.5779 265.39 103.617 272.451 114.124Z" fill="#999999"/>
<path d="M300.704 114.124C268.922 135.137 314.833 198.176 325.425 161.404C357.212 198.176 374.87 119.378 350.147 114.124C367.807 72.0982 328.959 35.3245 325.425 66.8449C275.985 40.5779 293.643 103.617 300.704 114.124Z" fill="#999999"/>
<path d="M583.735 267.216L590.905 270.784L599.867 269L601.66 452.73L592.697 467L594.49 454.513L583.735 452.73L576.566 447.378L560.434 454.513L572.981 445.594L576.566 433.108L575.174 437.956L564.019 438.459L569.396 436.676L574.773 434.892L578.358 427.757L583.735 333.216L544.302 315.378L547.887 311.811L581.943 322.513L583.735 317.162V267.216Z" fill="#797979"/>
<path d="M599.867 269H608.829L615.999 261.865V290.405L624.961 288.622L650.055 270.784L651.848 272.567L635.716 285.054L642.886 281.486L675.149 263.649L678.734 265.432L617.791 304.676L624.961 429.54L628.546 434.892L637.508 438.459H633.923H624.961L619.584 445.594L617.791 449.162V459.865L614.207 452.73H601.66L599.867 269Z" fill="#797979"/>
<path d="M556.85 302.892C572.981 310.027 549.679 331.432 544.303 318.946C528.17 331.432 519.208 304.676 531.756 302.892C522.793 288.622 542.509 276.135 544.303 286.838C569.396 277.919 560.434 299.324 556.85 302.892Z" fill="#929292"/>
<path d="M562.759 296.211C578.89 303.346 555.588 324.752 550.212 312.265C534.079 324.752 525.117 297.995 537.665 296.211C528.702 281.941 548.419 269.454 550.212 280.157C575.305 271.238 566.343 292.644 562.759 296.211Z" fill="#929292"/>
<path d="M552.005 296.211C568.135 303.346 544.834 324.752 539.458 312.265C523.325 324.752 514.363 297.995 526.911 296.211C517.948 281.941 537.664 269.454 539.458 280.157C564.551 271.238 555.588 292.644 552.005 296.211Z" fill="#929292"/>
<g filter="url(#filter0_d_341_27143)">
<path d="M630.802 223.106C670.53 246.067 613.141 314.951 599.901 274.769C560.167 314.951 538.095 228.846 568.999 223.106C546.924 177.183 595.483 137 599.901 171.443C661.701 142.741 639.628 211.625 630.802 223.106Z" fill="#929292"/>
<path d="M654.186 201.606C693.914 224.567 636.525 293.451 623.285 253.269C583.551 293.451 561.479 207.346 592.383 201.606C570.308 155.683 618.867 115.5 623.285 149.943C685.085 121.241 663.012 190.125 654.186 201.606Z" fill="#929292"/>
<path d="M618.87 201.606C658.597 224.567 601.209 293.451 587.968 253.269C548.234 293.451 526.162 207.346 557.067 201.606C534.991 155.683 583.551 115.5 587.968 149.943C649.768 121.241 627.696 190.125 618.87 201.606Z" fill="#929292"/>
</g>
<path d="M1.73522 264.216L8.90494 267.784L17.8671 266L19.6596 449.73L10.6974 464L12.4898 451.513L1.73522 449.73L-5.43451 444.378L-21.5664 451.513L-9.01937 442.594L-5.43451 430.108L-6.8265 434.956L-17.9815 435.459L-12.6042 433.676L-7.22694 431.892L-3.64208 424.757L1.73522 330.216L-37.6982 312.378L-34.1134 308.811L-0.0572166 319.513L1.73522 314.162V264.216Z" fill="#797979"/>
<path d="M17.8672 266H26.8294L33.9991 258.865V287.405L42.9613 285.622L68.0553 267.784L69.8478 269.567L53.7159 282.054L60.8856 278.486L93.1494 260.649L96.7342 262.432L35.7916 301.676L42.9613 426.54L46.5462 431.892L55.5083 435.459H51.9234H42.9613L37.584 442.594L35.7916 446.162V456.865L32.2067 449.73H19.6597L17.8672 266Z" fill="#797979"/>
<path d="M113.399 261.103C129.53 268.238 106.228 289.643 100.852 277.157C84.7193 289.643 75.7574 262.887 88.3055 261.103C79.3422 246.833 99.0589 234.346 100.852 245.049C125.945 236.13 116.983 257.535 113.399 261.103Z" fill="#929292"/>
<g filter="url(#filter1_d_341_27143)">
<path d="M48.8024 220.106C88.53 243.067 31.1414 311.951 17.9008 271.769C-21.833 311.951 -43.905 225.846 -13.0008 220.106C-35.076 174.183 13.4833 134 17.9008 168.443C79.701 139.741 57.6284 208.625 48.8024 220.106Z" fill="#929292"/>
<path d="M72.1862 198.606C111.914 221.567 54.5252 290.451 41.2846 250.269C1.55072 290.451 -20.5212 204.346 10.383 198.606C-11.6922 152.683 36.8671 112.5 41.2846 146.943C103.085 118.241 81.0122 187.125 72.1862 198.606Z" fill="#929292"/>
<path d="M36.8698 198.606C76.5974 221.567 19.2087 290.451 5.96819 250.269C-33.7657 290.451 -55.8376 204.346 -24.9334 198.606C-47.0086 152.683 1.55067 112.5 5.96819 146.943C67.7684 118.241 45.6958 187.125 36.8698 198.606Z" fill="#929292"/>
</g>
<path d="M382.5 366.113H371V320.703L379 360.436L382.5 320.703L389.5 360.436L393.5 320.703L399 366.113H382.5Z" fill="#939393"/>
<path d="M308.5 363.41H297V318L305 357.734L308.5 318L315.5 357.734L319.5 318L325 363.41H308.5Z" fill="#939393"/>
<path d="M462.5 365.572H451V320.162L459 359.896L462.5 320.162L469.5 359.896L473.5 320.162L479 365.572H462.5Z" fill="#939393"/>
<path d="M196.5 365.032H185V319.622L193 359.356L196.5 319.622L203.5 359.356L207.5 319.622L213 365.032H196.5Z" fill="#939393"/>
<path d="M354.5 366.113H343V320.703L351 360.436L354.5 320.703L361.5 360.436L365.5 320.703L371 366.113H354.5Z" fill="#939393"/>
<path d="M280.5 363.41H269V318L277 357.734L280.5 318L287.5 357.734L291.5 318L297 363.41H280.5Z" fill="#939393"/>
<path d="M434.5 365.572H423V320.162L431 359.896L434.5 320.162L441.5 359.896L445.5 320.162L451 365.572H434.5Z" fill="#939393"/>
<path d="M168.5 365.032H157V319.622L165 359.356L168.5 319.622L175.5 359.356L179.5 319.622L185 365.032H168.5Z" fill="#939393"/>
<path d="M326.5 366.113H315V320.703L323 360.436L326.5 320.703L333.5 360.436L337.5 320.703L343 366.113H326.5Z" fill="#939393"/>
<path d="M252.5 363.41H241V318L249 357.734L252.5 318L259.5 357.734L263.5 318L269 363.41H252.5Z" fill="#939393"/>
<path d="M406.5 365.572H395V320.162L403 359.896L406.5 320.162L413.5 359.896L417.5 320.162L423 365.572H406.5Z" fill="#939393"/>
<path d="M140.5 365.032H129V319.622L137 359.356L140.5 319.622L147.5 359.356L151.5 319.622L157 365.032H140.5Z" fill="#939393"/>
<path d="M298.5 366.113H287V320.703L295 360.436L298.5 320.703L305.5 360.436L309.5 320.703L315 366.113H298.5Z" fill="#939393"/>
<path d="M224.5 363.41H213V318L221 357.734L224.5 318L231.5 357.734L235.5 318L241 363.41H224.5Z" fill="#939393"/>
<path d="M378.5 365.572H367V320.162L375 359.896L378.5 320.162L385.5 359.896L389.5 320.162L395 365.572H378.5Z" fill="#939393"/>
<path d="M112.5 365.032H101V319.622L109 359.356L112.5 319.622L119.5 359.356L123.5 319.622L129 365.032H112.5Z" fill="#939393"/>
<path d="M280.5 371.519H269V326.109L277 365.843L280.5 326.109L287.5 365.843L291.5 326.109L297 371.519H280.5Z" fill="#939393"/>
<path d="M225.5 371.41H214V326L222 365.734L225.5 326L232.5 365.734L236.5 326L242 371.41H225.5Z" fill="#939393"/>
<path d="M360.5 370.978H349V325.568L357 365.302L360.5 325.568L367.5 365.302L371.5 325.568L377 370.978H360.5Z" fill="#939393"/>
<path d="M94.5 370.438H83V325.028L91 364.762L94.5 325.028L101.5 364.762L105.5 325.028L111 370.438H94.5Z" fill="#939393"/>
<path d="M312.5 366.113H301V320.703L309 360.436L312.5 320.703L319.5 360.436L323.5 320.703L329 366.113H312.5Z" fill="#939393"/>
<path d="M238.5 363.41H227V318L235 357.734L238.5 318L245.5 357.734L249.5 318L255 363.41H238.5Z" fill="#939393"/>
<path d="M392.5 365.572H381V320.162L389 359.896L392.5 320.162L399.5 359.896L403.5 320.162L409 365.572H392.5Z" fill="#939393"/>
<path d="M126.5 365.032H115V319.622L123 359.356L126.5 319.622L133.5 359.356L137.5 319.622L143 365.032H126.5Z" fill="#939393"/>
<path d="M332.5 366.113H321V320.703L329 360.436L332.5 320.703L339.5 360.436L343.5 320.703L349 366.113H332.5Z" fill="#939393"/>
<path d="M258.5 363.41H247V318L255 357.734L258.5 318L265.5 357.734L269.5 318L275 363.41H258.5Z" fill="#939393"/>
<path d="M412.5 365.572H401V320.162L409 359.896L412.5 320.162L419.5 359.896L423.5 320.162L429 365.572H412.5Z" fill="#939393"/>
<path d="M146.5 365.032H135V319.622L143 359.356L146.5 319.622L153.5 359.356L157.5 319.622L163 365.032H146.5Z" fill="#939393"/>
<path d="M322.5 372.06H311V326.649L319 366.383L322.5 326.649L329.5 366.383L333.5 326.649L339 372.06H322.5Z" fill="#939393"/>
<path d="M248.5 369.356H237V323.946L245 363.68L248.5 323.946L255.5 363.68L259.5 323.946L265 369.356H248.5Z" fill="#939393"/>
<path d="M402.5 371.519H391V326.109L399 365.843L402.5 326.109L409.5 365.843L413.5 326.109L419 371.519H402.5Z" fill="#939393"/>
<path d="M136.5 370.978H125V325.568L133 365.302L136.5 325.568L143.5 365.302L147.5 325.568L153 370.978H136.5Z" fill="#939393"/>
<path d="M354.5 366.113H343V320.703L351 360.436L354.5 320.703L361.5 360.436L365.5 320.703L371 366.113H354.5Z" fill="#939393"/>
<path d="M280.5 363.41H269V318L277 357.734L280.5 318L287.5 357.734L291.5 318L297 363.41H280.5Z" fill="#939393"/>
<path d="M434.5 365.572H423V320.162L431 359.896L434.5 320.162L441.5 359.896L445.5 320.162L451 365.572H434.5Z" fill="#939393"/>
<path d="M168.5 365.032H157V319.622L165 359.356L168.5 319.622L175.5 359.356L179.5 319.622L185 365.032H168.5Z" fill="#939393"/>
<path d="M360.5 372.06H349V326.649L357 366.383L360.5 326.649L367.5 366.383L371.5 326.649L377 372.06H360.5Z" fill="#939393"/>
<path d="M286.5 369.356H275V323.946L283 363.68L286.5 323.946L293.5 363.68L297.5 323.946L303 369.356H286.5Z" fill="#939393"/>
<path d="M440.5 371.519H429V326.109L437 365.843L440.5 326.109L447.5 365.843L451.5 326.109L457 371.519H440.5Z" fill="#939393"/>
<path d="M174.5 370.978H163V325.568L171 365.302L174.5 325.568L181.5 365.302L185.5 325.568L191 370.978H174.5Z" fill="#939393"/>
<path d="M311.611 169.453L316.756 169.814" stroke="#D9D9D9" stroke-width="0.2"/>
<path d="M311.832 166.546L316.976 166.907" stroke="#D9D9D9" stroke-width="0.2"/>
<path d="M313.23 163.234L316.374 163.455" stroke="#D9D9D9" stroke-width="0.2"/>
<path d="M311.033 173.31L316.75 173.711" stroke="#D9D9D9" stroke-width="0.2"/>
<path d="M310.492 176.682L316.779 177.123" stroke="#D9D9D9" stroke-width="0.2"/>
<path d="M309.914 180.539L316.487 181" stroke="#D9D9D9" stroke-width="0.2"/>
<path d="M309.408 183.426L316.552 183.927" stroke="#D9D9D9" stroke-width="0.2"/>
<path d="M319.356 151.257L324.429 168.257H305.572L309.076 151.254L314.152 148.627L319.356 151.257Z" fill="#030303" stroke="#D9D9D9" stroke-width="0.1"/>
<path d="M309.148 154.861L319.456 154.868" stroke="#D9D9D9" stroke-width="0.1"/>
<path d="M309.098 152.86L319.406 152.866" stroke="#D9D9D9" stroke-width="0.1"/>
<path d="M308.642 157.528L320.095 157.535" stroke="#D9D9D9" stroke-width="0.1"/>
<path d="M308.128 159.863L320.727 159.872" stroke="#D9D9D9" stroke-width="0.1"/>
<path d="M307.623 162.53L320.794 162.538" stroke="#D9D9D9" stroke-width="0.1"/>
<path d="M307.099 164.53L321.416 164.539" stroke="#D9D9D9" stroke-width="0.1"/>
<path d="M312.584 183.578L314.969 185.334" stroke="#D9D9D9" stroke-width="0.2"/>
<path d="M312.965 165.895L293.377 171.69L286.847 178.209V182.475L279.083 224.271L333.432 226.809L341.196 219.195L349.692 216.657V194.219L350.917 187.046L349.692 179.078L345.754 170.039L335.91 168.087L312.965 165.895Z" fill="#BF9F4F" fill-opacity="0.6"/>
<path d="M308.203 492.183C296.928 496.328 292.353 506 299.747 506C307.142 506 338.504 500.195 338.504 492.183C338.504 484.171 332.51 477.675 325.116 477.675C317.721 477.675 308.203 484.171 308.203 492.183Z" fill="#693F3F" fill-opacity="0.4"/>
<path d="M260.288 485.275C249.013 489.42 244.437 499.092 251.832 499.092C259.226 499.092 290.589 493.287 290.589 485.275C290.589 477.262 284.594 470.767 277.2 470.767C269.806 470.767 260.288 477.262 260.288 485.275Z" fill="#693F3F" fill-opacity="0.4"/>
<path d="M277.267 330.921V347.716L286.303 350.516L291.725 347.716L303.977 337.021L311.728 368.284H295.339L282.837 407.935L286.303 441.485L291.725 484.185H272.971L260.287 481.135L266.629 439.197V401.835L275.085 346.172L277.267 330.921Z" fill="#987E7E" fill-opacity="0.4"/>
<path d="M304.874 338.546L313.91 355.341L322.946 358.14L328.367 355.341L330.131 338.546L335.768 351.786L328.367 404.122L330.131 443.287L339.914 487.997L320.799 495.342L311.023 487.997L306.795 406.409V369.809L304.874 338.546Z" fill="#987E7E" fill-opacity="0.4"/>
<path d="M298.342 215.155L312.93 214.681L332.781 209.628L311.026 225.517L309.617 234.498V235.88L306.798 249.006L301.865 242.788L298.342 238.643L301.865 216.536L298.342 215.155Z" fill="#FFBABA" fill-opacity="0.4"/>
<path d="M257.576 328.588C257.51 328.561 257.437 328.557 257.369 328.577L252.119 330.131C252.039 330.154 251.972 330.21 251.935 330.285L250.308 333.57L244.086 349.486C243.953 349.827 244.443 350.058 244.631 349.744L251.21 338.71C251.38 338.425 251.826 338.585 251.77 338.91L249.562 351.712C249.501 352.067 250.016 352.204 250.145 351.867L254.589 340.197C254.7 339.905 255.136 339.957 255.174 340.267L256.922 354.654C256.965 355.009 257.493 355.002 257.525 354.646L258.806 340.318C258.835 339.989 259.307 339.946 259.399 340.263L262.803 351.969C262.903 352.314 263.425 352.223 263.396 351.866L262.357 338.905C262.336 338.642 262.647 338.485 262.853 338.655L268.786 343.531C269.218 343.886 269.827 343.388 269.549 342.908L262.473 330.697C262.44 330.641 262.389 330.596 262.328 330.57L257.576 328.588Z" fill="#FFBABA" fill-opacity="0.4"/>
<path d="M251.152 332.347L262.592 330.786L275.204 282.647L286.098 240.787L284.536 235.876L279.087 239.5L263.558 262.343L262.592 277.571L251.152 332.347Z" fill="#490D0D" fill-opacity="0.6"/>
<path d="M310.945 223.876L332.166 210.413L331.108 212.368L327.579 216.204L326.129 223.876V246.729L317.904 257.266L303.444 249.973L310.945 223.876Z" fill="#E4B3B3" fill-opacity="0.6"/>
<path d="M323.944 237.509H333.533L348.559 241.572V249.171L353.491 256.08L342.921 279.568L334.684 300.648L332.351 333.454L333.533 356.252H298.494L300.331 327.237L300.33 316.048L298.494 285.348L306.258 252.19L323.944 237.509Z" fill="#490D0D" fill-opacity="0.6"/>
<path d="M298.344 237.027L281.424 234.895L278.605 245.257L272.263 251.475L278.605 280.97L277.263 326.086L273.673 350.956L301.86 358.556L304.678 329.54L305.888 280.97L307.417 248.534L298.344 237.027Z" fill="#490D0D" fill-opacity="0.6"/>
<path d="M295.092 193.094L294.614 188.927L296.528 185.139L305.144 179.078L310.618 176.566L318.068 176.047L326.916 179.078L332.131 183.313L333.435 190.06L332.131 196.287L337.317 200.958L337.318 209.042L329.523 217.757L322.353 223.275L316.452 226.809H309.315L303.448 224.832L295.092 216.528L290.733 209.042L286.851 200.958L295.092 193.094Z" fill="#FFBABA" fill-opacity="0.6"/>
<path d="M295.438 193.456L295.618 193.284L295.589 193.037L295.128 189.019L296.918 185.476L305.394 179.513L310.744 177.059L318.002 176.553L326.67 179.522L331.675 183.586L332.925 190.056L331.642 196.185L331.583 196.467L331.796 196.659L336.817 201.181L336.818 208.851L329.182 217.389L322.071 222.861L316.314 226.309H309.397L303.718 224.395L295.491 216.22L291.175 208.808L287.459 201.069L295.438 193.456Z" stroke="#E4B3B3" stroke-opacity="0.3"/>
<path d="M315.007 184.238L318.462 197.389L311.909 200.677L309.389 196.841L315.007 184.238Z" fill="#E49E9E" fill-opacity="0.8"/>
<path d="M309.445 196.837L314.994 184.388L318.403 197.363L311.926 200.612L309.445 196.837Z" stroke="#E4B3B3" stroke-opacity="0.3" stroke-width="0.1"/>
<path d="M332.915 206.833C332.915 208.87 316.162 220.777 312.172 221.004C306.589 219.869 294.257 207.296 294.257 205.259C293.611 204.632 306.788 202.897 311.229 202.897C315.669 202.897 331.261 205.071 332.915 206.833Z" fill="#BA7878" fill-opacity="0.4"/>
<path d="M331.029 207.107C331.029 208.879 316.328 219.232 312.827 219.43C307.927 218.443 297.106 207.509 297.106 205.738C296.539 205.193 308.102 203.684 311.999 203.684C315.896 203.684 329.578 205.575 331.029 207.107Z" fill="#BA7878" fill-opacity="0.4"/>
<path d="M327.258 207.655C327.258 208.895 315.823 216.142 313.1 216.281C309.289 215.59 300.873 207.936 300.873 206.696C300.432 206.315 309.426 205.259 312.456 205.259C315.487 205.259 326.129 206.582 327.258 207.655Z" fill="#BA7878" fill-opacity="0.4"/>
<path d="M331.217 192.092C331.217 193.908 328.735 196.352 325.672 196.352C322.61 196.352 320.128 193.908 320.128 192.092C320.128 190.276 322.61 188.804 325.672 188.804C328.735 188.804 331.217 190.276 331.217 192.092Z" fill="#030303"/>
<path d="M323.639 193.681C323.992 194.904 325.613 195.567 327.259 195.163C328.905 194.758 329.954 193.438 329.601 192.215C329.248 190.992 327.627 190.328 325.981 190.733C318.916 193.467 330.761 192.99 323.639 193.681Z" fill="#FA0000" fill-opacity="0.6"/>
<path d="M307.611 190.938C307.454 192.746 304.855 193.957 301.806 193.644C298.758 193.33 296.414 191.61 296.571 189.803C296.728 187.995 299.327 186.784 302.376 187.097C305.424 187.411 307.768 189.13 307.611 190.938Z" fill="#030303"/>
<path d="M303.601 191.681C303.248 192.904 301.627 193.567 299.981 193.163C298.335 192.758 297.286 191.438 297.639 190.215C297.992 188.992 299.613 188.328 301.259 188.733C308.324 191.467 296.478 190.99 303.601 191.681Z" fill="#FA0000" fill-opacity="0.6"/>
<path d="M331.651 191.153C331.651 194.786 329.89 197.729 332.65 197.729C335.41 197.729 338.148 194.238 338.148 190.605C338.148 186.973 337.742 187.462 334.982 187.462C332.222 187.462 331.651 187.521 331.651 191.153Z" fill="#FFBABA" fill-opacity="0.4"/>
<path d="M332.151 191.153C332.151 192.1 332.036 192.995 331.913 193.79C331.878 194.013 331.844 194.225 331.81 194.427C331.723 194.963 331.647 195.429 331.614 195.843C331.567 196.427 331.624 196.754 331.745 196.934C331.835 197.069 332.04 197.229 332.65 197.229C333.82 197.229 335.064 196.48 336.039 195.223C337.006 193.976 337.648 192.301 337.648 190.605C337.648 189.696 337.621 189.085 337.549 188.668C337.476 188.25 337.372 188.125 337.302 188.073C337.213 188.007 337.045 187.953 336.628 187.942C336.403 187.936 336.166 187.942 335.886 187.949C335.629 187.955 335.337 187.962 334.982 187.962C334.282 187.962 333.767 187.967 333.367 188.023C332.973 188.078 332.763 188.176 332.628 188.306C332.49 188.438 332.362 188.669 332.274 189.136C332.187 189.604 332.151 190.251 332.151 191.153Z" stroke="#E4B3B3" stroke-opacity="0.3"/>
<path d="M295.598 189.102C295.598 192.686 297.537 195.59 294.497 195.59C291.457 195.59 288.443 192.146 288.443 188.561C288.443 184.977 288.889 185.46 291.929 185.46C294.969 185.46 295.598 185.518 295.598 189.102Z" fill="#FFBABA" fill-opacity="0.6"/>
<path d="M295.098 189.102C295.098 190.041 295.225 190.928 295.361 191.713C295.399 191.935 295.437 192.145 295.474 192.345C295.57 192.872 295.653 193.329 295.689 193.735C295.74 194.305 295.677 194.612 295.551 194.781C295.445 194.922 295.195 195.09 294.497 195.09C293.164 195.09 291.778 194.329 290.708 193.093C289.642 191.862 288.943 190.217 288.943 188.561C288.943 187.664 288.972 187.066 289.051 186.66C289.129 186.261 289.237 186.14 289.323 186.083C289.439 186.005 289.649 185.951 290.113 185.94C290.362 185.934 290.627 185.94 290.94 185.947C291.223 185.953 291.545 185.96 291.929 185.96C292.698 185.96 293.273 185.964 293.722 186.021C294.168 186.077 294.417 186.178 294.577 186.316C294.731 186.448 294.868 186.673 294.963 187.123C295.058 187.579 295.098 188.212 295.098 189.102Z" stroke="#E4B3B3" stroke-opacity="0.3"/>
<path d="M332.018 191.46L328.994 188.83L325.969 188.172H322.945L319.92 190.145V191.46L322.945 189.488H325.969L328.994 190.145L331.413 191.46H332.018Z" fill="#6C3B3B" fill-opacity="0.6"/>
<path d="M294.612 189.487L297.636 186.857L300.661 186.199H303.685L306.709 188.172V189.487L303.685 187.515H300.661L297.636 188.172L295.217 189.487H294.612Z" fill="#6C3B3B" fill-opacity="0.6"/>
<path d="M362.935 356.408L350.6 351.2L352.218 295.39L339.049 247.55L341.546 242.773L348.96 242.038L356.724 252.19L364.123 297.876L362.935 356.408Z" fill="#490D0D" fill-opacity="0.6"/>
<path d="M335.638 241.071L326.966 254.728L294.444 252.029L290.107 238.331L282.88 236.961L285.048 243.125L286.494 252.029L275.201 257.266L272.039 264.88L279.083 277.571L282.88 297.231V340.379L274.93 337.639L272.039 352.022L264.812 402.703V439.687L257.585 482.15L271.317 484.889L290.83 485.574L282.157 408.182L294.444 369.829H300.225H304.562L306.007 408.182L308.175 445.166L310.343 488.314L320.461 495.847L339.975 488.314L329.857 443.796L328.411 405.443L332.748 379.417L335.638 358.871V345.858H326.966L337.807 258.878V252.029L339.252 247.235L343.588 243.81L335.638 241.071Z" fill="#449B42" fill-opacity="0.4"/>
<path d="M368.858 384.141C368.072 383.419 364.893 380.723 361.79 378.153C358.687 375.584 348.426 367.036 338.992 359.161M368.858 384.141L319.736 343.15ZM368.858 384.141C369.636 384.871 370.416 385.571 370.58 385.704C370.859 385.931 370.859 386.013 370.604 386.766M368.858 384.141L370.604 386.766ZM338.992 359.161C326.549 348.759 321.25 344.39 319.664 343.217ZM338.992 359.161L339.069 359.097ZM338.992 359.161L339.069 359.097ZM319.664 343.217C315.244 339.943 313.912 338.977 313.821 338.986C313.777 338.983 312.91 339.769 311.899 340.719C309.848 342.644 306.985 345.02 304.657 346.704C303.262 347.723 300.098 349.837 299.603 350.098L299.546 350.021C299.546 350.021 299.547 350.02 299.548 350.02M319.664 343.217L319.736 343.15ZM319.664 343.217L319.736 343.149V343.15M299.548 350.02C299.547 350.02 299.546 350.02 299.543 350.021C299.54 350.021 299.535 350.022 299.529 350.022C299.51 350.023 299.484 350.022 299.45 350.017C299.38 350.006 299.287 349.983 299.172 349.947C298.944 349.874 298.645 349.754 298.305 349.598C297.624 349.285 296.787 348.836 296.026 348.358C293.855 346.99 290.834 344.257 289.221 342.189C282.779 333.939 282.183 324.434 287.583 316.373L288.474 315.041L289.417 314.512C291.244 313.475 293.984 312.351 296.146 311.75C298.305 311.15 301.214 310.794 303.542 310.84C311.051 311.013 318.726 314.847 324.888 321.519C325.386 322.055 325.988 322.751 326.464 323.327C326.702 323.616 326.907 323.873 327.052 324.065C327.116 324.151 327.167 324.222 327.204 324.277C327.181 324.27 327.155 324.26 327.128 324.249C327.051 324.214 326.971 324.185 326.904 324.168C326.871 324.16 326.836 324.153 326.804 324.152C326.788 324.151 326.769 324.151 326.749 324.155C326.73 324.158 326.701 324.167 326.677 324.187C326.669 324.194 326.659 324.206 326.653 324.213L326.652 324.214C326.643 324.224 326.631 324.238 326.617 324.255C326.587 324.29 326.546 324.339 326.494 324.401C326.391 324.526 326.244 324.703 326.066 324.92C325.708 325.354 325.221 325.947 324.686 326.597C322.995 328.666 320.016 332.169 318.962 333.347L318.594 333.759L318.533 333.828L318.61 333.883L319.58 334.57V334.571C320.623 335.319 327.344 340.313 328.314 341.068H328.315C328.634 341.311 332.06 344.159 335.921 347.41C338.495 349.566 342.276 352.725 345.743 355.621C347.476 357.069 349.13 358.451 350.516 359.609C354.672 363.083 361.225 368.553 365.079 371.766C368.932 374.977 373.064 378.365 374.287 379.292L376.487 380.979L376.537 381.018L376.601 380.996L378.917 380.213C384.163 378.434 386.514 378.06 389.096 378.573C391.392 379.018 393.977 380.601 397.085 383.489C398.678 384.964 399.855 386.069 400.627 386.811C401.013 387.183 401.297 387.463 401.48 387.652C401.572 387.748 401.637 387.819 401.677 387.867C401.684 387.875 401.69 387.882 401.694 387.889L401.684 387.901C401.655 387.935 401.614 387.983 401.561 388.045C401.455 388.17 401.301 388.352 401.104 388.585C400.711 389.051 400.147 389.721 399.455 390.545C398.071 392.193 396.171 394.457 394.093 396.94L386.551 405.943L383.951 406.422L381.359 406.9L380.923 406.621H380.922C380.358 406.269 378.195 404.711 376.11 403.178C375.069 402.412 374.048 401.653 373.26 401.056C372.865 400.758 372.529 400.5 372.277 400.302C372.022 400.102 371.86 399.968 371.807 399.914L371.806 399.913C370.659 398.77 369.76 396.633 369.562 394.514C369.361 392.51 369.83 389.445 370.708 386.79C370.772 386.602 370.82 386.454 370.853 386.334C370.885 386.215 370.902 386.118 370.901 386.036C370.899 385.951 370.877 385.881 370.831 385.815C370.788 385.752 370.727 385.697 370.656 385.639C370.495 385.509 369.717 384.811 368.94 384.081L368.939 384.08C368.15 383.356 364.969 380.658 361.867 378.089C358.764 375.52 348.503 366.972 339.069 359.097M299.548 350.02C299.792 349.891 300.698 349.303 301.725 348.615C302.752 347.927 303.89 347.144 304.585 346.636H304.586C306.91 344.954 309.77 342.582 311.818 340.659C312.324 340.183 312.794 339.749 313.143 339.434C313.317 339.276 313.462 339.148 313.567 339.059C313.619 339.014 313.662 338.979 313.694 338.954C313.71 338.942 313.724 338.931 313.737 338.923C313.743 338.919 313.752 338.914 313.761 338.91C313.765 338.907 313.772 338.904 313.781 338.902C313.787 338.9 313.799 338.896 313.815 338.896L299.548 350.02ZM339.069 359.097C326.628 348.697 321.326 344.324 319.736 343.15ZM370.604 386.766C369.723 389.427 369.252 392.503 369.454 394.522ZM370.604 386.766L369.454 394.522ZM369.454 394.522C369.653 396.652 370.556 398.809 371.723 399.972L369.454 394.522ZM401.741 387.838C401.739 387.839 401.738 387.84 401.736 387.842L401.741 387.838ZM377.575 397.469L377.574 397.468C376.026 395.894 375.143 394.276 374.927 392.514C374.711 390.752 375.161 388.855 376.26 386.721C376.592 386.084 376.887 385.622 377.26 385.215C377.632 384.807 378.079 384.459 378.711 384.048C380.216 383.06 382.295 382.467 383.962 382.556C385.575 382.642 387.466 383.177 389.163 384.022H389.164C389.426 384.154 389.87 384.443 390.384 384.801C390.9 385.161 391.492 385.595 392.054 386.022C392.615 386.449 393.147 386.869 393.541 387.201C393.738 387.366 393.902 387.511 394.018 387.624C394.076 387.68 394.124 387.729 394.158 387.771C394.175 387.791 394.191 387.811 394.202 387.83C394.213 387.847 394.225 387.87 394.229 387.895V387.896C394.232 387.922 394.222 387.945 394.219 387.953C394.213 387.966 394.206 387.979 394.198 387.992C394.182 388.018 394.158 388.052 394.129 388.091C394.069 388.172 393.98 388.283 393.861 388.427C393.623 388.714 393.264 389.131 392.781 389.68C391.814 390.779 390.351 392.409 388.369 394.59C386.755 396.366 385.28 397.982 384.204 399.154C383.666 399.741 383.228 400.216 382.921 400.545C382.768 400.71 382.648 400.838 382.565 400.925C382.523 400.969 382.49 401.003 382.467 401.026C382.456 401.037 382.446 401.047 382.438 401.054C382.435 401.058 382.43 401.062 382.425 401.065C382.423 401.067 382.419 401.07 382.414 401.074C382.411 401.075 382.406 401.078 382.4 401.081C382.395 401.083 382.381 401.09 382.36 401.092C382.337 401.094 382.319 401.091 382.311 401.089C382.302 401.087 382.294 401.084 382.288 401.082C382.276 401.077 382.263 401.071 382.251 401.065C382.227 401.053 382.197 401.036 382.163 401.016C382.093 400.975 381.999 400.915 381.888 400.843C381.665 400.697 381.368 400.495 381.047 400.272C380.406 399.825 379.665 399.29 379.227 398.943C378.786 398.602 378.044 397.932 377.575 397.469Z" fill="black"/>
<path d="M368.858 384.141C368.072 383.419 364.893 380.723 361.79 378.153C358.687 375.584 348.426 367.036 338.992 359.161M368.858 384.141L319.736 343.15M368.858 384.141C369.636 384.871 370.416 385.571 370.58 385.704C370.859 385.931 370.859 386.013 370.604 386.766M368.858 384.141L370.604 386.766M338.992 359.161C326.549 348.759 321.25 344.39 319.664 343.217M338.992 359.161L339.069 359.097M319.736 343.15L319.664 343.217M319.736 343.15V343.149L319.664 343.217M319.736 343.15C321.326 344.324 326.628 348.697 339.069 359.097M370.604 386.766C369.723 389.427 369.252 392.503 369.454 394.522M370.604 386.766L369.454 394.522M319.664 343.217C315.244 339.943 313.912 338.977 313.821 338.986C313.777 338.983 312.91 339.769 311.899 340.719C309.848 342.644 306.985 345.02 304.657 346.704C303.262 347.723 300.098 349.837 299.603 350.098L299.546 350.021C299.546 350.021 299.547 350.02 299.548 350.02M339.069 359.097C348.503 366.972 358.764 375.52 361.867 378.089C364.969 380.658 368.15 383.356 368.939 384.08L368.94 384.081C369.717 384.811 370.495 385.509 370.656 385.639C370.727 385.697 370.788 385.752 370.831 385.815C370.877 385.881 370.899 385.951 370.901 386.036C370.902 386.118 370.885 386.215 370.853 386.334C370.82 386.454 370.772 386.602 370.708 386.79C369.83 389.445 369.361 392.51 369.562 394.514C369.76 396.633 370.659 398.77 371.806 399.913L371.807 399.914C371.86 399.968 372.022 400.102 372.277 400.302C372.529 400.5 372.865 400.758 373.26 401.056C374.048 401.653 375.069 402.412 376.11 403.178C378.195 404.711 380.358 406.269 380.922 406.621H380.923L381.359 406.9L383.951 406.422L386.551 405.943L394.093 396.94C396.171 394.457 398.071 392.193 399.455 390.545C400.147 389.721 400.711 389.051 401.104 388.585C401.301 388.352 401.455 388.17 401.561 388.045C401.614 387.983 401.655 387.935 401.684 387.901L401.694 387.889C401.69 387.882 401.684 387.875 401.677 387.867C401.637 387.819 401.572 387.748 401.48 387.652C401.297 387.463 401.013 387.183 400.627 386.811C399.855 386.069 398.678 384.964 397.085 383.489C393.977 380.601 391.392 379.018 389.096 378.573C386.514 378.06 384.163 378.434 378.917 380.213L376.601 380.996L376.537 381.018L376.487 380.979L374.287 379.292C373.064 378.365 368.932 374.977 365.079 371.766C361.225 368.553 354.672 363.083 350.516 359.609C349.13 358.451 347.476 357.069 345.743 355.621C342.276 352.725 338.495 349.566 335.921 347.41C332.06 344.159 328.634 341.311 328.315 341.068H328.314C327.344 340.313 320.623 335.319 319.58 334.571V334.57L318.61 333.883L318.533 333.828L318.594 333.759L318.962 333.347C320.016 332.169 322.995 328.666 324.686 326.597C325.221 325.947 325.708 325.354 326.066 324.92C326.244 324.703 326.391 324.526 326.494 324.401C326.546 324.339 326.587 324.29 326.617 324.255C326.631 324.238 326.643 324.224 326.652 324.214L326.653 324.213C326.659 324.206 326.669 324.194 326.677 324.187C326.701 324.167 326.73 324.158 326.749 324.155C326.769 324.151 326.788 324.151 326.804 324.152C326.836 324.153 326.871 324.16 326.904 324.168C326.971 324.185 327.051 324.214 327.128 324.249C327.155 324.26 327.181 324.27 327.204 324.277C327.167 324.222 327.116 324.151 327.052 324.065C326.907 323.873 326.702 323.616 326.464 323.327C325.988 322.751 325.386 322.055 324.888 321.519C318.726 314.847 311.051 311.013 303.542 310.84C301.214 310.794 298.305 311.15 296.146 311.75C293.984 312.351 291.244 313.475 289.417 314.512L288.474 315.041L287.583 316.373C282.183 324.434 282.779 333.939 289.221 342.189M299.548 350.02C299.547 350.02 299.546 350.02 299.543 350.021C299.54 350.021 299.535 350.022 299.529 350.022C299.51 350.023 299.484 350.022 299.45 350.017C299.38 350.006 299.287 349.983 299.172 349.947C298.944 349.874 298.645 349.754 298.305 349.598C297.624 349.285 296.787 348.836 296.026 348.358C293.855 346.99 290.834 344.257 289.221 342.189M299.548 350.02C299.792 349.891 300.698 349.303 301.725 348.615C302.752 347.927 303.89 347.144 304.585 346.636H304.586C306.91 344.954 309.77 342.582 311.818 340.659C312.324 340.183 312.794 339.749 313.143 339.434C313.317 339.276 313.462 339.148 313.567 339.059C313.619 339.014 313.662 338.979 313.694 338.954C313.71 338.942 313.724 338.931 313.737 338.923C313.743 338.919 313.752 338.914 313.761 338.91C313.765 338.907 313.772 338.904 313.781 338.902C313.787 338.9 313.799 338.896 313.815 338.896L299.548 350.02ZM289.221 342.189L289.13 342.239M369.454 394.522C369.653 396.652 370.556 398.809 371.723 399.972L369.454 394.522ZM401.741 387.838C401.739 387.839 401.738 387.84 401.736 387.842L401.741 387.838ZM377.575 397.469L377.574 397.468C376.026 395.894 375.143 394.276 374.927 392.514C374.711 390.752 375.161 388.855 376.26 386.721C376.592 386.084 376.887 385.622 377.26 385.215C377.632 384.807 378.079 384.459 378.711 384.048C380.216 383.06 382.295 382.467 383.962 382.556C385.575 382.642 387.466 383.177 389.163 384.022H389.164C389.426 384.154 389.87 384.443 390.384 384.801C390.9 385.161 391.492 385.595 392.054 386.022C392.615 386.449 393.147 386.869 393.541 387.201C393.738 387.366 393.902 387.511 394.018 387.624C394.076 387.68 394.124 387.729 394.158 387.771C394.175 387.791 394.191 387.811 394.202 387.83C394.213 387.847 394.225 387.87 394.229 387.895V387.896C394.232 387.922 394.222 387.945 394.219 387.953C394.213 387.966 394.206 387.979 394.198 387.992C394.182 388.018 394.158 388.052 394.129 388.091C394.069 388.172 393.98 388.283 393.861 388.427C393.623 388.714 393.264 389.131 392.781 389.68C391.814 390.779 390.351 392.409 388.369 394.59C386.755 396.366 385.28 397.982 384.204 399.154C383.666 399.741 383.228 400.216 382.921 400.545C382.768 400.71 382.648 400.838 382.565 400.925C382.523 400.969 382.49 401.003 382.467 401.026C382.456 401.037 382.446 401.047 382.438 401.054C382.435 401.058 382.43 401.062 382.425 401.065C382.423 401.067 382.419 401.07 382.414 401.074C382.411 401.075 382.406 401.078 382.4 401.081C382.395 401.083 382.381 401.09 382.36 401.092C382.337 401.094 382.319 401.091 382.311 401.089C382.302 401.087 382.294 401.084 382.288 401.082C382.276 401.077 382.263 401.071 382.251 401.065C382.227 401.053 382.197 401.036 382.163 401.016C382.093 400.975 381.999 400.915 381.888 400.843C381.665 400.697 381.368 400.495 381.047 400.272C380.406 399.825 379.665 399.29 379.227 398.943C378.786 398.602 378.044 397.932 377.575 397.469Z" stroke="white" stroke-width="0.2"/>
<path d="M332.837 257.266C329.868 257.266 327.462 256.13 327.462 254.728C327.462 253.326 329.868 252.19 332.837 252.19C335.805 252.19 338.212 253.326 338.212 254.728C338.212 256.13 335.805 257.266 332.837 257.266Z" fill="#8C8017" fill-opacity="0.6"/>
<path d="M283.861 252.453C283.861 253.855 286.268 254.991 289.237 254.991C292.205 254.991 294.612 253.855 294.612 252.453C294.612 251.052 292.205 249.915 289.237 249.915C286.268 249.915 283.861 251.052 283.861 252.453Z" fill="#8C8017" fill-opacity="0.6"/>
<path d="M289.543 198.173C289.543 200.347 290.809 202.109 292.372 202.109C293.934 202.109 295.2 200.347 295.2 198.173C295.2 195.999 293.934 197.386 292.372 197.386C290.809 197.386 289.543 195.999 289.543 198.173Z" fill="#178C54" fill-opacity="0.6"/>
<path d="M357.609 351.329C357.56 351.279 357.496 351.246 357.426 351.238L352.209 350.58C352.111 350.568 352.014 350.603 351.949 350.675L349.592 353.266L341.808 360.51C341.566 360.736 341.823 361.13 342.132 361.005L349.488 358.04C349.74 357.939 349.991 358.197 349.878 358.442L343.751 371.831C343.605 372.151 344.043 372.419 344.263 372.144L351.369 363.275C351.559 363.038 351.946 363.204 351.904 363.505L349.983 377.43C349.934 377.785 350.444 377.913 350.566 377.576L355.584 363.712C355.698 363.398 356.169 363.484 356.169 363.819V377.003C356.169 377.366 356.7 377.42 356.767 377.063L359.182 364.121C359.238 363.819 359.664 363.792 359.764 364.085L362.933 373.368C363.129 373.94 363.987 373.749 363.907 373.152L361.549 355.517C361.541 355.454 361.512 355.395 361.468 355.348L357.609 351.329Z" fill="#DBA79D" fill-opacity="0.5"/>
<path d="M294.611 176.047H333.432V186.199L317.903 181.123L298.493 183.661L294.611 176.047Z" fill="#BF9F4F" fill-opacity="0.4"/>
<path d="M291.429 194.237L293.314 195.024L292.372 196.599V195.811L291.429 194.237Z" fill="#8D9879"/>
<path d="M292.372 195.812V197.386H291.429L292.372 195.812Z" fill="#5F9268" fill-opacity="0.6"/>
<path d="M336.686 199.748C336.686 201.922 335.42 203.684 333.858 203.684C332.296 203.684 331.029 201.922 331.029 199.748C331.029 197.574 332.296 198.961 333.858 198.961C335.42 198.961 336.686 197.574 336.686 199.748Z" fill="#178C54" fill-opacity="0.6"/>
<path d="M334.801 195.812L332.915 196.599L333.858 198.173V197.386L334.801 195.812Z" fill="#8D9879"/>
<path d="M333.386 197.386V198.961H334.329L333.386 197.386Z" fill="#5F9268" fill-opacity="0.6"/>
<path d="M34.7739 522.664H83.4678L76.6665 515.724L332.846 517.037L487.007 517.787V520.225H475.672H589.234L582.175 522.121L589.234 571.879L566.739 579.57L578.057 607.135L325.573 610L63.7744 608.875L42.175 558.593L49.2338 543.396L34.7739 522.664Z" fill="#A9AD81"/>
<path d="M70.5322 524.392H20.922L11 519.953V515L384.73 516.777L609.63 517.792L609.496 518.18C608.953 519.759 609.233 521.505 610.243 522.834L611 523.829L341.735 522.869L70.5322 524.392Z" fill="#8D8F6D"/>
<path d="M217.327 549.116C217.327 548.288 217.205 547.583 216.959 547H230.069C231.173 549.944 231.986 553.547 232.507 557.81C233.059 562.073 233.351 566.136 233.381 570H222.755C222.541 564.48 221.636 559.159 220.041 554.038C217.373 559.251 215.932 564.572 215.717 570H206.701C205.904 563.989 204.371 558.653 202.101 553.992C200.445 557.887 199.617 561.505 199.617 564.848C199.617 566.657 199.832 568.375 200.261 570H189.083C188.869 568.743 188.761 567.087 188.761 565.032C188.761 562.947 189.068 560.861 189.681 558.776C191.859 558.132 193.944 557.074 195.937 555.602C197.961 554.13 199.449 552.52 200.399 550.772C199.602 549.453 198.759 548.196 197.869 547H212.405C213.571 550.159 214.445 553.593 215.027 557.304C216.561 554.452 217.327 551.723 217.327 549.116ZM267.226 569.632V570H256.554C256.432 568.313 256.171 566.504 255.772 564.572C253.626 566.719 251.479 568.528 249.332 570H238.614C238.4 568.743 238.292 567.087 238.292 565.032C238.292 562.947 238.599 560.861 239.212 558.776C241.42 558.132 243.536 557.043 245.56 555.51C247.615 553.977 249.102 552.321 250.022 550.542C249.164 549.193 248.29 548.012 247.4 547H262.672C265.708 553.655 267.226 561.199 267.226 569.632ZM254.944 561.214C254.178 558.577 253.135 556.001 251.816 553.486C250.375 557.718 249.547 561.72 249.332 565.492C251.602 564.265 253.472 562.839 254.944 561.214ZM296.667 555.004L296.621 556.568C294.167 557.887 291.101 558.914 287.421 559.65C290.058 560.355 292.603 560.708 295.057 560.708H296.023C297.709 563.192 298.798 566.289 299.289 570H287.375C287.068 567.853 286.439 566.013 285.489 564.48C284.569 562.916 283.434 561.858 282.085 561.306C282.054 561.827 282.039 562.87 282.039 564.434C282.039 565.998 282.131 567.853 282.315 570H272.287C271.397 565.553 270.953 561.429 270.953 557.626C270.953 553.793 271.167 550.251 271.597 547H295.609C296.314 550.097 296.667 552.765 296.667 555.004ZM283.051 550.082C282.683 552.781 282.407 555.433 282.223 558.04C283.909 557.795 285.289 557.197 286.363 556.246C285.78 554.191 284.676 552.137 283.051 550.082ZM316.219 547V548.242C316.219 556.338 315.713 563.591 314.701 570H303.661C304.244 567.179 304.535 563.928 304.535 560.248C304.535 556.537 304.29 552.121 303.799 547H316.219ZM350.511 569.632V570H339.839C339.717 568.313 339.456 566.504 339.057 564.572C336.911 566.719 334.764 568.528 332.617 570H321.899C321.685 568.743 321.577 567.087 321.577 565.032C321.577 562.947 321.884 560.861 322.497 558.776C324.705 558.132 326.821 557.043 328.845 555.51C330.9 553.977 332.387 552.321 333.307 550.542C332.449 549.193 331.575 548.012 330.685 547H345.957C348.993 553.655 350.511 561.199 350.511 569.632ZM338.229 561.214C337.463 558.577 336.42 556.001 335.101 553.486C333.66 557.718 332.832 561.72 332.617 565.492C334.887 564.265 336.757 562.839 338.229 561.214ZM381.056 547C381.24 550.22 381.332 553.624 381.332 557.212C381.332 560.769 381.178 565.032 380.872 570H376.456C370.507 566.811 365.048 562.471 360.08 556.982C360.325 559.037 360.448 561.153 360.448 563.33C360.448 565.477 360.371 567.7 360.218 570H354.836C355.449 566.228 355.756 562.747 355.756 559.558C355.756 556.338 355.603 553.793 355.296 551.922C354.069 550.082 353.103 548.441 352.398 547H365.462C366.75 549.208 368.498 551.493 370.706 553.854C372.945 556.185 375.076 558.009 377.1 559.328C377.1 554.851 376.594 550.741 375.582 547H381.056ZM399.909 547V548.242C399.909 556.338 399.403 563.591 398.391 570H387.351C387.933 567.179 388.225 563.928 388.225 560.248C388.225 556.537 387.979 552.121 387.489 547H399.909ZM424.173 549.99C423.376 554.835 422.977 558.791 422.977 561.858C422.977 564.925 423.1 567.639 423.345 570H413.317C412.274 565.124 411.753 559.88 411.753 554.268C411.753 553.317 411.784 551.891 411.845 549.99C409.238 550.757 407.644 552.52 407.061 555.28L402.507 555.004L404.163 547H434.753C434.14 550.373 433.434 553.133 432.637 555.28L427.991 555.004C428.114 554.513 428.175 554.023 428.175 553.532C428.175 552.336 427.807 551.447 427.071 550.864C426.335 550.281 425.369 549.99 424.173 549.99Z" fill="black"/>
</g>
<path d="M580 5H40C20.67 5 5 20.67 5 40V580C5 599.33 20.67 615 40 615H580C599.33 615 615 599.33 615 580V40C615 20.67 599.33 5 580 5Z" stroke="#E4EF65" stroke-width="10"/>
</g>
<defs>
<filter id="filter0_d_341_27143" x="538.509" y="137" width="133.471" height="158.104" filterUnits="userSpaceOnUse" color-interpolation-filters="sRGB">
<feFlood flood-opacity="0" result="BackgroundImageFix"/>
<feColorMatrix in="SourceAlpha" type="matrix" values="0 0 0 0 0 0 0 0 0 0 0 0 0 0 0 0 0 0 127 0" result="hardAlpha"/>
<feOffset dy="4"/>
<feGaussianBlur stdDeviation="2"/>
<feComposite in2="hardAlpha" operator="out"/>
<feColorMatrix type="matrix" values="0 0 0 0 0 0 0 0 0 0 0 0 0 0 0 0 0 0 0.25 0"/>
<feBlend mode="normal" in2="BackgroundImageFix" result="effect1_dropShadow_341_27143"/>
<feBlend mode="normal" in="SourceGraphic" in2="effect1_dropShadow_341_27143" result="shape"/>
</filter>
<filter id="filter1_d_341_27143" x="-43.4912" y="134" width="133.471" height="158.104" filterUnits="userSpaceOnUse" color-interpolation-filters="sRGB">
<feFlood flood-opacity="0" result="BackgroundImageFix"/>
<feColorMatrix in="SourceAlpha" type="matrix" values="0 0 0 0 0 0 0 0 0 0 0 0 0 0 0 0 0 0 127 0" result="hardAlpha"/>
<feOffset dy="4"/>
<feGaussianBlur stdDeviation="2"/>
<feComposite in2="hardAlpha" operator="out"/>
<feColorMatrix type="matrix" values="0 0 0 0 0 0 0 0 0 0 0 0 0 0 0 0 0 0 0.25 0"/>
<feBlend mode="normal" in2="BackgroundImageFix" result="effect1_dropShadow_341_27143"/>
<feBlend mode="normal" in="SourceGraphic" in2="effect1_dropShadow_341_27143" result="shape"/>
</filter>
<clipPath id="clip0_341_27143">
<rect width="620" height="620" fill="white"/>
</clipPath>
</defs>
</svg>
