<svg width="620" height="620" viewBox="0 0 620 620" fill="none" xmlns="http://www.w3.org/2000/svg">
<g clip-path="url(#clip0_341_27941)">
<mask id="mask0_341_27941" style="mask-type:luminance" maskUnits="userSpaceOnUse" x="10" y="10" width="600" height="600">
<path d="M580 10H40C23.4315 10 10 23.4315 10 40V580C10 596.569 23.4315 610 40 610H580C596.569 610 610 596.569 610 580V40C610 23.4315 596.569 10 580 10Z" fill="white"/>
</mask>
<g mask="url(#mask0_341_27941)">
<path d="M580 10H40C23.4315 10 10 23.4315 10 40V580C10 596.569 23.4315 610 40 610H580C596.569 610 610 596.569 610 580V40C610 23.4315 596.569 10 580 10Z" fill="black"/>
<path d="M681 333H6V623H681V333Z" fill="#C1C1C1"/>
<path d="M162.69 81.4107L59.4553 8.53572L-17.9707 -35V25.5714L122.134 123.054L188.499 227.161L265.925 336H320L216.765 147.661L162.69 81.4107Z" fill="#939393"/>
<path d="M121.626 88.9729L18.7656 18.2626L-58.3799 -23.98V34.7923L81.2167 129.379L147.341 230.394L224.487 336H278.366L175.506 153.255L121.626 88.9729Z" fill="#939393"/>
<path d="M67.7465 88.9729L-35.1141 18.2626L-112.26 -23.98V34.7923L27.337 129.379L93.4617 230.394L170.607 336H224.486L121.626 153.255L67.7465 88.9729Z" fill="#939393"/>
<path d="M1.55885 100.316L-106.164 32.8526L-186.957 -7.4502V48.6233L-40.7609 138.866L28.4897 235.243L109.282 336H171.831L57.9853 161.646L1.55885 100.316Z" fill="#939393"/>
<path d="M-44.9104 88.9729L-147.771 18.2626L-224.916 -23.98V34.7923L-85.3199 129.379L-19.1953 230.394L57.9502 336H111.83L8.96895 153.255L-44.9104 88.9729Z" fill="#939393"/>
<path d="M-88.9939 88.9729L-191.855 18.2626L-269 -23.98V34.7923L-129.403 129.379L-63.2787 230.394L13.8667 336H67.7461L-35.1145 153.255L-88.9939 88.9729Z" fill="#939393"/>
<path d="M513.5 324.3H502V181.5L510 306.45L513.5 181.5L520.5 306.45L524.5 181.5L530 324.3H513.5Z" fill="#535353"/>
<path d="M439.5 315.8H428V173L436 297.95L439.5 173L446.5 297.95L450.5 173L456 315.8H439.5Z" fill="#535353"/>
<path d="M593.5 322.6H582V179.8L590 304.75L593.5 179.8L600.5 304.75L604.5 179.8L610 322.6H593.5Z" fill="#535353"/>
<path d="M327.5 320.9H316V178.1L324 303.05L327.5 178.1L334.5 303.05L338.5 178.1L344 320.9H327.5Z" fill="#535353"/>
<path d="M485.5 324.3H474V181.5L482 306.45L485.5 181.5L492.5 306.45L496.5 181.5L502 324.3H485.5Z" fill="#535353"/>
<path d="M411.5 315.8H400V173L408 297.95L411.5 173L418.5 297.95L422.5 173L428 315.8H411.5Z" fill="#535353"/>
<path d="M565.5 322.6H554V179.8L562 304.75L565.5 179.8L572.5 304.75L576.5 179.8L582 322.6H565.5Z" fill="#535353"/>
<path d="M299.5 320.9H288V178.1L296 303.05L299.5 178.1L306.5 303.05L310.5 178.1L316 320.9H299.5Z" fill="#535353"/>
<path d="M457.5 324.3H446V181.5L454 306.45L457.5 181.5L464.5 306.45L468.5 181.5L474 324.3H457.5Z" fill="#535353"/>
<path d="M383.5 315.8H372V173L380 297.95L383.5 173L390.5 297.95L394.5 173L400 315.8H383.5Z" fill="#535353"/>
<path d="M537.5 322.6H526V179.8L534 304.75L537.5 179.8L544.5 304.75L548.5 179.8L554 322.6H537.5Z" fill="#535353"/>
<path d="M271.5 320.9H260V178.1L268 303.05L271.5 178.1L278.5 303.05L282.5 178.1L288 320.9H271.5Z" fill="#535353"/>
<path d="M429.5 324.3H418V181.5L426 306.45L429.5 181.5L436.5 306.45L440.5 181.5L446 324.3H429.5Z" fill="#535353"/>
<path d="M355.5 315.8H344V173L352 297.95L355.5 173L362.5 297.95L366.5 173L372 315.8H355.5Z" fill="#535353"/>
<path d="M509.5 322.6H498V179.8L506 304.75L509.5 179.8L516.5 304.75L520.5 179.8L526 322.6H509.5Z" fill="#535353"/>
<path d="M243.5 320.9H232V178.1L240 303.05L243.5 178.1L250.5 303.05L254.5 178.1L260 320.9H243.5Z" fill="#535353"/>
<path d="M411.5 341.3H400V198.5L408 323.45L411.5 198.5L418.5 323.45L422.5 198.5L428 341.3H411.5Z" fill="#535353"/>
<path d="M337.5 332.8H326V190L334 314.95L337.5 190L344.5 314.95L348.5 190L354 332.8H337.5Z" fill="#535353"/>
<path d="M491.5 339.6H480V196.8L488 321.75L491.5 196.8L498.5 321.75L502.5 196.8L508 339.6H491.5Z" fill="#535353"/>
<path d="M225.5 337.9H214V195.1L222 320.05L225.5 195.1L232.5 320.05L236.5 195.1L242 337.9H225.5Z" fill="#535353"/>
<path d="M443.5 324.3H432V181.5L440 306.45L443.5 181.5L450.5 306.45L454.5 181.5L460 324.3H443.5Z" fill="#535353"/>
<path d="M369.5 315.8H358V173L366 297.95L369.5 173L376.5 297.95L380.5 173L386 315.8H369.5Z" fill="#535353"/>
<path d="M523.5 322.6H512V179.8L520 304.75L523.5 179.8L530.5 304.75L534.5 179.8L540 322.6H523.5Z" fill="#535353"/>
<path d="M257.5 320.9H246V178.1L254 303.05L257.5 178.1L264.5 303.05L268.5 178.1L274 320.9H257.5Z" fill="#535353"/>
<path d="M463.5 324.3H452V181.5L460 306.45L463.5 181.5L470.5 306.45L474.5 181.5L480 324.3H463.5Z" fill="#535353"/>
<path d="M389.5 315.8H378V173L386 297.95L389.5 173L396.5 297.95L400.5 173L406 315.8H389.5Z" fill="#535353"/>
<path d="M543.5 322.6H532V179.8L540 304.75L543.5 179.8L550.5 304.75L554.5 179.8L560 322.6H543.5Z" fill="#535353"/>
<path d="M277.5 320.9H266V178.1L274 303.05L277.5 178.1L284.5 303.05L288.5 178.1L294 320.9H277.5Z" fill="#535353"/>
<path d="M453.5 343H442V200.2L450 325.15L453.5 200.2L460.5 325.15L464.5 200.2L470 343H453.5Z" fill="#535353"/>
<path d="M379.5 334.5H368V191.7L376 316.65L379.5 191.7L386.5 316.65L390.5 191.7L396 334.5H379.5Z" fill="#535353"/>
<path d="M533.5 341.3H522V198.5L530 323.45L533.5 198.5L540.5 323.45L544.5 198.5L550 341.3H533.5Z" fill="#535353"/>
<path d="M267.5 339.6H256V196.8L264 321.75L267.5 196.8L274.5 321.75L278.5 196.8L284 339.6H267.5Z" fill="#535353"/>
<path d="M485.5 324.3H474V181.5L482 306.45L485.5 181.5L492.5 306.45L496.5 181.5L502 324.3H485.5Z" fill="#535353"/>
<path d="M411.5 315.8H400V173L408 297.95L411.5 173L418.5 297.95L422.5 173L428 315.8H411.5Z" fill="#535353"/>
<path d="M565.5 322.6H554V179.8L562 304.75L565.5 179.8L572.5 304.75L576.5 179.8L582 322.6H565.5Z" fill="#535353"/>
<path d="M299.5 320.9H288V178.1L296 303.05L299.5 178.1L306.5 303.05L310.5 178.1L316 320.9H299.5Z" fill="#535353"/>
<path d="M491.5 343H480V200.2L488 325.15L491.5 200.2L498.5 325.15L502.5 200.2L508 343H491.5Z" fill="#535353"/>
<path d="M417.5 334.5H406V191.7L414 316.65L417.5 191.7L424.5 316.65L428.5 191.7L434 334.5H417.5Z" fill="#535353"/>
<path d="M571.5 341.3H560V198.5L568 323.45L571.5 198.5L578.5 323.45L582.5 198.5L588 341.3H571.5Z" fill="#535353"/>
<path d="M305.5 339.6H294V196.8L302 321.75L305.5 196.8L312.5 321.75L316.5 196.8L322 339.6H305.5Z" fill="#535353"/>
<path d="M261.5 346.3H250V203.5L258 328.45L261.5 203.5L268.5 328.45L272.5 203.5L278 346.3H261.5Z" fill="#535353"/>
<path d="M187.5 337.8H176V195L184 319.95L187.5 195L194.5 319.95L198.5 195L204 337.8H187.5Z" fill="#535353"/>
<path d="M341.5 344.6H330V201.8L338 326.75L341.5 201.8L348.5 326.75L352.5 201.8L358 344.6H341.5Z" fill="#535353"/>
<path d="M75.5 342.9H64V200.1L72 325.05L75.5 200.1L82.5 325.05L86.5 200.1L92 342.9H75.5Z" fill="#535353"/>
<path d="M233.5 346.3H222V203.5L230 328.45L233.5 203.5L240.5 328.45L244.5 203.5L250 346.3H233.5Z" fill="#535353"/>
<path d="M159.5 337.8H148V195L156 319.95L159.5 195L166.5 319.95L170.5 195L176 337.8H159.5Z" fill="#535353"/>
<path d="M313.5 344.6H302V201.8L310 326.75L313.5 201.8L320.5 326.75L324.5 201.8L330 344.6H313.5Z" fill="#535353"/>
<path d="M47.5 342.9H36V200.1L44 325.05L47.5 200.1L54.5 325.05L58.5 200.1L64 342.9H47.5Z" fill="#535353"/>
<path d="M205.5 346.3H194V203.5L202 328.45L205.5 203.5L212.5 328.45L216.5 203.5L222 346.3H205.5Z" fill="#535353"/>
<path d="M131.5 337.8H120V195L128 319.95L131.5 195L138.5 319.95L142.5 195L148 337.8H131.5Z" fill="#535353"/>
<path d="M285.5 344.6H274V201.8L282 326.75L285.5 201.8L292.5 326.75L296.5 201.8L302 344.6H285.5Z" fill="#535353"/>
<path d="M19.5 342.9H8V200.1L16 325.05L19.5 200.1L26.5 325.05L30.5 200.1L36 342.9H19.5Z" fill="#535353"/>
<path d="M177.5 346.3H166V203.5L174 328.45L177.5 203.5L184.5 328.45L188.5 203.5L194 346.3H177.5Z" fill="#535353"/>
<path d="M103.5 337.8H92V195L100 319.95L103.5 195L110.5 319.95L114.5 195L120 337.8H103.5Z" fill="#535353"/>
<path d="M257.5 344.6H246V201.8L254 326.75L257.5 201.8L264.5 326.75L268.5 201.8L274 344.6H257.5Z" fill="#535353"/>
<path d="M159.5 363.3H148V220.5L156 345.45L159.5 220.5L166.5 345.45L170.5 220.5L176 363.3H159.5Z" fill="#535353"/>
<path d="M85.5 354.8H74V212L82 336.95L85.5 212L92.5 336.95L96.5 212L102 354.8H85.5Z" fill="#535353"/>
<path d="M239.5 361.6H228V218.8L236 343.75L239.5 218.8L246.5 343.75L250.5 218.8L256 361.6H239.5Z" fill="#535353"/>
<path d="M191.5 346.3H180V203.5L188 328.45L191.5 203.5L198.5 328.45L202.5 203.5L208 346.3H191.5Z" fill="#535353"/>
<path d="M117.5 337.8H106V195L114 319.95L117.5 195L124.5 319.95L128.5 195L134 337.8H117.5Z" fill="#535353"/>
<path d="M271.5 344.6H260V201.8L268 326.75L271.5 201.8L278.5 326.75L282.5 201.8L288 344.6H271.5Z" fill="#535353"/>
<path d="M5.5 342.9H-6V200.1L2 325.05L5.5 200.1L12.5 325.05L16.5 200.1L22 342.9H5.5Z" fill="#535353"/>
<path d="M211.5 346.3H200V203.5L208 328.45L211.5 203.5L218.5 328.45L222.5 203.5L228 346.3H211.5Z" fill="#535353"/>
<path d="M137.5 337.8H126V195L134 319.95L137.5 195L144.5 319.95L148.5 195L154 337.8H137.5Z" fill="#535353"/>
<path d="M291.5 344.6H280V201.8L288 326.75L291.5 201.8L298.5 326.75L302.5 201.8L308 344.6H291.5Z" fill="#535353"/>
<path d="M25.5 342.9H14V200.1L22 325.05L25.5 200.1L32.5 325.05L36.5 200.1L42 342.9H25.5Z" fill="#535353"/>
<path d="M201.5 365H190V222.2L198 347.15L201.5 222.2L208.5 347.15L212.5 222.2L218 365H201.5Z" fill="#535353"/>
<path d="M127.5 356.5H116V213.7L124 338.65L127.5 213.7L134.5 338.65L138.5 213.7L144 356.5H127.5Z" fill="#535353"/>
<path d="M281.5 363.3H270V220.5L278 345.45L281.5 220.5L288.5 345.45L292.5 220.5L298 363.3H281.5Z" fill="#535353"/>
<path d="M15.5 361.6H4V218.8L12 343.75L15.5 218.8L22.5 343.75L26.5 218.8L32 361.6H15.5Z" fill="#535353"/>
<path d="M233.5 346.3H222V203.5L230 328.45L233.5 203.5L240.5 328.45L244.5 203.5L250 346.3H233.5Z" fill="#535353"/>
<path d="M159.5 337.8H148V195L156 319.95L159.5 195L166.5 319.95L170.5 195L176 337.8H159.5Z" fill="#535353"/>
<path d="M313.5 344.6H302V201.8L310 326.75L313.5 201.8L320.5 326.75L324.5 201.8L330 344.6H313.5Z" fill="#535353"/>
<path d="M47.5 342.9H36V200.1L44 325.05L47.5 200.1L54.5 325.05L58.5 200.1L64 342.9H47.5Z" fill="#535353"/>
<path d="M239.5 365H228V222.2L236 347.15L239.5 222.2L246.5 347.15L250.5 222.2L256 365H239.5Z" fill="#535353"/>
<path d="M165.5 356.5H154V213.7L162 338.65L165.5 213.7L172.5 338.65L176.5 213.7L182 356.5H165.5Z" fill="#535353"/>
<path d="M319.5 363.3H308V220.5L316 345.45L319.5 220.5L326.5 345.45L330.5 220.5L336 363.3H319.5Z" fill="#535353"/>
<path d="M53.5 361.6H42V218.8L50 343.75L53.5 218.8L60.5 343.75L64.5 218.8L70 361.6H53.5Z" fill="#535353"/>
<path d="M438.735 163.346L445.905 167.054L454.867 165.2L456.66 356.167L447.697 371L449.49 358.022L438.735 356.167L431.566 350.605L415.434 358.022L427.981 348.751L431.566 335.773L430.174 340.812L419.019 341.335L424.396 339.481L429.773 337.627L433.358 330.211L438.735 231.946L399.302 213.405L402.887 209.697L436.943 220.822L438.735 215.259V163.346Z" fill="#7C7C7C"/>
<path d="M454.867 165.2H463.829L470.999 157.784V187.449L479.961 185.595L505.055 167.054L506.848 168.908L490.716 181.886L497.886 178.178L530.149 159.638L533.734 161.492L472.791 202.281L479.961 332.065L483.546 337.627L492.508 341.335H488.923H479.961L474.584 348.751L472.791 352.459V363.584L469.207 356.167H456.66L454.867 165.2Z" fill="#7C7C7C"/>
<path d="M411.85 200.427C427.981 207.843 404.679 230.092 399.303 217.114C383.17 230.092 374.208 202.281 386.756 200.427C377.793 185.595 397.509 172.616 399.303 183.741C424.396 174.47 415.434 196.719 411.85 200.427Z" fill="#999999"/>
<path d="M417.759 193.483C433.89 200.899 410.588 223.148 405.212 210.17C389.079 223.148 380.117 195.337 392.665 193.483C383.702 178.651 403.419 165.672 405.212 176.797C430.305 167.526 421.343 189.775 417.759 193.483Z" fill="#999999"/>
<path d="M407.005 193.483C423.135 200.899 399.834 223.148 394.458 210.17C378.325 223.148 369.363 195.337 381.911 193.483C372.948 178.651 392.664 165.672 394.458 176.797C419.551 167.526 410.588 189.775 407.005 193.483Z" fill="#999999"/>
<path d="M550.399 160.11C566.53 167.526 543.228 189.775 537.852 176.797C521.719 189.775 512.757 161.964 525.305 160.11C516.342 145.278 536.059 132.299 537.852 143.424C562.945 134.153 553.983 156.402 550.399 160.11Z" fill="#999999"/>
<path d="M485.802 117.498C525.53 141.363 468.141 212.961 454.901 171.196C415.167 212.961 393.095 123.465 423.999 117.498C401.924 69.7666 450.483 28.0005 454.901 63.8002C516.701 33.967 494.628 105.564 485.802 117.498Z" fill="#999999"/>
<path d="M509.186 95.1512C548.914 119.016 491.525 190.614 478.285 148.849C438.551 190.614 416.479 101.118 447.383 95.1512C425.308 47.4195 473.867 5.65337 478.285 41.453C540.085 11.6199 518.012 83.2175 509.186 95.1512Z" fill="#999999"/>
<path d="M473.87 95.1512C513.597 119.016 456.209 190.614 442.968 148.849C403.234 190.614 381.162 101.118 412.067 95.1512C389.991 47.4195 438.551 5.65337 442.968 41.453C504.768 11.6199 482.696 83.2175 473.87 95.1512Z" fill="#999999"/>
<path d="M390.735 151.346L397.905 155.054L406.867 153.2L408.66 344.167L399.697 359L401.49 346.022L390.735 344.167L383.566 338.605L367.434 346.022L379.981 336.751L383.566 323.773L382.174 328.812L371.019 329.335L376.396 327.481L381.773 325.627L385.358 318.211L390.735 219.946L351.302 201.405L354.887 197.697L388.943 208.822L390.735 203.259V151.346Z" fill="#8F8F8F"/>
<path d="M406.867 153.2H415.829L422.999 145.784V175.449L431.961 173.595L457.055 155.054L458.848 156.908L442.716 169.886L449.886 166.178L482.149 147.638L485.734 149.492L424.791 190.281L431.961 320.065L435.546 325.627L444.508 329.335H440.923H431.961L426.584 336.751L424.791 340.459V351.584L421.207 344.167H408.66L406.867 153.2Z" fill="#8F8F8F"/>
<path d="M363.85 188.427C379.981 195.843 356.679 218.092 351.303 205.114C335.17 218.092 326.208 190.281 338.756 188.427C329.793 173.595 349.509 160.616 351.303 171.741C376.396 162.47 367.434 184.719 363.85 188.427Z" fill="#858585"/>
<path d="M369.759 181.483C385.89 188.899 362.588 211.148 357.212 198.17C341.079 211.148 332.117 183.337 344.665 181.483C335.702 166.651 355.419 153.672 357.212 164.797C382.305 155.526 373.343 177.775 369.759 181.483Z" fill="#858585"/>
<path d="M359.005 181.483C375.135 188.899 351.834 211.148 346.458 198.17C330.325 211.148 321.363 183.337 333.911 181.483C324.948 166.651 344.664 153.672 346.458 164.797C371.551 155.526 362.588 177.775 359.005 181.483Z" fill="#858585"/>
<path d="M502.399 148.11C518.53 155.526 495.228 177.775 489.852 164.797C473.719 177.775 464.757 149.964 477.305 148.11C468.342 133.278 488.059 120.299 489.852 131.424C514.945 122.153 505.983 144.402 502.399 148.11Z" fill="#858585"/>
<path d="M437.802 105.498C477.53 129.363 420.141 200.961 406.901 159.196C367.167 200.961 345.095 111.465 375.999 105.498C353.924 57.7666 402.483 16.0005 406.901 51.8002C468.701 21.967 446.628 93.5646 437.802 105.498Z" fill="#858585"/>
<path d="M461.186 83.1512C500.914 107.016 443.525 178.614 430.285 136.849C390.551 178.614 368.479 89.1177 399.383 83.1512C377.308 35.4195 425.867 -6.34663 430.285 29.453C492.085 -0.380089 470.012 71.2175 461.186 83.1512Z" fill="#858585"/>
<path d="M425.87 83.1512C465.597 107.016 408.209 178.614 394.968 136.849C355.234 178.614 333.162 89.1177 364.067 83.1512C341.991 35.4195 390.551 -6.34663 394.968 29.453C456.768 -0.380089 434.696 71.2175 425.87 83.1512Z" fill="#858585"/>
<path d="M276.781 150.346L284.07 154.054L293.181 152.2L295.004 343.167L285.892 358L287.715 345.022L276.781 343.167L269.491 337.605L253.091 345.022L265.847 335.751L269.491 322.773L268.076 327.812L256.735 328.335L262.202 326.481L267.669 324.627L271.314 317.211L276.781 218.946L236.69 200.405L240.335 196.697L274.958 207.822L276.781 202.259V150.346Z" fill="#878787"/>
<path d="M293.181 152.2H302.293L309.582 144.784V174.449L318.694 172.595L344.206 154.054L346.028 155.908L329.628 168.886L336.917 165.178L369.718 146.638L373.363 148.492L311.404 189.281L318.694 319.065L322.338 324.627L331.45 328.335H327.805H318.694L313.227 335.751L311.404 339.459V350.584L307.76 343.167H295.004L293.181 152.2Z" fill="#878787"/>
<path d="M249.447 187.427C265.847 194.843 242.157 217.092 236.691 204.114C220.289 217.092 211.178 189.281 223.935 187.427C214.822 172.595 234.868 159.616 236.691 170.741C262.202 161.47 253.091 183.719 249.447 187.427Z" fill="#919191"/>
<path d="M255.455 180.483C271.855 187.899 248.165 210.148 242.699 197.17C226.297 210.148 217.186 182.337 229.943 180.483C220.83 165.651 240.875 152.672 242.699 163.797C268.21 154.526 259.098 176.775 255.455 180.483Z" fill="#919191"/>
<path d="M244.522 180.483C260.921 187.899 237.231 210.148 231.765 197.17C215.363 210.148 206.252 182.337 219.009 180.483C209.897 165.651 229.942 152.672 231.765 163.797C257.276 154.526 248.165 176.775 244.522 180.483Z" fill="#919191"/>
<path d="M390.306 147.11C406.706 154.526 383.016 176.775 377.55 163.797C361.148 176.775 352.037 148.964 364.794 147.11C355.681 132.278 375.727 119.299 377.55 130.424C403.061 121.153 393.95 143.402 390.306 147.11Z" fill="#919191"/>
<path d="M324.632 104.498C365.022 128.363 306.677 199.961 293.216 158.196C252.82 199.961 230.38 110.465 261.799 104.498C239.356 56.7666 288.724 15.0005 293.216 50.8002C356.046 20.967 333.605 92.5646 324.632 104.498Z" fill="#919191"/>
<path d="M348.406 82.1512C388.795 106.016 330.45 177.614 316.989 135.849C276.593 177.614 254.153 88.1177 285.572 82.1512C263.129 34.4195 312.498 -7.34663 316.989 28.453C379.819 -1.38008 357.379 70.2175 348.406 82.1512Z" fill="#919191"/>
<path d="M312.501 82.1512C352.891 106.016 294.545 177.614 281.084 135.849C240.688 177.614 218.248 88.1177 249.668 82.1512C227.225 34.4195 276.593 -7.34663 281.084 28.453C343.914 -1.38008 321.474 70.2175 312.501 82.1512Z" fill="#919191"/>
<path d="M67.7807 154.346L75.0699 158.054L84.1814 156.2L86.0037 347.167L76.8922 362L78.7145 349.022L67.7807 347.167L60.4914 341.605L44.0907 349.022L56.8468 339.751L60.4914 326.773L59.0763 331.812L47.7353 332.335L53.2022 330.481L58.6691 328.627L62.3138 321.211L67.7807 222.946L27.6899 204.405L31.3346 200.697L65.9584 211.822L67.7807 206.259V154.346Z" fill="#878787"/>
<path d="M84.1816 156.2H93.2931L100.582 148.784V178.449L109.694 176.595L135.206 158.054L137.028 159.908L120.628 172.886L127.917 169.178L160.718 150.638L164.363 152.492L102.404 193.281L109.694 323.065L113.338 328.627L122.45 332.335H118.805H109.694L104.227 339.751L102.404 343.459V354.584L98.7601 347.167H86.0039L84.1816 156.2Z" fill="#878787"/>
<path d="M40.4475 191.427C56.847 198.843 33.1571 221.092 27.6914 208.114C11.2893 221.092 2.178 193.281 14.9352 191.427C5.82261 176.595 25.8678 163.616 27.6914 174.741C53.2024 165.47 44.0909 187.719 40.4475 191.427Z" fill="#919191"/>
<path d="M46.4553 184.483C62.8548 191.899 39.1649 214.148 33.6992 201.17C17.2971 214.148 8.18582 186.337 20.943 184.483C11.8304 169.651 31.8757 156.672 33.6992 167.797C59.2102 158.526 50.0987 180.775 46.4553 184.483Z" fill="#919191"/>
<path d="M35.5217 184.483C51.9212 191.899 28.2313 214.148 22.7656 201.17C6.36347 214.148 -2.7478 186.337 10.0095 184.483C0.896809 169.651 20.9421 156.672 22.7656 167.797C48.2766 158.526 39.1651 180.775 35.5217 184.483Z" fill="#919191"/>
<path d="M181.306 151.11C197.706 158.526 174.016 180.775 168.55 167.797C152.148 180.775 143.037 152.964 155.794 151.11C146.681 136.278 166.727 123.299 168.55 134.424C194.061 125.153 184.95 147.402 181.306 151.11Z" fill="#919191"/>
<path d="M115.632 108.498C156.022 132.363 97.6768 203.961 84.2156 162.196C43.8195 203.961 21.3797 114.465 52.799 108.498C30.3559 60.7666 79.7245 19.0005 84.2156 54.8002C147.046 24.967 124.605 96.5646 115.632 108.498Z" fill="#919191"/>
<path d="M139.406 86.1512C179.795 110.016 121.45 181.614 107.989 139.849C67.5929 181.614 45.1531 92.1177 76.5724 86.1512C54.1293 38.4195 103.498 -3.34663 107.989 32.453C170.819 2.61992 148.379 74.2175 139.406 86.1512Z" fill="#919191"/>
<path d="M103.501 86.1512C143.891 110.016 85.5455 181.614 72.0843 139.849C31.6882 181.614 9.24832 92.1177 40.6676 86.1512C18.2245 38.4195 67.5931 -3.34663 72.0843 32.453C134.914 2.61992 112.474 74.2175 103.501 86.1512Z" fill="#919191"/>
<path d="M143.781 144.346L151.07 148.054L160.181 146.2L162.004 337.167L152.892 352L154.715 339.022L143.781 337.167L136.491 331.605L120.091 339.022L132.847 329.751L136.491 316.773L135.076 321.812L123.735 322.335L129.202 320.481L134.669 318.627L138.314 311.211L143.781 212.946L103.69 194.405L107.335 190.697L141.958 201.822L143.781 196.259V144.346Z" fill="#878787"/>
<path d="M160.181 146.2H169.293L176.582 138.784V168.449L185.694 166.595L211.206 148.054L213.028 149.908L196.628 162.886L203.917 159.178L236.718 140.638L240.363 142.492L178.404 183.281L185.694 313.065L189.338 318.627L198.45 322.335H194.805H185.694L180.227 329.751L178.404 333.459V344.584L174.76 337.167H162.004L160.181 146.2Z" fill="#878787"/>
<path d="M116.447 181.427C132.847 188.843 109.157 211.092 103.691 198.114C87.2893 211.092 78.178 183.281 90.9352 181.427C81.8226 166.595 101.868 153.616 103.691 164.741C129.202 155.47 120.091 177.719 116.447 181.427Z" fill="#8C8C8C" fill-opacity="0.6"/>
<path d="M122.455 174.483C138.855 181.899 115.165 204.148 109.699 191.17C93.2971 204.148 84.1858 176.337 96.943 174.483C87.8304 159.651 107.875 146.672 109.699 157.797C135.21 148.526 126.098 170.775 122.455 174.483Z" fill="#8C8C8C" fill-opacity="0.6"/>
<path d="M111.522 174.483C127.921 181.899 104.231 204.148 98.7656 191.17C82.3635 204.148 73.2522 176.337 86.0095 174.483C76.8968 159.651 96.9421 146.672 98.7656 157.797C124.276 148.526 115.165 170.775 111.522 174.483Z" fill="#8C8C8C" fill-opacity="0.6"/>
<path d="M257.306 141.11C273.706 148.526 250.016 170.775 244.55 157.797C228.148 170.775 219.037 142.964 231.794 141.11C222.681 126.278 242.727 113.299 244.55 124.424C270.061 115.153 260.95 137.402 257.306 141.11Z" fill="#8C8C8C" fill-opacity="0.6"/>
<path d="M191.632 98.4983C232.022 122.363 173.677 193.961 160.216 152.196C119.82 193.961 97.3795 104.465 128.799 98.4983C106.356 50.7666 155.724 9.00051 160.216 44.8002C223.046 14.967 200.605 86.5646 191.632 98.4983Z" fill="#8C8C8C" fill-opacity="0.6"/>
<path d="M215.406 76.1512C255.795 100.016 197.45 171.614 183.989 129.849C143.593 171.614 121.153 82.1177 152.572 76.1512C130.129 28.4195 179.498 -13.3466 183.989 22.453C246.819 -7.3801 224.379 64.2175 215.406 76.1512Z" fill="#8C8C8C" fill-opacity="0.6"/>
<path d="M179.501 76.1512C219.891 100.016 161.545 171.614 148.084 129.849C107.688 171.614 85.2483 82.1177 116.668 76.1512C94.2244 28.4195 143.593 -13.3466 148.084 22.453C210.914 -7.3801 188.474 64.2175 179.501 76.1512Z" fill="#8C8C8C" fill-opacity="0.6"/>
<path d="M44.7353 158.216L51.905 161.784L60.8671 160L62.6596 343.73L59 381.5L56.5 382V359.5L55.4898 345.513L43.5 356L41 361L44.7353 366L39.358 362L36.1735 370.5V354.5L44.7353 343.73L37.5655 338.378L21.4336 345.513L33.9807 336.594L37.5655 324.108L36.1735 328.956L25.0185 329.459L30.3958 327.676L35.7731 325.892L39.358 318.757L44.7353 224.216L5.30176 206.378L8.88662 202.811L42.9428 213.513L44.7353 208.162V158.216Z" fill="#242424"/>
<path d="M60.8672 160H69.8294L76.9991 152.865V181.405L85.9613 179.622L111.055 161.784L112.848 163.567L96.7159 176.054L103.886 172.486L136.149 154.649L139.734 156.432L78.7916 195.676L85.9613 320.54L89.5462 325.892L104.5 326.5L107 328L103 327.5L98.5083 329.459H94.9234H85.9613L80.584 336.594L78.7916 340.162V350.865L75.2067 343.73H62.6597L60.8672 160Z" fill="#242424"/>
<path d="M17.8502 193.892C33.9809 201.027 10.6793 222.433 5.30315 209.946C-10.83 222.433 -19.7919 195.676 -7.24388 193.892C-16.2071 179.622 3.5095 167.135 5.30315 177.838C30.396 168.919 21.4338 190.324 17.8502 193.892Z" fill="#B4B4B4" fill-opacity="0.8"/>
<path d="M23.7594 187.211C39.89 194.346 16.5884 215.752 11.2124 203.265C-4.92085 215.752 -13.8828 188.995 -1.33466 187.211C-10.2979 172.941 9.41872 160.454 11.2124 171.157C36.3052 162.238 27.343 183.644 23.7594 187.211Z" fill="#B4B4B4" fill-opacity="0.8"/>
<path d="M13.005 187.211C29.1357 194.346 5.83401 215.752 0.457937 203.265C-15.6752 215.752 -24.6371 188.995 -12.0891 187.211C-21.0523 172.941 -1.33572 160.454 0.457937 171.157C25.5508 162.238 16.5886 183.644 13.005 187.211Z" fill="#B4B4B4" fill-opacity="0.8"/>
<path d="M156.399 155.103C172.53 162.238 149.228 183.643 143.852 171.157C127.719 183.643 118.757 156.887 131.305 155.103C122.342 140.833 142.059 128.346 143.852 139.049C168.945 130.13 159.983 151.535 156.399 155.103Z" fill="#B4B4B4" fill-opacity="0.8"/>
<path d="M91.8024 114.106C131.53 137.067 74.1414 205.951 60.9008 165.769C21.167 205.951 -0.905019 119.846 29.9992 114.106C7.92401 68.1835 56.4833 28.0003 60.9008 62.4432C122.701 33.7407 100.628 102.625 91.8024 114.106Z" fill="#B4B4B4" fill-opacity="0.8"/>
<path d="M115.186 92.6061C154.914 115.567 97.5252 184.451 84.2846 144.269C44.5508 184.451 22.4788 98.3465 53.383 92.6061C31.3078 46.6835 79.8671 6.50029 84.2846 40.9432C146.085 12.2407 124.012 81.1247 115.186 92.6061Z" fill="#B4B4B4" fill-opacity="0.8"/>
<path d="M79.8698 92.6061C119.597 115.567 62.2087 184.451 48.9682 144.269C9.23431 184.451 -12.8376 98.3465 18.0666 92.6061C-4.00861 46.6835 44.5507 6.50029 48.9682 40.9432C110.768 12.2407 88.6958 81.1247 79.8698 92.6061Z" fill="#B4B4B4" fill-opacity="0.8"/>
<path d="M360.45 172.346L356.387 176.054L351.309 174.2L350.293 365.167L355.372 380L354.356 367.022L360.45 365.167L364.513 359.605L373.654 367.022L366.545 357.751L364.513 344.773L365.302 349.812L371.623 350.335L368.576 348.481L365.529 346.627L363.497 339.211L360.45 240.946L382.796 222.405L380.764 218.697L361.466 229.822L360.45 224.259V172.346Z" fill="#878787"/>
<path d="M351.309 174.2H346.23L342.167 166.784V196.449L337.089 194.595L322.869 176.054L321.853 177.908L330.995 190.886L326.932 187.178L308.649 168.638L306.618 170.492L341.152 211.281L337.089 341.065L335.057 346.627L329.979 350.335H332.01H337.089L340.136 357.751L341.152 361.459V372.584L343.183 365.167H350.293L351.309 174.2Z" fill="#878787"/>
<path d="M375.685 209.427C366.544 216.843 379.749 239.092 382.795 226.114C391.937 239.092 397.016 211.281 389.905 209.427C394.984 194.595 383.811 181.616 382.795 192.741C368.576 183.47 373.654 205.719 375.685 209.427Z" fill="#919191"/>
<path d="M372.336 202.483C363.196 209.899 376.4 232.148 379.446 219.17C388.589 232.148 393.667 204.337 386.556 202.483C391.636 187.651 380.463 174.672 379.446 185.797C365.227 176.526 370.306 198.775 372.336 202.483Z" fill="#919191"/>
<path d="M378.431 202.483C369.29 209.899 382.494 232.148 385.541 219.17C394.683 232.148 399.761 204.337 392.651 202.483C397.73 187.651 386.557 174.672 385.541 185.797C371.321 176.526 376.4 198.775 378.431 202.483Z" fill="#919191"/>
<path d="M297.174 169.11C288.033 176.526 301.237 198.775 304.284 185.797C313.426 198.775 318.504 170.964 311.394 169.11C316.473 154.278 305.3 141.299 304.284 152.424C290.064 143.153 295.143 165.402 297.174 169.11Z" fill="#919191"/>
<path d="M333.779 126.498C311.267 150.363 343.787 221.961 351.29 180.196C373.806 221.961 386.313 132.465 368.801 126.498C381.31 78.7666 353.793 37.0005 351.29 72.8002C316.27 42.967 328.777 114.564 333.779 126.498Z" fill="#919191"/>
<path d="M320.528 104.151C298.016 128.016 330.536 199.614 338.039 157.849C360.555 199.614 373.062 110.118 355.55 104.151C368.059 56.4195 340.542 14.6534 338.039 50.453C303.019 20.6199 315.526 92.2175 320.528 104.151Z" fill="#919191"/>
<path d="M340.541 104.151C318.028 128.016 350.548 199.614 358.051 157.849C380.567 199.614 393.075 110.118 375.562 104.151C388.072 56.4195 360.555 14.6534 358.051 50.453C323.031 20.6199 335.539 92.2175 340.541 104.151Z" fill="#919191"/>
<path d="M490.735 153.346L497.905 157.054L506.867 155.2L508.66 346.167L499.697 361L501.49 348.022L490.735 346.167L483.566 340.605L467.434 348.022L479.981 338.751L483.566 325.773L482.174 330.812L471.019 331.335L476.396 329.481L481.773 327.627L485.358 320.211L490.735 221.946L451.302 203.405L454.887 199.697L488.943 210.822L490.735 205.259V153.346Z" fill="#878787"/>
<path d="M506.867 155.2H515.829L522.999 147.784V177.449L531.961 175.595L557.055 157.054L558.848 158.908L542.716 171.886L549.886 168.178L582.149 149.638L585.734 151.492L524.791 192.281L531.961 322.065L535.546 327.627L544.508 331.335H540.923H531.961L526.584 338.751L524.791 342.459V353.584L521.207 346.167H508.66L506.867 155.2Z" fill="#878787"/>
<path d="M463.85 190.427C479.981 197.843 456.679 220.092 451.303 207.114C435.17 220.092 426.208 192.281 438.756 190.427C429.793 175.595 449.509 162.616 451.303 173.741C476.396 164.47 467.434 186.719 463.85 190.427Z" fill="#B4B4B4"/>
<path d="M469.759 183.483C485.89 190.899 462.588 213.148 457.212 200.17C441.079 213.148 432.117 185.337 444.665 183.483C435.702 168.651 455.419 155.672 457.212 166.797C482.305 157.526 473.343 179.775 469.759 183.483Z" fill="#B4B4B4"/>
<path d="M459.005 183.483C475.135 190.899 451.834 213.148 446.458 200.17C430.325 213.148 421.363 185.337 433.911 183.483C424.948 168.651 444.664 155.672 446.458 166.797C471.551 157.526 462.588 179.775 459.005 183.483Z" fill="#B4B4B4"/>
<path d="M602.399 150.11C618.53 157.526 595.228 179.775 589.852 166.797C573.719 179.775 564.757 151.964 577.305 150.11C568.342 135.278 588.059 122.299 589.852 133.424C614.945 124.153 605.983 146.402 602.399 150.11Z" fill="#B4B4B4"/>
<path d="M537.802 107.498C577.53 131.363 520.141 202.961 506.901 161.196C467.167 202.961 445.095 113.465 475.999 107.498C453.924 59.7666 502.483 18.0005 506.901 53.8002C568.701 23.967 546.628 95.5646 537.802 107.498Z" fill="#B4B4B4"/>
<path d="M561.186 85.1512C600.914 109.016 543.525 180.614 530.285 138.849C490.551 180.614 468.479 91.1177 499.383 85.1512C477.308 37.4195 525.867 -4.34663 530.285 31.453C592.085 1.61992 570.012 73.2175 561.186 85.1512Z" fill="#B4B4B4"/>
<path d="M525.87 85.1512C565.597 109.016 508.209 180.614 494.968 138.849C455.234 180.614 433.162 91.1177 464.067 85.1512C441.991 37.4195 490.551 -4.34663 494.968 31.453C556.768 1.61992 534.696 73.2175 525.87 85.1512Z" fill="#B4B4B4"/>
<path d="M523.5 345H512V261L520 334.5L523.5 261L530.5 334.5L534.5 261L540 345H523.5Z" fill="#B1B1B1"/>
<path d="M449.5 340H438V256L446 329.5L449.5 256L456.5 329.5L460.5 256L466 340H449.5Z" fill="#B1B1B1"/>
<path d="M603.5 344H592V260L600 333.5L603.5 260L610.5 333.5L614.5 260L620 344H603.5Z" fill="#B1B1B1"/>
<path d="M337.5 343H326V259L334 332.5L337.5 259L344.5 332.5L348.5 259L354 343H337.5Z" fill="#B1B1B1"/>
<path d="M495.5 345H484V261L492 334.5L495.5 261L502.5 334.5L506.5 261L512 345H495.5Z" fill="#B1B1B1"/>
<path d="M421.5 340H410V256L418 329.5L421.5 256L428.5 329.5L432.5 256L438 340H421.5Z" fill="#B1B1B1"/>
<path d="M575.5 344H564V260L572 333.5L575.5 260L582.5 333.5L586.5 260L592 344H575.5Z" fill="#B1B1B1"/>
<path d="M309.5 343H298V259L306 332.5L309.5 259L316.5 332.5L320.5 259L326 343H309.5Z" fill="#B1B1B1"/>
<path d="M467.5 345H456V261L464 334.5L467.5 261L474.5 334.5L478.5 261L484 345H467.5Z" fill="#B1B1B1"/>
<path d="M393.5 340H382V256L390 329.5L393.5 256L400.5 329.5L404.5 256L410 340H393.5Z" fill="#B1B1B1"/>
<path d="M547.5 344H536V260L544 333.5L547.5 260L554.5 333.5L558.5 260L564 344H547.5Z" fill="#B1B1B1"/>
<path d="M281.5 343H270V259L278 332.5L281.5 259L288.5 332.5L292.5 259L298 343H281.5Z" fill="#B1B1B1"/>
<path d="M439.5 345H428V261L436 334.5L439.5 261L446.5 334.5L450.5 261L456 345H439.5Z" fill="#B1B1B1"/>
<path d="M365.5 340H354V256L362 329.5L365.5 256L372.5 329.5L376.5 256L382 340H365.5Z" fill="#B1B1B1"/>
<path d="M519.5 344H508V260L516 333.5L519.5 260L526.5 333.5L530.5 260L536 344H519.5Z" fill="#B1B1B1"/>
<path d="M253.5 343H242V259L250 332.5L253.5 259L260.5 332.5L264.5 259L270 343H253.5Z" fill="#B1B1B1"/>
<path d="M421.5 355H410V271L418 344.5L421.5 271L428.5 344.5L432.5 271L438 355H421.5Z" fill="#B1B1B1"/>
<path d="M347.5 350H336V266L344 339.5L347.5 266L354.5 339.5L358.5 266L364 350H347.5Z" fill="#B1B1B1"/>
<path d="M501.5 354H490V270L498 343.5L501.5 270L508.5 343.5L512.5 270L518 354H501.5Z" fill="#B1B1B1"/>
<path d="M235.5 353H224V269L232 342.5L235.5 269L242.5 342.5L246.5 269L252 353H235.5Z" fill="#B1B1B1"/>
<path d="M453.5 345H442V261L450 334.5L453.5 261L460.5 334.5L464.5 261L470 345H453.5Z" fill="#B1B1B1"/>
<path d="M379.5 340H368V256L376 329.5L379.5 256L386.5 329.5L390.5 256L396 340H379.5Z" fill="#B1B1B1"/>
<path d="M533.5 344H522V260L530 333.5L533.5 260L540.5 333.5L544.5 260L550 344H533.5Z" fill="#B1B1B1"/>
<path d="M267.5 343H256V259L264 332.5L267.5 259L274.5 332.5L278.5 259L284 343H267.5Z" fill="#B1B1B1"/>
<path d="M473.5 345H462V261L470 334.5L473.5 261L480.5 334.5L484.5 261L490 345H473.5Z" fill="#B1B1B1"/>
<path d="M399.5 340H388V256L396 329.5L399.5 256L406.5 329.5L410.5 256L416 340H399.5Z" fill="#B1B1B1"/>
<path d="M553.5 344H542V260L550 333.5L553.5 260L560.5 333.5L564.5 260L570 344H553.5Z" fill="#B1B1B1"/>
<path d="M287.5 343H276V259L284 332.5L287.5 259L294.5 332.5L298.5 259L304 343H287.5Z" fill="#B1B1B1"/>
<path d="M463.5 356H452V272L460 345.5L463.5 272L470.5 345.5L474.5 272L480 356H463.5Z" fill="#B1B1B1"/>
<path d="M389.5 351H378V267L386 340.5L389.5 267L396.5 340.5L400.5 267L406 351H389.5Z" fill="#B1B1B1"/>
<path d="M543.5 355H532V271L540 344.5L543.5 271L550.5 344.5L554.5 271L560 355H543.5Z" fill="#B1B1B1"/>
<path d="M277.5 354H266V270L274 343.5L277.5 270L284.5 343.5L288.5 270L294 354H277.5Z" fill="#B1B1B1"/>
<path d="M495.5 345H484V261L492 334.5L495.5 261L502.5 334.5L506.5 261L512 345H495.5Z" fill="#B1B1B1"/>
<path d="M421.5 340H410V256L418 329.5L421.5 256L428.5 329.5L432.5 256L438 340H421.5Z" fill="#B1B1B1"/>
<path d="M575.5 344H564V260L572 333.5L575.5 260L582.5 333.5L586.5 260L592 344H575.5Z" fill="#B1B1B1"/>
<path d="M309.5 343H298V259L306 332.5L309.5 259L316.5 332.5L320.5 259L326 343H309.5Z" fill="#B1B1B1"/>
<path d="M501.5 356H490V272L498 345.5L501.5 272L508.5 345.5L512.5 272L518 356H501.5Z" fill="#B1B1B1"/>
<path d="M427.5 351H416V267L424 340.5L427.5 267L434.5 340.5L438.5 267L444 351H427.5Z" fill="#B1B1B1"/>
<path d="M581.5 355H570V271L578 344.5L581.5 271L588.5 344.5L592.5 271L598 355H581.5Z" fill="#B1B1B1"/>
<path d="M315.5 354H304V270L312 343.5L315.5 270L322.5 343.5L326.5 270L332 354H315.5Z" fill="#B1B1B1"/>
<path d="M283.5 352.88H272V275.6L280 343.22L283.5 275.6L290.5 343.22L294.5 275.6L300 352.88H283.5Z" fill="#939393"/>
<path d="M209.5 348.28H198V271L206 338.62L209.5 271L216.5 338.62L220.5 271L226 348.28H209.5Z" fill="#939393"/>
<path d="M363.5 351.96H352V274.68L360 342.3L363.5 274.68L370.5 342.3L374.5 274.68L380 351.96H363.5Z" fill="#939393"/>
<path d="M97.5 351.04H86V273.76L94 341.38L97.5 273.76L104.5 341.38L108.5 273.76L114 351.04H97.5Z" fill="#939393"/>
<path d="M255.5 352.88H244V275.6L252 343.22L255.5 275.6L262.5 343.22L266.5 275.6L272 352.88H255.5Z" fill="#939393"/>
<path d="M181.5 348.28H170V271L178 338.62L181.5 271L188.5 338.62L192.5 271L198 348.28H181.5Z" fill="#939393"/>
<path d="M335.5 351.96H324V274.68L332 342.3L335.5 274.68L342.5 342.3L346.5 274.68L352 351.96H335.5Z" fill="#939393"/>
<path d="M69.5 351.04H58V273.76L66 341.38L69.5 273.76L76.5 341.38L80.5 273.76L86 351.04H69.5Z" fill="#939393"/>
<path d="M227.5 352.88H216V275.6L224 343.22L227.5 275.6L234.5 343.22L238.5 275.6L244 352.88H227.5Z" fill="#939393"/>
<path d="M153.5 348.28H142V271L150 338.62L153.5 271L160.5 338.62L164.5 271L170 348.28H153.5Z" fill="#939393"/>
<path d="M307.5 351.96H296V274.68L304 342.3L307.5 274.68L314.5 342.3L318.5 274.68L324 351.96H307.5Z" fill="#939393"/>
<path d="M41.5 351.04H30V273.76L38 341.38L41.5 273.76L48.5 341.38L52.5 273.76L58 351.04H41.5Z" fill="#939393"/>
<path d="M199.5 352.88H188V275.6L196 343.22L199.5 275.6L206.5 343.22L210.5 275.6L216 352.88H199.5Z" fill="#939393"/>
<path d="M125.5 348.28H114V271L122 338.62L125.5 271L132.5 338.62L136.5 271L142 348.28H125.5Z" fill="#939393"/>
<path d="M279.5 351.96H268V274.68L276 342.3L279.5 274.68L286.5 342.3L290.5 274.68L296 351.96H279.5Z" fill="#939393"/>
<path d="M13.5 351.04H2V273.76L10 341.38L13.5 273.76L20.5 341.38L24.5 273.76L30 351.04H13.5Z" fill="#939393"/>
<path d="M181.5 362.08H170V284.8L178 352.42L181.5 284.8L188.5 352.42L192.5 284.8L198 362.08H181.5Z" fill="#939393"/>
<path d="M107.5 357.48H96V280.2L104 347.82L107.5 280.2L114.5 347.82L118.5 280.2L124 357.48H107.5Z" fill="#939393"/>
<path d="M261.5 361.16H250V283.88L258 351.5L261.5 283.88L268.5 351.5L272.5 283.88L278 361.16H261.5Z" fill="#939393"/>
<path d="M-4.5 360.24H-16V282.96L-8 350.58L-4.5 282.96L2.5 350.58L6.5 282.96L12 360.24H-4.5Z" fill="#939393"/>
<path d="M213.5 352.88H202V275.6L210 343.22L213.5 275.6L220.5 343.22L224.5 275.6L230 352.88H213.5Z" fill="#939393"/>
<path d="M139.5 348.28H128V271L136 338.62L139.5 271L146.5 338.62L150.5 271L156 348.28H139.5Z" fill="#939393"/>
<path d="M293.5 351.96H282V274.68L290 342.3L293.5 274.68L300.5 342.3L304.5 274.68L310 351.96H293.5Z" fill="#939393"/>
<path d="M27.5 351.04H16V273.76L24 341.38L27.5 273.76L34.5 341.38L38.5 273.76L44 351.04H27.5Z" fill="#939393"/>
<path d="M233.5 352.88H222V275.6L230 343.22L233.5 275.6L240.5 343.22L244.5 275.6L250 352.88H233.5Z" fill="#939393"/>
<path d="M159.5 348.28H148V271L156 338.62L159.5 271L166.5 338.62L170.5 271L176 348.28H159.5Z" fill="#939393"/>
<path d="M313.5 351.96H302V274.68L310 342.3L313.5 274.68L320.5 342.3L324.5 274.68L330 351.96H313.5Z" fill="#939393"/>
<path d="M47.5 351.04H36V273.76L44 341.38L47.5 273.76L54.5 341.38L58.5 273.76L64 351.04H47.5Z" fill="#939393"/>
<path d="M223.5 363H212V285.72L220 353.34L223.5 285.72L230.5 353.34L234.5 285.72L240 363H223.5Z" fill="#939393"/>
<path d="M149.5 358.4H138V281.12L146 348.74L149.5 281.12L156.5 348.74L160.5 281.12L166 358.4H149.5Z" fill="#939393"/>
<path d="M303.5 362.08H292V284.8L300 352.42L303.5 284.8L310.5 352.42L314.5 284.8L320 362.08H303.5Z" fill="#939393"/>
<path d="M255.5 352.88H244V275.6L252 343.22L255.5 275.6L262.5 343.22L266.5 275.6L272 352.88H255.5Z" fill="#939393"/>
<path d="M181.5 348.28H170V271L178 338.62L181.5 271L188.5 338.62L192.5 271L198 348.28H181.5Z" fill="#939393"/>
<path d="M335.5 351.96H324V274.68L332 342.3L335.5 274.68L342.5 342.3L346.5 274.68L352 351.96H335.5Z" fill="#939393"/>
<path d="M69.5 351.04H58V273.76L66 341.38L69.5 273.76L76.5 341.38L80.5 273.76L86 351.04H69.5Z" fill="#939393"/>
<path d="M261.5 363H250V285.72L258 353.34L261.5 285.72L268.5 353.34L272.5 285.72L278 363H261.5Z" fill="#939393"/>
<path d="M187.5 358.4H176V281.12L184 348.74L187.5 281.12L194.5 348.74L198.5 281.12L204 358.4H187.5Z" fill="#939393"/>
<path d="M341.5 362.08H330V284.8L338 352.42L341.5 284.8L348.5 352.42L352.5 284.8L358 362.08H341.5Z" fill="#939393"/>
<path d="M75.5 361.16H64V283.88L72 351.5L75.5 283.88L82.5 351.5L86.5 283.88L92 361.16H75.5Z" fill="#939393"/>
<path d="M482.735 159.216L489.905 162.784L498.867 161L500.66 344.73L491.697 359L493.49 346.513L482.735 344.73L475.566 339.378L459.434 346.513L471.981 337.594L475.566 325.108L474.174 329.956L463.019 330.459L468.396 328.676L473.773 326.892L477.358 319.757L482.735 225.216L443.302 207.378L446.887 203.811L480.943 214.513L482.735 209.162V159.216Z" fill="#7A7A7A"/>
<path d="M498.867 161H507.829L514.999 153.865V182.405L523.961 180.622L549.055 162.784L550.848 164.567L534.716 177.054L541.886 173.486L574.149 155.649L577.734 157.432L516.791 196.676L523.961 321.54L527.546 326.892L536.508 330.459H532.923H523.961L518.584 337.594L516.791 341.162V351.865L513.207 344.73H500.66L498.867 161Z" fill="#7A7A7A"/>
<path d="M455.85 194.892C471.981 202.027 448.679 223.432 443.303 210.946C427.17 223.432 418.208 196.676 430.756 194.892C421.793 180.622 441.509 168.135 443.303 178.838C468.396 169.919 459.434 191.324 455.85 194.892Z" fill="#BFBFBF"/>
<path d="M461.759 188.211C477.89 195.346 454.588 216.752 449.212 204.265C433.079 216.752 424.117 189.995 436.665 188.211C427.702 173.941 447.419 161.454 449.212 172.157C474.305 163.238 465.343 184.644 461.759 188.211Z" fill="#BFBFBF"/>
<path d="M451.005 188.211C467.135 195.346 443.834 216.752 438.458 204.265C422.325 216.752 413.363 189.995 425.911 188.211C416.948 173.941 436.664 161.454 438.458 172.157C463.551 163.238 454.588 184.644 451.005 188.211Z" fill="#BFBFBF"/>
<path d="M594.399 156.103C610.53 163.238 587.228 184.643 581.852 172.157C565.719 184.643 556.757 157.887 569.305 156.103C560.342 141.833 580.059 129.346 581.852 140.049C606.945 131.13 597.983 152.535 594.399 156.103Z" fill="#BFBFBF"/>
<path d="M529.802 115.106C569.53 138.067 512.141 206.951 498.901 166.769C459.167 206.951 437.095 120.846 467.999 115.106C445.924 69.1835 494.483 29.0003 498.901 63.4432C560.701 34.7407 538.628 103.625 529.802 115.106Z" fill="#BFBFBF"/>
<path d="M553.186 93.6061C592.914 116.567 535.525 185.451 522.285 145.269C482.551 185.451 460.479 99.3465 491.383 93.6061C469.308 47.6835 517.867 7.50029 522.285 41.9432C584.085 13.2407 562.012 82.1247 553.186 93.6061Z" fill="#BFBFBF"/>
<path d="M517.87 93.6061C557.597 116.567 500.209 185.451 486.968 145.269C447.234 185.451 425.162 99.3465 456.067 93.6061C433.991 47.6835 482.551 7.50029 486.968 41.9432C548.768 13.2407 526.696 82.1247 517.87 93.6061Z" fill="#BFBFBF"/>
<path d="M138.735 159.216L145.905 162.784L154.867 161L156.66 344.73L147.697 359L149.49 346.513L138.735 344.73L131.566 339.378L115.434 346.513L127.981 337.594L131.566 325.108L130.174 329.956L119.019 330.459L124.396 328.676L129.773 326.892L133.358 319.757L138.735 225.216L99.3018 207.378L102.887 203.811L136.943 214.513L138.735 209.162V159.216Z" fill="#7A7A7A"/>
<path d="M154.867 161H163.829L170.999 153.865V182.405L179.961 180.622L205.055 162.784L206.848 164.567L190.716 177.054L197.886 173.486L230.149 155.649L233.734 157.432L172.791 196.676L179.961 321.54L183.546 326.892L192.508 330.459H188.923H179.961L174.584 337.594L172.791 341.162V351.865L169.207 344.73H156.66L154.867 161Z" fill="#7A7A7A"/>
<path d="M111.85 194.892C127.981 202.027 104.679 223.432 99.3031 210.946C83.1699 223.432 74.208 196.676 86.7561 194.892C77.7928 180.622 97.5094 168.135 99.3031 178.838C124.396 169.919 115.434 191.324 111.85 194.892Z" fill="#979797"/>
<path d="M117.759 188.211C133.89 195.346 110.588 216.752 105.212 204.265C89.0792 216.752 80.1172 189.995 92.6653 188.211C83.7021 173.941 103.419 161.454 105.212 172.157C130.305 163.238 121.343 184.644 117.759 188.211Z" fill="#979797"/>
<path d="M107.005 188.211C123.135 195.346 99.834 216.752 94.458 204.265C78.3248 216.752 69.3629 189.995 81.9109 188.211C72.9477 173.941 92.6643 161.454 94.458 172.157C119.551 163.238 110.588 184.644 107.005 188.211Z" fill="#979797"/>
<path d="M250.399 156.103C266.53 163.238 243.228 184.643 237.852 172.157C221.719 184.643 212.757 157.887 225.305 156.103C216.342 141.833 236.059 129.346 237.852 140.049C262.945 131.13 253.983 152.535 250.399 156.103Z" fill="#979797"/>
<path d="M185.802 115.106C225.53 138.067 168.141 206.951 154.901 166.769C115.167 206.951 93.095 120.846 123.999 115.106C101.924 69.1835 150.483 29.0003 154.901 63.4432C216.701 34.7407 194.628 103.625 185.802 115.106Z" fill="#979797"/>
<path d="M209.186 93.6061C248.914 116.567 191.525 185.451 178.285 145.269C138.551 185.451 116.479 99.3465 147.383 93.6061C125.308 47.6835 173.867 7.50029 178.285 41.9432C240.085 13.2407 218.012 82.1247 209.186 93.6061Z" fill="#979797"/>
<path d="M173.87 93.6061C213.597 116.567 156.209 185.451 142.968 145.269C103.234 185.451 81.1623 99.3465 112.067 93.6061C89.9913 47.6835 138.551 7.50029 142.968 41.9432C204.768 13.2407 182.696 82.1247 173.87 93.6061Z" fill="#979797"/>
<path d="M560.32 62.4259C587.558 78.436 621.276 71.6174 635.63 47.1961C649.984 22.7749 639.539 -10.0011 612.301 -26.0112C585.062 -42.0213 551.345 -35.2027 536.99 -10.7814C522.636 13.6398 533.081 46.4158 560.32 62.4259Z" fill="#E2E2E2"/>
<path d="M219.735 149.216L226.905 152.784L235.867 151L237.66 334.73L228.697 349L230.49 336.513L219.735 334.73L212.566 329.378L196.434 336.513L208.981 327.594L212.566 315.108L211.174 319.956L200.019 320.459L205.396 318.676L210.773 316.892L214.358 309.757L219.735 215.216L180.302 197.378L183.887 193.811L217.943 204.513L219.735 199.162V149.216Z" fill="#696969"/>
<path d="M235.867 151H244.829L251.999 143.865V172.405L260.961 170.622L286.055 152.784L287.848 154.567L271.716 167.054L278.886 163.486L311.149 145.649L314.734 147.432L253.791 186.676L260.961 311.54L264.546 316.892L273.508 320.459H269.923H260.961L255.584 327.594L253.791 331.162V341.865L250.207 334.73H237.66L235.867 151Z" fill="#696969"/>
<path d="M192.85 184.892C208.981 192.027 185.679 213.432 180.303 200.946C164.17 213.432 155.208 186.676 167.756 184.892C158.793 170.622 178.509 158.135 180.303 168.838C205.396 159.919 196.434 181.324 192.85 184.892Z" fill="#BFBFBF"/>
<path d="M198.759 178.211C214.89 185.346 191.588 206.752 186.212 194.265C170.079 206.752 161.117 179.995 173.665 178.211C164.702 163.941 184.419 151.454 186.212 162.157C211.305 153.238 202.343 174.644 198.759 178.211Z" fill="#BFBFBF"/>
<path d="M188.005 178.211C204.135 185.346 180.834 206.752 175.458 194.265C159.325 206.752 150.363 179.995 162.911 178.211C153.948 163.941 173.664 151.454 175.458 162.157C200.551 153.238 191.588 174.644 188.005 178.211Z" fill="#BFBFBF"/>
<path d="M331.399 146.103C347.53 153.238 324.228 174.643 318.852 162.157C302.719 174.643 293.757 147.887 306.305 146.103C297.342 131.833 317.059 119.346 318.852 130.049C343.945 121.13 334.983 142.535 331.399 146.103Z" fill="#BFBFBF"/>
<path d="M266.802 105.106C306.53 128.067 249.141 196.951 235.901 156.769C196.167 196.951 174.095 110.846 204.999 105.106C182.924 59.1835 231.483 19.0003 235.901 53.4432C297.701 24.7407 275.628 93.6247 266.802 105.106Z" fill="#BFBFBF"/>
<path d="M290.186 83.6061C329.914 106.567 272.525 175.451 259.285 135.269C219.551 175.451 197.479 89.3465 228.383 83.6061C206.308 37.6835 254.867 -2.49971 259.285 31.9432C321.085 3.2407 299.012 72.1247 290.186 83.6061Z" fill="#BFBFBF"/>
<path d="M254.87 83.6061C294.597 106.567 237.209 175.451 223.968 135.269C184.234 175.451 162.162 89.3465 193.067 83.6061C170.991 37.6835 219.551 -2.49971 223.968 31.9432C285.768 3.2407 263.696 72.1247 254.87 83.6061Z" fill="#BFBFBF"/>
<path d="M533.735 212.216L540.905 215.784L549.867 214L551.66 397.73L542.697 412L544.49 399.513L533.735 397.73L526.566 392.378L510.434 399.513L522.981 390.594L526.566 378.108L525.174 382.956L514.019 383.459L519.396 381.676L524.773 379.892L528.358 372.757L533.735 278.216L494.302 260.378L497.887 256.811L531.943 267.513L533.735 262.162V212.216Z" fill="#7A7A7A"/>
<path d="M549.867 214H558.829L565.999 206.865V235.405L574.961 233.622L600.055 215.784L601.848 217.567L585.716 230.054L592.886 226.486L625.149 208.649L628.734 210.432L567.791 249.676L574.961 374.54L578.546 379.892L587.508 383.459H583.923H574.961L569.584 390.594L567.791 394.162V404.865L564.207 397.73H551.66L549.867 214Z" fill="#7A7A7A"/>
<path d="M506.85 247.892C522.981 255.027 499.679 276.432 494.303 263.946C478.17 276.432 469.208 249.676 481.756 247.892C472.793 233.622 492.509 221.135 494.303 231.838C519.396 222.919 510.434 244.324 506.85 247.892Z" fill="#BFBFBF"/>
<path d="M512.759 241.211C528.89 248.346 505.588 269.752 500.212 257.265C484.079 269.752 475.117 242.995 487.665 241.211C478.702 226.941 498.419 214.454 500.212 225.157C525.305 216.238 516.343 237.644 512.759 241.211Z" fill="#BFBFBF"/>
<path d="M502.005 241.211C518.135 248.346 494.834 269.752 489.458 257.265C473.325 269.752 464.363 242.995 476.911 241.211C467.948 226.941 487.664 214.454 489.458 225.157C514.551 216.238 505.588 237.644 502.005 241.211Z" fill="#BFBFBF"/>
<path d="M645.399 209.103C661.53 216.238 638.228 237.643 632.852 225.157C616.719 237.643 607.757 210.887 620.305 209.103C611.342 194.833 631.059 182.346 632.852 193.049C657.945 184.13 648.983 205.535 645.399 209.103Z" fill="#BFBFBF"/>
<path d="M580.802 168.106C620.53 191.067 563.141 259.951 549.901 219.769C510.167 259.951 488.095 173.846 518.999 168.106C496.924 122.183 545.483 82.0004 549.901 116.443C611.701 87.7408 589.628 156.625 580.802 168.106Z" fill="#BFBFBF"/>
<path d="M604.186 146.606C643.914 169.567 586.525 238.451 573.285 198.269C533.551 238.451 511.479 152.346 542.383 146.606C520.308 100.683 568.867 60.5004 573.285 94.9433C635.085 66.2408 613.012 135.125 604.186 146.606Z" fill="#BFBFBF"/>
<path d="M568.87 146.606C608.597 169.567 551.209 238.451 537.968 198.269C498.234 238.451 476.162 152.346 507.067 146.606C484.991 100.683 533.551 60.5004 537.968 94.9433C599.768 66.2408 577.696 135.125 568.87 146.606Z" fill="#BFBFBF"/>
<path d="M45.7353 215.216L52.905 218.784L61.8671 217L63.6596 400.73L54.6974 415L56.4898 402.513L45.7353 400.73L38.5655 395.378L22.4336 402.513L34.9807 393.594L38.5655 381.108L37.1735 385.956L26.0185 386.459L31.3958 384.676L36.7731 382.892L40.358 375.757L45.7353 281.216L6.30176 263.378L9.88662 259.811L43.9428 270.513L45.7353 265.162V215.216Z" fill="#7A7A7A"/>
<path d="M61.8672 217H70.8294L77.9991 209.865V238.405L86.9613 236.622L112.055 218.784L113.848 220.567L97.7159 233.054L104.886 229.486L137.149 211.649L140.734 213.432L79.7916 252.676L86.9613 377.54L90.5462 382.892L99.5083 386.459H95.9234H86.9613L81.584 393.594L79.7916 397.162V407.865L76.2067 400.73H63.6597L61.8672 217Z" fill="#7A7A7A"/>
<path d="M18.8502 250.892C34.9809 258.027 11.6793 279.432 6.30315 266.946C-9.83006 279.432 -18.7919 252.676 -6.24388 250.892C-15.2071 236.622 4.5095 224.135 6.30315 234.838C31.396 225.919 22.4338 247.324 18.8502 250.892Z" fill="#BFBFBF"/>
<path d="M24.7594 244.211C40.89 251.346 17.5884 272.752 12.2124 260.265C-3.92085 272.752 -12.8828 245.995 -0.334663 244.211C-9.29789 229.941 10.4187 217.454 12.2124 228.157C37.3052 219.238 28.343 240.644 24.7594 244.211Z" fill="#BFBFBF"/>
<path d="M14.005 244.211C30.1357 251.346 6.83401 272.752 1.45794 260.265C-14.6752 272.752 -23.6371 245.995 -11.0891 244.211C-20.0523 229.941 -0.335717 217.454 1.45794 228.157C26.5508 219.238 17.5886 240.644 14.005 244.211Z" fill="#BFBFBF"/>
<path d="M157.399 212.103C173.53 219.238 150.228 240.643 144.852 228.157C128.719 240.643 119.757 213.887 132.305 212.103C123.342 197.833 143.059 185.346 144.852 196.049C169.945 187.13 160.983 208.535 157.399 212.103Z" fill="#BFBFBF"/>
<path d="M92.8024 171.106C132.53 194.067 75.1414 262.951 61.9008 222.769C22.167 262.951 0.0949802 176.846 30.9992 171.106C8.92401 125.183 57.4833 85.0004 61.9008 119.443C123.701 90.7408 101.628 159.625 92.8024 171.106Z" fill="#BFBFBF"/>
<path d="M116.186 149.606C155.914 172.567 98.5252 241.451 85.2846 201.269C45.5508 241.451 23.4788 155.346 54.383 149.606C32.3078 103.683 80.8671 63.5004 85.2846 97.9433C147.085 69.2408 125.012 138.125 116.186 149.606Z" fill="#BFBFBF"/>
<path d="M80.8698 149.606C120.597 172.567 63.2087 241.451 49.9682 201.269C10.2343 241.451 -11.8376 155.346 19.0666 149.606C-3.0086 103.683 45.5507 63.5004 49.9682 97.9433C111.768 69.2408 89.6958 138.125 80.8698 149.606Z" fill="#BFBFBF"/>
<path d="M587.735 186.216L594.905 189.784L603.867 188L605.66 371.73L596.697 386L598.49 373.513L587.735 371.73L580.566 366.378L564.434 373.513L576.981 364.594L580.566 352.108L579.174 356.956L568.019 357.459L573.396 355.676L578.773 353.892L582.358 346.757L587.735 252.216L548.302 234.378L551.887 230.811L585.943 241.513L587.735 236.162V186.216Z" fill="#858585"/>
<path d="M603.867 188H612.829L619.999 180.865V209.405L628.961 207.622L654.055 189.784L655.848 191.567L639.716 204.054L646.886 200.486L679.149 182.649L682.734 184.432L621.791 223.676L628.961 348.54L632.546 353.892L641.508 357.459H637.923H628.961L623.584 364.594L621.791 368.162V378.865L618.207 371.73H605.66L603.867 188Z" fill="#858585"/>
<path d="M560.85 221.892C576.981 229.027 553.679 250.432 548.303 237.946C532.17 250.432 523.208 223.676 535.756 221.892C526.793 207.622 546.509 195.135 548.303 205.838C573.396 196.919 564.434 218.324 560.85 221.892Z" fill="#4B4B4B"/>
<path d="M566.759 215.211C582.89 222.346 559.588 243.752 554.212 231.265C538.079 243.752 529.117 216.995 541.665 215.211C532.702 200.941 552.419 188.454 554.212 199.157C579.305 190.238 570.343 211.644 566.759 215.211Z" fill="#4B4B4B"/>
<path d="M556.005 215.211C572.135 222.346 548.834 243.752 543.458 231.265C527.325 243.752 518.363 216.995 530.911 215.211C521.948 200.941 541.664 188.454 543.458 199.157C568.551 190.238 559.588 211.644 556.005 215.211Z" fill="#4B4B4B"/>
<path d="M634.802 142.106C674.53 165.067 617.141 233.951 603.901 193.769C564.167 233.951 542.095 147.846 572.999 142.106C550.924 96.1835 599.483 56.0003 603.901 90.4432C665.701 61.7407 643.628 130.625 634.802 142.106Z" fill="#4B4B4B"/>
<path d="M658.186 120.606C697.914 143.567 640.525 212.451 627.285 172.269C587.551 212.451 565.479 126.346 596.383 120.606C574.308 74.6835 622.867 34.5003 627.285 68.9432C689.085 40.2407 667.012 109.125 658.186 120.606Z" fill="#4B4B4B"/>
<path d="M622.87 120.606C662.597 143.567 605.209 212.451 591.968 172.269C552.234 212.451 530.162 126.346 561.067 120.606C538.991 74.6835 587.551 34.5003 591.968 68.9432C653.768 40.2407 631.696 109.125 622.87 120.606Z" fill="#4B4B4B"/>
<path d="M328.812 174.168L323.076 177.432L315.907 175.8L314.473 343.941L321.642 357L320.208 345.573L328.812 343.941L334.548 339.043L347.453 345.573L337.416 337.411L334.548 325.984L335.661 330.421L344.585 330.881L340.284 329.249L335.982 327.616L333.114 321.086L328.812 234.568L360.359 218.243L357.491 214.978L330.246 224.773L328.812 219.876V174.168Z" fill="#7C7C7C"/>
<path d="M315.907 175.8H308.737L303.001 169.27V195.389L295.831 193.757L275.756 177.432L274.322 179.065L287.228 190.492L281.492 187.227L255.681 170.903L252.813 172.535L301.567 208.449L295.831 322.719L292.963 327.616L285.794 330.881H288.662H295.831L300.133 337.411L301.567 340.676V350.47L304.435 343.941H314.473L315.907 175.8Z" fill="#7C7C7C"/>
<path d="M350.32 206.817C337.416 213.346 356.057 232.935 360.358 221.508C373.264 232.935 380.434 208.449 370.395 206.817C377.566 193.757 361.793 182.33 360.358 192.125C340.284 183.962 347.453 203.551 350.32 206.817Z" fill="#999999"/>
<path d="M345.593 200.702C332.688 207.232 351.329 226.821 355.63 215.394C368.537 226.821 375.706 202.335 365.668 200.702C372.838 187.643 357.065 176.216 355.63 186.011C335.556 177.848 342.726 197.437 345.593 200.702Z" fill="#999999"/>
<path d="M354.196 200.702C341.292 207.232 359.933 226.821 364.234 215.394C377.14 226.821 384.31 202.335 374.271 200.702C381.442 187.643 365.669 176.216 364.234 186.011C344.16 177.848 351.329 197.437 354.196 200.702Z" fill="#999999"/>
<path d="M239.48 171.319C226.576 177.848 245.217 197.437 249.518 186.011C262.425 197.437 269.594 172.951 259.556 171.319C266.726 158.259 250.953 146.832 249.518 156.627C229.444 148.464 236.613 168.054 239.48 171.319Z" fill="#999999"/>
<path d="M291.158 133.8C259.376 154.813 305.287 217.852 315.879 181.08C347.666 217.852 365.324 139.053 340.6 133.8C358.26 91.774 319.413 55.0003 315.879 86.5207C266.439 60.2536 284.097 123.293 291.158 133.8Z" fill="#999999"/>
<path d="M272.451 114.124C240.669 135.137 286.58 198.176 297.172 161.404C328.959 198.176 346.617 119.378 321.894 114.124C339.554 72.0982 300.706 35.3245 297.172 66.8449C247.732 40.5779 265.39 103.617 272.451 114.124Z" fill="#999999"/>
<path d="M300.704 114.124C268.922 135.137 314.833 198.176 325.425 161.404C357.212 198.176 374.87 119.378 350.147 114.124C367.807 72.0982 328.959 35.3245 325.425 66.8449C275.985 40.5779 293.643 103.617 300.704 114.124Z" fill="#999999"/>
<path d="M583.735 267.216L590.905 270.784L599.867 269L601.66 452.73L592.697 467L594.49 454.513L583.735 452.73L576.566 447.378L560.434 454.513L572.981 445.594L576.566 433.108L575.174 437.956L564.019 438.459L569.396 436.676L574.773 434.892L578.358 427.757L583.735 333.216L544.302 315.378L547.887 311.811L581.943 322.513L583.735 317.162V267.216Z" fill="#797979"/>
<path d="M599.867 269H608.829L615.999 261.865V290.405L624.961 288.622L650.055 270.784L651.848 272.567L635.716 285.054L642.886 281.486L675.149 263.649L678.734 265.432L617.791 304.676L624.961 429.54L628.546 434.892L637.508 438.459H633.923H624.961L619.584 445.594L617.791 449.162V459.865L614.207 452.73H601.66L599.867 269Z" fill="#797979"/>
<path d="M556.85 302.892C572.981 310.027 549.679 331.432 544.303 318.946C528.17 331.432 519.208 304.676 531.756 302.892C522.793 288.622 542.509 276.135 544.303 286.838C569.396 277.919 560.434 299.324 556.85 302.892Z" fill="#929292"/>
<path d="M562.759 296.211C578.89 303.346 555.588 324.752 550.212 312.265C534.079 324.752 525.117 297.995 537.665 296.211C528.702 281.941 548.419 269.454 550.212 280.157C575.305 271.238 566.343 292.644 562.759 296.211Z" fill="#929292"/>
<path d="M552.005 296.211C568.135 303.346 544.834 324.752 539.458 312.265C523.325 324.752 514.363 297.995 526.911 296.211C517.948 281.941 537.664 269.454 539.458 280.157C564.551 271.238 555.588 292.644 552.005 296.211Z" fill="#929292"/>
<g filter="url(#filter0_d_341_27941)">
<path d="M630.802 223.106C670.53 246.067 613.141 314.951 599.901 274.769C560.167 314.951 538.095 228.846 568.999 223.106C546.924 177.183 595.483 137 599.901 171.443C661.701 142.741 639.628 211.625 630.802 223.106Z" fill="#929292"/>
<path d="M654.186 201.606C693.914 224.567 636.525 293.451 623.285 253.269C583.551 293.451 561.479 207.346 592.383 201.606C570.308 155.683 618.867 115.5 623.285 149.943C685.085 121.241 663.012 190.125 654.186 201.606Z" fill="#929292"/>
<path d="M618.87 201.606C658.597 224.567 601.209 293.451 587.968 253.269C548.234 293.451 526.162 207.346 557.067 201.606C534.991 155.683 583.551 115.5 587.968 149.943C649.768 121.241 627.696 190.125 618.87 201.606Z" fill="#929292"/>
</g>
<path d="M1.73522 264.216L8.90494 267.784L17.8671 266L19.6596 449.73L10.6974 464L12.4898 451.513L1.73522 449.73L-5.43451 444.378L-21.5664 451.513L-9.01937 442.594L-5.43451 430.108L-6.8265 434.956L-17.9815 435.459L-12.6042 433.676L-7.22694 431.892L-3.64208 424.757L1.73522 330.216L-37.6982 312.378L-34.1134 308.811L-0.0572166 319.513L1.73522 314.162V264.216Z" fill="#797979"/>
<path d="M17.8672 266H26.8294L33.9991 258.865V287.405L42.9613 285.622L68.0553 267.784L69.8478 269.567L53.7159 282.054L60.8856 278.486L93.1494 260.649L96.7342 262.432L35.7916 301.676L42.9613 426.54L46.5462 431.892L55.5083 435.459H51.9234H42.9613L37.584 442.594L35.7916 446.162V456.865L32.2067 449.73H19.6597L17.8672 266Z" fill="#797979"/>
<path d="M113.399 261.103C129.53 268.238 106.228 289.643 100.852 277.157C84.7193 289.643 75.7574 262.887 88.3055 261.103C79.3422 246.833 99.0589 234.346 100.852 245.049C125.945 236.13 116.983 257.535 113.399 261.103Z" fill="#929292"/>
<g filter="url(#filter1_d_341_27941)">
<path d="M48.8024 220.106C88.53 243.067 31.1414 311.951 17.9008 271.769C-21.833 311.951 -43.905 225.846 -13.0008 220.106C-35.076 174.183 13.4833 134 17.9008 168.443C79.701 139.741 57.6284 208.625 48.8024 220.106Z" fill="#929292"/>
<path d="M72.1862 198.606C111.914 221.567 54.5252 290.451 41.2846 250.269C1.55072 290.451 -20.5212 204.346 10.383 198.606C-11.6922 152.683 36.8671 112.5 41.2846 146.943C103.085 118.241 81.0122 187.125 72.1862 198.606Z" fill="#929292"/>
<path d="M36.8698 198.606C76.5974 221.567 19.2087 290.451 5.96819 250.269C-33.7657 290.451 -55.8376 204.346 -24.9334 198.606C-47.0086 152.683 1.55067 112.5 5.96819 146.943C67.7684 118.241 45.6958 187.125 36.8698 198.606Z" fill="#929292"/>
</g>
<path d="M391.5 368.51H380V321.781L388 362.669L391.5 321.781L398.5 362.669L402.5 321.781L408 368.51H391.5Z" fill="#939393"/>
<path d="M317.5 365.729H306V319L314 359.888L317.5 319L324.5 359.888L328.5 319L334 365.729H317.5Z" fill="#939393"/>
<path d="M471.5 367.954H460V321.225L468 362.113L471.5 321.225L478.5 362.113L482.5 321.225L488 367.954H471.5Z" fill="#939393"/>
<path d="M205.5 367.398H194V320.669L202 361.557L205.5 320.669L212.5 361.557L216.5 320.669L222 367.398H205.5Z" fill="#939393"/>
<path d="M363.5 368.51H352V321.781L360 362.669L363.5 321.781L370.5 362.669L374.5 321.781L380 368.51H363.5Z" fill="#939393"/>
<path d="M289.5 365.729H278V319L286 359.888L289.5 319L296.5 359.888L300.5 319L306 365.729H289.5Z" fill="#939393"/>
<path d="M443.5 367.954H432V321.225L440 362.113L443.5 321.225L450.5 362.113L454.5 321.225L460 367.954H443.5Z" fill="#939393"/>
<path d="M177.5 367.398H166V320.669L174 361.557L177.5 320.669L184.5 361.557L188.5 320.669L194 367.398H177.5Z" fill="#939393"/>
<path d="M335.5 368.51H324V321.781L332 362.669L335.5 321.781L342.5 362.669L346.5 321.781L352 368.51H335.5Z" fill="#939393"/>
<path d="M261.5 365.729H250V319L258 359.888L261.5 319L268.5 359.888L272.5 319L278 365.729H261.5Z" fill="#939393"/>
<path d="M415.5 367.954H404V321.225L412 362.113L415.5 321.225L422.5 362.113L426.5 321.225L432 367.954H415.5Z" fill="#939393"/>
<path d="M149.5 367.398H138V320.669L146 361.557L149.5 320.669L156.5 361.557L160.5 320.669L166 367.398H149.5Z" fill="#939393"/>
<path d="M307.5 368.51H296V321.781L304 362.669L307.5 321.781L314.5 362.669L318.5 321.781L324 368.51H307.5Z" fill="#939393"/>
<path d="M233.5 365.729H222V319L230 359.888L233.5 319L240.5 359.888L244.5 319L250 365.729H233.5Z" fill="#939393"/>
<path d="M387.5 367.954H376V321.225L384 362.113L387.5 321.225L394.5 362.113L398.5 321.225L404 367.954H387.5Z" fill="#939393"/>
<path d="M121.5 367.398H110V320.669L118 361.557L121.5 320.669L128.5 361.557L132.5 320.669L138 367.398H121.5Z" fill="#939393"/>
<path d="M289.5 374.073H278V327.344L286 368.232L289.5 327.344L296.5 368.232L300.5 327.344L306 374.073H289.5Z" fill="#939393"/>
<path d="M215.5 371.292H204V324.563L212 365.451L215.5 324.563L222.5 365.451L226.5 324.563L232 371.292H215.5Z" fill="#939393"/>
<path d="M369.5 373.517H358V326.788L366 367.676L369.5 326.788L376.5 367.676L380.5 326.788L386 373.517H369.5Z" fill="#939393"/>
<path d="M103.5 372.961H92V326.232L100 367.12L103.5 326.232L110.5 367.12L114.5 326.232L120 372.961H103.5Z" fill="#939393"/>
<path d="M321.5 368.51H310V321.781L318 362.669L321.5 321.781L328.5 362.669L332.5 321.781L338 368.51H321.5Z" fill="#939393"/>
<path d="M247.5 365.729H236V319L244 359.888L247.5 319L254.5 359.888L258.5 319L264 365.729H247.5Z" fill="#939393"/>
<path d="M401.5 367.954H390V321.225L398 362.113L401.5 321.225L408.5 362.113L412.5 321.225L418 367.954H401.5Z" fill="#939393"/>
<path d="M135.5 367.398H124V320.669L132 361.557L135.5 320.669L142.5 361.557L146.5 320.669L152 367.398H135.5Z" fill="#939393"/>
<path d="M341.5 368.51H330V321.781L338 362.669L341.5 321.781L348.5 362.669L352.5 321.781L358 368.51H341.5Z" fill="#939393"/>
<path d="M267.5 365.729H256V319L264 359.888L267.5 319L274.5 359.888L278.5 319L284 365.729H267.5Z" fill="#939393"/>
<path d="M421.5 367.954H410V321.225L418 362.113L421.5 321.225L428.5 362.113L432.5 321.225L438 367.954H421.5Z" fill="#939393"/>
<path d="M155.5 367.398H144V320.669L152 361.557L155.5 320.669L162.5 361.557L166.5 320.669L172 367.398H155.5Z" fill="#939393"/>
<path d="M331.5 374.63H320V327.901L328 368.789L331.5 327.901L338.5 368.789L342.5 327.901L348 374.63H331.5Z" fill="#939393"/>
<path d="M257.5 371.848H246V325.119L254 366.007L257.5 325.119L264.5 366.007L268.5 325.119L274 371.848H257.5Z" fill="#939393"/>
<path d="M411.5 374.073H400V327.344L408 368.232L411.5 327.344L418.5 368.232L422.5 327.344L428 374.073H411.5Z" fill="#939393"/>
<path d="M145.5 373.517H134V326.788L142 367.676L145.5 326.788L152.5 367.676L156.5 326.788L162 373.517H145.5Z" fill="#939393"/>
<path d="M363.5 368.51H352V321.781L360 362.669L363.5 321.781L370.5 362.669L374.5 321.781L380 368.51H363.5Z" fill="#939393"/>
<path d="M289.5 365.729H278V319L286 359.888L289.5 319L296.5 359.888L300.5 319L306 365.729H289.5Z" fill="#939393"/>
<path d="M443.5 367.954H432V321.225L440 362.113L443.5 321.225L450.5 362.113L454.5 321.225L460 367.954H443.5Z" fill="#939393"/>
<path d="M177.5 367.398H166V320.669L174 361.557L177.5 320.669L184.5 361.557L188.5 320.669L194 367.398H177.5Z" fill="#939393"/>
<path d="M369.5 374.63H358V327.901L366 368.789L369.5 327.901L376.5 368.789L380.5 327.901L386 374.63H369.5Z" fill="#939393"/>
<path d="M295.5 371.848H284V325.119L292 366.007L295.5 325.119L302.5 366.007L306.5 325.119L312 371.848H295.5Z" fill="#939393"/>
<path d="M449.5 374.073H438V327.344L446 368.232L449.5 327.344L456.5 368.232L460.5 327.344L466 374.073H449.5Z" fill="#939393"/>
<path d="M183.5 373.517H172V326.788L180 367.676L183.5 326.788L190.5 367.676L194.5 326.788L200 373.517H183.5Z" fill="#939393"/>
<path d="M366.976 373.555C366.976 382.519 361.521 389.858 364.484 390.687C365.172 390.687 370.499 382.519 370.499 373.555C370.499 364.592 351.1 363.459 352.346 363.459C345.163 366.014 366.976 364.592 366.976 373.555Z" fill="black"/>
<path d="M354.519 374.457C354.519 383.421 352.543 389.858 354.519 390.687C356.494 391.516 358.256 383.421 358.256 374.457C358.256 365.493 354.888 365.515 356.134 365.515C348.66 359.203 354.519 365.493 354.519 374.457Z" fill="black"/>
<path d="M348.953 365.516C342.356 373.168 345.362 380.585 345.165 379.925C346.054 382.904 350.552 371.811 352.346 363.459C354.341 365.516 363.949 370.627 365.195 370.627C360.212 368.823 348.953 356.552 348.953 365.516Z" fill="black"/>
<path d="M360.702 374.787C360.702 383.751 356.134 389.858 359.725 390.687C360.413 390.687 364.225 382.849 364.225 373.886C364.225 364.922 351.652 362.802 352.898 362.802C351.102 365.121 360.702 365.824 360.702 374.787Z" fill="black"/>
<path d="M371.477 374.787C371.477 383.751 366.909 389.858 370.5 390.687C371.188 390.687 375 382.849 375 373.886C375 364.922 356.075 363.865 357.321 363.865C355.525 366.184 371.477 365.824 371.477 374.787Z" fill="black"/>
<path d="M375 372.195L373.112 368.744L369.335 366.443L365.895 358.318L351.731 359.9L348.561 364.142L346.673 368.744H350.45L352.338 367.594L354.227 373.346L375 372.195Z" fill="black"/>
<path d="M236.997 370.502C237.346 378.024 243.008 384.072 240.12 384.827C239.442 384.841 233.875 378.095 233.525 370.574C233.175 363.052 252.247 361.707 251.02 361.732C258.197 363.731 236.647 362.98 236.997 370.502Z" fill="black"/>
<path d="M249.308 371.006C249.657 378.527 251.856 383.889 249.941 384.625C248.026 385.361 245.975 378.603 245.625 371.082C245.275 363.56 248.594 363.51 247.367 363.535C254.486 358.087 248.958 363.484 249.308 371.006Z" fill="black"/>
<path d="M254.443 363.39C261.243 369.677 258.57 375.962 258.739 375.404C257.979 377.922 253.114 368.704 251.02 361.732C249.133 363.499 239.865 367.983 238.638 368.009C243.478 366.394 254.094 355.868 254.443 363.39Z" fill="black"/>
<path d="M243.227 371.408C243.577 378.93 248.317 383.962 244.81 384.731C244.132 384.745 240.07 378.245 239.72 370.723C239.371 363.202 251.677 361.167 250.45 361.193C252.31 363.102 242.878 363.887 243.227 371.408Z" fill="black"/>
<path d="M232.609 371.627C232.959 379.149 237.699 384.181 234.192 384.95C233.514 384.964 229.452 378.464 229.102 370.942C228.753 363.421 247.361 362.15 246.133 362.175C247.993 364.084 232.26 364.106 232.609 371.627Z" fill="black"/>
<path d="M228.646 368.803L230.381 365.875L233.092 363.341L243.49 354.664L253.556 357.918L254.509 361.523L256.559 365.339L252.819 365.415L250.904 364.49L249.26 369.346L228.646 368.803Z" fill="black"/>
<path d="M338.58 389.164L333.255 396.395L327.93 397.6L324.736 396.395L318.346 389.164L322.606 412.062V462.68L330.06 465.091L335.385 460.27V410.857L338.58 389.164Z" fill="#6887A2"/>
<path d="M298.112 389.164L292.788 396.395L287.463 397.6L284.268 396.395L277.879 389.164L282.138 412.062V462.68L289.593 465.091L294.918 460.27V410.857L298.112 389.164Z" fill="#6887A2"/>
<path d="M341.615 464.3L340.603 463.509L335.545 454.809V435.827L332.51 449.273L329.475 435.827L327.451 449.273L322.393 435.827V457.973V461.927V468.254L324.416 469.045H328.463L330.486 468.254V464.3L326.44 461.927L332.51 469.045L336.556 470.627L340.603 471.418L343.638 472.209L347.685 473L353.755 462.718L349.708 465.882L345.661 466.673L341.615 464.3Z" fill="black"/>
<path d="M276.247 462.533L277.291 461.725L282.513 452.84V433.455L285.646 447.186L288.779 433.455L290.867 447.186L296.089 433.455V456.071V460.11V466.572L294 467.38H289.823L287.735 466.572V462.533L291.912 460.11L285.646 467.38L281.469 468.995L277.291 469.803L274.158 470.61L269.981 471.418L263.715 460.918L267.893 464.149L272.07 464.956L276.247 462.533Z" fill="black"/>
<path d="M350.72 467.464L348.696 470.627L347.238 472.776V473L352.131 472.088L352.743 468.281L353.755 462.718L350.72 467.464Z" fill="#361515"/>
<path d="M266.542 465.456L268.427 468.863L269.785 471.177V471.418L265.227 470.436L264.658 466.336L263.715 460.346L266.542 465.456Z" fill="#361515"/>
<path d="M302.16 376.43C306.207 380.384 301.148 404.906 287.996 404.906C276.823 404.906 271.081 392.133 271.081 376.408C275.127 357.426 289.974 358.216 301.148 358.216C312.321 358.216 369.942 374.136 302.16 376.43Z" fill="#882410"/>
<path d="M311.264 376.509C307.614 389.142 317.903 404.981 329.077 404.981C340.252 404.981 342.626 392.234 342.626 376.509C338.579 357.527 322.439 357.527 311.264 357.527C256.633 360.668 309.856 356.735 311.264 376.509Z" fill="#882410"/>
<path d="M244.493 308.491L249.551 312.892L254.61 313.626L257.645 312.892L263.715 308.491L259.668 322.429L255.622 356.175L253.598 358.375L247.528 359.109L242.47 357.642L241.458 354.707L247.528 321.695L244.493 308.491Z" fill="#6887A2"/>
<path d="M266.019 292.673C266.019 308.398 265.053 314.818 253.88 314.818C242.706 314.818 239.718 302.07 239.718 286.345C243.764 267.364 260.915 267.364 272.088 267.364C283.262 267.364 266.019 276.948 266.019 292.673Z" fill="#882410"/>
<path d="M362.86 308.491L357.802 313.236L352.743 314.027L349.708 313.236L343.638 308.491L347.685 323.518L351.732 359.9L353.755 362.273L356.79 363.063H360.837L364.883 362.273L366.907 360.691L359.825 322.727L362.86 308.491Z" fill="#6887A2"/>
<path d="M355.778 184.318L352.743 179.573L348.696 177.991L345.661 179.573L346.673 190.25L345.661 200.532L349.708 199.346L355.778 192.623V188.273V184.318Z" fill="#001324"/>
<path d="M249.552 185.109L252.587 180.364L256.634 178.782L259.669 180.364L258.657 191.041L259.669 201.323L255.622 200.136L249.552 193.414V189.064V185.109Z" fill="#001324"/>
<path d="M264.727 290.01C262.703 288.428 280.051 371.474 305.194 371.474C330.337 371.474 344.649 317.966 344.649 290.01C344.649 262.055 328.314 267.364 303.17 267.364C278.027 267.364 264.727 262.055 264.727 290.01Z" fill="#992710"/>
<path d="M281.926 348.036L273.832 365.436L280.914 368.6L283.949 369.391L294.066 371.763L306.206 373.345L330.486 370.182L340.603 366.227L331.498 348.036L322.787 349.903L306.206 351.2L291.587 349.903L281.926 348.036Z" fill="#992710"/>
<path d="M308.094 356.262L301.944 372.712L294.916 372.08L308.094 356.262Z" fill="black"/>
<path d="M298.43 352.465L294.916 372.08L288.766 370.814L298.43 352.465Z" fill="black"/>
<path d="M308.094 356.262L311.609 372.712L306.339 373.345L301.944 372.712L308.094 356.262Z" fill="black"/>
<path d="M288.766 350.567V370.814L280.861 368.916L288.766 350.567Z" fill="black"/>
<path d="M284.373 348.036L280.861 368.916L273.832 365.12L284.373 348.036Z" fill="black"/>
<path d="M308.094 356.262L318.637 372.08L311.609 372.712L308.094 356.262Z" fill="black"/>
<path d="M315.123 355.629L323.909 371.447L318.637 372.08L315.123 355.629Z" fill="black"/>
<path d="M323.909 352.465L332.694 369.549L323.909 371.447V352.465Z" fill="black"/>
<path d="M332.694 352.465L340.603 366.385L332.694 369.549V352.465Z" fill="black"/>
<path d="M316.322 253.127L304.182 258.664L292.042 253.127V261.827V270.527L296.089 274.482L304.182 276.064L312.276 274.482L315.311 269.736V261.827V257.082L316.322 253.127Z" fill="#001324"/>
<path d="M335.544 161.87L319.357 157.916H303.171H285.972L270.797 160.288L258.657 181.643V205.37L270.797 221.188L285.972 252.034L300.136 259.152H310.252L324.416 252.034L335.544 221.188L346.673 206.952V181.643L335.544 161.87Z" fill="#001324"/>
<path d="M308.229 171.664L303.17 172.455L298.112 171.664L301.147 173.246H304.182L302.159 175.618L305.194 183.527H308.229L305.194 182.736L303.17 175.618L307.217 173.246L316.322 170.873L308.229 171.664Z" fill="black"/>
<path d="M304.182 187.179L284.907 221.583L304.182 225.143L323.458 221.583L304.182 187.179Z" fill="#6887A2"/>
<path d="M304.182 187.179V221.979L323.404 221.57L304.182 187.179Z" fill="#86A1B8"/>
<path d="M274.958 186.887C274.958 191.345 278.158 194.959 282.104 194.959C286.051 194.959 289.25 191.345 289.25 186.887C289.25 182.428 286.051 178.814 282.104 178.814C278.158 178.814 274.958 182.428 274.958 186.887Z" fill="#6887A2"/>
<path d="M282.104 190.557C280.31 190.557 278.856 188.914 278.856 186.887C278.856 184.861 280.31 183.218 282.104 183.218C283.898 183.218 285.352 184.861 285.352 186.887C285.352 188.914 283.898 190.557 282.104 190.557Z" fill="#6887A2"/>
<path d="M282.104 189.088C281.028 189.088 280.155 188.102 280.155 186.887C280.155 185.671 281.028 184.685 282.104 184.685C283.18 184.685 284.053 185.671 284.053 186.887C284.053 188.102 283.18 189.088 282.104 189.088Z" fill="#6887A2"/>
<path d="M319.875 186.887C319.875 191.345 323.074 194.959 327.021 194.959C330.967 194.959 334.167 191.345 334.167 186.887C334.167 182.428 330.967 178.814 327.021 178.814C323.074 178.814 319.875 182.428 319.875 186.887Z" fill="#6887A2"/>
<path d="M327.021 190.557C325.227 190.557 323.773 188.914 323.773 186.887C323.773 184.861 325.227 183.218 327.021 183.218C328.815 183.218 330.269 184.861 330.269 186.887C330.269 188.914 328.815 190.557 327.021 190.557Z" fill="#6887A2"/>
<path d="M327.02 189.088C325.944 189.088 325.071 188.102 325.071 186.887C325.071 185.671 325.944 184.685 327.02 184.685C328.096 184.685 328.969 185.671 328.969 186.887C328.969 188.102 328.096 189.088 327.02 189.088Z" fill="#6887A2"/>
<path d="M285.972 237.006C285.972 237.443 294.043 244.289 303.541 244.289C313.04 244.289 321.381 237.443 321.381 237.006C321.381 236.57 312.669 237.007 303.171 237.007C293.672 237.007 285.972 236.57 285.972 237.006Z" fill="#6887A2"/>
<path d="M270.797 160.288L258.657 181.826V205.37L270.797 221.188L285.972 251.983L300.136 259.152L285.972 250.452L272.82 218.815L262.704 204.579L263.715 181.826L270.797 160.288Z" fill="#001324"/>
<path d="M305.194 172.152C280.051 172.152 259.669 163.653 259.669 153.17C259.669 142.686 280.051 134.188 305.194 134.188C330.337 134.188 350.72 142.686 350.72 153.17C350.72 163.653 330.337 172.152 305.194 172.152Z" fill="#992710"/>
<path d="M305.192 151.588L298.11 172.152L290.017 171.361L305.192 151.588Z" fill="black"/>
<path d="M294.064 146.843L290.017 171.361L282.935 169.779L294.064 146.843Z" fill="black"/>
<path d="M305.192 151.588L309.238 172.152L303.17 172.943L298.11 172.152L305.192 151.588Z" fill="black"/>
<path d="M282.935 144.47V169.779L273.832 167.406L282.935 144.47Z" fill="black"/>
<path d="M277.876 141.306L273.832 167.406L265.738 162.661L277.876 141.306Z" fill="black"/>
<path d="M305.192 151.588L317.332 171.361L309.238 172.152L305.192 151.588Z" fill="black"/>
<path d="M313.285 150.797L323.402 170.57L317.332 171.361L313.285 150.797Z" fill="black"/>
<path d="M323.402 146.843L333.519 168.197L323.402 170.57V146.843Z" fill="black"/>
<path d="M333.519 146.843L342.626 164.243L333.519 168.197V146.843Z" fill="black"/>
<path d="M300.448 138.565C300.448 139.002 301.354 139.356 302.472 139.356C303.589 139.356 304.495 139.002 304.495 138.565C304.495 138.128 304.288 137.352 303.171 137.352C302.053 137.352 300.448 138.128 300.448 138.565Z" fill="#B93A3A"/>
<path d="M314.299 257.082L311.264 258.664H309.241H307.218H305.194H300.136L292.042 254.709V257.873L291.957 261.794L296.004 259.421L306.121 263.376L311.179 262.585L315.311 264.991V257.082H314.299Z" fill="#001324"/>
<path d="M297.734 125L296.089 127.07L295.077 128.652V130.234L292.398 127.861L292.042 130.234L289.007 128.652V129.745H282.559L295.077 134.188L301.147 138.143V138.934H304.182L297.734 125Z" fill="#001324"/>
<path d="M305.299 275.347L303.277 289.582L309.347 303.818L305.299 325.173L308.337 349.692L307.325 372.629" stroke="black"/>
<path d="M300.386 281.6C300.386 283.156 302.025 284.514 304.182 284.514C306.34 284.514 307.979 283.156 307.979 281.6C307.979 280.045 306.34 278.687 304.182 278.687C302.025 278.687 300.386 280.045 300.386 281.6Z" fill="#882410" stroke="#001324" stroke-width="0.5"/>
<path d="M306.205 281.148C305.833 281.148 305.531 280.946 305.531 280.696C305.531 280.446 305.833 280.244 306.205 280.244C306.578 280.244 306.88 280.446 306.88 280.696C306.88 280.946 306.578 281.148 306.205 281.148Z" fill="black"/>
<path d="M306.205 282.956C305.833 282.956 305.531 282.754 305.531 282.504C305.531 282.255 305.833 282.052 306.205 282.052C306.578 282.052 306.88 282.255 306.88 282.504C306.88 282.754 306.578 282.956 306.205 282.956Z" fill="black"/>
<path d="M302.159 282.956C301.786 282.956 301.484 282.754 301.484 282.504C301.484 282.255 301.786 282.052 302.159 282.052C302.531 282.052 302.833 282.255 302.833 282.504C302.833 282.754 302.531 282.956 302.159 282.956Z" fill="black"/>
<path d="M302.159 281.148C301.786 281.148 301.484 280.946 301.484 280.696C301.484 280.446 301.786 280.244 302.159 280.244C302.531 280.244 302.833 280.446 302.833 280.696C302.833 280.946 302.531 281.148 302.159 281.148Z" fill="black"/>
<path d="M302.217 300.997C303.856 302.022 306.226 301.803 307.514 300.544C308.801 299.284 308.552 297.429 306.912 296.404C305.273 295.38 302.903 295.598 301.616 296.858C300.328 298.118 300.577 299.973 302.217 300.997Z" fill="#882410" stroke="#001324" stroke-width="0.5"/>
<path d="M305.376 297.183C305.144 297.411 304.753 297.469 304.503 297.313C304.254 297.157 304.24 296.846 304.473 296.619C304.706 296.391 305.096 296.333 305.346 296.489C305.595 296.645 305.609 296.956 305.376 297.183Z" fill="black"/>
<path d="M307.183 298.311C306.951 298.539 306.56 298.597 306.311 298.441C306.061 298.285 306.047 297.974 306.28 297.747C306.513 297.519 306.903 297.461 307.153 297.617C307.402 297.773 307.416 298.084 307.183 298.311Z" fill="black"/>
<path d="M304.656 300.783C304.423 301.011 304.033 301.069 303.783 300.913C303.534 300.757 303.52 300.446 303.753 300.219C303.985 299.992 304.376 299.933 304.625 300.089C304.875 300.245 304.888 300.556 304.656 300.783Z" fill="black"/>
<path d="M302.85 299.654C302.618 299.882 302.227 299.94 301.978 299.784C301.728 299.628 301.714 299.318 301.947 299.09C302.18 298.863 302.57 298.805 302.82 298.96C303.069 299.116 303.083 299.427 302.85 299.654Z" fill="black"/>
<path d="M309.877 315.982C310.884 314.598 310.286 312.792 308.442 311.972C306.598 311.152 304.307 311.672 303.299 313.056C302.292 314.441 302.89 316.247 304.734 317.067C306.578 317.887 308.87 317.366 309.877 315.982Z" fill="#882410" stroke="#001324" stroke-width="0.5"/>
<path d="M304.544 314.13C304.867 314.274 305.002 314.567 304.844 314.784C304.686 315.001 304.296 315.06 303.972 314.916C303.648 314.772 303.514 314.479 303.672 314.262C303.83 314.046 304.22 313.986 304.544 314.13Z" fill="black"/>
<path d="M305.687 312.558C306.011 312.702 306.145 312.995 305.987 313.212C305.829 313.429 305.439 313.488 305.115 313.344C304.791 313.2 304.657 312.907 304.815 312.69C304.973 312.473 305.363 312.414 305.687 312.558Z" fill="black"/>
<path d="M309.204 314.123C309.528 314.267 309.662 314.56 309.504 314.777C309.346 314.994 308.956 315.053 308.632 314.909C308.308 314.765 308.174 314.472 308.332 314.255C308.49 314.038 308.88 313.979 309.204 314.123Z" fill="black"/>
<path d="M308.061 315.694C308.385 315.838 308.519 316.131 308.361 316.348C308.203 316.565 307.813 316.624 307.489 316.48C307.165 316.336 307.031 316.043 307.189 315.826C307.347 315.609 307.737 315.55 308.061 315.694Z" fill="black"/>
<path d="M304.05 328.92C301.933 329.229 300.637 330.797 301.003 332.331C301.369 333.865 303.301 334.962 305.417 334.654C307.534 334.345 308.83 332.777 308.464 331.243C308.098 329.709 306.166 328.612 304.05 328.92Z" fill="#882410" stroke="#001324" stroke-width="0.5"/>
<path d="M305.673 333.26C305.605 332.973 305.804 332.704 306.117 332.659C306.431 332.613 306.741 332.808 306.809 333.094C306.878 333.38 306.679 333.649 306.365 333.695C306.051 333.741 305.741 333.546 305.673 333.26Z" fill="black"/>
<path d="M303.4 333.59C303.332 333.304 303.531 333.035 303.845 332.989C304.158 332.943 304.468 333.138 304.536 333.425C304.605 333.711 304.406 333.98 304.092 334.026C303.778 334.072 303.468 333.877 303.4 333.59Z" fill="black"/>
<path d="M302.658 330.48C302.589 330.194 302.788 329.925 303.102 329.879C303.416 329.833 303.726 330.028 303.794 330.315C303.863 330.601 303.664 330.87 303.35 330.916C303.036 330.962 302.726 330.767 302.658 330.48Z" fill="black"/>
<path d="M304.931 330.148C304.862 329.862 305.061 329.593 305.375 329.547C305.689 329.501 305.999 329.696 306.067 329.983C306.136 330.269 305.936 330.538 305.623 330.584C305.309 330.63 304.999 330.435 304.931 330.148Z" fill="black"/>
<path d="M305.353 346.183C303.647 347.149 303.29 348.993 304.495 350.294C305.7 351.596 308.053 351.907 309.759 350.942C311.465 349.976 311.821 348.132 310.616 346.83C309.411 345.529 307.059 345.218 305.353 346.183Z" fill="#882410" stroke="#001324" stroke-width="0.5"/>
<path d="M309.21 349.579C308.992 349.343 309.024 349.033 309.283 348.887C309.541 348.741 309.928 348.813 310.147 349.049C310.365 349.285 310.332 349.595 310.074 349.741C309.815 349.887 309.428 349.815 309.21 349.579Z" fill="black"/>
<path d="M307.337 350.639C307.118 350.403 307.151 350.093 307.41 349.947C307.668 349.801 308.055 349.873 308.273 350.109C308.492 350.345 308.459 350.655 308.201 350.801C307.942 350.948 307.555 350.875 307.337 350.639Z" fill="black"/>
<path d="M304.964 348.076C304.745 347.84 304.778 347.53 305.037 347.384C305.295 347.238 305.682 347.31 305.9 347.546C306.119 347.782 306.086 348.092 305.828 348.238C305.569 348.385 305.182 348.312 304.964 348.076Z" fill="black"/>
<path d="M306.837 347.016C306.618 346.78 306.651 346.47 306.91 346.324C307.168 346.178 307.555 346.25 307.773 346.486C307.992 346.722 307.959 347.032 307.701 347.178C307.442 347.324 307.055 347.252 306.837 347.016Z" fill="black"/>
<path d="M306.445 357.984C304.739 358.949 304.383 360.794 305.588 362.095C306.793 363.396 309.145 363.708 310.851 362.742C312.557 361.777 312.914 359.932 311.709 358.631C310.504 357.33 308.151 357.019 306.445 357.984Z" fill="#882410" stroke="#001324" stroke-width="0.5"/>
<path d="M310.303 361.38C310.084 361.144 310.117 360.834 310.376 360.688C310.634 360.541 311.021 360.614 311.239 360.85C311.458 361.086 311.425 361.396 311.166 361.542C310.908 361.688 310.521 361.616 310.303 361.38Z" fill="black"/>
<path d="M308.43 362.44C308.211 362.204 308.244 361.894 308.502 361.748C308.761 361.601 309.148 361.674 309.366 361.91C309.585 362.146 309.552 362.456 309.293 362.602C309.035 362.748 308.648 362.676 308.43 362.44Z" fill="black"/>
<path d="M306.057 359.877C305.839 359.641 305.871 359.331 306.13 359.185C306.389 359.038 306.775 359.111 306.994 359.347C307.212 359.583 307.18 359.893 306.921 360.039C306.662 360.185 306.276 360.113 306.057 359.877Z" fill="black"/>
<path d="M307.93 358.817C307.711 358.581 307.744 358.271 308.002 358.125C308.261 357.978 308.648 358.051 308.866 358.287C309.085 358.523 309.052 358.833 308.793 358.979C308.535 359.125 308.148 359.053 307.93 358.817Z" fill="black"/>
<path d="M341.615 291.882C341.615 307.607 342.58 314.027 353.755 314.027C364.93 314.027 367.918 301.28 367.918 285.555C363.872 266.573 346.719 266.573 335.545 266.573C324.37 266.573 341.615 276.157 341.615 291.882Z" fill="#882410"/>
<path d="M313.288 375.602L307.218 374.811L299.124 375.602L300.136 378.766L306.206 379.556L313.288 378.766V375.602Z" fill="#882410"/>
<path d="M362.86 290.3C362.86 298.163 360.278 305.328 360.837 305.328C361.395 305.328 365.721 298.163 365.721 290.3C365.721 282.438 358.813 276.064 359.825 276.064C355.741 273.691 362.86 282.438 362.86 290.3Z" fill="black"/>
<path d="M352.743 291.091C352.743 298.954 349.708 305.328 352.743 305.328C349.708 305.328 355.778 298.954 355.778 291.091C355.778 283.229 348.696 276.064 349.708 276.064C343.638 270.527 352.743 283.229 352.743 291.091Z" fill="black"/>
<path d="M346.673 290.3C346.673 298.163 348.138 305.328 348.696 305.328C347.685 305.328 349.708 298.163 349.708 290.3C349.708 282.438 342.626 276.064 343.638 276.064C339.591 274.482 346.673 282.438 346.673 290.3Z" fill="black"/>
<path d="M357.765 291.381C357.765 299.244 355.183 305.617 355.741 305.617C356.3 305.617 360.626 298.453 360.626 290.59C360.626 282.728 353.718 276.354 354.73 276.354C344.65 265.782 357.765 283.518 357.765 291.381Z" fill="black"/>
<path d="M334.571 389.904C334.571 396.02 332.78 401.593 333.167 401.593C333.555 401.593 336.556 396.02 336.556 389.904C336.556 383.788 331.764 378.83 332.466 378.83C329.633 376.985 334.571 383.788 334.571 389.904Z" fill="black"/>
<path d="M327.553 390.519C327.553 396.635 325.447 401.593 327.553 401.593C325.447 401.593 329.658 396.635 329.658 390.519C329.658 384.403 324.745 378.83 325.447 378.83C321.236 374.524 327.553 384.403 327.553 390.519Z" fill="black"/>
<path d="M323.341 389.904C323.341 396.02 324.357 401.593 324.745 401.593C324.043 401.593 325.447 396.02 325.447 389.904C325.447 383.788 320.534 378.83 321.236 378.83C318.428 377.6 323.341 383.788 323.341 389.904Z" fill="black"/>
<path d="M331.036 390.745C331.036 396.86 329.245 401.818 329.633 401.818C330.02 401.818 333.021 396.245 333.021 390.129C333.021 384.014 328.229 379.056 328.931 379.056C321.938 370.832 331.036 384.629 331.036 390.745Z" fill="black"/>
<path d="M278.337 388.322C278.337 394.438 280.576 400.011 280.091 400.011C279.607 400.011 275.855 394.438 275.855 388.322C275.855 382.206 281.846 377.248 280.969 377.248C284.51 375.402 278.337 382.206 278.337 388.322Z" fill="black"/>
<path d="M287.11 388.937C287.11 395.053 289.742 400.011 287.11 400.011C289.742 400.011 284.478 395.053 284.478 388.937C284.478 382.821 290.619 377.248 289.742 377.248C295.006 372.942 287.11 382.821 287.11 388.937Z" fill="black"/>
<path d="M292.374 388.322C292.374 394.438 291.104 400.011 290.619 400.011C291.497 400.011 289.742 394.438 289.742 388.322C289.742 382.206 295.883 377.248 295.006 377.248C298.515 376.018 292.374 382.206 292.374 388.322Z" fill="black"/>
<path d="M282.755 389.163C282.755 395.278 284.994 400.236 284.51 400.236C284.025 400.236 280.274 394.663 280.274 388.547C280.274 382.432 286.265 377.474 285.387 377.474C294.129 369.25 282.755 383.047 282.755 389.163Z" fill="black"/>
<path d="M244.187 289.689C244.187 297.717 246.65 305.031 246.117 305.031C245.584 305.031 241.458 297.717 241.458 289.689C241.458 281.662 248.048 275.155 247.083 275.155C250.978 272.733 244.187 281.662 244.187 289.689Z" fill="black"/>
<path d="M253.838 290.497C253.838 298.524 256.733 305.031 253.838 305.031C256.733 305.031 250.943 298.524 250.943 290.497C250.943 282.47 257.698 275.155 256.733 275.155C262.524 269.503 253.838 282.47 253.838 290.497Z" fill="black"/>
<path d="M259.628 289.689C259.628 297.717 258.231 305.031 257.698 305.031C258.663 305.031 256.733 297.717 256.733 289.689C256.733 281.662 263.489 275.155 262.524 275.155C266.384 273.54 259.628 281.662 259.628 289.689Z" fill="black"/>
<path d="M249.048 290.793C249.048 298.82 251.511 305.327 250.978 305.327C250.445 305.327 246.318 298.012 246.318 289.985C246.318 281.958 252.908 275.451 251.943 275.451C261.558 264.658 249.048 282.766 249.048 290.793Z" fill="black"/>
<path d="M352.743 462.718C352.743 463.155 353.755 463.509 353.755 463.509C353.755 463.509 354.767 463.155 354.767 462.718C354.767 462.281 354.314 461.927 353.755 461.927C353.196 461.927 352.743 462.281 352.743 462.718Z" fill="#D9D9D9"/>
<path d="M353.755 463.509C353.197 463.509 352.744 463.155 352.744 462.718C352.744 462.281 353.197 461.927 353.755 461.927C354.314 461.927 354.767 462.281 354.767 462.718C354.767 463.155 354.314 463.509 353.755 463.509Z" fill="#86A1B8"/>
<path d="M265.739 461.137C265.739 461.573 265.286 461.928 264.727 461.928C264.168 461.928 263.715 461.573 263.715 461.137C263.715 460.7 264.168 460.346 264.727 460.346C265.286 460.346 265.739 460.7 265.739 461.137Z" fill="#86A1B8"/>
<path d="M330.53 466.65L326.484 461.904" stroke="#9C3838" stroke-width="0.1"/>
<path d="M286.984 465.882L289.483 462.401L292.042 458.764" stroke="#9C3838" stroke-width="0.1"/>
<path d="M33.7739 522.664H82.4678L75.6665 515.724L331.846 517.037L486.007 517.787V520.225H474.672H588.234L581.175 522.121L588.234 571.879L565.739 579.57L577.057 607.135L324.573 610L62.7744 608.875L41.175 558.593L48.2338 543.396L33.7739 522.664Z" fill="#A9AD81"/>
<path d="M69.5322 524.392H19.922L10 519.953V515L383.73 516.777L608.63 517.792L608.496 518.18C607.953 519.759 608.233 521.505 609.243 522.834L610 523.829L340.735 522.869L69.5322 524.392Z" fill="#8D8F6D"/>
<path d="M85.3477 556.936L89.7177 557.212C90.1164 557.212 90.423 557.197 90.6377 557.166L88.4757 561.214H88.0617C87.479 561.214 86.651 561.061 85.5777 560.754C84.5044 560.417 83.7377 560.248 83.2777 560.248C82.0817 560.248 81.1157 561.03 80.3797 562.594C80.2264 564.342 80.1497 565.722 80.1497 566.734C80.1497 567.746 80.1804 568.835 80.2417 570H70.2597C69.677 566.075 69.3857 562.027 69.3857 557.856C69.3857 553.655 69.6004 550.051 70.0297 547.046H94.5937C94.0417 550.358 93.551 552.673 93.1217 553.992L88.1537 554.222C88.4297 553.455 88.5677 552.796 88.5677 552.244C88.5677 550.772 87.4484 550.036 85.2097 550.036C84.2284 550.036 83.3237 550.113 82.4957 550.266C81.821 552.995 81.269 555.786 80.8397 558.638C82.0664 557.503 83.569 556.936 85.3477 556.936ZM107.434 566.458C108.875 566.795 110.255 566.964 111.574 566.964C112.893 566.964 113.935 566.673 114.702 566.09C115.499 565.477 116.082 564.434 116.45 562.962L121.97 563.146C121.51 565.906 120.897 568.191 120.13 570H97.5442C96.9615 566.075 96.6702 562.011 96.6702 557.81C96.6702 553.609 96.8848 550.005 97.3142 547H110.562C108.538 554.759 107.495 561.245 107.434 566.458ZM154.242 569.632V570H143.57C143.447 568.252 143.187 566.443 142.788 564.572C140.887 566.504 138.74 568.313 136.348 570H125.63C125.415 568.743 125.308 567.087 125.308 565.032C125.308 562.947 125.615 560.861 126.228 558.776C128.436 558.132 130.552 557.043 132.576 555.51C134.631 553.977 136.118 552.321 137.038 550.542C136.21 549.254 135.336 548.073 134.416 547H149.688C152.724 553.593 154.242 561.137 154.242 569.632ZM141.96 561.214C141.163 558.485 140.12 555.909 138.832 553.486C137.391 557.718 136.563 561.72 136.348 565.492C138.556 564.357 140.427 562.931 141.96 561.214ZM185.383 547C185.506 548.993 185.567 551.907 185.567 555.74C185.567 559.543 185.322 563.606 184.831 567.93C181.642 569.985 177.824 571.012 173.377 571.012C167.459 571.012 162.675 569.985 159.025 567.93C158.627 564.618 158.427 561.413 158.427 558.316C158.427 555.188 158.657 551.416 159.117 547H171.491C170.265 553.655 169.621 560.049 169.559 566.182C170.847 567.347 172.703 567.93 175.125 567.93C177.548 567.93 179.403 567.501 180.691 566.642C180.753 565.63 180.783 564.173 180.783 562.272C180.783 557.427 180.354 552.336 179.495 547H185.383ZM209.081 549.99C208.284 554.835 207.885 558.791 207.885 561.858C207.885 564.925 208.008 567.639 208.253 570H198.225C197.182 565.124 196.661 559.88 196.661 554.268C196.661 553.317 196.692 551.891 196.753 549.99C194.146 550.757 192.552 552.52 191.969 555.28L187.415 555.004L189.071 547H219.661C219.048 550.373 218.342 553.133 217.545 555.28L212.899 555.004C213.022 554.513 213.083 554.023 213.083 553.532C213.083 552.336 212.715 551.447 211.979 550.864C211.243 550.281 210.277 549.99 209.081 549.99ZM235.489 547V548.242C235.489 556.338 234.983 563.591 233.971 570H222.931C223.513 567.179 223.805 563.928 223.805 560.248C223.805 556.537 223.559 552.121 223.069 547H235.489ZM257.499 549.76C256.272 549.576 254.954 549.484 253.543 549.484C252.163 549.484 250.814 549.576 249.495 549.76C250.323 551.171 251.304 552.321 252.439 553.21C253.574 554.099 255 554.989 256.717 555.878C258.465 556.737 259.876 557.534 260.949 558.27C262.053 559.006 263.264 560.217 264.583 561.904C265.902 563.591 266.73 565.354 267.067 567.194C265.595 569.095 263.648 570.767 261.225 572.208C258.802 573.68 256.318 574.661 253.773 575.152C252.056 574.999 249.878 574.508 247.241 573.68C244.634 572.883 242.672 572.484 241.353 572.484C240.034 572.484 238.716 572.898 237.397 573.726C237.949 572.162 238.854 570.199 240.111 567.838H240.479C242.442 567.838 244.282 568.145 245.999 568.758C247.747 569.371 249.326 569.985 250.737 570.598C252.178 571.211 253.328 571.518 254.187 571.518C255.076 571.518 255.72 571.457 256.119 571.334C256.119 569.31 255.49 567.639 254.233 566.32C253.558 565.615 252.976 565.078 252.485 564.71C252.025 564.311 251.304 563.775 250.323 563.1L249.541 562.548C247.456 561.107 245.738 559.65 244.389 558.178C243.04 556.675 242.058 554.835 241.445 552.658C242.426 550.481 243.392 548.595 244.343 547C247.256 546.295 250.277 545.942 253.405 545.942H255.429C258.066 545.942 261.087 546.31 264.491 547.046C264 549.07 263.402 550.895 262.697 552.52C260.121 552.704 258.128 552.796 256.717 552.796C256.993 552.091 257.254 551.079 257.499 549.76ZM288.952 549.99C288.155 554.835 287.756 558.791 287.756 561.858C287.756 564.925 287.879 567.639 288.124 570H278.096C277.054 565.124 276.532 559.88 276.532 554.268C276.532 553.317 276.563 551.891 276.624 549.99C274.018 550.757 272.423 552.52 271.84 555.28L267.286 555.004L268.942 547H299.532C298.919 550.373 298.214 553.133 297.416 555.28L292.77 555.004C292.893 554.513 292.954 554.023 292.954 553.532C292.954 552.336 292.586 551.447 291.85 550.864C291.114 550.281 290.148 549.99 288.952 549.99ZM331.414 569.632V570H320.742C320.619 568.252 320.358 566.443 319.96 564.572C318.058 566.504 315.912 568.313 313.52 570H302.802C302.587 568.743 302.48 567.087 302.48 565.032C302.48 562.947 302.786 560.861 303.4 558.776C305.608 558.132 307.724 557.043 309.748 555.51C311.802 553.977 313.29 552.321 314.21 550.542C313.382 549.254 312.508 548.073 311.588 547H326.86C329.896 553.593 331.414 561.137 331.414 569.632ZM319.132 561.214C318.334 558.485 317.292 555.909 316.004 553.486C314.562 557.718 313.734 561.72 313.52 565.492C315.728 564.357 317.598 562.931 319.132 561.214ZM364.055 547V548.242C364.055 556.338 363.549 563.591 362.537 570H351.497C352.08 567.179 352.371 563.928 352.371 560.248C352.371 556.537 352.126 552.121 351.635 547H364.055ZM396.323 547C396.507 550.22 396.599 553.624 396.599 557.212C396.599 560.769 396.446 565.032 396.139 570H391.723C385.774 566.811 380.315 562.471 375.347 556.982C375.593 559.037 375.715 561.153 375.715 563.33C375.715 565.477 375.639 567.7 375.485 570H370.103C370.717 566.228 371.023 562.747 371.023 559.558C371.023 556.338 370.87 553.793 370.563 551.922C369.337 550.082 368.371 548.441 367.665 547H380.729C382.017 549.208 383.765 551.493 385.973 553.854C388.212 556.185 390.343 558.009 392.367 559.328C392.367 554.851 391.861 550.741 390.849 547H396.323ZM419.224 554.314C419.224 552.075 418.826 549.637 418.028 547H430.31C430.341 547.46 430.356 548.135 430.356 549.024C430.356 552.949 429.835 556.185 428.792 558.73C425.971 559.957 423.702 561.199 421.984 562.456C420.298 563.683 419.454 564.955 419.454 566.274C419.454 567.593 420.022 568.835 421.156 570H409.61C404.428 563.407 401.177 555.74 399.858 547H412.416C412.539 552.612 413.98 558.086 416.74 563.422C418.396 560.662 419.224 557.626 419.224 554.314ZM450.924 556.246L455.248 556.522C455.677 556.522 455.999 556.507 456.214 556.476L454.052 560.524H453.638C453.055 560.524 452.227 560.371 451.154 560.064C450.081 559.727 449.314 559.558 448.854 559.558C447.597 559.558 446.6 560.371 445.864 561.996C445.741 563.499 445.649 565.001 445.588 566.504C447.183 566.811 448.44 566.964 449.36 566.964H449.774C451.093 566.964 452.135 566.673 452.902 566.09C453.699 565.507 454.267 564.465 454.604 562.962L460.124 563.192C459.664 565.829 459.051 568.099 458.284 570H435.698C435.085 565.86 434.778 561.751 434.778 557.672C434.778 553.593 434.993 550.036 435.422 547H460.078C459.526 550.312 459.035 552.643 458.606 553.992C456.797 554.084 455.141 554.145 453.638 554.176C453.883 553.471 454.006 552.811 454.006 552.198C454.006 550.726 452.902 549.99 450.694 549.99C449.866 549.99 448.946 550.082 447.934 550.266C447.259 553.179 446.738 555.74 446.37 557.948C447.597 556.813 449.115 556.246 450.924 556.246ZM491.307 555.004L491.261 556.568C488.808 557.887 485.741 558.914 482.061 559.65C484.699 560.355 487.244 560.708 489.697 560.708H490.663C492.35 563.192 493.439 566.289 493.929 570H482.015C481.709 567.853 481.08 566.013 480.129 564.48C479.209 562.916 478.075 561.858 476.725 561.306C476.695 561.827 476.679 562.87 476.679 564.434C476.679 565.998 476.771 567.853 476.955 570H466.927C466.038 565.553 465.593 561.429 465.593 557.626C465.593 553.793 465.808 550.251 466.237 547H490.249C490.955 550.097 491.307 552.765 491.307 555.004ZM477.691 550.082C477.323 552.781 477.047 555.433 476.863 558.04C478.55 557.795 479.93 557.197 481.003 556.246C480.421 554.191 479.317 552.137 477.691 550.082ZM514.632 549.76C513.405 549.576 512.086 549.484 510.676 549.484C509.296 549.484 507.946 549.576 506.628 549.76C507.456 551.171 508.437 552.321 509.572 553.21C510.706 554.099 512.132 554.989 513.85 555.878C515.598 556.737 517.008 557.534 518.082 558.27C519.186 559.006 520.397 560.217 521.716 561.904C523.034 563.591 523.862 565.354 524.2 567.194C522.728 569.095 520.78 570.767 518.358 572.208C515.935 573.68 513.451 574.661 510.906 575.152C509.188 574.999 507.011 574.508 504.374 573.68C501.767 572.883 499.804 572.484 498.486 572.484C497.167 572.484 495.848 572.898 494.53 573.726C495.082 572.162 495.986 570.199 497.244 567.838H497.612C499.574 567.838 501.414 568.145 503.132 568.758C504.88 569.371 506.459 569.985 507.87 570.598C509.311 571.211 510.461 571.518 511.32 571.518C512.209 571.518 512.853 571.457 513.252 571.334C513.252 569.31 512.623 567.639 511.366 566.32C510.691 565.615 510.108 565.078 509.618 564.71C509.158 564.311 508.437 563.775 507.456 563.1L506.674 562.548C504.588 561.107 502.871 559.65 501.522 558.178C500.172 556.675 499.191 554.835 498.578 552.658C499.559 550.481 500.525 548.595 501.476 547C504.389 546.295 507.41 545.942 510.538 545.942H512.562C515.199 545.942 518.22 546.31 521.624 547.046C521.133 549.07 520.535 550.895 519.83 552.52C517.254 552.704 515.26 552.796 513.85 552.796C514.126 552.091 514.386 551.079 514.632 549.76ZM530.031 569.862C527.302 566.366 525.937 562.778 525.937 559.098C525.937 555.418 527.47 552.305 530.537 549.76C533.604 547.215 537.529 545.942 542.313 545.942C544.858 545.942 547.388 546.325 549.903 547.092C552.111 549.883 553.215 552.873 553.215 556.062C553.215 560.079 551.574 563.575 548.293 566.55C545.012 569.525 541.04 571.012 536.379 571.012C534.386 571.012 532.27 570.629 530.031 569.862ZM537.023 549.944C535.95 551.784 535.413 553.946 535.413 556.43C535.413 558.914 535.95 561.214 537.023 563.33C538.127 565.415 539.63 566.918 541.531 567.838C542.972 565.998 543.693 563.867 543.693 561.444C543.693 559.021 543.095 556.767 541.899 554.682C540.734 552.597 539.108 551.017 537.023 549.944Z" fill="black"/>
</g>
<path d="M580 5H40C20.67 5 5 20.67 5 40V580C5 599.33 20.67 615 40 615H580C599.33 615 615 599.33 615 580V40C615 20.67 599.33 5 580 5Z" stroke="#E4EF65" stroke-width="10"/>
</g>
<defs>
<filter id="filter0_d_341_27941" x="538.509" y="137" width="133.471" height="158.104" filterUnits="userSpaceOnUse" color-interpolation-filters="sRGB">
<feFlood flood-opacity="0" result="BackgroundImageFix"/>
<feColorMatrix in="SourceAlpha" type="matrix" values="0 0 0 0 0 0 0 0 0 0 0 0 0 0 0 0 0 0 127 0" result="hardAlpha"/>
<feOffset dy="4"/>
<feGaussianBlur stdDeviation="2"/>
<feComposite in2="hardAlpha" operator="out"/>
<feColorMatrix type="matrix" values="0 0 0 0 0 0 0 0 0 0 0 0 0 0 0 0 0 0 0.25 0"/>
<feBlend mode="normal" in2="BackgroundImageFix" result="effect1_dropShadow_341_27941"/>
<feBlend mode="normal" in="SourceGraphic" in2="effect1_dropShadow_341_27941" result="shape"/>
</filter>
<filter id="filter1_d_341_27941" x="-43.4912" y="134" width="133.471" height="158.104" filterUnits="userSpaceOnUse" color-interpolation-filters="sRGB">
<feFlood flood-opacity="0" result="BackgroundImageFix"/>
<feColorMatrix in="SourceAlpha" type="matrix" values="0 0 0 0 0 0 0 0 0 0 0 0 0 0 0 0 0 0 127 0" result="hardAlpha"/>
<feOffset dy="4"/>
<feGaussianBlur stdDeviation="2"/>
<feComposite in2="hardAlpha" operator="out"/>
<feColorMatrix type="matrix" values="0 0 0 0 0 0 0 0 0 0 0 0 0 0 0 0 0 0 0.25 0"/>
<feBlend mode="normal" in2="BackgroundImageFix" result="effect1_dropShadow_341_27941"/>
<feBlend mode="normal" in="SourceGraphic" in2="effect1_dropShadow_341_27941" result="shape"/>
</filter>
<clipPath id="clip0_341_27941">
<rect width="620" height="620" fill="white"/>
</clipPath>
</defs>
</svg>
