<svg width="620" height="620" viewBox="0 0 620 620" fill="none" xmlns="http://www.w3.org/2000/svg">
<g clip-path="url(#clip0_341_28422)">
<mask id="mask0_341_28422" style="mask-type:luminance" maskUnits="userSpaceOnUse" x="10" y="10" width="600" height="600">
<path d="M580 10H40C23.4315 10 10 23.4315 10 40V580C10 596.569 23.4315 610 40 610H580C596.569 610 610 596.569 610 580V40C610 23.4315 596.569 10 580 10Z" fill="white"/>
</mask>
<g mask="url(#mask0_341_28422)">
<path d="M580 10H40C23.4315 10 10 23.4315 10 40V580C10 596.569 23.4315 610 40 610H580C596.569 610 610 596.569 610 580V40C610 23.4315 596.569 10 580 10Z" fill="black"/>
<path d="M681 333H6V623H681V333Z" fill="#C1C1C1"/>
<path d="M162.69 81.4107L59.4553 8.53572L-17.9707 -35V25.5714L122.134 123.054L188.499 227.161L265.925 336H320L216.765 147.661L162.69 81.4107Z" fill="#939393"/>
<path d="M121.626 88.9729L18.7656 18.2626L-58.3799 -23.98V34.7923L81.2167 129.379L147.341 230.394L224.487 336H278.366L175.506 153.255L121.626 88.9729Z" fill="#939393"/>
<path d="M67.7465 88.9729L-35.1141 18.2626L-112.26 -23.98V34.7923L27.337 129.379L93.4617 230.394L170.607 336H224.486L121.626 153.255L67.7465 88.9729Z" fill="#939393"/>
<path d="M1.55885 100.316L-106.164 32.8526L-186.957 -7.4502V48.6233L-40.7609 138.866L28.4897 235.243L109.282 336H171.831L57.9853 161.646L1.55885 100.316Z" fill="#939393"/>
<path d="M-44.9104 88.9729L-147.771 18.2626L-224.916 -23.98V34.7923L-85.3199 129.379L-19.1953 230.394L57.9502 336H111.83L8.96895 153.255L-44.9104 88.9729Z" fill="#939393"/>
<path d="M-88.9939 88.9729L-191.855 18.2626L-269 -23.98V34.7923L-129.403 129.379L-63.2787 230.394L13.8667 336H67.7461L-35.1145 153.255L-88.9939 88.9729Z" fill="#939393"/>
<path d="M513.5 324.3H502V181.5L510 306.45L513.5 181.5L520.5 306.45L524.5 181.5L530 324.3H513.5Z" fill="#535353"/>
<path d="M439.5 315.8H428V173L436 297.95L439.5 173L446.5 297.95L450.5 173L456 315.8H439.5Z" fill="#535353"/>
<path d="M593.5 322.6H582V179.8L590 304.75L593.5 179.8L600.5 304.75L604.5 179.8L610 322.6H593.5Z" fill="#535353"/>
<path d="M327.5 320.9H316V178.1L324 303.05L327.5 178.1L334.5 303.05L338.5 178.1L344 320.9H327.5Z" fill="#535353"/>
<path d="M485.5 324.3H474V181.5L482 306.45L485.5 181.5L492.5 306.45L496.5 181.5L502 324.3H485.5Z" fill="#535353"/>
<path d="M411.5 315.8H400V173L408 297.95L411.5 173L418.5 297.95L422.5 173L428 315.8H411.5Z" fill="#535353"/>
<path d="M565.5 322.6H554V179.8L562 304.75L565.5 179.8L572.5 304.75L576.5 179.8L582 322.6H565.5Z" fill="#535353"/>
<path d="M299.5 320.9H288V178.1L296 303.05L299.5 178.1L306.5 303.05L310.5 178.1L316 320.9H299.5Z" fill="#535353"/>
<path d="M457.5 324.3H446V181.5L454 306.45L457.5 181.5L464.5 306.45L468.5 181.5L474 324.3H457.5Z" fill="#535353"/>
<path d="M383.5 315.8H372V173L380 297.95L383.5 173L390.5 297.95L394.5 173L400 315.8H383.5Z" fill="#535353"/>
<path d="M537.5 322.6H526V179.8L534 304.75L537.5 179.8L544.5 304.75L548.5 179.8L554 322.6H537.5Z" fill="#535353"/>
<path d="M271.5 320.9H260V178.1L268 303.05L271.5 178.1L278.5 303.05L282.5 178.1L288 320.9H271.5Z" fill="#535353"/>
<path d="M429.5 324.3H418V181.5L426 306.45L429.5 181.5L436.5 306.45L440.5 181.5L446 324.3H429.5Z" fill="#535353"/>
<path d="M355.5 315.8H344V173L352 297.95L355.5 173L362.5 297.95L366.5 173L372 315.8H355.5Z" fill="#535353"/>
<path d="M509.5 322.6H498V179.8L506 304.75L509.5 179.8L516.5 304.75L520.5 179.8L526 322.6H509.5Z" fill="#535353"/>
<path d="M243.5 320.9H232V178.1L240 303.05L243.5 178.1L250.5 303.05L254.5 178.1L260 320.9H243.5Z" fill="#535353"/>
<path d="M411.5 341.3H400V198.5L408 323.45L411.5 198.5L418.5 323.45L422.5 198.5L428 341.3H411.5Z" fill="#535353"/>
<path d="M337.5 332.8H326V190L334 314.95L337.5 190L344.5 314.95L348.5 190L354 332.8H337.5Z" fill="#535353"/>
<path d="M491.5 339.6H480V196.8L488 321.75L491.5 196.8L498.5 321.75L502.5 196.8L508 339.6H491.5Z" fill="#535353"/>
<path d="M225.5 337.9H214V195.1L222 320.05L225.5 195.1L232.5 320.05L236.5 195.1L242 337.9H225.5Z" fill="#535353"/>
<path d="M443.5 324.3H432V181.5L440 306.45L443.5 181.5L450.5 306.45L454.5 181.5L460 324.3H443.5Z" fill="#535353"/>
<path d="M369.5 315.8H358V173L366 297.95L369.5 173L376.5 297.95L380.5 173L386 315.8H369.5Z" fill="#535353"/>
<path d="M523.5 322.6H512V179.8L520 304.75L523.5 179.8L530.5 304.75L534.5 179.8L540 322.6H523.5Z" fill="#535353"/>
<path d="M257.5 320.9H246V178.1L254 303.05L257.5 178.1L264.5 303.05L268.5 178.1L274 320.9H257.5Z" fill="#535353"/>
<path d="M463.5 324.3H452V181.5L460 306.45L463.5 181.5L470.5 306.45L474.5 181.5L480 324.3H463.5Z" fill="#535353"/>
<path d="M389.5 315.8H378V173L386 297.95L389.5 173L396.5 297.95L400.5 173L406 315.8H389.5Z" fill="#535353"/>
<path d="M543.5 322.6H532V179.8L540 304.75L543.5 179.8L550.5 304.75L554.5 179.8L560 322.6H543.5Z" fill="#535353"/>
<path d="M277.5 320.9H266V178.1L274 303.05L277.5 178.1L284.5 303.05L288.5 178.1L294 320.9H277.5Z" fill="#535353"/>
<path d="M453.5 343H442V200.2L450 325.15L453.5 200.2L460.5 325.15L464.5 200.2L470 343H453.5Z" fill="#535353"/>
<path d="M379.5 334.5H368V191.7L376 316.65L379.5 191.7L386.5 316.65L390.5 191.7L396 334.5H379.5Z" fill="#535353"/>
<path d="M533.5 341.3H522V198.5L530 323.45L533.5 198.5L540.5 323.45L544.5 198.5L550 341.3H533.5Z" fill="#535353"/>
<path d="M267.5 339.6H256V196.8L264 321.75L267.5 196.8L274.5 321.75L278.5 196.8L284 339.6H267.5Z" fill="#535353"/>
<path d="M485.5 324.3H474V181.5L482 306.45L485.5 181.5L492.5 306.45L496.5 181.5L502 324.3H485.5Z" fill="#535353"/>
<path d="M411.5 315.8H400V173L408 297.95L411.5 173L418.5 297.95L422.5 173L428 315.8H411.5Z" fill="#535353"/>
<path d="M565.5 322.6H554V179.8L562 304.75L565.5 179.8L572.5 304.75L576.5 179.8L582 322.6H565.5Z" fill="#535353"/>
<path d="M299.5 320.9H288V178.1L296 303.05L299.5 178.1L306.5 303.05L310.5 178.1L316 320.9H299.5Z" fill="#535353"/>
<path d="M491.5 343H480V200.2L488 325.15L491.5 200.2L498.5 325.15L502.5 200.2L508 343H491.5Z" fill="#535353"/>
<path d="M417.5 334.5H406V191.7L414 316.65L417.5 191.7L424.5 316.65L428.5 191.7L434 334.5H417.5Z" fill="#535353"/>
<path d="M571.5 341.3H560V198.5L568 323.45L571.5 198.5L578.5 323.45L582.5 198.5L588 341.3H571.5Z" fill="#535353"/>
<path d="M305.5 339.6H294V196.8L302 321.75L305.5 196.8L312.5 321.75L316.5 196.8L322 339.6H305.5Z" fill="#535353"/>
<path d="M261.5 346.3H250V203.5L258 328.45L261.5 203.5L268.5 328.45L272.5 203.5L278 346.3H261.5Z" fill="#535353"/>
<path d="M187.5 337.8H176V195L184 319.95L187.5 195L194.5 319.95L198.5 195L204 337.8H187.5Z" fill="#535353"/>
<path d="M341.5 344.6H330V201.8L338 326.75L341.5 201.8L348.5 326.75L352.5 201.8L358 344.6H341.5Z" fill="#535353"/>
<path d="M75.5 342.9H64V200.1L72 325.05L75.5 200.1L82.5 325.05L86.5 200.1L92 342.9H75.5Z" fill="#535353"/>
<path d="M233.5 346.3H222V203.5L230 328.45L233.5 203.5L240.5 328.45L244.5 203.5L250 346.3H233.5Z" fill="#535353"/>
<path d="M159.5 337.8H148V195L156 319.95L159.5 195L166.5 319.95L170.5 195L176 337.8H159.5Z" fill="#535353"/>
<path d="M313.5 344.6H302V201.8L310 326.75L313.5 201.8L320.5 326.75L324.5 201.8L330 344.6H313.5Z" fill="#535353"/>
<path d="M47.5 342.9H36V200.1L44 325.05L47.5 200.1L54.5 325.05L58.5 200.1L64 342.9H47.5Z" fill="#535353"/>
<path d="M205.5 346.3H194V203.5L202 328.45L205.5 203.5L212.5 328.45L216.5 203.5L222 346.3H205.5Z" fill="#535353"/>
<path d="M131.5 337.8H120V195L128 319.95L131.5 195L138.5 319.95L142.5 195L148 337.8H131.5Z" fill="#535353"/>
<path d="M285.5 344.6H274V201.8L282 326.75L285.5 201.8L292.5 326.75L296.5 201.8L302 344.6H285.5Z" fill="#535353"/>
<path d="M19.5 342.9H8V200.1L16 325.05L19.5 200.1L26.5 325.05L30.5 200.1L36 342.9H19.5Z" fill="#535353"/>
<path d="M177.5 346.3H166V203.5L174 328.45L177.5 203.5L184.5 328.45L188.5 203.5L194 346.3H177.5Z" fill="#535353"/>
<path d="M103.5 337.8H92V195L100 319.95L103.5 195L110.5 319.95L114.5 195L120 337.8H103.5Z" fill="#535353"/>
<path d="M257.5 344.6H246V201.8L254 326.75L257.5 201.8L264.5 326.75L268.5 201.8L274 344.6H257.5Z" fill="#535353"/>
<path d="M159.5 363.3H148V220.5L156 345.45L159.5 220.5L166.5 345.45L170.5 220.5L176 363.3H159.5Z" fill="#535353"/>
<path d="M85.5 354.8H74V212L82 336.95L85.5 212L92.5 336.95L96.5 212L102 354.8H85.5Z" fill="#535353"/>
<path d="M239.5 361.6H228V218.8L236 343.75L239.5 218.8L246.5 343.75L250.5 218.8L256 361.6H239.5Z" fill="#535353"/>
<path d="M191.5 346.3H180V203.5L188 328.45L191.5 203.5L198.5 328.45L202.5 203.5L208 346.3H191.5Z" fill="#535353"/>
<path d="M117.5 337.8H106V195L114 319.95L117.5 195L124.5 319.95L128.5 195L134 337.8H117.5Z" fill="#535353"/>
<path d="M271.5 344.6H260V201.8L268 326.75L271.5 201.8L278.5 326.75L282.5 201.8L288 344.6H271.5Z" fill="#535353"/>
<path d="M5.5 342.9H-6V200.1L2 325.05L5.5 200.1L12.5 325.05L16.5 200.1L22 342.9H5.5Z" fill="#535353"/>
<path d="M211.5 346.3H200V203.5L208 328.45L211.5 203.5L218.5 328.45L222.5 203.5L228 346.3H211.5Z" fill="#535353"/>
<path d="M137.5 337.8H126V195L134 319.95L137.5 195L144.5 319.95L148.5 195L154 337.8H137.5Z" fill="#535353"/>
<path d="M291.5 344.6H280V201.8L288 326.75L291.5 201.8L298.5 326.75L302.5 201.8L308 344.6H291.5Z" fill="#535353"/>
<path d="M25.5 342.9H14V200.1L22 325.05L25.5 200.1L32.5 325.05L36.5 200.1L42 342.9H25.5Z" fill="#535353"/>
<path d="M201.5 365H190V222.2L198 347.15L201.5 222.2L208.5 347.15L212.5 222.2L218 365H201.5Z" fill="#535353"/>
<path d="M127.5 356.5H116V213.7L124 338.65L127.5 213.7L134.5 338.65L138.5 213.7L144 356.5H127.5Z" fill="#535353"/>
<path d="M281.5 363.3H270V220.5L278 345.45L281.5 220.5L288.5 345.45L292.5 220.5L298 363.3H281.5Z" fill="#535353"/>
<path d="M15.5 361.6H4V218.8L12 343.75L15.5 218.8L22.5 343.75L26.5 218.8L32 361.6H15.5Z" fill="#535353"/>
<path d="M233.5 346.3H222V203.5L230 328.45L233.5 203.5L240.5 328.45L244.5 203.5L250 346.3H233.5Z" fill="#535353"/>
<path d="M159.5 337.8H148V195L156 319.95L159.5 195L166.5 319.95L170.5 195L176 337.8H159.5Z" fill="#535353"/>
<path d="M313.5 344.6H302V201.8L310 326.75L313.5 201.8L320.5 326.75L324.5 201.8L330 344.6H313.5Z" fill="#535353"/>
<path d="M47.5 342.9H36V200.1L44 325.05L47.5 200.1L54.5 325.05L58.5 200.1L64 342.9H47.5Z" fill="#535353"/>
<path d="M239.5 365H228V222.2L236 347.15L239.5 222.2L246.5 347.15L250.5 222.2L256 365H239.5Z" fill="#535353"/>
<path d="M165.5 356.5H154V213.7L162 338.65L165.5 213.7L172.5 338.65L176.5 213.7L182 356.5H165.5Z" fill="#535353"/>
<path d="M319.5 363.3H308V220.5L316 345.45L319.5 220.5L326.5 345.45L330.5 220.5L336 363.3H319.5Z" fill="#535353"/>
<path d="M53.5 361.6H42V218.8L50 343.75L53.5 218.8L60.5 343.75L64.5 218.8L70 361.6H53.5Z" fill="#535353"/>
<path d="M438.735 163.346L445.905 167.054L454.867 165.2L456.66 356.167L447.697 371L449.49 358.022L438.735 356.167L431.566 350.605L415.434 358.022L427.981 348.751L431.566 335.773L430.174 340.812L419.019 341.335L424.396 339.481L429.773 337.627L433.358 330.211L438.735 231.946L399.302 213.405L402.887 209.697L436.943 220.822L438.735 215.259V163.346Z" fill="#7C7C7C"/>
<path d="M454.867 165.2H463.829L470.999 157.784V187.449L479.961 185.595L505.055 167.054L506.848 168.908L490.716 181.886L497.886 178.178L530.149 159.638L533.734 161.492L472.791 202.281L479.961 332.065L483.546 337.627L492.508 341.335H488.923H479.961L474.584 348.751L472.791 352.459V363.584L469.207 356.167H456.66L454.867 165.2Z" fill="#7C7C7C"/>
<path d="M411.85 200.427C427.981 207.843 404.679 230.092 399.303 217.114C383.17 230.092 374.208 202.281 386.756 200.427C377.793 185.595 397.509 172.616 399.303 183.741C424.396 174.47 415.434 196.719 411.85 200.427Z" fill="#999999"/>
<path d="M417.759 193.483C433.89 200.899 410.588 223.148 405.212 210.17C389.079 223.148 380.117 195.337 392.665 193.483C383.702 178.651 403.419 165.672 405.212 176.797C430.305 167.526 421.343 189.775 417.759 193.483Z" fill="#999999"/>
<path d="M407.005 193.483C423.135 200.899 399.834 223.148 394.458 210.17C378.325 223.148 369.363 195.337 381.911 193.483C372.948 178.651 392.664 165.672 394.458 176.797C419.551 167.526 410.588 189.775 407.005 193.483Z" fill="#999999"/>
<path d="M550.399 160.11C566.53 167.526 543.228 189.775 537.852 176.797C521.719 189.775 512.757 161.964 525.305 160.11C516.342 145.278 536.059 132.299 537.852 143.424C562.945 134.153 553.983 156.402 550.399 160.11Z" fill="#999999"/>
<path d="M485.802 117.498C525.53 141.363 468.141 212.961 454.901 171.196C415.167 212.961 393.095 123.465 423.999 117.498C401.924 69.7666 450.483 28.0005 454.901 63.8002C516.701 33.967 494.628 105.564 485.802 117.498Z" fill="#999999"/>
<path d="M509.186 95.1512C548.914 119.016 491.525 190.614 478.285 148.849C438.551 190.614 416.479 101.118 447.383 95.1512C425.308 47.4195 473.867 5.65337 478.285 41.453C540.085 11.6199 518.012 83.2175 509.186 95.1512Z" fill="#999999"/>
<path d="M473.87 95.1512C513.597 119.016 456.209 190.614 442.968 148.849C403.234 190.614 381.162 101.118 412.067 95.1512C389.991 47.4195 438.551 5.65337 442.968 41.453C504.768 11.6199 482.696 83.2175 473.87 95.1512Z" fill="#999999"/>
<path d="M390.735 151.346L397.905 155.054L406.867 153.2L408.66 344.167L399.697 359L401.49 346.022L390.735 344.167L383.566 338.605L367.434 346.022L379.981 336.751L383.566 323.773L382.174 328.812L371.019 329.335L376.396 327.481L381.773 325.627L385.358 318.211L390.735 219.946L351.302 201.405L354.887 197.697L388.943 208.822L390.735 203.259V151.346Z" fill="#8F8F8F"/>
<path d="M406.867 153.2H415.829L422.999 145.784V175.449L431.961 173.595L457.055 155.054L458.848 156.908L442.716 169.886L449.886 166.178L482.149 147.638L485.734 149.492L424.791 190.281L431.961 320.065L435.546 325.627L444.508 329.335H440.923H431.961L426.584 336.751L424.791 340.459V351.584L421.207 344.167H408.66L406.867 153.2Z" fill="#8F8F8F"/>
<path d="M363.85 188.427C379.981 195.843 356.679 218.092 351.303 205.114C335.17 218.092 326.208 190.281 338.756 188.427C329.793 173.595 349.509 160.616 351.303 171.741C376.396 162.47 367.434 184.719 363.85 188.427Z" fill="#858585"/>
<path d="M369.759 181.483C385.89 188.899 362.588 211.148 357.212 198.17C341.079 211.148 332.117 183.337 344.665 181.483C335.702 166.651 355.419 153.672 357.212 164.797C382.305 155.526 373.343 177.775 369.759 181.483Z" fill="#858585"/>
<path d="M359.005 181.483C375.135 188.899 351.834 211.148 346.458 198.17C330.325 211.148 321.363 183.337 333.911 181.483C324.948 166.651 344.664 153.672 346.458 164.797C371.551 155.526 362.588 177.775 359.005 181.483Z" fill="#858585"/>
<path d="M502.399 148.11C518.53 155.526 495.228 177.775 489.852 164.797C473.719 177.775 464.757 149.964 477.305 148.11C468.342 133.278 488.059 120.299 489.852 131.424C514.945 122.153 505.983 144.402 502.399 148.11Z" fill="#858585"/>
<path d="M437.802 105.498C477.53 129.363 420.141 200.961 406.901 159.196C367.167 200.961 345.095 111.465 375.999 105.498C353.924 57.7666 402.483 16.0005 406.901 51.8002C468.701 21.967 446.628 93.5646 437.802 105.498Z" fill="#858585"/>
<path d="M461.186 83.1512C500.914 107.016 443.525 178.614 430.285 136.849C390.551 178.614 368.479 89.1177 399.383 83.1512C377.308 35.4195 425.867 -6.34663 430.285 29.453C492.085 -0.380089 470.012 71.2175 461.186 83.1512Z" fill="#858585"/>
<path d="M425.87 83.1512C465.597 107.016 408.209 178.614 394.968 136.849C355.234 178.614 333.162 89.1177 364.067 83.1512C341.991 35.4195 390.551 -6.34663 394.968 29.453C456.768 -0.380089 434.696 71.2175 425.87 83.1512Z" fill="#858585"/>
<path d="M276.781 150.346L284.07 154.054L293.181 152.2L295.004 343.167L285.892 358L287.715 345.022L276.781 343.167L269.491 337.605L253.091 345.022L265.847 335.751L269.491 322.773L268.076 327.812L256.735 328.335L262.202 326.481L267.669 324.627L271.314 317.211L276.781 218.946L236.69 200.405L240.335 196.697L274.958 207.822L276.781 202.259V150.346Z" fill="#878787"/>
<path d="M293.181 152.2H302.293L309.582 144.784V174.449L318.694 172.595L344.206 154.054L346.028 155.908L329.628 168.886L336.917 165.178L369.718 146.638L373.363 148.492L311.404 189.281L318.694 319.065L322.338 324.627L331.45 328.335H327.805H318.694L313.227 335.751L311.404 339.459V350.584L307.76 343.167H295.004L293.181 152.2Z" fill="#878787"/>
<path d="M249.447 187.427C265.847 194.843 242.157 217.092 236.691 204.114C220.289 217.092 211.178 189.281 223.935 187.427C214.822 172.595 234.868 159.616 236.691 170.741C262.202 161.47 253.091 183.719 249.447 187.427Z" fill="#919191"/>
<path d="M255.455 180.483C271.855 187.899 248.165 210.148 242.699 197.17C226.297 210.148 217.186 182.337 229.943 180.483C220.83 165.651 240.875 152.672 242.699 163.797C268.21 154.526 259.098 176.775 255.455 180.483Z" fill="#919191"/>
<path d="M244.522 180.483C260.921 187.899 237.231 210.148 231.765 197.17C215.363 210.148 206.252 182.337 219.009 180.483C209.897 165.651 229.942 152.672 231.765 163.797C257.276 154.526 248.165 176.775 244.522 180.483Z" fill="#919191"/>
<path d="M390.306 147.11C406.706 154.526 383.016 176.775 377.55 163.797C361.148 176.775 352.037 148.964 364.794 147.11C355.681 132.278 375.727 119.299 377.55 130.424C403.061 121.153 393.95 143.402 390.306 147.11Z" fill="#919191"/>
<path d="M324.632 104.498C365.022 128.363 306.677 199.961 293.216 158.196C252.82 199.961 230.38 110.465 261.799 104.498C239.356 56.7666 288.724 15.0005 293.216 50.8002C356.046 20.967 333.605 92.5646 324.632 104.498Z" fill="#919191"/>
<path d="M348.406 82.1512C388.795 106.016 330.45 177.614 316.989 135.849C276.593 177.614 254.153 88.1177 285.572 82.1512C263.129 34.4195 312.498 -7.34663 316.989 28.453C379.819 -1.38008 357.379 70.2175 348.406 82.1512Z" fill="#919191"/>
<path d="M312.501 82.1512C352.891 106.016 294.545 177.614 281.084 135.849C240.688 177.614 218.248 88.1177 249.668 82.1512C227.225 34.4195 276.593 -7.34663 281.084 28.453C343.914 -1.38008 321.474 70.2175 312.501 82.1512Z" fill="#919191"/>
<path d="M67.7807 154.346L75.0699 158.054L84.1814 156.2L86.0037 347.167L76.8922 362L78.7145 349.022L67.7807 347.167L60.4914 341.605L44.0907 349.022L56.8468 339.751L60.4914 326.773L59.0763 331.812L47.7353 332.335L53.2022 330.481L58.6691 328.627L62.3138 321.211L67.7807 222.946L27.6899 204.405L31.3346 200.697L65.9584 211.822L67.7807 206.259V154.346Z" fill="#878787"/>
<path d="M84.1814 156.2H93.2929L100.582 148.784V178.449L109.694 176.595L135.206 158.054L137.028 159.908L120.628 172.886L127.917 169.178L160.718 150.638L164.363 152.492L102.404 193.281L109.694 323.065L113.338 328.627L122.45 332.335H118.805H109.694L104.227 339.751L102.404 343.459V354.584L98.7599 347.167H86.0037L84.1814 156.2Z" fill="#878787"/>
<path d="M40.4472 191.427C56.8467 198.843 33.1568 221.092 27.6911 208.114C11.289 221.092 2.17775 193.281 14.9349 191.427C5.82236 176.595 25.8675 163.616 27.6911 174.741C53.2021 165.47 44.0906 187.719 40.4472 191.427Z" fill="#919191"/>
<path d="M46.4551 184.483C62.8546 191.899 39.1647 214.148 33.699 201.17C17.2969 214.148 8.18557 186.337 20.9428 184.483C11.8302 169.651 31.8755 156.672 33.699 167.797C59.21 158.526 50.0985 180.775 46.4551 184.483Z" fill="#919191"/>
<path d="M35.5214 184.483C51.9209 191.899 28.231 214.148 22.7653 201.17C6.36322 214.148 -2.74805 186.337 10.0092 184.483C0.896564 169.651 20.9418 156.672 22.7653 167.797C48.2763 158.526 39.1648 180.775 35.5214 184.483Z" fill="#919191"/>
<path d="M181.306 151.11C197.706 158.526 174.016 180.775 168.55 167.797C152.148 180.775 143.037 152.964 155.794 151.11C146.681 136.278 166.727 123.299 168.55 134.424C194.061 125.153 184.95 147.402 181.306 151.11Z" fill="#919191"/>
<path d="M115.632 108.498C156.022 132.363 97.6768 203.961 84.2156 162.196C43.8195 203.961 21.3797 114.465 52.799 108.498C30.3559 60.7666 79.7245 19.0005 84.2156 54.8002C147.046 24.967 124.605 96.5646 115.632 108.498Z" fill="#919191"/>
<path d="M139.406 86.1512C179.795 110.016 121.45 181.614 107.989 139.849C67.5929 181.614 45.1531 92.1177 76.5724 86.1512C54.1293 38.4195 103.498 -3.34663 107.989 32.453C170.819 2.61992 148.379 74.2175 139.406 86.1512Z" fill="#919191"/>
<path d="M103.501 86.1512C143.891 110.016 85.5455 181.614 72.0843 139.849C31.6882 181.614 9.24832 92.1177 40.6676 86.1512C18.2245 38.4195 67.5931 -3.34663 72.0843 32.453C134.914 2.61992 112.474 74.2175 103.501 86.1512Z" fill="#919191"/>
<path d="M143.781 144.346L151.07 148.054L160.181 146.2L162.004 337.167L152.892 352L154.715 339.022L143.781 337.167L136.491 331.605L120.091 339.022L132.847 329.751L136.491 316.773L135.076 321.812L123.735 322.335L129.202 320.481L134.669 318.627L138.314 311.211L143.781 212.946L103.69 194.405L107.335 190.697L141.958 201.822L143.781 196.259V144.346Z" fill="#878787"/>
<path d="M160.181 146.2H169.293L176.582 138.784V168.449L185.694 166.595L211.206 148.054L213.028 149.908L196.628 162.886L203.917 159.178L236.718 140.638L240.363 142.492L178.404 183.281L185.694 313.065L189.338 318.627L198.45 322.335H194.805H185.694L180.227 329.751L178.404 333.459V344.584L174.76 337.167H162.004L160.181 146.2Z" fill="#878787"/>
<path d="M116.447 181.427C132.847 188.843 109.157 211.092 103.691 198.114C87.2891 211.092 78.1778 183.281 90.935 181.427C81.8224 166.595 101.868 153.616 103.691 164.741C129.202 155.47 120.091 177.719 116.447 181.427Z" fill="#8C8C8C" fill-opacity="0.6"/>
<path d="M122.455 174.483C138.855 181.899 115.165 204.148 109.699 191.17C93.2969 204.148 84.1856 176.337 96.9428 174.483C87.8302 159.651 107.875 146.672 109.699 157.797C135.21 148.526 126.098 170.775 122.455 174.483Z" fill="#8C8C8C" fill-opacity="0.6"/>
<path d="M111.522 174.483C127.921 181.899 104.231 204.148 98.7653 191.17C82.3632 204.148 73.2519 176.337 86.0092 174.483C76.8965 159.651 96.9418 146.672 98.7653 157.797C124.276 148.526 115.165 170.775 111.522 174.483Z" fill="#8C8C8C" fill-opacity="0.6"/>
<path d="M257.306 141.11C273.706 148.526 250.016 170.775 244.55 157.797C228.148 170.775 219.037 142.964 231.794 141.11C222.681 126.278 242.727 113.299 244.55 124.424C270.061 115.153 260.95 137.402 257.306 141.11Z" fill="#8C8C8C" fill-opacity="0.6"/>
<path d="M191.632 98.4983C232.022 122.363 173.677 193.961 160.216 152.196C119.82 193.961 97.3798 104.465 128.799 98.4983C106.356 50.7666 155.724 9.00051 160.216 44.8002C223.046 14.967 200.605 86.5646 191.632 98.4983Z" fill="#8C8C8C" fill-opacity="0.6"/>
<path d="M215.406 76.1512C255.795 100.016 197.45 171.614 183.989 129.849C143.593 171.614 121.153 82.1177 152.572 76.1512C130.129 28.4195 179.498 -13.3466 183.989 22.453C246.819 -7.3801 224.379 64.2175 215.406 76.1512Z" fill="#8C8C8C" fill-opacity="0.6"/>
<path d="M179.501 76.1512C219.891 100.016 161.545 171.614 148.084 129.849C107.688 171.614 85.2483 82.1177 116.668 76.1512C94.2244 28.4195 143.593 -13.3466 148.084 22.453C210.914 -7.3801 188.474 64.2175 179.501 76.1512Z" fill="#8C8C8C" fill-opacity="0.6"/>
<path d="M44.7353 158.216L51.905 161.784L60.8671 160L62.6596 343.73L59 381.5L56.5 382V359.5L55.4898 345.513L43.5 356L41 361L44.7353 366L39.358 362L36.1735 370.5V354.5L44.7353 343.73L37.5655 338.378L21.4336 345.513L33.9807 336.594L37.5655 324.108L36.1735 328.956L25.0185 329.459L30.3958 327.676L35.7731 325.892L39.358 318.757L44.7353 224.216L5.30176 206.378L8.88662 202.811L42.9428 213.513L44.7353 208.162V158.216Z" fill="#242424"/>
<path d="M60.8672 160H69.8294L76.9991 152.865V181.405L85.9613 179.622L111.055 161.784L112.848 163.567L96.7159 176.054L103.886 172.486L136.149 154.649L139.734 156.432L78.7916 195.676L85.9613 320.54L89.5462 325.892L104.5 326.5L107 328L103 327.5L98.5083 329.459H94.9234H85.9613L80.584 336.594L78.7916 340.162V350.865L75.2067 343.73H62.6597L60.8672 160Z" fill="#242424"/>
<path d="M17.8499 193.892C33.9806 201.027 10.679 222.433 5.3029 209.946C-10.8303 222.433 -19.7922 195.676 -7.24413 193.892C-16.2074 179.622 3.50925 167.135 5.3029 177.838C30.3957 168.919 21.4335 190.324 17.8499 193.892Z" fill="#B4B4B4" fill-opacity="0.8"/>
<path d="M23.7592 187.211C39.8898 194.346 16.5882 215.752 11.2122 203.265C-4.92109 215.752 -13.883 188.995 -1.33491 187.211C-10.2981 172.941 9.41847 160.454 11.2122 171.157C36.305 162.238 27.3428 183.644 23.7592 187.211Z" fill="#B4B4B4" fill-opacity="0.8"/>
<path d="M13.0047 187.211C29.1354 194.346 5.83377 215.752 0.457693 203.265C-15.6755 215.752 -24.6374 188.995 -12.0894 187.211C-21.0526 172.941 -1.33596 160.454 0.457693 171.157C25.5505 162.238 16.5883 183.644 13.0047 187.211Z" fill="#B4B4B4" fill-opacity="0.8"/>
<path d="M156.399 155.103C172.53 162.238 149.228 183.643 143.852 171.157C127.719 183.643 118.757 156.887 131.305 155.103C122.342 140.833 142.059 128.346 143.852 139.049C168.945 130.13 159.983 151.535 156.399 155.103Z" fill="#B4B4B4" fill-opacity="0.8"/>
<path d="M91.8024 114.106C131.53 137.067 74.1414 205.951 60.9008 165.769C21.167 205.951 -0.905019 119.846 29.9992 114.106C7.92401 68.1835 56.4833 28.0003 60.9008 62.4432C122.701 33.7407 100.628 102.625 91.8024 114.106Z" fill="#B4B4B4" fill-opacity="0.8"/>
<path d="M115.186 92.6061C154.914 115.567 97.5252 184.451 84.2846 144.269C44.5508 184.451 22.4788 98.3465 53.383 92.6061C31.3078 46.6835 79.8671 6.50029 84.2846 40.9432C146.085 12.2407 124.012 81.1247 115.186 92.6061Z" fill="#B4B4B4" fill-opacity="0.8"/>
<path d="M79.8698 92.6061C119.597 115.567 62.2087 184.451 48.9682 144.269C9.23431 184.451 -12.8376 98.3465 18.0666 92.6061C-4.00861 46.6835 44.5507 6.50029 48.9682 40.9432C110.768 12.2407 88.6958 81.1247 79.8698 92.6061Z" fill="#B4B4B4" fill-opacity="0.8"/>
<path d="M360.45 172.346L356.387 176.054L351.309 174.2L350.293 365.167L355.372 380L354.356 367.022L360.45 365.167L364.513 359.605L373.654 367.022L366.545 357.751L364.513 344.773L365.302 349.812L371.623 350.335L368.576 348.481L365.529 346.627L363.497 339.211L360.45 240.946L382.796 222.405L380.764 218.697L361.466 229.822L360.45 224.259V172.346Z" fill="#878787"/>
<path d="M351.309 174.2H346.23L342.167 166.784V196.449L337.089 194.595L322.869 176.054L321.853 177.908L330.995 190.886L326.932 187.178L308.649 168.638L306.618 170.492L341.152 211.281L337.089 341.065L335.057 346.627L329.979 350.335H332.01H337.089L340.136 357.751L341.152 361.459V372.584L343.183 365.167H350.293L351.309 174.2Z" fill="#878787"/>
<path d="M375.685 209.427C366.544 216.843 379.749 239.092 382.795 226.114C391.937 239.092 397.016 211.281 389.905 209.427C394.984 194.595 383.811 181.616 382.795 192.741C368.576 183.47 373.654 205.719 375.685 209.427Z" fill="#919191"/>
<path d="M372.336 202.483C363.196 209.899 376.4 232.148 379.446 219.17C388.589 232.148 393.667 204.337 386.556 202.483C391.636 187.651 380.463 174.672 379.446 185.797C365.227 176.526 370.306 198.775 372.336 202.483Z" fill="#919191"/>
<path d="M378.431 202.483C369.29 209.899 382.494 232.148 385.541 219.17C394.683 232.148 399.761 204.337 392.651 202.483C397.73 187.651 386.557 174.672 385.541 185.797C371.321 176.526 376.4 198.775 378.431 202.483Z" fill="#919191"/>
<path d="M297.174 169.11C288.033 176.526 301.237 198.775 304.284 185.797C313.426 198.775 318.504 170.964 311.394 169.11C316.473 154.278 305.3 141.299 304.284 152.424C290.064 143.153 295.143 165.402 297.174 169.11Z" fill="#919191"/>
<path d="M333.779 126.498C311.267 150.363 343.787 221.961 351.29 180.196C373.806 221.961 386.313 132.465 368.801 126.498C381.31 78.7666 353.793 37.0005 351.29 72.8002C316.27 42.967 328.777 114.564 333.779 126.498Z" fill="#919191"/>
<path d="M320.528 104.151C298.016 128.016 330.536 199.614 338.039 157.849C360.555 199.614 373.062 110.118 355.55 104.151C368.059 56.4195 340.542 14.6534 338.039 50.453C303.019 20.6199 315.526 92.2175 320.528 104.151Z" fill="#919191"/>
<path d="M340.541 104.151C318.028 128.016 350.548 199.614 358.051 157.849C380.567 199.614 393.075 110.118 375.562 104.151C388.072 56.4195 360.555 14.6534 358.051 50.453C323.031 20.6199 335.539 92.2175 340.541 104.151Z" fill="#919191"/>
<path d="M490.735 153.346L497.905 157.054L506.867 155.2L508.66 346.167L499.697 361L501.49 348.022L490.735 346.167L483.566 340.605L467.434 348.022L479.981 338.751L483.566 325.773L482.174 330.812L471.019 331.335L476.396 329.481L481.773 327.627L485.358 320.211L490.735 221.946L451.302 203.405L454.887 199.697L488.943 210.822L490.735 205.259V153.346Z" fill="#878787"/>
<path d="M506.867 155.2H515.829L522.999 147.784V177.449L531.961 175.595L557.055 157.054L558.848 158.908L542.716 171.886L549.886 168.178L582.149 149.638L585.734 151.492L524.791 192.281L531.961 322.065L535.546 327.627L544.508 331.335H540.923H531.961L526.584 338.751L524.791 342.459V353.584L521.207 346.167H508.66L506.867 155.2Z" fill="#878787"/>
<path d="M463.85 190.427C479.981 197.843 456.679 220.092 451.303 207.114C435.17 220.092 426.208 192.281 438.756 190.427C429.793 175.595 449.509 162.616 451.303 173.741C476.396 164.47 467.434 186.719 463.85 190.427Z" fill="#B4B4B4"/>
<path d="M469.759 183.483C485.89 190.899 462.588 213.148 457.212 200.17C441.079 213.148 432.117 185.337 444.665 183.483C435.702 168.651 455.419 155.672 457.212 166.797C482.305 157.526 473.343 179.775 469.759 183.483Z" fill="#B4B4B4"/>
<path d="M459.005 183.483C475.135 190.899 451.834 213.148 446.458 200.17C430.325 213.148 421.363 185.337 433.911 183.483C424.948 168.651 444.664 155.672 446.458 166.797C471.551 157.526 462.588 179.775 459.005 183.483Z" fill="#B4B4B4"/>
<path d="M602.399 150.11C618.53 157.526 595.228 179.775 589.852 166.797C573.719 179.775 564.757 151.964 577.305 150.11C568.342 135.278 588.059 122.299 589.852 133.424C614.945 124.153 605.983 146.402 602.399 150.11Z" fill="#B4B4B4"/>
<path d="M537.802 107.498C577.53 131.363 520.141 202.961 506.901 161.196C467.167 202.961 445.095 113.465 475.999 107.498C453.924 59.7666 502.483 18.0005 506.901 53.8002C568.701 23.967 546.628 95.5646 537.802 107.498Z" fill="#B4B4B4"/>
<path d="M561.186 85.1512C600.914 109.016 543.525 180.614 530.285 138.849C490.551 180.614 468.479 91.1177 499.383 85.1512C477.308 37.4195 525.867 -4.34663 530.285 31.453C592.085 1.61992 570.012 73.2175 561.186 85.1512Z" fill="#B4B4B4"/>
<path d="M525.87 85.1512C565.597 109.016 508.209 180.614 494.968 138.849C455.234 180.614 433.162 91.1177 464.067 85.1512C441.991 37.4195 490.551 -4.34663 494.968 31.453C556.768 1.61992 534.696 73.2175 525.87 85.1512Z" fill="#B4B4B4"/>
<path d="M523.5 345H512V261L520 334.5L523.5 261L530.5 334.5L534.5 261L540 345H523.5Z" fill="#B1B1B1"/>
<path d="M449.5 340H438V256L446 329.5L449.5 256L456.5 329.5L460.5 256L466 340H449.5Z" fill="#B1B1B1"/>
<path d="M603.5 344H592V260L600 333.5L603.5 260L610.5 333.5L614.5 260L620 344H603.5Z" fill="#B1B1B1"/>
<path d="M337.5 343H326V259L334 332.5L337.5 259L344.5 332.5L348.5 259L354 343H337.5Z" fill="#B1B1B1"/>
<path d="M495.5 345H484V261L492 334.5L495.5 261L502.5 334.5L506.5 261L512 345H495.5Z" fill="#B1B1B1"/>
<path d="M421.5 340H410V256L418 329.5L421.5 256L428.5 329.5L432.5 256L438 340H421.5Z" fill="#B1B1B1"/>
<path d="M575.5 344H564V260L572 333.5L575.5 260L582.5 333.5L586.5 260L592 344H575.5Z" fill="#B1B1B1"/>
<path d="M309.5 343H298V259L306 332.5L309.5 259L316.5 332.5L320.5 259L326 343H309.5Z" fill="#B1B1B1"/>
<path d="M467.5 345H456V261L464 334.5L467.5 261L474.5 334.5L478.5 261L484 345H467.5Z" fill="#B1B1B1"/>
<path d="M393.5 340H382V256L390 329.5L393.5 256L400.5 329.5L404.5 256L410 340H393.5Z" fill="#B1B1B1"/>
<path d="M547.5 344H536V260L544 333.5L547.5 260L554.5 333.5L558.5 260L564 344H547.5Z" fill="#B1B1B1"/>
<path d="M281.5 343H270V259L278 332.5L281.5 259L288.5 332.5L292.5 259L298 343H281.5Z" fill="#B1B1B1"/>
<path d="M439.5 345H428V261L436 334.5L439.5 261L446.5 334.5L450.5 261L456 345H439.5Z" fill="#B1B1B1"/>
<path d="M365.5 340H354V256L362 329.5L365.5 256L372.5 329.5L376.5 256L382 340H365.5Z" fill="#B1B1B1"/>
<path d="M519.5 344H508V260L516 333.5L519.5 260L526.5 333.5L530.5 260L536 344H519.5Z" fill="#B1B1B1"/>
<path d="M253.5 343H242V259L250 332.5L253.5 259L260.5 332.5L264.5 259L270 343H253.5Z" fill="#B1B1B1"/>
<path d="M421.5 355H410V271L418 344.5L421.5 271L428.5 344.5L432.5 271L438 355H421.5Z" fill="#B1B1B1"/>
<path d="M347.5 350H336V266L344 339.5L347.5 266L354.5 339.5L358.5 266L364 350H347.5Z" fill="#B1B1B1"/>
<path d="M501.5 354H490V270L498 343.5L501.5 270L508.5 343.5L512.5 270L518 354H501.5Z" fill="#B1B1B1"/>
<path d="M235.5 353H224V269L232 342.5L235.5 269L242.5 342.5L246.5 269L252 353H235.5Z" fill="#B1B1B1"/>
<path d="M453.5 345H442V261L450 334.5L453.5 261L460.5 334.5L464.5 261L470 345H453.5Z" fill="#B1B1B1"/>
<path d="M379.5 340H368V256L376 329.5L379.5 256L386.5 329.5L390.5 256L396 340H379.5Z" fill="#B1B1B1"/>
<path d="M533.5 344H522V260L530 333.5L533.5 260L540.5 333.5L544.5 260L550 344H533.5Z" fill="#B1B1B1"/>
<path d="M267.5 343H256V259L264 332.5L267.5 259L274.5 332.5L278.5 259L284 343H267.5Z" fill="#B1B1B1"/>
<path d="M473.5 345H462V261L470 334.5L473.5 261L480.5 334.5L484.5 261L490 345H473.5Z" fill="#B1B1B1"/>
<path d="M399.5 340H388V256L396 329.5L399.5 256L406.5 329.5L410.5 256L416 340H399.5Z" fill="#B1B1B1"/>
<path d="M553.5 344H542V260L550 333.5L553.5 260L560.5 333.5L564.5 260L570 344H553.5Z" fill="#B1B1B1"/>
<path d="M287.5 343H276V259L284 332.5L287.5 259L294.5 332.5L298.5 259L304 343H287.5Z" fill="#B1B1B1"/>
<path d="M463.5 356H452V272L460 345.5L463.5 272L470.5 345.5L474.5 272L480 356H463.5Z" fill="#B1B1B1"/>
<path d="M389.5 351H378V267L386 340.5L389.5 267L396.5 340.5L400.5 267L406 351H389.5Z" fill="#B1B1B1"/>
<path d="M543.5 355H532V271L540 344.5L543.5 271L550.5 344.5L554.5 271L560 355H543.5Z" fill="#B1B1B1"/>
<path d="M277.5 354H266V270L274 343.5L277.5 270L284.5 343.5L288.5 270L294 354H277.5Z" fill="#B1B1B1"/>
<path d="M495.5 345H484V261L492 334.5L495.5 261L502.5 334.5L506.5 261L512 345H495.5Z" fill="#B1B1B1"/>
<path d="M421.5 340H410V256L418 329.5L421.5 256L428.5 329.5L432.5 256L438 340H421.5Z" fill="#B1B1B1"/>
<path d="M575.5 344H564V260L572 333.5L575.5 260L582.5 333.5L586.5 260L592 344H575.5Z" fill="#B1B1B1"/>
<path d="M309.5 343H298V259L306 332.5L309.5 259L316.5 332.5L320.5 259L326 343H309.5Z" fill="#B1B1B1"/>
<path d="M501.5 356H490V272L498 345.5L501.5 272L508.5 345.5L512.5 272L518 356H501.5Z" fill="#B1B1B1"/>
<path d="M427.5 351H416V267L424 340.5L427.5 267L434.5 340.5L438.5 267L444 351H427.5Z" fill="#B1B1B1"/>
<path d="M581.5 355H570V271L578 344.5L581.5 271L588.5 344.5L592.5 271L598 355H581.5Z" fill="#B1B1B1"/>
<path d="M315.5 354H304V270L312 343.5L315.5 270L322.5 343.5L326.5 270L332 354H315.5Z" fill="#B1B1B1"/>
<path d="M283.5 352.88H272V275.6L280 343.22L283.5 275.6L290.5 343.22L294.5 275.6L300 352.88H283.5Z" fill="#939393"/>
<path d="M209.5 348.28H198V271L206 338.62L209.5 271L216.5 338.62L220.5 271L226 348.28H209.5Z" fill="#939393"/>
<path d="M363.5 351.96H352V274.68L360 342.3L363.5 274.68L370.5 342.3L374.5 274.68L380 351.96H363.5Z" fill="#939393"/>
<path d="M97.5 351.04H86V273.76L94 341.38L97.5 273.76L104.5 341.38L108.5 273.76L114 351.04H97.5Z" fill="#939393"/>
<path d="M255.5 352.88H244V275.6L252 343.22L255.5 275.6L262.5 343.22L266.5 275.6L272 352.88H255.5Z" fill="#939393"/>
<path d="M181.5 348.28H170V271L178 338.62L181.5 271L188.5 338.62L192.5 271L198 348.28H181.5Z" fill="#939393"/>
<path d="M335.5 351.96H324V274.68L332 342.3L335.5 274.68L342.5 342.3L346.5 274.68L352 351.96H335.5Z" fill="#939393"/>
<path d="M69.5 351.04H58V273.76L66 341.38L69.5 273.76L76.5 341.38L80.5 273.76L86 351.04H69.5Z" fill="#939393"/>
<path d="M227.5 352.88H216V275.6L224 343.22L227.5 275.6L234.5 343.22L238.5 275.6L244 352.88H227.5Z" fill="#939393"/>
<path d="M153.5 348.28H142V271L150 338.62L153.5 271L160.5 338.62L164.5 271L170 348.28H153.5Z" fill="#939393"/>
<path d="M307.5 351.96H296V274.68L304 342.3L307.5 274.68L314.5 342.3L318.5 274.68L324 351.96H307.5Z" fill="#939393"/>
<path d="M41.5 351.04H30V273.76L38 341.38L41.5 273.76L48.5 341.38L52.5 273.76L58 351.04H41.5Z" fill="#939393"/>
<path d="M199.5 352.88H188V275.6L196 343.22L199.5 275.6L206.5 343.22L210.5 275.6L216 352.88H199.5Z" fill="#939393"/>
<path d="M125.5 348.28H114V271L122 338.62L125.5 271L132.5 338.62L136.5 271L142 348.28H125.5Z" fill="#939393"/>
<path d="M279.5 351.96H268V274.68L276 342.3L279.5 274.68L286.5 342.3L290.5 274.68L296 351.96H279.5Z" fill="#939393"/>
<path d="M13.5 351.04H2V273.76L10 341.38L13.5 273.76L20.5 341.38L24.5 273.76L30 351.04H13.5Z" fill="#939393"/>
<path d="M181.5 362.08H170V284.8L178 352.42L181.5 284.8L188.5 352.42L192.5 284.8L198 362.08H181.5Z" fill="#939393"/>
<path d="M107.5 357.48H96V280.2L104 347.82L107.5 280.2L114.5 347.82L118.5 280.2L124 357.48H107.5Z" fill="#939393"/>
<path d="M261.5 361.16H250V283.88L258 351.5L261.5 283.88L268.5 351.5L272.5 283.88L278 361.16H261.5Z" fill="#939393"/>
<path d="M-4.5 360.24H-16V282.96L-8 350.58L-4.5 282.96L2.5 350.58L6.5 282.96L12 360.24H-4.5Z" fill="#939393"/>
<path d="M213.5 352.88H202V275.6L210 343.22L213.5 275.6L220.5 343.22L224.5 275.6L230 352.88H213.5Z" fill="#939393"/>
<path d="M139.5 348.28H128V271L136 338.62L139.5 271L146.5 338.62L150.5 271L156 348.28H139.5Z" fill="#939393"/>
<path d="M293.5 351.96H282V274.68L290 342.3L293.5 274.68L300.5 342.3L304.5 274.68L310 351.96H293.5Z" fill="#939393"/>
<path d="M27.5 351.04H16V273.76L24 341.38L27.5 273.76L34.5 341.38L38.5 273.76L44 351.04H27.5Z" fill="#939393"/>
<path d="M233.5 352.88H222V275.6L230 343.22L233.5 275.6L240.5 343.22L244.5 275.6L250 352.88H233.5Z" fill="#939393"/>
<path d="M159.5 348.28H148V271L156 338.62L159.5 271L166.5 338.62L170.5 271L176 348.28H159.5Z" fill="#939393"/>
<path d="M313.5 351.96H302V274.68L310 342.3L313.5 274.68L320.5 342.3L324.5 274.68L330 351.96H313.5Z" fill="#939393"/>
<path d="M47.5 351.04H36V273.76L44 341.38L47.5 273.76L54.5 341.38L58.5 273.76L64 351.04H47.5Z" fill="#939393"/>
<path d="M223.5 363H212V285.72L220 353.34L223.5 285.72L230.5 353.34L234.5 285.72L240 363H223.5Z" fill="#939393"/>
<path d="M149.5 358.4H138V281.12L146 348.74L149.5 281.12L156.5 348.74L160.5 281.12L166 358.4H149.5Z" fill="#939393"/>
<path d="M303.5 362.08H292V284.8L300 352.42L303.5 284.8L310.5 352.42L314.5 284.8L320 362.08H303.5Z" fill="#939393"/>
<path d="M255.5 352.88H244V275.6L252 343.22L255.5 275.6L262.5 343.22L266.5 275.6L272 352.88H255.5Z" fill="#939393"/>
<path d="M181.5 348.28H170V271L178 338.62L181.5 271L188.5 338.62L192.5 271L198 348.28H181.5Z" fill="#939393"/>
<path d="M335.5 351.96H324V274.68L332 342.3L335.5 274.68L342.5 342.3L346.5 274.68L352 351.96H335.5Z" fill="#939393"/>
<path d="M69.5 351.04H58V273.76L66 341.38L69.5 273.76L76.5 341.38L80.5 273.76L86 351.04H69.5Z" fill="#939393"/>
<path d="M261.5 363H250V285.72L258 353.34L261.5 285.72L268.5 353.34L272.5 285.72L278 363H261.5Z" fill="#939393"/>
<path d="M187.5 358.4H176V281.12L184 348.74L187.5 281.12L194.5 348.74L198.5 281.12L204 358.4H187.5Z" fill="#939393"/>
<path d="M341.5 362.08H330V284.8L338 352.42L341.5 284.8L348.5 352.42L352.5 284.8L358 362.08H341.5Z" fill="#939393"/>
<path d="M75.5 361.16H64V283.88L72 351.5L75.5 283.88L82.5 351.5L86.5 283.88L92 361.16H75.5Z" fill="#939393"/>
<path d="M482.735 159.216L489.905 162.784L498.867 161L500.66 344.73L491.697 359L493.49 346.513L482.735 344.73L475.566 339.378L459.434 346.513L471.981 337.594L475.566 325.108L474.174 329.956L463.019 330.459L468.396 328.676L473.773 326.892L477.358 319.757L482.735 225.216L443.302 207.378L446.887 203.811L480.943 214.513L482.735 209.162V159.216Z" fill="#7A7A7A"/>
<path d="M498.867 161H507.829L514.999 153.865V182.405L523.961 180.622L549.055 162.784L550.848 164.567L534.716 177.054L541.886 173.486L574.149 155.649L577.734 157.432L516.791 196.676L523.961 321.54L527.546 326.892L536.508 330.459H532.923H523.961L518.584 337.594L516.791 341.162V351.865L513.207 344.73H500.66L498.867 161Z" fill="#7A7A7A"/>
<path d="M455.85 194.892C471.981 202.027 448.679 223.432 443.303 210.946C427.17 223.432 418.208 196.676 430.756 194.892C421.793 180.622 441.509 168.135 443.303 178.838C468.396 169.919 459.434 191.324 455.85 194.892Z" fill="#BFBFBF"/>
<path d="M461.759 188.211C477.89 195.346 454.588 216.752 449.212 204.265C433.079 216.752 424.117 189.995 436.665 188.211C427.702 173.941 447.419 161.454 449.212 172.157C474.305 163.238 465.343 184.644 461.759 188.211Z" fill="#BFBFBF"/>
<path d="M451.005 188.211C467.135 195.346 443.834 216.752 438.458 204.265C422.325 216.752 413.363 189.995 425.911 188.211C416.948 173.941 436.664 161.454 438.458 172.157C463.551 163.238 454.588 184.644 451.005 188.211Z" fill="#BFBFBF"/>
<path d="M594.399 156.103C610.53 163.238 587.228 184.643 581.852 172.157C565.719 184.643 556.757 157.887 569.305 156.103C560.342 141.833 580.059 129.346 581.852 140.049C606.945 131.13 597.983 152.535 594.399 156.103Z" fill="#BFBFBF"/>
<path d="M529.802 115.106C569.53 138.067 512.141 206.951 498.901 166.769C459.167 206.951 437.095 120.846 467.999 115.106C445.924 69.1835 494.483 29.0003 498.901 63.4432C560.701 34.7407 538.628 103.625 529.802 115.106Z" fill="#BFBFBF"/>
<path d="M553.186 93.6061C592.914 116.567 535.525 185.451 522.285 145.269C482.551 185.451 460.479 99.3465 491.383 93.6061C469.308 47.6835 517.867 7.50029 522.285 41.9432C584.085 13.2407 562.012 82.1247 553.186 93.6061Z" fill="#BFBFBF"/>
<path d="M517.87 93.6061C557.597 116.567 500.209 185.451 486.968 145.269C447.234 185.451 425.162 99.3465 456.067 93.6061C433.991 47.6835 482.551 7.50029 486.968 41.9432C548.768 13.2407 526.696 82.1247 517.87 93.6061Z" fill="#BFBFBF"/>
<path d="M138.735 159.216L145.905 162.784L154.867 161L156.66 344.73L147.697 359L149.49 346.513L138.735 344.73L131.566 339.378L115.434 346.513L127.981 337.594L131.566 325.108L130.174 329.956L119.019 330.459L124.396 328.676L129.773 326.892L133.358 319.757L138.735 225.216L99.3018 207.378L102.887 203.811L136.943 214.513L138.735 209.162V159.216Z" fill="#7A7A7A"/>
<path d="M154.867 161H163.829L170.999 153.865V182.405L179.961 180.622L205.055 162.784L206.848 164.567L190.716 177.054L197.886 173.486L230.149 155.649L233.734 157.432L172.791 196.676L179.961 321.54L183.546 326.892L192.508 330.459H188.923H179.961L174.584 337.594L172.791 341.162V351.865L169.207 344.73H156.66L154.867 161Z" fill="#7A7A7A"/>
<path d="M111.85 194.892C127.981 202.027 104.679 223.432 99.3029 210.946C83.1697 223.432 74.2078 196.676 86.7559 194.892C77.7926 180.622 97.5092 168.135 99.3029 178.838C124.396 169.919 115.434 191.324 111.85 194.892Z" fill="#979797"/>
<path d="M117.759 188.211C133.89 195.346 110.588 216.752 105.212 204.265C89.079 216.752 80.117 189.995 92.6651 188.211C83.7019 173.941 103.419 161.454 105.212 172.157C130.305 163.238 121.343 184.644 117.759 188.211Z" fill="#979797"/>
<path d="M107.005 188.211C123.135 195.346 99.8337 216.752 94.4577 204.265C78.3245 216.752 69.3626 189.995 81.9106 188.211C72.9474 173.941 92.664 161.454 94.4577 172.157C119.551 163.238 110.588 184.644 107.005 188.211Z" fill="#979797"/>
<path d="M250.399 156.103C266.53 163.238 243.228 184.643 237.852 172.157C221.719 184.643 212.757 157.887 225.305 156.103C216.342 141.833 236.059 129.346 237.852 140.049C262.945 131.13 253.983 152.535 250.399 156.103Z" fill="#979797"/>
<path d="M185.802 115.106C225.53 138.067 168.141 206.951 154.901 166.769C115.167 206.951 93.095 120.846 123.999 115.106C101.924 69.1835 150.483 29.0003 154.901 63.4432C216.701 34.7407 194.628 103.625 185.802 115.106Z" fill="#979797"/>
<path d="M209.186 93.6061C248.914 116.567 191.525 185.451 178.285 145.269C138.551 185.451 116.479 99.3465 147.383 93.6061C125.308 47.6835 173.867 7.50029 178.285 41.9432C240.085 13.2407 218.012 82.1247 209.186 93.6061Z" fill="#979797"/>
<path d="M173.87 93.6061C213.597 116.567 156.209 185.451 142.968 145.269C103.234 185.451 81.1623 99.3465 112.067 93.6061C89.9913 47.6835 138.551 7.50029 142.968 41.9432C204.768 13.2407 182.696 82.1247 173.87 93.6061Z" fill="#979797"/>
<path d="M560.32 62.4259C587.558 78.436 621.276 71.6174 635.63 47.1961C649.984 22.7749 639.539 -10.0011 612.301 -26.0112C585.062 -42.0213 551.345 -35.2027 536.99 -10.7814C522.636 13.6398 533.081 46.4158 560.32 62.4259Z" fill="#E2E2E2"/>
<path d="M219.735 149.216L226.905 152.784L235.867 151L237.66 334.73L228.697 349L230.49 336.513L219.735 334.73L212.566 329.378L196.434 336.513L208.981 327.594L212.566 315.108L211.174 319.956L200.019 320.459L205.396 318.676L210.773 316.892L214.358 309.757L219.735 215.216L180.302 197.378L183.887 193.811L217.943 204.513L219.735 199.162V149.216Z" fill="#696969"/>
<path d="M235.867 151H244.829L251.999 143.865V172.405L260.961 170.622L286.055 152.784L287.848 154.567L271.716 167.054L278.886 163.486L311.149 145.649L314.734 147.432L253.791 186.676L260.961 311.54L264.546 316.892L273.508 320.459H269.923H260.961L255.584 327.594L253.791 331.162V341.865L250.207 334.73H237.66L235.867 151Z" fill="#696969"/>
<path d="M192.85 184.892C208.981 192.027 185.679 213.432 180.303 200.946C164.17 213.432 155.208 186.676 167.756 184.892C158.793 170.622 178.509 158.135 180.303 168.838C205.396 159.919 196.434 181.324 192.85 184.892Z" fill="#BFBFBF"/>
<path d="M198.759 178.211C214.89 185.346 191.588 206.752 186.212 194.265C170.079 206.752 161.117 179.995 173.665 178.211C164.702 163.941 184.419 151.454 186.212 162.157C211.305 153.238 202.343 174.644 198.759 178.211Z" fill="#BFBFBF"/>
<path d="M188.005 178.211C204.135 185.346 180.834 206.752 175.458 194.265C159.325 206.752 150.363 179.995 162.911 178.211C153.948 163.941 173.664 151.454 175.458 162.157C200.551 153.238 191.588 174.644 188.005 178.211Z" fill="#BFBFBF"/>
<path d="M331.399 146.103C347.53 153.238 324.228 174.643 318.852 162.157C302.719 174.643 293.757 147.887 306.305 146.103C297.342 131.833 317.059 119.346 318.852 130.049C343.945 121.13 334.983 142.535 331.399 146.103Z" fill="#BFBFBF"/>
<path d="M266.802 105.106C306.53 128.067 249.141 196.951 235.901 156.769C196.167 196.951 174.095 110.846 204.999 105.106C182.924 59.1835 231.483 19.0003 235.901 53.4432C297.701 24.7407 275.628 93.6247 266.802 105.106Z" fill="#BFBFBF"/>
<path d="M290.186 83.6061C329.914 106.567 272.525 175.451 259.285 135.269C219.551 175.451 197.479 89.3465 228.383 83.6061C206.308 37.6835 254.867 -2.49971 259.285 31.9432C321.085 3.2407 299.012 72.1247 290.186 83.6061Z" fill="#BFBFBF"/>
<path d="M254.87 83.6061C294.597 106.567 237.209 175.451 223.968 135.269C184.234 175.451 162.162 89.3465 193.067 83.6061C170.991 37.6835 219.551 -2.49971 223.968 31.9432C285.768 3.2407 263.696 72.1247 254.87 83.6061Z" fill="#BFBFBF"/>
<path d="M533.735 212.216L540.905 215.784L549.867 214L551.66 397.73L542.697 412L544.49 399.513L533.735 397.73L526.566 392.378L510.434 399.513L522.981 390.594L526.566 378.108L525.174 382.956L514.019 383.459L519.396 381.676L524.773 379.892L528.358 372.757L533.735 278.216L494.302 260.378L497.887 256.811L531.943 267.513L533.735 262.162V212.216Z" fill="#7A7A7A"/>
<path d="M549.867 214H558.829L565.999 206.865V235.405L574.961 233.622L600.055 215.784L601.848 217.567L585.716 230.054L592.886 226.486L625.149 208.649L628.734 210.432L567.791 249.676L574.961 374.54L578.546 379.892L587.508 383.459H583.923H574.961L569.584 390.594L567.791 394.162V404.865L564.207 397.73H551.66L549.867 214Z" fill="#7A7A7A"/>
<path d="M506.85 247.892C522.981 255.027 499.679 276.432 494.303 263.946C478.17 276.432 469.208 249.676 481.756 247.892C472.793 233.622 492.509 221.135 494.303 231.838C519.396 222.919 510.434 244.324 506.85 247.892Z" fill="#BFBFBF"/>
<path d="M512.759 241.211C528.89 248.346 505.588 269.752 500.212 257.265C484.079 269.752 475.117 242.995 487.665 241.211C478.702 226.941 498.419 214.454 500.212 225.157C525.305 216.238 516.343 237.644 512.759 241.211Z" fill="#BFBFBF"/>
<path d="M502.005 241.211C518.135 248.346 494.834 269.752 489.458 257.265C473.325 269.752 464.363 242.995 476.911 241.211C467.948 226.941 487.664 214.454 489.458 225.157C514.551 216.238 505.588 237.644 502.005 241.211Z" fill="#BFBFBF"/>
<path d="M645.399 209.103C661.53 216.238 638.228 237.643 632.852 225.157C616.719 237.643 607.757 210.887 620.305 209.103C611.342 194.833 631.059 182.346 632.852 193.049C657.945 184.13 648.983 205.535 645.399 209.103Z" fill="#BFBFBF"/>
<path d="M580.802 168.106C620.53 191.067 563.141 259.951 549.901 219.769C510.167 259.951 488.095 173.846 518.999 168.106C496.924 122.183 545.483 82.0004 549.901 116.443C611.701 87.7408 589.628 156.625 580.802 168.106Z" fill="#BFBFBF"/>
<path d="M604.186 146.606C643.914 169.567 586.525 238.451 573.285 198.269C533.551 238.451 511.479 152.346 542.383 146.606C520.308 100.683 568.867 60.5004 573.285 94.9433C635.085 66.2408 613.012 135.125 604.186 146.606Z" fill="#BFBFBF"/>
<path d="M568.87 146.606C608.597 169.567 551.209 238.451 537.968 198.269C498.234 238.451 476.162 152.346 507.067 146.606C484.991 100.683 533.551 60.5004 537.968 94.9433C599.768 66.2408 577.696 135.125 568.87 146.606Z" fill="#BFBFBF"/>
<path d="M45.7353 215.216L52.905 218.784L61.8671 217L63.6596 400.73L54.6974 415L56.4898 402.513L45.7353 400.73L38.5655 395.378L22.4336 402.513L34.9807 393.594L38.5655 381.108L37.1735 385.956L26.0185 386.459L31.3958 384.676L36.7731 382.892L40.358 375.757L45.7353 281.216L6.30176 263.378L9.88662 259.811L43.9428 270.513L45.7353 265.162V215.216Z" fill="#7A7A7A"/>
<path d="M61.8672 217H70.8294L77.9991 209.865V238.405L86.9613 236.622L112.055 218.784L113.848 220.567L97.7159 233.054L104.886 229.486L137.149 211.649L140.734 213.432L79.7916 252.676L86.9613 377.54L90.5462 382.892L99.5083 386.459H95.9234H86.9613L81.584 393.594L79.7916 397.162V407.865L76.2067 400.73H63.6597L61.8672 217Z" fill="#7A7A7A"/>
<path d="M18.8499 250.892C34.9806 258.027 11.679 279.432 6.30291 266.946C-9.8303 279.432 -18.7922 252.676 -6.24412 250.892C-15.2074 236.622 4.50926 224.135 6.30291 234.838C31.3957 225.919 22.4335 247.324 18.8499 250.892Z" fill="#BFBFBF"/>
<path d="M24.7592 244.211C40.8898 251.346 17.5882 272.752 12.2122 260.265C-3.92109 272.752 -12.883 245.995 -0.334908 244.211C-9.29814 229.941 10.4185 217.454 12.2122 228.157C37.305 219.238 28.3428 240.644 24.7592 244.211Z" fill="#BFBFBF"/>
<path d="M14.0047 244.211C30.1354 251.346 6.83377 272.752 1.4577 260.265C-14.6755 272.752 -23.6374 245.995 -11.0894 244.211C-20.0526 229.941 -0.335961 217.454 1.4577 228.157C26.5505 219.238 17.5883 240.644 14.0047 244.211Z" fill="#BFBFBF"/>
<path d="M157.399 212.103C173.53 219.238 150.228 240.643 144.852 228.157C128.719 240.643 119.757 213.887 132.305 212.103C123.342 197.833 143.059 185.346 144.852 196.049C169.945 187.13 160.983 208.535 157.399 212.103Z" fill="#BFBFBF"/>
<path d="M92.8024 171.106C132.53 194.067 75.1414 262.951 61.9008 222.769C22.167 262.951 0.0949802 176.846 30.9992 171.106C8.92401 125.183 57.4833 85.0004 61.9008 119.443C123.701 90.7408 101.628 159.625 92.8024 171.106Z" fill="#BFBFBF"/>
<path d="M116.186 149.606C155.914 172.567 98.5252 241.451 85.2846 201.269C45.5508 241.451 23.4788 155.346 54.383 149.606C32.3078 103.683 80.8671 63.5004 85.2846 97.9433C147.085 69.2408 125.012 138.125 116.186 149.606Z" fill="#BFBFBF"/>
<path d="M80.8698 149.606C120.597 172.567 63.2087 241.451 49.9682 201.269C10.2343 241.451 -11.8376 155.346 19.0666 149.606C-3.0086 103.683 45.5507 63.5004 49.9682 97.9433C111.768 69.2408 89.6958 138.125 80.8698 149.606Z" fill="#BFBFBF"/>
<path d="M587.735 186.216L594.905 189.784L603.867 188L605.66 371.73L596.697 386L598.49 373.513L587.735 371.73L580.566 366.378L564.434 373.513L576.981 364.594L580.566 352.108L579.174 356.956L568.019 357.459L573.396 355.676L578.773 353.892L582.358 346.757L587.735 252.216L548.302 234.378L551.887 230.811L585.943 241.513L587.735 236.162V186.216Z" fill="#858585"/>
<path d="M603.867 188H612.829L619.999 180.865V209.405L628.961 207.622L654.055 189.784L655.848 191.567L639.716 204.054L646.886 200.486L679.149 182.649L682.734 184.432L621.791 223.676L628.961 348.54L632.546 353.892L641.508 357.459H637.923H628.961L623.584 364.594L621.791 368.162V378.865L618.207 371.73H605.66L603.867 188Z" fill="#858585"/>
<path d="M560.85 221.892C576.981 229.027 553.679 250.432 548.303 237.946C532.17 250.432 523.208 223.676 535.756 221.892C526.793 207.622 546.509 195.135 548.303 205.838C573.396 196.919 564.434 218.324 560.85 221.892Z" fill="#4B4B4B"/>
<path d="M566.759 215.211C582.89 222.346 559.588 243.752 554.212 231.265C538.079 243.752 529.117 216.995 541.665 215.211C532.702 200.941 552.419 188.454 554.212 199.157C579.305 190.238 570.343 211.644 566.759 215.211Z" fill="#4B4B4B"/>
<path d="M556.005 215.211C572.135 222.346 548.834 243.752 543.458 231.265C527.325 243.752 518.363 216.995 530.911 215.211C521.948 200.941 541.664 188.454 543.458 199.157C568.551 190.238 559.588 211.644 556.005 215.211Z" fill="#4B4B4B"/>
<path d="M634.802 142.106C674.53 165.067 617.141 233.951 603.901 193.769C564.167 233.951 542.095 147.846 572.999 142.106C550.924 96.1835 599.483 56.0003 603.901 90.4432C665.701 61.7407 643.628 130.625 634.802 142.106Z" fill="#4B4B4B"/>
<path d="M658.186 120.606C697.914 143.567 640.525 212.451 627.285 172.269C587.551 212.451 565.479 126.346 596.383 120.606C574.308 74.6835 622.867 34.5003 627.285 68.9432C689.085 40.2407 667.012 109.125 658.186 120.606Z" fill="#4B4B4B"/>
<path d="M622.87 120.606C662.597 143.567 605.209 212.451 591.968 172.269C552.234 212.451 530.162 126.346 561.067 120.606C538.991 74.6835 587.551 34.5003 591.968 68.9432C653.768 40.2407 631.696 109.125 622.87 120.606Z" fill="#4B4B4B"/>
<path d="M328.812 174.168L323.076 177.432L315.907 175.8L314.473 343.941L321.642 357L320.208 345.573L328.812 343.941L334.548 339.043L347.453 345.573L337.416 337.411L334.548 325.984L335.661 330.421L344.585 330.881L340.284 329.249L335.982 327.616L333.114 321.086L328.812 234.568L360.359 218.243L357.491 214.978L330.246 224.773L328.812 219.876V174.168Z" fill="#7C7C7C"/>
<path d="M315.907 175.8H308.737L303.001 169.27V195.389L295.831 193.757L275.756 177.432L274.322 179.065L287.228 190.492L281.492 187.227L255.681 170.903L252.813 172.535L301.567 208.449L295.831 322.719L292.963 327.616L285.794 330.881H288.662H295.831L300.133 337.411L301.567 340.676V350.47L304.435 343.941H314.473L315.907 175.8Z" fill="#7C7C7C"/>
<path d="M350.32 206.817C337.416 213.346 356.057 232.935 360.358 221.508C373.264 232.935 380.434 208.449 370.395 206.817C377.566 193.757 361.793 182.33 360.358 192.125C340.284 183.962 347.453 203.551 350.32 206.817Z" fill="#999999"/>
<path d="M345.593 200.702C332.688 207.232 351.329 226.821 355.63 215.394C368.537 226.821 375.706 202.335 365.668 200.702C372.838 187.643 357.065 176.216 355.63 186.011C335.556 177.848 342.726 197.437 345.593 200.702Z" fill="#999999"/>
<path d="M354.196 200.702C341.292 207.232 359.933 226.821 364.234 215.394C377.14 226.821 384.31 202.335 374.271 200.702C381.442 187.643 365.669 176.216 364.234 186.011C344.16 177.848 351.329 197.437 354.196 200.702Z" fill="#999999"/>
<path d="M239.48 171.319C226.576 177.848 245.217 197.437 249.518 186.011C262.425 197.437 269.594 172.951 259.556 171.319C266.726 158.259 250.953 146.832 249.518 156.627C229.444 148.464 236.613 168.054 239.48 171.319Z" fill="#999999"/>
<path d="M291.158 133.8C259.376 154.813 305.287 217.852 315.879 181.08C347.666 217.852 365.324 139.053 340.6 133.8C358.26 91.774 319.413 55.0003 315.879 86.5207C266.439 60.2536 284.097 123.293 291.158 133.8Z" fill="#999999"/>
<path d="M272.451 114.124C240.669 135.137 286.58 198.176 297.172 161.404C328.959 198.176 346.617 119.378 321.894 114.124C339.554 72.0982 300.706 35.3245 297.172 66.8449C247.732 40.5779 265.39 103.617 272.451 114.124Z" fill="#999999"/>
<path d="M300.704 114.124C268.922 135.137 314.833 198.176 325.425 161.404C357.212 198.176 374.87 119.378 350.147 114.124C367.807 72.0982 328.959 35.3245 325.425 66.8449C275.985 40.5779 293.643 103.617 300.704 114.124Z" fill="#999999"/>
<path d="M583.735 267.216L590.905 270.784L599.867 269L601.66 452.73L592.697 467L594.49 454.513L583.735 452.73L576.566 447.378L560.434 454.513L572.981 445.594L576.566 433.108L575.174 437.956L564.019 438.459L569.396 436.676L574.773 434.892L578.358 427.757L583.735 333.216L544.302 315.378L547.887 311.811L581.943 322.513L583.735 317.162V267.216Z" fill="#797979"/>
<path d="M599.867 269H608.829L615.999 261.865V290.405L624.961 288.622L650.055 270.784L651.848 272.567L635.716 285.054L642.886 281.486L675.149 263.649L678.734 265.432L617.791 304.676L624.961 429.54L628.546 434.892L637.508 438.459H633.923H624.961L619.584 445.594L617.791 449.162V459.865L614.207 452.73H601.66L599.867 269Z" fill="#797979"/>
<path d="M556.85 302.892C572.981 310.027 549.679 331.432 544.303 318.946C528.17 331.432 519.208 304.676 531.756 302.892C522.793 288.622 542.509 276.135 544.303 286.838C569.396 277.919 560.434 299.324 556.85 302.892Z" fill="#929292"/>
<path d="M562.759 296.211C578.89 303.346 555.588 324.752 550.212 312.265C534.079 324.752 525.117 297.995 537.665 296.211C528.702 281.941 548.419 269.454 550.212 280.157C575.305 271.238 566.343 292.644 562.759 296.211Z" fill="#929292"/>
<path d="M552.005 296.211C568.135 303.346 544.834 324.752 539.458 312.265C523.325 324.752 514.363 297.995 526.911 296.211C517.948 281.941 537.664 269.454 539.458 280.157C564.551 271.238 555.588 292.644 552.005 296.211Z" fill="#929292"/>
<g filter="url(#filter0_d_341_28422)">
<path d="M630.802 223.106C670.53 246.067 613.141 314.951 599.901 274.769C560.167 314.951 538.095 228.846 568.999 223.106C546.924 177.183 595.483 137 599.901 171.443C661.701 142.741 639.628 211.625 630.802 223.106Z" fill="#929292"/>
<path d="M654.186 201.606C693.914 224.567 636.525 293.451 623.285 253.269C583.551 293.451 561.479 207.346 592.383 201.606C570.308 155.683 618.867 115.5 623.285 149.943C685.085 121.241 663.012 190.125 654.186 201.606Z" fill="#929292"/>
<path d="M618.87 201.606C658.597 224.567 601.209 293.451 587.968 253.269C548.234 293.451 526.162 207.346 557.067 201.606C534.991 155.683 583.551 115.5 587.968 149.943C649.768 121.241 627.696 190.125 618.87 201.606Z" fill="#929292"/>
</g>
<path d="M1.73522 264.216L8.90494 267.784L17.8671 266L19.6596 449.73L10.6974 464L12.4898 451.513L1.73522 449.73L-5.43451 444.378L-21.5664 451.513L-9.01937 442.594L-5.43451 430.108L-6.8265 434.956L-17.9815 435.459L-12.6042 433.676L-7.22694 431.892L-3.64208 424.757L1.73522 330.216L-37.6982 312.378L-34.1134 308.811L-0.0572166 319.513L1.73522 314.162V264.216Z" fill="#797979"/>
<path d="M17.8672 266H26.8294L33.9991 258.865V287.405L42.9613 285.622L68.0553 267.784L69.8478 269.567L53.7159 282.054L60.8856 278.486L93.1494 260.649L96.7342 262.432L35.7916 301.676L42.9613 426.54L46.5462 431.892L55.5083 435.459H51.9234H42.9613L37.584 442.594L35.7916 446.162V456.865L32.2067 449.73H19.6597L17.8672 266Z" fill="#797979"/>
<path d="M113.399 261.103C129.53 268.238 106.228 289.643 100.852 277.157C84.719 289.643 75.7571 262.887 88.3052 261.103C79.3419 246.833 99.0586 234.346 100.852 245.049C125.945 236.13 116.983 257.535 113.399 261.103Z" fill="#929292"/>
<g filter="url(#filter1_d_341_28422)">
<path d="M48.8024 220.106C88.53 243.067 31.1414 311.951 17.9008 271.769C-21.833 311.951 -43.905 225.846 -13.0008 220.106C-35.076 174.183 13.4833 134 17.9008 168.443C79.701 139.741 57.6284 208.625 48.8024 220.106Z" fill="#929292"/>
<path d="M72.1862 198.606C111.914 221.567 54.5252 290.451 41.2846 250.269C1.55072 290.451 -20.5212 204.346 10.383 198.606C-11.6922 152.683 36.8671 112.5 41.2846 146.943C103.085 118.241 81.0122 187.125 72.1862 198.606Z" fill="#929292"/>
<path d="M36.8698 198.606C76.5974 221.567 19.2087 290.451 5.96819 250.269C-33.7657 290.451 -55.8376 204.346 -24.9334 198.606C-47.0086 152.683 1.55067 112.5 5.96819 146.943C67.7684 118.241 45.6958 187.125 36.8698 198.606Z" fill="#929292"/>
</g>
<path d="M388.5 367.51H377V320.781L385 361.669L388.5 320.781L395.5 361.669L399.5 320.781L405 367.51H388.5Z" fill="#939393"/>
<path d="M314.5 364.729H303V318L311 358.888L314.5 318L321.5 358.888L325.5 318L331 364.729H314.5Z" fill="#939393"/>
<path d="M468.5 366.954H457V320.225L465 361.113L468.5 320.225L475.5 361.113L479.5 320.225L485 366.954H468.5Z" fill="#939393"/>
<path d="M202.5 366.398H191V319.669L199 360.557L202.5 319.669L209.5 360.557L213.5 319.669L219 366.398H202.5Z" fill="#939393"/>
<path d="M360.5 367.51H349V320.781L357 361.669L360.5 320.781L367.5 361.669L371.5 320.781L377 367.51H360.5Z" fill="#939393"/>
<path d="M286.5 364.729H275V318L283 358.888L286.5 318L293.5 358.888L297.5 318L303 364.729H286.5Z" fill="#939393"/>
<path d="M440.5 366.954H429V320.225L437 361.113L440.5 320.225L447.5 361.113L451.5 320.225L457 366.954H440.5Z" fill="#939393"/>
<path d="M174.5 366.398H163V319.669L171 360.557L174.5 319.669L181.5 360.557L185.5 319.669L191 366.398H174.5Z" fill="#939393"/>
<path d="M332.5 367.51H321V320.781L329 361.669L332.5 320.781L339.5 361.669L343.5 320.781L349 367.51H332.5Z" fill="#939393"/>
<path d="M258.5 364.729H247V318L255 358.888L258.5 318L265.5 358.888L269.5 318L275 364.729H258.5Z" fill="#939393"/>
<path d="M412.5 366.954H401V320.225L409 361.113L412.5 320.225L419.5 361.113L423.5 320.225L429 366.954H412.5Z" fill="#939393"/>
<path d="M146.5 366.398H135V319.669L143 360.557L146.5 319.669L153.5 360.557L157.5 319.669L163 366.398H146.5Z" fill="#939393"/>
<path d="M304.5 367.51H293V320.781L301 361.669L304.5 320.781L311.5 361.669L315.5 320.781L321 367.51H304.5Z" fill="#939393"/>
<path d="M230.5 364.729H219V318L227 358.888L230.5 318L237.5 358.888L241.5 318L247 364.729H230.5Z" fill="#939393"/>
<path d="M384.5 366.954H373V320.225L381 361.113L384.5 320.225L391.5 361.113L395.5 320.225L401 366.954H384.5Z" fill="#939393"/>
<path d="M118.5 366.398H107V319.669L115 360.557L118.5 319.669L125.5 360.557L129.5 319.669L135 366.398H118.5Z" fill="#939393"/>
<path d="M286.5 373.073H275V326.344L283 367.232L286.5 326.344L293.5 367.232L297.5 326.344L303 373.073H286.5Z" fill="#939393"/>
<path d="M212.5 370.292H201V323.563L209 364.451L212.5 323.563L219.5 364.451L223.5 323.563L229 370.292H212.5Z" fill="#939393"/>
<path d="M366.5 372.517H355V325.788L363 366.676L366.5 325.788L373.5 366.676L377.5 325.788L383 372.517H366.5Z" fill="#939393"/>
<path d="M100.5 371.961H89V325.232L97 366.12L100.5 325.232L107.5 366.12L111.5 325.232L117 371.961H100.5Z" fill="#939393"/>
<path d="M318.5 367.51H307V320.781L315 361.669L318.5 320.781L325.5 361.669L329.5 320.781L335 367.51H318.5Z" fill="#939393"/>
<path d="M244.5 364.729H233V318L241 358.888L244.5 318L251.5 358.888L255.5 318L261 364.729H244.5Z" fill="#939393"/>
<path d="M398.5 366.954H387V320.225L395 361.113L398.5 320.225L405.5 361.113L409.5 320.225L415 366.954H398.5Z" fill="#939393"/>
<path d="M132.5 366.398H121V319.669L129 360.557L132.5 319.669L139.5 360.557L143.5 319.669L149 366.398H132.5Z" fill="#939393"/>
<path d="M338.5 367.51H327V320.781L335 361.669L338.5 320.781L345.5 361.669L349.5 320.781L355 367.51H338.5Z" fill="#939393"/>
<path d="M264.5 364.729H253V318L261 358.888L264.5 318L271.5 358.888L275.5 318L281 364.729H264.5Z" fill="#939393"/>
<path d="M418.5 366.954H407V320.225L415 361.113L418.5 320.225L425.5 361.113L429.5 320.225L435 366.954H418.5Z" fill="#939393"/>
<path d="M152.5 366.398H141V319.669L149 360.557L152.5 319.669L159.5 360.557L163.5 319.669L169 366.398H152.5Z" fill="#939393"/>
<path d="M328.5 373.63H317V326.901L325 367.789L328.5 326.901L335.5 367.789L339.5 326.901L345 373.63H328.5Z" fill="#939393"/>
<path d="M254.5 370.848H243V324.119L251 365.007L254.5 324.119L261.5 365.007L265.5 324.119L271 370.848H254.5Z" fill="#939393"/>
<path d="M408.5 373.073H397V326.344L405 367.232L408.5 326.344L415.5 367.232L419.5 326.344L425 373.073H408.5Z" fill="#939393"/>
<path d="M142.5 372.517H131V325.788L139 366.676L142.5 325.788L149.5 366.676L153.5 325.788L159 372.517H142.5Z" fill="#939393"/>
<path d="M360.5 367.51H349V320.781L357 361.669L360.5 320.781L367.5 361.669L371.5 320.781L377 367.51H360.5Z" fill="#939393"/>
<path d="M286.5 364.729H275V318L283 358.888L286.5 318L293.5 358.888L297.5 318L303 364.729H286.5Z" fill="#939393"/>
<path d="M440.5 366.954H429V320.225L437 361.113L440.5 320.225L447.5 361.113L451.5 320.225L457 366.954H440.5Z" fill="#939393"/>
<path d="M174.5 366.398H163V319.669L171 360.557L174.5 319.669L181.5 360.557L185.5 319.669L191 366.398H174.5Z" fill="#939393"/>
<path d="M366.5 373.63H355V326.901L363 367.789L366.5 326.901L373.5 367.789L377.5 326.901L383 373.63H366.5Z" fill="#939393"/>
<path d="M292.5 370.848H281V324.119L289 365.007L292.5 324.119L299.5 365.007L303.5 324.119L309 370.848H292.5Z" fill="#939393"/>
<path d="M446.5 373.073H435V326.344L443 367.232L446.5 326.344L453.5 367.232L457.5 326.344L463 373.073H446.5Z" fill="#939393"/>
<path d="M180.5 372.517H169V325.788L177 366.676L180.5 325.788L187.5 366.676L191.5 325.788L197 372.517H180.5Z" fill="#939393"/>
<path d="M338.696 166.907C366.005 180.215 326.555 220.14 317.453 196.851C290.139 220.14 274.966 170.234 296.21 166.907C281.035 140.29 314.416 117 317.453 136.963C359.936 120.327 344.763 160.252 338.696 166.907Z" fill="#699D56"/>
<path d="M354.77 154.446C382.08 167.754 342.629 207.679 333.527 184.389C306.213 207.679 291.04 157.773 312.284 154.446C297.109 127.829 330.49 104.539 333.527 124.502C376.01 107.866 360.837 147.791 354.77 154.446Z" fill="#699D56"/>
<path d="M330.492 154.446C357.802 167.754 318.352 207.679 309.25 184.389C281.936 207.679 266.763 157.773 288.007 154.446C272.832 127.829 306.213 104.539 309.25 124.502C351.733 107.866 336.56 147.791 330.492 154.446Z" fill="#699D56"/>
<path d="M309 195L310.5 195.5L313 196H317.5H322.5L326 195.5L328 195L330 203.5L322.5 485.703L299.827 515L303.222 494.492L282.848 491.562L269.266 482.773L238.705 494.492L262.474 479.843L269.266 459.335L266.629 467.298L245.496 468.124L255.683 465.195L265.87 462.265L287.5 350L292.5 292.5L287.5 253.5L186 215L191.5 210.308L245 227L228.5 210.308L232.5 206.5L263.5 224L283 221.5L296.5 215L303.5 212L307 203.5L309 195Z" fill="#DECDC8"/>
<path d="M330 203.5L334.5 215L351 218L383.5 206.5L408.488 192.73L411.883 195.659L381.322 216.167L394.905 210.308L456.027 181.011L462.818 183.94L347.366 248.395L344.5 350L360.948 453.476L367.74 462.265L384.718 468.124H377.927H360.948L350.761 479.843L347.366 485.703V503.281L340.574 491.562L322.5 485.703L330 203.5Z" fill="#DECDC8"/>
<path d="M297.754 153.822C298.211 148.117 301.875 143.168 307.199 141.066L311.918 139.203C315.501 137.789 319.491 137.807 323.061 139.255L327.843 141.193C332.88 143.235 336.418 147.841 337.092 153.234L338.778 166.727C338.926 167.905 338.933 169.096 338.799 170.275L337.375 182.855C336.574 189.927 330.915 195.462 323.828 196.107L320.754 196.386C319.919 196.462 319.08 196.468 318.245 196.403L312.065 195.928C305.024 195.386 299.315 190.008 298.355 183.012L296.721 171.113C296.574 170.041 296.544 168.956 296.63 167.877L297.754 153.822Z" fill="#DECDC8"/>
<path d="M316 380C322.627 380 328 374.851 328 368.5C328 362.149 322.627 357 316 357C309.373 357 304 362.149 304 368.5C304 374.851 309.373 380 316 380Z" fill="black"/>
<path d="M316 329C322.627 329 328 323.851 328 317.5C328 311.149 322.627 306 316 306C309.373 306 304 311.149 304 317.5C304 323.851 309.373 329 316 329Z" fill="black"/>
<path d="M316 289C322.627 289 328 283.851 328 277.5C328 271.149 322.627 266 316 266C309.373 266 304 271.149 304 277.5C304 283.851 309.373 289 316 289Z" fill="black"/>
<path d="M316 249C322.627 249 328 243.851 328 237.5C328 231.149 322.627 226 316 226C309.373 226 304 231.149 304 237.5C304 243.851 309.373 249 316 249Z" fill="black"/>
<path d="M318 172C319.657 172 321 170.657 321 169C321 167.343 319.657 166 318 166C316.343 166 315 167.343 315 169C315 170.657 316.343 172 318 172Z" fill="black"/>
<path d="M318 189C324.627 189 330 188.776 330 188.5C330 188.224 324.627 188 318 188C311.373 188 306 188.224 306 188.5C306 188.776 311.373 189 318 189Z" fill="black"/>
<path d="M309.951 160.641L304 167L299.957 159.242L306.027 152L309.951 160.641Z" fill="black"/>
<path d="M324.594 160.641L330.545 167L334.589 159.242L328.518 152L324.594 160.641Z" fill="black"/>
<path d="M331 159.5C331 159.917 330.394 161 330 161C329.605 161 328.5 160.417 328.5 160C328.5 159.583 329.106 158.5 329.5 158.5C329.894 158.5 331 159.083 331 159.5Z" fill="#D9D9D9"/>
<path d="M304 160C304 160.417 304.606 161.5 305 161.5C305.395 161.5 306.5 160.917 306.5 160.5C306.5 160.083 305.894 159 305.5 159C305.106 159 304 159.583 304 160Z" fill="#D9D9D9"/>
<path d="M33.7739 522.664H82.4678L75.6665 515.724L331.846 517.037L486.007 517.787V520.225H474.672H588.234L581.175 522.121L588.234 571.879L565.739 579.57L577.057 607.135L324.573 610L62.7744 608.875L41.175 558.593L48.2338 543.396L33.7739 522.664Z" fill="#A9AD81"/>
<path d="M69.5322 524.392H19.922L10 519.953V515L383.73 516.777L608.63 517.792L608.496 518.18C607.953 519.759 608.233 521.505 609.243 522.834L610 523.829L340.735 522.869L69.5322 524.392Z" fill="#8D8F6D"/>
<path d="M174.152 556.936L178.522 557.212C178.921 557.212 179.228 557.197 179.442 557.166L177.28 561.214H176.866C176.284 561.214 175.456 561.061 174.382 560.754C173.309 560.417 172.542 560.248 172.082 560.248C170.886 560.248 169.92 561.03 169.184 562.594C169.031 564.342 168.954 565.722 168.954 566.734C168.954 567.746 168.985 568.835 169.046 570H159.064C158.482 566.075 158.19 562.027 158.19 557.856C158.19 553.655 158.405 550.051 158.834 547.046H183.398C182.846 550.358 182.356 552.673 181.926 553.992L176.958 554.222C177.234 553.455 177.372 552.796 177.372 552.244C177.372 550.772 176.253 550.036 174.014 550.036C173.033 550.036 172.128 550.113 171.3 550.266C170.626 552.995 170.074 555.786 169.644 558.638C170.871 557.503 172.374 556.936 174.152 556.936ZM196.239 566.458C197.68 566.795 199.06 566.964 200.379 566.964C201.697 566.964 202.74 566.673 203.507 566.09C204.304 565.477 204.887 564.434 205.255 562.962L210.775 563.146C210.315 565.906 209.701 568.191 208.935 570H186.349C185.766 566.075 185.475 562.011 185.475 557.81C185.475 553.609 185.689 550.005 186.119 547H199.367C197.343 554.759 196.3 561.245 196.239 566.458ZM243.047 569.632V570H232.375C232.252 568.252 231.991 566.443 231.593 564.572C229.691 566.504 227.545 568.313 225.153 570H214.435C214.22 568.743 214.113 567.087 214.113 565.032C214.113 562.947 214.419 560.861 215.033 558.776C217.241 558.132 219.357 557.043 221.381 555.51C223.435 553.977 224.923 552.321 225.843 550.542C225.015 549.254 224.141 548.073 223.221 547H238.493C241.529 553.593 243.047 561.137 243.047 569.632ZM230.765 561.214C229.967 558.485 228.925 555.909 227.637 553.486C226.195 557.718 225.367 561.72 225.153 565.492C227.361 564.357 229.231 562.931 230.765 561.214ZM274.188 547C274.311 548.993 274.372 551.907 274.372 555.74C274.372 559.543 274.127 563.606 273.636 567.93C270.447 569.985 266.629 571.012 262.182 571.012C256.263 571.012 251.479 569.985 247.83 567.93C247.431 564.618 247.232 561.413 247.232 558.316C247.232 555.188 247.462 551.416 247.922 547H260.296C259.069 553.655 258.425 560.049 258.364 566.182C259.652 567.347 261.507 567.93 263.93 567.93C266.353 567.93 268.208 567.501 269.496 566.642C269.557 565.63 269.588 564.173 269.588 562.272C269.588 557.427 269.159 552.336 268.3 547H274.188ZM297.886 549.99C297.088 554.835 296.69 558.791 296.69 561.858C296.69 564.925 296.812 567.639 297.058 570H287.03C285.987 565.124 285.466 559.88 285.466 554.268C285.466 553.317 285.496 551.891 285.558 549.99C282.951 550.757 281.356 552.52 280.774 555.28L276.22 555.004L277.876 547H308.466C307.852 550.373 307.147 553.133 306.35 555.28L301.704 555.004C301.826 554.513 301.888 554.023 301.888 553.532C301.888 552.336 301.52 551.447 300.784 550.864C300.048 550.281 299.082 549.99 297.886 549.99ZM327.697 556.246L332.021 556.522C332.451 556.522 332.773 556.507 332.987 556.476L330.825 560.524H330.411C329.829 560.524 329.001 560.371 327.927 560.064C326.854 559.727 326.087 559.558 325.627 559.558C324.37 559.558 323.373 560.371 322.637 561.996C322.515 563.499 322.423 565.001 322.361 566.504C323.956 566.811 325.213 566.964 326.133 566.964H326.547C327.866 566.964 328.909 566.673 329.675 566.09C330.473 565.507 331.04 564.465 331.377 562.962L336.897 563.192C336.437 565.829 335.824 568.099 335.057 570H312.471C311.858 565.86 311.551 561.751 311.551 557.672C311.551 553.593 311.766 550.036 312.195 547H336.851C336.299 550.312 335.809 552.643 335.379 553.992C333.57 554.084 331.914 554.145 330.411 554.176C330.657 553.471 330.779 552.811 330.779 552.198C330.779 550.726 329.675 549.99 327.467 549.99C326.639 549.99 325.719 550.082 324.707 550.266C324.033 553.179 323.511 555.74 323.143 557.948C324.37 556.813 325.888 556.246 327.697 556.246ZM369.185 547C369.369 550.22 369.461 553.624 369.461 557.212C369.461 560.769 369.307 565.032 369.001 570H364.585C358.635 566.811 353.177 562.471 348.209 556.982C348.454 559.037 348.577 561.153 348.577 563.33C348.577 565.477 348.5 567.7 348.347 570H342.965C343.578 566.228 343.885 562.747 343.885 559.558C343.885 556.338 343.731 553.793 343.425 551.922C342.198 550.082 341.232 548.441 340.527 547H353.591C354.879 549.208 356.627 551.493 358.835 553.854C361.073 556.185 363.205 558.009 365.229 559.328C365.229 554.851 364.723 550.741 363.711 547H369.185ZM394.064 549.99C393.266 554.835 392.868 558.791 392.868 561.858C392.868 564.925 392.99 567.639 393.236 570H383.208C382.165 565.124 381.644 559.88 381.644 554.268C381.644 553.317 381.674 551.891 381.736 549.99C379.129 550.757 377.534 552.52 376.952 555.28L372.398 555.004L374.054 547H404.644C404.03 550.373 403.325 553.133 402.528 555.28L397.882 555.004C398.004 554.513 398.066 554.023 398.066 553.532C398.066 552.336 397.698 551.447 396.962 550.864C396.226 550.281 395.26 549.99 394.064 549.99ZM423.875 556.246L428.199 556.522C428.628 556.522 428.95 556.507 429.165 556.476L427.003 560.524H426.589C426.006 560.524 425.178 560.371 424.105 560.064C423.032 559.727 422.265 559.558 421.805 559.558C420.548 559.558 419.551 560.371 418.815 561.996C418.692 563.499 418.6 565.001 418.539 566.504C420.134 566.811 421.391 566.964 422.311 566.964H422.725C424.044 566.964 425.086 566.673 425.853 566.09C426.65 565.507 427.218 564.465 427.555 562.962L433.075 563.192C432.615 565.829 432.002 568.099 431.235 570H408.649C408.036 565.86 407.729 561.751 407.729 557.672C407.729 553.593 407.944 550.036 408.373 547H433.029C432.477 550.312 431.986 552.643 431.557 553.992C429.748 554.084 428.092 554.145 426.589 554.176C426.834 553.471 426.957 552.811 426.957 552.198C426.957 550.726 425.853 549.99 423.645 549.99C422.817 549.99 421.897 550.082 420.885 550.266C420.21 553.179 419.689 555.74 419.321 557.948C420.548 556.813 422.066 556.246 423.875 556.246ZM455.104 549.76C453.878 549.576 452.559 549.484 451.148 549.484C449.768 549.484 448.419 549.576 447.1 549.76C447.928 551.171 448.91 552.321 450.044 553.21C451.179 554.099 452.605 554.989 454.322 555.878C456.07 556.737 457.481 557.534 458.554 558.27C459.658 559.006 460.87 560.217 462.188 561.904C463.507 563.591 464.335 565.354 464.672 567.194C463.2 569.095 461.253 570.767 458.83 572.208C456.408 573.68 453.924 574.661 451.378 575.152C449.661 574.999 447.484 574.508 444.846 573.68C442.24 572.883 440.277 572.484 438.958 572.484C437.64 572.484 436.321 572.898 435.002 573.726C435.554 572.162 436.459 570.199 437.716 567.838H438.084C440.047 567.838 441.887 568.145 443.604 568.758C445.352 569.371 446.932 569.985 448.342 570.598C449.784 571.211 450.934 571.518 451.792 571.518C452.682 571.518 453.326 571.457 453.724 571.334C453.724 569.31 453.096 567.639 451.838 566.32C451.164 565.615 450.581 565.078 450.09 564.71C449.63 564.311 448.91 563.775 447.928 563.1L447.146 562.548C445.061 561.107 443.344 559.65 441.994 558.178C440.645 556.675 439.664 554.835 439.05 552.658C440.032 550.481 440.998 548.595 441.948 547C444.862 546.295 447.882 545.942 451.01 545.942H453.034C455.672 545.942 458.692 546.31 462.096 547.046C461.606 549.07 461.008 550.895 460.302 552.52C457.726 552.704 455.733 552.796 454.322 552.796C454.598 552.091 454.859 551.079 455.104 549.76Z" fill="black"/>
</g>
<path d="M580 5H40C20.67 5 5 20.67 5 40V580C5 599.33 20.67 615 40 615H580C599.33 615 615 599.33 615 580V40C615 20.67 599.33 5 580 5Z" stroke="#E4EF65" stroke-width="10"/>
</g>
<defs>
<filter id="filter0_d_341_28422" x="538.509" y="137" width="133.471" height="158.104" filterUnits="userSpaceOnUse" color-interpolation-filters="sRGB">
<feFlood flood-opacity="0" result="BackgroundImageFix"/>
<feColorMatrix in="SourceAlpha" type="matrix" values="0 0 0 0 0 0 0 0 0 0 0 0 0 0 0 0 0 0 127 0" result="hardAlpha"/>
<feOffset dy="4"/>
<feGaussianBlur stdDeviation="2"/>
<feComposite in2="hardAlpha" operator="out"/>
<feColorMatrix type="matrix" values="0 0 0 0 0 0 0 0 0 0 0 0 0 0 0 0 0 0 0.25 0"/>
<feBlend mode="normal" in2="BackgroundImageFix" result="effect1_dropShadow_341_28422"/>
<feBlend mode="normal" in="SourceGraphic" in2="effect1_dropShadow_341_28422" result="shape"/>
</filter>
<filter id="filter1_d_341_28422" x="-43.4912" y="134" width="133.471" height="158.104" filterUnits="userSpaceOnUse" color-interpolation-filters="sRGB">
<feFlood flood-opacity="0" result="BackgroundImageFix"/>
<feColorMatrix in="SourceAlpha" type="matrix" values="0 0 0 0 0 0 0 0 0 0 0 0 0 0 0 0 0 0 127 0" result="hardAlpha"/>
<feOffset dy="4"/>
<feGaussianBlur stdDeviation="2"/>
<feComposite in2="hardAlpha" operator="out"/>
<feColorMatrix type="matrix" values="0 0 0 0 0 0 0 0 0 0 0 0 0 0 0 0 0 0 0.25 0"/>
<feBlend mode="normal" in2="BackgroundImageFix" result="effect1_dropShadow_341_28422"/>
<feBlend mode="normal" in="SourceGraphic" in2="effect1_dropShadow_341_28422" result="shape"/>
</filter>
<clipPath id="clip0_341_28422">
<rect width="620" height="620" fill="white"/>
</clipPath>
</defs>
</svg>
