<svg width="500" height="500" viewBox="0 0 500 500" fill="none" xmlns="http://www.w3.org/2000/svg">
<g clip-path="url(#clip0_339_26053)">
<mask id="mask0_339_26053" style="mask-type:luminance" maskUnits="userSpaceOnUse" x="0" y="0" width="500" height="500">
<path d="M487.5 0H12.5C5.59644 0 0 5.59644 0 12.5V487.5C0 494.404 5.59644 500 12.5 500H487.5C494.404 500 500 494.404 500 487.5V12.5C500 5.59644 494.404 0 487.5 0Z" fill="white"/>
</mask>
<g mask="url(#mask0_339_26053)">
<path d="M487.5 0H12.5C5.59644 0 0 5.59644 0 12.5V487.5C0 494.404 5.59644 500 12.5 500H487.5C494.404 500 500 494.404 500 487.5V12.5C500 5.59644 494.404 0 487.5 0Z" fill="#72ABDF"/>
<path d="M419.583 261.916H410V142.917L416.667 247.042L419.583 142.917L425.417 247.042L428.75 142.917L433.333 261.916H419.583Z" fill="#225330"/>
<path d="M357.917 254.833H348.333V135.833L355 239.958L357.917 135.833L363.75 239.958L367.083 135.833L371.667 254.833H357.917Z" fill="#225330"/>
<path d="M486.25 260.5H476.667V141.5L483.333 245.625L486.25 141.5L492.083 245.625L495.417 141.5L500 260.5H486.25Z" fill="#225330"/>
<path d="M264.583 259.083H255V140.083L261.667 244.208L264.583 140.083L270.417 244.208L273.75 140.083L278.333 259.083H264.583Z" fill="#225330"/>
<path d="M396.25 261.916H386.667V142.917L393.333 247.042L396.25 142.917L402.083 247.042L405.417 142.917L410 261.916H396.25Z" fill="#225330"/>
<path d="M334.583 254.833H325V135.833L331.667 239.958L334.583 135.833L340.417 239.958L343.75 135.833L348.333 254.833H334.583Z" fill="#225330"/>
<path d="M462.917 260.5H453.333V141.5L460 245.625L462.917 141.5L468.75 245.625L472.083 141.5L476.667 260.5H462.917Z" fill="#225330"/>
<path d="M241.25 259.083H231.667V140.083L238.333 244.208L241.25 140.083L247.083 244.208L250.417 140.083L255 259.083H241.25Z" fill="#225330"/>
<path d="M372.917 261.916H363.333V142.917L370 247.042L372.917 142.917L378.75 247.042L382.083 142.917L386.667 261.916H372.917Z" fill="#225330"/>
<path d="M311.25 254.833H301.667V135.833L308.333 239.958L311.25 135.833L317.083 239.958L320.417 135.833L325 254.833H311.25Z" fill="#225330"/>
<path d="M439.583 260.5H430V141.5L436.667 245.625L439.583 141.5L445.417 245.625L448.75 141.5L453.333 260.5H439.583Z" fill="#225330"/>
<path d="M217.917 259.083H208.333V140.083L215 244.208L217.917 140.083L223.75 244.208L227.083 140.083L231.667 259.083H217.917Z" fill="#225330"/>
<path d="M349.583 261.916H340V142.917L346.667 247.042L349.583 142.917L355.417 247.042L358.75 142.917L363.333 261.916H349.583Z" fill="#225330"/>
<path d="M287.917 254.833H278.333V135.833L285 239.958L287.917 135.833L293.75 239.958L297.083 135.833L301.667 254.833H287.917Z" fill="#225330"/>
<path d="M416.25 260.5H406.667V141.5L413.333 245.625L416.25 141.5L422.083 245.625L425.417 141.5L430 260.5H416.25Z" fill="#225330"/>
<path d="M194.583 259.083H185V140.083L191.667 244.208L194.583 140.083L200.417 244.208L203.75 140.083L208.333 259.083H194.583Z" fill="#225330"/>
<path d="M334.583 276.083H325V157.083L331.667 261.208L334.583 157.083L340.417 261.208L343.75 157.083L348.333 276.083H334.583Z" fill="#225330"/>
<path d="M272.917 269H263.333V150L270 254.125L272.917 150L278.75 254.125L282.083 150L286.667 269H272.917Z" fill="#225330"/>
<path d="M401.25 274.667H391.667V155.667L398.333 259.791L401.25 155.667L407.083 259.791L410.417 155.667L415 274.667H401.25Z" fill="#225330"/>
<path d="M179.583 273.25H170V154.25L176.667 258.375L179.583 154.25L185.417 258.375L188.75 154.25L193.333 273.25H179.583Z" fill="#225330"/>
<path d="M361.25 261.916H351.667V142.917L358.333 247.042L361.25 142.917L367.083 247.042L370.417 142.917L375 261.916H361.25Z" fill="#225330"/>
<path d="M299.583 254.833H290V135.833L296.667 239.958L299.583 135.833L305.417 239.958L308.75 135.833L313.333 254.833H299.583Z" fill="#225330"/>
<path d="M427.917 260.5H418.333V141.5L425 245.625L427.917 141.5L433.75 245.625L437.083 141.5L441.667 260.5H427.917Z" fill="#225330"/>
<path d="M206.25 259.083H196.667V140.083L203.333 244.208L206.25 140.083L212.083 244.208L215.417 140.083L220 259.083H206.25Z" fill="#225330"/>
<path d="M377.917 261.916H368.333V142.917L375 247.042L377.917 142.917L383.75 247.042L387.083 142.917L391.667 261.916H377.917Z" fill="#225330"/>
<path d="M316.25 254.833H306.667V135.833L313.333 239.958L316.25 135.833L322.083 239.958L325.417 135.833L330 254.833H316.25Z" fill="#225330"/>
<path d="M444.583 260.5H435V141.5L441.667 245.625L444.583 141.5L450.417 245.625L453.75 141.5L458.333 260.5H444.583Z" fill="#225330"/>
<path d="M222.917 259.083H213.333V140.083L220 244.208L222.917 140.083L228.75 244.208L232.083 140.083L236.667 259.083H222.917Z" fill="#225330"/>
<path d="M369.583 277.5H360V158.5L366.667 262.625L369.583 158.5L375.417 262.625L378.75 158.5L383.333 277.5H369.583Z" fill="#225330"/>
<path d="M307.917 270.417H298.333V151.417L305 255.541L307.917 151.417L313.75 255.541L317.083 151.417L321.667 270.417H307.917Z" fill="#225330"/>
<path d="M436.25 276.083H426.667V157.083L433.333 261.208L436.25 157.083L442.083 261.208L445.417 157.083L450 276.083H436.25Z" fill="#225330"/>
<path d="M214.583 274.667H205V155.667L211.667 259.791L214.583 155.667L220.417 259.791L223.75 155.667L228.333 274.667H214.583Z" fill="#225330"/>
<path d="M396.25 261.916H386.667V142.917L393.333 247.042L396.25 142.917L402.083 247.042L405.417 142.917L410 261.916H396.25Z" fill="#225330"/>
<path d="M334.583 254.833H325V135.833L331.667 239.958L334.583 135.833L340.417 239.958L343.75 135.833L348.333 254.833H334.583Z" fill="#225330"/>
<path d="M462.917 260.5H453.333V141.5L460 245.625L462.917 141.5L468.75 245.625L472.083 141.5L476.667 260.5H462.917Z" fill="#225330"/>
<path d="M241.25 259.083H231.667V140.083L238.333 244.208L241.25 140.083L247.083 244.208L250.417 140.083L255 259.083H241.25Z" fill="#225330"/>
<path d="M401.25 277.5H391.667V158.5L398.333 262.625L401.25 158.5L407.083 262.625L410.417 158.5L415 277.5H401.25Z" fill="#225330"/>
<path d="M339.583 270.417H330V151.417L336.667 255.541L339.583 151.417L345.417 255.541L348.75 151.417L353.333 270.417H339.583Z" fill="#225330"/>
<path d="M467.917 276.083H458.333V157.083L465 261.208L467.917 157.083L473.75 261.208L477.083 157.083L481.667 276.083H467.917Z" fill="#225330"/>
<path d="M246.25 274.667H236.667V155.667L243.333 259.791L246.25 155.667L252.083 259.791L255.417 155.667L260 274.667H246.25Z" fill="#225330"/>
<path d="M357.279 127.788L363.254 130.878L370.723 129.333L372.216 288.472L364.748 300.833L366.242 290.018L357.279 288.472L351.304 283.838L337.862 290.018L348.318 282.293L351.304 271.478L350.144 275.677L340.848 276.112L345.33 274.567L349.811 273.023L352.798 266.842L357.279 184.955L324.418 169.504L327.405 166.414L355.786 175.685L357.279 171.049V127.788Z" fill="#613527"/>
<path d="M370.723 129.333H378.191L384.166 123.153V147.874L391.634 146.329L412.546 130.878L414.04 132.423L400.597 143.238L406.571 140.148L433.458 124.698L436.445 126.243L385.659 160.234L391.634 268.387L394.622 273.022L402.09 276.112H399.103H391.634L387.153 282.292L385.659 285.382V294.653L382.672 288.472H372.216L370.723 129.333Z" fill="#613527"/>
<path d="M334.875 158.689C348.317 164.869 328.899 183.41 324.419 172.595C310.975 183.41 303.507 160.234 313.963 158.689C306.494 146.329 322.924 135.513 324.419 144.784C345.33 137.058 337.862 155.599 334.875 158.689Z" fill="#5C9748"/>
<path d="M339.799 152.903C353.242 159.083 333.823 177.623 329.343 166.808C315.899 177.623 308.431 154.448 318.888 152.903C311.418 140.543 327.849 129.727 329.343 138.998C350.254 131.272 342.786 149.813 339.799 152.903Z" fill="#5C9748"/>
<path d="M330.837 152.903C344.279 159.083 324.862 177.623 320.382 166.808C306.937 177.623 299.469 154.448 309.926 152.903C302.457 140.543 318.887 129.727 320.382 138.998C341.292 131.272 333.823 149.813 330.837 152.903Z" fill="#5C9748"/>
<path d="M450.332 125.092C463.775 131.272 444.357 149.812 439.877 138.997C426.432 149.812 418.964 126.637 429.421 125.092C421.952 112.732 438.382 101.916 439.877 111.187C460.787 103.461 453.319 122.002 450.332 125.092Z" fill="#5C9748"/>
<path d="M396.502 89.5815C429.608 109.469 381.784 169.134 370.751 134.33C337.639 169.134 319.246 94.554 344.999 89.5815C326.603 49.8052 367.069 15.0001 370.751 44.8332C422.251 19.9722 403.857 79.6369 396.502 89.5815Z" fill="#5C9748"/>
<path d="M415.988 70.9593C449.095 90.8467 401.271 150.512 390.237 115.708C357.126 150.512 338.733 75.9314 364.486 70.9593C346.09 31.1829 386.556 -3.62219 390.237 26.2108C441.738 1.34993 423.343 61.0146 415.988 70.9593Z" fill="#5C9748"/>
<path d="M386.559 70.9593C419.664 90.8467 371.841 150.512 360.807 115.708C327.695 150.512 309.302 75.9314 335.055 70.9593C316.659 31.1829 357.126 -3.62219 360.807 26.2108C412.307 1.34993 393.914 61.0146 386.559 70.9593Z" fill="#5C9748"/>
<path d="M317.279 117.788L323.254 120.878L330.723 119.333L332.216 278.472L324.748 290.833L326.242 280.018L317.279 278.472L311.304 273.838L297.862 280.018L308.318 272.293L311.304 261.478L310.144 265.677L300.848 266.112L305.33 264.567L309.811 263.023L312.798 256.842L317.279 174.955L284.418 159.504L287.405 156.414L315.786 165.685L317.279 161.049V117.788Z" fill="#8D4E3A"/>
<path d="M330.723 119.333H338.191L344.166 113.153V137.874L351.634 136.329L372.546 120.878L374.04 122.423L360.597 133.238L366.571 130.148L393.458 114.698L396.445 116.243L345.659 150.234L351.634 258.387L354.622 263.022L362.09 266.112H359.103H351.634L347.153 272.292L345.659 275.382V284.653L342.672 278.472H332.216L330.723 119.333Z" fill="#8D4E3A"/>
<path d="M294.875 148.689C308.317 154.869 288.899 173.41 284.419 162.595C270.975 173.41 263.507 150.234 273.963 148.689C266.494 136.329 282.924 125.513 284.419 134.784C305.33 127.058 297.862 145.599 294.875 148.689Z" fill="#458D2C"/>
<path d="M299.799 142.903C313.242 149.083 293.823 167.623 289.343 156.808C275.899 167.623 268.431 144.448 278.888 142.903C271.418 130.543 287.849 119.727 289.343 128.998C310.254 121.272 302.786 139.813 299.799 142.903Z" fill="#458D2C"/>
<path d="M290.837 142.903C304.279 149.083 284.862 167.623 280.382 156.808C266.937 167.623 259.469 144.448 269.926 142.903C262.457 130.543 278.887 119.727 280.382 128.998C301.292 121.272 293.823 139.813 290.837 142.903Z" fill="#458D2C"/>
<path d="M410.332 115.092C423.775 121.272 404.357 139.812 399.877 128.997C386.432 139.812 378.964 116.637 389.421 115.092C381.952 102.732 398.382 91.9157 399.877 101.187C420.787 93.4607 413.319 112.002 410.332 115.092Z" fill="#458D2C"/>
<path d="M356.502 79.5816C389.608 99.469 341.784 159.134 330.751 124.33C297.639 159.134 279.246 84.554 304.999 79.5816C286.603 39.8052 327.069 5.0001 330.751 34.8332C382.251 9.9722 363.857 69.6369 356.502 79.5816Z" fill="#458D2C"/>
<path d="M375.988 60.9593C409.095 80.8469 361.271 140.512 350.237 105.708C317.126 140.512 298.733 65.9314 324.486 60.9593C306.09 21.1829 346.556 -13.6222 350.237 16.2108C401.738 -8.65009 383.343 51.0146 375.988 60.9593Z" fill="#458D2C"/>
<path d="M346.559 60.9593C379.664 80.8469 331.841 140.512 320.807 105.708C287.695 140.512 269.302 65.9314 295.055 60.9593C276.659 21.1829 317.126 -13.6222 320.807 16.2108C372.307 -8.65009 353.914 51.0146 346.559 60.9593Z" fill="#458D2C"/>
<path d="M198.112 116.122L204.087 119.212L211.556 117.667L213.049 276.806L205.581 289.167L207.075 278.352L198.112 276.806L192.137 272.171L178.695 278.352L189.151 270.626L192.137 259.811L190.977 264.01L181.681 264.446L186.163 262.901L190.644 261.356L193.631 255.176L198.112 173.288L165.251 157.837L168.238 154.747L196.619 164.018L198.112 159.382V116.122Z" fill="#7D402D"/>
<path d="M211.556 117.667H219.024L224.999 111.487V136.207L232.467 134.662L253.379 119.212L254.873 120.757L241.43 131.572L247.404 128.482L274.291 113.032L277.278 114.577L226.492 148.567L232.467 256.721L235.455 261.356L242.923 264.446H239.936H232.467L227.987 270.626L226.492 273.716V282.987L223.505 276.806H213.049L211.556 117.667Z" fill="#7D402D"/>
<path d="M175.708 147.022C189.151 153.202 169.733 171.743 165.253 160.928C151.808 171.743 144.34 148.567 154.797 147.022C147.328 134.662 163.758 123.847 165.253 133.117C186.163 125.392 178.695 143.932 175.708 147.022Z" fill="#528E3D"/>
<path d="M180.632 141.236C194.075 147.416 174.656 165.957 170.176 155.142C156.732 165.957 149.264 142.781 159.721 141.236C152.251 128.876 168.682 118.06 170.176 127.331C191.087 119.605 183.619 138.146 180.632 141.236Z" fill="#528E3D"/>
<path d="M171.671 141.236C185.113 147.416 165.695 165.957 161.215 155.142C147.771 165.957 140.303 142.781 150.759 141.236C143.29 128.876 159.72 118.06 161.215 127.331C182.126 119.605 174.657 138.146 171.671 141.236Z" fill="#528E3D"/>
<path d="M291.166 113.425C304.608 119.605 285.19 138.146 280.71 127.331C267.266 138.146 259.798 114.97 270.254 113.425C262.785 101.065 279.216 90.2492 280.71 99.52C301.621 91.7942 294.153 110.335 291.166 113.425Z" fill="#528E3D"/>
<path d="M237.335 77.9151C270.442 97.8025 222.618 157.468 211.584 122.663C178.473 157.468 160.079 82.8872 185.833 77.9151C167.437 38.1387 207.903 3.3336 211.584 33.1667C263.084 8.30572 244.69 67.9704 237.335 77.9151Z" fill="#528E3D"/>
<path d="M256.822 59.2926C289.929 79.1802 242.104 138.845 231.07 104.041C197.959 138.845 179.566 64.2647 205.319 59.2926C186.924 19.5162 227.389 -15.2889 231.07 14.5441C282.571 -10.3168 264.177 49.3478 256.822 59.2926Z" fill="#528E3D"/>
<path d="M227.392 59.2926C260.497 79.1802 212.674 138.845 201.64 104.041C168.528 138.845 150.135 64.2647 175.888 59.2926C157.492 19.5162 197.959 -15.2889 201.64 14.5441C253.14 -10.3168 234.747 49.3478 227.392 59.2926Z" fill="#528E3D"/>
<path d="M400.612 119.455L406.587 122.545L414.056 121L415.549 280.139L408.081 292.5L409.575 281.685L400.612 280.139L394.637 275.504L381.195 281.685L391.651 273.959L394.637 263.144L393.477 267.343L384.181 267.779L388.663 266.234L393.144 264.689L396.131 258.509L400.612 176.622L367.751 161.171L370.738 158.081L399.119 167.352L400.612 162.716V119.455Z" fill="#8C391E"/>
<path d="M414.056 121H421.524L427.499 114.82V139.541L434.967 137.996L455.879 122.545L457.373 124.09L443.93 134.905L449.904 131.815L476.791 116.365L479.778 117.91L428.992 151.901L434.967 260.054L437.955 264.689L445.423 267.779H442.436H434.967L430.486 273.959L428.992 277.049V286.32L426.005 280.139H415.549L414.056 121Z" fill="#8C391E"/>
<path d="M378.208 150.356C391.651 156.536 372.233 175.077 367.753 164.262C354.308 175.077 346.84 151.901 357.297 150.356C349.828 137.996 366.258 127.18 367.753 136.451C388.663 128.725 381.195 147.266 378.208 150.356Z" fill="#7FB26D"/>
<path d="M383.132 144.569C396.575 150.749 377.156 169.29 372.676 158.475C359.232 169.29 351.764 146.114 362.221 144.569C354.751 132.209 371.182 121.393 372.676 130.664C393.587 122.938 386.119 141.479 383.132 144.569Z" fill="#7FB26D"/>
<path d="M374.171 144.569C387.613 150.749 368.195 169.29 363.715 158.475C350.271 169.29 342.803 146.114 353.259 144.569C345.79 132.209 362.22 121.393 363.715 130.664C384.626 122.938 377.157 141.479 374.171 144.569Z" fill="#7FB26D"/>
<path d="M493.666 116.758C507.108 122.938 487.69 141.479 483.21 130.664C469.766 141.479 462.298 118.303 472.754 116.758C465.285 104.398 481.716 93.5824 483.21 102.853C504.121 95.1274 496.653 113.668 493.666 116.758Z" fill="#7FB26D"/>
<path d="M439.835 81.2484C472.942 101.136 425.118 160.801 414.084 125.997C380.973 160.801 362.579 86.2208 388.333 81.2484C369.937 41.472 410.403 6.66685 414.084 36.5C465.584 11.6389 447.19 71.3036 439.835 81.2484Z" fill="#7FB26D"/>
<path d="M459.322 62.6258C492.429 82.5134 444.604 142.178 433.57 107.374C400.459 142.178 382.066 67.5979 407.819 62.6258C389.424 22.8494 429.889 -11.9557 433.57 17.8773C485.071 -6.98358 466.677 52.6811 459.322 62.6258Z" fill="#7FB26D"/>
<path d="M429.892 62.6258C462.997 82.5134 415.174 142.178 404.14 107.374C371.028 142.178 352.635 67.5979 378.388 62.6258C359.992 22.8494 400.459 -11.9557 404.14 17.8773C455.64 -6.98358 437.247 52.6811 429.892 62.6258Z" fill="#7FB26D"/>
<path d="M559.167 269.167H-3.33325V510.833H559.167V269.167Z" fill="#378D4F"/>
<path d="M427.917 279.167H418.333V209.167L425 270.417L427.917 209.167L433.75 270.417L437.083 209.167L441.667 279.167H427.917Z" fill="#318D4B"/>
<path d="M366.25 275H356.667V205L363.333 266.25L366.25 205L372.083 266.25L375.417 205L380 275H366.25Z" fill="#318D4B"/>
<path d="M494.583 278.333H485V208.333L491.667 269.583L494.583 208.333L500.417 269.583L503.75 208.333L508.333 278.333H494.583Z" fill="#318D4B"/>
<path d="M272.917 277.5H263.333V207.5L270 268.75L272.917 207.5L278.75 268.75L282.083 207.5L286.667 277.5H272.917Z" fill="#318D4B"/>
<path d="M404.583 279.167H395V209.167L401.667 270.417L404.583 209.167L410.417 270.417L413.75 209.167L418.333 279.167H404.583Z" fill="#318D4B"/>
<path d="M342.917 275H333.333V205L340 266.25L342.917 205L348.75 266.25L352.083 205L356.667 275H342.917Z" fill="#318D4B"/>
<path d="M471.25 278.333H461.667V208.333L468.333 269.583L471.25 208.333L477.083 269.583L480.417 208.333L485 278.333H471.25Z" fill="#318D4B"/>
<path d="M249.583 277.5H240V207.5L246.667 268.75L249.583 207.5L255.417 268.75L258.75 207.5L263.333 277.5H249.583Z" fill="#318D4B"/>
<path d="M381.25 279.167H371.667V209.167L378.333 270.417L381.25 209.167L387.083 270.417L390.417 209.167L395 279.167H381.25Z" fill="#318D4B"/>
<path d="M319.583 275H310V205L316.667 266.25L319.583 205L325.417 266.25L328.75 205L333.333 275H319.583Z" fill="#318D4B"/>
<path d="M447.917 278.333H438.333V208.333L445 269.583L447.917 208.333L453.75 269.583L457.083 208.333L461.667 278.333H447.917Z" fill="#318D4B"/>
<path d="M226.25 277.5H216.667V207.5L223.333 268.75L226.25 207.5L232.083 268.75L235.417 207.5L240 277.5H226.25Z" fill="#318D4B"/>
<path d="M357.917 279.167H348.333V209.167L355 270.417L357.917 209.167L363.75 270.417L367.083 209.167L371.667 279.167H357.917Z" fill="#318D4B"/>
<path d="M296.25 275H286.667V205L293.333 266.25L296.25 205L302.083 266.25L305.417 205L310 275H296.25Z" fill="#318D4B"/>
<path d="M424.583 278.333H415V208.333L421.667 269.583L424.583 208.333L430.417 269.583L433.75 208.333L438.333 278.333H424.583Z" fill="#318D4B"/>
<path d="M202.917 277.5H193.333V207.5L200 268.75L202.917 207.5L208.75 268.75L212.083 207.5L216.667 277.5H202.917Z" fill="#318D4B"/>
<path d="M342.917 287.5H333.333V217.5L340 278.75L342.917 217.5L348.75 278.75L352.083 217.5L356.667 287.5H342.917Z" fill="#318D4B"/>
<path d="M281.25 283.333H271.667V213.333L278.333 274.583L281.25 213.333L287.083 274.583L290.417 213.333L295 283.333H281.25Z" fill="#318D4B"/>
<path d="M409.583 286.667H400V216.667L406.667 277.917L409.583 216.667L415.417 277.917L418.75 216.667L423.333 286.667H409.583Z" fill="#318D4B"/>
<path d="M187.917 285.833H178.333V215.833L185 277.083L187.917 215.833L193.75 277.083L197.083 215.833L201.667 285.833H187.917Z" fill="#318D4B"/>
<path d="M369.583 279.167H360V209.167L366.667 270.417L369.583 209.167L375.417 270.417L378.75 209.167L383.333 279.167H369.583Z" fill="#318D4B"/>
<path d="M307.917 275H298.333V205L305 266.25L307.917 205L313.75 266.25L317.083 205L321.667 275H307.917Z" fill="#318D4B"/>
<path d="M436.25 278.333H426.667V208.333L433.333 269.583L436.25 208.333L442.083 269.583L445.417 208.333L450 278.333H436.25Z" fill="#318D4B"/>
<path d="M214.583 277.5H205V207.5L211.667 268.75L214.583 207.5L220.417 268.75L223.75 207.5L228.333 277.5H214.583Z" fill="#318D4B"/>
<path d="M386.25 279.167H376.667V209.167L383.333 270.417L386.25 209.167L392.083 270.417L395.417 209.167L400 279.167H386.25Z" fill="#318D4B"/>
<path d="M324.583 275H315V205L321.667 266.25L324.583 205L330.417 266.25L333.75 205L338.333 275H324.583Z" fill="#318D4B"/>
<path d="M452.917 278.333H443.333V208.333L450 269.583L452.917 208.333L458.75 269.583L462.083 208.333L466.667 278.333H452.917Z" fill="#318D4B"/>
<path d="M231.25 277.5H221.667V207.5L228.333 268.75L231.25 207.5L237.083 268.75L240.417 207.5L245 277.5H231.25Z" fill="#318D4B"/>
<path d="M377.917 288.333H368.333V218.333L375 279.583L377.917 218.333L383.75 279.583L387.083 218.333L391.667 288.333H377.917Z" fill="#318D4B"/>
<path d="M316.25 284.167H306.667V214.167L313.333 275.417L316.25 214.167L322.083 275.417L325.417 214.167L330 284.167H316.25Z" fill="#318D4B"/>
<path d="M444.583 287.5H435V217.5L441.667 278.75L444.583 217.5L450.417 278.75L453.75 217.5L458.333 287.5H444.583Z" fill="#318D4B"/>
<path d="M222.917 286.667H213.333V216.667L220 277.917L222.917 216.667L228.75 277.917L232.083 216.667L236.667 286.667H222.917Z" fill="#318D4B"/>
<path d="M404.583 279.167H395V209.167L401.667 270.417L404.583 209.167L410.417 270.417L413.75 209.167L418.333 279.167H404.583Z" fill="#318D4B"/>
<path d="M342.917 275H333.333V205L340 266.25L342.917 205L348.75 266.25L352.083 205L356.667 275H342.917Z" fill="#318D4B"/>
<path d="M471.25 278.333H461.667V208.333L468.333 269.583L471.25 208.333L477.083 269.583L480.417 208.333L485 278.333H471.25Z" fill="#318D4B"/>
<path d="M249.583 277.5H240V207.5L246.667 268.75L249.583 207.5L255.417 268.75L258.75 207.5L263.333 277.5H249.583Z" fill="#318D4B"/>
<path d="M409.583 288.333H400V218.333L406.667 279.583L409.583 218.333L415.417 279.583L418.75 218.333L423.333 288.333H409.583Z" fill="#318D4B"/>
<path d="M347.917 284.167H338.333V214.167L345 275.417L347.917 214.167L353.75 275.417L357.083 214.167L361.667 284.167H347.917Z" fill="#318D4B"/>
<path d="M476.25 287.5H466.667V217.5L473.333 278.75L476.25 217.5L482.083 278.75L485.417 217.5L490 287.5H476.25Z" fill="#318D4B"/>
<path d="M254.583 286.667H245V216.667L251.667 277.917L254.583 216.667L260.417 277.917L263.75 216.667L268.333 286.667H254.583Z" fill="#318D4B"/>
<path d="M260.612 134.347L266.587 137.32L274.056 135.833L275.549 288.942L268.081 300.833L269.575 290.428L260.612 288.942L254.637 284.482L241.195 290.428L251.651 282.995L254.637 272.59L253.477 276.63L244.181 277.049L248.663 275.563L253.144 274.077L256.131 268.131L260.612 189.347L227.751 174.482L230.738 171.509L259.119 180.428L260.612 175.968V134.347Z" fill="#552415"/>
<path d="M274.056 135.833H281.524L287.499 129.887V153.671L294.967 152.185L315.879 137.32L317.373 138.806L303.93 149.212L309.904 146.238L336.791 131.374L339.778 132.86L288.992 165.563L294.967 269.617L297.955 274.077L305.423 277.049H302.436H294.967L290.487 282.995L288.992 285.968V294.887L286.005 288.942H275.549L274.056 135.833Z" fill="#552415"/>
<path d="M238.208 164.077C251.651 170.023 232.233 187.86 227.753 177.455C214.308 187.86 206.84 165.563 217.297 164.077C209.828 152.185 226.258 141.779 227.753 150.698C248.663 143.266 241.195 161.103 238.208 164.077Z" fill="#88C572"/>
<path d="M243.132 158.509C256.575 164.455 237.156 182.293 232.676 171.887C219.232 182.293 211.764 159.996 222.221 158.509C214.751 146.617 231.182 136.212 232.676 145.131C253.587 137.698 246.119 155.537 243.132 158.509Z" fill="#88C572"/>
<path d="M234.171 158.509C247.613 164.455 228.195 182.293 223.715 171.887C210.271 182.293 202.803 159.996 213.259 158.509C205.79 146.617 222.22 136.212 223.715 145.131C244.626 137.698 237.157 155.537 234.171 158.509Z" fill="#88C572"/>
<path d="M353.666 131.752C367.108 137.698 347.69 155.536 343.21 145.131C329.766 155.536 322.298 133.239 332.754 131.752C325.285 119.861 341.716 109.455 343.21 118.374C364.121 110.942 356.653 128.779 353.666 131.752Z" fill="#88C572"/>
<path d="M299.835 97.5883C332.942 116.722 285.118 174.126 274.084 140.641C240.973 174.126 222.579 102.372 248.333 97.5883C229.937 59.3196 270.403 25.8336 274.084 54.536C325.584 30.6172 307.19 88.0208 299.835 97.5883Z" fill="#88C572"/>
<path d="M319.322 79.6717C352.429 98.8057 304.604 156.209 293.57 122.724C260.459 156.209 242.066 84.4549 267.819 79.6717C249.424 41.4028 289.889 7.91683 293.57 36.6192C345.071 12.7005 326.677 70.1038 319.322 79.6717Z" fill="#88C572"/>
<path d="M289.892 79.6717C322.997 98.8057 275.174 156.209 264.14 122.724C231.028 156.209 212.635 84.4549 238.388 79.6717C219.992 41.4028 260.459 7.91683 264.14 36.6192C315.64 12.7005 297.247 70.1038 289.892 79.6717Z" fill="#88C572"/>
<path d="M83.9456 106.013L89.9206 108.987L97.389 107.5L98.8823 260.608L91.414 272.5L92.9081 262.094L83.9456 260.608L77.971 256.148L64.5277 262.094L74.9836 254.662L77.971 244.257L76.811 248.297L67.5151 248.716L71.9962 247.23L76.4773 245.743L79.4646 239.797L83.9456 161.013L51.0845 146.148L54.0719 143.176L82.4521 152.094L83.9456 147.635V106.013Z" fill="#552415"/>
<path d="M97.3892 107.5H104.857L110.832 101.554V125.338L118.301 123.852L139.212 108.987L140.707 110.473L127.263 120.878L133.237 117.905L160.124 103.041L163.112 104.527L112.326 137.23L118.301 241.283L121.288 245.743L128.757 248.716H125.769H118.301L113.82 254.662L112.326 257.635V266.554L109.338 260.608H98.8825L97.3892 107.5Z" fill="#552415"/>
<path d="M61.5415 135.743C74.9838 141.689 55.5658 159.527 51.0857 149.122C37.6414 159.527 30.1731 137.23 40.6299 135.743C33.1605 123.852 49.591 113.446 51.0857 122.365C71.9965 114.932 64.528 132.77 61.5415 135.743Z" fill="#6C9A5C"/>
<path d="M66.4659 130.176C79.9081 136.122 60.4901 153.96 56.0101 143.554C42.5657 153.96 35.0974 131.662 45.5542 130.176C38.0849 118.284 54.5154 107.878 56.0101 116.797C76.9208 109.365 69.4523 127.203 66.4659 130.176Z" fill="#6C9A5C"/>
<path d="M57.504 130.176C70.9462 136.122 51.5281 153.96 47.0481 143.554C33.6038 153.96 26.1356 131.662 36.5922 130.176C29.1229 118.284 45.5534 107.878 47.0481 116.797C67.9588 109.365 60.4903 127.203 57.504 130.176Z" fill="#6C9A5C"/>
<path d="M176.999 103.419C190.441 109.365 171.023 127.202 166.543 116.797C153.099 127.202 145.631 104.906 156.087 103.419C148.618 91.5275 165.049 81.1218 166.543 90.0408C187.454 82.6083 179.986 100.446 176.999 103.419Z" fill="#6C9A5C"/>
<path d="M123.168 69.2549C156.275 88.389 108.451 145.792 97.4176 112.307C64.3059 145.792 45.9126 74.0386 71.6661 69.2549C53.2701 30.9861 93.736 -2.49992 97.4176 26.2025C148.918 2.28376 130.523 59.6871 123.168 69.2549Z" fill="#6C9A5C"/>
<path d="M142.655 51.3384C175.762 70.4723 127.938 127.876 116.903 94.3908C83.7925 127.876 65.3989 56.1221 91.1525 51.3384C72.7564 13.0696 113.223 -20.4164 116.903 8.28597C168.404 -15.6327 150.01 41.7706 142.655 51.3384Z" fill="#6C9A5C"/>
<path d="M113.225 51.3384C146.331 70.4723 98.5077 127.876 87.4736 94.3908C54.3621 127.876 35.9688 56.1221 61.7223 51.3384C43.3263 13.0696 83.7927 -20.4164 87.4736 8.28597C138.974 -15.6327 120.58 41.7706 113.225 51.3384Z" fill="#6C9A5C"/>
<path d="M458.6 43.6882C481.298 57.0299 509.396 51.3477 521.358 30.9967C533.32 10.6457 524.616 -16.6677 501.917 -30.0094C479.218 -43.3511 451.12 -37.669 439.159 -17.3179C427.197 3.03308 435.901 30.3464 458.6 43.6882Z" fill="#DCEF6A"/>
<path d="M218.946 146.013L224.921 148.987L232.389 147.5L233.882 300.608L226.414 312.5L227.908 302.094L218.946 300.608L212.971 296.148L199.528 302.094L209.984 294.662L212.971 284.257L211.811 288.297L202.515 288.716L206.997 287.23L211.477 285.743L214.465 279.797L218.946 201.013L186.085 186.148L189.072 183.176L217.452 192.094L218.946 187.635V146.013Z" fill="#79321B"/>
<path d="M232.389 147.5H239.857L245.832 141.554V165.338L253.301 163.852L274.212 148.987L275.707 150.473L262.263 160.878L268.237 157.905L295.124 143.041L298.112 144.527L247.326 177.23L253.301 281.283L256.288 285.743L263.757 288.716H260.769H253.301L248.82 294.662L247.326 297.635V306.554L244.338 300.608H233.882L232.389 147.5Z" fill="#79321B"/>
<path d="M196.541 175.743C209.984 181.689 190.566 199.527 186.086 189.122C172.641 199.527 165.173 177.23 175.63 175.743C168.161 163.852 184.591 153.446 186.086 162.365C206.996 154.932 199.528 172.77 196.541 175.743Z" fill="#88C572"/>
<path d="M201.466 170.176C214.908 176.122 195.49 193.96 191.01 183.554C177.566 193.96 170.097 171.662 180.554 170.176C173.085 158.284 189.516 147.878 191.01 156.797C211.921 149.365 204.452 167.203 201.466 170.176Z" fill="#88C572"/>
<path d="M192.504 170.176C205.946 176.122 186.529 193.96 182.049 183.554C168.604 193.96 161.136 171.662 171.593 170.176C164.124 158.284 180.554 147.878 182.049 156.797C202.959 149.365 195.49 167.203 192.504 170.176Z" fill="#88C572"/>
<path d="M311.999 143.419C325.441 149.365 306.023 167.202 301.543 156.797C288.099 167.202 280.631 144.906 291.087 143.419C283.618 131.527 300.049 121.121 301.543 130.041C322.454 122.608 314.986 140.446 311.999 143.419Z" fill="#88C572"/>
<path d="M258.169 109.255C291.275 128.389 243.451 185.792 232.418 152.307C199.306 185.792 180.913 114.038 206.666 109.255C188.27 70.9861 228.736 37.5001 232.418 66.2025C283.918 42.2837 265.524 99.6873 258.169 109.255Z" fill="#88C572"/>
<path d="M277.655 91.3383C310.762 110.472 262.937 167.876 251.903 134.391C218.792 167.876 200.399 96.1217 226.152 91.3383C207.757 53.0696 248.222 19.5836 251.903 48.286C303.404 24.3672 285.01 81.7706 277.655 91.3383Z" fill="#88C572"/>
<path d="M248.225 91.3383C281.331 110.472 233.508 167.876 222.473 134.391C189.362 167.876 170.968 96.1217 196.722 91.3383C178.326 53.0696 218.793 19.5836 222.473 48.286C273.973 24.3672 255.58 81.7706 248.225 91.3383Z" fill="#88C572"/>
<path d="M9.77922 135.18L15.7541 138.153L23.2225 136.667L24.7162 289.775L17.2477 301.667L18.7414 291.261L9.77922 289.775L3.80448 285.315L-9.63878 291.261L0.817089 283.828L3.80448 273.423L2.64449 277.463L-6.65137 277.882L-2.1703 276.397L2.31079 274.91L5.29817 268.964L9.77922 190.18L-23.082 175.315L-20.0946 172.342L8.28555 181.261L9.77922 176.802V135.18Z" fill="#79321B"/>
<path d="M23.2224 136.667H30.6909L36.6657 130.721V154.504L44.1342 153.018L65.0458 138.153L66.5395 139.639L53.0963 150.045L59.0711 147.072L85.9574 132.207L88.9449 133.693L38.1593 166.397L44.1342 270.45L47.1215 274.91L54.59 277.882H51.6026H44.1342L39.6531 283.828L38.1593 286.802V295.721L35.172 289.775H24.7162L23.2224 136.667Z" fill="#79321B"/>
<path d="M-12.625 164.91C0.817293 170.856 -18.6007 188.693 -23.0808 178.288C-36.5251 188.693 -43.9934 166.397 -33.5366 164.91C-41.006 153.018 -24.5755 142.612 -23.0808 151.532C-2.17008 144.099 -9.63855 161.937 -12.625 164.91Z" fill="#88C572"/>
<path d="M-7.7006 159.342C5.74163 165.288 -13.6764 183.126 -18.1564 172.721C-31.6008 183.126 -39.0691 160.829 -28.6123 159.342C-36.0816 147.451 -19.6511 137.045 -18.1564 145.964C2.75425 138.531 -4.71422 156.37 -7.7006 159.342Z" fill="#88C572"/>
<path d="M102.832 132.586C116.275 138.532 96.8565 156.369 92.3765 145.964C78.9324 156.369 71.4642 134.072 81.9209 132.586C74.4515 120.694 90.8823 110.288 92.3765 119.207C113.287 111.775 105.819 129.612 102.832 132.586Z" fill="#88C572"/>
<path d="M49.002 98.4216C82.1083 117.556 34.2845 174.959 23.2507 141.474C-9.86084 174.959 -28.2541 103.205 -2.50061 98.4216C-20.8966 60.1528 19.5695 26.6668 23.2507 55.3692C74.7508 31.4505 56.357 88.8541 49.002 98.4216Z" fill="#88C572"/>
<path d="M68.4884 80.5049C101.595 99.639 53.7709 157.042 42.737 123.557C9.62555 157.042 -8.76779 85.2882 16.9857 80.5049C-1.41024 42.2361 39.0558 8.75008 42.737 37.4525C94.2375 13.5337 75.8434 70.9371 68.4884 80.5049Z" fill="#88C572"/>
<path d="M39.0579 80.5049C72.1642 99.639 24.3404 157.042 13.3066 123.557C-19.8049 157.042 -38.1982 85.2882 -12.4447 80.5049C-30.8407 42.2361 9.6254 8.75008 13.3066 37.4525C64.8068 13.5337 46.413 70.9371 39.0579 80.5049Z" fill="#88C572"/>
<path d="M421.446 141.013L427.421 143.987L434.889 142.5L436.382 295.608L428.914 307.5L430.408 297.094L421.446 295.608L415.471 291.148L402.028 297.094L412.484 289.662L415.471 279.257L414.311 283.297L405.015 283.716L409.497 282.23L413.977 280.743L416.965 274.797L421.446 196.013L388.585 181.148L391.572 178.176L419.952 187.094L421.446 182.635V141.013Z" fill="#552415"/>
<path d="M434.889 142.5H442.357L448.333 136.554V160.338L455.801 158.852L476.712 143.987L478.207 145.473L464.763 155.878L470.737 152.905L497.624 138.041L500.612 139.527L449.826 172.23L455.801 276.283L458.788 280.743L466.257 283.716H463.269H455.801L451.32 289.662L449.826 292.635V301.554L446.838 295.608H436.382L434.889 142.5Z" fill="#552415"/>
<path d="M399.041 170.743C412.484 176.689 393.066 194.527 388.586 184.122C375.141 194.527 367.673 172.23 378.13 170.743C370.661 158.852 387.091 148.446 388.586 157.365C409.496 149.932 402.028 167.77 399.041 170.743Z" fill="#88C572"/>
<path d="M403.966 165.176C417.408 171.122 397.99 188.96 393.51 178.554C380.066 188.96 372.597 166.662 383.054 165.176C375.585 153.284 392.016 142.878 393.51 151.797C414.421 144.365 406.952 162.203 403.966 165.176Z" fill="#88C572"/>
<path d="M395.004 165.176C408.446 171.122 389.029 188.96 384.549 178.554C371.104 188.96 363.636 166.662 374.093 165.176C366.624 153.284 383.054 142.878 384.549 151.797C405.459 144.365 397.99 162.203 395.004 165.176Z" fill="#88C572"/>
<path d="M514.499 138.419C527.941 144.365 508.523 162.202 504.043 151.797C490.599 162.202 483.131 139.906 493.587 138.419C486.118 126.527 502.549 116.121 504.043 125.041C524.954 117.608 517.486 135.446 514.499 138.419Z" fill="#88C572"/>
<path d="M460.669 104.255C493.775 123.389 445.951 180.792 434.918 147.307C401.806 180.792 383.413 109.038 409.166 104.255C390.77 65.9861 431.236 32.5001 434.918 61.2025C486.418 37.2837 468.024 94.6873 460.669 104.255Z" fill="#88C572"/>
<path d="M480.155 86.3383C513.262 105.472 465.437 162.876 454.403 129.391C421.292 162.876 402.899 91.1217 428.652 86.3383C410.257 48.0696 450.722 14.5836 454.403 43.286C505.904 19.3672 487.51 76.7706 480.155 86.3383Z" fill="#88C572"/>
<path d="M450.725 86.3383C483.831 105.472 436.007 162.876 424.973 129.391C391.862 162.876 373.468 91.1217 399.222 86.3383C380.826 48.0696 421.292 14.5836 424.973 43.286C476.473 19.3672 458.08 76.7706 450.725 86.3383Z" fill="#88C572"/>
<path d="M481.446 146.847L487.421 149.82L494.889 148.333L496.382 301.442L488.914 313.333L490.408 302.928L481.446 301.442L475.471 296.982L462.028 302.928L472.484 295.495L475.471 285.09L474.311 289.13L465.015 289.549L469.497 288.063L473.977 286.577L476.965 280.631L481.446 201.847L448.585 186.982L451.572 184.009L479.952 192.928L481.446 188.468V146.847Z" fill="#A34629"/>
<path d="M494.889 148.333H502.357L508.333 142.387V166.171L515.801 164.685L536.712 149.82L538.207 151.306L524.763 161.712L530.737 158.738L557.624 143.874L560.612 145.36L509.826 178.063L515.801 282.117L518.788 286.577L526.257 289.549H523.269H515.801L511.32 295.495L509.826 298.468V307.387L506.838 301.442H496.382L494.889 148.333Z" fill="#A34629"/>
<path d="M459.041 176.577C472.484 182.523 453.066 200.36 448.586 189.955C435.141 200.36 427.673 178.063 438.13 176.577C430.661 164.685 447.091 154.279 448.586 163.198C469.496 155.766 462.028 173.603 459.041 176.577Z" fill="#4A6F3D"/>
<path d="M463.966 171.009C477.408 176.955 457.99 194.793 453.51 184.387C440.066 194.793 432.597 172.496 443.054 171.009C435.585 159.117 452.016 148.712 453.51 157.631C474.421 150.198 466.952 168.037 463.966 171.009Z" fill="#4A6F3D"/>
<path d="M455.004 171.009C468.446 176.955 449.029 194.793 444.549 184.387C431.104 194.793 423.636 172.496 434.093 171.009C426.624 159.117 443.054 148.712 444.549 157.631C465.459 150.198 457.99 168.037 455.004 171.009Z" fill="#4A6F3D"/>
<path d="M520.668 110.088C553.775 129.222 505.951 186.626 494.918 153.141C461.806 186.626 443.413 114.872 469.166 110.088C450.77 71.8196 491.236 38.3336 494.918 67.036C546.418 43.1172 528.023 100.521 520.668 110.088Z" fill="#4A6F3D"/>
<path d="M540.155 92.1716C573.262 111.306 525.437 168.709 514.403 135.224C481.292 168.709 462.899 96.9549 488.652 92.1716C470.257 53.9028 510.722 20.4168 514.403 49.1192C565.904 25.2005 547.51 82.6038 540.155 92.1716Z" fill="#4A6F3D"/>
<path d="M510.725 92.1716C543.831 111.306 496.008 168.709 484.973 135.224C451.862 168.709 433.468 96.9549 459.222 92.1716C440.826 53.9028 481.293 20.4168 484.973 49.1192C536.473 25.2005 518.08 82.6038 510.725 92.1716Z" fill="#4A6F3D"/>
<path d="M410.612 164.347L416.587 167.32L424.056 165.833L425.549 318.942L418.081 330.833L419.575 320.428L410.612 318.942L404.637 314.482L391.195 320.428L401.651 312.995L404.637 302.59L403.477 306.63L394.181 307.049L398.663 305.563L403.144 304.077L406.131 298.131L410.612 219.347L377.751 204.482L380.738 201.509L409.119 210.428L410.612 205.968V164.347Z" fill="#613527"/>
<path d="M424.056 165.833H431.524L437.499 159.887V183.671L444.967 182.185L465.879 167.32L467.373 168.806L453.93 179.212L459.904 176.238L486.791 161.374L489.778 162.86L438.992 195.563L444.967 299.617L447.955 304.077L455.423 307.049H452.436H444.967L440.486 312.995L438.992 315.968V324.887L436.005 318.942H425.549L424.056 165.833Z" fill="#613527"/>
<path d="M388.208 194.077C401.651 200.023 382.233 217.86 377.753 207.455C364.308 217.86 356.84 195.563 367.297 194.077C359.828 182.185 376.258 171.779 377.753 180.698C398.663 173.266 391.195 191.103 388.208 194.077Z" fill="#5C9748"/>
<path d="M393.132 188.509C406.575 194.455 387.156 212.293 382.676 201.887C369.232 212.293 361.764 189.996 372.221 188.509C364.751 176.617 381.182 166.212 382.676 175.131C403.587 167.698 396.119 185.537 393.132 188.509Z" fill="#5C9748"/>
<path d="M384.171 188.509C397.613 194.455 378.195 212.293 373.715 201.887C360.271 212.293 352.803 189.996 363.259 188.509C355.79 176.617 372.22 166.212 373.715 175.131C394.626 167.698 387.157 185.537 384.171 188.509Z" fill="#5C9748"/>
<path d="M503.666 161.752C517.108 167.698 497.69 185.536 493.21 175.131C479.766 185.536 472.298 163.239 482.754 161.752C475.285 149.861 491.716 139.455 493.21 148.374C514.121 140.942 506.653 158.779 503.666 161.752Z" fill="#5C9748"/>
<path d="M449.835 127.588C482.942 146.722 435.118 204.126 424.084 170.641C390.973 204.126 372.579 132.372 398.333 127.588C379.937 89.319 420.403 55.8335 424.084 84.5357C475.584 60.6171 457.19 118.021 449.835 127.588Z" fill="#5C9748"/>
<path d="M469.322 109.672C502.429 128.806 454.604 186.209 443.57 152.724C410.459 186.209 392.066 114.455 417.819 109.672C399.424 71.4028 439.889 37.9168 443.57 66.6192C495.071 42.7005 476.677 100.104 469.322 109.672Z" fill="#5C9748"/>
<path d="M439.892 109.672C472.997 128.806 425.174 186.209 414.14 152.724C381.028 186.209 362.635 114.455 388.388 109.672C369.992 71.4028 410.459 37.9168 414.14 66.6192C465.64 42.7005 447.247 100.104 439.892 109.672Z" fill="#5C9748"/>
<path d="M170.677 149.307L165.897 152.027L159.922 150.667L158.728 290.784L164.702 301.667L163.507 292.144L170.677 290.784L175.457 286.702L186.211 292.144L177.847 285.342L175.457 275.82L176.384 279.517L183.821 279.901L180.237 278.541L176.652 277.18L174.262 271.738L170.677 199.64L196.966 186.036L194.576 183.315L171.872 191.477L170.677 187.397V149.307Z" fill="#613527"/>
<path d="M159.922 150.667H153.948L149.168 145.225V166.991L143.193 165.631L126.463 152.027L125.268 153.387L136.023 162.91L131.243 160.189L109.734 146.586L107.344 147.946L147.973 177.874L143.193 273.099L140.803 277.18L134.828 279.901H137.218H143.193L146.778 285.342L147.973 288.063V296.225L150.363 290.784H158.728L159.922 150.667Z" fill="#613527"/>
<path d="M188.6 176.514C177.846 181.955 193.381 198.279 196.965 188.757C207.72 198.279 213.695 177.874 205.329 176.514C211.305 165.631 198.161 156.108 196.965 164.271C180.236 157.468 186.211 173.792 188.6 176.514Z" fill="#5C9748"/>
<path d="M184.661 171.418C173.907 176.86 189.441 193.184 193.025 183.662C203.781 193.184 209.755 172.779 201.39 171.418C207.365 160.536 194.221 151.013 193.025 159.176C176.297 152.373 182.272 168.697 184.661 171.418Z" fill="#5C9748"/>
<path d="M191.83 171.418C181.077 176.86 196.611 193.184 200.195 183.662C210.95 193.184 216.925 172.779 208.559 171.418C214.535 160.536 201.391 151.013 200.195 159.176C183.467 152.373 189.441 168.697 191.83 171.418Z" fill="#5C9748"/>
<path d="M96.234 146.932C85.4799 152.373 101.014 168.697 104.598 159.176C115.354 168.697 121.328 148.292 112.963 146.932C118.938 136.049 105.794 126.526 104.598 134.689C87.8699 127.886 93.8449 144.212 96.234 146.932Z" fill="#5C9748"/>
<path d="M139.298 115.667C112.813 133.178 151.072 185.71 159.899 155.067C186.388 185.71 201.103 120.044 180.501 115.667C195.217 80.645 162.844 50.0003 159.899 76.2673C118.699 54.378 133.414 106.911 139.298 115.667Z" fill="#5C9748"/>
<path d="M123.709 99.27C97.2244 116.781 135.484 169.313 144.31 138.67C170.799 169.313 185.514 103.648 164.912 99.27C179.629 64.2485 147.255 33.6038 144.31 59.8708C103.11 37.9816 117.825 90.5142 123.709 99.27Z" fill="#5C9748"/>
<path d="M147.253 99.27C120.768 116.781 159.028 169.313 167.854 138.67C194.344 169.313 209.058 103.648 188.456 99.27C203.173 64.2485 170.799 33.6038 167.854 59.8708C126.654 37.9816 141.369 90.5142 147.253 99.27Z" fill="#5C9748"/>
<path d="M453.946 189.347L459.921 192.32L467.389 190.833L468.882 343.942L461.414 355.833L462.908 345.428L453.946 343.942L447.971 339.482L434.528 345.428L444.984 337.995L447.971 327.59L446.811 331.63L437.515 332.049L441.997 330.563L446.477 329.077L449.465 323.131L453.946 244.347L421.085 229.482L424.072 226.509L452.452 235.428L453.946 230.968V189.347Z" fill="#8A4029"/>
<path d="M467.389 190.833H474.857L480.833 184.887V208.671L488.301 207.185L509.212 192.32L510.707 193.806L497.263 204.212L503.237 201.238L530.124 186.374L533.112 187.86L482.326 220.563L488.301 324.617L491.288 329.077L498.757 332.049H495.769H488.301L483.82 337.995L482.326 340.968V349.887L479.338 343.942H468.882L467.389 190.833Z" fill="#8A4029"/>
<path d="M431.541 219.077C444.984 225.023 425.566 242.86 421.086 232.455C407.641 242.86 400.173 220.563 410.63 219.077C403.161 207.185 419.591 196.779 421.086 205.698C441.996 198.266 434.528 216.103 431.541 219.077Z" fill="#699D56"/>
<path d="M436.466 213.509C449.908 219.455 430.49 237.293 426.01 226.887C412.566 237.293 405.097 214.996 415.554 213.509C408.085 201.617 424.516 191.212 426.01 200.131C446.921 192.698 439.452 210.537 436.466 213.509Z" fill="#699D56"/>
<path d="M427.504 213.509C440.946 219.455 421.529 237.293 417.049 226.887C403.604 237.293 396.136 214.996 406.593 213.509C399.124 201.617 415.554 191.212 417.049 200.131C437.959 192.698 430.49 210.537 427.504 213.509Z" fill="#699D56"/>
<path d="M493.168 152.588C526.275 171.722 478.451 229.126 467.418 195.641C434.306 229.126 415.913 157.372 441.666 152.588C423.27 114.319 463.736 80.8335 467.418 109.536C518.918 85.6174 500.523 143.021 493.168 152.588Z" fill="#699D56"/>
<path d="M512.655 134.672C545.762 153.806 497.937 211.209 486.903 177.724C453.792 211.209 435.399 139.455 461.152 134.672C442.757 96.4025 483.222 62.917 486.903 91.6192C538.404 67.7006 520.01 125.104 512.655 134.672Z" fill="#699D56"/>
<path d="M483.225 134.672C516.331 153.806 468.508 211.209 457.473 177.724C424.362 211.209 405.968 139.455 431.722 134.672C413.326 96.4025 453.793 62.917 457.473 91.6192C508.973 67.7006 490.58 125.104 483.225 134.672Z" fill="#699D56"/>
<path d="M82.396 106.552L194.167 133.436L186.459 298.322L82.396 262.477V106.552Z" fill="#C7B995"/>
<path d="M-21.6667 142.397L82.3957 106.552V262.477L-21.6667 298.322V142.397Z" fill="#D4AE4C"/>
<path d="M-21.6667 142.397L90.1041 165.697L82.3958 334.167L-21.6667 298.322V142.397Z" fill="#AE8C34"/>
<path d="M82.396 163.904L194.167 133.436L186.459 298.322L82.396 334.167V163.904Z" fill="#D4AE4C"/>
<path d="M76.6145 72.5L136.354 102.968L194.167 133.436L82.3957 163.904L-21.6667 142.398L30.3645 124.475L76.6145 72.5Z" fill="#9C5E44"/>
<path d="M76.6145 72.5L82.3957 163.904L-21.6667 142.398L76.6145 72.5Z" fill="#8A523B"/>
<path d="M126.718 248.139L159.479 242.762V307.283L124.792 319.828L126.718 248.139Z" fill="#726440"/>
<path d="M157.551 276.815C157.551 277.805 156.688 278.607 155.624 278.607C154.56 278.607 153.697 277.805 153.697 276.815C153.697 275.825 154.56 275.022 155.624 275.022C156.688 275.022 157.551 275.825 157.551 276.815Z" fill="#98B44B"/>
<path d="M5.72998 243.682V196.722L51.133 203.148L49.2387 254.238L5.72998 243.682Z" fill="#70C8C2" stroke="#9C5E44"/>
<path d="M26.5107 249.932L28.437 199.749" stroke="#9C5E44"/>
<path d="M5.77051 224.126L50.2503 230.107" stroke="#9C5E44"/>
<path d="M-47.9167 357.5L250 511.667L152.917 599.167L-100 430L-47.9167 357.5Z" fill="#448594" fill-opacity="0.5"/>
<path d="M295.612 151.847L301.587 154.82L309.056 153.333L310.549 306.442L303.081 318.333L304.575 307.928L295.612 306.442L289.637 301.982L276.195 307.928L286.651 300.495L289.637 290.09L288.477 294.13L279.181 294.549L283.663 293.063L288.144 291.577L291.131 285.631L295.612 206.847L262.751 191.982L265.738 189.009L294.119 197.928L295.612 193.468V151.847Z" fill="#613527"/>
<path d="M309.056 153.333H316.524L322.499 147.387V171.171L329.967 169.685L350.879 154.82L352.373 156.306L338.93 166.712L344.904 163.738L371.791 148.874L374.778 150.36L323.992 183.063L329.967 287.117L332.955 291.577L340.423 294.549H337.436H329.967L325.487 300.495L323.992 303.468V312.387L321.005 306.442H310.549L309.056 153.333Z" fill="#613527"/>
<path d="M273.208 181.577C286.651 187.523 267.233 205.36 262.753 194.955C249.308 205.36 241.84 183.063 252.297 181.577C244.828 169.685 261.258 159.279 262.753 168.198C283.663 160.766 276.195 178.603 273.208 181.577Z" fill="#5C9748"/>
<path d="M278.132 176.009C291.575 181.955 272.156 199.793 267.676 189.387C254.232 199.793 246.764 177.496 257.221 176.009C249.751 164.117 266.182 153.712 267.676 162.631C288.587 155.198 281.119 173.037 278.132 176.009Z" fill="#5C9748"/>
<path d="M269.171 176.009C282.613 181.955 263.195 199.793 258.715 189.387C245.271 199.793 237.803 177.496 248.259 176.009C240.79 164.117 257.22 153.712 258.715 162.631C279.626 155.198 272.157 173.037 269.171 176.009Z" fill="#5C9748"/>
<path d="M388.666 149.252C402.108 155.198 382.69 173.036 378.21 162.631C364.766 173.036 357.298 150.739 367.754 149.252C360.285 137.361 376.716 126.955 378.21 135.874C399.121 128.442 391.653 146.279 388.666 149.252Z" fill="#5C9748"/>
<path d="M334.835 115.088C367.942 134.222 320.118 191.626 309.084 158.141C275.973 191.626 257.579 119.872 283.333 115.088C264.937 76.8196 305.403 43.3336 309.084 72.036C360.584 48.1172 342.19 105.521 334.835 115.088Z" fill="#5C9748"/>
<path d="M354.322 97.1716C387.429 116.306 339.604 173.709 328.57 140.224C295.459 173.709 277.066 101.955 302.819 97.1716C284.424 58.9028 324.889 25.4168 328.57 54.1192C380.071 30.2005 361.677 87.6041 354.322 97.1716Z" fill="#5C9748"/>
<path d="M324.892 97.1716C357.997 116.306 310.174 173.709 299.14 140.224C266.028 173.709 247.635 101.955 273.388 97.1716C254.992 58.9028 295.459 25.4168 299.14 54.1192C350.64 30.2005 332.247 87.6041 324.892 97.1716Z" fill="#5C9748"/>
<path d="M101.196 360.912H127.341L123.689 352.046L261.237 353.723L344.008 354.682V357.797H337.922H398.896L395.106 360.219L398.896 423.793L386.817 433.62L392.894 468.838L257.332 472.5L116.767 471.063L105.17 406.818L108.96 387.402L101.196 360.912Z" fill="#A9AD81"/>
<path d="M116.082 380.137H89.4857L84.1665 360.771V339.167L284.527 346.917L405.098 351.347L404.561 364.059L405.833 377.68L261.477 373.493L116.082 380.137Z" fill="#8D8F6D"/>
<path d="M178.369 398.133V398.333H172.569C172.502 397.383 172.361 396.4 172.144 395.383C171.111 396.433 169.944 397.417 168.644 398.333H162.819C162.702 397.65 162.644 396.75 162.644 395.633C162.644 394.5 162.811 393.367 163.144 392.233C164.344 391.883 165.494 391.292 166.594 390.458C167.711 389.625 168.519 388.725 169.019 387.758C168.569 387.058 168.094 386.417 167.594 385.833H175.894C177.544 389.417 178.369 393.517 178.369 398.133ZM171.694 393.558C171.261 392.075 170.694 390.675 169.994 389.358C169.211 391.658 168.761 393.833 168.644 395.883C169.844 395.267 170.861 394.492 171.694 393.558ZM189.169 391.233L191.544 391.383C191.761 391.383 191.927 391.375 192.044 391.358L190.869 393.558H190.644C190.327 393.558 189.877 393.475 189.294 393.308C188.711 393.125 188.294 393.033 188.044 393.033C187.394 393.033 186.869 393.458 186.469 394.308C186.386 395.258 186.344 396.008 186.344 396.558C186.344 397.108 186.361 397.7 186.394 398.333H180.969C180.652 396.2 180.494 394 180.494 391.733C180.494 389.45 180.611 387.492 180.844 385.858H194.194C193.894 387.658 193.627 388.917 193.394 389.633L190.694 389.758C190.844 389.342 190.919 388.983 190.919 388.683C190.919 387.883 190.311 387.483 189.094 387.483C188.561 387.483 188.069 387.525 187.619 387.608C187.252 389.092 186.952 390.608 186.719 392.158C187.386 391.542 188.202 391.233 189.169 391.233ZM210.772 385.833C210.839 386.917 210.872 388.5 210.872 390.583C210.872 392.65 210.739 394.858 210.472 397.208C208.739 398.325 206.664 398.883 204.247 398.883C201.031 398.883 198.431 398.325 196.447 397.208C196.231 395.408 196.122 393.667 196.122 391.983C196.122 390.283 196.247 388.233 196.497 385.833H203.222C202.556 389.45 202.206 392.925 202.172 396.258C202.872 396.892 203.881 397.208 205.197 397.208C206.514 397.208 207.522 396.975 208.222 396.508C208.256 395.958 208.272 395.167 208.272 394.133C208.272 391.5 208.039 388.733 207.572 385.833H210.772ZM222.226 390.858L224.576 391.008C224.81 391.008 224.985 391 225.101 390.983L223.926 393.183H223.701C223.385 393.183 222.935 393.1 222.351 392.933C221.768 392.75 221.351 392.658 221.101 392.658C220.418 392.658 219.876 393.1 219.476 393.983C219.41 394.8 219.36 395.617 219.326 396.433C220.193 396.6 220.876 396.683 221.376 396.683H221.601C222.318 396.683 222.885 396.525 223.301 396.208C223.735 395.892 224.043 395.325 224.226 394.508L227.226 394.633C226.976 396.067 226.643 397.3 226.226 398.333H213.951C213.618 396.083 213.451 393.85 213.451 391.633C213.451 389.417 213.568 387.483 213.801 385.833H227.201C226.901 387.633 226.635 388.9 226.401 389.633C225.418 389.683 224.518 389.717 223.701 389.733C223.835 389.35 223.901 388.992 223.901 388.658C223.901 387.858 223.301 387.458 222.101 387.458C221.651 387.458 221.151 387.508 220.601 387.608C220.235 389.192 219.951 390.583 219.751 391.783C220.418 391.167 221.243 390.858 222.226 390.858ZM244.174 390.183L244.149 391.033C242.816 391.75 241.149 392.308 239.149 392.708C240.582 393.092 241.966 393.283 243.299 393.283H243.824C244.741 394.633 245.332 396.317 245.599 398.333H239.124C238.957 397.167 238.616 396.167 238.099 395.333C237.599 394.483 236.982 393.908 236.249 393.608C236.232 393.892 236.224 394.458 236.224 395.308C236.224 396.158 236.274 397.167 236.374 398.333H230.924C230.441 395.917 230.199 393.675 230.199 391.608C230.199 389.525 230.316 387.6 230.549 385.833H243.599C243.982 387.517 244.174 388.967 244.174 390.183ZM236.774 387.508C236.574 388.975 236.424 390.417 236.324 391.833C237.241 391.7 237.991 391.375 238.574 390.858C238.257 389.742 237.657 388.625 236.774 387.508ZM263.526 398.133V398.333H257.726C257.659 397.417 257.517 396.433 257.301 395.383C256.134 396.55 254.967 397.533 253.801 398.333H247.976C247.859 397.65 247.801 396.75 247.801 395.633C247.801 394.5 247.967 393.367 248.301 392.233C249.501 391.883 250.651 391.292 251.751 390.458C252.867 389.625 253.676 388.725 254.176 387.758C253.709 387.025 253.234 386.383 252.751 385.833H261.051C262.701 389.45 263.526 393.55 263.526 398.133ZM256.851 393.558C256.434 392.125 255.867 390.725 255.151 389.358C254.367 391.658 253.917 393.833 253.801 395.883C255.034 395.217 256.051 394.442 256.851 393.558ZM274.551 387.333C273.884 387.233 273.167 387.183 272.401 387.183C271.651 387.183 270.917 387.233 270.201 387.333C270.651 388.1 271.184 388.725 271.801 389.208C272.417 389.692 273.192 390.175 274.126 390.658C275.076 391.125 275.842 391.558 276.426 391.958C277.026 392.358 277.684 393.017 278.401 393.933C279.117 394.85 279.567 395.808 279.751 396.808C278.951 397.842 277.892 398.75 276.576 399.533C275.259 400.333 273.909 400.867 272.526 401.133C271.592 401.05 270.409 400.783 268.976 400.333C267.559 399.9 266.492 399.683 265.776 399.683C265.059 399.683 264.342 399.908 263.626 400.358C263.926 399.508 264.417 398.442 265.101 397.158H265.301C266.367 397.158 267.367 397.325 268.301 397.658C269.251 397.992 270.109 398.325 270.876 398.658C271.659 398.992 272.284 399.158 272.751 399.158C273.234 399.158 273.584 399.125 273.801 399.058C273.801 397.958 273.459 397.05 272.776 396.333C272.409 395.95 272.092 395.658 271.826 395.458C271.576 395.242 271.184 394.95 270.651 394.583L270.226 394.283C269.092 393.5 268.159 392.708 267.426 391.908C266.692 391.092 266.159 390.092 265.826 388.908C266.359 387.725 266.884 386.7 267.401 385.833C268.984 385.45 270.626 385.258 272.326 385.258H273.426C274.859 385.258 276.501 385.458 278.351 385.858C278.084 386.958 277.759 387.95 277.376 388.833C275.976 388.933 274.892 388.983 274.126 388.983C274.276 388.6 274.417 388.05 274.551 387.333ZM296.46 385.258C299.676 385.258 302.293 385.658 304.31 386.458C305.026 387.892 305.385 389.342 305.385 390.808C305.385 392.692 304.743 394.325 303.46 395.708C301.593 397.692 299.068 398.683 295.885 398.683C294.785 398.683 293.293 398.558 291.41 398.308C290.76 394.958 290.435 391.867 290.435 389.033C290.435 388.05 290.485 386.983 290.585 385.833C293.268 385.45 295.226 385.258 296.46 385.258ZM297.21 387.133C296.91 390.267 296.76 392.517 296.76 393.883C296.76 395.233 296.785 396.333 296.835 397.183C297.735 396.7 298.435 395.892 298.935 394.758C299.451 393.608 299.71 392.45 299.71 391.283C299.71 390.1 299.493 389.133 299.06 388.383C298.643 387.633 298.026 387.217 297.21 387.133ZM316.905 390.858L319.255 391.008C319.488 391.008 319.663 391 319.78 390.983L318.605 393.183H318.38C318.063 393.183 317.613 393.1 317.03 392.933C316.446 392.75 316.03 392.658 315.78 392.658C315.096 392.658 314.555 393.1 314.155 393.983C314.088 394.8 314.038 395.617 314.005 396.433C314.871 396.6 315.555 396.683 316.055 396.683H316.28C316.996 396.683 317.563 396.525 317.98 396.208C318.413 395.892 318.721 395.325 318.905 394.508L321.905 394.633C321.655 396.067 321.321 397.3 320.905 398.333H308.63C308.296 396.083 308.13 393.85 308.13 391.633C308.13 389.417 308.246 387.483 308.48 385.833H321.88C321.58 387.633 321.313 388.9 321.08 389.633C320.096 389.683 319.196 389.717 318.38 389.733C318.513 389.35 318.58 388.992 318.58 388.658C318.58 387.858 317.98 387.458 316.78 387.458C316.33 387.458 315.83 387.508 315.28 387.608C314.913 389.192 314.63 390.583 314.43 391.783C315.096 391.167 315.921 390.858 316.905 390.858ZM330.152 396.408C330.936 396.592 331.686 396.683 332.402 396.683C333.119 396.683 333.686 396.525 334.102 396.208C334.536 395.875 334.852 395.308 335.052 394.508L338.052 394.608C337.802 396.108 337.469 397.35 337.052 398.333H324.777C324.461 396.2 324.302 393.992 324.302 391.708C324.302 389.425 324.419 387.467 324.652 385.833H331.852C330.752 390.05 330.186 393.575 330.152 396.408ZM207.451 424.208C208.584 424.208 209.509 424.117 210.226 423.933C209.926 422.083 209.076 420.708 207.676 419.808C207.526 421.292 207.451 422.758 207.451 424.208ZM201.151 418.333C201.151 416.583 201.309 414.917 201.626 413.333H215.501C214.751 415.667 213.317 417.358 211.201 418.408C213.117 419.092 214.651 420.042 215.801 421.258C215.651 422.808 215.292 424.333 214.726 425.833H202.151C201.484 423.517 201.151 421.017 201.151 418.333ZM207.876 418.083C208.692 417.867 209.451 417.492 210.151 416.958C210.851 416.425 211.351 415.767 211.651 414.983C210.317 414.983 209.234 415.025 208.401 415.108C208.201 416.075 208.026 417.067 207.876 418.083ZM219.858 425.758C218.375 423.858 217.633 421.908 217.633 419.908C217.633 417.908 218.466 416.217 220.133 414.833C221.8 413.45 223.933 412.758 226.533 412.758C227.916 412.758 229.291 412.967 230.658 413.383C231.858 414.9 232.458 416.525 232.458 418.258C232.458 420.442 231.566 422.342 229.783 423.958C228 425.575 225.841 426.383 223.308 426.383C222.225 426.383 221.075 426.175 219.858 425.758ZM223.658 414.933C223.075 415.933 222.783 417.108 222.783 418.458C222.783 419.808 223.075 421.058 223.658 422.208C224.258 423.342 225.075 424.158 226.108 424.658C226.891 423.658 227.283 422.5 227.283 421.183C227.283 419.867 226.958 418.642 226.308 417.508C225.675 416.375 224.791 415.517 223.658 414.933ZM243.813 414.833C243.146 414.733 242.43 414.683 241.663 414.683C240.913 414.683 240.18 414.733 239.463 414.833C239.913 415.6 240.446 416.225 241.063 416.708C241.68 417.192 242.455 417.675 243.388 418.158C244.338 418.625 245.105 419.058 245.688 419.458C246.288 419.858 246.946 420.517 247.663 421.433C248.38 422.35 248.83 423.308 249.013 424.308C248.213 425.342 247.155 426.25 245.838 427.033C244.521 427.833 243.171 428.367 241.788 428.633C240.855 428.55 239.671 428.283 238.238 427.833C236.821 427.4 235.755 427.183 235.038 427.183C234.321 427.183 233.605 427.408 232.888 427.858C233.188 427.008 233.68 425.942 234.363 424.658H234.563C235.63 424.658 236.63 424.825 237.563 425.158C238.513 425.492 239.371 425.825 240.138 426.158C240.921 426.492 241.546 426.658 242.013 426.658C242.496 426.658 242.846 426.625 243.063 426.558C243.063 425.458 242.721 424.55 242.038 423.833C241.671 423.45 241.355 423.158 241.088 422.958C240.838 422.742 240.446 422.45 239.913 422.083L239.488 421.783C238.355 421 237.421 420.208 236.688 419.408C235.955 418.592 235.421 417.592 235.088 416.408C235.621 415.225 236.146 414.2 236.663 413.333C238.246 412.95 239.888 412.758 241.588 412.758H242.688C244.121 412.758 245.763 412.958 247.613 413.358C247.346 414.458 247.021 415.45 246.638 416.333C245.238 416.433 244.155 416.483 243.388 416.483C243.538 416.1 243.68 415.55 243.813 414.833ZM252.332 425.758C250.849 423.858 250.107 421.917 250.107 419.933C250.107 417.933 250.941 416.242 252.607 414.858C254.274 413.458 256.407 412.758 259.007 412.758C260.441 412.758 261.807 412.958 263.107 413.358C264.324 414.892 264.932 416.533 264.932 418.283C264.932 420.667 263.891 422.692 261.807 424.358C261.991 424.325 262.324 424.242 262.807 424.108C263.291 423.975 263.682 423.908 263.982 423.908C264.299 423.908 264.632 423.967 264.982 424.083L266.782 426.408C266.449 426.008 265.957 425.808 265.307 425.808C264.674 425.808 263.824 425.9 262.757 426.083C261.691 426.267 260.966 426.367 260.582 426.383C260.249 426.233 259.916 425.983 259.582 425.633C258.366 426.133 257.157 426.383 255.957 426.383C254.757 426.383 253.549 426.175 252.332 425.758ZM256.132 414.958C255.532 415.992 255.232 417.175 255.232 418.508C255.232 419.825 255.532 421.058 256.132 422.208C256.732 423.342 257.549 424.158 258.582 424.658C259.366 423.658 259.757 422.5 259.757 421.183C259.757 419.867 259.432 418.642 258.782 417.508C258.149 416.375 257.266 415.525 256.132 414.958ZM282.208 413.333C282.275 414.417 282.308 416 282.308 418.083C282.308 420.15 282.175 422.358 281.908 424.708C280.175 425.825 278.1 426.383 275.683 426.383C272.466 426.383 269.866 425.825 267.883 424.708C267.666 422.908 267.558 421.167 267.558 419.483C267.558 417.783 267.683 415.733 267.933 413.333H274.658C273.991 416.95 273.641 420.425 273.608 423.758C274.308 424.392 275.316 424.708 276.633 424.708C277.95 424.708 278.958 424.475 279.658 424.008C279.691 423.458 279.708 422.667 279.708 421.633C279.708 419 279.475 416.233 279.008 413.333H282.208ZM293.662 418.358L296.012 418.508C296.246 418.508 296.421 418.5 296.537 418.483L295.362 420.683H295.137C294.821 420.683 294.371 420.6 293.787 420.433C293.204 420.25 292.787 420.158 292.537 420.158C291.854 420.158 291.312 420.6 290.912 421.483C290.846 422.3 290.796 423.117 290.762 423.933C291.629 424.1 292.312 424.183 292.812 424.183H293.037C293.754 424.183 294.321 424.025 294.737 423.708C295.171 423.392 295.479 422.825 295.662 422.008L298.662 422.133C298.412 423.567 298.079 424.8 297.662 425.833H285.387C285.054 423.583 284.887 421.35 284.887 419.133C284.887 416.917 285.004 414.983 285.237 413.333H298.637C298.337 415.133 298.071 416.4 297.837 417.133C296.854 417.183 295.954 417.217 295.137 417.233C295.271 416.85 295.337 416.492 295.337 416.158C295.337 415.358 294.737 414.958 293.537 414.958C293.087 414.958 292.587 415.008 292.037 415.108C291.671 416.692 291.387 418.083 291.187 419.283C291.854 418.667 292.679 418.358 293.662 418.358ZM179.438 444.683C179.438 443.383 179.238 442.1 178.838 440.833H185.538C185.555 441.083 185.563 441.45 185.563 441.933C185.563 444.067 185.28 445.833 184.713 447.233C183.23 447.667 181.996 448.242 181.013 448.958C180.03 449.675 179.538 450.417 179.538 451.183C179.538 451.933 179.88 452.65 180.563 453.333H174.263C173.23 451.8 172.355 450.025 171.638 448.008C171.088 449.258 170.813 450.317 170.813 451.183C170.813 452.033 171.055 452.75 171.538 453.333H165.263C163.98 451.633 162.888 449.667 161.988 447.433C161.088 445.2 160.48 443 160.163 440.833H166.813C167.096 444.417 167.83 447.392 169.013 449.758C169.863 448.308 170.288 446.55 170.288 444.483C170.288 443.367 170.146 442.15 169.863 440.833H175.813C176.08 444.133 176.863 447.108 178.163 449.758C179.013 448.192 179.438 446.5 179.438 444.683ZM203.064 453.133V453.333H197.264C197.197 452.417 197.056 451.433 196.839 450.383C195.672 451.55 194.506 452.533 193.339 453.333H187.514C187.397 452.65 187.339 451.75 187.339 450.633C187.339 449.5 187.506 448.367 187.839 447.233C189.039 446.883 190.189 446.292 191.289 445.458C192.406 444.625 193.214 443.725 193.714 442.758C193.247 442.025 192.772 441.383 192.289 440.833H200.589C202.239 444.45 203.064 448.55 203.064 453.133ZM196.389 448.558C195.972 447.125 195.406 445.725 194.689 444.358C193.906 446.658 193.456 448.833 193.339 450.883C194.572 450.217 195.589 449.442 196.389 448.558ZM210.365 451.408C211.148 451.592 211.898 451.683 212.615 451.683C213.331 451.683 213.898 451.525 214.315 451.208C214.748 450.875 215.065 450.308 215.265 449.508L218.265 449.608C218.015 451.108 217.681 452.35 217.265 453.333H204.99C204.673 451.2 204.515 448.992 204.515 446.708C204.515 444.425 204.631 442.467 204.865 440.833H212.065C210.965 445.05 210.398 448.575 210.365 451.408ZM226.428 440.258C229.645 440.258 232.261 440.658 234.278 441.458C234.995 442.892 235.353 444.342 235.353 445.808C235.353 447.692 234.711 449.325 233.428 450.708C231.561 452.692 229.036 453.683 225.853 453.683C224.753 453.683 223.261 453.558 221.378 453.308C220.728 449.958 220.403 446.867 220.403 444.033C220.403 443.05 220.453 441.983 220.553 440.833C223.236 440.45 225.195 440.258 226.428 440.258ZM227.178 442.133C226.878 445.267 226.728 447.517 226.728 448.883C226.728 450.233 226.753 451.333 226.803 452.183C227.703 451.7 228.403 450.892 228.903 449.758C229.42 448.608 229.678 447.45 229.678 446.283C229.678 445.1 229.461 444.133 229.028 443.383C228.611 442.633 227.995 442.217 227.178 442.133ZM247.073 442.333C246.406 442.233 245.69 442.183 244.923 442.183C244.173 442.183 243.44 442.233 242.723 442.333C243.173 443.1 243.706 443.725 244.323 444.208C244.94 444.692 245.715 445.175 246.648 445.658C247.598 446.125 248.365 446.558 248.948 446.958C249.548 447.358 250.206 448.017 250.923 448.933C251.64 449.85 252.09 450.808 252.273 451.808C251.473 452.842 250.415 453.75 249.098 454.533C247.781 455.333 246.431 455.867 245.048 456.133C244.115 456.05 242.931 455.783 241.498 455.333C240.081 454.9 239.015 454.683 238.298 454.683C237.581 454.683 236.865 454.908 236.148 455.358C236.448 454.508 236.94 453.442 237.623 452.158H237.823C238.89 452.158 239.89 452.325 240.823 452.658C241.773 452.992 242.631 453.325 243.398 453.658C244.181 453.992 244.806 454.158 245.273 454.158C245.756 454.158 246.106 454.125 246.323 454.058C246.323 452.958 245.981 452.05 245.298 451.333C244.931 450.95 244.615 450.658 244.348 450.458C244.098 450.242 243.706 449.95 243.173 449.583L242.748 449.283C241.615 448.5 240.681 447.708 239.948 446.908C239.215 446.092 238.681 445.092 238.348 443.908C238.881 442.725 239.406 441.7 239.923 440.833C241.506 440.45 243.148 440.258 244.848 440.258H245.948C247.381 440.258 249.023 440.458 250.873 440.858C250.606 441.958 250.281 442.95 249.898 443.833C248.498 443.933 247.415 443.983 246.648 443.983C246.798 443.6 246.94 443.05 247.073 442.333ZM263.592 442.358C263.009 442.258 262.442 442.208 261.892 442.208C261.359 442.208 260.709 442.3 259.942 442.483C259.692 443.533 259.567 444.558 259.567 445.558C259.567 448.142 260.717 450.125 263.017 451.508C264.551 450.492 265.934 449.225 267.167 447.708C267.217 448.375 267.259 449.392 267.292 450.758C266.059 451.725 264.801 452.483 263.517 453.033C262.234 453.583 260.634 453.858 258.717 453.858H258.142C256.642 453.208 255.459 452.25 254.592 450.983C253.742 449.717 253.317 448.383 253.317 446.983C253.317 445.117 254.084 443.533 255.617 442.233C257.151 440.917 259.376 440.258 262.292 440.258C263.926 440.258 265.634 440.467 267.417 440.883C267.151 441.933 266.817 442.925 266.417 443.858C265.367 443.958 264.284 444.008 263.167 444.008C263.334 443.542 263.476 442.992 263.592 442.358ZM285.638 442.908C285.638 446.175 285.321 449.65 284.688 453.333H278.713C278.98 451.367 279.155 449.25 279.238 446.983C278.371 446.45 277.405 446.125 276.338 446.008C276.238 448.458 275.971 450.9 275.538 453.333H269.863C270.08 451.7 270.188 449.75 270.188 447.483C270.188 445.2 270.038 442.983 269.738 440.833H276.338C276.371 441.517 276.388 442.533 276.388 443.883C277.355 444.183 278.313 444.592 279.263 445.108C279.263 443.558 279.205 442.133 279.088 440.833H285.588C285.621 441.767 285.638 442.458 285.638 442.908ZM302.219 445.183L302.194 446.033C300.861 446.75 299.194 447.308 297.194 447.708C298.627 448.092 300.011 448.283 301.344 448.283H301.869C302.786 449.633 303.377 451.317 303.644 453.333H297.169C297.002 452.167 296.661 451.167 296.144 450.333C295.644 449.483 295.027 448.908 294.294 448.608C294.277 448.892 294.269 449.458 294.269 450.308C294.269 451.158 294.319 452.167 294.419 453.333H288.969C288.486 450.917 288.244 448.675 288.244 446.608C288.244 444.525 288.361 442.6 288.594 440.833H301.644C302.027 442.517 302.219 443.967 302.219 445.183ZM294.819 442.508C294.619 443.975 294.469 445.417 294.369 446.833C295.286 446.7 296.036 446.375 296.619 445.858C296.302 444.742 295.702 443.625 294.819 442.508ZM321.57 453.133V453.333H315.77C315.703 452.417 315.561 451.433 315.345 450.383C314.178 451.55 313.011 452.533 311.845 453.333H306.02C305.903 452.65 305.845 451.75 305.845 450.633C305.845 449.5 306.011 448.367 306.345 447.233C307.545 446.883 308.695 446.292 309.795 445.458C310.911 444.625 311.72 443.725 312.22 442.758C311.753 442.025 311.278 441.383 310.795 440.833H319.095C320.745 444.45 321.57 448.55 321.57 453.133ZM314.895 448.558C314.478 447.125 313.911 445.725 313.195 444.358C312.411 446.658 311.961 448.833 311.845 450.883C313.078 450.217 314.095 449.442 314.895 448.558ZM333.821 442.458C333.387 445.092 333.171 447.242 333.171 448.908C333.171 450.575 333.237 452.05 333.371 453.333H327.921C327.354 450.683 327.071 447.833 327.071 444.783C327.071 444.267 327.087 443.492 327.121 442.458C325.704 442.875 324.837 443.833 324.521 445.333L322.046 445.183L322.946 440.833H339.571C339.237 442.667 338.854 444.167 338.421 445.333L335.896 445.183C335.962 444.917 335.996 444.65 335.996 444.383C335.996 443.733 335.796 443.25 335.396 442.933C334.996 442.617 334.471 442.458 333.821 442.458Z" fill="black"/>
<path d="M32.9067 60.6653H47.6047L45.5517 54.9575L122.877 56.0374L169.41 56.6544V58.6599H165.988H200.267L198.136 60.219L200.267 101.145L193.477 107.471L196.892 130.143L120.682 132.5L41.6603 131.574L35.1407 90.2175L37.2713 77.7179L32.9067 60.6653Z" fill="#A9AD81"/>
<path d="M41.2756 73.0412H26.3237L23.3333 60.5748V46.6665L135.972 51.6563L203.753 54.5077L203.451 62.6913L204.167 71.4596L123.013 68.7643L41.2756 73.0412Z" fill="#8D8F6D"/>
<path d="M72.3731 80.0146C71.7898 79.9146 71.2231 79.8646 70.6731 79.8646C70.1398 79.8646 69.4898 79.9562 68.7231 80.1396C68.4731 81.1896 68.3481 82.2146 68.3481 83.2146C68.3481 85.7975 69.4981 87.7808 71.7981 89.1641C73.3315 88.1475 74.7148 86.8808 75.9481 85.3641C75.9981 86.0308 76.0398 87.0475 76.0731 88.4141C74.8398 89.3808 73.5815 90.1391 72.2981 90.6891C71.0148 91.2391 69.4148 91.5141 67.4981 91.5141H66.9231C65.4231 90.8641 64.2398 89.9058 63.3731 88.6391C62.5231 87.3725 62.0981 86.0391 62.0981 84.6391C62.0981 82.7729 62.8648 81.1896 64.3981 79.8896C65.9315 78.5729 68.1565 77.9146 71.0731 77.9146C72.7065 77.9146 74.4148 78.1229 76.1981 78.5396C75.9315 79.5896 75.5981 80.5812 75.1981 81.5146C74.1481 81.6146 73.0648 81.6646 71.9481 81.6646C72.1148 81.1979 72.2565 80.6479 72.3731 80.0146ZM94.1942 90.7891V90.9891H88.3942C88.3276 90.0725 88.1859 89.0891 87.9692 88.0391C86.8026 89.2058 85.6359 90.1891 84.4692 90.9891H78.6441C78.5274 90.3058 78.4691 89.4058 78.4691 88.2891C78.4691 87.1558 78.6357 86.0225 78.9691 84.8891C80.1691 84.5391 81.3191 83.9475 82.4191 83.1146C83.5359 82.2812 84.3442 81.3812 84.8442 80.4146C84.3776 79.6812 83.9026 79.0396 83.4192 78.4896H91.7192C93.3692 82.1062 94.1942 86.2058 94.1942 90.7891ZM87.5192 86.2141C87.1026 84.7808 86.5359 83.3808 85.8192 82.0146C85.0359 84.3141 84.5859 86.4891 84.4692 88.5391C85.7026 87.8725 86.7192 87.0975 87.5192 86.2141ZM105.219 79.9896C104.553 79.8896 103.836 79.8396 103.069 79.8396C102.319 79.8396 101.586 79.8896 100.869 79.9896C101.319 80.7562 101.853 81.3812 102.469 81.8646C103.086 82.3479 103.861 82.8312 104.794 83.3146C105.744 83.7808 106.511 84.2141 107.094 84.6141C107.694 85.0141 108.353 85.6725 109.069 86.5891C109.786 87.5058 110.236 88.4641 110.419 89.4641C109.619 90.4975 108.561 91.4058 107.244 92.1891C105.928 92.9891 104.578 93.5225 103.194 93.7891C102.261 93.7058 101.078 93.4391 99.6442 92.9891C98.2276 92.5558 97.1609 92.3391 96.4442 92.3391C95.7276 92.3391 95.0109 92.5641 94.2942 93.0141C94.5942 92.1641 95.0859 91.0975 95.7692 89.8141H95.9692C97.0359 89.8141 98.0359 89.9808 98.9692 90.3141C99.9192 90.6475 100.778 90.9808 101.544 91.3141C102.328 91.6475 102.953 91.8141 103.419 91.8141C103.903 91.8141 104.253 91.7808 104.469 91.7141C104.469 90.6141 104.128 89.7058 103.444 88.9891C103.078 88.6058 102.761 88.3141 102.494 88.1141C102.244 87.8975 101.853 87.6058 101.319 87.2391L100.894 86.9391C99.7609 86.1558 98.8276 85.3641 98.0942 84.5641C97.3609 83.7475 96.8276 82.7479 96.4942 81.5646C97.0276 80.3812 97.5526 79.3562 98.0692 78.4896C99.6526 78.1062 101.294 77.9146 102.994 77.9146H104.094C105.528 77.9146 107.169 78.1146 109.019 78.5146C108.753 79.6146 108.428 80.6062 108.044 81.4896C106.644 81.5896 105.561 81.6396 104.794 81.6396C104.944 81.2562 105.086 80.7062 105.219 79.9896ZM127.763 90.7891V90.9891H121.963C121.897 90.0725 121.755 89.0891 121.538 88.0391C120.372 89.2058 119.205 90.1891 118.038 90.9891H112.213C112.097 90.3058 112.038 89.4058 112.038 88.2891C112.038 87.1558 112.205 86.0225 112.538 84.8891C113.738 84.5391 114.888 83.9475 115.988 83.1146C117.105 82.2812 117.913 81.3812 118.413 80.4146C117.947 79.6812 117.472 79.0396 116.988 78.4896H125.288C126.938 82.1062 127.763 86.2058 127.763 90.7891ZM121.088 86.2141C120.672 84.7808 120.105 83.3808 119.388 82.0146C118.605 84.3141 118.155 86.4891 118.038 88.5391C119.272 87.8725 120.288 87.0975 121.088 86.2141ZM144.828 77.9146C148.045 77.9146 150.662 78.3146 152.678 79.1146C153.395 80.5479 153.753 81.9979 153.753 83.4641C153.753 85.3475 153.112 86.9808 151.828 88.3641C149.962 90.3475 147.437 91.3391 144.253 91.3391C143.153 91.3391 141.662 91.2141 139.778 90.9641C139.128 87.6141 138.803 84.5225 138.803 81.6895C138.803 80.7062 138.853 79.6396 138.953 78.4896C141.637 78.1062 143.595 77.9146 144.828 77.9146ZM145.578 79.7896C145.278 82.9229 145.128 85.1725 145.128 86.5391C145.128 87.8891 145.153 88.9891 145.203 89.8391C146.103 89.3558 146.803 88.5475 147.303 87.4141C147.82 86.2641 148.078 85.1058 148.078 83.9391C148.078 82.7562 147.862 81.7896 147.428 81.0396C147.012 80.2896 146.395 79.8729 145.578 79.7896ZM165.273 83.5141L167.623 83.6641C167.857 83.6641 168.032 83.6558 168.148 83.6391L166.973 85.8391H166.748C166.432 85.8391 165.982 85.7558 165.398 85.5891C164.815 85.4058 164.398 85.3141 164.148 85.3141C163.465 85.3141 162.923 85.7558 162.523 86.6391C162.457 87.4558 162.407 88.2725 162.373 89.0891C163.24 89.2558 163.923 89.3391 164.423 89.3391H164.648C165.365 89.3391 165.932 89.1808 166.348 88.8641C166.782 88.5475 167.09 87.9808 167.273 87.1641L170.273 87.2891C170.023 88.7225 169.69 89.9558 169.273 90.9891H156.998C156.665 88.7391 156.498 86.5058 156.498 84.2891C156.498 82.0729 156.615 80.1396 156.848 78.4896H170.248C169.948 80.2896 169.682 81.5562 169.448 82.2896C168.465 82.3396 167.565 82.3729 166.748 82.3896C166.882 82.0062 166.948 81.6479 166.948 81.3146C166.948 80.5146 166.348 80.1146 165.148 80.1146C164.698 80.1146 164.198 80.1646 163.648 80.2646C163.282 81.8479 162.998 83.2396 162.798 84.4391C163.465 83.8225 164.29 83.5141 165.273 83.5141ZM85.8242 116.864C86.9576 116.864 87.8826 116.772 88.5992 116.589C88.2992 114.739 87.4492 113.364 86.0492 112.464C85.8992 113.947 85.8242 115.414 85.8242 116.864ZM79.5241 110.989C79.5241 109.239 79.6825 107.572 79.9991 105.989H93.8742C93.1242 108.322 91.6909 110.014 89.5742 111.064C91.4909 111.747 93.0242 112.697 94.1742 113.914C94.0242 115.464 93.6659 116.989 93.0992 118.489H80.5241C79.8575 116.172 79.5241 113.672 79.5241 110.989ZM86.2492 110.739C87.0659 110.522 87.8242 110.147 88.5242 109.614C89.2242 109.081 89.7242 108.422 90.0242 107.639C88.6909 107.639 87.6076 107.681 86.7742 107.764C86.5742 108.731 86.3992 109.722 86.2492 110.739ZM98.2317 118.414C96.7484 116.514 96.0067 114.564 96.0067 112.564C96.0067 110.564 96.8401 108.872 98.5067 107.489C100.173 106.106 102.307 105.414 104.907 105.414C106.29 105.414 107.665 105.622 109.032 106.039C110.232 107.556 110.832 109.181 110.832 110.914C110.832 113.097 109.94 114.997 108.157 116.614C106.373 118.231 104.215 119.039 101.682 119.039C100.598 119.039 99.4484 118.831 98.2317 118.414ZM102.032 107.589C101.448 108.589 101.157 109.764 101.157 111.114C101.157 112.464 101.448 113.714 102.032 114.864C102.632 115.997 103.448 116.814 104.482 117.314C105.265 116.314 105.657 115.156 105.657 113.839C105.657 112.522 105.332 111.297 104.682 110.164C104.048 109.031 103.165 108.172 102.032 107.589ZM127.162 110.339L127.137 111.189C125.803 111.906 124.137 112.464 122.137 112.864C123.57 113.247 124.953 113.439 126.287 113.439H126.812C127.728 114.789 128.32 116.472 128.587 118.489H122.112C121.945 117.322 121.603 116.322 121.087 115.489C120.587 114.639 119.97 114.064 119.237 113.764C119.22 114.047 119.212 114.614 119.212 115.464C119.212 116.314 119.262 117.322 119.362 118.489H113.912C113.428 116.072 113.187 113.831 113.187 111.764C113.187 109.681 113.303 107.756 113.537 105.989H126.587C126.97 107.672 127.162 109.122 127.162 110.339ZM119.762 107.664C119.562 109.131 119.412 110.572 119.312 111.989C120.228 111.856 120.978 111.531 121.562 111.014C121.245 109.897 120.645 108.781 119.762 107.664ZM137.788 105.989V106.664C137.788 111.064 137.513 115.006 136.963 118.489H130.963C131.28 116.956 131.438 115.189 131.438 113.189C131.438 111.172 131.305 108.772 131.038 105.989H137.788ZM149.751 107.489C149.084 107.389 148.368 107.339 147.601 107.339C146.851 107.339 146.118 107.389 145.401 107.489C145.851 108.256 146.384 108.881 147.001 109.364C147.618 109.847 148.393 110.331 149.326 110.814C150.276 111.281 151.043 111.714 151.626 112.114C152.226 112.514 152.884 113.172 153.601 114.089C154.318 115.006 154.768 115.964 154.951 116.964C154.151 117.997 153.093 118.906 151.776 119.689C150.459 120.489 149.109 121.022 147.726 121.289C146.793 121.206 145.609 120.939 144.176 120.489C142.759 120.056 141.693 119.839 140.976 119.839C140.259 119.839 139.543 120.064 138.826 120.514C139.126 119.664 139.618 118.597 140.301 117.314H140.501C141.568 117.314 142.568 117.481 143.501 117.814C144.451 118.147 145.309 118.481 146.076 118.814C146.859 119.147 147.484 119.314 147.951 119.314C148.434 119.314 148.784 119.281 149.001 119.214C149.001 118.114 148.659 117.206 147.976 116.489C147.609 116.106 147.293 115.814 147.026 115.614C146.776 115.397 146.384 115.106 145.851 114.739L145.426 114.439C144.293 113.656 143.359 112.864 142.626 112.064C141.893 111.247 141.359 110.247 141.026 109.064C141.559 107.881 142.084 106.856 142.601 105.989C144.184 105.606 145.826 105.414 147.526 105.414H148.626C150.059 105.414 151.701 105.614 153.551 106.014C153.284 107.114 152.959 108.106 152.576 108.989C151.176 109.089 150.093 109.139 149.326 109.139C149.476 108.756 149.618 108.206 149.751 107.489Z" fill="black"/>
</g>
<path d="M487.5 4.16675H12.5001C7.89771 4.16675 4.16675 7.89771 4.16675 12.5001V487.5C4.16675 492.102 7.89771 495.833 12.5001 495.833H487.5C492.102 495.833 495.833 492.102 495.833 487.5V12.5001C495.833 7.89771 492.102 4.16675 487.5 4.16675Z" stroke="#A9AD81" stroke-width="10"/>
</g>
<defs>
<clipPath id="clip0_339_26053">
<rect width="500" height="500" fill="white"/>
</clipPath>
</defs>
</svg>
