<svg width="500" height="500" viewBox="0 0 500 500" fill="none" xmlns="http://www.w3.org/2000/svg">
<g clip-path="url(#clip0_342_28803)">
<mask id="mask0_342_28803" style="mask-type:luminance" maskUnits="userSpaceOnUse" x="0" y="0" width="500" height="500">
<path d="M487.5 0H12.5C5.59644 0 0 5.59644 0 12.5V487.5C0 494.404 5.59644 500 12.5 500H487.5C494.404 500 500 494.404 500 487.5V12.5C500 5.59644 494.404 0 487.5 0Z" fill="white"/>
</mask>
<g mask="url(#mask0_342_28803)">
<path d="M487.5 0H12.5C5.59644 0 0 5.59644 0 12.5V487.5C0 494.404 5.59644 500 12.5 500H487.5C494.404 500 500 494.404 500 487.5V12.5C500 5.59644 494.404 0 487.5 0Z" fill="#72ABDF"/>
<path d="M-6.66699 123.333H555.833V512.5H-6.66699V123.333Z" fill="#318D4B"/>
<path d="M458.6 43.6882C481.298 57.0299 509.396 51.3477 521.358 30.9967C533.32 10.6457 524.616 -16.6677 501.917 -30.0094C479.218 -43.3511 451.12 -37.669 439.159 -17.3179C427.197 3.03308 435.901 30.3464 458.6 43.6882Z" fill="#DCEF6A"/>
<path d="M180.383 383.75V519.075L327.884 511.71V430.539V387.857L585 370.833L565.416 519.075L327.884 511.71L-87.917 526.667L-54.167 405.833L180.383 383.75Z" fill="#AE6161"/>
<path d="M167.05 22.0832V157.408H-10.8333V76.2378L167.05 22.0832L314.551 26.1901L571.667 9.1665L552.083 157.408H-10.8333L-101.25 165L-67.5 44.1665L167.05 22.0832Z" fill="#AE6161"/>
<g filter="url(#filter0_d_342_28803)">
<path d="M473.185 440.688C473.164 440.868 473.044 440.984 472.886 440.98L454 440.403C453.746 440.395 453.514 440.089 453.544 439.801L455.218 423.23C455.233 423.073 455.326 422.959 455.458 422.936L475.054 419.477C475.323 419.429 475.607 419.762 475.57 420.082L473.185 440.688Z" fill="#6A3535"/>
<path d="M431.334 476.736C431.316 476.904 431.211 477.021 431.066 477.032L415.817 478.174C415.558 478.193 415.303 477.883 415.329 477.58L416.672 461.674C416.685 461.529 416.761 461.418 416.876 461.382L432.831 456.242C433.101 456.154 433.417 456.493 433.383 456.832L431.334 476.736Z" fill="#6A3535"/>
<path d="M436.874 423.523C436.87 423.678 436.795 423.8 436.675 423.843L422.275 428.95C422.005 429.046 421.68 428.707 421.715 428.364L423.368 412C423.383 411.854 423.464 411.745 423.583 411.713L436.686 408.116C436.941 408.046 437.236 408.347 437.228 408.672L436.874 423.523Z" fill="#6A3535"/>
<path d="M412.882 433.731C412.878 433.886 412.802 434.008 412.683 434.049L398.283 439.158C398.012 439.253 397.689 438.914 397.723 438.571L399.377 422.208C399.391 422.061 399.472 421.952 399.592 421.919L412.693 418.323C412.95 418.253 413.244 418.553 413.237 418.878L412.882 433.731Z" fill="#6A3535"/>
<path d="M423.268 449.547C423.265 449.702 423.189 449.824 423.07 449.866L408.67 454.974C408.399 455.069 408.076 454.73 408.11 454.387L409.763 438.024C409.777 437.877 409.859 437.768 409.977 437.735L423.08 434.139C423.337 434.068 423.631 434.37 423.623 434.694L423.268 449.547Z" fill="#6A3535"/>
<path d="M491.288 407.797C491.277 407.962 491.183 408.083 491.046 408.107L472.555 411.374C472.295 411.42 472.018 411.109 472.038 410.794L473.347 390.301C473.357 390.148 473.438 390.032 473.56 389.997L492.213 384.617C492.477 384.541 492.781 384.86 492.759 385.192L491.288 407.797Z" fill="#6A3535"/>
<path d="M510.127 398.106C510.123 398.261 510.048 398.383 509.929 398.425L495.528 403.533C495.258 403.628 494.934 403.289 494.969 402.947L496.621 386.583C496.636 386.436 496.717 386.328 496.836 386.294L509.938 382.698C510.195 382.628 510.49 382.929 510.481 383.253L510.127 398.106Z" fill="#6A3535"/>
<path d="M466.976 414.808C466.969 414.968 466.886 415.09 466.759 415.125L446.802 420.613C446.533 420.688 446.227 420.354 446.261 420.022L447.921 403.585C447.934 403.45 448.004 403.347 448.109 403.306L467.157 395.895C467.418 395.794 467.74 396.108 467.726 396.45L466.976 414.808Z" fill="#6A3535"/>
<path d="M449.781 441.343C449.766 441.495 449.681 441.607 449.557 441.637L429.709 446.444C429.441 446.509 429.143 446.178 429.176 445.85L430.834 429.434C430.851 429.277 430.942 429.163 431.074 429.14L450.686 425.678C450.952 425.632 451.233 425.955 451.203 426.273L449.781 441.343Z" fill="#6A3535"/>
<path d="M404.684 457.849C404.669 458.004 404.581 458.116 404.453 458.143L384.724 462.281C384.456 462.337 384.167 462.008 384.2 461.684L385.86 445.248C385.876 445.091 385.968 444.978 386.1 444.955L405.71 441.494C405.976 441.447 406.256 441.772 406.226 442.09L404.684 457.849Z" fill="#6A3535"/>
<path d="M400.984 508.639C400.964 508.813 400.851 508.928 400.698 508.931L379.021 509.22C378.763 509.223 378.521 508.913 378.551 508.618L380.223 492.066C380.239 491.911 380.329 491.798 380.458 491.773L402.849 487.428C403.119 487.376 403.406 487.709 403.369 488.032L400.984 508.639Z" fill="#6A3535"/>
<path d="M385.438 483.355C385.433 483.518 385.349 483.644 385.22 483.68L368.268 488.35C367.998 488.424 367.693 488.09 367.727 487.758L369.383 471.358C369.398 471.203 369.488 471.092 369.617 471.066L385.268 467.918C385.523 467.867 385.8 468.163 385.793 468.478L385.438 483.355Z" fill="#6A3535"/>
<path d="M391.837 437.759C391.838 437.929 391.753 438.062 391.62 438.098L374.675 442.767C374.405 442.841 374.1 442.507 374.133 442.175L375.351 430.123C375.367 429.968 375.456 429.857 375.584 429.831L391.255 426.68C391.504 426.63 391.778 426.914 391.78 427.225L391.837 437.759Z" fill="#6A3535"/>
<path d="M395.617 481.792C395.609 482.038 395.422 482.179 395.207 482.102L387.88 479.457C387.674 479.383 387.518 479.135 387.53 478.9L388.012 469.266C388.022 469.059 388.16 468.926 388.341 468.946L395.55 469.764C395.784 469.791 395.991 470.063 395.982 470.332L395.617 481.792Z" fill="#6A3535"/>
<path d="M378.216 460.708C378.211 460.881 378.116 461.009 377.976 461.035L360.326 464.269C360.068 464.317 359.791 464.011 359.807 463.696L360.282 454.211C360.29 454.055 360.371 453.937 360.494 453.9L378.032 448.732C378.291 448.656 378.591 448.962 378.58 449.29L378.216 460.708Z" fill="#6A3535"/>
<path d="M371.862 506.853C371.857 507.025 371.762 507.153 371.622 507.179L353.973 510.413C353.715 510.461 353.437 510.155 353.453 509.84L353.929 500.355C353.937 500.199 354.017 500.081 354.141 500.044L371.678 494.876C371.937 494.8 372.237 495.106 372.227 495.434L371.862 506.853Z" fill="#6A3535"/>
<path d="M364.023 486.435C364.017 486.608 363.923 486.736 363.782 486.762L346.133 489.996C345.874 490.043 345.598 489.738 345.613 489.423L346.088 479.938C346.097 479.782 346.178 479.663 346.3 479.627L363.838 474.458C364.097 474.383 364.397 474.688 364.387 475.017L364.023 486.435Z" fill="#6A3535"/>
<path d="M355.863 466.584C355.858 466.757 355.763 466.885 355.623 466.911L337.974 470.145C337.716 470.193 337.438 469.887 337.454 469.572L337.929 460.087C337.938 459.931 338.018 459.813 338.142 459.776L355.679 454.608C355.938 454.532 356.238 454.838 356.228 455.166L355.863 466.584Z" fill="#6A3535"/>
<path d="M366.128 444.857C366.123 445.03 366.028 445.158 365.888 445.184L348.239 448.418C347.981 448.466 347.703 448.16 347.719 447.845L348.195 438.36C348.202 438.204 348.283 438.086 348.406 438.049L365.945 432.881C366.202 432.805 366.503 433.111 366.492 433.439L366.128 444.857Z" fill="#6A3535"/>
<path d="M352.842 426.524C352.837 426.696 352.742 426.824 352.602 426.85L334.952 430.084C334.694 430.132 334.417 429.826 334.433 429.511L334.908 420.026C334.916 419.87 334.997 419.752 335.12 419.715L352.658 414.547C352.916 414.471 353.217 414.777 353.206 415.105L352.842 426.524Z" fill="#6A3535"/>
<path d="M380.289 420.931C380.283 421.104 380.189 421.231 380.048 421.257L362.399 424.492C362.141 424.539 361.864 424.233 361.88 423.918L362.355 414.433C362.363 414.278 362.443 414.158 362.567 414.123L380.105 408.954C380.363 408.878 380.663 409.184 380.653 409.512L380.289 420.931Z" fill="#6A3535"/>
<path d="M409.371 412.941C409.372 413.111 409.288 413.243 409.154 413.28L392.209 417.948C391.94 418.022 391.634 417.688 391.668 417.356L392.885 405.305C392.901 405.15 392.99 405.038 393.118 405.012L408.789 401.862C409.039 401.811 409.313 402.096 409.314 402.407L409.371 412.941Z" fill="#6A3535"/>
<path d="M430.634 404.703C430.63 404.858 430.555 404.979 430.436 405.022L416.035 410.129C415.765 410.225 415.441 409.886 415.476 409.543L417.128 393.18C417.143 393.033 417.224 392.924 417.343 392.892L430.445 389.295C430.702 389.225 430.996 389.526 430.988 389.851L430.634 404.703Z" fill="#6A3535"/>
<path d="M449.949 396.656C449.973 396.85 449.89 397.012 449.743 397.056L436.953 400.878C436.696 400.953 436.398 400.653 436.403 400.327L436.616 388.553C436.62 388.358 436.735 388.221 436.899 388.216L448.446 387.837C448.665 387.83 448.886 388.058 448.919 388.325L449.949 396.656Z" fill="#6A3535"/>
<path d="M421.032 501.724C421.029 501.888 420.946 502.013 420.817 502.048L407.777 505.705C407.508 505.78 407.202 505.446 407.235 505.113L408.891 488.72C408.907 488.563 408.998 488.451 409.129 488.427L420.868 486.276C421.122 486.229 421.396 486.525 421.388 486.837L421.032 501.724Z" fill="#6A3535"/>
<path d="M439.473 501.99C439.458 502.164 439.352 502.285 439.203 502.296L423.961 503.438C423.703 503.457 423.447 503.147 423.473 502.844L424.81 487.01C424.826 486.828 424.943 486.704 425.101 486.704L440.218 486.667C440.472 486.666 440.709 486.968 440.685 487.26L439.473 501.99Z" fill="#6A3535"/>
<path d="M467.813 469.381C467.799 469.547 467.702 469.665 467.563 469.685L438.566 473.862C438.304 473.9 438.032 473.583 438.059 473.271L439.396 457.449C439.41 457.28 439.511 457.16 439.656 457.145L468.525 454.098C468.786 454.07 469.047 454.383 469.022 454.689L467.813 469.381Z" fill="#6A3535"/>
<path d="M478.464 495.638C478.451 495.803 478.353 495.922 478.215 495.942L449.217 500.118C448.955 500.157 448.683 499.84 448.71 499.528L450.046 483.706C450.061 483.537 450.163 483.417 450.306 483.402L479.176 480.354C479.436 480.327 479.699 480.639 479.673 480.946L478.464 495.638Z" fill="#6A3535"/>
<path d="M504.936 464.527C504.922 464.692 504.825 464.81 504.687 464.83L475.689 469.008C475.427 469.045 475.155 468.728 475.181 468.416L476.518 452.594C476.532 452.425 476.635 452.306 476.778 452.291L505.648 449.243C505.908 449.216 506.171 449.528 506.145 449.835L504.936 464.527Z" fill="#6A3535"/>
<path d="M509.357 435.488C509.343 435.653 509.246 435.771 509.107 435.791L480.111 439.968C479.848 440.006 479.576 439.69 479.602 439.377L480.939 423.556C480.953 423.386 481.056 423.267 481.2 423.252L510.069 420.204C510.329 420.177 510.591 420.489 510.566 420.796L509.357 435.488Z" fill="#6A3535"/>
<path d="M518.552 492.081C518.538 492.246 518.441 492.364 518.303 492.384L489.306 496.562C489.043 496.599 488.772 496.283 488.798 495.97L490.134 480.149C490.148 479.979 490.251 479.86 490.394 479.845L519.264 476.798C519.524 476.77 519.787 477.083 519.762 477.389L518.552 492.081Z" fill="#6A3535"/>
</g>
<g filter="url(#filter1_d_342_28803)">
<path d="M460.685 79.0218C460.664 79.2011 460.544 79.318 460.386 79.3131L441.5 78.7361C441.246 78.7283 441.014 78.4228 441.044 78.1341L442.718 61.5631C442.733 61.4058 442.826 61.2926 442.958 61.2694L462.554 57.8105C462.823 57.763 463.107 58.0951 463.07 58.4148L460.685 79.0218Z" fill="#6A3535"/>
<path d="M418.834 115.069C418.816 115.238 418.711 115.354 418.566 115.365L403.317 116.508C403.058 116.527 402.803 116.217 402.829 115.913L404.172 100.008C404.185 99.8625 404.261 99.7517 404.376 99.715L420.331 94.575C420.601 94.4875 420.917 94.8259 420.883 95.165L418.834 115.069Z" fill="#6A3535"/>
<path d="M424.374 61.8568C424.37 62.012 424.295 62.1335 424.175 62.1757L409.775 67.2835C409.505 67.3794 409.18 67.0401 409.215 66.6973L410.868 50.3337C410.883 50.1872 410.964 50.0782 411.083 50.0456L424.186 46.4493C424.441 46.3789 424.736 46.68 424.728 47.0047L424.374 61.8568Z" fill="#6A3535"/>
<path d="M400.382 72.0638C400.378 72.219 400.302 72.3405 400.183 72.3827L385.783 77.4905C385.512 77.5864 385.189 77.2471 385.223 76.9043L386.877 60.5407C386.891 60.3942 386.972 60.2852 387.092 60.2527L400.193 56.6563C400.45 56.5859 400.744 56.887 400.737 57.2117L400.382 72.0638Z" fill="#6A3535"/>
<path d="M410.768 87.8799C410.765 88.0349 410.689 88.1566 410.57 88.1991L396.17 93.3066C395.899 93.4024 395.576 93.0632 395.61 92.7199L397.263 76.3566C397.277 76.2101 397.359 76.1012 397.477 76.0686L410.58 72.4722C410.837 72.4019 411.131 72.703 411.123 73.0276L410.768 87.8799Z" fill="#6A3535"/>
<path d="M478.788 46.1296C478.777 46.2951 478.683 46.4159 478.546 46.44L460.055 49.7075C459.795 49.7535 459.518 49.4425 459.538 49.127L460.847 28.6341C460.857 28.4809 460.938 28.3649 461.06 28.3297L479.713 22.95C479.977 22.874 480.281 23.1935 480.259 23.5245L478.788 46.1296Z" fill="#6A3535"/>
<path d="M497.627 36.4392C497.623 36.5943 497.548 36.7158 497.429 36.7581L483.028 41.866C482.758 41.9618 482.434 41.6226 482.469 41.2798L484.121 24.916C484.136 24.7695 484.217 24.6605 484.336 24.6279L497.438 21.0316C497.695 20.9611 497.99 21.2623 497.981 21.587L497.627 36.4392Z" fill="#6A3535"/>
<path d="M454.476 53.1417C454.469 53.3015 454.386 53.4232 454.259 53.4581L434.302 58.9468C434.033 59.021 433.727 58.6871 433.761 58.3548L435.421 41.9182C435.434 41.7833 435.504 41.6796 435.609 41.6388L454.657 34.2285C454.918 34.1272 455.24 34.4419 455.226 34.7835L454.476 53.1417Z" fill="#6A3535"/>
<path d="M437.281 79.6765C437.266 79.828 437.181 79.9396 437.057 79.9696L417.209 84.7775C416.941 84.8425 416.643 84.5108 416.676 84.1833L418.334 67.7673C418.351 67.61 418.442 67.4968 418.574 67.4735L438.186 64.0119C438.452 63.965 438.733 64.2884 438.703 64.6065L437.281 79.6765Z" fill="#6A3535"/>
<path d="M392.184 96.1824C392.169 96.3366 392.081 96.4491 391.953 96.4757L372.224 100.614C371.956 100.67 371.667 100.341 371.7 100.017L373.36 83.5816C373.376 83.4241 373.468 83.3113 373.6 83.2881L393.21 79.8268C393.476 79.7799 393.756 80.1046 393.726 80.4231L392.184 96.1824Z" fill="#6A3535"/>
<path d="M388.484 146.972C388.464 147.147 388.351 147.262 388.198 147.264L366.521 147.553C366.263 147.557 366.021 147.247 366.051 146.952L367.723 130.399C367.739 130.244 367.829 130.132 367.958 130.107L390.349 125.762C390.619 125.709 390.906 126.042 390.869 126.365L388.484 146.972Z" fill="#6A3535"/>
<path d="M372.938 121.688C372.933 121.852 372.849 121.977 372.72 122.013L355.768 126.683C355.498 126.757 355.193 126.423 355.227 126.092L356.883 109.692C356.898 109.537 356.988 109.425 357.117 109.399L372.768 106.252C373.023 106.201 373.3 106.497 373.293 106.812L372.938 121.688Z" fill="#6A3535"/>
<path d="M379.337 76.0927C379.338 76.263 379.253 76.3953 379.12 76.432L362.175 81.1002C361.905 81.1744 361.6 80.8405 361.633 80.5082L362.851 68.4567C362.867 68.3021 362.956 68.19 363.084 68.1642L378.755 65.0133C379.004 64.9632 379.278 65.2476 379.28 65.5584L379.337 76.0927Z" fill="#6A3535"/>
<path d="M383.117 120.125C383.109 120.372 382.922 120.512 382.707 120.435L375.38 117.79C375.174 117.716 375.018 117.468 375.03 117.233L375.512 107.599C375.522 107.392 375.66 107.259 375.841 107.279L383.05 108.097C383.284 108.124 383.491 108.396 383.482 108.665L383.117 120.125Z" fill="#6A3535"/>
<path d="M365.716 99.0416C365.711 99.2141 365.616 99.3424 365.476 99.3682L347.826 102.602C347.568 102.65 347.291 102.344 347.307 102.029L347.782 92.5441C347.79 92.3882 347.871 92.2699 347.994 92.2332L365.532 87.0649C365.791 86.9891 366.091 87.2949 366.08 87.6232L365.716 99.0416Z" fill="#6A3535"/>
<path d="M359.362 145.186C359.357 145.358 359.262 145.487 359.122 145.513L341.473 148.747C341.215 148.794 340.937 148.488 340.953 148.173L341.429 138.688C341.437 138.533 341.517 138.414 341.641 138.378L359.178 133.209C359.437 133.133 359.737 133.439 359.727 133.768L359.362 145.186Z" fill="#6A3535"/>
<path d="M351.523 124.768C351.517 124.941 351.423 125.069 351.282 125.095L333.633 128.329C333.374 128.377 333.098 128.071 333.113 127.756L333.588 118.271C333.597 118.115 333.678 117.997 333.8 117.96L351.338 112.792C351.597 112.716 351.897 113.022 351.887 113.35L351.523 124.768Z" fill="#6A3535"/>
<path d="M343.363 104.918C343.358 105.09 343.263 105.218 343.123 105.244L325.474 108.478C325.216 108.526 324.938 108.22 324.954 107.905L325.429 98.42C325.438 98.2642 325.518 98.1459 325.642 98.1092L343.179 92.9409C343.438 92.865 343.738 93.1709 343.728 93.4992L343.363 104.918Z" fill="#6A3535"/>
<path d="M353.628 83.1908C353.623 83.3632 353.528 83.4915 353.388 83.5174L335.739 86.7515C335.481 86.799 335.203 86.4932 335.219 86.1782L335.695 76.693C335.702 76.5374 335.783 76.4187 335.906 76.3824L353.445 71.2141C353.702 71.1381 354.003 71.4438 353.992 71.7721L353.628 83.1908Z" fill="#6A3535"/>
<path d="M340.342 64.8571C340.337 65.0294 340.242 65.1574 340.102 65.1832L322.452 68.4177C322.194 68.4651 321.917 68.1593 321.933 67.8442L322.408 58.3592C322.416 58.2036 322.497 58.0849 322.62 58.0487L340.158 52.8804C340.416 52.8043 340.717 53.11 340.706 53.4383L340.342 64.8571Z" fill="#6A3535"/>
<path d="M367.789 59.2641C367.783 59.4365 367.689 59.5645 367.548 59.5902L349.899 62.8247C349.641 62.8721 349.364 62.5663 349.38 62.2513L349.855 52.7662C349.863 52.6106 349.943 52.4919 350.067 52.4556L367.605 47.2874C367.863 47.2113 368.163 47.5171 368.153 47.8453L367.789 59.2641Z" fill="#6A3535"/>
<path d="M396.871 51.2741C396.872 51.4443 396.788 51.5767 396.654 51.6134L379.709 56.2816C379.44 56.3558 379.134 56.0218 379.168 55.6896L380.385 43.6381C380.401 43.4835 380.49 43.3714 380.618 43.3456L396.289 40.1947C396.539 40.1446 396.813 40.429 396.814 40.7398L396.871 51.2741Z" fill="#6A3535"/>
<path d="M418.134 43.0361C418.13 43.1912 418.055 43.3127 417.936 43.355L403.535 48.4627C403.265 48.5586 402.941 48.2193 402.976 47.8766L404.628 31.513C404.643 31.3664 404.724 31.2575 404.843 31.2248L417.945 27.6285C418.202 27.5581 418.496 27.8592 418.488 28.1839L418.134 43.0361Z" fill="#6A3535"/>
<path d="M437.449 34.989C437.473 35.1834 437.39 35.3449 437.243 35.389L424.453 39.2107C424.196 39.2871 423.898 38.987 423.903 38.6598L424.116 26.8864C424.12 26.692 424.235 26.5543 424.399 26.5489L435.946 26.1703C436.165 26.1631 436.386 26.3911 436.419 26.6586L437.449 34.989Z" fill="#6A3535"/>
<path d="M408.532 140.057C408.529 140.221 408.446 140.346 408.317 140.382L395.277 144.038C395.008 144.113 394.702 143.779 394.735 143.447L396.391 127.053C396.407 126.897 396.498 126.784 396.629 126.76L408.368 124.609C408.622 124.562 408.896 124.858 408.888 125.17L408.532 140.057Z" fill="#6A3535"/>
<path d="M426.973 140.323C426.958 140.498 426.852 140.618 426.703 140.629L411.461 141.771C411.203 141.79 410.947 141.48 410.973 141.177L412.31 125.343C412.326 125.161 412.443 125.038 412.601 125.038L427.718 125C427.972 124.999 428.209 125.301 428.185 125.593L426.973 140.323Z" fill="#6A3535"/>
<path d="M455.313 107.714C455.299 107.88 455.202 107.998 455.063 108.018L426.066 112.195C425.804 112.233 425.532 111.917 425.559 111.604L426.896 95.7826C426.91 95.6134 427.011 95.4934 427.156 95.4784L456.025 92.4309C456.286 92.4034 456.547 92.7159 456.522 93.0226L455.313 107.714Z" fill="#6A3535"/>
<path d="M465.964 133.971C465.951 134.137 465.853 134.255 465.715 134.275L436.717 138.452C436.455 138.49 436.183 138.173 436.21 137.861L437.546 122.039C437.561 121.87 437.663 121.75 437.806 121.735L466.676 118.687C466.936 118.66 467.199 118.972 467.173 119.279L465.964 133.971Z" fill="#6A3535"/>
<path d="M492.436 102.86C492.422 103.025 492.325 103.143 492.187 103.163L463.189 107.341C462.927 107.378 462.655 107.062 462.681 106.749L464.018 90.9275C464.032 90.7583 464.135 90.6391 464.278 90.6241L493.148 87.5766C493.408 87.5491 493.671 87.8608 493.645 88.1683L492.436 102.86Z" fill="#6A3535"/>
<path d="M496.857 73.8208C496.843 73.9862 496.746 74.1045 496.607 74.1245L467.611 78.3016C467.348 78.3394 467.076 78.0228 467.102 77.7101L468.439 61.8888C468.453 61.7193 468.556 61.5998 468.7 61.5847L497.569 58.5373C497.829 58.5098 498.091 58.8221 498.066 59.1291L496.857 73.8208Z" fill="#6A3535"/>
<path d="M506.052 130.414C506.038 130.579 505.941 130.698 505.803 130.718L476.806 134.895C476.543 134.933 476.272 134.616 476.298 134.303L477.634 118.483C477.648 118.313 477.751 118.193 477.894 118.178L506.764 115.131C507.024 115.103 507.287 115.416 507.262 115.723L506.052 130.414Z" fill="#6A3535"/>
<path d="M513.144 103.505C513.141 103.668 513.058 103.793 512.929 103.829L499.889 107.486C499.62 107.561 499.313 107.227 499.347 106.894L501.003 90.5008C501.018 90.3441 501.11 90.2316 501.241 90.2075L512.98 88.0566C513.233 88.01 513.508 88.305 513.5 88.6175L513.144 103.505Z" fill="#6A3535"/>
</g>
<g filter="url(#filter2_d_342_28803)">
<path d="M244.852 87.355C244.831 87.5341 244.711 87.6508 244.553 87.6466L225.667 87.0691C225.412 87.0616 225.181 86.7558 225.21 86.4675L226.884 69.8964C226.9 69.7391 226.993 69.6259 227.124 69.6026L246.721 66.1437C246.99 66.0962 247.273 66.4283 247.237 66.7481L244.852 87.355Z" fill="#6A3535"/>
<path d="M203 123.402C202.983 123.571 202.877 123.687 202.732 123.698L187.484 124.841C187.225 124.86 186.97 124.55 186.995 124.247L188.339 108.341C188.351 108.196 188.428 108.085 188.543 108.048L204.497 102.908C204.768 102.821 205.084 103.159 205.05 103.498L203 123.402Z" fill="#6A3535"/>
<path d="M208.541 70.19C208.537 70.3452 208.462 70.4667 208.342 70.509L193.942 75.6168C193.672 75.7126 193.347 75.3734 193.382 75.0305L195.035 58.667C195.05 58.5205 195.131 58.4115 195.25 58.3789L208.352 54.7825C208.608 54.7121 208.903 55.0133 208.895 55.338L208.541 70.19Z" fill="#6A3535"/>
<path d="M184.548 80.3971C184.545 80.5522 184.469 80.6737 184.35 80.716L169.95 85.8241C169.679 85.9199 169.356 85.5807 169.39 85.2374L171.043 68.874C171.057 68.7275 171.139 68.6185 171.258 68.5859L184.36 64.9896C184.616 64.9192 184.911 65.2202 184.903 65.5449L184.548 80.3971Z" fill="#6A3535"/>
<path d="M194.935 96.2131C194.931 96.3681 194.856 96.4898 194.736 96.5323L180.336 101.64C180.066 101.736 179.742 101.396 179.776 101.053L181.43 84.6898C181.444 84.5431 181.526 84.4348 181.644 84.4015L194.746 80.8055C195.003 80.7351 195.297 81.0362 195.29 81.3609L194.935 96.2131Z" fill="#6A3535"/>
<path d="M308.261 84.3649C308.258 84.5274 308.175 84.6532 308.046 84.6891L295.006 88.3449C294.737 88.4207 294.431 88.0866 294.464 87.7532L296.12 71.3604C296.136 71.2038 296.227 71.091 296.358 71.067L308.097 68.9165C308.351 68.87 308.625 69.1651 308.617 69.4771L308.261 84.3649Z" fill="#6A3535"/>
<path d="M262.954 54.4629C262.943 54.6284 262.849 54.7491 262.712 54.7733L244.222 58.0407C243.962 58.0867 243.684 57.7758 243.704 57.4603L245.013 36.9674C245.023 36.8141 245.105 36.6981 245.227 36.663L263.88 31.2833C264.143 31.2073 264.447 31.5268 264.426 31.8577L262.954 54.4629Z" fill="#6A3535"/>
<path d="M281.794 44.7724C281.79 44.9276 281.715 45.0491 281.595 45.0913L267.195 50.1992C266.925 50.2951 266.6 49.9558 266.635 49.6131L268.288 33.2492C268.303 33.1027 268.384 32.9937 268.503 32.9612L281.605 29.3648C281.861 29.2944 282.156 29.5956 282.148 29.9202L281.794 44.7724Z" fill="#6A3535"/>
<path d="M238.642 61.4749C238.636 61.6348 238.552 61.7564 238.426 61.7913L218.468 67.2801C218.199 67.3543 217.893 67.0203 217.927 66.6881L219.587 50.2514C219.601 50.1166 219.671 50.0128 219.776 49.972L238.823 42.5618C239.084 42.4604 239.407 42.7752 239.392 43.1168L238.642 61.4749Z" fill="#6A3535"/>
<path d="M221.447 88.0099C221.433 88.1615 221.348 88.2732 221.224 88.3032L201.375 93.1107C201.107 93.1757 200.81 92.844 200.843 92.5165L202.5 76.1005C202.517 75.9432 202.609 75.83 202.74 75.8068L222.353 72.3451C222.619 72.2983 222.9 72.6216 222.87 72.9398L221.447 88.0099Z" fill="#6A3535"/>
<path d="M176.35 104.516C176.335 104.67 176.247 104.782 176.12 104.809L156.39 108.947C156.123 109.003 155.834 108.674 155.866 108.351L157.526 91.9148C157.542 91.7573 157.635 91.6448 157.766 91.6214L177.376 88.1598C177.642 88.1131 177.923 88.4381 177.892 88.7564L176.35 104.516Z" fill="#6A3535"/>
<path d="M172.65 155.306C172.63 155.48 172.517 155.595 172.365 155.597L150.687 155.887C150.43 155.89 150.188 155.58 150.218 155.285L151.89 138.732C151.905 138.577 151.995 138.465 152.125 138.44L174.515 134.095C174.785 134.042 175.073 134.376 175.035 134.698L172.65 155.306Z" fill="#6A3535"/>
<path d="M157.104 130.021C157.1 130.185 157.016 130.311 156.887 130.346L139.934 135.016C139.665 135.091 139.359 134.756 139.393 134.425L141.049 118.025C141.065 117.87 141.154 117.758 141.283 117.732L156.934 114.585C157.189 114.534 157.467 114.83 157.459 115.145L157.104 130.021Z" fill="#6A3535"/>
<path d="M163.503 84.4256C163.504 84.5956 163.42 84.7281 163.287 84.7648L146.342 89.4331C146.072 89.5073 145.767 89.1731 145.8 88.8414L147.017 76.7897C147.033 76.6351 147.122 76.523 147.251 76.4972L162.922 73.3464C163.171 73.2962 163.445 73.5806 163.447 73.8914L163.503 84.4256Z" fill="#6A3535"/>
<path d="M167.283 128.458C167.276 128.705 167.089 128.846 166.874 128.768L159.546 126.123C159.341 126.049 159.185 125.801 159.196 125.566L159.679 115.932C159.689 115.726 159.826 115.592 160.007 115.612L167.216 116.431C167.451 116.457 167.657 116.729 167.648 116.998L167.283 128.458Z" fill="#6A3535"/>
<path d="M149.883 107.375C149.877 107.547 149.783 107.676 149.642 107.701L131.993 110.936C131.735 110.983 131.458 110.677 131.474 110.362L131.949 100.877C131.956 100.721 132.038 100.603 132.16 100.566L149.699 95.3982C149.957 95.3223 150.257 95.6282 150.246 95.9565L149.883 107.375Z" fill="#6A3535"/>
<path d="M143.529 153.519C143.524 153.692 143.429 153.82 143.289 153.846L125.64 157.08C125.381 157.127 125.104 156.822 125.12 156.507L125.596 147.022C125.603 146.866 125.684 146.747 125.807 146.711L143.345 141.542C143.603 141.467 143.903 141.772 143.893 142.101L143.529 153.519Z" fill="#6A3535"/>
<path d="M135.689 133.102C135.683 133.274 135.589 133.402 135.448 133.428L117.799 136.662C117.541 136.71 117.264 136.404 117.28 136.089L117.755 126.604C117.763 126.448 117.844 126.33 117.967 126.293L135.505 121.125C135.763 121.049 136.063 121.355 136.053 121.683L135.689 133.102Z" fill="#6A3535"/>
<path d="M127.53 113.251C127.524 113.423 127.43 113.552 127.29 113.577L109.641 116.812C109.382 116.859 109.105 116.553 109.121 116.238L109.596 106.753C109.604 106.597 109.685 106.479 109.808 106.442L127.346 101.274C127.604 101.198 127.904 101.504 127.894 101.832L127.53 113.251Z" fill="#6A3535"/>
<path d="M137.795 91.524C137.79 91.6965 137.695 91.8248 137.555 91.8506L119.905 95.0848C119.647 95.1323 119.37 94.8265 119.385 94.5115L119.861 85.0265C119.869 84.8706 119.95 84.7523 120.073 84.7156L137.611 79.5474C137.869 79.4714 138.17 79.777 138.159 80.1054L137.795 91.524Z" fill="#6A3535"/>
<path d="M124.508 73.1903C124.503 73.3627 124.409 73.4907 124.268 73.5164L106.619 76.751C106.361 76.7983 106.084 76.4926 106.1 76.1775L106.575 66.6925C106.582 66.5368 106.663 66.4182 106.786 66.3819L124.325 61.2137C124.582 61.1376 124.883 61.4432 124.872 61.7716L124.508 73.1903Z" fill="#6A3535"/>
<path d="M151.956 67.5973C151.95 67.7697 151.856 67.8977 151.715 67.9235L134.066 71.158C133.807 71.2053 133.531 70.8996 133.547 70.5846L134.022 61.0995C134.029 60.9438 134.11 60.8251 134.233 60.7889L151.772 55.6206C152.03 55.5446 152.33 55.8503 152.319 56.1786L151.956 67.5973Z" fill="#6A3535"/>
<path d="M181.037 59.6073C181.038 59.7776 180.954 59.9099 180.821 59.9467L163.876 64.6148C163.607 64.6891 163.301 64.3551 163.334 64.0228L164.552 51.9713C164.567 51.8167 164.657 51.7047 164.785 51.6788L180.456 48.528C180.706 48.4778 180.979 48.7622 180.981 49.0731L181.037 59.6073Z" fill="#6A3535"/>
<path d="M202.301 51.3693C202.296 51.5245 202.221 51.646 202.102 51.6882L187.701 56.796C187.431 56.8919 187.107 56.5526 187.142 56.2098L188.795 39.8462C188.81 39.6996 188.891 39.5907 189.01 39.5581L202.111 35.9617C202.368 35.8914 202.662 36.1925 202.655 36.5171L202.301 51.3693Z" fill="#6A3535"/>
<path d="M221.616 43.3223C221.64 43.5167 221.557 43.6782 221.409 43.7223L208.619 47.5439C208.362 47.6203 208.064 47.3203 208.07 46.993L208.282 35.2197C208.287 35.0253 208.402 34.8875 208.566 34.8822L220.112 34.5036C220.332 34.4963 220.552 34.7243 220.586 34.9918L221.616 43.3223Z" fill="#6A3535"/>
<path d="M192.699 148.391C192.696 148.554 192.612 148.679 192.484 148.715L179.444 152.372C179.175 152.447 178.868 152.112 178.901 151.78L180.557 135.387C180.573 135.23 180.665 135.117 180.796 135.093L192.535 132.942C192.788 132.896 193.062 133.192 193.055 133.503L192.699 148.391Z" fill="#6A3535"/>
<path d="M211.139 148.657C211.125 148.831 211.018 148.952 210.87 148.962L195.627 150.104C195.369 150.123 195.113 149.813 195.139 149.511L196.477 133.677C196.492 133.494 196.609 133.371 196.767 133.371L211.885 133.333C212.138 133.332 212.376 133.634 212.352 133.927L211.139 148.657Z" fill="#6A3535"/>
<path d="M239.48 116.047C239.465 116.213 239.369 116.332 239.23 116.352L210.233 120.528C209.97 120.567 209.699 120.25 209.725 119.937L211.062 104.116C211.076 103.947 211.178 103.827 211.322 103.812L240.191 100.764C240.452 100.737 240.714 101.049 240.689 101.356L239.48 116.047Z" fill="#6A3535"/>
<path d="M250.131 142.304C250.117 142.47 250.02 142.588 249.881 142.608L220.884 146.785C220.621 146.823 220.35 146.507 220.376 146.194L221.713 130.372C221.727 130.203 221.83 130.083 221.973 130.068L250.843 127.021C251.103 126.993 251.365 127.306 251.34 127.612L250.131 142.304Z" fill="#6A3535"/>
<path d="M276.602 111.193C276.589 111.358 276.491 111.477 276.353 111.497L247.356 115.674C247.094 115.712 246.821 115.395 246.848 115.082L248.185 99.2607C248.199 99.0916 248.301 98.9724 248.445 98.9574L277.315 95.9099C277.575 95.8824 277.837 96.1941 277.811 96.5016L276.602 111.193Z" fill="#6A3535"/>
<path d="M281.024 82.154C281.01 82.3194 280.912 82.4378 280.774 82.4578L251.777 86.6348C251.515 86.6723 251.243 86.3565 251.269 86.0432L252.605 70.222C252.62 70.0525 252.722 69.9331 252.866 69.9179L281.735 66.8706C281.995 66.8431 282.258 67.1553 282.233 67.4623L281.024 82.154Z" fill="#6A3535"/>
<path d="M290.218 138.747C290.205 138.912 290.107 139.031 289.969 139.051L260.972 143.228C260.71 143.266 260.438 142.949 260.464 142.637L261.801 126.816C261.815 126.646 261.917 126.527 262.061 126.512L290.931 123.464C291.191 123.437 291.453 123.749 291.428 124.056L290.218 138.747Z" fill="#6A3535"/>
<path d="M297.311 111.838C297.307 112.002 297.224 112.127 297.096 112.162L284.056 115.819C283.787 115.894 283.48 115.56 283.513 115.227L285.169 98.8341C285.185 98.6774 285.277 98.5649 285.407 98.5407L297.147 96.3899C297.4 96.3432 297.674 96.6382 297.667 96.9507L297.311 111.838Z" fill="#6A3535"/>
<path d="M298.458 63.3939C298.454 63.5927 298.332 63.7305 298.162 63.7287L287.284 63.6117C287.052 63.6092 286.83 63.3531 286.82 63.0774L286.352 50.5224C286.346 50.3339 286.442 50.189 286.593 50.1613L298.292 48.018C298.546 47.9715 298.82 48.2666 298.812 48.5787L298.458 63.3939Z" fill="#6A3535"/>
<path d="M299.695 51.2093C299.69 51.3724 299.607 51.4976 299.479 51.5337L286.44 55.19C286.17 55.2655 285.864 54.9312 285.897 54.5983L287.553 38.2051C287.569 38.0485 287.66 37.9356 287.791 37.9117L299.53 35.7612C299.784 35.7147 300.057 36.0098 300.05 36.3219L299.695 51.2093Z" fill="#6A3535"/>
<path d="M312.489 135.78C312.485 135.943 312.402 136.068 312.273 136.105L299.234 139.761C298.964 139.836 298.657 139.502 298.692 139.169L300.347 122.776C300.363 122.619 300.455 122.506 300.585 122.482L312.324 120.332C312.578 120.286 312.852 120.581 312.844 120.893L312.489 135.78Z" fill="#6A3535"/>
</g>
<g filter="url(#filter3_d_342_28803)">
<path d="M110.685 454.855C110.664 455.034 110.544 455.151 110.386 455.147L91.4997 454.569C91.2455 454.562 91.0139 454.256 91.043 453.967L92.7172 437.397C92.733 437.239 92.8255 437.126 92.9572 437.102L112.554 433.643C112.823 433.597 113.106 433.928 113.07 434.248L110.685 454.855Z" fill="#6A3535"/>
<path d="M68.8337 490.902C68.8163 491.071 68.7109 491.187 68.5655 491.198L53.3172 492.341C53.0584 492.36 52.8033 492.05 52.8289 491.747L54.1726 475.841C54.1848 475.696 54.2618 475.585 54.3768 475.548L70.3308 470.408C70.6013 470.321 70.9178 470.659 70.8829 470.998L68.8337 490.902Z" fill="#6A3535"/>
<path d="M74.3739 437.69C74.3701 437.845 74.2945 437.967 74.1754 438.009L59.7751 443.117C59.5048 443.212 59.1809 442.873 59.2154 442.531L60.8683 426.167C60.8831 426.021 60.9644 425.912 61.0832 425.879L74.1852 422.282C74.4416 422.212 74.7361 422.513 74.7284 422.838L74.3739 437.69Z" fill="#6A3535"/>
<path d="M50.3817 447.897C50.3779 448.052 50.3023 448.174 50.1832 448.216L35.7829 453.324C35.5126 453.42 35.1887 453.081 35.2233 452.737L36.8761 436.374C36.8908 436.227 36.9722 436.118 37.091 436.086L50.1929 432.49C50.4494 432.419 50.7439 432.72 50.7362 433.045L50.3817 447.897Z" fill="#6A3535"/>
<path d="M60.7684 463.713C60.7646 463.868 60.6891 463.99 60.5699 464.033L46.1696 469.14C45.8993 469.236 45.5754 468.897 45.61 468.553L47.2628 452.19C47.2776 452.043 47.3589 451.935 47.4777 451.902L60.5796 448.306C60.8361 448.235 61.1306 448.537 61.1228 448.861L60.7684 463.713Z" fill="#6A3535"/>
<path d="M174.095 451.865C174.092 452.027 174.008 452.153 173.879 452.189L160.84 455.845C160.571 455.921 160.264 455.587 160.297 455.253L161.953 438.861C161.969 438.704 162.061 438.591 162.192 438.567L173.931 436.417C174.184 436.37 174.458 436.665 174.451 436.977L174.095 451.865Z" fill="#6A3535"/>
<path d="M128.787 421.963C128.776 422.128 128.682 422.249 128.545 422.273L110.055 425.541C109.795 425.587 109.517 425.276 109.537 424.961L110.846 404.467C110.856 404.314 110.938 404.198 111.06 404.163L129.713 398.783C129.976 398.707 130.28 399.027 130.259 399.358L128.787 421.963Z" fill="#6A3535"/>
<path d="M147.627 412.272C147.623 412.427 147.548 412.549 147.429 412.592L133.028 417.699C132.758 417.795 132.434 417.456 132.469 417.113L134.121 400.749C134.136 400.602 134.217 400.494 134.336 400.461L147.438 396.865C147.695 396.794 147.99 397.096 147.981 397.42L147.627 412.272Z" fill="#6A3535"/>
<path d="M104.475 428.975C104.469 429.135 104.385 429.257 104.259 429.292L84.3013 434.78C84.0321 434.854 83.7263 434.521 83.7604 434.188L85.4204 417.752C85.4338 417.617 85.5038 417.513 85.6088 417.472L104.656 410.062C104.917 409.961 105.24 410.275 105.225 410.617L104.475 428.975Z" fill="#6A3535"/>
<path d="M87.2807 455.51C87.2665 455.661 87.1815 455.773 87.0574 455.803L67.2093 460.611C66.9405 460.676 66.6433 460.344 66.6764 460.017L68.3344 443.601C68.3504 443.443 68.4427 443.33 68.5744 443.307L88.1865 439.845C88.4524 439.798 88.7332 440.122 88.7032 440.44L87.2807 455.51Z" fill="#6A3535"/>
<path d="M42.1844 472.016C42.1693 472.17 42.0806 472.283 41.953 472.309L22.2245 476.448C21.9566 476.503 21.6671 476.174 21.6998 475.851L23.3599 459.415C23.3758 459.257 23.4682 459.145 23.5999 459.122L43.2098 455.66C43.4759 455.613 43.757 455.938 43.7258 456.257L42.1844 472.016Z" fill="#6A3535"/>
<path d="M22.9371 497.521C22.9332 497.685 22.8493 497.811 22.7202 497.846L5.76732 502.516C5.49785 502.591 5.19261 502.256 5.22617 501.925L6.88264 485.525C6.89826 485.37 6.98774 485.258 7.11612 485.232L22.7676 482.085C23.022 482.034 23.2997 482.33 23.2922 482.645L22.9371 497.521Z" fill="#6A3535"/>
<path d="M29.3365 451.926C29.3374 452.096 29.2527 452.228 29.1193 452.265L12.1746 456.933C11.9051 457.007 11.5998 456.673 11.6334 456.342L12.8507 444.29C12.8662 444.135 12.9557 444.023 13.0842 443.997L28.7549 440.847C29.0042 440.797 29.278 441.081 29.2797 441.392L29.3365 451.926Z" fill="#6A3535"/>
<path d="M33.1168 495.958C33.1089 496.205 32.9228 496.346 32.7073 496.268L25.3803 493.623C25.1738 493.549 25.0181 493.302 25.0299 493.067L25.5126 483.432C25.5229 483.226 25.6603 483.092 25.8405 483.112L33.0502 483.931C33.2843 483.957 33.4907 484.229 33.4821 484.498L33.1168 495.958Z" fill="#6A3535"/>
<path d="M15.7163 474.875C15.7108 475.048 15.6165 475.176 15.476 475.202L-2.17324 478.436C-2.4315 478.483 -2.70849 478.178 -2.69272 477.863L-2.21749 468.378C-2.2097 468.222 -2.12874 468.103 -2.00563 468.067L15.5324 462.898C15.7906 462.823 16.0908 463.128 16.0803 463.457L15.7163 474.875Z" fill="#6A3535"/>
<path d="M1.52202 500.602C1.51653 500.774 1.42219 500.902 1.28169 500.928L-16.3676 504.162C-16.6259 504.21 -16.9029 503.904 -16.887 503.589L-16.4118 494.104C-16.404 493.948 -16.323 493.83 -16.2 493.793L1.33805 488.625C1.59621 488.549 1.89645 488.855 1.88598 489.183L1.52202 500.602Z" fill="#6A3535"/>
<path d="M3.62844 459.024C3.62295 459.196 3.52862 459.325 3.38811 459.351L-14.2611 462.585C-14.5194 462.632 -14.7964 462.327 -14.7806 462.012L-14.3054 452.527C-14.2976 452.371 -14.2166 452.252 -14.0935 452.216L3.44448 447.047C3.70265 446.971 4.00287 447.277 3.9924 447.606L3.62844 459.024Z" fill="#6A3535"/>
<path d="M17.7887 435.098C17.7832 435.27 17.6888 435.398 17.5483 435.423L-0.100985 438.658C-0.359235 438.705 -0.636237 438.399 -0.620449 438.084L-0.145231 428.599C-0.137432 428.444 -0.056473 428.325 0.0666272 428.289L17.6047 423.121C17.8628 423.045 18.1631 423.35 18.1527 423.678L17.7887 435.098Z" fill="#6A3535"/>
<path d="M46.8707 427.108C46.8715 427.278 46.7869 427.41 46.6535 427.447L29.7088 432.115C29.4393 432.189 29.134 431.855 29.1676 431.523L30.3848 419.472C30.4004 419.317 30.4899 419.205 30.6182 419.179L46.2891 416.028C46.5384 415.978 46.8122 416.263 46.8138 416.573L46.8707 427.108Z" fill="#6A3535"/>
<path d="M68.1336 418.869C68.1299 419.024 68.0543 419.146 67.9351 419.188L53.5349 424.296C53.2645 424.392 52.9406 424.052 52.9752 423.71L54.628 407.347C54.6428 407.2 54.7241 407.091 54.843 407.058L67.945 403.462C68.2014 403.392 68.4959 403.692 68.4881 404.017L68.1336 418.869Z" fill="#6A3535"/>
<path d="M87.449 410.822C87.4732 411.017 87.3898 411.178 87.2423 411.222L74.452 415.044C74.1961 415.12 73.8969 414.82 73.9029 414.493L74.1161 402.72C74.1196 402.525 74.235 402.387 74.3991 402.382L85.9457 402.003C86.1648 401.997 86.3857 402.224 86.419 402.492L87.449 410.822Z" fill="#6A3535"/>
<path d="M105.313 483.547C105.299 483.713 105.202 483.832 105.063 483.852L76.0667 488.028C75.8042 488.067 75.5325 487.75 75.5589 487.437L76.8954 471.616C76.9097 471.447 77.0119 471.327 77.1557 471.312L106.025 468.264C106.286 468.237 106.547 468.549 106.522 468.857L105.313 483.547Z" fill="#6A3535"/>
<path d="M115.964 509.804C115.951 509.97 115.853 510.088 115.715 510.108L86.7173 514.285C86.4548 514.323 86.1832 514.007 86.2098 513.694L87.5465 497.872C87.5607 497.703 87.6632 497.583 87.8065 497.568L116.676 494.521C116.936 494.493 117.199 494.806 117.173 495.112L115.964 509.804Z" fill="#6A3535"/>
<path d="M142.436 478.693C142.422 478.858 142.325 478.977 142.186 478.997L113.189 483.174C112.927 483.212 112.655 482.895 112.681 482.582L114.018 466.761C114.032 466.592 114.135 466.472 114.278 466.457L143.148 463.41C143.408 463.382 143.671 463.694 143.645 464.002L142.436 478.693Z" fill="#6A3535"/>
<path d="M146.857 449.654C146.843 449.819 146.746 449.938 146.607 449.957L117.611 454.135C117.348 454.172 117.076 453.857 117.102 453.543L118.439 437.723C118.453 437.553 118.556 437.433 118.699 437.418L147.569 434.371C147.829 434.343 148.091 434.656 148.066 434.963L146.857 449.654Z" fill="#6A3535"/>
<path d="M156.051 506.247C156.038 506.412 155.94 506.531 155.802 506.551L126.805 510.728C126.543 510.766 126.271 510.449 126.297 510.137L127.634 494.316C127.648 494.146 127.75 494.027 127.894 494.012L156.764 490.964C157.024 490.937 157.286 491.249 157.261 491.556L156.051 506.247Z" fill="#6A3535"/>
<path d="M163.144 479.338C163.14 479.502 163.057 479.627 162.929 479.662L149.889 483.319C149.62 483.394 149.313 483.06 149.346 482.727L151.002 466.334C151.018 466.177 151.11 466.065 151.24 466.041L162.98 463.89C163.233 463.843 163.507 464.138 163.5 464.451L163.144 479.338Z" fill="#6A3535"/>
<path d="M164.291 430.894C164.287 431.093 164.165 431.231 163.995 431.229L153.117 431.112C152.885 431.109 152.663 430.853 152.653 430.577L152.185 418.022C152.179 417.834 152.275 417.689 152.426 417.662L164.125 415.518C164.379 415.472 164.653 415.767 164.645 416.079L164.291 430.894Z" fill="#6A3535"/>
<path d="M165.528 418.709C165.524 418.872 165.441 418.997 165.312 419.033L152.273 422.69C152.003 422.766 151.697 422.432 151.731 422.098L153.386 405.705C153.402 405.548 153.494 405.436 153.625 405.412L165.363 403.261C165.617 403.215 165.891 403.51 165.883 403.822L165.528 418.709Z" fill="#6A3535"/>
<path d="M178.322 503.28C178.318 503.443 178.235 503.568 178.106 503.605L165.067 507.261C164.797 507.337 164.49 507.003 164.525 506.669L166.18 490.276C166.196 490.119 166.288 490.007 166.418 489.983L178.157 487.833C178.411 487.786 178.685 488.081 178.677 488.393L178.322 503.28Z" fill="#6A3535"/>
</g>
<g filter="url(#filter4_d_342_28803)">
<path d="M22.3512 96.5217C22.3305 96.7009 22.2104 96.8176 22.052 96.8134L3.16589 96.2359C2.91221 96.2284 2.68085 95.9226 2.71001 95.6342L4.38374 79.0631C4.39964 78.9058 4.49205 78.7926 4.62371 78.7694L24.2208 75.3105C24.4899 75.263 24.7729 75.5951 24.7359 75.9148L22.3512 96.5217Z" fill="#6A3535"/>
<path d="M85.7612 93.5316C85.7579 93.6941 85.6745 93.82 85.5454 93.8558L72.5063 97.5116C72.2368 97.5875 71.9304 97.2533 71.964 96.92L73.6198 80.5271C73.6355 80.3706 73.7272 80.2577 73.858 80.2337L85.597 78.0832C85.8504 78.0367 86.1245 78.3318 86.117 78.6439L85.7612 93.5316Z" fill="#6A3535"/>
<path d="M40.4537 63.6296C40.443 63.7951 40.3491 63.9159 40.2125 63.94L21.7216 67.2075C21.4612 67.2535 21.1841 66.9425 21.2042 66.627L22.5133 46.1341C22.5232 45.9809 22.6043 45.8649 22.7263 45.8297L41.3797 40.45C41.6433 40.374 41.9469 40.6935 41.9253 41.0245L40.4537 63.6296Z" fill="#6A3535"/>
<path d="M59.2937 53.9391C59.29 54.0943 59.2145 54.2158 59.0953 54.2581L44.695 59.366C44.4247 59.4618 44.1007 59.1226 44.1354 58.7798L45.7882 42.416C45.803 42.2695 45.8843 42.1605 46.0031 42.1279L59.1051 38.5316C59.3615 38.4611 59.656 38.7623 59.6483 39.087L59.2937 53.9391Z" fill="#6A3535"/>
<path d="M16.1423 70.6417C16.1358 70.8015 16.0524 70.9232 15.9255 70.9581L-4.03211 76.4468C-4.30156 76.521 -4.60669 76.1871 -4.57314 75.8548L-2.91296 59.4182C-2.89935 59.2833 -2.8293 59.1796 -2.72433 59.1388L16.3232 51.7285C16.5837 51.6272 16.9064 51.9419 16.8925 52.2835L16.1423 70.6417Z" fill="#6A3535"/>
<path d="M-1.0529 97.1766C-1.0672 97.3283 -1.15225 97.4399 -1.27612 97.4699L-21.1242 102.277C-21.393 102.342 -21.6902 102.011 -21.6571 101.683L-19.9991 85.2675C-19.9831 85.11 -19.8908 84.9966 -19.7591 84.9733L-0.146768 81.5119C0.118748 81.465 0.399429 81.7884 0.369399 82.1065L-1.0529 97.1766Z" fill="#6A3535"/>
<path d="M16.9797 125.214C16.966 125.38 16.8687 125.498 16.7301 125.518L-12.2668 129.695C-12.5293 129.733 -12.801 129.417 -12.7746 129.104L-11.4381 113.283C-11.4238 113.113 -11.3216 112.993 -11.1778 112.978L17.6919 109.931C17.952 109.903 18.2143 110.216 18.189 110.523L16.9797 125.214Z" fill="#6A3535"/>
<path d="M27.6305 151.471C27.6169 151.637 27.5197 151.755 27.3809 151.775L-1.61592 155.952C-1.87837 155.99 -2.15012 155.673 -2.12371 155.361L-0.787203 139.539C-0.772885 139.37 -0.670719 139.25 -0.526992 139.235L28.3428 136.187C28.6029 136.16 28.8652 136.472 28.8399 136.779L27.6305 151.471Z" fill="#6A3535"/>
<path d="M54.1026 120.36C54.089 120.525 53.9918 120.643 53.8531 120.663L24.8562 124.841C24.5938 124.878 24.322 124.562 24.3485 124.249L25.685 108.427C25.6992 108.258 25.8014 108.139 25.9451 108.124L54.8149 105.077C55.075 105.049 55.3373 105.361 55.312 105.668L54.1026 120.36Z" fill="#6A3535"/>
<path d="M58.5236 91.3207C58.51 91.4857 58.4128 91.6041 58.2741 91.6241L29.2772 95.8016C29.0147 95.8391 28.7429 95.5232 28.7694 95.2099L30.1059 79.3888C30.1202 79.2193 30.2224 79.0998 30.3661 79.0847L59.2359 76.0373C59.496 76.0098 59.7583 76.3221 59.733 76.6291L58.5236 91.3207Z" fill="#6A3535"/>
<path d="M67.7184 147.914C67.7048 148.079 67.6075 148.198 67.4688 148.218L38.4719 152.395C38.2095 152.433 37.9378 152.116 37.9642 151.803L39.3007 135.983C39.315 135.813 39.4172 135.693 39.5609 135.678L68.4307 132.631C68.6908 132.603 68.9531 132.916 68.9278 133.223L67.7184 147.914Z" fill="#6A3535"/>
<path d="M74.8108 121.005C74.8069 121.168 74.7235 121.293 74.595 121.329L61.5556 124.986C61.286 125.061 60.9796 124.727 61.0133 124.394L62.669 108.001C62.6849 107.844 62.7765 107.732 62.9072 107.707L74.6462 105.557C74.9 105.51 75.1735 105.805 75.1661 106.117L74.8108 121.005Z" fill="#6A3535"/>
<path d="M75.9584 72.5606C75.9537 72.7595 75.8317 72.8973 75.6622 72.8955L64.7836 72.7785C64.5523 72.776 64.3298 72.5199 64.3196 72.2441L63.8524 59.6891C63.8453 59.5006 63.9418 59.3557 64.0926 59.328L75.7921 57.1848C76.0458 57.1383 76.3195 57.4334 76.312 57.7455L75.9584 72.5606Z" fill="#6A3535"/>
<path d="M77.1945 60.376C77.1907 60.5391 77.1073 60.6644 76.9787 60.7005L63.9394 64.3567C63.6698 64.4323 63.3634 64.0979 63.3971 63.765L65.0528 47.3719C65.0687 47.2152 65.1602 47.1024 65.291 47.0784L77.03 44.928C77.2838 44.8815 77.5573 45.1765 77.5499 45.4886L77.1945 60.376Z" fill="#6A3535"/>
<path d="M89.9888 144.947C89.9846 145.11 89.9013 145.235 89.7729 145.272L76.7333 148.928C76.4638 149.003 76.1574 148.669 76.191 148.336L77.8468 131.943C77.8626 131.786 77.9543 131.673 78.085 131.649L89.8238 129.499C90.0779 129.453 90.3513 129.748 90.3438 130.06L89.9888 144.947Z" fill="#6A3535"/>
</g>
<path d="M597.862 29.4326L353.146 131.427L478.872 212.5L725.833 108.627L597.862 29.4326Z" fill="#DA8686"/>
<path d="M600.107 -164.096L476.627 -132.713V79.1221L539.49 58.2001L600.107 26.8171V-164.096Z" fill="#BEC68A"/>
<path d="M476.627 -132.713L350.901 -103.945L357.637 134.042L476.627 79.1221V-132.713Z" fill="#BEC68A"/>
<path d="M350.901 -103.945L474.382 -62.101L478.872 212.5L424.99 178.502V52.9699L391.313 39.8937V157.58L353.146 134.042L350.901 -103.945Z" fill="#E9F4A5"/>
<path d="M602.353 -96.0991L474.382 -62.1011L478.872 212.5L602.353 162.81V-96.0991Z" fill="#D4DF94"/>
<path d="M424.948 178.425V52.9984L404.826 45.1851V165.403L424.948 178.425Z" fill="#726440" stroke="black" stroke-width="0.1"/>
<path d="M391.272 39.9351H364.414V154.927L391.272 157.533V39.9351Z" fill="#726440" stroke="black" stroke-width="0.1"/>
<path d="M444.803 70.6393L453.392 68.6614L463.157 73.8918L465.402 84.3525V97.4292L467.647 107.89V162.81H463.157L436.216 152.349H433.971L438.458 105.275L440.705 94.8142L440.706 79.1223L444.803 70.6393Z" fill="#4E9E90" fill-opacity="0.3"/>
<path d="M280.803 -78.5112L358.53 -46.5744L355.082 161.259L282.592 117.901L280.803 -78.5112Z" fill="#C7B995"/>
<path d="M209.136 -31.5645L280.803 -78.5112L282.592 117.901L210.925 164.848L209.136 -31.5645Z" fill="#838491"/>
<path d="M209.136 -31.5645L286.821 -4.14287L283.415 208.206L210.925 164.848L209.136 -31.5645Z" fill="#717381"/>
<path d="M281.461 -6.26743L358.53 -46.5742L355.082 161.259L283.415 208.206L281.461 -6.26743Z" fill="#82838A"/>
<path d="M313.128 99.0758L335.758 91.7383L336.498 173.012L312.616 189.414L313.128 99.0758Z" fill="#726440"/>
<path d="M334.813 134.666C334.825 135.912 334.236 136.938 333.499 136.957C332.762 136.975 332.155 135.979 332.144 134.732C332.132 133.486 332.72 132.46 333.458 132.442C334.195 132.423 334.802 133.419 334.813 134.666Z" fill="#98B44B"/>
<path d="M229.403 95.6859L228.862 36.3242L260.131 43.5767L259.403 108.125L229.403 95.6859Z" fill="#70C8C2" stroke="#57585C"/>
<path d="M243.74 103.062L244.498 39.8149" stroke="#57585C"/>
<path d="M229.077 70.9133L259.955 77.6803" stroke="#57585C"/>
<path d="M281.596 43.6673C281.594 43.5086 281.683 43.3613 281.825 43.2877L304.81 31.351C305.085 31.2079 305.411 31.4014 305.413 31.7099L305.673 60.2598C305.675 60.3922 305.613 60.5182 305.507 60.5993L282.575 78.2169C282.302 78.4267 281.911 78.2401 281.907 77.8982L281.596 43.6673Z" fill="#64656B"/>
<path d="M336.434 154.202C336.432 154.022 336.547 153.86 336.717 153.799L353.774 147.761C354.042 147.666 354.321 147.86 354.324 148.143L354.45 162.023C354.452 162.182 354.362 162.329 354.221 162.403L337.19 171.248C336.914 171.391 336.589 171.197 336.586 170.889L336.434 154.202Z" fill="#64656B"/>
<path d="M305.085 -4.01579C305.085 -4.17456 305.173 -4.32178 305.315 -4.39543L328.3 -16.3321C328.575 -16.4752 328.9 -16.2818 328.904 -15.9732L329.164 12.5767C329.165 12.7091 329.103 12.835 328.998 12.9162L306.065 30.5338C305.791 30.7436 305.4 30.557 305.398 30.2151L305.085 -4.01579Z" fill="#64656B"/>
<path d="M335.683 71.7993C335.681 71.6192 335.796 71.4566 335.966 71.3962L353.023 65.3577C353.291 65.2626 353.571 65.4564 353.573 65.74L353.699 79.6203C353.701 79.7791 353.611 79.9263 353.47 79.9999L336.439 88.8449C336.163 88.9883 335.838 88.7941 335.835 88.4858L335.683 71.7993Z" fill="#64656B"/>
<path d="M288.595 155.393C288.593 155.213 288.707 155.051 288.877 154.991L305.935 148.952C306.203 148.857 306.481 149.051 306.485 149.334L306.611 163.214C306.612 163.373 306.523 163.521 306.381 163.594L289.351 172.439C289.075 172.582 288.75 172.388 288.746 172.08L288.595 155.393Z" fill="#64656B"/>
<path d="M287.093 -9.4549C287.092 -9.61365 287.18 -9.7609 287.322 -9.83456L298.399 -15.5875C298.674 -15.7306 299 -15.5371 299.002 -15.2286L299.129 -1.39344C299.13 -1.26116 299.068 -1.13519 298.962 -1.05399L287.911 7.4369C287.637 7.64675 287.247 7.46005 287.244 7.1182L287.093 -9.4549Z" fill="#64656B"/>
<path d="M282.186 108.413C282.184 108.253 282.273 108.107 282.415 108.033L293.491 102.28C293.767 102.137 294.092 102.33 294.095 102.639L294.221 116.474C294.222 116.606 294.161 116.733 294.055 116.813L283.003 125.304C282.73 125.514 282.34 125.328 282.336 124.986L282.186 108.413Z" fill="#64656B"/>
<path d="M342.091 118.695C342.09 118.537 342.179 118.389 342.32 118.316L353.397 112.562C353.673 112.42 353.999 112.613 354.001 112.922L354.127 126.757C354.129 126.889 354.067 127.015 353.961 127.096L342.91 135.587C342.636 135.797 342.245 135.61 342.242 135.268L342.091 118.695Z" fill="#64656B"/>
<path d="M335.253 24.6694C335.252 24.5106 335.34 24.3634 335.483 24.2898L346.56 18.5368C346.835 18.3937 347.16 18.5872 347.163 18.8957L347.29 32.7309C347.29 32.8631 347.229 32.9891 347.123 33.0703L336.071 41.5612C335.798 41.771 335.407 41.5844 335.405 41.2424L335.253 24.6694Z" fill="#64656B"/>
<path d="M264.544 141.584C264.541 141.29 264.836 141.081 265.11 141.182L279.277 146.388C279.437 146.448 279.543 146.598 279.545 146.77L279.671 160.694C279.674 160.957 279.436 161.159 279.178 161.115L265.036 158.688C264.841 158.654 264.698 158.487 264.696 158.288L264.544 141.584Z" fill="#57585C"/>
<path d="M259.935 102.104C259.932 101.81 260.226 101.601 260.5 101.702L274.669 106.908C274.828 106.968 274.935 107.118 274.936 107.29L275.063 121.214C275.065 121.477 274.827 121.679 274.57 121.635L260.427 119.208C260.231 119.174 260.089 119.007 260.087 118.808L259.935 102.104Z" fill="#57585C"/>
<path d="M222.443 116.108C222.44 115.823 222.718 115.615 222.989 115.699L252.147 124.785C252.317 124.837 252.432 124.994 252.434 125.172L252.656 149.606C252.659 149.864 252.429 150.066 252.175 150.029L223.061 145.848C222.86 145.819 222.712 145.649 222.71 145.446L222.443 116.108Z" fill="#57585C"/>
<path d="M209.947 57.5671C209.945 57.2763 210.233 57.0677 210.506 57.163L227.673 63.1515C227.836 63.2084 227.945 63.3612 227.946 63.5349L228.092 79.561C228.095 79.8219 227.86 80.0245 227.603 79.9828L210.466 77.2015C210.269 77.1695 210.124 77.001 210.122 76.8005L209.947 57.5671Z" fill="#57585C"/>
<path d="M249.072 21.462C249.07 21.186 249.331 20.9797 249.598 21.0478L272.745 26.9655C272.926 27.0115 273.051 27.1723 273.052 27.359L273.199 43.3809C273.201 43.6341 272.979 43.8343 272.728 43.8053L249.61 41.1339C249.404 41.1101 249.25 40.9379 249.248 40.7303L249.072 21.462Z" fill="#57585C"/>
<path d="M212.505 10.0972C212.507 10.2941 212.646 10.4608 212.84 10.4966L235.972 14.7914C236.231 14.8395 236.473 14.6359 236.471 14.3712L236.325 -1.60548C236.324 -1.79725 236.191 -1.96099 236.005 -2.00218L212.865 -7.10852C212.601 -7.16658 212.35 -6.9615 212.352 -6.69108L212.505 10.0972Z" fill="#57585C"/>
<path d="M263.434 19.7608C263.436 20.0369 263.702 20.23 263.967 20.1487L275.066 16.7426C275.245 16.6876 275.367 16.5206 275.366 16.3339L275.296 8.72044C275.294 8.46727 275.068 8.27821 274.818 8.31969L263.706 10.1613C263.5 10.1953 263.349 10.375 263.351 10.5828L263.434 19.7608Z" fill="#57585C"/>
<path d="M305.73 66.6153C305.728 66.4566 305.817 66.3093 305.959 66.2357L328.943 54.299C329.219 54.1559 329.545 54.3494 329.547 54.6579L329.808 83.2078C329.809 83.34 329.748 83.4658 329.642 83.5475L306.708 101.165C306.435 101.375 306.045 101.188 306.042 100.846L305.73 66.6153Z" fill="#64656B"/>
<path d="M334.771 -28.3381C334.77 -28.4785 334.839 -28.6111 334.956 -28.6911L351.961 -40.3422C352.236 -40.5309 352.606 -40.3413 352.61 -40.0099L352.869 -11.5265C352.87 -11.4148 352.826 -11.3066 352.747 -11.2264L335.793 6.03736C335.531 6.30313 335.085 6.12759 335.081 5.75802L334.771 -28.3381Z" fill="#64656B"/>
<path d="M187.188 32.7227L256.667 55.9247L251.875 198.231L187.188 167.294V32.7227Z" fill="#C7B995"/>
<path d="M122.5 63.6587L187.187 32.7227V167.294L122.5 198.231V63.6587Z" fill="#D4AE4C"/>
<path d="M122.5 63.6587L191.979 83.7674L187.187 229.167L122.5 198.231V63.6587Z" fill="#AE8C34"/>
<path d="M187.188 82.2202L256.667 55.9246L251.875 198.23L187.188 229.167V82.2202Z" fill="#D4AE4C"/>
<path d="M183.593 3.33325L220.729 29.6289L256.667 55.9246L187.188 82.2203L122.5 63.6586L154.843 48.1906L183.593 3.33325Z" fill="#9C5E44"/>
<path d="M183.593 3.33325L187.187 82.2203L122.5 63.6586L183.593 3.33325Z" fill="#8A523B"/>
<path d="M214.74 154.92L235.104 150.279V205.964L213.542 216.792L214.74 154.92Z" fill="#726440"/>
<path d="M233.906 179.669C233.906 180.523 233.369 181.216 232.708 181.216C232.046 181.216 231.51 180.523 231.51 179.669C231.51 178.815 232.046 178.123 232.708 178.123C233.369 178.123 233.906 178.815 233.906 179.669Z" fill="#98B44B"/>
<path d="M139.688 151.057V110.637L167.595 116.12L166.421 160.062L139.688 151.057Z" fill="#70C8C2" stroke="#9C5E44"/>
<path d="M152.448 156.467L153.646 113.157" stroke="#9C5E44"/>
<path d="M139.556 134.196L167.205 139.357" stroke="#9C5E44"/>
<path d="M115.193 119.589L170 136.37L166.22 239.292L115.193 216.917V119.589Z" fill="#C7B995"/>
<path d="M64.166 141.963L115.193 119.589V216.917L64.166 239.292V141.963Z" fill="#D4AE4C"/>
<path d="M64.166 141.963L118.973 156.507L115.193 261.667L64.166 239.292V141.963Z" fill="#AE8C34"/>
<path d="M115.193 155.388L170 136.37L166.22 239.292L115.193 261.667V155.388Z" fill="#D4AE4C"/>
<path d="M112.358 98.3333L141.651 117.352L170 136.37L115.193 155.388L64.166 141.963L89.6795 130.777L112.358 98.3333Z" fill="#9C5E44"/>
<path d="M112.358 98.3333L115.193 155.388L64.166 141.963L112.358 98.3333Z" fill="#8A523B"/>
<path d="M136.926 207.968L152.991 204.612V244.886L135.981 252.717L136.926 207.968Z" fill="#726440"/>
<path d="M152.046 225.867C152.046 226.486 151.622 226.987 151.101 226.987C150.578 226.987 150.156 226.486 150.156 225.867C150.156 225.25 150.578 224.749 151.101 224.749C151.622 224.749 152.046 225.25 152.046 225.867Z" fill="#98B44B"/>
<path d="M77.8125 205.083V176.073L99.6473 180.006L98.729 211.543L77.8125 205.083Z" fill="#70C8C2" stroke="#9C5E44"/>
<path d="M87.7896 209.087L88.7346 177.762" stroke="#9C5E44"/>
<path d="M77.6201 192.979L99.4307 196.712" stroke="#9C5E44"/>
<path d="M27.4253 161.729L89.9998 177.568L85.684 274.714L27.4253 253.596V161.729Z" fill="#C7B995"/>
<path d="M-30.8335 182.848L27.4254 161.729V253.596L-30.8335 274.714V182.848Z" fill="#D4AE4C"/>
<path d="M-30.8335 182.848L31.7409 196.576L27.4254 295.833L-30.8335 274.715V182.848Z" fill="#AE8C34"/>
<path d="M27.4253 195.519L89.9998 177.568L85.684 274.714L27.4253 295.833V195.519Z" fill="#D4AE4C"/>
<path d="M24.1888 141.667L57.6338 159.617L89.9998 177.568L27.4254 195.519L-30.8335 182.848L-1.70403 172.289L24.1888 141.667Z" fill="#9C5E44"/>
<path d="M24.1888 141.667L27.4254 195.519L-30.8335 182.848L24.1888 141.667Z" fill="#8A523B"/>
<path d="M52.2396 245.148L70.5803 241.981V279.994L51.1606 287.386L52.2396 245.148Z" fill="#726440"/>
<path d="M69.501 262.043C69.501 262.627 69.018 263.099 68.4222 263.099C67.8263 263.099 67.3433 262.627 67.3433 262.043C67.3433 261.46 67.8263 260.988 68.4222 260.988C69.018 260.988 69.501 261.46 69.501 262.043Z" fill="#98B44B"/>
<path d="M-15.3125 242.392V215.056L9.73417 218.786L8.68658 248.519L-15.3125 242.392Z" fill="#70C8C2" stroke="#9C5E44"/>
<path d="M-15.4727 231.001L9.42909 234.524" stroke="#9C5E44"/>
<path d="M103.696 372.578H129.841L126.189 363.712L263.737 365.39L346.508 366.348V369.463H340.422H401.396L397.606 371.886L401.396 435.46L389.317 445.287L395.394 480.505L259.832 484.167L119.267 482.729L107.67 418.484L111.46 399.068L103.696 372.578Z" fill="#A9AD81"/>
<path d="M118.582 391.803H91.9857L86.6665 372.438V350.833L287.027 358.584L407.598 363.013L407.061 375.726L408.333 389.347L263.977 385.16L118.582 391.803Z" fill="#8D8F6D"/>
<path d="M190.879 414.025C190.296 413.925 189.729 413.875 189.179 413.875C188.646 413.875 187.996 413.967 187.229 414.15C186.979 415.2 186.854 416.225 186.854 417.225C186.854 419.808 188.004 421.792 190.304 423.175C191.837 422.158 193.221 420.892 194.454 419.375C194.504 420.042 194.546 421.058 194.579 422.425C193.346 423.392 192.087 424.15 190.804 424.7C189.521 425.25 187.921 425.525 186.004 425.525H185.429C183.929 424.875 182.746 423.917 181.879 422.65C181.029 421.383 180.604 420.05 180.604 418.65C180.604 416.783 181.371 415.2 182.904 413.9C184.437 412.583 186.662 411.925 189.579 411.925C191.212 411.925 192.921 412.133 194.704 412.55C194.437 413.6 194.104 414.592 193.704 415.525C192.654 415.625 191.571 415.675 190.454 415.675C190.621 415.208 190.762 414.658 190.879 414.025ZM205.825 417.525L208.175 417.675C208.408 417.675 208.583 417.667 208.7 417.65L207.525 419.85H207.3C206.983 419.85 206.533 419.767 205.95 419.6C205.366 419.417 204.95 419.325 204.7 419.325C204.016 419.325 203.475 419.767 203.075 420.65C203.008 421.467 202.958 422.283 202.925 423.1C203.791 423.267 204.475 423.35 204.975 423.35H205.2C205.917 423.35 206.483 423.192 206.9 422.875C207.333 422.558 207.641 421.992 207.825 421.175L210.825 421.3C210.575 422.733 210.241 423.967 209.825 425H197.55C197.216 422.75 197.05 420.517 197.05 418.3C197.05 416.083 197.167 414.15 197.4 412.5H210.8C210.5 414.3 210.233 415.567 210 416.3C209.017 416.35 208.116 416.383 207.3 416.4C207.433 416.017 207.5 415.658 207.5 415.325C207.5 414.525 206.9 414.125 205.7 414.125C205.25 414.125 204.75 414.175 204.2 414.275C203.833 415.858 203.55 417.25 203.35 418.45C204.017 417.833 204.842 417.525 205.825 417.525ZM228.372 412.5C228.472 414.25 228.522 416.1 228.522 418.05C228.522 419.983 228.439 422.3 228.272 425H225.872C222.639 423.267 219.672 420.908 216.972 417.925C217.106 419.042 217.172 420.192 217.172 421.375C217.172 422.542 217.131 423.75 217.047 425H214.122C214.456 422.95 214.622 421.058 214.622 419.325C214.622 417.575 214.539 416.192 214.372 415.175C213.706 414.175 213.181 413.283 212.797 412.5H219.897C220.597 413.7 221.547 414.942 222.747 416.225C223.964 417.492 225.122 418.483 226.222 419.2C226.222 416.767 225.947 414.533 225.397 412.5H228.372ZM241.893 414.125C241.46 416.758 241.243 418.908 241.243 420.575C241.243 422.242 241.31 423.717 241.443 425H235.993C235.426 422.35 235.143 419.5 235.143 416.45C235.143 415.933 235.16 415.158 235.193 414.125C233.776 414.542 232.91 415.5 232.593 417L230.118 416.85L231.018 412.5H247.643C247.31 414.333 246.926 415.833 246.493 417L243.968 416.85C244.035 416.583 244.068 416.317 244.068 416.05C244.068 415.4 243.868 414.917 243.468 414.6C243.068 414.283 242.543 414.125 241.893 414.125ZM263.271 416.85L263.246 417.7C261.912 418.417 260.246 418.975 258.246 419.375C259.679 419.758 261.062 419.95 262.396 419.95H262.921C263.837 421.3 264.429 422.983 264.696 425H258.221C258.054 423.833 257.712 422.833 257.196 422C256.696 421.15 256.079 420.575 255.346 420.275C255.329 420.558 255.321 421.125 255.321 421.975C255.321 422.825 255.371 423.833 255.471 425H250.021C249.537 422.583 249.296 420.342 249.296 418.275C249.296 416.192 249.412 414.267 249.646 412.5H262.696C263.079 414.183 263.271 415.633 263.271 416.85ZM255.871 414.175C255.671 415.642 255.521 417.083 255.421 418.5C256.337 418.367 257.087 418.042 257.671 417.525C257.354 416.408 256.754 415.292 255.871 414.175ZM268.446 424.925C266.963 423.025 266.222 421.075 266.222 419.075C266.222 417.075 267.055 415.383 268.722 414C270.388 412.617 272.522 411.925 275.122 411.925C276.505 411.925 277.88 412.133 279.247 412.55C280.447 414.067 281.047 415.692 281.047 417.425C281.047 419.608 280.155 421.508 278.371 423.125C276.588 424.742 274.43 425.55 271.897 425.55C270.813 425.55 269.663 425.342 268.446 424.925ZM272.247 414.1C271.663 415.1 271.371 416.275 271.371 417.625C271.371 418.975 271.663 420.225 272.247 421.375C272.847 422.508 273.663 423.325 274.696 423.825C275.48 422.825 275.871 421.667 275.871 420.35C275.871 419.033 275.547 417.808 274.897 416.675C274.263 415.542 273.38 414.683 272.247 414.1ZM298.442 411.925C301.659 411.925 304.276 412.325 306.292 413.125C307.009 414.558 307.367 416.008 307.367 417.475C307.367 419.358 306.726 420.992 305.442 422.375C303.576 424.358 301.051 425.35 297.867 425.35C296.767 425.35 295.276 425.225 293.392 424.975C292.742 421.625 292.417 418.533 292.417 415.7C292.417 414.717 292.467 413.65 292.567 412.5C295.251 412.117 297.209 411.925 298.442 411.925ZM299.192 413.8C298.892 416.933 298.742 419.183 298.742 420.55C298.742 421.9 298.767 423 298.817 423.85C299.717 423.367 300.417 422.558 300.917 421.425C301.434 420.275 301.692 419.117 301.692 417.95C301.692 416.767 301.476 415.8 301.042 415.05C300.626 414.3 300.009 413.883 299.192 413.8ZM318.887 417.525L321.237 417.675C321.47 417.675 321.645 417.667 321.762 417.65L320.587 419.85H320.361C320.045 419.85 319.595 419.767 319.012 419.6C318.428 419.417 318.012 419.325 317.762 419.325C317.078 419.325 316.537 419.767 316.137 420.65C316.07 421.467 316.02 422.283 315.986 423.1C316.853 423.267 317.537 423.35 318.037 423.35H318.262C318.978 423.35 319.545 423.192 319.962 422.875C320.395 422.558 320.703 421.992 320.887 421.175L323.887 421.3C323.637 422.733 323.303 423.967 322.886 425H310.612C310.278 422.75 310.112 420.517 310.112 418.3C310.112 416.083 310.228 414.15 310.461 412.5H323.862C323.562 414.3 323.295 415.567 323.062 416.3C322.078 416.35 321.178 416.383 320.361 416.4C320.495 416.017 320.562 415.658 320.562 415.325C320.562 414.525 319.962 414.125 318.762 414.125C318.312 414.125 317.811 414.175 317.261 414.275C316.895 415.858 316.612 417.25 316.412 418.45C317.078 417.833 317.903 417.525 318.887 417.525ZM201.365 442.075C201.365 445.342 201.048 448.817 200.415 452.5H194.44C194.707 450.533 194.881 448.417 194.965 446.15C194.098 445.617 193.131 445.292 192.065 445.175C191.965 447.625 191.698 450.067 191.265 452.5H185.59C185.806 450.867 185.915 448.917 185.915 446.65C185.915 444.367 185.765 442.15 185.465 440H192.065C192.098 440.683 192.115 441.7 192.115 443.05C193.081 443.35 194.04 443.758 194.99 444.275C194.99 442.725 194.931 441.3 194.815 440H201.315C201.348 440.933 201.365 441.625 201.365 442.075ZM219.646 452.3V452.5H213.846C213.779 451.55 213.637 450.567 213.421 449.55C212.387 450.6 211.221 451.583 209.921 452.5H204.096C203.979 451.817 203.921 450.917 203.921 449.8C203.921 448.667 204.087 447.533 204.421 446.4C205.621 446.05 206.771 445.458 207.871 444.625C208.987 443.792 209.796 442.892 210.296 441.925C209.846 441.225 209.371 440.583 208.871 440H217.171C218.821 443.583 219.646 447.683 219.646 452.3ZM212.971 447.725C212.537 446.242 211.971 444.842 211.271 443.525C210.487 445.825 210.037 448 209.921 450.05C211.121 449.433 212.137 448.658 212.971 447.725ZM236.545 441.15C236.545 440.7 236.478 440.317 236.345 440H243.47C244.07 441.6 244.512 443.558 244.795 445.875C245.095 448.192 245.253 450.4 245.27 452.5H239.495C239.378 449.5 238.886 446.608 238.02 443.825C236.57 446.658 235.786 449.55 235.67 452.5H230.77C230.337 449.233 229.503 446.333 228.27 443.8C227.37 445.917 226.92 447.883 226.92 449.7C226.92 450.683 227.037 451.617 227.27 452.5H221.195C221.078 451.817 221.02 450.917 221.02 449.8C221.02 448.667 221.187 447.533 221.52 446.4C222.703 446.05 223.836 445.475 224.92 444.675C226.02 443.875 226.828 443 227.345 442.05C226.911 441.333 226.453 440.65 225.97 440H233.87C234.503 441.717 234.978 443.583 235.295 445.6C236.128 444.05 236.545 442.567 236.545 441.15ZM256.789 445.025L259.139 445.175C259.372 445.175 259.547 445.167 259.664 445.15L258.489 447.35H258.264C257.947 447.35 257.497 447.267 256.914 447.1C256.331 446.917 255.914 446.825 255.664 446.825C254.981 446.825 254.439 447.267 254.039 448.15C253.972 448.967 253.922 449.783 253.889 450.6C254.756 450.767 255.439 450.85 255.939 450.85H256.164C256.881 450.85 257.447 450.692 257.864 450.375C258.297 450.058 258.606 449.492 258.789 448.675L261.789 448.8C261.539 450.233 261.206 451.467 260.789 452.5H248.514C248.181 450.25 248.014 448.017 248.014 445.8C248.014 443.583 248.131 441.65 248.364 440H261.764C261.464 441.8 261.197 443.067 260.964 443.8C259.981 443.85 259.081 443.883 258.264 443.9C258.397 443.517 258.464 443.158 258.464 442.825C258.464 442.025 257.864 441.625 256.664 441.625C256.214 441.625 255.714 441.675 255.164 441.775C254.797 443.358 254.514 444.75 254.314 445.95C254.981 445.333 255.806 445.025 256.789 445.025ZM270.037 450.575C270.82 450.758 271.57 450.85 272.286 450.85C273.003 450.85 273.57 450.692 273.987 450.375C274.42 450.042 274.737 449.475 274.937 448.675L277.936 448.775C277.686 450.275 277.353 451.517 276.937 452.5H264.661C264.345 450.367 264.186 448.158 264.186 445.875C264.186 443.592 264.303 441.633 264.537 440H271.737C270.637 444.217 270.07 447.742 270.037 450.575ZM285.076 450.575C285.859 450.758 286.609 450.85 287.326 450.85C288.042 450.85 288.609 450.692 289.026 450.375C289.459 450.042 289.776 449.475 289.976 448.675L292.976 448.775C292.726 450.275 292.392 451.517 291.976 452.5H279.701C279.384 450.367 279.226 448.158 279.226 445.875C279.226 443.592 279.342 441.633 279.576 440H286.776C285.676 444.217 285.109 447.742 285.076 450.575ZM301.79 440V440.675C301.79 445.075 301.515 449.017 300.965 452.5H294.965C295.282 450.967 295.44 449.2 295.44 447.2C295.44 445.183 295.307 442.783 295.04 440H301.79ZM319.326 440C319.426 441.75 319.477 443.6 319.477 445.55C319.477 447.483 319.393 449.8 319.226 452.5H316.826C313.593 450.767 310.626 448.408 307.926 445.425C308.06 446.542 308.127 447.692 308.127 448.875C308.127 450.042 308.085 451.25 308.001 452.5H305.077C305.41 450.45 305.576 448.558 305.576 446.825C305.576 445.075 305.493 443.692 305.327 442.675C304.66 441.675 304.135 440.783 303.752 440H310.852C311.552 441.2 312.501 442.442 313.701 443.725C314.918 444.992 316.077 445.983 317.177 446.7C317.177 444.267 316.902 442.033 316.352 440H319.326Z" fill="black"/>
</g>
<path d="M487.5 4.16675H12.4998C7.89746 4.16675 4.1665 7.89771 4.1665 12.5001V487.5C4.1665 492.102 7.89746 495.833 12.4998 495.833H487.5C492.102 495.833 495.833 492.102 495.833 487.5V12.5001C495.833 7.89771 492.102 4.16675 487.5 4.16675Z" stroke="#A9AD81" stroke-width="10"/>
</g>
<defs>
<filter id="filter0_d_342_28803" x="330.433" y="382.688" width="214.745" height="135.73" filterUnits="userSpaceOnUse" color-interpolation-filters="sRGB">
<feFlood flood-opacity="0" result="BackgroundImageFix"/>
<feColorMatrix in="SourceAlpha" type="matrix" values="0 0 0 0 0 0 0 0 0 0 0 0 0 0 0 0 0 0 127 0" result="hardAlpha"/>
<feOffset dy="4"/>
<feGaussianBlur stdDeviation="2"/>
<feComposite in2="hardAlpha" operator="out"/>
<feColorMatrix type="matrix" values="0 0 0 0 0 0 0 0 0 0 0 0 0 0 0 0 0 0 0.25 0"/>
<feBlend mode="normal" in2="BackgroundImageFix" result="effect1_dropShadow_342_28803"/>
<feBlend mode="normal" in="SourceGraphic" in2="effect1_dropShadow_342_28803" result="shape"/>
</filter>
<filter id="filter1_d_342_28803" x="317.933" y="21.0212" width="214.745" height="135.73" filterUnits="userSpaceOnUse" color-interpolation-filters="sRGB">
<feFlood flood-opacity="0" result="BackgroundImageFix"/>
<feColorMatrix in="SourceAlpha" type="matrix" values="0 0 0 0 0 0 0 0 0 0 0 0 0 0 0 0 0 0 127 0" result="hardAlpha"/>
<feOffset dy="4"/>
<feGaussianBlur stdDeviation="2"/>
<feComposite in2="hardAlpha" operator="out"/>
<feColorMatrix type="matrix" values="0 0 0 0 0 0 0 0 0 0 0 0 0 0 0 0 0 0 0.25 0"/>
<feBlend mode="normal" in2="BackgroundImageFix" result="effect1_dropShadow_342_28803"/>
<feBlend mode="normal" in="SourceGraphic" in2="effect1_dropShadow_342_28803" result="shape"/>
</filter>
<filter id="filter2_d_342_28803" x="102.099" y="29.3545" width="214.745" height="135.73" filterUnits="userSpaceOnUse" color-interpolation-filters="sRGB">
<feFlood flood-opacity="0" result="BackgroundImageFix"/>
<feColorMatrix in="SourceAlpha" type="matrix" values="0 0 0 0 0 0 0 0 0 0 0 0 0 0 0 0 0 0 127 0" result="hardAlpha"/>
<feOffset dy="4"/>
<feGaussianBlur stdDeviation="2"/>
<feComposite in2="hardAlpha" operator="out"/>
<feColorMatrix type="matrix" values="0 0 0 0 0 0 0 0 0 0 0 0 0 0 0 0 0 0 0.25 0"/>
<feBlend mode="normal" in2="BackgroundImageFix" result="effect1_dropShadow_342_28803"/>
<feBlend mode="normal" in="SourceGraphic" in2="effect1_dropShadow_342_28803" result="shape"/>
</filter>
<filter id="filter3_d_342_28803" x="-32.0679" y="396.854" width="214.745" height="135.73" filterUnits="userSpaceOnUse" color-interpolation-filters="sRGB">
<feFlood flood-opacity="0" result="BackgroundImageFix"/>
<feColorMatrix in="SourceAlpha" type="matrix" values="0 0 0 0 0 0 0 0 0 0 0 0 0 0 0 0 0 0 127 0" result="hardAlpha"/>
<feOffset dy="4"/>
<feGaussianBlur stdDeviation="2"/>
<feComposite in2="hardAlpha" operator="out"/>
<feColorMatrix type="matrix" values="0 0 0 0 0 0 0 0 0 0 0 0 0 0 0 0 0 0 0.25 0"/>
<feBlend mode="normal" in2="BackgroundImageFix" result="effect1_dropShadow_342_28803"/>
<feBlend mode="normal" in="SourceGraphic" in2="effect1_dropShadow_342_28803" result="shape"/>
</filter>
<filter id="filter4_d_342_28803" x="-120.401" y="38.5212" width="214.745" height="135.73" filterUnits="userSpaceOnUse" color-interpolation-filters="sRGB">
<feFlood flood-opacity="0" result="BackgroundImageFix"/>
<feColorMatrix in="SourceAlpha" type="matrix" values="0 0 0 0 0 0 0 0 0 0 0 0 0 0 0 0 0 0 127 0" result="hardAlpha"/>
<feOffset dy="4"/>
<feGaussianBlur stdDeviation="2"/>
<feComposite in2="hardAlpha" operator="out"/>
<feColorMatrix type="matrix" values="0 0 0 0 0 0 0 0 0 0 0 0 0 0 0 0 0 0 0.25 0"/>
<feBlend mode="normal" in2="BackgroundImageFix" result="effect1_dropShadow_342_28803"/>
<feBlend mode="normal" in="SourceGraphic" in2="effect1_dropShadow_342_28803" result="shape"/>
</filter>
<clipPath id="clip0_342_28803">
<rect width="500" height="500" fill="white"/>
</clipPath>
</defs>
</svg>
