<svg width="500" height="500" viewBox="0 0 500 500" fill="none" xmlns="http://www.w3.org/2000/svg">
<g clip-path="url(#clip0_342_29071)">
<mask id="mask0_342_29071" style="mask-type:luminance" maskUnits="userSpaceOnUse" x="0" y="0" width="500" height="500">
<path d="M487.5 0H12.5C5.59644 0 0 5.59644 0 12.5V487.5C0 494.404 5.59644 500 12.5 500H487.5C494.404 500 500 494.404 500 487.5V12.5C500 5.59644 494.404 0 487.5 0Z" fill="white"/>
</mask>
<g mask="url(#mask0_342_29071)">
<path d="M487.5 0H12.5C5.59644 0 0 5.59644 0 12.5V487.5C0 494.404 5.59644 500 12.5 500H487.5C494.404 500 500 494.404 500 487.5V12.5C500 5.59644 494.404 0 487.5 0Z" fill="#38824D"/>
<path d="M187.619 -39.0383L231.637 -34.2307V13.3655L184.167 3.26931L187.619 -39.0383Z" fill="#D4DF94"/>
<path d="M231.637 -34.2307L280.833 -27.9807L279.108 22.5L231.637 13.3655V-34.2307Z" fill="#D4DF94"/>
<path d="M153.609 -34.6973L216.47 -23.2L213.683 51.62L155.057 36.0111L153.609 -34.6973Z" fill="#C7B995"/>
<path d="M95.6484 -17.7967L153.609 -34.6975L155.057 36.0109L97.0959 52.9117L95.6484 -17.7967Z" fill="#838491"/>
<path d="M95.6484 -17.7966L158.477 -7.92481L155.722 68.5207L97.0959 52.9119L95.6484 -17.7966Z" fill="#717381"/>
<path d="M154.142 -8.68954L216.47 -23.2L213.682 51.62L155.722 68.5208L154.142 -8.68954Z" fill="#82838A"/>
<path d="M179.753 29.2341L198.054 26.5925L198.653 55.8512L179.338 61.7558L179.753 29.2341Z" fill="#726440"/>
<path d="M197.29 42.0465C197.299 42.4954 196.823 42.8646 196.228 42.8712C195.631 42.8778 195.14 42.5193 195.131 42.0704C195.122 41.6215 195.598 41.2524 196.194 41.2457C196.79 41.2391 197.281 41.5976 197.29 42.0465Z" fill="#98B44B"/>
<path d="M112.115 27.7673L111.688 6.91577L136.804 9.5089L136.229 32.2184L112.115 27.7673Z" fill="#70C8C2" stroke="#57585C"/>
<path d="M123.634 30.6688L124.248 7.90015" stroke="#57585C"/>
<path d="M111.777 19.0957L136.749 21.5318" stroke="#57585C"/>
<path d="M154.255 9.52877C154.252 9.3331 154.384 9.16227 154.574 9.11827L173.004 4.85776C173.263 4.79796 173.513 4.9931 173.518 5.25909L173.718 15.0344C173.722 15.2144 173.61 15.3753 173.44 15.4334L155.052 21.7215C154.784 21.813 154.502 21.6154 154.497 21.3318L154.255 9.52877Z" fill="#64656B"/>
<path d="M198.606 49.3309C198.602 49.1241 198.749 48.9469 198.954 48.9147L212.589 46.7659C212.84 46.7264 213.069 46.9188 213.074 47.1728L213.166 51.6531C213.17 51.8488 213.038 52.0196 212.847 52.0636L199.232 55.2111C198.974 55.2709 198.724 55.0758 198.718 54.8098L198.606 49.3309Z" fill="#64656B"/>
<path d="M173.254 -7.63723C173.249 -7.83294 173.382 -8.00378 173.573 -8.04778L192.003 -12.3082C192.261 -12.3681 192.511 -12.1729 192.517 -11.9069L192.717 -2.13161C192.72 -1.95165 192.608 -1.79076 192.439 -1.73268L174.05 4.55547C173.782 4.64699 173.501 4.44937 173.495 4.16577L173.254 -7.63723Z" fill="#64656B"/>
<path d="M197.999 19.6663C197.994 19.4594 198.143 19.2823 198.347 19.2501L211.982 17.1013C212.233 17.0618 212.463 17.2542 212.468 17.5083L212.559 21.9885C212.564 22.1843 212.43 22.3551 212.24 22.3991L198.625 25.5465C198.366 25.6063 198.116 25.4112 198.111 25.1452L197.999 19.6663Z" fill="#64656B"/>
<path d="M159.916 49.7598C159.912 49.5529 160.06 49.3758 160.264 49.3436L173.9 47.1949C174.15 47.1554 174.38 47.3477 174.385 47.6018L174.477 52.082C174.481 52.2778 174.348 52.4486 174.158 52.4926L160.543 55.64C160.284 55.6999 160.034 55.5047 160.029 55.2387L159.916 49.7598Z" fill="#64656B"/>
<path d="M154.733 32.8371C154.728 32.6414 154.861 32.4706 155.052 32.4265L163.851 30.3922C164.11 30.3324 164.36 30.5275 164.365 30.7935L164.457 35.2715C164.461 35.4515 164.348 35.6124 164.178 35.6705L155.398 38.673C155.131 38.7645 154.85 38.5669 154.844 38.2833L154.733 32.8371Z" fill="#64656B"/>
<path d="M203.181 36.539C203.178 36.3432 203.31 36.1724 203.5 36.1284L212.3 34.0941C212.559 34.0343 212.809 34.2294 212.815 34.4954L212.906 38.9734C212.91 39.1534 212.797 39.3142 212.627 39.3723L203.848 42.3749C203.58 42.4664 203.299 42.2687 203.293 41.9852L203.181 36.539Z" fill="#64656B"/>
<path d="M197.651 2.68962C197.647 2.49391 197.78 2.32307 197.97 2.27906L206.77 0.244728C207.028 0.184917 207.278 0.380052 207.284 0.646049L207.376 5.12406C207.379 5.30401 207.267 5.46491 207.097 5.52298L198.318 8.52549C198.05 8.61707 197.768 8.41941 197.763 8.13581L197.651 2.68962Z" fill="#64656B"/>
<path d="M140.466 44.8127C140.46 44.5539 140.69 44.3551 140.946 44.3969L152.244 46.2451C152.444 46.2779 152.593 46.4493 152.597 46.6516L152.689 51.1444C152.694 51.3888 152.488 51.583 152.244 51.5644L140.967 50.7027C140.751 50.6862 140.583 50.5079 140.578 50.2919L140.466 44.8127Z" fill="#57585C"/>
<path d="M136.738 30.5997C136.733 30.3409 136.963 30.1422 137.218 30.1841L148.517 32.0322C148.717 32.0649 148.866 32.2363 148.87 32.4387L148.962 36.9314C148.967 37.1758 148.761 37.3701 148.518 37.3514L137.239 36.4897C137.024 36.4732 136.855 36.2949 136.851 36.079L136.738 30.5997Z" fill="#57585C"/>
<path d="M106.417 35.6405C106.412 35.3858 106.634 35.1882 106.887 35.2233L130.308 38.4718C130.512 38.5002 130.667 38.6736 130.672 38.8799L130.841 47.1533C130.846 47.3956 130.643 47.5891 130.402 47.5736L107.016 46.0787C106.798 46.0648 106.627 45.8855 106.622 45.6676L106.417 35.6405Z" fill="#57585C"/>
<path d="M96.3111 14.5666C96.3061 14.3091 96.5336 14.1107 96.7886 14.1503L110.511 16.2813C110.713 16.3126 110.864 16.4847 110.868 16.6883L110.975 21.9368C110.98 22.1806 110.776 22.3746 110.533 22.357L96.8328 21.3672C96.6161 21.3516 96.447 21.173 96.442 20.9563L96.3111 14.5666Z" fill="#57585C"/>
<path d="M127.954 1.56703C127.949 1.31643 128.164 1.12011 128.414 1.14848L146.974 3.26066C147.183 3.28444 147.343 3.45991 147.347 3.66997L147.455 8.91291C147.46 9.15324 147.26 9.34591 147.02 9.33358L128.484 8.38008C128.264 8.36874 128.089 8.1886 128.085 7.96863L127.954 1.56703Z" fill="#57585C"/>
<path d="M139.557 0.406536C139.562 0.657141 139.786 0.848583 140.033 0.814698L148.85 -0.38976C149.058 -0.418166 149.211 -0.597097 149.207 -0.807156L149.162 -3.02305C149.157 -3.26336 148.95 -3.45158 148.71 -3.43391L139.883 -2.78271C139.663 -2.76653 139.496 -2.58258 139.5 -2.36261L139.557 0.406536Z" fill="#57585C"/>
<path d="M173.773 17.79C173.77 17.5943 173.903 17.4235 174.093 17.3794L192.523 13.119C192.782 13.0592 193.032 13.2543 193.037 13.5203L193.237 23.2957C193.241 23.4756 193.129 23.6365 192.959 23.6946L174.57 29.9828C174.303 30.0743 174.021 29.8766 174.015 29.593L173.773 17.79Z" fill="#64656B"/>
<path d="M62.4158 -15.5457L-34.5054 11.9439L-19.6272 142.99L70.0783 108.773L62.4158 -15.5457Z" fill="#C7B995"/>
<path d="M155.644 7.39574L62.4155 -15.5457L70.078 108.773L163.307 131.715L155.644 7.39574Z" fill="#C16725"/>
<path d="M155.644 7.39575L58.5469 32.0274L73.6013 165.932L163.307 131.715L155.644 7.39575Z" fill="#EE7A26"/>
<path d="M65.2341 30.1808L-34.5054 11.9438L-19.6272 142.99L73.6013 165.932L65.2341 30.1808Z" fill="#C16725"/>
<path d="M65.8239 -43.009L14.8124 -15.4804L-34.5054 11.9439L65.2342 30.1809L155.644 7.39576L109.03 -4.07496L65.8239 -43.009Z" fill="#455F56"/>
<path d="M65.8235 -43.009L65.2339 30.1809L155.644 7.39576L65.8235 -43.009Z" fill="#4F7165"/>
<path d="M30.4153 99.7435L1.35596 97.231L4.52666 148.673L35.6321 156.797L30.4153 99.7435Z" fill="#726440"/>
<path d="M4.72401 124.277C4.77265 125.066 5.57043 125.658 6.50592 125.601C7.44139 125.543 8.16031 124.857 8.11167 124.068C8.06303 123.278 7.26524 122.686 6.32977 122.743C5.39428 122.801 4.67537 123.488 4.72401 124.277Z" fill="#DF7E24"/>
<path d="M136.487 89.5641L134.189 52.2866L94.6992 59.85L98.8567 100.311L136.487 89.5641Z" fill="#70C8C2" stroke="#455F56"/>
<path d="M118.583 95.7433L114.423 55.8367" stroke="#455F56"/>
<path d="M135.544 74.0452L96.7417 81.2235" stroke="#455F56"/>
<path d="M121.61 -4.57443L138.75 216.047L279.321 203.333L269.182 59.3559V-9.36975L523.401 -56.6667V177.029L279.321 203.333L-79.9998 235.833L-109.479 49.1242L121.61 -4.57443Z" fill="#AE6161"/>
<g filter="url(#filter0_d_342_29071)">
<path d="M414.009 129.833C413.988 130.018 413.862 130.136 413.698 130.125L394.926 128.902C394.677 128.885 394.454 128.586 394.481 128.303L395.923 113.072C395.938 112.908 396.037 112.791 396.176 112.773L415.601 110.284C415.867 110.25 416.138 110.576 416.103 110.888L414.009 129.833Z" fill="#6A3535"/>
<path d="M372.895 161.698C372.879 161.874 372.767 161.993 372.614 161.998L357.479 162.5C357.225 162.508 356.98 162.205 357.003 161.909L358.127 147.278C358.139 147.125 358.222 147.011 358.345 146.978L374.129 142.798C374.397 142.728 374.699 143.059 374.667 143.389L372.895 161.698Z" fill="#6A3535"/>
<path d="M377.705 112.606C377.703 112.77 377.621 112.898 377.493 112.935L363.255 117.141C362.986 117.22 362.677 116.888 362.709 116.553L364.133 101.506C364.148 101.353 364.235 101.239 364.362 101.212L377.334 98.3585C377.586 98.3026 377.867 98.5951 377.863 98.911L377.705 112.606Z" fill="#6A3535"/>
<path d="M354 121.186C353.999 121.35 353.916 121.477 353.788 121.515L339.55 125.721C339.281 125.8 338.972 125.467 339.004 125.132L340.429 110.086C340.443 109.932 340.53 109.819 340.657 109.792L353.629 106.938C353.882 106.882 354.162 107.175 354.159 107.491L354 121.186Z" fill="#6A3535"/>
<path d="M364.525 136.216C364.524 136.38 364.442 136.507 364.314 136.546L350.075 140.751C349.807 140.83 349.498 140.497 349.53 140.163L350.954 125.117C350.969 124.962 351.056 124.85 351.183 124.822L364.155 121.968C364.407 121.912 364.688 122.205 364.684 122.521L364.525 136.216Z" fill="#6A3535"/>
<path d="M476.968 129.373C476.965 129.546 476.875 129.677 476.738 129.708L463.834 132.618C463.566 132.678 463.274 132.351 463.304 132.026L464.731 116.954C464.747 116.79 464.844 116.674 464.983 116.656L476.619 115.092C476.869 115.058 477.129 115.345 477.126 115.648L476.968 129.373Z" fill="#6A3535"/>
<path d="M431.564 100.022C431.554 100.195 431.454 100.32 431.309 100.338L412.981 102.691C412.724 102.723 412.46 102.421 412.477 102.113L413.508 83.2304C413.517 83.069 413.604 82.9484 413.735 82.918L432.197 78.6153C432.458 78.5545 432.747 78.8663 432.729 79.1889L431.564 100.022Z" fill="#6A3535"/>
<path d="M450.155 91.7326C450.153 91.8967 450.071 92.0242 449.943 92.0617L435.705 96.2676C435.436 96.3467 435.127 96.0142 435.158 95.6801L436.584 80.6326C436.598 80.4788 436.685 80.3662 436.812 80.3383L449.783 77.4846C450.037 77.429 450.317 77.7215 450.313 78.0373L450.155 91.7326Z" fill="#6A3535"/>
<path d="M407.5 105.631C407.495 105.799 407.405 105.926 407.27 105.956L387.515 110.312C387.248 110.371 386.956 110.043 386.987 109.719L388.418 94.6043C388.431 94.4618 388.507 94.3543 388.62 94.3168L407.45 88.1476C407.708 88.0626 408.015 88.3693 408.005 88.7018L407.5 105.631Z" fill="#6A3535"/>
<path d="M390.763 129.587C390.749 129.746 390.657 129.862 390.526 129.887L370.869 133.616C370.603 133.666 370.319 133.342 370.349 133.022L371.778 117.93C371.793 117.765 371.892 117.649 372.031 117.631L391.472 115.14C391.734 115.107 392.002 115.423 391.975 115.733L390.763 129.587Z" fill="#6A3535"/>
<path d="M346.172 143.232C346.157 143.393 346.062 143.509 345.927 143.531L326.381 146.644C326.116 146.687 325.839 146.364 325.869 146.048L327.299 130.939C327.315 130.774 327.413 130.658 327.552 130.64L346.991 128.149C347.253 128.116 347.522 128.433 347.494 128.744L346.172 143.232Z" fill="#6A3535"/>
<path d="M343.158 190.146C343.138 190.325 343.018 190.443 342.859 190.439L321.325 189.916C321.072 189.91 320.84 189.606 320.867 189.318L322.308 174.103C322.323 173.94 322.419 173.824 322.556 173.805L344.745 170.597C345.013 170.558 345.287 170.885 345.252 171.2L343.158 190.146Z" fill="#6A3535"/>
<path d="M327.378 166.153C327.376 166.326 327.286 166.457 327.148 166.488L310.368 170.195C310.101 170.253 309.81 169.927 309.841 169.603L311.268 154.524C311.283 154.363 311.379 154.247 311.515 154.226L327.026 151.882C327.276 151.844 327.541 152.132 327.537 152.438L327.378 166.153Z" fill="#6A3535"/>
<path d="M333.142 124.147C333.145 124.327 333.055 124.465 332.911 124.497L316.141 128.202C315.874 128.261 315.583 127.933 315.613 127.609L316.66 116.543C316.676 116.382 316.772 116.267 316.908 116.246L332.438 113.898C332.683 113.862 332.944 114.137 332.95 114.438L333.142 124.147Z" fill="#6A3535"/>
<path d="M337.472 165.068C337.467 165.319 337.278 165.463 337.059 165.382L329.747 162.666C329.544 162.59 329.39 162.347 329.399 162.115L329.751 153.274C329.76 153.061 329.903 152.924 330.088 152.95L337.262 153.972C337.491 154.004 337.69 154.268 337.684 154.532L337.472 165.068Z" fill="#6A3535"/>
<path d="M319.909 144.91C319.906 145.091 319.804 145.224 319.656 145.244L302.164 147.596C301.91 147.63 301.645 147.332 301.658 147.026L302.004 138.309C302.011 138.145 302.098 138.022 302.23 137.99L319.587 133.842C319.842 133.782 320.128 134.079 320.121 134.398L319.909 144.91Z" fill="#6A3535"/>
<path d="M314.197 187.424C314.194 187.605 314.093 187.738 313.944 187.758L296.452 190.11C296.198 190.144 295.934 189.847 295.945 189.54L296.292 180.823C296.299 180.659 296.386 180.536 296.518 180.504L313.874 176.357C314.129 176.296 314.415 176.593 314.409 176.912L314.197 187.424Z" fill="#6A3535"/>
<path d="M306.142 168.224C306.138 168.405 306.037 168.538 305.888 168.558L288.397 170.91C288.142 170.945 287.878 170.647 287.891 170.34L288.237 161.623C288.244 161.46 288.331 161.336 288.463 161.304L305.82 157.157C306.075 157.096 306.361 157.393 306.354 157.712L306.142 168.224Z" fill="#6A3535"/>
<path d="M297.777 149.538C297.774 149.718 297.672 149.852 297.524 149.872L280.032 152.224C279.778 152.258 279.514 151.96 279.525 151.653L279.872 142.938C279.879 142.773 279.966 142.649 280.098 142.618L297.454 138.47C297.709 138.409 297.995 138.707 297.989 139.026L297.777 149.538Z" fill="#6A3535"/>
<path d="M307.694 129.785C307.689 129.967 307.589 130.099 307.439 130.119L289.949 132.472C289.694 132.506 289.429 132.208 289.442 131.901L289.789 123.185C289.795 123.021 289.882 122.897 290.014 122.866L307.371 118.718C307.626 118.657 307.912 118.954 307.905 119.274L307.694 129.785Z" fill="#6A3535"/>
<path d="M294.254 112.317C294.25 112.498 294.15 112.631 294 112.651L276.509 115.003C276.255 115.037 275.99 114.739 276.003 114.433L276.349 105.716C276.355 105.552 276.443 105.428 276.575 105.397L293.931 101.249C294.186 101.188 294.472 101.486 294.466 101.805L294.254 112.317Z" fill="#6A3535"/>
<path d="M321.451 108.137C321.447 108.318 321.346 108.451 321.197 108.471L303.706 110.823C303.451 110.857 303.187 110.559 303.2 110.252L303.546 101.537C303.553 101.372 303.64 101.248 303.772 101.217L321.129 97.07C321.384 97.0092 321.67 97.3058 321.663 97.6258L321.451 108.137Z" fill="#6A3535"/>
<path d="M350.24 101.795C350.244 101.975 350.152 102.114 350.01 102.146L333.24 105.851C332.972 105.91 332.68 105.583 332.711 105.258L333.759 94.1926C333.775 94.0309 333.87 93.9151 334.006 93.8943L349.536 91.5476C349.781 91.5101 350.042 91.7859 350.048 92.0876L350.24 101.795Z" fill="#6A3535"/>
<path d="M371.26 94.9434C371.258 95.1076 371.176 95.2351 371.048 95.2726L356.81 99.4784C356.541 99.5576 356.232 99.2251 356.263 98.8901L357.688 83.8434C357.703 83.6901 357.79 83.5767 357.917 83.5492L370.888 80.6956C371.142 80.6399 371.422 80.9325 371.418 81.2482L371.26 94.9434Z" fill="#6A3535"/>
<path d="M390.34 88.1825C390.37 88.3883 390.279 88.56 390.12 88.5983L377.47 91.67C377.218 91.7308 376.933 91.44 376.935 91.1217L376.993 80.2786C376.994 80.0759 377.116 79.9336 377.288 79.9346L388.755 80.0052C388.967 80.0064 389.177 80.2239 389.215 80.4815L390.34 88.1825Z" fill="#6A3535"/>
<path d="M362.984 184.468C362.981 184.641 362.891 184.772 362.754 184.803L349.85 187.713C349.582 187.773 349.29 187.446 349.321 187.121L350.747 172.049C350.763 171.885 350.861 171.769 350.999 171.751L362.636 170.187C362.885 170.153 363.146 170.44 363.142 170.743L362.984 184.468Z" fill="#6A3535"/>
<path d="M381.31 185.388C381.296 185.569 381.184 185.693 381.028 185.698L365.9 186.2C365.645 186.208 365.4 185.905 365.423 185.609L366.541 171.049C366.556 170.861 366.679 170.735 366.844 170.741L381.863 171.257C382.111 171.266 382.34 171.561 382.319 171.847L381.31 185.388Z" fill="#6A3535"/>
<path d="M409.044 156.216C409.03 156.388 408.927 156.511 408.78 156.525L380.025 159.337C379.767 159.362 379.507 159.052 379.53 158.747L380.648 144.197C380.662 144.02 380.77 143.897 380.921 143.887L409.564 142.118C409.821 142.102 410.072 142.407 410.049 142.707L409.044 156.216Z" fill="#6A3535"/>
<path d="M419.968 180.927C419.955 181.1 419.851 181.222 419.705 181.237L390.95 184.048C390.691 184.073 390.431 183.764 390.455 183.458L391.572 168.908C391.586 168.732 391.695 168.608 391.845 168.599L420.489 166.83C420.745 166.814 420.996 167.119 420.974 167.419L419.968 180.927Z" fill="#6A3535"/>
<path d="M445.864 153.073C445.851 153.246 445.747 153.367 445.601 153.382L416.846 156.193C416.587 156.219 416.328 155.909 416.351 155.604L417.469 141.053C417.482 140.877 417.59 140.754 417.742 140.745L446.385 138.975C446.641 138.959 446.892 139.264 446.87 139.564L445.864 153.073Z" fill="#6A3535"/>
<path d="M449.879 126.334C449.865 126.507 449.762 126.628 449.615 126.643L420.861 129.454C420.602 129.48 420.342 129.17 420.365 128.865L421.484 114.314C421.497 114.138 421.605 114.015 421.756 114.006L450.399 112.236C450.656 112.22 450.907 112.525 450.884 112.825L449.879 126.334Z" fill="#6A3535"/>
<path d="M459.75 179.095C459.738 179.268 459.634 179.39 459.488 179.404L430.733 182.216C430.474 182.241 430.214 181.932 430.238 181.626L431.355 167.076C431.369 166.899 431.478 166.776 431.629 166.767L460.272 164.998C460.528 164.982 460.779 165.287 460.757 165.587L459.75 179.095Z" fill="#6A3535"/>
<path d="M466.445 154.424C466.443 154.597 466.353 154.728 466.215 154.758L453.311 157.668C453.044 157.729 452.751 157.402 452.782 157.077L454.209 142.005C454.225 141.841 454.322 141.725 454.46 141.707L466.097 140.143C466.346 140.109 466.607 140.396 466.604 140.699L466.445 154.424Z" fill="#6A3535"/>
<path d="M466.954 109.584C466.952 109.791 466.824 109.933 466.647 109.925L455.838 109.42C455.613 109.409 455.4 109.163 455.385 108.894L454.761 97.3042C454.75 97.1059 454.854 96.9542 455.014 96.9326L466.606 95.3742C466.855 95.3409 467.116 95.6276 467.113 95.9309L466.954 109.584Z" fill="#6A3535"/>
<path d="M468.025 98.3468C468.022 98.5193 467.933 98.6501 467.795 98.681L454.89 101.592C454.623 101.652 454.33 101.324 454.361 100.999L455.788 85.9276C455.804 85.7643 455.901 85.6485 456.039 85.6293L467.676 84.0651C467.926 84.0318 468.187 84.3185 468.183 84.6218L468.025 98.3468Z" fill="#6A3535"/>
<path d="M481.836 177.157C481.834 177.329 481.744 177.46 481.607 177.491L468.703 180.402C468.435 180.462 468.143 180.134 468.174 179.809L469.6 164.737C469.615 164.574 469.714 164.457 469.852 164.439L481.489 162.875C481.738 162.842 481.999 163.128 481.995 163.432L481.836 177.157Z" fill="#6A3535"/>
</g>
<g filter="url(#filter1_d_342_29071)">
<path d="M409.009 23.999C408.988 24.184 408.862 24.3027 408.698 24.2921L389.926 23.0685C389.677 23.0522 389.454 22.753 389.481 22.47L390.923 7.23874C390.938 7.07428 391.037 6.95794 391.176 6.94012L410.601 4.45095C410.867 4.41685 411.138 4.74244 411.103 5.055L409.009 23.999Z" fill="#6A3535"/>
<path d="M367.895 55.865C367.879 56.0406 367.767 56.1599 367.614 56.1649L352.479 56.6664C352.225 56.6749 351.98 56.3718 352.003 56.0758L353.127 41.4445C353.139 41.2916 353.222 41.1773 353.345 41.1446L369.129 36.9655C369.397 36.8944 369.699 37.2258 369.667 37.5563L367.895 55.865Z" fill="#6A3535"/>
<path d="M372.705 6.77249C372.703 6.93675 372.621 7.06406 372.493 7.10198L358.255 11.3073C357.986 11.3866 357.677 11.054 357.709 10.7195L359.133 -4.32729C359.148 -4.48116 359.235 -4.59377 359.362 -4.62165L372.334 -7.47533C372.586 -7.53097 372.867 -7.23842 372.863 -6.92272L372.705 6.77249Z" fill="#6A3535"/>
<path d="M349 15.3526C348.999 15.5169 348.916 15.6441 348.788 15.682L334.55 19.8874C334.281 19.9667 333.972 19.6341 334.004 19.2996L335.429 4.25284C335.443 4.09897 335.53 3.98635 335.657 3.95847L348.629 1.10475C348.882 1.0491 349.162 1.34165 349.159 1.65736L349 15.3526Z" fill="#6A3535"/>
<path d="M359.525 30.3829C359.524 30.5471 359.442 30.6744 359.314 30.7124L345.075 34.9176C344.807 34.997 344.498 34.6644 344.53 34.3299L345.954 19.2831C345.969 19.1292 346.056 19.0166 346.183 18.9887L359.155 16.135C359.407 16.0794 359.688 16.3719 359.684 16.6877L359.525 30.3829Z" fill="#6A3535"/>
<path d="M471.968 23.5403C471.965 23.7124 471.875 23.8432 471.738 23.8742L458.834 26.7848C458.566 26.845 458.274 26.5175 458.304 26.1925L459.731 11.121C459.747 10.9572 459.844 10.8411 459.983 10.8225L471.619 9.25853C471.869 9.22503 472.129 9.51153 472.126 9.8152L471.968 23.5403Z" fill="#6A3535"/>
<path d="M402.5 -0.202666C402.495 -0.0341548 402.405 0.0926182 402.27 0.122534L382.515 4.47839C382.248 4.53728 381.956 4.21019 381.987 3.88588L383.418 -11.2289C383.431 -11.3712 383.507 -11.4791 383.62 -11.5161L402.45 -17.686C402.708 -17.7706 403.015 -17.4639 403.005 -17.1314L402.5 -0.202666Z" fill="#6A3535"/>
<path d="M385.763 23.7538C385.749 23.9127 385.657 24.0282 385.526 24.0532L365.869 27.7825C365.603 27.8329 365.319 27.5083 365.349 27.1883L366.778 12.0965C366.793 11.9321 366.892 11.8157 367.031 11.7979L386.472 9.30666C386.734 9.27307 387.002 9.58949 386.975 9.90016L385.763 23.7538Z" fill="#6A3535"/>
<path d="M341.172 37.3987C341.157 37.5603 341.062 37.6761 340.927 37.6977L321.381 40.811C321.116 40.8532 320.839 40.5312 320.869 40.2154L322.299 25.1056C322.315 24.9412 322.413 24.8249 322.552 24.807L341.991 22.3162C342.253 22.2824 342.522 22.6004 342.494 22.9114L341.172 37.3987Z" fill="#6A3535"/>
<path d="M338.158 84.3125C338.138 84.4917 338.018 84.61 337.859 84.6059L316.325 84.0825C316.072 84.0767 315.84 83.7725 315.867 83.4842L317.308 68.2694C317.323 68.1069 317.419 67.9912 317.556 67.9714L339.745 64.7634C340.013 64.7248 340.287 65.0519 340.252 65.3668L338.158 84.3125Z" fill="#6A3535"/>
<path d="M322.378 60.3199C322.376 60.4926 322.286 60.6236 322.148 60.6541L305.368 64.3613C305.101 64.4204 304.81 64.0932 304.841 63.7689L306.268 48.6907C306.283 48.5289 306.379 48.4134 306.515 48.3929L322.026 46.0485C322.276 46.0107 322.541 46.2985 322.537 46.6045L322.378 60.3199Z" fill="#6A3535"/>
<path d="M328.142 18.3135C328.145 18.4934 328.055 18.632 327.911 18.6636L311.141 22.3687C310.874 22.4277 310.583 22.1006 310.613 21.7762L311.66 10.7104C311.676 10.5486 311.772 10.4332 311.908 10.4126L327.438 8.06536C327.683 8.02837 327.944 8.30361 327.95 8.60548L328.142 18.3135Z" fill="#6A3535"/>
<path d="M332.472 59.2349C332.467 59.4862 332.278 59.6301 332.059 59.5489L324.747 56.8322C324.544 56.7568 324.39 56.5139 324.399 56.2816L324.751 47.4408C324.76 47.2278 324.903 47.0906 325.088 47.117L332.262 48.1383C332.491 48.1709 332.69 48.4347 332.684 48.6985L332.472 59.2349Z" fill="#6A3535"/>
<path d="M314.909 39.0767C314.906 39.2577 314.804 39.3907 314.656 39.4107L297.164 41.7629C296.91 41.797 296.645 41.4993 296.658 41.1923L297.004 32.4762C297.011 32.3121 297.098 32.1885 297.23 32.157L314.587 28.0095C314.842 27.9485 315.128 28.2459 315.121 28.5652L314.909 39.0767Z" fill="#6A3535"/>
<path d="M309.197 81.5909C309.194 81.7719 309.093 81.9049 308.944 81.9249L291.452 84.2767C291.198 84.3109 290.934 84.0134 290.945 83.7067L291.292 74.9904C291.299 74.8262 291.386 74.7026 291.518 74.6711L308.874 70.5236C309.129 70.4627 309.415 70.76 309.409 71.0794L309.197 81.5909Z" fill="#6A3535"/>
<path d="M301.142 62.3909C301.138 62.5719 301.037 62.7049 300.888 62.725L283.397 65.0772C283.142 65.1113 282.878 64.8136 282.891 64.5066L283.237 55.7905C283.244 55.6263 283.331 55.5027 283.463 55.4712L300.82 51.3237C301.075 51.2627 301.361 51.5601 301.354 51.8795L301.142 62.3909Z" fill="#6A3535"/>
<path d="M292.777 43.7044C292.774 43.8854 292.672 44.0184 292.524 44.0384L275.032 46.3906C274.778 46.4248 274.514 46.127 274.525 45.82L274.872 37.104C274.879 36.9398 274.966 36.8161 275.098 36.7847L292.454 32.6371C292.709 32.5762 292.995 32.8736 292.989 33.1929L292.777 43.7044Z" fill="#6A3535"/>
<path d="M302.694 23.9519C302.689 24.1329 302.589 24.2659 302.439 24.286L284.949 26.6382C284.694 26.6724 284.429 26.3746 284.442 26.0676L284.789 17.3515C284.795 17.1874 284.882 17.0638 285.014 17.0323L302.371 12.8847C302.626 12.8238 302.912 13.1211 302.905 13.4405L302.694 23.9519Z" fill="#6A3535"/>
<path d="M289.254 6.48346C289.25 6.66447 289.15 6.79745 289 6.8175L271.509 9.16963C271.255 9.20388 270.99 8.90605 271.003 8.59905L271.349 -0.116985C271.355 -0.281115 271.443 -0.404745 271.575 -0.436245L288.931 -4.58381C289.186 -4.64473 289.472 -4.34739 289.466 -4.02801L289.254 6.48346Z" fill="#6A3535"/>
<path d="M316.451 2.30379C316.447 2.48481 316.346 2.61778 316.197 2.63782L298.706 4.98997C298.451 5.02418 298.187 4.72639 298.2 4.4194L298.546 -4.29669C298.553 -4.46081 298.64 -4.58444 298.772 -4.61594L316.129 -8.7635C316.384 -8.82441 316.67 -8.52708 316.663 -8.20766L316.451 2.30379Z" fill="#6A3535"/>
<path d="M345.24 -4.03788C345.244 -3.85797 345.152 -3.71935 345.01 -3.68778L328.24 0.0173877C327.972 0.0764049 327.68 -0.250718 327.711 -0.57509L328.759 -11.6409C328.775 -11.8026 328.87 -11.9181 329.006 -11.9386L344.536 -14.286C344.781 -14.323 345.042 -14.0477 345.048 -13.7459L345.24 -4.03788Z" fill="#6A3535"/>
<path d="M357.984 78.6353C357.981 78.8074 357.891 78.9382 357.754 78.9693L344.85 81.8798C344.582 81.94 344.29 81.6125 344.321 81.2875L345.747 66.2159C345.763 66.0523 345.861 65.9362 345.999 65.9175L357.636 64.3535C357.885 64.32 358.146 64.6065 358.142 64.9102L357.984 78.6353Z" fill="#6A3535"/>
<path d="M376.31 79.5553C376.296 79.7362 376.184 79.8603 376.028 79.8655L360.9 80.3669C360.645 80.3753 360.4 80.0722 360.423 79.7762L361.541 65.2165C361.556 65.0274 361.679 64.9017 361.844 64.9074L376.863 65.4238C377.111 65.4323 377.34 65.7276 377.319 66.0134L376.31 79.5553Z" fill="#6A3535"/>
<path d="M404.044 50.3825C404.03 50.5554 403.927 50.6773 403.78 50.6915L375.025 53.503C374.767 53.5284 374.507 53.219 374.53 52.9136L375.648 38.3632C375.662 38.1864 375.77 38.0638 375.921 38.0544L404.564 36.2848C404.821 36.2689 405.072 36.5739 405.049 36.874L404.044 50.3825Z" fill="#6A3535"/>
<path d="M414.968 75.0942C414.955 75.267 414.851 75.3889 414.705 75.4032L385.95 78.2147C385.691 78.24 385.431 77.9307 385.455 77.6253L386.572 63.0749C386.586 62.8981 386.695 62.7754 386.845 62.7661L415.489 60.9964C415.745 60.9806 415.996 61.2857 415.974 61.5856L414.968 75.0942Z" fill="#6A3535"/>
<path d="M440.864 47.2399C440.851 47.4128 440.747 47.5346 440.601 47.5489L411.846 50.3604C411.587 50.3858 411.328 50.0764 411.351 49.7709L412.469 35.2205C412.482 35.0439 412.59 34.9212 412.742 34.9119L441.385 33.1422C441.641 33.1264 441.892 33.4314 441.87 33.7314L440.864 47.2399Z" fill="#6A3535"/>
<path d="M444.879 20.5005C444.865 20.6732 444.762 20.7952 444.615 20.8094L415.861 23.621C415.602 23.6463 415.342 23.3369 415.365 23.0315L416.484 8.48108C416.497 8.30436 416.605 8.18167 416.756 8.17235L445.399 6.40269C445.656 6.38686 445.907 6.69191 445.884 6.9919L444.879 20.5005Z" fill="#6A3535"/>
<path d="M454.75 73.2617C454.738 73.4344 454.634 73.5563 454.488 73.5707L425.733 76.3822C425.474 76.4075 425.214 76.0981 425.238 75.7927L426.355 61.2423C426.369 61.0656 426.478 60.9428 426.629 60.9336L455.272 59.1639C455.528 59.1481 455.779 59.4531 455.757 59.7531L454.75 73.2617Z" fill="#6A3535"/>
<path d="M461.445 48.5911C461.443 48.7631 461.353 48.894 461.215 48.925L448.311 51.8356C448.044 51.8958 447.751 51.5683 447.782 51.2433L449.209 36.1717C449.225 36.0081 449.322 35.892 449.46 35.8733L461.097 34.3093C461.346 34.2758 461.607 34.5623 461.604 34.866L461.445 48.5911Z" fill="#6A3535"/>
<path d="M461.954 3.75114C461.952 3.95783 461.824 4.09997 461.647 4.09171L450.838 3.58649C450.613 3.57595 450.4 3.329 450.385 3.06111L449.761 -8.52891C449.75 -8.72732 449.854 -8.87924 450.014 -8.90074L461.606 -10.4587C461.855 -10.4923 462.116 -10.2057 462.113 -9.90207L461.954 3.75114Z" fill="#6A3535"/>
<path d="M476.836 71.3239C476.834 71.4961 476.744 71.6268 476.607 71.6579L463.703 74.5684C463.435 74.6287 463.143 74.3012 463.174 73.9762L464.6 58.9047C464.615 58.7409 464.714 58.6248 464.852 58.6062L476.489 57.0422C476.738 57.0087 476.999 57.2952 476.995 57.5988L476.836 71.3239Z" fill="#6A3535"/>
</g>
<g filter="url(#filter2_d_342_29071)">
<path d="M70.049 64.5073C70.0282 64.666 69.9286 64.7756 69.7917 64.7905L57.2286 66.1501C56.9621 66.179 56.6954 65.8518 56.7325 65.5415L58.445 51.1913C58.4608 51.0583 58.5321 50.9571 58.6373 50.9185L71.8169 46.072C72.0921 45.9709 72.4231 46.324 72.3779 46.6705L70.049 64.5073Z" fill="#B53C3C"/>
<path d="M40.28 99.8658C40.2625 100.012 40.1784 100.118 40.0579 100.147L29.9111 102.593C29.6415 102.658 29.3438 102.324 29.3788 101.997L30.8417 88.2824C30.8545 88.1633 30.9115 88.0683 30.999 88.0199L41.755 82.1371C42.0262 81.9888 42.3968 82.3473 42.3524 82.7149L40.28 99.8658Z" fill="#B53C3C"/>
<path d="M45.9476 53.311C45.9401 53.4367 45.8846 53.539 45.7955 53.5912L36.0981 59.2799C35.8282 59.4382 35.4494 59.0788 35.4938 58.7067L37.1697 44.6632C37.1842 44.5416 37.2453 44.4459 37.3371 44.401L46.1154 40.1122C46.3781 39.9838 46.7257 40.3115 46.7044 40.6674L45.9476 53.311Z" fill="#B53C3C"/>
<path d="M29.2553 64.535C29.2478 64.6605 29.1922 64.7629 29.1031 64.8151L19.4057 70.5039C19.1358 70.6621 18.757 70.3027 18.8014 69.9305L20.4773 55.8872C20.4918 55.7654 20.5529 55.6699 20.6448 55.625L29.423 51.336C29.6857 51.2077 30.0333 51.5354 30.012 51.8913L29.2553 64.535Z" fill="#B53C3C"/>
<path d="M35.7602 77.1726C35.7526 77.2982 35.6971 77.4006 35.6081 77.4529L25.9106 83.1415C25.6408 83.2998 25.2619 82.9404 25.3063 82.5682L26.9822 68.5249C26.9967 68.4031 27.0578 68.3075 27.1497 68.2626L35.928 63.9737C36.1906 63.8454 36.5382 64.1731 36.517 64.529L35.7602 77.1726Z" fill="#B53C3C"/>
<path d="M113.311 55.5985C113.303 55.732 113.241 55.8388 113.143 55.8875L104.42 60.2125C104.148 60.3474 103.789 59.992 103.832 59.6305L105.514 45.5365C105.53 45.4042 105.601 45.3035 105.705 45.2642L113.506 42.331C113.769 42.2318 114.092 42.5543 114.071 42.8962L113.311 55.5985Z" fill="#B53C3C"/>
<path d="M83.5414 34.2679C83.5289 34.4067 83.4564 34.5133 83.348 34.5533L70.9181 39.127C70.6494 39.2258 70.3239 38.8902 70.3551 38.5465L71.958 20.9022C71.9694 20.7761 72.03 20.6758 72.1235 20.6286L84.7347 14.2516C85.0022 14.1163 85.3597 14.4595 85.3264 14.8202L83.5414 34.2679Z" fill="#B53C3C"/>
<path d="M96.7085 24.0104C96.701 24.136 96.646 24.2383 96.5568 24.2905L86.8593 29.9794C86.5893 30.1376 86.2101 29.7782 86.2551 29.4061L87.931 15.3625C87.9451 15.2408 88.006 15.1451 88.0985 15.1003L96.8768 10.8114C97.1393 10.683 97.4868 11.0108 97.4651 11.3667L96.7085 24.0104Z" fill="#B53C3C"/>
<path d="M66.7453 42.7643C66.7357 42.8956 66.6733 43.0001 66.576 43.0478L53.0795 49.6508C52.8072 49.7839 52.4497 49.4288 52.4928 49.068L54.1799 34.9308C54.1931 34.8208 54.2443 34.7315 54.3227 34.6823L67.277 26.5425C67.5383 26.3783 67.9175 26.7171 67.8902 27.0903L66.7453 42.7643Z" fill="#B53C3C"/>
<path d="M54.0961 67.4239C54.0817 67.5503 54.0172 67.6487 53.9206 67.6922L40.5222 73.7069C40.2494 73.8294 39.901 73.4764 39.9435 73.1205L41.6294 58.9934C41.6452 58.8604 41.7166 58.7592 41.8217 58.7206L55.0156 53.8689C55.2882 53.7687 55.617 54.1146 55.5775 54.46L54.0961 67.4239Z" fill="#B53C3C"/>
<path d="M22.8158 86.2032C22.8006 86.3324 22.733 86.4324 22.6321 86.4732L9.33771 91.9091C9.06446 92.0207 8.72529 91.6699 8.76721 91.3191L10.4565 77.1636C10.4724 77.0306 10.5437 76.9293 10.6489 76.8906L23.8405 72.0398C24.1134 71.9394 24.4426 72.2866 24.4022 72.6321L22.8158 86.2032Z" fill="#B53C3C"/>
<path d="M18.4878 130.483C18.4679 130.635 18.3753 130.743 18.2459 130.763L3.75376 133.137C3.4846 133.18 3.20427 132.848 3.24224 132.53L4.95125 118.209C4.96687 118.078 5.03624 117.978 5.13889 117.938L20.2506 112.053C20.5257 111.945 20.8619 112.3 20.8163 112.649L18.4878 130.483Z" fill="#B53C3C"/>
<path d="M8.808 110.187C8.79992 110.321 8.73717 110.428 8.63825 110.477L-2.78417 116.072C-3.0564 116.205 -3.41402 115.849 -3.37096 115.488L-1.68805 101.387C-1.67252 101.257 -1.60393 101.157 -1.50225 101.116L8.99667 96.9359C9.26025 96.8309 9.588 97.155 9.56734 97.4992L8.808 110.187Z" fill="#B53C3C"/>
<path d="M14.7893 70.1226C14.7841 70.2616 14.7208 70.3734 14.619 70.4233L3.20166 76.0157C2.92945 76.149 2.57181 75.7939 2.61488 75.433L3.84384 65.1349C3.85935 65.0048 3.92795 64.905 4.02961 64.8645L14.5472 60.677C14.8069 60.5736 15.1311 60.8871 15.1184 61.2295L14.7893 70.1226Z" fill="#B53C3C"/>
<path d="M15.7942 107.777C15.779 108.008 15.6045 108.14 15.3998 108.075L10.7622 106.602C10.5448 106.533 10.379 106.27 10.3985 106.025L11.0642 97.7267C11.0789 97.5426 11.1959 97.4192 11.3548 97.4184L15.9733 97.4067C16.2238 97.4059 16.46 97.7017 16.4407 97.9926L15.7942 107.777Z" fill="#B53C3C"/>
<path d="M4.70093 91.3242C4.69144 91.4684 4.61906 91.5792 4.50812 91.6209L-7.3501 96.0809C-7.61705 96.1817 -7.94293 95.85 -7.91535 95.5067L-7.27041 87.465C-7.26018 87.3375 -7.19981 87.235 -7.10585 87.1867L4.74611 81.1029C5.00935 80.9677 5.36336 81.2993 5.3396 81.6588L4.70093 91.3242Z" fill="#B53C3C"/>
<path d="M7.52956 56.7222C7.52007 56.8658 7.44769 56.9772 7.33674 57.0189L-4.52148 61.4789C-4.78843 61.5792 -5.11431 61.2478 -5.08674 60.904L-4.44181 52.8625C-4.43157 52.7349 -4.3712 52.633 -4.27723 52.5847L7.57473 46.5006C7.83798 46.3654 8.19197 46.697 8.16823 47.0565L7.52956 56.7222Z" fill="#B53C3C"/>
<path d="M27.6072 46.9099C27.602 47.0489 27.5387 47.1607 27.4369 47.2106L16.0196 52.803C15.7473 52.9363 15.3897 52.5812 15.4327 52.2203L16.6617 41.9221C16.6772 41.7921 16.7458 41.6922 16.8475 41.6518L27.3651 37.4644C27.6248 37.361 27.949 37.6744 27.9363 38.0167L27.6072 46.9099Z" fill="#B53C3C"/>
<path d="M42.372 37.6607C42.3645 37.7863 42.3089 37.8887 42.2198 37.9409L32.5224 43.6296C32.2525 43.7878 31.8737 43.4284 31.9181 43.0563L33.594 29.0129C33.6085 28.8913 33.6696 28.7956 33.7615 28.7507L42.5397 24.4618C42.8024 24.3334 43.15 24.6612 43.1287 25.0171L42.372 37.6607Z" fill="#B53C3C"/>
<path d="M55.8074 28.7771C55.8163 28.934 55.7539 29.0654 55.643 29.1228L47.0648 33.5696C46.8034 33.7051 46.4501 33.3783 46.47 33.0193L47.021 23.0668C47.0303 22.9005 47.1231 22.778 47.2595 22.7523L54.8916 21.3159C55.1315 21.2707 55.395 21.5335 55.4122 21.835L55.8074 28.7771Z" fill="#B53C3C"/>
<path d="M32.3787 122.513C32.3707 122.646 32.3085 122.753 32.2102 122.801L23.4875 127.127C23.2154 127.261 22.8565 126.906 22.8995 126.544L24.5815 112.45C24.5973 112.318 24.6679 112.218 24.772 112.178L32.5731 109.245C32.8367 109.146 33.1595 109.468 33.139 109.81L32.3787 122.513Z" fill="#B53C3C"/>
<path d="M44.9186 120.891C44.903 121.04 44.8182 121.149 44.6956 121.179L34.5527 123.624C34.2831 123.689 33.9854 123.356 34.0204 123.028L35.4756 109.386C35.4926 109.227 35.5881 109.114 35.7225 109.093L45.7439 107.59C46.0101 107.55 46.2855 107.876 46.2524 108.191L44.9186 120.891Z" fill="#B53C3C"/>
<path d="M65.3692 89.8634C65.3545 90.0042 65.2787 90.1092 65.167 90.1459L45.5575 96.5667C45.2864 96.6559 44.9681 96.3159 45.0043 95.9759L46.4565 82.3632C46.4719 82.2185 46.5525 82.1109 46.67 82.078L66.1545 76.6333C66.4246 76.5578 66.7313 76.8937 66.6964 77.2269L65.3692 89.8634Z" fill="#B53C3C"/>
<path d="M71.6821 111.503C71.6675 111.643 71.5917 111.748 71.48 111.785L51.8705 118.206C51.5994 118.294 51.281 117.954 51.3173 117.615L52.7695 104.002C52.7849 103.858 52.8655 103.75 52.9829 103.717L72.4674 98.2725C72.7376 98.1967 73.0443 98.5325 73.0093 98.8659L71.6821 111.503Z" fill="#B53C3C"/>
<path d="M90.8079 81.955C90.7929 82.0951 90.7171 82.2008 90.6054 82.2374L70.996 88.6582C70.7249 88.7465 70.4066 88.4065 70.4428 88.0674L71.8949 74.4545C71.9104 74.3098 71.9909 74.2021 72.1084 74.1693L91.5929 68.7246C91.8629 68.6491 92.1696 68.985 92.1346 69.3182L90.8079 81.955Z" fill="#B53C3C"/>
<path d="M94.8518 56.4038C94.8368 56.5438 94.761 56.6496 94.6493 56.6862L75.0399 63.1068C74.7688 63.1956 74.4505 62.8556 74.4867 62.5159L75.9389 48.9032C75.9543 48.7584 76.0349 48.6508 76.1523 48.618L95.6368 43.1733C95.9068 43.0978 96.2135 43.4338 96.1785 43.7669L94.8518 56.4038Z" fill="#B53C3C"/>
<path d="M99.0923 104.42C99.0773 104.56 99.0023 104.666 98.8898 104.702L79.2806 111.122C79.0095 111.212 78.6912 110.872 78.7274 110.532L80.1796 96.9191C80.195 96.7741 80.2756 96.6666 80.393 96.6341L99.8773 91.1891C100.148 91.1141 100.455 91.4499 100.42 91.7824L99.0923 104.42Z" fill="#B53C3C"/>
<path d="M104.879 80.4488C104.87 80.5824 104.809 80.6891 104.71 80.7379L95.9879 85.0633C95.7154 85.1974 95.3562 84.8424 95.3996 84.4808L97.0812 70.3868C97.0971 70.2546 97.1679 70.1538 97.2721 70.1146L105.073 67.1813C105.337 67.0822 105.66 67.4046 105.639 67.7465L104.879 80.4488Z" fill="#B53C3C"/>
<path d="M107.387 38.4367C107.377 38.6085 107.277 38.7323 107.134 38.7513L99.9864 39.7041C99.7372 39.7373 99.4764 39.4507 99.4805 39.1472L99.608 28.4875C99.6097 28.3319 99.6839 28.2088 99.8022 28.1644L107.577 25.2406C107.841 25.1415 108.164 25.4639 108.144 25.8058L107.387 38.4367Z" fill="#B53C3C"/>
<path d="M108.663 27.786C108.655 27.9195 108.592 28.0263 108.494 28.075L99.7713 32.4C99.4996 32.535 99.1404 32.1795 99.1838 31.818L100.865 17.724C100.881 17.5917 100.952 17.4909 101.056 17.4517L108.857 14.5185C109.12 14.4193 109.443 14.7417 109.423 15.0837L108.663 27.786Z" fill="#B53C3C"/>
<path d="M114.355 99.6341C114.347 99.7674 114.285 99.8741 114.186 99.9233L105.464 104.248C105.191 104.383 104.833 104.027 104.876 103.666L106.558 89.5716C106.574 89.4399 106.644 89.3391 106.748 89.2999L114.55 86.3666C114.813 86.2674 115.136 86.5899 115.116 86.9316L114.355 99.6341Z" fill="#B53C3C"/>
</g>
<g filter="url(#filter3_d_342_29071)">
<path d="M84.9111 166.968C84.8694 167.123 84.7553 167.218 84.6178 167.214L71.9861 166.874C71.7181 166.868 71.4978 166.508 71.5761 166.205L75.1997 152.214C75.2333 152.085 75.3176 151.994 75.427 151.97L89.1378 148.937C89.4244 148.873 89.7044 149.268 89.6136 149.605L84.9111 166.968Z" fill="#B53C3C"/>
<path d="M50.6644 198.009C50.6274 198.152 50.5297 198.246 50.4065 198.258L40.0231 199.32C39.7472 199.348 39.4971 198.978 39.5757 198.658L42.8665 185.264C42.8952 185.148 42.9646 185.061 43.0576 185.025L54.5062 180.639C54.7949 180.529 55.1139 180.933 55.0205 181.293L50.6644 198.009Z" fill="#B53C3C"/>
<path d="M62.5312 152.637C62.5069 152.761 62.4381 152.854 62.3428 152.894L51.9694 157.229C51.6808 157.35 51.3536 156.943 51.4476 156.58L54.9937 142.889C55.0245 142.77 55.0978 142.684 55.1949 142.652L64.4695 139.58C64.747 139.488 65.0475 139.86 64.9787 140.209L62.5312 152.637Z" fill="#B53C3C"/>
<path d="M44.4828 161.518C44.4585 161.642 44.3897 161.736 44.2944 161.776L33.9211 166.111C33.6324 166.232 33.3053 165.824 33.3993 165.462L36.9453 151.77C36.9761 151.652 37.0495 151.565 37.1465 151.533L46.4211 148.462C46.6987 148.369 46.9991 148.741 46.9303 149.091L44.4828 161.518Z" fill="#B53C3C"/>
<path d="M49.2323 174.915C49.208 175.038 49.1392 175.133 49.0439 175.172L38.6706 179.508C38.3819 179.628 38.0548 179.221 38.1488 178.858L41.6948 165.167C41.7256 165.048 41.799 164.962 41.896 164.929L51.1706 161.858C51.4482 161.766 51.7486 162.138 51.6798 162.488L49.2323 174.915Z" fill="#B53C3C"/>
<path d="M128.977 163.948C128.951 164.079 128.875 164.177 128.771 164.212L119.547 167.327C119.259 167.423 118.951 167.023 119.043 166.671L122.602 152.93C122.635 152.801 122.719 152.711 122.827 152.686L130.951 150.827C131.225 150.763 131.502 151.127 131.436 151.463L128.977 163.948Z" fill="#B53C3C"/>
<path d="M102.341 138.813C102.31 138.949 102.224 139.045 102.111 139.07L89.1797 141.934C88.9005 141.996 88.6222 141.619 88.6997 141.283L92.6572 124.013C92.6855 123.89 92.7588 123.799 92.858 123.765L106.211 119.138C106.495 119.041 106.802 119.428 106.721 119.782L102.341 138.813Z" fill="#B53C3C"/>
<path d="M116.766 130.417C116.742 130.54 116.674 130.634 116.578 130.674L106.205 135.009C105.916 135.13 105.589 134.723 105.683 134.36L109.229 120.668C109.26 120.55 109.333 120.463 109.43 120.432L118.705 117.36C118.982 117.268 119.283 117.639 119.214 117.989L116.766 130.417Z" fill="#B53C3C"/>
<path d="M84.5564 144.978C84.5289 145.107 84.4531 145.202 84.3506 145.236L70.0898 149.968C69.8021 150.063 69.4956 149.663 69.5866 149.311L73.1565 135.528C73.1843 135.421 73.2471 135.34 73.3314 135.302L87.2614 128.974C87.5422 128.847 87.8722 129.233 87.7956 129.6L84.5564 144.978Z" fill="#B53C3C"/>
<path d="M68.7109 167.716C68.6796 167.839 68.6026 167.928 68.5009 167.958L54.4164 172.12C54.1296 172.205 53.8317 171.808 53.9216 171.461L57.4888 157.688C57.5224 157.558 57.6067 157.467 57.7162 157.443L71.4419 154.407C71.7254 154.344 72.0048 154.732 71.9193 155.068L68.7109 167.716Z" fill="#B53C3C"/>
<path d="M35.1925 182.126C35.1601 182.253 35.0796 182.342 34.9741 182.369L21.0703 185.971C20.7845 186.045 20.4956 185.652 20.5841 185.309L24.1586 171.509C24.1922 171.379 24.2765 171.288 24.3859 171.264L38.1093 168.228C38.3933 168.166 38.6729 168.553 38.5865 168.891L35.1925 182.126Z" fill="#B53C3C"/>
<path d="M24.959 225.423C24.9189 225.572 24.8126 225.666 24.6816 225.669L10.0021 226.075C9.72945 226.082 9.49628 225.715 9.57662 225.405L13.1929 211.443C13.226 211.316 13.3081 211.226 13.4152 211.2L29.1802 207.397C29.4673 207.327 29.7529 207.723 29.6608 208.063L24.959 225.423Z" fill="#B53C3C"/>
<path d="M18.0913 204.012C18.0653 204.143 17.9887 204.241 17.8842 204.276L5.81402 208.287C5.52636 208.382 5.21965 207.982 5.31078 207.63L8.87179 193.882C8.90462 193.755 8.98595 193.665 9.0922 193.638L20.0572 190.906C20.3325 190.837 20.6139 191.202 20.5471 191.541L18.0913 204.012Z" fill="#B53C3C"/>
<path d="M29.3974 165.113C29.3737 165.25 29.2959 165.353 29.1884 165.388L17.1236 169.398C16.8359 169.493 16.5292 169.093 16.6204 168.741L19.2208 158.701C19.2536 158.574 19.335 158.485 19.4412 158.458L30.4258 155.721C30.697 155.653 30.9761 156.008 30.9176 156.345L29.3974 165.113Z" fill="#B53C3C"/>
<path d="M25.338 202.562C25.2919 202.788 25.1014 202.896 24.9072 202.804L20.5094 200.721C20.3033 200.623 20.1743 200.341 20.2264 200.102L22.0002 191.967C22.0394 191.787 22.172 191.68 22.3295 191.701L26.9079 192.309C27.1562 192.342 27.3504 192.667 27.2924 192.952L25.338 202.562Z" fill="#B53C3C"/>
<path d="M16.5539 184.768C16.5253 184.91 16.4386 185.01 16.323 185.037L3.97342 187.864C3.69541 187.928 3.41698 187.556 3.49046 187.219L5.20918 179.337C5.23647 179.212 5.30996 179.118 5.40955 179.083L17.971 174.646C18.25 174.547 18.5564 174.923 18.4845 175.276L16.5539 184.768Z" fill="#B53C3C"/>
<path d="M5.19651 224.135C5.16781 224.277 5.08115 224.377 4.9656 224.403L-7.38401 227.231C-7.66202 227.294 -7.94045 226.922 -7.86696 226.585L-6.14826 218.703C-6.12098 218.578 -6.04747 218.485 -5.94789 218.45L6.61361 214.012C6.89262 213.913 7.19891 214.29 7.12711 214.642L5.19651 224.135Z" fill="#B53C3C"/>
<path d="M2.89524 206.798C2.86655 206.939 2.77988 207.04 2.66434 207.067L-9.68531 209.894C-9.96331 209.958 -10.2417 209.586 -10.1682 209.248L-8.44956 201.367C-8.42223 201.242 -8.34873 201.148 -8.24917 201.113L4.31232 196.675C4.59133 196.577 4.89762 196.953 4.82582 197.306L2.89524 206.798Z" fill="#B53C3C"/>
<path d="M0.288789 189.947C0.260099 190.088 0.173433 190.188 0.0578832 190.215L-12.2918 193.043C-12.5698 193.107 -12.8482 192.734 -12.7747 192.398L-11.0559 184.515C-11.0287 184.39 -10.9552 184.297 -10.8556 184.262L1.70588 179.824C1.98488 179.725 2.29116 180.102 2.21936 180.454L0.288789 189.947Z" fill="#B53C3C"/>
<path d="M10.6394 171.356C10.6107 171.497 10.524 171.597 10.4085 171.623L-1.94113 174.451C-2.21914 174.515 -2.49759 174.142 -2.42409 173.806L-0.705373 165.923C-0.67809 165.798 -0.604581 165.706 -0.505006 165.67L12.0565 161.232C12.3355 161.134 12.6417 161.51 12.57 161.863L10.6394 171.356Z" fill="#B53C3C"/>
<path d="M4.27657 155.836C4.24789 155.977 4.16122 156.077 4.04566 156.104L-8.30393 158.932C-8.58196 158.995 -8.86038 158.622 -8.78688 158.286L-7.06816 150.404C-7.04088 150.278 -6.96737 150.186 -6.8678 150.151L5.69365 145.712C5.97265 145.614 6.27894 145.99 6.20715 146.343L4.27657 155.836Z" fill="#B53C3C"/>
<path d="M24.0022 150.859C23.9735 151 23.8868 151.101 23.7713 151.128L11.4217 153.955C11.1437 154.018 10.8653 153.647 10.9387 153.309L12.6574 145.428C12.6847 145.303 12.7582 145.209 12.8578 145.174L25.4193 140.737C25.6983 140.638 26.0046 141.014 25.9328 141.367L24.0022 150.859Z" fill="#B53C3C"/>
<path d="M45.2159 143.832C45.1921 143.968 45.1144 144.071 45.0068 144.107L32.9419 148.116C32.6543 148.211 32.3476 147.811 32.4387 147.459L35.0391 137.419C35.0719 137.293 35.1534 137.203 35.2595 137.177L46.2441 134.439C46.5154 134.372 46.7944 134.726 46.7359 135.063L45.2159 143.832Z" fill="#B53C3C"/>
<path d="M61.0888 136.648C61.0645 136.772 60.9957 136.866 60.9004 136.906L50.5271 141.241C50.2384 141.362 49.9113 140.954 50.0052 140.592L53.5514 126.901C53.5821 126.782 53.6554 126.695 53.7525 126.663L63.0271 123.592C63.3046 123.499 63.6051 123.871 63.5362 124.221L61.0888 136.648Z" fill="#B53C3C"/>
<path d="M75.5951 129.649C75.5829 129.806 75.5033 129.927 75.3858 129.969L66.2883 133.224C66.011 133.323 65.7048 132.952 65.7728 132.599L67.655 122.811C67.6864 122.647 67.7949 122.538 67.9336 122.531L75.6894 122.132C75.9331 122.12 76.159 122.416 76.1355 122.717L75.5951 129.649Z" fill="#B53C3C"/>
<path d="M39.7938 219.39C39.7679 219.521 39.6919 219.618 39.5879 219.653L30.3636 222.768C30.0759 222.866 29.7679 222.465 29.8591 222.112L33.4181 208.372C33.4514 208.243 33.5349 208.152 33.6434 208.128L41.7677 206.268C42.0422 206.206 42.3188 206.568 42.2525 206.905L39.7938 219.39Z" fill="#B53C3C"/>
<path d="M52.4385 219.467C52.4029 219.612 52.3043 219.709 52.1788 219.722L41.7995 220.784C41.5236 220.812 41.2734 220.442 41.3521 220.121L44.6256 206.798C44.6638 206.642 44.7735 206.543 44.9094 206.542L55.0419 206.397C55.3111 206.393 55.5404 206.753 55.4653 207.061L52.4385 219.467Z" fill="#B53C3C"/>
<path d="M76.8694 191.466C76.836 191.603 76.7467 191.698 76.6311 191.719L56.3371 195.449C56.0566 195.5 55.7867 195.121 55.8683 194.789L59.1349 181.494C59.1696 181.353 59.2639 181.258 59.3847 181.241L79.4238 178.461C79.7017 178.423 79.9605 178.797 79.8811 179.122L76.8694 191.466Z" fill="#B53C3C"/>
<path d="M80.22 213.757C80.1866 213.893 80.0974 213.988 79.9817 214.009L59.6877 217.739C59.4072 217.791 59.1374 217.411 59.2189 217.079L62.4855 203.785C62.5203 203.643 62.6145 203.548 62.7354 203.531L82.7744 200.752C83.0523 200.713 83.3111 201.087 83.2317 201.413L80.22 213.757Z" fill="#B53C3C"/>
<path d="M103.139 187.044C103.105 187.182 103.016 187.276 102.901 187.297L82.6067 191.027C82.3261 191.078 82.0563 190.699 82.1378 190.367L85.4044 177.072C85.4394 176.932 85.5336 176.836 85.6544 176.819L105.694 174.039C105.971 174.001 106.23 174.375 106.151 174.7L103.139 187.044Z" fill="#B53C3C"/>
<path d="M110.577 162.268C110.544 162.404 110.455 162.499 110.339 162.52L90.0447 166.25C89.7647 166.302 89.4947 165.922 89.5763 165.59L92.843 152.296C92.8772 152.154 92.9722 152.058 93.093 152.042L113.131 149.263C113.41 149.223 113.668 149.598 113.589 149.923L110.577 162.268Z" fill="#B53C3C"/>
<path d="M108.333 210.418C108.3 210.555 108.21 210.649 108.095 210.671L87.8004 214.401C87.5196 214.453 87.2495 214.073 87.3312 213.741L90.5979 200.446C90.6329 200.305 90.727 200.209 90.8479 200.193L110.887 197.413C111.165 197.374 111.424 197.748 111.345 198.073L108.333 210.418Z" fill="#B53C3C"/>
<path d="M117.285 187.441C117.26 187.572 117.183 187.67 117.08 187.705L107.855 190.82C107.567 190.917 107.259 190.517 107.35 190.164L110.91 176.423C110.943 176.294 111.026 176.204 111.135 176.179L119.259 174.32C119.534 174.257 119.81 174.62 119.744 174.956L117.285 187.441Z" fill="#B53C3C"/>
<path d="M125.411 146.146C125.378 146.315 125.263 146.424 125.118 146.424L117.907 146.408C117.655 146.407 117.436 146.089 117.48 145.788L119.038 135.242C119.061 135.088 119.15 134.977 119.274 134.948L127.371 133.095C127.646 133.032 127.923 133.395 127.856 133.731L125.411 146.146Z" fill="#B53C3C"/>
<path d="M128.104 135.763C128.079 135.894 128.003 135.992 127.899 136.027L118.674 139.142C118.387 139.239 118.079 138.838 118.17 138.486L121.729 124.745C121.763 124.617 121.846 124.526 121.954 124.501L130.079 122.642C130.353 122.579 130.629 122.942 130.564 123.277L128.104 135.763Z" fill="#B53C3C"/>
<path d="M124.1 207.725C124.074 207.856 123.998 207.953 123.894 207.988L114.67 211.103C114.382 211.201 114.074 210.8 114.165 210.447L117.724 196.707C117.757 196.578 117.84 196.487 117.95 196.462L126.074 194.603C126.348 194.541 126.625 194.903 126.559 195.239L124.1 207.725Z" fill="#B53C3C"/>
</g>
<path d="M348.427 213.96L345.067 213.99L344.733 176.69L347.363 209.307L348.093 176.66L350.43 209.279L351.308 176.631L353.248 213.917L348.427 213.96Z" fill="#318D4B"/>
<path d="M326.784 211.933L323.424 211.963L323.09 174.663L325.72 207.279L326.451 174.633L328.788 207.253L329.665 174.604L331.605 211.89L326.784 211.933Z" fill="#318D4B"/>
<path d="M371.798 213.307L368.438 213.337L368.105 176.037L370.734 208.653L371.465 176.007L373.802 208.626L374.679 175.978L376.62 213.263L371.798 213.307Z" fill="#318D4B"/>
<path d="M294.07 213.557L290.709 213.587L290.376 176.287L293.005 208.904L293.737 176.257L296.073 208.877L296.951 176.228L298.891 213.514L294.07 213.557Z" fill="#318D4B"/>
<path d="M340.245 214.033L336.885 214.063L336.552 176.763L339.181 209.38L339.912 176.733L342.249 209.352L343.126 176.704L345.067 213.99L340.245 214.033Z" fill="#318D4B"/>
<path d="M318.603 212.006L315.243 212.036L314.909 174.736L317.538 207.352L318.269 174.706L320.607 207.325L321.483 174.677L323.424 211.962L318.603 212.006Z" fill="#318D4B"/>
<path d="M363.617 213.38L360.257 213.41L359.923 176.11L362.553 208.727L363.283 176.08L365.621 208.699L366.498 176.052L368.438 213.337L363.617 213.38Z" fill="#318D4B"/>
<path d="M285.889 213.631L282.528 213.661L282.194 176.361L284.824 208.978L285.555 176.331L287.892 208.95L288.769 176.302L290.709 213.588L285.889 213.631Z" fill="#318D4B"/>
<path d="M332.063 214.106L328.703 214.136L328.37 176.836L330.999 209.453L331.73 176.806L334.068 209.425L334.944 176.778L336.885 214.063L332.063 214.106Z" fill="#318D4B"/>
<path d="M310.421 212.079L307.061 212.109L306.728 174.809L309.357 207.426L310.088 174.779L312.425 207.398L313.302 174.75L315.243 212.036L310.421 212.079Z" fill="#318D4B"/>
<path d="M355.436 213.453L352.075 213.483L351.742 176.183L354.371 208.8L355.103 176.153L357.439 208.773L358.317 176.124L360.257 213.41L355.436 213.453Z" fill="#318D4B"/>
<path d="M277.707 213.703L274.347 213.734L274.014 176.434L276.643 209.05L277.374 176.404L279.71 209.023L280.588 176.375L282.528 213.661L277.707 213.703Z" fill="#318D4B"/>
<path d="M323.882 214.179L320.522 214.209L320.188 176.909L322.818 209.526L323.548 176.879L325.886 209.498L326.763 176.851L328.703 214.136L323.882 214.179Z" fill="#318D4B"/>
<path d="M302.239 212.152L298.879 212.182L298.546 174.882L301.175 207.499L301.906 174.852L304.243 207.472L305.12 174.823L307.061 212.109L302.239 212.152Z" fill="#318D4B"/>
<path d="M347.254 213.526L343.893 213.556L343.56 176.256L346.189 208.873L346.921 176.226L349.258 208.845L350.135 176.198L352.075 213.482L347.254 213.526Z" fill="#318D4B"/>
<path d="M269.525 213.777L266.165 213.807L265.832 176.507L268.461 209.123L269.192 176.477L271.53 209.096L272.406 176.448L274.347 213.733L269.525 213.777Z" fill="#318D4B"/>
<path d="M318.663 218.667L315.302 218.697L314.969 181.397L317.598 214.013L318.329 181.367L320.666 213.986L321.544 181.338L323.484 218.623L318.663 218.667Z" fill="#318D4B"/>
<path d="M297.02 216.639L293.66 216.669L293.326 179.37L295.955 211.986L296.686 179.34L299.024 211.959L299.9 179.311L301.841 216.597L297.02 216.639Z" fill="#318D4B"/>
<path d="M342.035 218.013L338.674 218.043L338.34 180.744L340.97 213.36L341.701 180.714L344.038 213.333L344.915 180.685L346.855 217.971L342.035 218.013Z" fill="#318D4B"/>
<path d="M265.945 216.917L262.574 216.947L262.344 191.192L264.89 213.707L265.715 191.162L267.968 213.679L268.938 191.133L270.781 216.874L265.945 216.917Z" fill="#318D4B"/>
<path d="M327.973 214.143L324.613 214.173L324.279 176.873L326.908 209.489L327.639 176.843L329.977 209.462L330.853 176.814L332.794 214.099L327.973 214.143Z" fill="#318D4B"/>
<path d="M306.33 212.116L302.97 212.146L302.637 174.846L305.266 207.462L305.997 174.816L308.334 207.435L309.211 174.787L311.152 212.072L306.33 212.116Z" fill="#318D4B"/>
<path d="M351.345 213.49L347.984 213.52L347.651 176.22L350.28 208.837L351.011 176.19L353.348 208.809L354.226 176.161L356.166 213.447L351.345 213.49Z" fill="#318D4B"/>
<path d="M273.616 213.74L270.256 213.77L269.923 176.471L272.552 209.087L273.283 176.441L275.62 209.06L276.497 176.412L278.438 213.697L273.616 213.74Z" fill="#318D4B"/>
<path d="M333.817 214.09L330.457 214.12L330.124 176.821L332.753 209.437L333.484 176.791L335.821 209.409L336.698 176.762L338.639 214.048L333.817 214.09Z" fill="#318D4B"/>
<path d="M312.174 212.063L308.814 212.093L308.481 174.793L311.11 207.41L311.841 174.763L314.178 207.382L315.055 174.734L316.996 212.02L312.174 212.063Z" fill="#318D4B"/>
<path d="M357.188 213.438L353.828 213.468L353.495 176.168L356.124 208.784L356.855 176.138L359.193 208.757L360.069 176.108L362.01 213.394L357.188 213.438Z" fill="#318D4B"/>
<path d="M279.46 213.687L276.099 213.717L275.766 176.418L278.396 209.034L279.127 176.388L281.464 209.007L282.341 176.359L284.281 213.645L279.46 213.687Z" fill="#318D4B"/>
<path d="M330.938 219.001L327.578 219.031L327.245 181.731L329.874 214.348L330.605 181.701L332.943 214.32L333.819 181.673L335.76 218.958L330.938 219.001Z" fill="#318D4B"/>
<path d="M309.296 216.974L305.936 217.004L305.603 179.704L308.232 212.321L308.963 179.674L311.3 212.293L312.177 179.646L314.118 216.931L309.296 216.974Z" fill="#318D4B"/>
<path d="M354.31 218.348L350.95 218.378L350.617 181.078L353.246 213.694L353.977 181.048L356.314 213.667L357.191 181.019L359.132 218.305L354.31 218.348Z" fill="#318D4B"/>
<path d="M276.582 218.598L273.222 218.628L272.888 181.328L275.518 213.945L276.249 181.298L278.585 213.918L279.463 181.27L281.403 218.555L276.582 218.598Z" fill="#318D4B"/>
<path d="M340.245 214.033L336.885 214.063L336.552 176.763L339.181 209.38L339.912 176.733L342.249 209.352L343.126 176.704L345.067 213.99L340.245 214.033Z" fill="#318D4B"/>
<path d="M318.603 212.006L315.243 212.036L314.909 174.736L317.538 207.352L318.269 174.706L320.607 207.325L321.483 174.677L323.424 211.962L318.603 212.006Z" fill="#318D4B"/>
<path d="M363.617 213.38L360.257 213.41L359.923 176.11L362.553 208.727L363.283 176.08L365.621 208.699L366.498 176.052L368.438 213.337L363.617 213.38Z" fill="#318D4B"/>
<path d="M285.889 213.631L282.528 213.661L282.194 176.361L284.824 208.978L285.555 176.331L287.892 208.95L288.769 176.302L290.709 213.588L285.889 213.631Z" fill="#318D4B"/>
<path d="M342.042 218.902L338.682 218.932L338.349 181.632L340.978 214.248L341.709 181.602L344.046 214.221L344.923 181.573L346.864 218.858L342.042 218.902Z" fill="#318D4B"/>
<path d="M320.399 216.875L317.039 216.905L316.706 179.605L319.335 212.222L320.066 179.575L322.404 212.194L323.28 179.546L325.221 216.832L320.399 216.875Z" fill="#318D4B"/>
<path d="M365.414 218.249L362.054 218.279L361.72 180.979L364.349 213.596L365.081 180.949L367.418 213.568L368.295 180.92L370.235 218.206L365.414 218.249Z" fill="#318D4B"/>
<path d="M287.685 218.499L284.325 218.529L283.992 181.23L286.621 213.846L287.352 181.2L289.689 213.818L290.566 181.171L292.507 218.457L287.685 218.499Z" fill="#318D4B"/>
<path d="M109.124 252.512L105.764 252.542L105.431 215.243L108.06 247.859L108.791 215.212L111.129 247.832L112.005 215.184L113.946 252.47L109.124 252.512Z" fill="#318D4B"/>
<path d="M87.4819 250.486L84.1219 250.516L83.7886 213.216L86.4177 245.832L87.1486 213.186L89.4861 245.805L90.3627 213.157L92.3036 250.442L87.4819 250.486Z" fill="#318D4B"/>
<path d="M132.312 234.098L128.952 234.128L128.619 196.828L131.248 229.445L131.979 196.798L134.317 229.418L135.193 196.77L137.134 234.055L132.312 234.098Z" fill="#318D4B"/>
<path d="M54.7674 252.111L51.4071 252.141L51.0737 214.841L53.703 247.457L54.434 214.811L56.7711 247.43L57.6481 214.782L59.5886 252.067L54.7674 252.111Z" fill="#318D4B"/>
<path d="M100.943 252.586L97.5828 252.616L97.2495 215.316L99.8787 247.933L100.61 215.286L102.947 247.905L103.824 215.258L105.765 252.543L100.943 252.586Z" fill="#318D4B"/>
<path d="M79.3001 250.559L75.9398 250.589L75.6064 213.289L78.2357 245.906L78.9667 213.259L81.3038 245.878L82.1809 213.231L84.1216 250.516L79.3001 250.559Z" fill="#318D4B"/>
<path d="M124.315 251.933L120.954 251.963L120.621 214.663L123.25 247.279L123.982 214.633L126.319 247.253L127.196 214.604L129.136 251.89L124.315 251.933Z" fill="#318D4B"/>
<path d="M46.5858 252.183L43.2254 252.213L42.8921 214.913L45.5213 247.53L46.2523 214.883L48.5894 247.502L49.4665 214.855L51.407 252.141L46.5858 252.183Z" fill="#318D4B"/>
<path d="M92.7612 252.659L89.4012 252.689L89.0679 215.389L91.697 248.006L92.4279 215.359L94.7654 247.978L95.642 215.331L97.5829 252.616L92.7612 252.659Z" fill="#318D4B"/>
<path d="M71.119 250.632L67.7587 250.662L67.4253 213.362L70.0546 245.978L70.7856 213.332L73.1227 245.952L73.9998 213.303L75.9402 250.589L71.119 250.632Z" fill="#318D4B"/>
<path d="M116.134 252.006L112.773 252.036L112.439 214.737L115.069 247.352L115.8 214.707L118.137 247.325L119.014 214.677L120.954 251.963L116.134 252.006Z" fill="#318D4B"/>
<path d="M38.4046 252.257L35.0444 252.287L34.7109 214.987L37.3403 247.603L38.0712 214.957L40.4083 247.576L41.2854 214.928L43.2259 252.213L38.4046 252.257Z" fill="#318D4B"/>
<path d="M84.5803 252.732L81.2196 252.762L80.8862 215.462L83.5153 248.079L84.2461 215.432L86.5836 248.052L87.4603 215.404L89.4011 252.689L84.5803 252.732Z" fill="#318D4B"/>
<path d="M62.9373 250.705L59.5771 250.735L59.2437 213.436L61.873 246.052L62.604 213.406L64.9411 246.024L65.8181 213.377L67.7586 250.663L62.9373 250.705Z" fill="#318D4B"/>
<path d="M107.952 252.079L104.591 252.109L104.258 214.809L106.888 247.426L107.619 214.779L109.955 247.398L110.833 214.751L112.773 252.037L107.952 252.079Z" fill="#318D4B"/>
<path d="M30.223 252.33L26.8627 252.36L26.5293 215.06L29.1586 247.677L29.8896 215.03L32.2267 247.649L33.1038 215.002L35.0443 252.287L30.223 252.33Z" fill="#318D4B"/>
<path d="M79.3597 257.22L75.9994 257.25L75.666 219.95L78.2953 252.567L79.0263 219.92L81.3634 252.539L82.2405 219.891L84.1808 257.177L79.3597 257.22Z" fill="#318D4B"/>
<path d="M57.7171 255.193L54.3569 255.223L54.0234 217.923L56.6528 250.54L57.3838 217.893L59.7209 250.513L60.5979 217.864L62.5384 255.15L57.7171 255.193Z" fill="#318D4B"/>
<path d="M102.732 256.567L99.3719 256.597L99.0386 219.297L101.668 251.913L102.399 219.267L104.735 251.886L105.613 219.238L107.554 256.523L102.732 256.567Z" fill="#318D4B"/>
<path d="M26.6427 255.471L23.2722 255.501L23.042 229.746L25.5882 252.261L26.4125 229.716L28.6656 252.233L29.6365 229.688L31.4787 255.428L26.6427 255.471Z" fill="#318D4B"/>
<path d="M88.6704 252.696L85.3104 252.726L84.9771 215.426L87.6062 248.042L88.337 215.396L90.6745 248.015L91.5512 215.367L93.4921 252.652L88.6704 252.696Z" fill="#318D4B"/>
<path d="M67.0281 250.668L63.6678 250.698L63.3345 213.399L65.9637 246.015L66.6947 213.369L69.0318 245.988L69.9089 213.34L71.8494 250.626L67.0281 250.668Z" fill="#318D4B"/>
<path d="M112.043 252.042L108.682 252.072L108.349 214.773L110.978 247.389L111.709 214.742L114.046 247.362L114.924 214.714L116.864 252L112.043 252.042Z" fill="#318D4B"/>
<path d="M34.3138 252.293L30.9534 252.323L30.6201 215.023L33.2494 247.64L33.9804 214.993L36.3175 247.613L37.1945 214.965L39.135 252.25L34.3138 252.293Z" fill="#318D4B"/>
<path d="M94.5141 252.643L91.1541 252.673L90.8208 215.373L93.45 247.99L94.1808 215.343L96.5183 247.962L97.395 215.315L99.3358 252.6L94.5141 252.643Z" fill="#318D4B"/>
<path d="M72.8719 250.617L69.5116 250.647L69.1782 213.347L71.8075 245.963L72.5385 213.317L74.8756 245.936L75.7526 213.288L77.6931 250.573L72.8719 250.617Z" fill="#318D4B"/>
<path d="M117.887 251.991L114.526 252.021L114.193 214.721L116.822 247.338L117.553 214.691L119.89 247.31L120.767 214.663L122.708 251.948L117.887 251.991Z" fill="#318D4B"/>
<path d="M40.1575 252.242L36.7972 252.272L36.4639 214.972L39.0931 247.588L39.8241 214.942L42.1613 247.561L43.0384 214.913L44.9788 252.198L40.1575 252.242Z" fill="#318D4B"/>
<path d="M91.6362 257.554L88.2762 257.584L87.9429 220.284L90.572 252.901L91.3029 220.254L93.6404 252.873L94.517 220.226L96.4579 257.511L91.6362 257.554Z" fill="#318D4B"/>
<path d="M69.9935 255.527L66.6331 255.557L66.2998 218.257L68.9291 250.873L69.6601 218.227L71.9972 250.847L72.8743 218.198L74.8147 255.484L69.9935 255.527Z" fill="#318D4B"/>
<path d="M115.009 256.901L111.648 256.931L111.314 219.632L113.944 252.248L114.674 219.602L117.012 252.22L117.889 219.573L119.829 256.858L115.009 256.901Z" fill="#318D4B"/>
<path d="M37.2791 257.152L33.9188 257.182L33.5854 219.882L36.2147 252.498L36.9457 219.852L39.2829 252.471L40.1599 219.823L42.1004 257.108L37.2791 257.152Z" fill="#318D4B"/>
<path d="M100.943 252.586L97.5828 252.616L97.2495 215.316L99.8787 247.933L100.61 215.286L102.947 247.905L103.824 215.258L105.765 252.543L100.943 252.586Z" fill="#318D4B"/>
<path d="M79.3001 250.559L75.9398 250.589L75.6064 213.289L78.2357 245.906L78.9667 213.259L81.3038 245.878L82.1809 213.231L84.1216 250.516L79.3001 250.559Z" fill="#318D4B"/>
<path d="M126.6 237.702L123.239 237.732L122.906 200.432L125.535 233.048L126.267 200.402L128.603 233.021L129.481 200.373L131.421 237.659L126.6 237.702Z" fill="#318D4B"/>
<path d="M46.5858 252.183L43.2254 252.213L42.8921 214.913L45.5213 247.53L46.2523 214.883L48.5894 247.502L49.4665 214.855L51.407 252.141L46.5858 252.183Z" fill="#318D4B"/>
<path d="M102.74 257.455L99.3792 257.485L99.0459 220.185L101.675 252.802L102.406 220.155L104.743 252.774L105.62 220.127L107.561 257.412L102.74 257.455Z" fill="#318D4B"/>
<path d="M81.097 255.427L77.7367 255.457L77.4033 218.158L80.0327 250.774L80.7636 218.128L83.1007 250.747L83.9776 218.099L85.9184 255.385L81.097 255.427Z" fill="#318D4B"/>
<path d="M138.862 232.263L135.502 232.293L135.168 194.993L137.798 227.61L138.528 194.963L140.866 227.583L141.743 194.935L143.683 232.22L138.862 232.263Z" fill="#318D4B"/>
<path d="M48.3826 257.052L45.0224 257.082L44.689 219.782L47.3183 252.399L48.0493 219.752L50.3864 252.372L51.2635 219.724L53.204 257.009L48.3826 257.052Z" fill="#318D4B"/>
<path d="M334.575 64.5037L430.441 42.6199L514.973 25.4207L518.862 177.764L331.728 240.862L334.575 64.5037Z" fill="#9C3A3A"/>
<path d="M333.973 67.8154L463.212 103.029L464.994 302.489L331.728 240.862L333.973 67.8154Z" fill="#B23D3D"/>
<path d="M463.212 103.029L629.598 51.9482L631.263 238.185L464.994 302.489L463.212 103.029Z" fill="#B23D3D"/>
<path d="M421.935 132.151L422.978 281.696L393.426 269.819L393.42 269.817L365.154 259.223L365.498 125.509L421.935 132.151Z" fill="#833636" stroke="white"/>
<path d="M382.001 -3.14685L573.724 -47.8416L592.119 -40.2914L606.189 -21.6818L621.67 13.4464L629.608 53.0503L461.316 103.046L404.334 91.4326L377.705 81.7517L349.801 70.9803L334.565 63.4019L349.348 20.2887L362.51 8.04815L382.001 -3.14685Z" fill="#A8A8A8"/>
<path d="M463.202 101.927L628.976 53.0557L630.63 238.19L464.994 302.489L463.202 101.927Z" fill="#DD4C4C"/>
<path d="M476.706 203.189L477.653 158.306L521.702 139.745L521.52 183.318L499.349 193.786L476.706 203.189Z" stroke="white"/>
<path d="M477.56 155.146L521.085 185.04" stroke="white"/>
<path d="M479.267 202.15L518.586 141.586" stroke="white" stroke-width="0.991583"/>
<path d="M375.731 2.41938L417.218 2.04858L441.526 21.6435L448.668 39.0609L458.474 70.4395L463.212 103.029L435.999 98.8641L395.467 89.3075L350.482 76.52L333.975 68.056L333.934 63.3947L347.501 25.8154L358.738 10.2858L375.731 2.41938Z" fill="#949494"/>
<path d="M403.195 96.4258L402.038 124.64L392.3 123.564L392.295 123.563L382.915 122.672L384.377 97.3891L403.195 96.4258Z" stroke="white"/>
<path d="M384.098 95.3049L402.364 126.81" stroke="white"/>
<path d="M383.217 122.154L402.192 96.6441" stroke="white" stroke-width="0.995987"/>
<path d="M366.11 231.121L365.88 205.366L391.615 192.258L421.402 173.34L421.735 210.64L422.375 282.131L366.357 258.652L366.11 231.121Z" fill="#706823"/>
<path d="M315.407 32.3319H330.105L328.052 26.624L405.378 27.7039L451.91 28.3209V30.3264H448.488H482.767L480.636 31.8856L482.767 72.8115L475.977 79.1374L479.393 101.81L403.183 104.167L324.161 103.241L317.641 61.8837L319.772 49.3845L315.407 32.3319Z" fill="#A9AD81"/>
<path d="M323.776 44.7079H308.824L305.833 32.2416V18.3333L418.472 23.3231L486.254 26.1744L485.951 34.358L486.667 43.1263L405.513 40.431L323.776 44.7079Z" fill="#8D8F6D"/>
<path d="M345.735 61.275L345.76 60.225C345.76 59.0417 345.66 57.6334 345.46 56H350.86C350.86 58.3667 350.743 60.5334 350.51 62.5C347.927 62.8667 345.252 63.0501 342.485 63.0501H340.885C339.368 62.4001 338.185 61.45 337.335 60.2C336.485 58.9334 336.06 57.5917 336.06 56.1751C336.06 54.2917 336.818 52.7 338.335 51.4C339.868 50.0834 342.102 49.425 345.035 49.425C346.568 49.425 348.277 49.6334 350.16 50.05C349.877 51.1834 349.552 52.1834 349.185 53.05C348.168 53.1167 347.077 53.1667 345.91 53.2C346.093 52.6334 346.227 52.075 346.31 51.525C345.777 51.425 345.227 51.375 344.66 51.375C344.11 51.375 343.452 51.4667 342.685 51.65C342.418 52.7834 342.285 53.8084 342.285 54.725C342.285 56.1084 342.593 57.4084 343.21 58.625C343.843 59.825 344.685 60.7084 345.735 61.275ZM367.755 54.35L367.73 55.2C366.397 55.9167 364.73 56.475 362.73 56.875C364.163 57.2584 365.547 57.45 366.88 57.45H367.405C368.322 58.8 368.913 60.4834 369.18 62.5H362.705C362.538 61.3334 362.197 60.3334 361.68 59.5C361.18 58.65 360.563 58.075 359.83 57.775C359.813 58.0584 359.805 58.625 359.805 59.475C359.805 60.325 359.855 61.3334 359.955 62.5H354.505C354.022 60.0834 353.78 57.8417 353.78 55.775C353.78 53.6917 353.897 51.7667 354.13 50H367.18C367.563 51.6834 367.755 53.1334 367.755 54.35ZM360.355 51.675C360.155 53.1417 360.005 54.5834 359.905 56C360.822 55.8667 361.572 55.5417 362.155 55.025C361.838 53.9084 361.238 52.7917 360.355 51.675ZM387.107 62.3V62.5H381.307C381.24 61.55 381.098 60.5667 380.882 59.55C379.848 60.6 378.682 61.5834 377.382 62.5H371.557C371.44 61.8167 371.382 60.9167 371.382 59.8C371.382 58.6667 371.548 57.5334 371.882 56.4C373.082 56.05 374.232 55.4584 375.332 54.6251C376.448 53.7917 377.257 52.8917 377.757 51.925C377.307 51.225 376.832 50.5834 376.332 50H384.632C386.282 53.5834 387.107 57.6834 387.107 62.3ZM380.432 57.725C379.998 56.2417 379.432 54.8417 378.732 53.5251C377.948 55.8251 377.498 58 377.382 60.05C378.582 59.4334 379.598 58.6584 380.432 57.725ZM403.732 50C403.832 51.75 403.882 53.6001 403.882 55.5501C403.882 57.4834 403.798 59.8 403.632 62.5H401.232C397.998 60.7667 395.032 58.4084 392.332 55.425C392.465 56.5417 392.532 57.6917 392.532 58.875C392.532 60.0417 392.49 61.25 392.407 62.5H389.482C389.815 60.45 389.982 58.5584 389.982 56.825C389.982 55.075 389.898 53.6917 389.732 52.675C389.065 51.675 388.54 50.7834 388.157 50H395.257C395.957 51.2 396.907 52.4417 398.107 53.725C399.323 54.9917 400.482 55.9834 401.582 56.7C401.582 54.2667 401.307 52.0334 400.757 50H403.732ZM415.828 55.025L418.178 55.175C418.411 55.175 418.586 55.1667 418.703 55.15L417.528 57.35H417.303C416.986 57.35 416.536 57.2667 415.953 57.1C415.369 56.9167 414.953 56.825 414.703 56.825C414.019 56.825 413.478 57.2667 413.078 58.15C413.011 58.9667 412.961 59.7834 412.928 60.6C413.794 60.7667 414.478 60.85 414.978 60.85H415.203C415.919 60.85 416.486 60.6917 416.903 60.375C417.336 60.0584 417.644 59.4917 417.828 58.6751L420.828 58.8C420.578 60.2334 420.244 61.4667 419.828 62.5H407.553C407.219 60.25 407.053 58.0167 407.053 55.8C407.053 53.5834 407.169 51.65 407.403 50H420.803C420.503 51.8 420.236 53.0667 420.003 53.8C419.019 53.85 418.119 53.8834 417.303 53.9C417.436 53.5167 417.503 53.1584 417.503 52.825C417.503 52.025 416.903 51.625 415.703 51.625C415.253 51.625 414.753 51.675 414.203 51.775C413.836 53.3584 413.553 54.75 413.353 55.95C414.019 55.3334 414.844 55.025 415.828 55.025ZM437.775 54.35L437.75 55.2C436.417 55.9167 434.75 56.475 432.75 56.875C434.183 57.2584 435.567 57.45 436.9 57.45H437.425C438.342 58.8 438.933 60.4834 439.2 62.5H432.725C432.558 61.3334 432.217 60.3334 431.7 59.5C431.2 58.65 430.583 58.075 429.85 57.775C429.833 58.0584 429.825 58.625 429.825 59.475C429.825 60.325 429.875 61.3334 429.975 62.5H424.525C424.042 60.0834 423.8 57.8417 423.8 55.775C423.8 53.6917 423.917 51.7667 424.15 50H437.2C437.583 51.6834 437.775 53.1334 437.775 54.35ZM430.375 51.675C430.175 53.1417 430.025 54.5834 429.925 56C430.842 55.8667 431.592 55.5417 432.175 55.025C431.858 53.9084 431.258 52.7917 430.375 51.675ZM442.952 62.4251C441.468 60.5251 440.727 58.575 440.727 56.575C440.727 54.575 441.56 52.8834 443.227 51.5C444.893 50.1167 447.027 49.425 449.627 49.425C451.01 49.425 452.385 49.6334 453.752 50.05C454.952 51.5667 455.552 53.1917 455.552 54.9251C455.552 57.1084 454.66 59.0084 452.877 60.625C451.093 62.2417 448.935 63.0501 446.402 63.0501C445.318 63.0501 444.168 62.8417 442.952 62.4251ZM446.752 51.6C446.168 52.6 445.877 53.775 445.877 55.125C445.877 56.475 446.168 57.725 446.752 58.875C447.352 60.0084 448.168 60.825 449.202 61.325C449.985 60.325 450.377 59.1667 450.377 57.85C450.377 56.5334 450.052 55.3084 449.402 54.175C448.768 53.0417 447.885 52.1834 446.752 51.6ZM355.967 76.925C359.183 76.925 361.8 77.325 363.817 78.125C364.533 79.5584 364.892 81.0084 364.892 82.475C364.892 84.3584 364.25 85.9917 362.967 87.375C361.1 89.3584 358.575 90.35 355.392 90.35C354.292 90.35 352.8 90.225 350.917 89.975C350.267 86.625 349.942 83.5334 349.942 80.7C349.942 79.7167 349.992 78.65 350.092 77.5C352.775 77.1167 354.733 76.925 355.967 76.925ZM356.717 78.8C356.417 81.9334 356.267 84.1834 356.267 85.55C356.267 86.9 356.292 88 356.342 88.85C357.242 88.3667 357.942 87.5584 358.442 86.425C358.958 85.275 359.217 84.1167 359.217 82.95C359.217 81.7667 359 80.8 358.567 80.05C358.15 79.3 357.533 78.8834 356.717 78.8ZM376.411 82.525L378.761 82.675C378.994 82.675 379.169 82.6667 379.286 82.65L378.111 84.85H377.886C377.569 84.85 377.119 84.7667 376.536 84.6C375.953 84.4167 375.536 84.325 375.286 84.325C374.603 84.325 374.061 84.7667 373.661 85.65C373.594 86.4667 373.544 87.2834 373.511 88.1C374.378 88.2667 375.061 88.35 375.561 88.35H375.786C376.503 88.35 377.069 88.1917 377.486 87.875C377.919 87.5584 378.228 86.9917 378.411 86.175L381.411 86.3C381.161 87.7334 380.828 88.9667 380.411 90H368.136C367.803 87.75 367.636 85.5167 367.636 83.3C367.636 81.0834 367.753 79.15 367.986 77.5H381.386C381.086 79.3 380.819 80.5667 380.586 81.3C379.603 81.35 378.703 81.3834 377.886 81.4C378.019 81.0167 378.086 80.6584 378.086 80.325C378.086 79.525 377.486 79.125 376.286 79.125C375.836 79.125 375.336 79.175 374.786 79.275C374.419 80.8584 374.136 82.25 373.936 83.45C374.603 82.8334 375.428 82.525 376.411 82.525ZM399.598 88.375C400.732 88.375 401.657 88.2834 402.373 88.1C402.073 86.25 401.223 84.875 399.823 83.975C399.673 85.4584 399.598 86.925 399.598 88.375ZM393.298 82.5C393.298 80.75 393.457 79.0834 393.773 77.5H407.648C406.898 79.8334 405.465 81.525 403.348 82.575C405.265 83.2584 406.798 84.2084 407.948 85.425C407.798 86.975 407.44 88.5 406.873 90H394.298C393.632 87.6834 393.298 85.1834 393.298 82.5ZM400.023 82.25C400.84 82.0334 401.598 81.6584 402.298 81.125C402.998 80.5917 403.498 79.9334 403.798 79.15C402.465 79.15 401.382 79.1917 400.548 79.275C400.348 80.2417 400.173 81.2334 400.023 82.25ZM419.307 82.525L421.657 82.675C421.89 82.675 422.065 82.6667 422.182 82.65L421.007 84.85H420.782C420.465 84.85 420.015 84.7667 419.432 84.6C418.848 84.4167 418.432 84.325 418.182 84.325C417.498 84.325 416.957 84.7667 416.557 85.65C416.49 86.4667 416.44 87.2834 416.407 88.1C417.273 88.2667 417.957 88.35 418.457 88.35H418.682C419.398 88.35 419.965 88.1917 420.382 87.875C420.815 87.5584 421.123 86.9917 421.307 86.175L424.307 86.3C424.057 87.7334 423.723 88.9667 423.307 90H411.032C410.698 87.75 410.532 85.5167 410.532 83.3C410.532 81.0834 410.648 79.15 410.882 77.5H424.282C423.982 79.3 423.715 80.5667 423.482 81.3C422.498 81.35 421.598 81.3834 420.782 81.4C420.915 81.0167 420.982 80.6584 420.982 80.325C420.982 79.525 420.382 79.125 419.182 79.125C418.732 79.125 418.232 79.175 417.682 79.275C417.315 80.8584 417.032 82.25 416.832 83.45C417.498 82.8334 418.323 82.525 419.307 82.525ZM441.854 77.5C441.954 79.25 442.004 81.1001 442.004 83.05C442.004 84.9834 441.921 87.3 441.754 90H439.354C436.121 88.2667 433.154 85.9084 430.454 82.925C430.588 84.0417 430.654 85.1917 430.654 86.375C430.654 87.5417 430.613 88.75 430.529 90H427.604C427.938 87.95 428.104 86.0584 428.104 84.325C428.104 82.575 428.021 81.1917 427.854 80.175C427.188 79.175 426.663 78.2834 426.279 77.5H433.379C434.079 78.7 435.029 79.9417 436.229 81.225C437.446 82.4917 438.604 83.4834 439.704 84.2C439.704 81.7667 439.429 79.5334 438.879 77.5H441.854Z" fill="black"/>
<path d="M244.02 -13.3333L252.917 17.5001L231.667 13.7501L244.02 -13.3333Z" fill="#A35E5E"/>
<path d="M255.792 27.4132V-43.062L246.708 -47.4336V20.1272L255.792 27.4132Z" fill="#726440" stroke="black" stroke-width="0.1"/>
<path d="M240.792 -50.7917H228.375V14.3148L240.792 15.7863V-50.7917Z" fill="#726440" stroke="black" stroke-width="0.1"/>
<path d="M1.18848 53.3638L120.06 75.686L121.374 251.603L10.0831 219.31L1.18848 53.3638Z" fill="#C7B995"/>
<path d="M-106.012 97.3676L1.18839 53.3638L10.083 219.31L-97.118 263.314L-106.012 97.3676Z" fill="#8C7B51"/>
<path d="M-106.012 97.3674L12.6545 115.875L14.1724 295.607L-97.118 263.314L-106.012 97.3674Z" fill="#786636"/>
<path d="M4.45996 114.402L120.06 75.686L121.374 251.603L14.1724 295.608L4.45996 114.402Z" fill="#8C7B51"/>
<path d="M-6.82325 17.448L57.6299 46.5128L120.06 75.6862L4.46001 114.402L-106.012 97.3676L-52.412 75.3659L-6.82325 17.448Z" fill="#9C5E44"/>
<path d="M-6.82325 17.448L4.46 114.402L-106.012 97.3676L-6.82325 17.448Z" fill="#8A523B"/>
<path d="M57.9386 277.839L53.0913 187.402L88.8316 175.966L93.475 262.605L57.9386 277.839Z" fill="#726440" stroke="#9C5E44" stroke-width="0.2"/>
<path d="M89.7995 230.341C89.8561 231.394 88.9961 232.297 87.8786 232.357C86.762 232.417 85.8103 231.611 85.7536 230.558C85.697 229.504 86.557 228.602 87.6745 228.542C88.792 228.482 89.7436 229.288 89.7995 230.341Z" fill="#98B44B"/>
<path d="M20.9795 187.71L19.6963 163.769L54.8227 153.342L56.1059 177.283L20.9795 187.71ZM76.2964 159.878L74.9109 134.029L110.037 123.602L111.422 149.45L76.2964 159.878ZM21.739 138.79L20.7618 120.557L52.7071 113.245L54.9743 131.413L21.739 138.79Z" fill="#70C8C2" stroke="#9C5E44"/>
<path d="M500.072 183.762L495.889 186.239L490.661 185L489.615 312.59L494.844 322.5L493.798 313.829L500.072 312.59L504.254 308.874L513.664 313.829L506.345 307.635L504.254 298.964L505.066 302.331L511.573 302.68L508.436 301.442L505.299 300.203L503.209 295.248L500.072 229.595L523.074 217.208L520.984 214.73L501.117 222.163L500.072 218.446V183.762Z" fill="#613527"/>
<path d="M490.661 185H485.434L481.251 180.045V199.865L476.023 198.626L461.385 186.239L460.339 187.477L469.749 196.149L465.567 193.672L446.747 181.284L444.655 182.522L480.205 209.775L476.023 296.487L473.932 300.202L468.704 302.68H470.795H476.023L479.159 307.635L480.205 310.112V317.545L482.297 312.59H489.615L490.661 185Z" fill="#613527"/>
<path d="M434.933 181.599C425.524 186.554 439.117 201.419 442.253 192.747C451.664 201.419 456.892 182.838 449.572 181.599C454.801 171.689 443.299 163.018 442.253 170.451C427.615 164.257 432.843 179.122 434.933 181.599Z" fill="#2C5A1C"/>
<path d="M472.615 153.129C449.441 169.074 482.918 216.91 490.642 189.006C513.819 216.91 526.695 157.116 508.667 153.129C521.544 121.238 493.218 93.3334 490.642 117.252C454.591 97.3201 467.467 145.156 472.615 153.129Z" fill="#2C5A1C"/>
<path d="M458.975 138.198C435.801 154.143 469.278 201.98 477.001 174.076C500.18 201.98 513.054 142.185 495.027 138.198C507.904 106.308 479.578 78.4031 477.001 102.322C440.951 82.3895 453.827 130.226 458.975 138.198Z" fill="#2C5A1C"/>
<path d="M479.576 138.198C456.402 154.143 489.878 201.98 497.602 174.076C520.78 201.98 533.655 142.185 515.628 138.198C528.505 106.308 500.179 78.4031 497.602 102.322C461.552 82.3895 474.428 130.226 479.576 138.198Z" fill="#2C5A1C"/>
<path d="M98.6958 372.578H124.841L121.189 363.712L258.737 365.39L341.508 366.348V369.463H335.422H396.396L392.606 371.886L396.396 435.46L384.317 445.287L390.394 480.505L254.832 484.167L114.267 482.729L102.67 418.484L106.46 399.068L98.6958 372.578Z" fill="#A9AD81"/>
<path d="M113.583 391.803H86.9862L81.667 372.438V350.833L282.028 358.584L402.599 363.013L402.061 375.726L403.334 389.347L258.978 385.16L113.583 391.803Z" fill="#8D8F6D"/>
<path d="M199.373 423.775L199.398 422.725C199.398 421.542 199.298 420.133 199.098 418.5H204.498C204.498 420.867 204.381 423.033 204.148 425C201.564 425.367 198.889 425.55 196.123 425.55H194.523C193.006 424.9 191.823 423.95 190.973 422.7C190.123 421.433 189.698 420.092 189.698 418.675C189.698 416.792 190.456 415.2 191.973 413.9C193.506 412.583 195.739 411.925 198.673 411.925C200.206 411.925 201.914 412.133 203.798 412.55C203.514 413.683 203.189 414.683 202.823 415.55C201.806 415.617 200.714 415.667 199.548 415.7C199.731 415.133 199.864 414.575 199.948 414.025C199.414 413.925 198.864 413.875 198.298 413.875C197.748 413.875 197.089 413.967 196.323 414.15C196.056 415.283 195.923 416.308 195.923 417.225C195.923 418.608 196.231 419.908 196.848 421.125C197.481 422.325 198.323 423.208 199.373 423.775ZM221.394 416.85L221.369 417.7C220.035 418.417 218.369 418.975 216.369 419.375C217.802 419.758 219.185 419.95 220.519 419.95H221.044C221.96 421.3 222.552 422.983 222.819 425H216.344C216.177 423.833 215.835 422.833 215.319 422C214.819 421.15 214.202 420.575 213.469 420.275C213.452 420.558 213.444 421.125 213.444 421.975C213.444 422.825 213.494 423.833 213.594 425H208.144C207.66 422.583 207.419 420.342 207.419 418.275C207.419 416.192 207.535 414.267 207.769 412.5H220.819C221.202 414.183 221.394 415.633 221.394 416.85ZM213.994 414.175C213.794 415.642 213.644 417.083 213.544 418.5C214.46 418.367 215.21 418.042 215.794 417.525C215.477 416.408 214.877 415.292 213.994 414.175ZM240.744 424.8V425H234.944C234.878 424.05 234.736 423.067 234.519 422.05C233.486 423.1 232.319 424.083 231.019 425H225.194C225.078 424.317 225.019 423.417 225.019 422.3C225.019 421.167 225.186 420.033 225.519 418.9C226.719 418.55 227.869 417.958 228.969 417.125C230.086 416.292 230.894 415.392 231.394 414.425C230.944 413.725 230.469 413.083 229.969 412.5H238.269C239.919 416.083 240.744 420.183 240.744 424.8ZM234.069 420.225C233.636 418.742 233.069 417.342 232.369 416.025C231.586 418.325 231.136 420.5 231.019 422.55C232.219 421.933 233.236 421.158 234.069 420.225ZM257.369 412.5C257.469 414.25 257.519 416.1 257.519 418.05C257.519 419.983 257.436 422.3 257.269 425H254.869C251.636 423.267 248.669 420.908 245.969 417.925C246.103 419.042 246.169 420.192 246.169 421.375C246.169 422.542 246.128 423.75 246.044 425H243.119C243.453 422.95 243.619 421.058 243.619 419.325C243.619 417.575 243.536 416.192 243.369 415.175C242.703 414.175 242.178 413.283 241.794 412.5H248.894C249.594 413.7 250.544 414.942 251.744 416.225C252.961 417.492 254.119 418.483 255.219 419.2C255.219 416.767 254.944 414.533 254.394 412.5H257.369ZM263.89 426.125C264.007 424.825 264.065 423.033 264.065 420.75C264.065 418.45 263.874 415.7 263.49 412.5H270.24C270.274 413.133 270.29 414.108 270.29 415.425C270.29 418.958 270.057 422.15 269.59 425C268.94 425.617 268.34 426.067 267.79 426.35C267.24 426.65 266.865 426.85 266.665 426.95C266.465 427.067 266.107 427.233 265.59 427.45C265.074 427.683 264.765 427.825 264.665 427.875C262.532 427.708 260.715 427.333 259.215 426.75C259.249 425.65 259.299 424.633 259.365 423.7C260.915 424.817 262.424 425.625 263.89 426.125ZM289.622 424.8V425H283.822C283.755 424.05 283.614 423.067 283.397 422.05C282.364 423.1 281.197 424.083 279.897 425H274.072C273.955 424.317 273.897 423.417 273.897 422.3C273.897 421.167 274.064 420.033 274.397 418.9C275.597 418.55 276.747 417.958 277.847 417.125C278.964 416.292 279.772 415.392 280.272 414.425C279.822 413.725 279.347 413.083 278.847 412.5H287.147C288.797 416.083 289.622 420.183 289.622 424.8ZM282.947 420.225C282.514 418.742 281.947 417.342 281.247 416.025C280.464 418.325 280.014 420.5 279.897 422.55C281.097 421.933 282.114 421.158 282.947 420.225ZM300.671 414C300.004 413.9 299.288 413.85 298.521 413.85C297.771 413.85 297.038 413.9 296.321 414C296.771 414.767 297.304 415.392 297.921 415.875C298.538 416.358 299.313 416.842 300.246 417.325C301.196 417.792 301.963 418.225 302.546 418.625C303.146 419.025 303.804 419.683 304.521 420.6C305.238 421.517 305.688 422.475 305.871 423.475C305.071 424.508 304.013 425.417 302.696 426.2C301.379 427 300.029 427.533 298.646 427.8C297.713 427.717 296.529 427.45 295.096 427C293.679 426.567 292.613 426.35 291.896 426.35C291.179 426.35 290.463 426.575 289.746 427.025C290.046 426.175 290.538 425.108 291.221 423.825H291.421C292.488 423.825 293.488 423.992 294.421 424.325C295.371 424.658 296.229 424.992 296.996 425.325C297.779 425.658 298.404 425.825 298.871 425.825C299.354 425.825 299.704 425.792 299.921 425.725C299.921 424.625 299.579 423.717 298.896 423C298.529 422.617 298.213 422.325 297.946 422.125C297.696 421.908 297.304 421.617 296.771 421.25L296.346 420.95C295.213 420.167 294.279 419.375 293.546 418.575C292.813 417.758 292.279 416.758 291.946 415.575C292.479 414.392 293.004 413.367 293.521 412.5C295.104 412.117 296.746 411.925 298.446 411.925H299.546C300.979 411.925 302.621 412.125 304.471 412.525C304.204 413.625 303.879 414.617 303.496 415.5C302.096 415.6 301.013 415.65 300.246 415.65C300.396 415.267 300.538 414.717 300.671 414ZM210.257 442.075C210.257 445.342 209.94 448.817 209.307 452.5H203.332C203.599 450.533 203.774 448.417 203.857 446.15C202.99 445.617 202.024 445.292 200.957 445.175C200.857 447.625 200.59 450.067 200.157 452.5H194.482C194.699 450.867 194.807 448.917 194.807 446.65C194.807 444.367 194.657 442.15 194.357 440H200.957C200.99 440.683 201.007 441.7 201.007 443.05C201.974 443.35 202.932 443.758 203.882 444.275C203.882 442.725 203.824 441.3 203.707 440H210.207C210.24 440.933 210.257 441.625 210.257 442.075ZM228.538 452.3V452.5H222.738C222.671 451.55 222.529 450.567 222.313 449.55C221.279 450.6 220.113 451.583 218.813 452.5H212.988C212.871 451.817 212.813 450.917 212.813 449.8C212.813 448.667 212.979 447.533 213.313 446.4C214.513 446.05 215.663 445.458 216.763 444.625C217.879 443.792 218.688 442.892 219.188 441.925C218.738 441.225 218.263 440.583 217.763 440H226.063C227.713 443.583 228.538 447.683 228.538 452.3ZM221.863 447.725C221.429 446.242 220.863 444.842 220.163 443.525C219.379 445.825 218.929 448 218.813 450.05C220.013 449.433 221.029 448.658 221.863 447.725ZM245.437 441.15C245.437 440.7 245.37 440.317 245.237 440H252.362C252.962 441.6 253.404 443.558 253.687 445.875C253.987 448.192 254.145 450.4 254.162 452.5H248.387C248.27 449.5 247.779 446.608 246.912 443.825C245.462 446.658 244.679 449.55 244.562 452.5H239.662C239.229 449.233 238.395 446.333 237.162 443.8C236.262 445.917 235.812 447.883 235.812 449.7C235.812 450.683 235.929 451.617 236.162 452.5H230.087C229.97 451.817 229.912 450.917 229.912 449.8C229.912 448.667 230.079 447.533 230.412 446.4C231.595 446.05 232.729 445.475 233.812 444.675C234.912 443.875 235.72 443 236.237 442.05C235.804 441.333 235.345 440.65 234.862 440H242.762C243.395 441.717 243.87 443.583 244.187 445.6C245.02 444.05 245.437 442.567 245.437 441.15ZM265.681 445.025L268.031 445.175C268.264 445.175 268.439 445.167 268.556 445.15L267.381 447.35H267.156C266.839 447.35 266.389 447.267 265.806 447.1C265.223 446.917 264.806 446.825 264.556 446.825C263.873 446.825 263.331 447.267 262.931 448.15C262.864 448.967 262.814 449.783 262.781 450.6C263.648 450.767 264.331 450.85 264.831 450.85H265.056C265.773 450.85 266.339 450.692 266.756 450.375C267.189 450.058 267.498 449.492 267.681 448.675L270.681 448.8C270.431 450.233 270.098 451.467 269.681 452.5H257.406C257.073 450.25 256.906 448.017 256.906 445.8C256.906 443.583 257.023 441.65 257.256 440H270.656C270.356 441.8 270.089 443.067 269.856 443.8C268.873 443.85 267.973 443.883 267.156 443.9C267.289 443.517 267.356 443.158 267.356 442.825C267.356 442.025 266.756 441.625 265.556 441.625C265.106 441.625 264.606 441.675 264.056 441.775C263.689 443.358 263.406 444.75 263.206 445.95C263.873 445.333 264.698 445.025 265.681 445.025ZM278.929 450.575C279.712 450.758 280.462 450.85 281.179 450.85C281.895 450.85 282.462 450.692 282.879 450.375C283.312 450.042 283.629 449.475 283.829 448.675L286.829 448.775C286.579 450.275 286.245 451.517 285.829 452.5H273.554C273.237 450.367 273.079 448.158 273.079 445.875C273.079 443.592 273.195 441.633 273.429 440H280.629C279.529 444.217 278.962 447.742 278.929 450.575ZM293.968 450.575C294.751 450.758 295.501 450.85 296.218 450.85C296.934 450.85 297.501 450.692 297.918 450.375C298.351 450.042 298.668 449.475 298.868 448.675L301.868 448.775C301.618 450.275 301.284 451.517 300.868 452.5H288.593C288.276 450.367 288.118 448.158 288.118 445.875C288.118 443.592 288.234 441.633 288.468 440H295.668C294.568 444.217 294.001 447.742 293.968 450.575Z" fill="black"/>
<path d="M12.9072 35.6651H27.6051L25.5521 29.9573L102.878 31.0371L149.41 31.6542V33.6596H145.989H180.267L178.136 35.2189L180.267 76.1448L173.477 82.4707L176.893 105.143L100.683 107.5L21.6608 106.574L15.1411 65.2169L17.2718 52.7178L12.9072 35.6651Z" fill="#A9AD81"/>
<path d="M21.2758 48.0414H6.32389L3.3335 35.5751V21.6667L115.972 26.6566L183.753 29.5079L183.451 37.6915L184.167 46.4598L103.013 43.7645L21.2758 48.0414Z" fill="#8D8F6D"/>
<path d="M52.3731 55.0146C51.7898 54.9146 51.2231 54.8646 50.6731 54.8646C50.1398 54.8646 49.4898 54.9562 48.7231 55.1396C48.4731 56.1896 48.3481 57.2145 48.3481 58.2145C48.3481 60.7979 49.4981 62.7812 51.7981 64.1645C53.3315 63.1479 54.7148 61.8812 55.9481 60.3645C55.9981 61.0312 56.0398 62.0479 56.0731 63.4146C54.8398 64.3812 53.5815 65.1395 52.2981 65.6895C51.0148 66.2395 49.4148 66.5145 47.4981 66.5145H46.9231C45.4231 65.8645 44.2398 64.9062 43.3731 63.6395C42.5231 62.3729 42.0981 61.0395 42.0981 59.6395C42.0981 57.7729 42.8648 56.1895 44.3981 54.8895C45.9315 53.5729 48.1565 52.9146 51.0731 52.9146C52.7065 52.9146 54.4148 53.1229 56.1981 53.5395C55.9315 54.5895 55.5981 55.5812 55.1981 56.5145C54.1481 56.6145 53.0648 56.6645 51.9481 56.6645C52.1148 56.1979 52.2565 55.6479 52.3731 55.0146ZM74.1941 65.7896V65.9895H68.3941C68.3274 65.0729 68.1857 64.0895 67.9691 63.0395C66.8024 64.2062 65.6357 65.1895 64.4691 65.9895H58.6441C58.5274 65.3062 58.4691 64.4062 58.4691 63.2896C58.4691 62.1562 58.6357 61.0229 58.9691 59.8895C60.1691 59.5395 61.3191 58.9479 62.4191 58.1146C63.5357 57.2812 64.3441 56.3812 64.8441 55.4145C64.3774 54.6812 63.9024 54.0395 63.4191 53.4895H71.7191C73.3691 57.1062 74.1941 61.2062 74.1941 65.7896ZM67.5191 61.2145C67.1024 59.7812 66.5357 58.3812 65.8191 57.0146C65.0357 59.3146 64.5857 61.4895 64.4691 63.5395C65.7024 62.8729 66.7191 62.0979 67.5191 61.2145ZM85.2192 54.9896C84.5526 54.8896 83.8359 54.8396 83.0692 54.8396C82.3192 54.8396 81.5859 54.8896 80.8692 54.9896C81.3192 55.7562 81.8526 56.3812 82.4692 56.8646C83.0859 57.3479 83.8609 57.8312 84.7942 58.3146C85.7442 58.7812 86.5109 59.2145 87.0942 59.6145C87.6942 60.0145 88.3526 60.6729 89.0692 61.5896C89.7859 62.5062 90.2359 63.4645 90.4192 64.4645C89.6192 65.4979 88.5609 66.4062 87.2442 67.1896C85.9276 67.9896 84.5776 68.5229 83.1942 68.7895C82.2609 68.7062 81.0776 68.4396 79.6442 67.9896C78.2276 67.5562 77.1609 67.3396 76.4442 67.3396C75.7276 67.3396 75.0109 67.5645 74.2942 68.0145C74.5942 67.1645 75.0859 66.0979 75.7692 64.8145H75.9692C77.0359 64.8145 78.0359 64.9812 78.9692 65.3146C79.9192 65.6479 80.7776 65.9812 81.5442 66.3145C82.3276 66.6479 82.9526 66.8145 83.4192 66.8145C83.9026 66.8145 84.2526 66.7812 84.4692 66.7146C84.4692 65.6146 84.1276 64.7062 83.4442 63.9895C83.0776 63.6062 82.7609 63.3146 82.4942 63.1146C82.2442 62.8979 81.8526 62.6062 81.3192 62.2395L80.8942 61.9395C79.7609 61.1562 78.8276 60.3646 78.0942 59.5646C77.3609 58.7479 76.8276 57.7479 76.4942 56.5646C77.0276 55.3812 77.5526 54.3562 78.0692 53.4895C79.6526 53.1062 81.2942 52.9146 82.9942 52.9146H84.0942C85.5276 52.9146 87.1692 53.1145 89.0192 53.5145C88.7526 54.6145 88.4276 55.6062 88.0442 56.4895C86.6442 56.5895 85.5609 56.6395 84.7942 56.6395C84.9442 56.2562 85.0859 55.7062 85.2192 54.9896ZM107.763 65.7896V65.9895H101.963C101.897 65.0729 101.755 64.0895 101.538 63.0395C100.372 64.2062 99.2051 65.1895 98.0384 65.9895H92.2134C92.0967 65.3062 92.0384 64.4062 92.0384 63.2896C92.0384 62.1562 92.2051 61.0229 92.5384 59.8895C93.7384 59.5395 94.8884 58.9479 95.9884 58.1146C97.1051 57.2812 97.9134 56.3812 98.4134 55.4145C97.9467 54.6812 97.4717 54.0395 96.9884 53.4895H105.288C106.938 57.1062 107.763 61.2062 107.763 65.7896ZM101.088 61.2145C100.672 59.7812 100.105 58.3812 99.3884 57.0146C98.6051 59.3146 98.1551 61.4895 98.0384 63.5395C99.2717 62.8729 100.288 62.0979 101.088 61.2145ZM124.828 52.9146C128.045 52.9146 130.662 53.3145 132.678 54.1145C133.395 55.5479 133.753 56.9979 133.753 58.4646C133.753 60.3479 133.112 61.9812 131.828 63.3645C129.962 65.3479 127.437 66.3395 124.253 66.3395C123.153 66.3395 121.662 66.2146 119.778 65.9646C119.128 62.6146 118.803 59.5229 118.803 56.6895C118.803 55.7062 118.853 54.6395 118.953 53.4895C121.637 53.1062 123.595 52.9146 124.828 52.9146ZM125.578 54.7895C125.278 57.9229 125.128 60.1729 125.128 61.5396C125.128 62.8896 125.153 63.9896 125.203 64.8396C126.103 64.3562 126.803 63.5479 127.303 62.4145C127.82 61.2645 128.078 60.1062 128.078 58.9396C128.078 57.7562 127.862 56.7895 127.428 56.0395C127.012 55.2895 126.395 54.8729 125.578 54.7895ZM145.273 58.5145L147.623 58.6645C147.857 58.6645 148.032 58.6562 148.148 58.6395L146.973 60.8395H146.748C146.432 60.8395 145.982 60.7562 145.398 60.5895C144.815 60.4062 144.398 60.3146 144.148 60.3146C143.465 60.3146 142.923 60.7562 142.523 61.6395C142.457 62.4562 142.407 63.2729 142.373 64.0896C143.24 64.2562 143.923 64.3395 144.423 64.3395H144.648C145.365 64.3395 145.932 64.1812 146.348 63.8645C146.782 63.5479 147.09 62.9812 147.273 62.1646L150.273 62.2895C150.023 63.7229 149.69 64.9562 149.273 65.9895H136.998C136.665 63.7395 136.498 61.5062 136.498 59.2895C136.498 57.0729 136.615 55.1395 136.848 53.4895H150.248C149.948 55.2895 149.682 56.5562 149.448 57.2895C148.465 57.3395 147.565 57.3729 146.748 57.3895C146.882 57.0062 146.948 56.6479 146.948 56.3145C146.948 55.5145 146.348 55.1145 145.148 55.1145C144.698 55.1145 144.198 55.1645 143.648 55.2645C143.282 56.8479 142.998 58.2395 142.798 59.4395C143.465 58.8229 144.29 58.5145 145.273 58.5145ZM78.4462 91.8641C79.5796 91.8641 80.5046 91.7725 81.2212 91.5891C80.9212 89.7391 80.0712 88.3641 78.6712 87.4641C78.5212 88.9475 78.4462 90.4141 78.4462 91.8641ZM72.1462 85.9891C72.1462 84.2391 72.3046 82.5729 72.6212 80.9895H86.4959C85.7459 83.3229 84.3126 85.0141 82.1962 86.0641C84.1126 86.7475 85.6459 87.6975 86.7959 88.9141C86.6459 90.4641 86.2876 91.9891 85.7209 93.4891H73.1462C72.4796 91.1725 72.1462 88.6725 72.1462 85.9891ZM78.8712 85.7391C79.6879 85.5225 80.4462 85.1475 81.1462 84.6141C81.8462 84.0808 82.3462 83.4225 82.6462 82.6396C81.3129 82.6396 80.2296 82.6812 79.3962 82.7645C79.1962 83.7308 79.0212 84.7225 78.8712 85.7391ZM98.1542 86.0141L100.504 86.1641C100.738 86.1641 100.913 86.1558 101.029 86.1391L99.8542 88.3391H99.6292C99.3126 88.3391 98.8626 88.2558 98.2792 88.0891C97.6959 87.9058 97.2792 87.8141 97.0292 87.8141C96.3459 87.8141 95.8042 88.2558 95.4042 89.1391C95.3376 89.9558 95.2876 90.7725 95.2542 91.5891C96.1209 91.7558 96.8042 91.8391 97.3042 91.8391H97.5292C98.2459 91.8391 98.8126 91.6808 99.2292 91.3641C99.6626 91.0475 99.9709 90.4808 100.154 89.6641L103.154 89.7891C102.904 91.2225 102.571 92.4558 102.154 93.4891H89.8792C89.5459 91.2391 89.3792 89.0058 89.3792 86.7891C89.3792 84.5725 89.4959 82.6395 89.7292 80.9895H103.129C102.829 82.7895 102.563 84.0558 102.329 84.7891C101.346 84.8391 100.446 84.8725 99.6292 84.8891C99.7626 84.5058 99.8292 84.1475 99.8292 83.8141C99.8292 83.0146 99.2292 82.6145 98.0292 82.6145C97.5792 82.6145 97.0792 82.6645 96.5292 82.7645C96.1626 84.3475 95.8792 85.7391 95.6792 86.9391C96.3459 86.3225 97.1709 86.0141 98.1542 86.0141ZM120.702 80.9895C120.802 82.7395 120.852 84.5891 120.852 86.5391C120.852 88.4725 120.768 90.7891 120.602 93.4891H118.202C114.968 91.7558 112.002 89.3975 109.302 86.4141C109.435 87.5308 109.502 88.6808 109.502 89.8641C109.502 91.0308 109.46 92.2391 109.377 93.4891H106.452C106.785 91.4391 106.952 89.5475 106.952 87.8141C106.952 86.0641 106.868 84.6808 106.702 83.6641C106.035 82.6646 105.51 81.7729 105.127 80.9895H112.227C112.927 82.1895 113.877 83.4308 115.077 84.7141C116.293 85.9808 117.452 86.9725 118.552 87.6891C118.552 85.2558 118.277 83.0229 117.727 80.9895H120.702Z" fill="black"/>
</g>
<path d="M487.5 4.16675H12.4998C7.89746 4.16675 4.1665 7.89771 4.1665 12.5001V487.5C4.1665 492.102 7.89746 495.833 12.4998 495.833H487.5C492.102 495.833 495.833 492.102 495.833 487.5V12.5001C495.833 7.89771 492.102 4.16675 487.5 4.16675Z" stroke="#A9AD81" stroke-width="10"/>
</g>
<defs>
<filter id="filter0_d_342_29071" x="272.002" y="77.4778" width="213.993" height="120.962" filterUnits="userSpaceOnUse" color-interpolation-filters="sRGB">
<feFlood flood-opacity="0" result="BackgroundImageFix"/>
<feColorMatrix in="SourceAlpha" type="matrix" values="0 0 0 0 0 0 0 0 0 0 0 0 0 0 0 0 0 0 127 0" result="hardAlpha"/>
<feOffset dy="4"/>
<feGaussianBlur stdDeviation="2"/>
<feComposite in2="hardAlpha" operator="out"/>
<feColorMatrix type="matrix" values="0 0 0 0 0 0 0 0 0 0 0 0 0 0 0 0 0 0 0.25 0"/>
<feBlend mode="normal" in2="BackgroundImageFix" result="effect1_dropShadow_342_29071"/>
<feBlend mode="normal" in="SourceGraphic" in2="effect1_dropShadow_342_29071" result="shape"/>
</filter>
<filter id="filter1_d_342_29071" x="267.002" y="-28.3555" width="213.993" height="120.961" filterUnits="userSpaceOnUse" color-interpolation-filters="sRGB">
<feFlood flood-opacity="0" result="BackgroundImageFix"/>
<feColorMatrix in="SourceAlpha" type="matrix" values="0 0 0 0 0 0 0 0 0 0 0 0 0 0 0 0 0 0 127 0" result="hardAlpha"/>
<feOffset dy="4"/>
<feGaussianBlur stdDeviation="2"/>
<feComposite in2="hardAlpha" operator="out"/>
<feColorMatrix type="matrix" values="0 0 0 0 0 0 0 0 0 0 0 0 0 0 0 0 0 0 0.25 0"/>
<feBlend mode="normal" in2="BackgroundImageFix" result="effect1_dropShadow_342_29071"/>
<feBlend mode="normal" in="SourceGraphic" in2="effect1_dropShadow_342_29071" result="shape"/>
</filter>
<filter id="filter2_d_342_29071" x="-27.9678" y="10.783" width="147.084" height="133.851" filterUnits="userSpaceOnUse" color-interpolation-filters="sRGB">
<feFlood flood-opacity="0" result="BackgroundImageFix"/>
<feColorMatrix in="SourceAlpha" type="matrix" values="0 0 0 0 0 0 0 0 0 0 0 0 0 0 0 0 0 0 127 0" result="hardAlpha"/>
<feOffset dy="4"/>
<feGaussianBlur stdDeviation="2"/>
<feComposite in2="hardAlpha" operator="out"/>
<feColorMatrix type="matrix" values="0 0 0 0 0 0 0 0 0 0 0 0 0 0 0 0 0 0 0.25 0"/>
<feBlend mode="normal" in2="BackgroundImageFix" result="effect1_dropShadow_342_29071"/>
<feBlend mode="normal" in="SourceGraphic" in2="effect1_dropShadow_342_29071" result="shape"/>
</filter>
<filter id="filter3_d_342_29071" x="-16.7866" y="117.346" width="152.232" height="117.892" filterUnits="userSpaceOnUse" color-interpolation-filters="sRGB">
<feFlood flood-opacity="0" result="BackgroundImageFix"/>
<feColorMatrix in="SourceAlpha" type="matrix" values="0 0 0 0 0 0 0 0 0 0 0 0 0 0 0 0 0 0 127 0" result="hardAlpha"/>
<feOffset dy="4"/>
<feGaussianBlur stdDeviation="2"/>
<feComposite in2="hardAlpha" operator="out"/>
<feColorMatrix type="matrix" values="0 0 0 0 0 0 0 0 0 0 0 0 0 0 0 0 0 0 0.25 0"/>
<feBlend mode="normal" in2="BackgroundImageFix" result="effect1_dropShadow_342_29071"/>
<feBlend mode="normal" in="SourceGraphic" in2="effect1_dropShadow_342_29071" result="shape"/>
</filter>
<clipPath id="clip0_342_29071">
<rect width="500" height="500" fill="white"/>
</clipPath>
</defs>
</svg>
