<svg width="500" height="500" viewBox="0 0 500 500" fill="none" xmlns="http://www.w3.org/2000/svg">
<g clip-path="url(#clip0_342_29387)">
<mask id="mask0_342_29387" style="mask-type:luminance" maskUnits="userSpaceOnUse" x="0" y="0" width="500" height="500">
<path d="M487.5 0H12.5C5.59644 0 0 5.59644 0 12.5V487.5C0 494.404 5.59644 500 12.5 500H487.5C494.404 500 500 494.404 500 487.5V12.5C500 5.59644 494.404 0 487.5 0Z" fill="white"/>
</mask>
<g mask="url(#mask0_342_29387)">
<path d="M500 0H0V500H500V0Z" fill="#635634"/>
<g filter="url(#filter0_f_342_29387)">
<path d="M-0.833496 202.5H500V500H-0.833496V202.5Z" fill="url(#paint0_linear_342_29387)"/>
<path d="M-0.791748 202.542H499.958V499.958H-0.791748V202.542Z" stroke="black" stroke-width="0.1"/>
<path d="M-0.791748 202.542H499.958V499.958H-0.791748V202.542Z" stroke="black" stroke-opacity="0.2" stroke-width="0.1"/>
</g>
<path d="M25.8333 0.416748H-2.91675L-8.14497e-05 499.167L25.8333 201.667V0.416748Z" fill="#8C7B51"/>
<path d="M31.4494 243.544L38.8661 247.427L53.3114 233.969L51.4135 227.247L54.318 224.301L55.0734 227.398L56.9324 231.307L71.3594 247.487L83.559 264.087L86.4057 260.372L91.789 264.937L109.412 282.015L119.868 296.242L135.167 310.159L129.687 315.81L120.992 322.606L103.06 289.929L86.6199 279.287L83.9857 281.223L82.0109 282.675L92.1974 297.913L101.667 312.867L112.879 330.192L110.401 336.477L99.3824 340.112L91.404 319.598L81.2177 304.36L71.8838 295.799L64.7575 288.862L61.0781 283.857L65.0284 280.953L35.4969 251.12L33.5604 248.486L31.5464 247.125L28.603 247.259L31.4494 243.544Z" fill="#406A9C"/>
<path d="M139.166 62.9167H233.792V106.742H139.166V62.9167ZM133.333 -15H227.959V12.9919H133.333V-15ZM328.75 3.40861H423.375V47.2339H328.75V3.40861Z" fill="#72ABDF" stroke="#9C5E44" stroke-width="4"/>
<g filter="url(#filter1_d_342_29387)">
<path d="M87.9066 148.688L31.7998 169.179L32.992 242.56L43.1256 240.898V214.788V193.306L110.772 281.563L114.017 330.213L121.219 338.146L127.372 334.179L124.627 286.588V289.013L194.145 267.669V300.389L198.359 307.66L207.897 304.765L206.407 257.754L87.9066 148.688Z" fill="#A56363"/>
<path d="M87.8325 147.035L206.455 258.745L124.194 284.855L31.2036 168.188L87.8325 147.035Z" fill="#7D85A5"/>
<path d="M89.8 137.451L29.0691 167.527L31.6128 162.238L42.9323 193.32L37.2089 189.354L112.376 163.891L113.648 170.171L82.805 137.451H89.8Z" fill="#D9D9D9"/>
<path d="M105.071 155.958C105.071 167.458 123.252 163.108 69.3058 178.103C57.6817 182.069 40.0969 198.593 36.521 181.199C33.2418 171.823 19.5317 161.247 69.3058 143.852C84.8035 135.468 105.071 144.459 105.071 155.958Z" fill="#D9D9D9"/>
<path d="M115.801 170.501H105.071L91.6594 174.798L66.027 176.45L42.7793 192.314L49.3364 224.593L58.8739 234.618L62.7485 241.89L73.4781 249.491L78.2469 261.059L90.7652 269.391L93.8944 277.914L100.849 281.031L93.8944 323.359L108.499 309.25L118.93 327.239L127.971 313.483L138.75 341.702L142.923 327.239L130.405 292.318L175.609 286.675L215.944 269.391L181.52 224.593L115.801 170.501Z" fill="#353B53"/>
</g>
<path d="M258.107 201.812L257.165 78.3335H326.746V201.812H258.107Z" fill="#726440" stroke="#9C5E44"/>
<path d="M319.583 162.5C321.654 162.5 323.333 160.635 323.333 158.333C323.333 156.032 321.654 154.167 319.583 154.167C317.512 154.167 315.833 156.032 315.833 158.333C315.833 160.635 317.512 162.5 319.583 162.5Z" fill="#90B723"/>
<path d="M463.75 0H500V508.75L463.75 201.667V0Z" fill="#8C7B51"/>
<path d="M468.754 242.516L487.291 138.708L514.136 185.889L476.855 322.313L468.754 242.516Z" fill="#9F7C99" stroke="#9C4498"/>
<path d="M492.083 254.167C494.154 254.167 495.833 252.301 495.833 250C495.833 247.699 494.154 245.833 492.083 245.833C490.012 245.833 488.333 247.699 488.333 250C488.333 252.301 490.012 254.167 492.083 254.167Z" fill="#90B723"/>
<path d="M412.545 65H360.878V139.167H412.545V65Z" fill="#72ABDF"/>
<path d="M412.545 99.1667H360.878V139.167H412.545V99.1667Z" fill="#318D4B"/>
<path d="M357.545 115.833L414.628 102.917L415.561 77.3062L358.378 85.8333L357.545 115.833Z" fill="#BC6D6D"/>
<path d="M410.927 93.4016C410.948 93.6116 410.808 93.8032 410.603 93.8491L405.862 94.9024C405.623 94.9557 405.388 94.7916 405.358 94.5474L405.127 92.7057C405.103 92.5099 405.219 92.3232 405.406 92.2599L410.144 90.6482C410.398 90.5616 410.667 90.7349 410.693 91.0024L410.927 93.4016Z" fill="#CA6464"/>
<path d="M399.541 95.0274C399.559 95.2199 399.444 95.3991 399.262 95.4624L394.829 96.9882C394.593 97.0699 394.339 96.9266 394.286 96.6824L393.773 94.3182C393.728 94.1116 393.846 93.9041 394.047 93.8357L398.754 92.2349C399.008 92.1482 399.277 92.3216 399.303 92.5882L399.541 95.0274Z" fill="#CA6464"/>
<path d="M394.964 92.6217C394.984 92.8317 394.844 93.0234 394.639 93.0692L389.899 94.1234C389.659 94.1767 389.425 94.0117 389.394 93.7684L389.164 91.9267C389.139 91.7301 389.255 91.5442 389.443 91.4801L394.18 89.8684C394.435 89.7826 394.704 89.9551 394.729 90.2226L394.964 92.6217Z" fill="#CA6464"/>
<path d="M395.216 100.749C395.235 100.95 395.108 101.136 394.914 101.191L390.17 102.525C389.923 102.595 389.672 102.425 389.643 102.169L389.408 100.029C389.387 99.835 389.503 99.6525 389.688 99.5892L394.431 97.9759C394.685 97.8892 394.954 98.0625 394.98 98.33L395.216 100.749Z" fill="#CA6464"/>
<path d="M384.866 99.4058C384.877 99.6008 384.751 99.7783 384.562 99.8316L380.929 100.853C380.677 100.924 380.423 100.748 380.401 100.487L380.312 99.4258C380.297 99.2466 380.397 99.0783 380.562 99.0075L384.192 97.4533C384.458 97.34 384.756 97.5241 384.772 97.8116L384.866 99.4058Z" fill="#CA6464"/>
<path d="M403.06 97.9093C403.115 98.1076 403.017 98.3168 402.829 98.401L399.649 99.8268C399.394 99.9418 399.1 99.7768 399.066 99.4985L398.845 97.7443C398.822 97.5559 398.928 97.3759 399.104 97.3051L402.082 96.1176C402.312 96.026 402.572 96.1543 402.637 96.3926L403.06 97.9093Z" fill="#CA6464"/>
<path d="M383.905 92.5934C383.961 92.7917 383.862 93.0009 383.674 93.085L380.495 94.5109C380.24 94.6259 379.946 94.4609 379.911 94.1825L379.691 92.4284C379.667 92.24 379.774 92.06 379.95 91.9892L382.927 90.8017C383.158 90.71 383.417 90.8384 383.483 91.0767L383.905 92.5934Z" fill="#CA6464"/>
<path d="M377.655 95.6776C377.71 95.8768 377.611 96.0859 377.423 96.1701L374.244 97.5959C373.989 97.7101 373.695 97.5451 373.661 97.2676L373.44 95.5126C373.416 95.3251 373.523 95.1442 373.699 95.0742L376.676 93.8859C376.907 93.7943 377.166 93.9226 377.232 94.1618L377.655 95.6776Z" fill="#CA6464"/>
<path d="M381.318 97.265C381.373 97.4633 381.275 97.6725 381.087 97.7567L377.908 99.1825C377.652 99.2975 377.359 99.1325 377.324 98.8542L377.104 97.1C377.08 96.9117 377.186 96.7308 377.363 96.6608L380.341 95.4733C380.571 95.3817 380.83 95.51 380.896 95.7483L381.318 97.265Z" fill="#CA6464"/>
<path d="M379.027 102.474C379.083 102.678 378.977 102.893 378.781 102.972L375.92 104.123C375.666 104.226 375.385 104.06 375.351 103.789L375.13 102.028C375.105 101.833 375.221 101.647 375.407 101.583L378.066 100.668C378.292 100.59 378.538 100.719 378.602 100.95L379.027 102.474Z" fill="#CA6464"/>
<path d="M391.88 97.6142C391.9 97.8234 391.761 98.0159 391.556 98.0617L386.814 99.1151C386.575 99.1684 386.341 99.0042 386.311 98.76L386.08 96.9184C386.055 96.7226 386.172 96.5359 386.359 96.4725L391.097 94.8609C391.351 94.7742 391.62 94.9476 391.646 95.2151L391.88 97.6142Z" fill="#CA6464"/>
<path d="M412.249 87.6257C412.306 87.8307 412.2 88.0457 412.003 88.1249L405.978 90.5324C405.725 90.6332 405.444 90.4682 405.41 90.1974L405.188 88.4274C405.164 88.2357 405.275 88.0516 405.457 87.9849L411.283 85.8341C411.511 85.7491 411.763 85.8782 411.828 86.1132L412.249 87.6257Z" fill="#CA6464"/>
<path d="M401.766 89.9133C401.784 90.1058 401.668 90.2858 401.485 90.3483L397 91.8741C396.761 91.9558 396.506 91.8083 396.456 91.5608L395.99 89.2C395.95 88.9958 396.067 88.7925 396.265 88.725L400.979 87.1216C401.233 87.035 401.501 87.2083 401.528 87.4758L401.766 89.9133Z" fill="#CA6464"/>
<path d="M411.935 81.8436C411.933 82.0379 411.796 82.2044 411.606 82.245L405.591 83.53C405.378 83.5759 405.165 83.4484 405.104 83.2386L404.613 81.5475C404.554 81.3448 404.656 81.1302 404.85 81.0477L411.402 78.266C411.679 78.1483 411.986 78.3545 411.982 78.6556L411.935 81.8436Z" fill="#CA6464"/>
<path d="M398.457 86.6608C398.497 86.8658 398.379 87.0683 398.182 87.1358L393.728 88.6508C393.49 88.7316 393.234 88.5841 393.186 88.3366L392.715 85.9558C392.677 85.7599 392.782 85.5641 392.967 85.4891L397.372 83.6949C397.614 83.5958 397.887 83.7433 397.937 84.0008L398.457 86.6608Z" fill="#CA6464"/>
<path d="M403.262 84.0051C403.318 84.2034 403.219 84.4126 403.031 84.4968L399.852 85.9234C399.597 86.0376 399.303 85.8726 399.268 85.5951L399.048 83.8401C399.024 83.6518 399.131 83.4718 399.307 83.4018L402.284 82.2137C402.515 82.1218 402.773 82.2502 402.84 82.489L403.262 84.0051Z" fill="#CA6464"/>
<path d="M407.97 85.6068C408.025 85.8051 407.927 86.0143 407.739 86.0985L404.56 87.5243C404.304 87.6393 404.011 87.4743 403.976 87.1968L403.756 85.4418C403.732 85.2534 403.838 85.0734 404.015 85.0026L406.993 83.8151C407.223 83.7235 407.482 83.8518 407.548 84.0909L407.97 85.6068Z" fill="#CA6464"/>
<path d="M410.959 84.5775C411.027 84.8334 410.842 85.0859 410.578 85.0992L409.03 85.1775C408.828 85.1875 408.647 85.0509 408.603 84.8525L408.429 84.0817C408.377 83.85 408.529 83.6217 408.763 83.58L410.234 83.3192C410.448 83.2813 410.655 83.4142 410.71 83.6242L410.959 84.5775Z" fill="#CA6464"/>
<path d="M404.297 93.3457C404.315 93.5374 404.2 93.7166 404.018 93.7799L401.129 94.7799C400.893 94.8616 400.638 94.7182 400.585 94.4741L400.073 92.1107C400.028 91.9041 400.145 91.6957 400.346 91.6282L403.51 90.5516C403.764 90.4649 404.033 90.6382 404.058 90.9057L404.297 93.3457Z" fill="#CA6464"/>
<path d="M391.951 89.3091C392 89.5107 391.893 89.7182 391.701 89.7949L386.975 91.6816C386.721 91.7824 386.441 91.6166 386.407 91.3466L386.181 89.5482C386.159 89.3691 386.254 89.1966 386.417 89.1199L390.879 87.0216C391.117 86.9099 391.399 87.0441 391.461 87.2999L391.951 89.3091Z" fill="#CA6464"/>
<path d="M388.417 94.3167C388.443 94.5092 388.333 94.695 388.152 94.7633L383.397 96.5675C383.144 96.6633 382.869 96.4975 382.835 96.2292L382.613 94.4592C382.588 94.2633 382.705 94.0767 382.892 94.0125L387.651 92.3942C387.898 92.31 388.162 92.4725 388.197 92.7317L388.417 94.3167Z" fill="#CA6464"/>
<path d="M387.561 103.144C387.581 103.35 387.447 103.54 387.246 103.589L381.761 104.942C381.518 105.002 381.278 104.837 381.247 104.589L381.017 102.755C380.993 102.56 381.107 102.375 381.293 102.31L386.774 100.389C387.029 100.299 387.3 100.473 387.327 100.742L387.561 103.144Z" fill="#CA6464"/>
<path d="M376.543 99.7249C376.568 99.9191 376.454 100.105 376.27 100.172L371.517 101.882C371.266 101.972 370.995 101.807 370.963 101.542L370.739 99.7624C370.714 99.5657 370.831 99.3791 371.018 99.3157L375.773 97.6982C376.022 97.6141 376.286 97.7782 376.32 98.0382L376.543 99.7249Z" fill="#CA6464"/>
<path d="M377.915 107.288C377.935 107.495 377.801 107.684 377.6 107.733L372.115 109.086C371.873 109.146 371.633 108.981 371.601 108.733L371.371 106.899C371.347 106.704 371.462 106.519 371.647 106.454L377.128 104.533C377.383 104.444 377.655 104.617 377.681 104.886L377.915 107.288Z" fill="#CA6464"/>
<path d="M372.296 104.674C372.353 104.879 372.247 105.094 372.05 105.173L368.139 106.736C367.886 106.837 367.605 106.671 367.571 106.401L367.349 104.635C367.325 104.441 367.439 104.256 367.623 104.191L371.333 102.875C371.561 102.794 371.809 102.923 371.874 103.156L372.296 104.674Z" fill="#CA6464"/>
<path d="M371.912 97.6475C371.983 97.8566 371.877 98.0858 371.672 98.1675L367.78 99.7225C367.527 99.8233 367.246 99.6575 367.213 99.3875L367.074 98.2791C367.049 98.085 367.164 97.9 367.348 97.835L371.08 96.5108C371.299 96.4333 371.539 96.55 371.614 96.77L371.912 97.6475Z" fill="#CA6464"/>
<path d="M375.057 103.657C375.123 103.913 374.938 104.165 374.674 104.178L373.127 104.257C372.924 104.267 372.744 104.13 372.699 103.932L372.526 103.161C372.474 102.929 372.626 102.701 372.86 102.659L374.331 102.398C374.545 102.361 374.752 102.493 374.807 102.703L375.057 103.657Z" fill="#CA6464"/>
<path d="M369.201 101.877C369.256 102.088 369.139 102.306 368.933 102.377L364.725 103.825C364.49 103.906 364.237 103.765 364.182 103.522L364.016 102.781C363.971 102.582 364.076 102.382 364.264 102.304L368.381 100.611C368.614 100.515 368.878 100.647 368.942 100.891L369.201 101.877Z" fill="#CA6464"/>
<path d="M369.601 108.968C369.656 109.179 369.54 109.397 369.333 109.467L365.125 110.916C364.89 110.997 364.638 110.856 364.583 110.613L364.416 109.872C364.372 109.673 364.476 109.472 364.664 109.395L368.781 107.702C369.014 107.606 369.279 107.737 369.343 107.982L369.601 108.968Z" fill="#CA6464"/>
<path d="M366.434 106.546C366.49 106.757 366.373 106.974 366.167 107.045L361.958 108.493C361.723 108.574 361.471 108.433 361.417 108.191L361.249 107.449C361.205 107.251 361.31 107.05 361.498 106.973L365.614 105.279C365.848 105.183 366.113 105.315 366.176 105.559L366.434 106.546Z" fill="#CA6464"/>
<path d="M364.193 112.503C364.248 112.713 364.131 112.931 363.925 113.002L361.034 113.997L360.763 112.79C360.719 112.597 360.818 112.399 360.998 112.318L363.813 111.054L364.193 112.503Z" fill="#CA6464"/>
<path d="M366.021 100.296C366.076 100.507 365.958 100.727 365.75 100.796L362.165 101.996C361.931 102.074 361.68 101.933 361.626 101.692L361.458 100.947C361.413 100.748 361.518 100.547 361.706 100.47L365.201 99.0324C365.435 98.9366 365.7 99.0683 365.763 99.3124L366.021 100.296Z" fill="#CA6464"/>
<path d="M385.878 69.5833L410.045 75.8333L408.378 114.167L385.878 105.833V69.5833Z" fill="#C7B995"/>
<path d="M363.378 77.9166L385.878 69.5833V105.833L363.378 114.167V77.9166Z" fill="#8C7B51"/>
<path d="M363.378 77.9167L387.545 83.3334L385.878 122.5L363.378 114.167V77.9167Z" fill="#786636"/>
<path d="M385.878 82.9166L410.045 75.8333L408.378 114.167L385.878 122.5V82.9166Z" fill="#8C7B51"/>
<path d="M384.628 61.6667L397.545 68.7501L410.045 75.8334L385.878 82.9167L363.378 77.9167L374.628 73.7501L384.628 61.6667Z" fill="#9C5E44"/>
<path d="M384.628 61.6667L385.878 82.9167L363.378 77.9167L384.628 61.6667Z" fill="#8A523B"/>
<path d="M395.045 99.3717L402.545 97.2883V116.25L395.045 119.167V99.3717Z" fill="#726440"/>
<path d="M402.128 109.167C402.128 109.397 401.942 109.583 401.712 109.583C401.482 109.583 401.295 109.397 401.295 109.167C401.295 108.937 401.482 108.75 401.712 108.75C401.942 108.75 402.128 108.937 402.128 109.167Z" fill="#98B44B"/>
<path d="M369.628 101.218V90.9199L378.783 92.3124L378.397 103.506L369.628 101.218Z" fill="#70C8C2" stroke="#9C5E44"/>
<path d="M388.795 98.6566V94.0999L395.462 92.4066V96.9641L388.795 98.6566ZM400.462 93.2399V88.2666L407.128 86.5732V91.5474L400.462 93.2399ZM389.49 88.0416V84.7182L395.494 83.6157L395.716 86.9424L389.49 88.0416Z" fill="#70C8C2" stroke="#9C5E44"/>
<path d="M373.795 102.917L374.212 91.25" stroke="#9C5E44"/>
<path d="M369.311 96.9175L378.928 98.3075" stroke="#9C5E44"/>
<path d="M374.697 156.898C376.445 157.578 377.154 159.167 376.008 159.167C374.862 159.167 369.999 158.213 369.999 156.898C369.999 155.582 370.929 154.517 372.075 154.517C373.222 154.517 374.697 155.582 374.697 156.898Z" fill="#693F3F"/>
<path d="M382.126 155.764C383.874 156.445 384.583 158.033 383.437 158.033C382.291 158.033 377.428 157.079 377.428 155.764C377.428 154.449 378.357 153.383 379.504 153.383C380.65 153.383 382.126 154.449 382.126 155.764Z" fill="#693F3F"/>
<path d="M379.493 130.425V133.182L378.093 133.642L377.252 133.182L375.353 131.426L374.151 136.558H376.692L378.63 143.068L378.093 148.576L377.252 155.585H380.159L382.126 155.085L381.143 148.2V142.067L379.832 132.928L379.493 130.425Z" fill="#987E7E"/>
<path d="M375.213 131.677L373.812 134.433L372.412 134.893L371.571 134.433L371.297 131.677L370.423 133.85L371.571 142.442L371.297 148.871L369.781 156.211L372.744 157.417L374.26 156.211L374.916 142.818V136.808L375.213 131.677Z" fill="#987E7E"/>
<path d="M376.226 111.42L373.965 111.342L370.887 110.512L374.26 113.121L374.478 114.596V114.822L374.916 116.977L375.68 115.957L376.226 115.276L375.68 111.647L376.226 111.42Z" fill="#FFBABA"/>
<path d="M382.48 130.072C382.533 130.048 382.592 130.045 382.647 130.062L383.308 130.269C383.374 130.29 383.429 130.338 383.459 130.403L383.673 130.86L384.138 132.121C384.209 132.313 383.949 132.442 383.848 132.263C383.758 132.103 383.521 132.192 383.55 132.375L383.563 132.456C383.599 132.674 383.3 132.757 383.226 132.549L383.204 132.488C383.137 132.303 382.876 132.335 382.853 132.531L382.82 132.821C382.792 133.065 382.447 133.058 382.427 132.813L382.415 132.668C382.398 132.471 382.131 132.443 382.078 132.633C382.022 132.84 381.726 132.783 381.742 132.569L381.786 131.991C381.797 131.853 381.642 131.77 381.54 131.858C381.327 132.044 381.024 131.782 381.162 131.531L381.754 130.448C381.781 130.4 381.822 130.363 381.871 130.341L382.48 130.072Z" fill="#FFBABA"/>
<path d="M383.543 130.659L381.769 130.402L380.867 122.123L378.125 115.627L378.367 114.822L379.561 114.258L380.698 114.212L381.526 114.647L383.818 122.917L383.543 130.659Z" fill="#987E7E"/>
<path d="M374.271 112.852L370.981 110.642L371.146 110.962L371.692 111.592L371.917 112.852V116.603L372.647 118.069L374.889 116.872L374.271 112.852Z" fill="#E4B3B3"/>
<path d="M371.849 115.468H370.362L368.033 116.135V117.382L367.268 118.517L368.906 122.372L370.546 131.218L370.362 134.962H375.795L375.51 130.198V128.361L375.795 123.322L374.916 116.929L371.849 115.468Z" fill="#BD9F9F"/>
<path d="M376.225 115.011L378.848 114.661L379.286 116.362L380.269 117.383L379.286 122.224L379.493 129.631L380.05 133.714L375.68 134.962L375.243 130.198L375.056 122.224L374.818 116.9L376.225 115.011Z" fill="#C3A6A6"/>
<path d="M376.838 106.735C376.838 106.914 376.817 107.08 376.797 107.216C376.796 107.228 376.794 107.24 376.792 107.251C376.804 107.238 376.815 107.223 376.827 107.208C376.937 107.057 377.012 106.849 377.012 106.645C377.012 106.593 377.012 106.541 377.012 106.49C377.013 106.251 377.014 106.036 376.991 105.861C376.982 105.882 376.972 105.906 376.963 105.932C376.882 106.162 376.838 106.473 376.838 106.735ZM376.753 107.581C376.753 107.581 376.753 107.58 376.752 107.578L376.753 107.581Z" fill="#FFBABA" stroke="#F5C6C6"/>
<path d="M376.227 105.618V105.6L376.228 105.582L376.3 104.768L376.049 104.122L374.708 102.892L373.909 102.413L372.864 102.318L371.556 102.903L370.829 103.672L370.639 104.953L370.847 106.25L371.067 107.612L371.069 107.631L371.071 107.65L371.279 110.825L372.352 111.902L373.207 112.569H374.172L374.978 112.215L376.227 110.598V108.698V107.338V105.618Z" fill="#FFBABA" stroke="#E4B3B3"/>
<path d="M374.466 108.41L373.653 106.476L373.155 108.482L374.108 108.988L374.466 108.41Z" fill="#E49E9E" stroke="#E4B3B3" stroke-width="0.1"/>
<path d="M372.545 110C372.545 110.668 373.583 111.119 374.083 111.193C374.784 110.821 375.462 110.251 375.462 109.583C375.542 109.378 374.641 109.828 374.083 109.828C373.527 109.828 372.752 109.423 372.545 110Z" fill="#BA7878"/>
<path d="M370.998 106.524C370.998 106.823 371.382 107.224 371.857 107.224C372.332 107.224 372.717 106.823 372.717 106.524C372.717 106.227 372.332 105.985 371.857 105.985C371.382 105.985 370.998 106.227 370.998 106.524Z" fill="#D9D9D9"/>
<path d="M372.157 106.835C372.052 106.835 371.966 106.744 371.966 106.632C371.966 106.521 372.052 106.43 372.157 106.43C372.263 106.43 372.348 106.521 372.348 106.632C372.348 106.744 372.263 106.835 372.157 106.835Z" fill="#2A2424"/>
<path d="M375.339 107.062C374.866 107.113 374.463 106.915 374.439 106.618C374.415 106.321 374.778 106.039 375.251 105.987C375.723 105.936 376.126 106.135 376.151 106.431C376.175 106.728 375.812 107.01 375.339 107.062Z" fill="#D9D9D9"/>
<path d="M375.685 106.627C375.58 106.639 375.488 106.558 375.478 106.446C375.469 106.335 375.547 106.236 375.652 106.224C375.757 106.213 375.85 106.294 375.859 106.405C375.868 106.516 375.79 106.616 375.685 106.627Z" fill="#2A2424"/>
<path d="M372.598 101.667L370.496 102.618L369.795 103.688V104.388L369.999 105.805L370.655 106.883L370.873 105.636L371.043 104.663L372.226 105.044L372.971 104.663L373.781 105.805L374.701 104.235L375.899 105.044L376.54 106.317L376.672 105.139L376.54 103.831L376.117 102.348L375.061 102.027L372.598 101.667Z" fill="#6C3B3B"/>
<path d="M398.682 103.333L396.579 104.285L395.878 105.355V106.055L396.083 107.472L396.738 108.55L396.957 107.302L397.127 106.33L398.309 106.711L399.054 106.33L399.212 107.302L395.894 106.165L395.045 112.917L400.878 113.333L401.712 112.083L402.623 111.667V107.983L402.755 106.806L402.623 105.497L402.201 104.014L401.144 103.693L398.682 103.333Z" fill="#BF9F4F"/>
<path d="M370.154 106.962C370.154 107.141 370.175 107.307 370.194 107.442C370.196 107.454 370.198 107.467 370.2 107.477C370.188 107.464 370.176 107.45 370.165 107.434C370.055 107.283 369.98 107.076 369.98 106.872C369.98 106.819 369.98 106.767 369.98 106.717C369.978 106.477 369.977 106.262 370.001 106.087C370.01 106.108 370.019 106.132 370.028 106.158C370.111 106.388 370.154 106.699 370.154 106.962ZM370.239 107.807C370.239 107.807 370.239 107.807 370.239 107.805V107.807Z" fill="#FFBABA" stroke="#E4B3B3"/>
<path d="M370.771 106.165L371.24 105.733L371.708 105.625H372.177L372.646 105.949V106.165L372.177 105.841H371.708L371.24 105.949L370.865 106.165H370.771Z" fill="#6C3B3B"/>
<path d="M376.242 106.165L375.772 105.733L375.303 105.625H374.835L374.366 105.949V106.165L374.835 105.841H375.303L375.772 105.949L376.147 106.165H376.242Z" fill="#6C3B3B"/>
<path d="M366.99 133.827C367.029 133.785 367.081 133.758 367.137 133.751L367.767 133.667C367.849 133.655 367.933 133.687 367.988 133.752L368.281 134.093L368.883 134.687C369.05 134.851 368.876 135.123 368.663 135.032C368.49 134.959 368.32 135.135 368.396 135.31L368.69 135.991C368.785 136.212 368.495 136.383 368.351 136.192C368.226 136.027 367.969 136.132 367.996 136.337L368.027 136.58C368.059 136.821 367.724 136.896 367.645 136.666L367.595 136.518C367.531 136.332 367.262 136.372 367.262 136.569C367.262 136.782 366.958 136.804 366.921 136.594L366.846 136.168C366.824 136.043 366.652 136.027 366.614 136.147C366.539 136.38 366.196 136.295 366.227 136.051L366.421 134.512C366.427 134.469 366.444 134.43 366.472 134.398L366.99 133.827Z" fill="#FFBABA"/>
<path d="M366.213 134.609L368.124 133.754L367.873 124.592L369.915 116.738L369.528 115.954L368.131 115.742L366.873 116.064L366.028 116.802L364.748 126.408L366.213 134.609Z" fill="#987E7E"/>
<path d="M370.444 115.675L371.452 118.261L376.831 117.473L377.503 115.225L378.623 115L378.287 116.012L378.063 117.473L378.623 124.894V131.978L379.856 131.527L380.304 133.889L381.425 142.209V148.281L382.545 155.252L380.416 155.701L377.391 155.813L378.736 143.108L376.831 136.813H375.934H375.262L375.038 143.108L374.701 149.18L374.366 156.263L372.797 157.5L369.771 156.263L371.341 148.955L371.565 142.658L370.892 138.386L370.444 135.013V132.877H371.789L370.108 118.598V117.473L369.884 116.687L369.211 116.124L370.444 115.675Z" fill="#406A9C"/>
<path d="M370.462 118.333C370.692 118.333 370.878 118.147 370.878 117.917C370.878 117.687 370.692 117.5 370.462 117.5C370.231 117.5 370.045 117.687 370.045 117.917C370.045 118.147 370.231 118.333 370.462 118.333Z" fill="#8C8017"/>
<path d="M377.962 117.083C377.962 117.313 377.775 117.5 377.545 117.5C377.315 117.5 377.128 117.313 377.128 117.083C377.128 116.853 377.315 116.667 377.545 116.667C377.775 116.667 377.962 116.853 377.962 117.083Z" fill="#8C8017"/>
<path d="M398.171 156.898C396.961 157.578 396.469 159.167 397.263 159.167C398.056 159.167 401.422 158.213 401.422 156.898C401.422 155.582 400.779 154.517 399.986 154.517C399.192 154.517 398.171 155.582 398.171 156.898Z" fill="#693F3F"/>
<path d="M393.028 155.764C391.818 156.445 391.327 158.033 392.12 158.033C392.913 158.033 396.28 157.079 396.28 155.764C396.28 154.449 395.637 153.383 394.843 153.383C394.049 153.383 393.028 154.449 393.028 155.764Z" fill="#693F3F"/>
<path d="M394.85 130.425V133.182L395.82 133.642L396.402 133.182L397.717 131.426L398.549 136.558H396.79L395.448 143.068L395.82 148.576L396.402 155.585H394.389L393.027 155.085L393.708 148.2V142.067L394.616 132.928L394.85 130.425Z" fill="#987E7E"/>
<path d="M397.813 131.677L398.783 134.433L399.753 134.893L400.335 134.433L400.524 131.677L401.129 133.85L400.335 142.442L400.524 148.871L401.574 156.211L399.523 157.417L398.473 156.211L398.02 142.818V136.808L397.813 131.677Z" fill="#987E7E"/>
<path d="M397.112 111.42L398.678 111.342L400.808 110.512L398.473 113.121L398.322 114.596V114.822L398.02 116.977L397.49 115.957L397.112 115.276L397.49 111.647L397.112 111.42Z" fill="#FFBABA"/>
<path d="M392.79 130.076C392.748 130.049 392.701 130.046 392.656 130.066L392.225 130.262C392.169 130.287 392.123 130.346 392.097 130.424L391.956 130.86L391.631 132.133C391.581 132.329 391.762 132.449 391.834 132.267C391.898 132.103 392.063 132.183 392.042 132.368L392.033 132.452C392.008 132.673 392.217 132.744 392.271 132.532L392.28 132.494C392.326 132.307 392.508 132.327 392.523 132.522L392.549 132.84C392.568 133.081 392.805 133.06 392.819 132.817L392.827 132.677C392.839 132.48 393.024 132.442 393.06 132.629C393.098 132.833 393.304 132.765 393.292 132.553L393.263 131.994C393.256 131.858 393.364 131.771 393.432 131.858C393.576 132.037 393.786 131.772 393.694 131.528L393.286 130.452C393.267 130.401 393.237 130.362 393.201 130.338L392.79 130.076Z" fill="#FFBABA"/>
<path d="M392.047 130.659L393.275 130.403L394.628 122.5L395.797 115.628L395.63 114.822L395.045 115.417L393.378 119.167L393.275 121.667L392.047 130.659Z" fill="#9D4949"/>
<path d="M398.465 112.852L400.743 110.642L400.629 110.962L400.251 111.592L400.095 112.852V116.603L399.212 118.333L397.66 117.136L398.465 112.852Z" fill="#E4B3B3"/>
<path d="M399.86 115.09H400.889L402.502 115.757V117.004L403.032 118.138L401.897 121.994L401.013 125.455L400.763 130.841L400.889 134.583H397.128L397.326 129.82V127.983L397.128 122.943L397.962 117.5L399.86 115.09Z" fill="#9D4949"/>
<path d="M397.113 115.011L395.297 114.661L394.994 116.362L394.313 117.383L394.994 122.224L394.85 129.631L394.465 133.714L397.49 134.962L397.793 130.198L397.923 122.224L398.087 116.9L397.113 115.011Z" fill="#9D4949"/>
<path d="M397.106 108.034L397.19 107.913L397.179 107.767L397.133 107.166L397.284 106.71L398.117 105.813L398.581 105.488L399.147 105.427L399.908 105.827L400.34 106.362L400.458 107.298L400.326 108.267L400.303 108.432L400.401 108.567L400.878 109.225V110.304L400.117 111.605L399.388 112.463L398.894 112.917H398.391L397.948 112.688L397.136 111.455L396.689 110.28L396.336 109.158L397.106 108.034Z" fill="#FFBABA" stroke="#E4B3B3"/>
<path d="M398.342 108.411L398.89 106.529L399.226 108.486L398.586 108.977L398.342 108.411Z" fill="#E49E9E" stroke="#E4B3B3" stroke-width="0.1"/>
<path d="M400.045 110.236C400.045 110.57 399.157 110.796 398.728 110.833C398.129 110.647 397.549 110.362 397.549 110.027C397.48 109.924 398.253 110.149 398.729 110.149C399.206 110.149 399.868 109.947 400.045 110.236Z" fill="#BA7878"/>
<path d="M400.641 107.634C400.641 107.933 400.374 108.333 400.046 108.333C399.716 108.333 399.45 107.933 399.45 107.634C399.45 107.336 399.716 107.094 400.046 107.094C400.374 107.094 400.641 107.336 400.641 107.634Z" fill="#D9D9D9"/>
<path d="M400.062 107.642C400.062 107.754 400.003 107.845 399.93 107.845C399.857 107.845 399.797 107.754 399.797 107.642C399.797 107.53 399.857 107.44 399.93 107.44C400.003 107.44 400.062 107.53 400.062 107.642Z" fill="#2A2424"/>
<path d="M398.106 107.444C398.09 107.742 397.811 107.94 397.484 107.888C397.156 107.837 396.905 107.555 396.922 107.258C396.939 106.962 397.218 106.762 397.545 106.814C397.872 106.866 398.124 107.147 398.106 107.444Z" fill="#D9D9D9"/>
<path d="M397.486 107.427C397.481 107.538 397.416 107.619 397.343 107.607C397.271 107.596 397.217 107.497 397.223 107.385C397.23 107.274 397.294 107.193 397.366 107.204C397.439 107.216 397.493 107.316 397.486 107.427Z" fill="#2A2424"/>
<path d="M400.723 108.16L400.724 108.159L400.723 108.16Z" fill="#FFBABA" stroke="#E4B3B3"/>
<path d="M396.739 107.799L396.738 107.798L396.739 107.799ZM396.24 106.958H396.241H396.24Z" fill="#FFBABA" stroke="#E4B3B3"/>
<path d="M400.727 107.53L400.402 107.098L400.077 106.991H399.753L399.428 107.314V107.53L399.753 107.207H400.077L400.402 107.314L400.662 107.53H400.727Z" fill="#6C3B3B"/>
<path d="M396.711 107.207L397.036 106.775L397.361 106.667H397.686L398.01 106.991V107.207L397.686 106.883H397.361L397.036 106.991L396.776 107.207H396.711Z" fill="#6C3B3B"/>
<path d="M403.506 133.828C403.48 133.785 403.441 133.758 403.395 133.748L403.025 133.677C402.936 133.66 402.836 133.716 402.776 133.817L402.612 134.093L402.16 134.737C402.031 134.922 402.161 135.148 402.334 135.042C402.472 134.957 402.6 135.089 402.547 135.264L402.292 136.116C402.23 136.324 402.448 136.413 402.549 136.221C402.637 136.052 402.831 136.095 402.815 136.28L402.779 136.683C402.761 136.888 403 136.889 403.048 136.685L403.076 136.564C403.118 136.391 403.319 136.378 403.319 136.549C403.319 136.732 403.541 136.699 403.564 136.512L403.604 136.185C403.617 136.076 403.742 136.038 403.764 136.137C403.806 136.323 404.049 136.213 404.031 136.016L403.898 134.486C403.896 134.46 403.888 134.437 403.876 134.417L403.506 133.828Z" fill="#FFBABA"/>
<path d="M404.045 134.609L402.721 133.754L402.895 124.592L401.481 116.738L401.749 115.954L402.545 115.833L403.378 117.5L404.172 125L404.045 134.609Z" fill="#9D4949"/>
<path d="M401.116 115.675L400.185 117.917L396.694 117.473L396.228 115.225L395.452 115L395.686 116.012L395.841 117.473L394.628 118.333L394.289 119.583L395.045 121.667L395.452 124.894V131.978L394.6 131.527L394.289 133.889L393.513 142.209V148.281L392.738 155.252L394.212 155.701L396.306 155.813L395.375 143.108L396.694 136.813H397.314H397.78L397.935 143.108L398.167 149.18L398.401 156.263L399.487 157.5L401.581 156.263L400.495 148.955L400.34 142.658L400.805 138.386L401.116 135.013V132.877H400.185L401.348 118.598V117.473L401.503 116.687L401.968 116.124L401.116 115.675Z" fill="#406A9C"/>
<path d="M400.815 118.333C400.496 118.333 400.238 118.147 400.238 117.917C400.238 117.687 400.496 117.5 400.815 117.5C401.133 117.5 401.392 117.687 401.392 117.917C401.392 118.147 401.133 118.333 400.815 118.333Z" fill="#8C8017"/>
<path d="M395.558 117.543C395.558 117.773 395.816 117.96 396.135 117.96C396.453 117.96 396.711 117.773 396.711 117.543C396.711 117.313 396.453 117.127 396.135 117.127C395.816 117.127 395.558 117.313 395.558 117.543Z" fill="#8C8017"/>
<path d="M396.167 108.333C396.008 108.333 395.879 108.147 395.879 107.917C395.879 107.687 396.008 107.5 396.167 107.5C396.326 107.5 396.456 107.687 396.456 107.917C396.456 108.147 396.326 108.333 396.167 108.333Z" fill="#178C54"/>
<path d="M400.795 108.21C400.795 108.44 400.924 108.627 401.083 108.627C401.242 108.627 401.372 108.44 401.372 108.21C401.372 107.98 401.242 107.793 401.083 107.793C400.924 107.793 400.795 107.98 400.795 108.21Z" fill="#178C54"/>
<path d="M356.711 60.8333H415.878V64.9999V145.833L412.128 139.167V64.9999H360.878V139.167H412.128L415.878 145H356.711V60.8333Z" fill="#572E2E"/>
<path d="M396.711 105H400.878V106.667L399.211 105.833L397.128 106.25L396.711 105Z" fill="#BF9F4F"/>
<path d="M415.833 140.833H356.667V160.833H415.833V140.833Z" fill="#572E2E"/>
<path d="M360.297 142.5H392.708L398.601 144.843L413.333 142.5L410.386 149.062L413.333 155.625H398.601L390.744 157.5L374.047 155.625H360.297L358.333 149.062L363.244 144.843L360.297 142.5Z" fill="#C7C898"/>
<path d="M367.473 152.74C367.482 152.74 367.489 152.749 367.493 152.767C367.502 152.789 367.502 152.803 367.493 152.807C367.267 152.86 367.078 152.887 366.927 152.887C366.62 152.887 366.296 152.784 365.953 152.58C365.616 152.38 365.323 152.1 365.073 151.74C365.043 151.744 364.998 151.747 364.94 151.747C364.527 151.747 364.157 151.651 363.833 151.46C363.513 151.264 363.264 151.003 363.087 150.673C362.913 150.34 362.827 149.978 362.827 149.587C362.827 149.129 362.943 148.738 363.173 148.413C363.404 148.084 363.7 147.838 364.06 147.673C364.424 147.509 364.796 147.427 365.173 147.427C365.596 147.427 365.967 147.527 366.287 147.727C366.607 147.923 366.851 148.183 367.02 148.507C367.193 148.831 367.28 149.176 367.28 149.54C367.28 149.869 367.207 150.18 367.06 150.473C366.917 150.763 366.72 151.009 366.467 151.213C366.213 151.418 365.927 151.564 365.607 151.653C365.793 151.973 366.04 152.236 366.347 152.44C366.657 152.649 366.951 152.753 367.227 152.753C367.307 152.753 367.387 152.749 367.467 152.74H367.473ZM363.333 149.353C363.333 149.771 363.411 150.153 363.567 150.5C363.722 150.843 363.94 151.113 364.22 151.313C364.5 151.509 364.818 151.607 365.173 151.607C365.476 151.607 365.747 151.533 365.987 151.387C366.231 151.24 366.423 151.024 366.56 150.74C366.703 150.456 366.773 150.118 366.773 149.727C366.773 149.309 366.696 148.938 366.54 148.613C366.384 148.289 366.164 148.036 365.88 147.853C365.6 147.671 365.271 147.58 364.893 147.58C364.404 147.58 364.022 147.738 363.747 148.053C363.471 148.369 363.333 148.803 363.333 149.353ZM368.03 151.74C367.941 151.74 367.87 151.713 367.817 151.66C367.763 151.607 367.737 151.538 367.737 151.453C367.737 151.369 367.763 151.303 367.817 151.253C367.87 151.2 367.941 151.173 368.03 151.173C368.123 151.173 368.194 151.198 368.243 151.247C368.297 151.296 368.323 151.364 368.323 151.453C368.323 151.543 368.297 151.613 368.243 151.667C368.194 151.716 368.123 151.74 368.03 151.74ZM371.852 150.673C371.852 150.664 371.861 150.66 371.878 150.66C371.892 150.66 371.902 150.663 371.912 150.667C371.925 150.671 371.932 150.678 371.932 150.687C371.892 150.967 371.872 151.26 371.872 151.567C371.872 151.603 371.862 151.629 371.845 151.647C371.832 151.66 371.805 151.667 371.765 151.667H368.972C368.962 151.667 368.958 151.653 368.958 151.627C368.958 151.6 368.962 151.587 368.972 151.587C369.141 151.587 369.262 151.576 369.338 151.553C369.418 151.531 369.472 151.489 369.498 151.427C369.529 151.36 369.545 151.26 369.545 151.127V148.04C369.545 147.907 369.529 147.809 369.498 147.747C369.472 147.684 369.418 147.643 369.338 147.62C369.262 147.593 369.141 147.58 368.972 147.58C368.962 147.58 368.958 147.567 368.958 147.54C368.958 147.513 368.962 147.5 368.972 147.5H371.652C371.692 147.5 371.712 147.52 371.712 147.56L371.725 148.38C371.725 148.393 371.714 148.403 371.692 148.407C371.669 148.407 371.656 148.4 371.652 148.387C371.638 148.151 371.568 147.969 371.438 147.84C371.309 147.707 371.138 147.64 370.925 147.64H370.518C370.363 147.64 370.247 147.653 370.172 147.68C370.101 147.703 370.049 147.744 370.018 147.807C369.992 147.864 369.978 147.953 369.978 148.073V149.427H370.792C371.005 149.427 371.156 149.391 371.245 149.32C371.338 149.249 371.385 149.129 371.385 148.96C371.385 148.951 371.398 148.947 371.425 148.947C371.452 148.947 371.465 148.951 371.465 148.96L371.458 149.5C371.458 149.629 371.461 149.727 371.465 149.793L371.472 150.113C371.472 150.123 371.458 150.127 371.432 150.127C371.405 150.127 371.392 150.123 371.392 150.113C371.392 149.918 371.342 149.778 371.245 149.693C371.152 149.609 370.994 149.567 370.772 149.567H369.978V151.1C369.978 151.224 369.992 151.316 370.018 151.373C370.045 151.431 370.094 151.471 370.165 151.493C370.236 151.516 370.347 151.527 370.498 151.527H371.032C371.245 151.527 371.422 151.451 371.565 151.3C371.707 151.149 371.802 150.94 371.852 150.673ZM372.926 151.74C372.837 151.74 372.766 151.713 372.712 151.66C372.659 151.607 372.632 151.538 372.632 151.453C372.632 151.369 372.659 151.303 372.712 151.253C372.766 151.2 372.837 151.173 372.926 151.173C373.019 151.173 373.09 151.198 373.139 151.247C373.192 151.296 373.219 151.364 373.219 151.453C373.219 151.543 373.192 151.613 373.139 151.667C373.09 151.716 373.019 151.74 372.926 151.74ZM374.861 151.1C374.861 151.243 374.878 151.347 374.914 151.413C374.954 151.476 375.028 151.52 375.134 151.547C375.245 151.573 375.418 151.587 375.654 151.587C375.667 151.587 375.674 151.6 375.674 151.627C375.674 151.653 375.667 151.667 375.654 151.667C375.472 151.667 375.33 151.664 375.228 151.66L374.647 151.653L374.201 151.66C374.117 151.664 374.003 151.667 373.861 151.667C373.852 151.667 373.847 151.653 373.847 151.627C373.847 151.6 373.852 151.587 373.861 151.587C374.03 151.587 374.152 151.576 374.227 151.553C374.307 151.531 374.361 151.489 374.388 151.427C374.414 151.36 374.427 151.26 374.427 151.127V148.04C374.427 147.907 374.414 147.809 374.388 147.747C374.361 147.684 374.307 147.643 374.227 147.62C374.152 147.593 374.03 147.58 373.861 147.58C373.852 147.58 373.847 147.567 373.847 147.54C373.847 147.513 373.852 147.5 373.861 147.5L374.194 147.507C374.381 147.516 374.53 147.52 374.641 147.52C374.752 147.52 374.877 147.513 375.014 147.5C375.067 147.5 375.152 147.498 375.268 147.493C375.383 147.484 375.483 147.48 375.567 147.48C375.977 147.48 376.303 147.571 376.547 147.753C376.797 147.936 376.921 148.213 376.921 148.587C376.921 148.88 376.847 149.127 376.701 149.327C376.558 149.527 376.374 149.676 376.148 149.773C375.921 149.871 375.687 149.92 375.447 149.92C375.318 149.92 375.212 149.909 375.128 149.887C375.114 149.887 375.107 149.876 375.107 149.853C375.107 149.84 375.11 149.827 375.114 149.813C375.123 149.8 375.132 149.796 375.141 149.8C375.212 149.818 375.292 149.827 375.381 149.827C375.674 149.827 375.921 149.731 376.121 149.54C376.325 149.349 376.428 149.073 376.428 148.713C376.428 148.363 376.332 148.087 376.141 147.887C375.95 147.683 375.705 147.58 375.408 147.58C375.248 147.58 375.132 147.589 375.061 147.607C374.99 147.624 374.938 147.667 374.908 147.733C374.877 147.796 374.861 147.903 374.861 148.053V151.1ZM377.477 151.74C377.387 151.74 377.317 151.713 377.263 151.66C377.21 151.607 377.183 151.538 377.183 151.453C377.183 151.369 377.21 151.303 377.263 151.253C377.317 151.2 377.387 151.173 377.477 151.173C377.57 151.173 377.641 151.198 377.69 151.247C377.743 151.296 377.77 151.364 377.77 151.453C377.77 151.543 377.743 151.613 377.69 151.667C377.641 151.716 377.57 151.74 377.477 151.74ZM380.152 151.693C380.023 151.693 379.873 151.687 379.705 151.673C379.642 151.669 379.562 151.664 379.465 151.66C379.372 151.656 379.267 151.653 379.152 151.653L378.698 151.66C378.618 151.664 378.507 151.667 378.365 151.667C378.356 151.667 378.352 151.653 378.352 151.627C378.352 151.6 378.356 151.587 378.365 151.587C378.533 151.587 378.656 151.576 378.732 151.553C378.812 151.531 378.865 151.489 378.892 151.427C378.923 151.36 378.938 151.26 378.938 151.127V148.04C378.938 147.907 378.925 147.809 378.898 147.747C378.872 147.684 378.818 147.643 378.738 147.62C378.662 147.593 378.54 147.58 378.372 147.58C378.362 147.58 378.358 147.567 378.358 147.54C378.358 147.513 378.362 147.5 378.372 147.5L378.705 147.507C378.892 147.516 379.04 147.52 379.152 147.52C379.32 147.52 379.487 147.513 379.652 147.5C379.847 147.491 379.983 147.487 380.058 147.487C380.52 147.487 380.929 147.576 381.285 147.753C381.64 147.931 381.916 148.173 382.112 148.48C382.312 148.787 382.412 149.131 382.412 149.513C382.412 149.944 382.309 150.327 382.105 150.66C381.905 150.989 381.632 151.244 381.285 151.427C380.938 151.604 380.56 151.693 380.152 151.693ZM380.085 151.593C380.44 151.593 380.756 151.52 381.032 151.373C381.307 151.223 381.52 151.003 381.672 150.713C381.827 150.42 381.905 150.069 381.905 149.66C381.905 149.273 381.832 148.923 381.685 148.607C381.538 148.291 381.329 148.043 381.058 147.86C380.787 147.678 380.473 147.587 380.118 147.587C379.927 147.587 379.778 147.598 379.672 147.62C379.569 147.643 379.493 147.687 379.445 147.753C379.396 147.82 379.372 147.92 379.372 148.053V151.053C379.372 151.187 379.389 151.291 379.425 151.367C379.465 151.443 379.536 151.5 379.638 151.54C379.745 151.576 379.893 151.593 380.085 151.593ZM389.717 151.587C389.73 151.587 389.737 151.6 389.737 151.627C389.737 151.653 389.73 151.667 389.717 151.667C389.579 151.667 389.47 151.664 389.39 151.66L388.93 151.653L388.503 151.66C388.433 151.664 388.332 151.667 388.203 151.667C388.194 151.667 388.19 151.653 388.19 151.627C388.19 151.6 388.194 151.587 388.203 151.587C388.354 151.587 388.466 151.576 388.537 151.553C388.612 151.527 388.661 151.483 388.683 151.42C388.71 151.358 388.719 151.26 388.71 151.127L388.59 148.093L387.07 151.62C387.061 151.638 387.043 151.647 387.017 151.647C386.994 151.647 386.974 151.638 386.957 151.62L385.317 148.133L385.257 150.94C385.253 151.176 385.292 151.343 385.377 151.44C385.461 151.538 385.61 151.587 385.823 151.587C385.832 151.587 385.837 151.6 385.837 151.627C385.837 151.653 385.832 151.667 385.823 151.667C385.699 151.667 385.603 151.664 385.537 151.66L385.177 151.653L384.83 151.66C384.767 151.664 384.679 151.667 384.563 151.667C384.554 151.667 384.55 151.653 384.55 151.627C384.55 151.6 384.554 151.587 384.563 151.587C384.75 151.587 384.883 151.538 384.963 151.44C385.047 151.338 385.092 151.171 385.097 150.94L385.157 147.847C385.023 147.669 384.841 147.58 384.61 147.58C384.601 147.58 384.597 147.567 384.597 147.54C384.597 147.513 384.601 147.5 384.61 147.5L384.857 147.507C384.901 147.511 384.963 147.513 385.043 147.513C385.123 147.513 385.19 147.511 385.243 147.507C385.301 147.503 385.346 147.5 385.377 147.5C385.434 147.5 385.481 147.523 385.517 147.567C385.557 147.607 385.613 147.7 385.683 147.847L387.17 150.98L388.623 147.667C388.672 147.556 388.739 147.5 388.823 147.5C388.846 147.5 388.877 147.503 388.917 147.507C388.961 147.511 389.019 147.513 389.09 147.513L389.403 147.507C389.452 147.503 389.526 147.5 389.623 147.5C389.637 147.5 389.643 147.513 389.643 147.54C389.643 147.567 389.637 147.58 389.623 147.58C389.401 147.58 389.241 147.613 389.143 147.68C389.05 147.743 389.006 147.863 389.01 148.04L389.143 151.127C389.147 151.264 389.163 151.364 389.19 151.427C389.221 151.489 389.274 151.531 389.35 151.553C389.426 151.576 389.547 151.587 389.717 151.587ZM393.037 151.3C393.054 151.3 393.065 151.311 393.07 151.333C393.078 151.351 393.074 151.364 393.057 151.373L392.357 151.707C392.338 151.716 392.323 151.72 392.31 151.72C392.238 151.72 392.167 151.678 392.097 151.593C392.03 151.504 391.988 151.384 391.97 151.233L391.53 151.48C391.374 151.564 391.245 151.624 391.143 151.66C391.041 151.696 390.945 151.713 390.857 151.713C390.701 151.713 390.57 151.667 390.463 151.573C390.357 151.48 390.303 151.373 390.303 151.253C390.303 151.084 390.358 150.949 390.47 150.847C390.581 150.744 390.788 150.638 391.09 150.527L391.963 150.207V149.42C391.963 149.149 391.923 148.951 391.843 148.827C391.767 148.703 391.647 148.64 391.483 148.64C391.278 148.64 391.127 148.704 391.03 148.833C390.937 148.958 390.863 149.123 390.81 149.327C390.787 149.403 390.757 149.464 390.717 149.513C390.681 149.558 390.625 149.58 390.55 149.58C390.478 149.58 390.421 149.56 390.377 149.52C390.332 149.476 390.31 149.423 390.31 149.36C390.31 149.249 390.388 149.124 390.543 148.987C390.703 148.849 390.897 148.731 391.123 148.633C391.35 148.536 391.554 148.487 391.737 148.487C391.928 148.487 392.081 148.549 392.197 148.673C392.312 148.793 392.37 148.976 392.37 149.22V150.887C392.37 151.22 392.478 151.387 392.697 151.387C392.785 151.387 392.894 151.358 393.023 151.3H393.037ZM391.963 151.14V151.113V150.293L391.23 150.58C391.065 150.643 390.95 150.713 390.883 150.793C390.821 150.873 390.79 150.969 390.79 151.08C390.79 151.191 390.825 151.284 390.897 151.36C390.967 151.436 391.052 151.473 391.15 151.473C391.257 151.473 391.374 151.44 391.503 151.373L391.963 151.14ZM396.68 151.587C396.689 151.587 396.693 151.6 396.693 151.627C396.693 151.653 396.689 151.667 396.68 151.667H395.9C395.82 151.667 395.677 151.533 395.473 151.267C395.273 151 395.031 150.631 394.747 150.16C394.663 150.178 394.567 150.187 394.46 150.187C394.349 150.187 394.264 150.183 394.207 150.173V151.127C394.207 151.264 394.218 151.364 394.24 151.427C394.263 151.489 394.307 151.531 394.373 151.553C394.44 151.576 394.549 151.587 394.7 151.587C394.709 151.587 394.713 151.6 394.713 151.627C394.713 151.653 394.709 151.667 394.7 151.667C394.576 151.667 394.48 151.664 394.413 151.66L393.993 151.653L393.6 151.66C393.524 151.664 393.422 151.667 393.293 151.667C393.284 151.667 393.28 151.653 393.28 151.627C393.28 151.6 393.284 151.587 393.293 151.587C393.44 151.587 393.547 151.576 393.613 151.553C393.684 151.531 393.733 151.489 393.76 151.427C393.787 151.36 393.8 151.26 393.8 151.127V149.087C393.8 148.953 393.787 148.856 393.76 148.793C393.737 148.731 393.691 148.689 393.62 148.667C393.553 148.64 393.447 148.627 393.3 148.627C393.291 148.627 393.287 148.613 393.287 148.587C393.287 148.56 393.291 148.547 393.3 148.547L393.607 148.553C393.767 148.563 393.896 148.567 393.993 148.567C394.073 148.567 394.147 148.564 394.213 148.56C394.284 148.556 394.344 148.551 394.393 148.547C394.531 148.533 394.662 148.527 394.787 148.527C395.076 148.527 395.296 148.583 395.447 148.693C395.598 148.804 395.673 148.964 395.673 149.173C395.673 149.351 395.622 149.516 395.52 149.667C395.417 149.818 395.28 149.94 395.107 150.033C395.356 150.443 395.564 150.758 395.733 150.98C395.907 151.198 396.064 151.353 396.207 151.447C396.353 151.54 396.511 151.587 396.68 151.587ZM394.207 150.053C394.287 150.067 394.387 150.073 394.507 150.073C394.782 150.073 394.973 150.013 395.08 149.893C395.191 149.769 395.247 149.589 395.247 149.353C395.247 148.864 395.036 148.62 394.613 148.62C394.444 148.62 394.333 148.656 394.28 148.727C394.231 148.798 394.207 148.923 394.207 149.1V150.053ZM397.802 151.127C397.802 151.264 397.813 151.364 397.835 151.427C397.862 151.489 397.908 151.531 397.975 151.553C398.042 151.576 398.15 151.587 398.302 151.587C398.31 151.587 398.315 151.6 398.315 151.627C398.315 151.653 398.31 151.667 398.302 151.667C398.177 151.667 398.079 151.664 398.008 151.66L397.588 151.653L397.195 151.66C397.119 151.664 397.017 151.667 396.888 151.667C396.879 151.667 396.875 151.653 396.875 151.627C396.875 151.6 396.879 151.587 396.888 151.587C397.039 151.587 397.148 151.576 397.215 151.553C397.282 151.531 397.326 151.489 397.348 151.427C397.375 151.364 397.388 151.264 397.388 151.127V149.087C397.388 148.953 397.375 148.856 397.348 148.793C397.326 148.731 397.279 148.689 397.208 148.667C397.142 148.64 397.035 148.627 396.888 148.627C396.879 148.627 396.875 148.613 396.875 148.587C396.875 148.56 396.879 148.547 396.888 148.547L397.195 148.553C397.355 148.563 397.486 148.567 397.588 148.567C397.703 148.567 397.846 148.563 398.015 148.553L398.302 148.547C398.31 148.547 398.315 148.56 398.315 148.587C398.315 148.613 398.31 148.627 398.302 148.627C398.159 148.627 398.052 148.64 397.982 148.667C397.91 148.693 397.862 148.74 397.835 148.807C397.813 148.869 397.802 148.967 397.802 149.1V151.127ZM401.727 151.3C401.746 151.3 401.757 151.311 401.761 151.333C401.77 151.351 401.766 151.364 401.747 151.373L401.047 151.707C401.03 151.716 401.014 151.72 401.001 151.72C400.93 151.72 400.859 151.678 400.788 151.593C400.721 151.504 400.679 151.384 400.661 151.233L400.221 151.48C400.066 151.564 399.937 151.624 399.834 151.66C399.732 151.696 399.637 151.713 399.547 151.713C399.392 151.713 399.261 151.667 399.154 151.573C399.047 151.48 398.994 151.373 398.994 151.253C398.994 151.084 399.05 150.949 399.161 150.847C399.273 150.744 399.479 150.638 399.781 150.527L400.654 150.207V149.42C400.654 149.149 400.614 148.951 400.534 148.827C400.459 148.703 400.339 148.64 400.174 148.64C399.97 148.64 399.819 148.704 399.721 148.833C399.628 148.958 399.554 149.123 399.501 149.327C399.479 149.403 399.447 149.464 399.407 149.513C399.372 149.558 399.317 149.58 399.241 149.58C399.17 149.58 399.113 149.56 399.068 149.52C399.023 149.476 399.001 149.423 399.001 149.36C399.001 149.249 399.079 149.124 399.234 148.987C399.394 148.849 399.588 148.731 399.814 148.633C400.041 148.536 400.246 148.487 400.427 148.487C400.619 148.487 400.772 148.549 400.887 148.673C401.003 148.793 401.061 148.976 401.061 149.22V150.887C401.061 151.22 401.17 151.387 401.388 151.387C401.477 151.387 401.586 151.358 401.714 151.3H401.727ZM400.654 151.14V151.113V150.293L399.921 150.58C399.757 150.643 399.641 150.713 399.574 150.793C399.513 150.873 399.481 150.969 399.481 151.08C399.481 151.191 399.517 151.284 399.587 151.36C399.659 151.436 399.743 151.473 399.841 151.473C399.947 151.473 400.066 151.44 400.194 151.373L400.654 151.14ZM405.652 151.587C405.66 151.587 405.665 151.6 405.665 151.627C405.665 151.653 405.66 151.667 405.652 151.667C405.54 151.667 405.453 151.664 405.392 151.66L405.045 151.653L404.625 151.66C404.558 151.664 404.469 151.667 404.358 151.667C404.349 151.667 404.345 151.653 404.345 151.627C404.345 151.6 404.349 151.587 404.358 151.587C404.5 151.587 404.605 151.573 404.672 151.547C404.742 151.52 404.789 151.476 404.812 151.413C404.838 151.347 404.852 151.247 404.852 151.113V149.787C404.852 149.36 404.776 149.064 404.625 148.9C404.478 148.731 404.265 148.647 403.985 148.647C403.785 148.647 403.598 148.689 403.425 148.773C403.256 148.853 403.076 148.996 402.885 149.2V151.113C402.885 151.247 402.896 151.347 402.918 151.413C402.945 151.476 402.992 151.52 403.058 151.547C403.125 151.573 403.227 151.587 403.365 151.587C403.378 151.587 403.385 151.6 403.385 151.627C403.385 151.653 403.378 151.667 403.365 151.667C403.245 151.667 403.149 151.664 403.078 151.66L402.672 151.653L402.278 151.66C402.207 151.664 402.109 151.667 401.985 151.667C401.976 151.667 401.972 151.653 401.972 151.627C401.972 151.6 401.976 151.587 401.985 151.587C402.127 151.587 402.232 151.576 402.298 151.553C402.369 151.527 402.418 151.483 402.445 151.42C402.472 151.358 402.485 151.26 402.485 151.127V149.087C402.485 148.953 402.472 148.856 402.445 148.793C402.422 148.731 402.378 148.689 402.312 148.667C402.245 148.64 402.142 148.627 402.005 148.627C401.992 148.627 401.985 148.613 401.985 148.587C401.985 148.56 401.992 148.547 402.005 148.547L402.438 148.553L402.765 148.547C402.818 148.547 402.852 148.556 402.865 148.573C402.878 148.587 402.885 148.62 402.885 148.673V149.067C403.093 148.858 403.3 148.707 403.505 148.613C403.709 148.516 403.927 148.467 404.158 148.467C404.487 148.467 404.752 148.558 404.952 148.74C405.152 148.918 405.252 149.193 405.252 149.567V151.127C405.252 151.26 405.26 151.36 405.278 151.427C405.3 151.489 405.338 151.531 405.392 151.553C405.449 151.576 405.536 151.587 405.652 151.587ZM408.889 151.3C408.907 151.3 408.918 151.311 408.922 151.333C408.932 151.351 408.927 151.364 408.909 151.373L408.209 151.707C408.192 151.716 408.176 151.72 408.163 151.72C408.092 151.72 408.02 151.678 407.949 151.593C407.882 151.504 407.84 151.384 407.822 151.233L407.383 151.48C407.227 151.564 407.098 151.624 406.996 151.66C406.893 151.696 406.798 151.713 406.709 151.713C406.553 151.713 406.423 151.667 406.316 151.573C406.209 151.48 406.156 151.373 406.156 151.253C406.156 151.084 406.212 150.949 406.322 150.847C406.433 150.744 406.64 150.638 406.942 150.527L407.816 150.207V149.42C407.816 149.149 407.776 148.951 407.696 148.827C407.62 148.703 407.5 148.64 407.336 148.64C407.132 148.64 406.98 148.704 406.882 148.833C406.789 148.958 406.716 149.123 406.662 149.327C406.64 149.403 406.609 149.464 406.569 149.513C406.533 149.558 406.478 149.58 406.403 149.58C406.332 149.58 406.273 149.56 406.229 149.52C406.185 149.476 406.162 149.423 406.162 149.36C406.162 149.249 406.24 149.124 406.396 148.987C406.556 148.849 406.749 148.731 406.976 148.633C407.202 148.536 407.407 148.487 407.589 148.487C407.78 148.487 407.933 148.549 408.049 148.673C408.165 148.793 408.222 148.976 408.222 149.22V150.887C408.222 151.22 408.332 151.387 408.549 151.387C408.638 151.387 408.747 151.358 408.876 151.3H408.889ZM407.816 151.14V151.113V150.293L407.082 150.58C406.918 150.643 406.803 150.713 406.736 150.793C406.673 150.873 406.643 150.969 406.643 151.08C406.643 151.191 406.678 151.284 406.749 151.36C406.82 151.436 406.905 151.473 407.003 151.473C407.109 151.473 407.227 151.44 407.356 151.373L407.816 151.14Z" fill="black"/>
<path d="M421.667 241.667H466.667L475.833 324.296L425.833 324.216L421.667 241.667Z" fill="#C57373"/>
<path d="M105.362 363.412H131.507L127.856 354.546L265.403 356.223L348.175 357.182V360.297H342.088H403.062L399.272 362.719L403.062 426.293L390.984 436.12L397.061 471.338L261.498 475L120.933 473.563L109.336 409.318L113.126 389.902L105.362 363.412Z" fill="#A9AD81"/>
<path d="M120.249 382.637H93.6522L88.333 363.271V341.667L288.694 349.417L409.265 353.847L408.727 366.559L410 380.18L265.644 375.993L120.249 382.637Z" fill="#8D8F6D"/>
<path d="M175.895 405.408C175.895 408.675 175.578 412.15 174.945 415.833H168.97C169.237 413.867 169.412 411.75 169.495 409.483C168.628 408.95 167.662 408.625 166.595 408.508C166.495 410.958 166.228 413.4 165.795 415.833H160.12C160.337 414.2 160.445 412.25 160.445 409.983C160.445 407.7 160.295 405.483 159.995 403.333H166.595C166.628 404.017 166.645 405.033 166.645 406.383C167.612 406.683 168.57 407.092 169.52 407.608C169.52 406.058 169.462 404.633 169.345 403.333H175.845C175.878 404.267 175.895 404.958 175.895 405.408ZM180.001 415.758C178.518 413.858 177.776 411.908 177.776 409.908C177.776 407.908 178.609 406.217 180.276 404.833C181.943 403.45 184.076 402.758 186.676 402.758C188.059 402.758 189.434 402.967 190.801 403.383C192.001 404.9 192.601 406.525 192.601 408.258C192.601 410.442 191.709 412.342 189.926 413.958C188.143 415.575 185.984 416.383 183.451 416.383C182.368 416.383 181.218 416.175 180.001 415.758ZM183.801 404.933C183.218 405.933 182.926 407.108 182.926 408.458C182.926 409.808 183.218 411.058 183.801 412.208C184.401 413.342 185.218 414.158 186.251 414.658C187.034 413.658 187.426 412.5 187.426 411.183C187.426 409.867 187.101 408.642 186.451 407.508C185.818 406.375 184.934 405.517 183.801 404.933ZM203.781 414.608L203.806 413.558C203.806 412.375 203.706 410.967 203.506 409.333H208.906C208.906 411.7 208.789 413.867 208.556 415.833C205.973 416.2 203.298 416.383 200.531 416.383H198.931C197.414 415.733 196.231 414.783 195.381 413.533C194.531 412.267 194.106 410.925 194.106 409.508C194.106 407.625 194.864 406.033 196.381 404.733C197.914 403.417 200.148 402.758 203.081 402.758C204.614 402.758 206.323 402.967 208.206 403.383C207.923 404.517 207.598 405.517 207.231 406.383C206.214 406.45 205.123 406.5 203.956 406.533C204.139 405.967 204.273 405.408 204.356 404.858C203.823 404.758 203.273 404.708 202.706 404.708C202.156 404.708 201.498 404.8 200.731 404.983C200.464 406.117 200.331 407.142 200.331 408.058C200.331 409.442 200.639 410.742 201.256 411.958C201.889 413.158 202.731 414.042 203.781 414.608ZM227.502 415.633V415.833H221.702C221.635 414.883 221.493 413.9 221.277 412.883C220.243 413.933 219.077 414.917 217.777 415.833H211.952C211.835 415.15 211.777 414.25 211.777 413.133C211.777 412 211.943 410.867 212.277 409.733C213.477 409.383 214.627 408.792 215.727 407.958C216.843 407.125 217.652 406.225 218.152 405.258C217.702 404.558 217.227 403.917 216.727 403.333H225.027C226.677 406.917 227.502 411.017 227.502 415.633ZM220.827 411.058C220.393 409.575 219.827 408.175 219.127 406.858C218.343 409.158 217.893 411.333 217.777 413.383C218.977 412.767 219.993 411.992 220.827 411.058ZM243.526 407.683L243.501 408.533C242.168 409.25 240.501 409.808 238.501 410.208C239.934 410.592 241.318 410.783 242.651 410.783H243.176C244.093 412.133 244.684 413.817 244.951 415.833H238.476C238.309 414.667 237.968 413.667 237.451 412.833C236.951 411.983 236.334 411.408 235.601 411.108C235.584 411.392 235.576 411.958 235.576 412.808C235.576 413.658 235.626 414.667 235.726 415.833H230.276C229.793 413.417 229.551 411.175 229.551 409.108C229.551 407.025 229.668 405.1 229.901 403.333H242.951C243.334 405.017 243.526 406.467 243.526 407.683ZM236.126 405.008C235.926 406.475 235.776 407.917 235.676 409.333C236.593 409.2 237.343 408.875 237.926 408.358C237.609 407.242 237.009 406.125 236.126 405.008ZM262.243 402.758C265.459 402.758 268.076 403.158 270.093 403.958C270.809 405.392 271.168 406.842 271.168 408.308C271.168 410.192 270.526 411.825 269.243 413.208C267.376 415.192 264.851 416.183 261.668 416.183C260.568 416.183 259.076 416.058 257.193 415.808C256.543 412.458 256.218 409.367 256.218 406.533C256.218 405.55 256.268 404.483 256.368 403.333C259.051 402.95 261.009 402.758 262.243 402.758ZM262.993 404.633C262.693 407.767 262.543 410.017 262.543 411.383C262.543 412.733 262.568 413.833 262.618 414.683C263.518 414.2 264.218 413.392 264.718 412.258C265.234 411.108 265.493 409.95 265.493 408.783C265.493 407.6 265.276 406.633 264.843 405.883C264.426 405.133 263.809 404.717 262.993 404.633ZM282.687 408.358L285.037 408.508C285.27 408.508 285.445 408.5 285.562 408.483L284.387 410.683H284.162C283.845 410.683 283.395 410.6 282.812 410.433C282.228 410.25 281.812 410.158 281.562 410.158C280.878 410.158 280.337 410.6 279.937 411.483C279.87 412.3 279.82 413.117 279.787 413.933C280.653 414.1 281.337 414.183 281.837 414.183H282.062C282.778 414.183 283.345 414.025 283.762 413.708C284.195 413.392 284.503 412.825 284.687 412.008L287.687 412.133C287.437 413.567 287.103 414.8 286.687 415.833H274.412C274.078 413.583 273.912 411.35 273.912 409.133C273.912 406.917 274.028 404.983 274.262 403.333H287.662C287.362 405.133 287.095 406.4 286.862 407.133C285.878 407.183 284.978 407.217 284.162 407.233C284.295 406.85 284.362 406.492 284.362 406.158C284.362 405.358 283.762 404.958 282.562 404.958C282.112 404.958 281.612 405.008 281.062 405.108C280.695 406.692 280.412 408.083 280.212 409.283C280.878 408.667 281.703 408.358 282.687 408.358ZM305.875 414.208C307.008 414.208 307.933 414.117 308.65 413.933C308.35 412.083 307.5 410.708 306.1 409.808C305.95 411.292 305.875 412.758 305.875 414.208ZM299.575 408.333C299.575 406.583 299.733 404.917 300.05 403.333H313.925C313.175 405.667 311.742 407.358 309.625 408.408C311.542 409.092 313.075 410.042 314.225 411.258C314.075 412.808 313.717 414.333 313.15 415.833H300.575C299.908 413.517 299.575 411.017 299.575 408.333ZM306.3 408.083C307.117 407.867 307.875 407.492 308.575 406.958C309.275 406.425 309.775 405.767 310.075 404.983C308.742 404.983 307.658 405.025 306.825 405.108C306.625 406.075 306.45 407.067 306.3 408.083ZM325.583 408.358L327.933 408.508C328.166 408.508 328.341 408.5 328.458 408.483L327.283 410.683H327.058C326.741 410.683 326.291 410.6 325.708 410.433C325.124 410.25 324.708 410.158 324.458 410.158C323.774 410.158 323.233 410.6 322.833 411.483C322.766 412.3 322.716 413.117 322.683 413.933C323.549 414.1 324.233 414.183 324.733 414.183H324.958C325.674 414.183 326.241 414.025 326.658 413.708C327.091 413.392 327.399 412.825 327.583 412.008L330.583 412.133C330.333 413.567 329.999 414.8 329.583 415.833H317.308C316.974 413.583 316.808 411.35 316.808 409.133C316.808 406.917 316.924 404.983 317.158 403.333H330.558C330.258 405.133 329.991 406.4 329.758 407.133C328.774 407.183 327.874 407.217 327.058 407.233C327.191 406.85 327.258 406.492 327.258 406.158C327.258 405.358 326.658 404.958 325.458 404.958C325.008 404.958 324.508 405.008 323.958 405.108C323.591 406.692 323.308 408.083 323.108 409.283C323.774 408.667 324.599 408.358 325.583 408.358ZM348.13 403.333C348.23 405.083 348.28 406.933 348.28 408.883C348.28 410.817 348.197 413.133 348.03 415.833H345.63C342.397 414.1 339.43 411.742 336.73 408.758C336.863 409.875 336.93 411.025 336.93 412.208C336.93 413.375 336.888 414.583 336.805 415.833H333.88C334.213 413.783 334.38 411.892 334.38 410.158C334.38 408.408 334.297 407.025 334.13 406.008C333.463 405.008 332.938 404.117 332.555 403.333H339.655C340.355 404.533 341.305 405.775 342.505 407.058C343.722 408.325 344.88 409.317 345.98 410.033C345.98 407.6 345.705 405.367 345.155 403.333H348.13ZM221.343 431.308C220.777 431.442 220.302 431.508 219.918 431.508C219.535 431.508 219.168 431.483 218.818 431.433C218.302 432.05 217.835 432.875 217.418 433.908C217.002 434.942 216.685 435.867 216.468 436.683C216.268 437.5 216.043 438.5 215.793 439.683C214.527 445.717 213.26 450 211.993 452.533C211.16 452.783 210.127 453.025 208.893 453.258C210.56 450.408 211.91 447.1 212.943 443.333H207.768C206.452 439.067 205.768 434.9 205.718 430.833H213.018C212.668 432.383 212.493 434.033 212.493 435.783C212.493 437.517 212.777 439.5 213.343 441.733C213.46 441.283 213.66 440.5 213.943 439.383C214.227 438.25 214.435 437.442 214.568 436.958C214.702 436.475 214.902 435.792 215.168 434.908C215.452 434.025 215.702 433.367 215.918 432.933C216.152 432.483 216.435 431.983 216.768 431.433C217.368 430.45 218.16 429.783 219.143 429.433C219.427 429.35 220.002 429.267 220.868 429.183C221.735 429.083 222.36 428.908 222.743 428.658C222.293 429.692 221.827 430.575 221.343 431.308ZM238.563 432.333C237.897 432.233 237.18 432.183 236.413 432.183C235.663 432.183 234.93 432.233 234.213 432.333C234.663 433.1 235.197 433.725 235.813 434.208C236.43 434.692 237.205 435.175 238.138 435.658C239.088 436.125 239.855 436.558 240.438 436.958C241.038 437.358 241.697 438.017 242.413 438.933C243.13 439.85 243.58 440.808 243.763 441.808C242.963 442.842 241.905 443.75 240.588 444.533C239.272 445.333 237.922 445.867 236.538 446.133C235.605 446.05 234.422 445.783 232.988 445.333C231.572 444.9 230.505 444.683 229.788 444.683C229.072 444.683 228.355 444.908 227.638 445.358C227.938 444.508 228.43 443.442 229.113 442.158H229.313C230.38 442.158 231.38 442.325 232.313 442.658C233.263 442.992 234.122 443.325 234.888 443.658C235.672 443.992 236.297 444.158 236.763 444.158C237.247 444.158 237.597 444.125 237.813 444.058C237.813 442.958 237.472 442.05 236.788 441.333C236.422 440.95 236.105 440.658 235.838 440.458C235.588 440.242 235.197 439.95 234.663 439.583L234.238 439.283C233.105 438.5 232.172 437.708 231.438 436.908C230.705 436.092 230.172 435.092 229.838 433.908C230.372 432.725 230.897 431.7 231.413 430.833C232.997 430.45 234.638 430.258 236.338 430.258H237.438C238.872 430.258 240.513 430.458 242.363 430.858C242.097 431.958 241.772 432.95 241.388 433.833C239.988 433.933 238.905 433.983 238.138 433.983C238.288 433.6 238.43 433.05 238.563 432.333ZM246.933 443.258C245.449 441.358 244.708 439.408 244.708 437.408C244.708 435.408 245.541 433.717 247.208 432.333C248.874 430.95 251.008 430.258 253.608 430.258C254.991 430.258 256.366 430.467 257.733 430.883C258.933 432.4 259.533 434.025 259.533 435.758C259.533 437.942 258.641 439.842 256.858 441.458C255.074 443.075 252.916 443.883 250.383 443.883C249.299 443.883 248.149 443.675 246.933 443.258ZM250.733 432.433C250.149 433.433 249.858 434.608 249.858 435.958C249.858 437.308 250.149 438.558 250.733 439.708C251.333 440.842 252.149 441.658 253.183 442.158C253.966 441.158 254.358 440 254.358 438.683C254.358 437.367 254.033 436.142 253.383 435.008C252.749 433.875 251.866 433.017 250.733 432.433ZM270.638 436.233L273.013 436.383C273.229 436.383 273.396 436.375 273.513 436.358L272.338 438.558H272.113C271.796 438.558 271.346 438.475 270.763 438.308C270.179 438.125 269.763 438.033 269.513 438.033C268.863 438.033 268.338 438.458 267.938 439.308C267.854 440.258 267.813 441.008 267.813 441.558C267.813 442.108 267.829 442.7 267.863 443.333H262.438C262.121 441.2 261.963 439 261.963 436.733C261.963 434.45 262.079 432.492 262.313 430.858H275.663C275.363 432.658 275.096 433.917 274.863 434.633L272.163 434.758C272.313 434.342 272.388 433.983 272.388 433.683C272.388 432.883 271.779 432.483 270.563 432.483C270.029 432.483 269.538 432.525 269.088 432.608C268.721 434.092 268.421 435.608 268.188 437.158C268.854 436.542 269.671 436.233 270.638 436.233ZM284.316 430.833V431.508C284.316 435.908 284.041 439.85 283.491 443.333H277.491C277.808 441.8 277.966 440.033 277.966 438.033C277.966 436.017 277.833 433.617 277.566 430.833H284.316ZM302.953 443.133V443.333H297.153C297.087 442.383 296.945 441.4 296.728 440.383C295.695 441.433 294.528 442.417 293.228 443.333H287.403C287.287 442.65 287.228 441.75 287.228 440.633C287.228 439.5 287.395 438.367 287.728 437.233C288.928 436.883 290.078 436.292 291.178 435.458C292.295 434.625 293.103 433.725 293.603 432.758C293.153 432.058 292.678 431.417 292.178 430.833H300.478C302.128 434.417 302.953 438.517 302.953 443.133ZM296.278 438.558C295.845 437.075 295.278 435.675 294.578 434.358C293.795 436.658 293.345 438.833 293.228 440.883C294.428 440.267 295.445 439.492 296.278 438.558Z" fill="black"/>
</g>
<path d="M487.5 4.16675H12.5001C7.89771 4.16675 4.16675 7.89771 4.16675 12.5001V487.5C4.16675 492.102 7.89771 495.833 12.5001 495.833H487.5C492.102 495.833 495.833 492.102 495.833 487.5V12.5001C495.833 7.89771 492.102 4.16675 487.5 4.16675Z" stroke="#A9AD81" stroke-width="10"/>
</g>
<defs>
<filter id="filter0_f_342_29387" x="-4.8418" y="198.492" width="508.85" height="305.517" filterUnits="userSpaceOnUse" color-interpolation-filters="sRGB">
<feFlood flood-opacity="0" result="BackgroundImageFix"/>
<feBlend mode="normal" in="SourceGraphic" in2="BackgroundImageFix" result="shape"/>
<feGaussianBlur stdDeviation="2" result="effect1_foregroundBlur_342_29387"/>
</filter>
<filter id="filter1_d_342_29387" x="25.0691" y="137.451" width="194.875" height="212.251" filterUnits="userSpaceOnUse" color-interpolation-filters="sRGB">
<feFlood flood-opacity="0" result="BackgroundImageFix"/>
<feColorMatrix in="SourceAlpha" type="matrix" values="0 0 0 0 0 0 0 0 0 0 0 0 0 0 0 0 0 0 127 0" result="hardAlpha"/>
<feOffset dy="4"/>
<feGaussianBlur stdDeviation="2"/>
<feComposite in2="hardAlpha" operator="out"/>
<feColorMatrix type="matrix" values="0 0 0 0 0 0 0 0 0 0 0 0 0 0 0 0 0 0 0.25 0"/>
<feBlend mode="normal" in2="BackgroundImageFix" result="effect1_dropShadow_342_29387"/>
<feBlend mode="normal" in="SourceGraphic" in2="effect1_dropShadow_342_29387" result="shape"/>
</filter>
<linearGradient id="paint0_linear_342_29387" x1="64.9998" y1="149.583" x2="309.167" y2="106.667" gradientUnits="userSpaceOnUse">
<stop stop-color="#4C2C1E"/>
<stop offset="1" stop-color="#8A5640"/>
</linearGradient>
<clipPath id="clip0_342_29387">
<rect width="500" height="500" fill="white"/>
</clipPath>
</defs>
</svg>
