<svg width="500" height="500" viewBox="0 0 500 500" fill="none" xmlns="http://www.w3.org/2000/svg">
<g clip-path="url(#clip0_342_29524)">
<mask id="mask0_342_29524" style="mask-type:luminance" maskUnits="userSpaceOnUse" x="8" y="8" width="484" height="484">
<path d="M479.839 8.06445H20.1612C13.4804 8.06445 8.06445 13.4804 8.06445 20.1612V479.839C8.06445 486.52 13.4804 491.935 20.1612 491.935H479.839C486.52 491.935 491.935 486.52 491.935 479.839V20.1612C491.935 13.4804 486.52 8.06445 479.839 8.06445Z" fill="white"/>
</mask>
<g mask="url(#mask0_342_29524)">
<path d="M479.839 8.06445H20.1612C13.4804 8.06445 8.06445 13.4804 8.06445 20.1612V479.839C8.06445 486.52 13.4804 491.935 20.1612 491.935H479.839C486.52 491.935 491.935 486.52 491.935 479.839V20.1612C491.935 13.4804 486.52 8.06445 479.839 8.06445Z" fill="#DEEA94"/>
<path d="M-2.82275 3.62891H142.6L146.37 222.127L73.2963 493.145H-2.82275V3.62891Z" fill="#C3CF77" stroke="#BBC676"/>
<path d="M371.774 222.544L370.567 10.0806H502.823V493.145H419.693L371.774 222.544Z" fill="#C3CF77" stroke="#BBC676"/>
<path d="M59.6978 495.927L146.804 222.621H371.337L418.868 497.137L59.6978 495.927Z" fill="#9E5252" stroke="black" stroke-width="0.1"/>
<path d="M217.338 222.147L179.438 219.383V56.0833L217.338 59.2419V222.147Z" fill="#792910" stroke="#949638"/>
<path d="M256.048 58.8708V220.564" stroke="#949638"/>
<path d="M255.645 21.7742V57.258" stroke="#D9D9D9" stroke-width="6"/>
<path d="M245.968 34.8711H255.645H264.919" stroke="#D9D9D9" stroke-width="6"/>
<path d="M500.51 192.277L496.657 189.667L492.239 196.514L491.178 210.24L491.113 227.401L490.052 241.126L489.822 302.1L502.809 339.299L503.192 237.744L502.234 224.011L502.311 203.418L500.51 192.277Z" fill="#C8AC55"/>
<path d="M470.172 157.839L466.318 155.229L461.901 162.077L460.839 175.802L460.775 192.964L461.745 203.264L461.499 268.478L472.509 294.565L472.853 203.306L471.894 189.573L471.972 168.98L470.172 157.839Z" fill="#B09571"/>
<path d="M445.714 123.424L441.861 120.813L437.443 127.661L436.382 141.387L436.317 158.548L435.256 172.273L433.784 206.591L432.312 240.909L448.06 258.13L448.396 168.891L447.438 155.158L447.515 134.564L445.714 123.424Z" fill="#3F9248" fill-opacity="0.6"/>
<path d="M418.073 95.8612L414.219 93.2507L409.802 100.098L408.741 113.824L408.676 130.985L407.615 144.71L407.479 180.75L407.343 216.789L420.419 230.568L420.755 141.328L419.796 127.595L419.873 107.002L418.073 95.8612Z" fill="#8F9184" fill-opacity="0.6"/>
<path d="M392.922 83.2773L387.296 86.2846L387.231 103.446L386.169 117.171L385.897 189.249L398.973 203.027L399.31 113.789L398.351 100.056L399.403 88.9257L392.922 83.2773Z" fill="#89DD92" fill-opacity="0.6"/>
<path d="M11.7173 220.517L15.9038 217.919L20.7044 224.722L21.8593 238.363L21.932 255.419L23.0873 269.06L23.3455 329.662L9.23965 366.645L8.80957 265.71L9.84925 252.059L9.76215 231.591L11.7173 220.517Z" fill="#D25B05" fill-opacity="0.3"/>
<path d="M35.0249 182.893L39.2115 180.294L44.012 187.097L45.1669 200.738L45.2396 217.794L44.1865 228.033L44.4627 292.849L32.5036 318.786L32.1172 228.085L33.1569 214.434L33.0698 193.966L35.0249 182.893Z" fill="#820C61" fill-opacity="0.3"/>
<path d="M61.6397 137.14L65.8262 134.542L70.6268 141.345L71.7817 154.985L71.8544 172.042L73.0097 185.683L76.2177 253.898L59.1098 271.028L58.7319 182.333L59.7716 168.682L59.6845 148.214L61.6397 137.14Z" fill="#24FF00" fill-opacity="0.3"/>
<path d="M90.5425 102.903L94.7288 100.305L99.5296 107.107L100.684 120.748L100.757 137.805L101.913 151.446L102.065 187.265L102.218 223.085L88.0127 236.79L87.6353 148.095L88.6748 134.445L88.5877 113.977L90.5425 102.903Z" fill="#1700A3" fill-opacity="0.3"/>
<path d="M122.639 90.353L128.753 93.3369L128.826 110.394L129.981 124.034L130.286 195.673L116.081 209.38L115.703 120.684L116.743 107.034L115.598 95.9732L122.639 90.353Z" fill="#00FFD1" fill-opacity="0.3"/>
<path d="M314.113 66.5321L319.355 63.3063L325.797 58.8708L336.519 61.675L341.468 74.4938L344.355 93.7225V108.064L344.563 120.161H326.613H308.701V93.7225L314.113 66.5321Z" fill="#72ABDF"/>
<path d="M307.258 111.29H343.113L346.686 187.903H307.258V111.29Z" fill="#378D4F"/>
<path d="M335.708 125.734H334.677V112.863L335.394 124.125L335.708 112.863L336.335 124.125L336.693 112.863L337.186 125.734H335.708Z" fill="#318D4B"/>
<path d="M329.077 124.968H328.046V112.097L328.763 123.359L329.077 112.097L329.704 123.359L330.063 112.097L330.555 124.968H329.077Z" fill="#318D4B"/>
<path d="M342.876 125.58H341.846V112.709L342.563 123.972L342.876 112.709L343.504 123.972L343.862 112.709L344.355 125.58H342.876Z" fill="#318D4B"/>
<path d="M319.041 125.427H318.01V112.556L318.727 123.818L319.041 112.556L319.668 123.818L320.026 112.556L320.519 125.427H319.041Z" fill="#318D4B"/>
<path d="M333.199 125.734H332.168V112.863L332.885 124.125L333.199 112.863L333.827 124.125L334.185 112.863L334.677 125.734H333.199Z" fill="#318D4B"/>
<path d="M326.567 124.968H325.538V112.097L326.254 123.359L326.567 112.097L327.195 123.359L327.554 112.097L328.046 124.968H326.567Z" fill="#318D4B"/>
<path d="M340.368 125.58H339.337V112.709L340.054 123.972L340.368 112.709L340.994 123.972L341.353 112.709L341.846 125.58H340.368Z" fill="#318D4B"/>
<path d="M316.532 125.427H315.501V112.556L316.218 123.818L316.532 112.556L317.16 123.818L317.518 112.556L318.01 125.427H316.532Z" fill="#318D4B"/>
<path d="M330.689 125.734H329.66V112.863L330.376 124.125L330.689 112.863L331.317 124.125L331.676 112.863L332.169 125.734H330.689Z" fill="#318D4B"/>
<path d="M324.059 124.968H323.029V112.097L323.745 123.359L324.059 112.097L324.686 123.359L325.045 112.097L325.538 124.968H324.059Z" fill="#318D4B"/>
<path d="M337.858 125.58H336.828V112.709L337.544 123.972L337.858 112.709L338.485 123.972L338.844 112.709L339.337 125.58H337.858Z" fill="#318D4B"/>
<path d="M314.023 125.427H312.993V112.556L313.71 123.818L314.023 112.556L314.651 123.818L315.009 112.556L315.502 125.427H314.023Z" fill="#318D4B"/>
<path d="M328.18 125.734H327.15V112.863L327.867 124.125L328.18 112.863L328.808 124.125L329.167 112.863L329.659 125.734H328.18Z" fill="#318D4B"/>
<path d="M321.55 124.968H320.52V112.097L321.236 123.359L321.55 112.097L322.177 123.359L322.536 112.097L323.029 124.968H321.55Z" fill="#318D4B"/>
<path d="M335.349 125.58H334.318V112.709L335.035 123.972L335.349 112.709L335.976 123.972L336.334 112.709L336.828 125.58H335.349Z" fill="#318D4B"/>
<path d="M311.515 125.427H310.484V112.556L311.201 123.818L311.515 112.556L312.142 123.818L312.5 112.556L312.993 125.427H311.515Z" fill="#318D4B"/>
<path d="M326.568 127.266H325.538V114.395L326.255 125.657L326.568 114.395L327.195 125.657L327.554 114.395L328.046 127.266H326.568Z" fill="#318D4B"/>
<path d="M319.937 126.5H318.907V113.629L319.623 124.891L319.937 113.629L320.564 124.891L320.923 113.629L321.416 126.5H319.937Z" fill="#318D4B"/>
<path d="M333.736 127.113H332.706V114.242L333.423 125.504L333.736 114.242L334.363 125.504L334.722 114.242L335.215 127.113H333.736Z" fill="#318D4B"/>
<path d="M309.901 126.96H308.871V114.089L309.588 125.351L309.901 114.089L310.529 125.351L310.887 114.089L311.379 126.96H309.901Z" fill="#318D4B"/>
<path d="M329.435 125.734H328.405V112.863L329.122 124.125L329.435 112.863L330.063 124.125L330.421 112.863L330.914 125.734H329.435Z" fill="#318D4B"/>
<path d="M322.805 124.968H321.774V112.097L322.491 123.359L322.805 112.097L323.432 123.359L323.79 112.097L324.283 124.968H322.805Z" fill="#318D4B"/>
<path d="M336.604 125.58H335.573V112.709L336.29 123.972L336.604 112.709L337.231 123.972L337.589 112.709L338.082 125.58H336.604Z" fill="#318D4B"/>
<path d="M312.768 125.427H311.738V112.556L312.455 123.818L312.768 112.556L313.396 123.818L313.754 112.556L314.247 125.427H312.768Z" fill="#318D4B"/>
<path d="M331.227 125.734H330.197V112.863L330.913 124.125L331.227 112.863L331.855 124.125L332.213 112.863L332.706 125.734H331.227Z" fill="#318D4B"/>
<path d="M324.597 124.968H323.566V112.097L324.283 123.359L324.597 112.097L325.224 123.359L325.582 112.097L326.075 124.968H324.597Z" fill="#318D4B"/>
<path d="M338.396 125.58H337.365V112.709L338.082 123.972L338.396 112.709L339.023 123.972L339.381 112.709L339.875 125.58H338.396Z" fill="#318D4B"/>
<path d="M314.561 125.427H313.53V112.556L314.247 123.818L314.561 112.556L315.188 123.818L315.546 112.556L316.039 125.427H314.561Z" fill="#318D4B"/>
<path d="M330.331 127.419H329.301V114.548L330.018 125.81L330.331 114.548L330.959 125.81L331.317 114.548L331.81 127.419H330.331Z" fill="#318D4B"/>
<path d="M323.701 126.653H322.67V113.782L323.387 125.044L323.701 113.782L324.328 125.044L324.686 113.782L325.179 126.653H323.701Z" fill="#318D4B"/>
<path d="M337.5 127.266H336.469V114.395L337.186 125.657L337.5 114.395L338.127 125.657L338.485 114.395L338.978 127.266H337.5Z" fill="#318D4B"/>
<path d="M313.664 127.113H312.634V114.242L313.351 125.504L313.664 114.242L314.292 125.504L314.65 114.242L315.143 127.113H313.664Z" fill="#318D4B"/>
<path d="M333.199 125.734H332.168V112.863L332.885 124.125L333.199 112.863L333.827 124.125L334.185 112.863L334.677 125.734H333.199Z" fill="#318D4B"/>
<path d="M326.567 124.968H325.538V112.097L326.254 123.359L326.567 112.097L327.195 123.359L327.554 112.097L328.046 124.968H326.567Z" fill="#318D4B"/>
<path d="M340.368 125.58H339.337V112.709L340.054 123.972L340.368 112.709L340.994 123.972L341.353 112.709L341.846 125.58H340.368Z" fill="#318D4B"/>
<path d="M316.532 125.427H315.501V112.556L316.218 123.818L316.532 112.556L317.16 123.818L317.518 112.556L318.01 125.427H316.532Z" fill="#318D4B"/>
<path d="M333.736 127.419H332.706V114.548L333.423 125.81L333.736 114.548L334.363 125.81L334.722 114.548L335.215 127.419H333.736Z" fill="#318D4B"/>
<path d="M327.105 126.653H326.075V113.782L326.792 125.044L327.105 113.782L327.733 125.044L328.091 113.782L328.584 126.653H327.105Z" fill="#318D4B"/>
<path d="M340.905 127.266H339.874V114.395L340.591 125.657L340.905 114.395L341.532 125.657L341.89 114.395L342.384 127.266H340.905Z" fill="#318D4B"/>
<path d="M317.07 127.113H316.04V114.242L316.756 125.504L317.07 114.242L317.697 125.504L318.056 114.242L318.548 127.113H317.07Z" fill="#318D4B"/>
<path d="M329.32 90.3782L344.355 95.5145L343.317 127.022L329.32 120.173V90.3782Z" fill="#C7B995"/>
<path d="M315.322 97.2274L329.32 90.3782V120.173L315.322 127.022V97.2274Z" fill="#D4AE4C"/>
<path d="M315.322 97.2273L330.357 101.679L329.32 133.871L315.322 127.022V97.2273Z" fill="#AE8C34"/>
<path d="M329.32 101.337L344.355 95.5144L343.317 127.022L329.32 133.871V101.337Z" fill="#D4AE4C"/>
<path d="M328.542 83.8708L336.578 89.6926L344.355 95.5144L329.32 101.337L315.322 97.2273L322.321 93.8023L328.542 83.8708Z" fill="#9C5E44"/>
<path d="M328.542 83.8708L329.32 101.337L315.322 97.2273L328.542 83.8708Z" fill="#8A523B"/>
<path d="M335.282 117.433L339.689 116.406V128.734L335.023 131.131L335.282 117.433Z" fill="#726440"/>
<path d="M339.43 122.912C339.43 123.102 339.314 123.255 339.17 123.255C339.027 123.255 338.911 123.102 338.911 122.912C338.911 122.723 339.027 122.569 339.17 122.569C339.314 122.569 339.43 122.723 339.43 122.912Z" fill="#98B44B"/>
<path d="M319.354 116.355V108.008L324.761 109.095L324.525 118.138L319.354 116.355Z" fill="#70C8C2" stroke="#9C5E44"/>
<path d="M321.803 117.775L322.062 108.186" stroke="#9C5E44"/>
<path d="M319.013 112.844L324.996 113.987" stroke="#9C5E44"/>
<path d="M337.055 60.4762L326.143 58.0645L314.812 66.1037L312.294 72.5351L311.035 83.3878L307.258 105.898V186.29H348.387L345.869 101.878L344.226 83.3878L341.38 64.0939L337.055 60.4762Z" fill="#4E9E90" fill-opacity="0.5"/>
<path d="M335.08 224.966L296.371 221.806V59.304L335.08 62.069V224.966Z" fill="#792910" stroke="#949638"/>
<path d="M295.968 58.8708H217.742V221.774H295.968V58.8708Z" fill="#72ABDF"/>
<path d="M92.987 397.581H162.903L156.207 416.935H86.291L92.987 397.581Z" fill="#792910"/>
<path d="M92.396 378.629L162.903 377.419V396.371V397.581H160.934H160.737V396.774L160.146 396.371H94.9565V397.581H92.9871L92.7903 396.371L92.396 378.629Z" fill="#792910"/>
<path d="M156.207 416.935L157.742 412.5L156.207 443.548L152.268 416.935H156.207Z" fill="#792910"/>
<path d="M161.368 402.016L162.903 397.581L161.368 428.629L157.43 402.016H161.368Z" fill="#792910"/>
<path d="M90.2288 416.935L91.7634 412.5L90.2288 443.548L86.29 416.935H90.2288Z" fill="#792910"/>
<path d="M95.3917 402.016L96.9255 397.581L95.3917 428.629L91.4521 402.016H95.3917Z" fill="#792910"/>
<path d="M74.4384 443.548H144.354L137.658 462.903H67.7422L74.4384 443.548Z" fill="#792910"/>
<path d="M73.8477 424.596L144.355 423.387V442.338V443.548H142.385H142.188V442.742L141.597 442.338H76.4079V443.548H74.4385L74.2415 442.338L73.8477 424.596Z" fill="#792910"/>
<path d="M137.659 462.903L139.193 458.468L137.659 489.516L133.719 462.903H137.659Z" fill="#792910"/>
<path d="M142.82 447.984L144.355 443.548L142.82 474.597L138.881 447.984H142.82Z" fill="#792910"/>
<path d="M71.6807 462.903L73.2152 458.468L71.6807 489.516L67.7417 462.903H71.6807Z" fill="#792910"/>
<path d="M76.8432 447.984L78.3778 443.548L76.8432 474.597L72.9043 447.984H76.8432Z" fill="#792910"/>
<path d="M167.987 395.968H237.903L231.207 415.323H161.291L167.987 395.968Z" fill="#792910"/>
<path d="M167.396 377.016L237.903 375.806V394.758V395.967H235.934H235.737V395.161L235.146 394.758H169.956V395.967H167.987L167.79 394.758L167.396 377.016Z" fill="#792910"/>
<path d="M231.207 415.322L232.742 410.887L231.207 441.935L227.268 415.322H231.207Z" fill="#792910"/>
<path d="M236.368 400.403L237.903 395.968L236.368 427.016L232.43 400.403H236.368Z" fill="#792910"/>
<path d="M165.229 415.322L166.763 410.887L165.229 441.935L161.29 415.322H165.229Z" fill="#792910"/>
<path d="M170.392 400.403L171.926 395.968L170.392 427.016L166.452 400.403H170.392Z" fill="#792910"/>
<path d="M158.31 443.548H228.226L221.53 462.903H151.614L158.31 443.548Z" fill="#792910"/>
<path d="M157.718 424.596L228.226 423.387V442.338V443.548H226.256H226.059V442.742L225.468 442.338H160.279V443.548H158.309L158.113 442.338L157.718 424.596Z" fill="#792910"/>
<path d="M221.53 462.903L223.065 458.468L221.53 489.516L217.59 462.903H221.53Z" fill="#792910"/>
<path d="M226.691 447.984L228.226 443.548L226.691 474.597L222.752 447.984H226.691Z" fill="#792910"/>
<path d="M155.552 462.903L157.086 458.468L155.552 489.516L151.613 462.903H155.552Z" fill="#792910"/>
<path d="M160.714 447.984L162.248 443.548L160.714 474.597L156.775 447.984H160.714Z" fill="#792910"/>
<path d="M217.742 111.29H295.968V222.581H217.742V111.29Z" fill="#378D4F"/>
<path d="M257.503 397.581H327.419L320.723 416.935H250.807L257.503 397.581Z" fill="#792910"/>
<path d="M256.912 378.629L327.419 377.419V396.371V397.581H325.45H325.253V396.774L324.662 396.371H259.473V397.581H257.503L257.306 396.371L256.912 378.629Z" fill="#792910"/>
<path d="M320.723 416.935L322.258 412.5L320.723 443.548L316.784 416.935H320.723Z" fill="#792910"/>
<path d="M325.884 402.016L327.419 397.581L325.884 428.629L321.946 402.016H325.884Z" fill="#792910"/>
<path d="M254.745 416.935L256.28 412.5L254.745 443.548L250.806 416.935H254.745Z" fill="#792910"/>
<path d="M259.908 402.016L261.442 397.581L259.908 428.629L255.968 402.016H259.908Z" fill="#792910"/>
<path d="M248.632 443.548H318.548L311.852 462.903H241.936L248.632 443.548Z" fill="#792910"/>
<path d="M248.041 424.596L318.548 423.387V442.338V443.548H316.579H316.382V442.742L315.791 442.338H250.601V443.548H248.632L248.435 442.338L248.041 424.596Z" fill="#792910"/>
<path d="M311.852 462.903L313.387 458.468L311.852 489.516L307.913 462.903H311.852Z" fill="#792910"/>
<path d="M317.013 447.984L318.548 443.548L317.013 474.597L313.075 447.984H317.013Z" fill="#792910"/>
<path d="M245.874 462.903L247.409 458.468L245.874 489.516L241.936 462.903H245.874Z" fill="#792910"/>
<path d="M251.037 447.984L252.571 443.548L251.037 474.597L247.098 447.984H251.037Z" fill="#792910"/>
<path d="M334.116 395.968H404.032L397.336 415.323H327.42L334.116 395.968Z" fill="#792910"/>
<path d="M333.525 377.016L404.032 375.806V394.758V395.967H402.063H401.866V395.161L401.275 394.758H336.085V395.967H334.116L333.919 394.758L333.525 377.016Z" fill="#792910"/>
<path d="M397.336 415.322L398.871 410.887L397.336 441.935L393.396 415.322H397.336Z" fill="#792910"/>
<path d="M402.497 400.403L404.032 395.968L402.497 427.016L398.559 400.403H402.497Z" fill="#792910"/>
<path d="M331.358 415.322L332.892 410.887L331.358 441.935L327.419 415.322H331.358Z" fill="#792910"/>
<path d="M336.521 400.403L338.054 395.968L336.521 427.016L332.581 400.403H336.521Z" fill="#792910"/>
<path d="M334.116 443.548H404.032L397.336 462.903H327.42L334.116 443.548Z" fill="#792910"/>
<path d="M333.525 424.596L404.032 423.387V442.338V443.548H402.063H401.866V442.742L401.275 442.338H336.085V443.548H334.116L333.919 442.338L333.525 424.596Z" fill="#792910"/>
<path d="M397.336 462.903L398.871 458.468L397.336 489.516L393.396 462.903H397.336Z" fill="#792910"/>
<path d="M402.497 447.984L404.032 443.548L402.497 474.597L398.559 447.984H402.497Z" fill="#792910"/>
<path d="M331.358 462.903L332.892 458.468L331.358 489.516L327.419 462.903H331.358Z" fill="#792910"/>
<path d="M336.521 447.984L338.054 443.548L336.521 474.597L332.581 447.984H336.521Z" fill="#792910"/>
<path d="M217.742 126.041V99.5966L295.968 91.8394V117.074L217.742 126.041Z" fill="#AE6161"/>
<g filter="url(#filter0_d_342_29524)">
<path d="M265.964 106.56C266.028 106.777 265.915 106.956 265.708 106.966L259.803 107.235C259.591 107.244 259.362 107.072 259.29 106.851L258.713 105.087C258.645 104.878 258.741 104.697 258.933 104.669L264.74 103.856C264.962 103.824 265.219 104.009 265.289 104.25L265.964 106.56Z" fill="#6A3535"/>
<path d="M254.831 112.563C254.9 112.779 254.796 112.963 254.595 112.981L250.043 113.402C249.835 113.422 249.6 113.258 249.52 113.036L248.907 111.363C248.832 111.157 248.915 110.972 249.098 110.933L253.553 109.983C253.773 109.936 254.042 110.115 254.121 110.361L254.831 112.563Z" fill="#6A3535"/>
<path d="M252.278 104.793C252.391 105.014 252.318 105.234 252.117 105.28L248.223 106.177C248.004 106.227 247.732 106.048 247.651 105.801L247.092 104.093C247.026 103.89 247.113 103.712 247.296 103.678L250.98 102.983C251.172 102.947 251.404 103.08 251.509 103.287L252.278 104.793Z" fill="#6A3535"/>
<path d="M245.049 106.733C245.161 106.953 245.088 107.173 244.887 107.219L240.993 108.116C240.774 108.166 240.502 107.988 240.421 107.74L239.862 106.033C239.796 105.83 239.884 105.652 240.066 105.618L243.75 104.922C243.942 104.886 244.174 105.019 244.279 105.226L245.049 106.733Z" fill="#6A3535"/>
<path d="M249.828 108.797C249.941 109.018 249.868 109.239 249.667 109.285L245.773 110.18C245.553 110.231 245.282 110.053 245.2 109.805L244.642 108.097C244.576 107.895 244.663 107.717 244.846 107.682L248.53 106.987C248.721 106.951 248.953 107.084 249.059 107.291L249.828 108.797Z" fill="#6A3535"/>
<path d="M286.936 104.845C287.051 105.071 286.972 105.294 286.764 105.334L283.217 106.014C282.999 106.056 282.735 105.879 282.656 105.636L282.097 103.927C282.029 103.719 282.124 103.538 282.316 103.51L285.652 103.031C285.842 103.004 286.064 103.136 286.167 103.338L286.936 104.845Z" fill="#6A3535"/>
<path d="M269.318 101.464C269.409 101.685 269.317 101.889 269.112 101.918L263.651 102.684C263.448 102.712 263.21 102.559 263.12 102.339L262.156 100.017C262.067 99.8022 262.15 99.6031 262.345 99.5651L267.696 98.5176C267.902 98.4772 268.152 98.6337 268.246 98.8603L269.318 101.464Z" fill="#6A3535"/>
<path d="M274.821 99.6958C274.933 99.9168 274.86 100.137 274.659 100.183L270.765 101.079C270.546 101.13 270.274 100.951 270.193 100.704L269.634 98.9958C269.568 98.7934 269.656 98.6152 269.838 98.5805L273.522 97.8853C273.714 97.849 273.946 97.9829 274.051 98.1894L274.821 99.6958Z" fill="#6A3535"/>
<path d="M261.697 102.947C261.801 103.168 261.72 103.382 261.517 103.421L255.781 104.505C255.563 104.546 255.301 104.368 255.222 104.126L254.652 102.385C254.588 102.19 254.667 102.017 254.839 101.974L260.208 100.639C260.407 100.59 260.658 100.733 260.763 100.955L261.697 102.947Z" fill="#6A3535"/>
<path d="M258.141 107.132C258.212 107.339 258.123 107.522 257.935 107.555L252.142 108.554C251.924 108.592 251.665 108.415 251.587 108.175L251.026 106.46C250.957 106.251 251.053 106.069 251.245 106.043L257.074 105.225C257.288 105.195 257.536 105.367 257.616 105.599L258.141 107.132Z" fill="#6A3535"/>
<path d="M244.337 110.392C244.406 110.6 244.314 110.782 244.123 110.812L238.317 111.721C238.099 111.755 237.844 111.578 237.767 111.341L237.204 109.619C237.135 109.41 237.23 109.229 237.423 109.201L243.248 108.384C243.463 108.355 243.713 108.528 243.792 108.762L244.337 110.392Z" fill="#6A3535"/>
<path d="M247.246 117.747C247.308 117.961 247.198 118.139 246.996 118.152L240.22 118.592C240.008 118.606 239.774 118.433 239.7 118.209L239.125 116.449C239.058 116.241 239.151 116.06 239.342 116.032L246.017 115.039C246.239 115.006 246.498 115.191 246.569 115.434L247.246 117.747Z" fill="#6A3535"/>
<path d="M239.866 114.387C239.982 114.613 239.903 114.837 239.693 114.876L234.915 115.78C234.696 115.822 234.433 115.645 234.354 115.403L233.795 113.69C233.727 113.483 233.82 113.302 234.01 113.273L238.581 112.577C238.771 112.548 238.995 112.681 239.099 112.883L239.866 114.387Z" fill="#6A3535"/>
<path d="M238.261 107.696C238.396 107.928 238.321 108.17 238.103 108.212L233.351 109.11C233.132 109.152 232.87 108.975 232.791 108.733L232.438 107.653C232.37 107.446 232.463 107.265 232.653 107.236L237.247 106.537C237.428 106.509 237.641 106.628 237.75 106.816L238.261 107.696Z" fill="#6A3535"/>
<path d="M243.122 113.872C243.253 114.136 243.114 114.381 242.847 114.358L240.733 114.172C240.552 114.156 240.371 114.019 240.29 113.839L239.962 113.106C239.852 112.862 239.969 112.639 240.207 112.636L242.189 112.616C242.373 112.614 242.57 112.747 242.662 112.933L243.122 113.872Z" fill="#6A3535"/>
<path d="M235.597 111.272C235.71 111.501 235.622 111.725 235.406 111.755L230.244 112.497C230.046 112.525 229.813 112.379 229.717 112.166L229.391 111.435C229.293 111.217 229.375 111.011 229.572 110.971L234.578 109.976C234.772 109.937 235.009 110.074 235.113 110.286L235.597 111.272Z" fill="#6A3535"/>
<path d="M237.225 118.021C237.337 118.251 237.249 118.474 237.033 118.505L231.871 119.246C231.672 119.274 231.44 119.128 231.344 118.915L231.017 118.184C230.92 117.968 231.001 117.76 231.2 117.721L236.204 116.725C236.4 116.686 236.636 116.824 236.741 117.036L237.225 118.021Z" fill="#6A3535"/>
<path d="M232.925 115.245C233.038 115.475 232.95 115.698 232.734 115.729L227.572 116.47C227.373 116.498 227.141 116.352 227.046 116.139L226.718 115.409C226.621 115.192 226.702 114.985 226.9 114.945L231.905 113.949C232.1 113.91 232.337 114.048 232.442 114.26L232.925 115.245Z" fill="#6A3535"/>
<path d="M228.565 112.557C228.678 112.787 228.59 113.01 228.374 113.041L223.212 113.782C223.013 113.81 222.781 113.664 222.685 113.451L222.359 112.721C222.261 112.503 222.342 112.297 222.541 112.257L227.546 111.261C227.74 111.222 227.977 111.36 228.082 111.572L228.565 112.557Z" fill="#6A3535"/>
<path d="M230.243 109.235C230.356 109.465 230.268 109.689 230.052 109.719L224.89 110.46C224.692 110.489 224.459 110.343 224.363 110.13L224.037 109.399C223.939 109.181 224.021 108.975 224.218 108.935L229.224 107.939C229.418 107.901 229.655 108.038 229.759 108.25L230.243 109.235Z" fill="#6A3535"/>
<path d="M224.284 106.866C224.397 107.096 224.308 107.319 224.093 107.35L218.931 108.091C218.732 108.12 218.5 107.973 218.404 107.76L218.077 107.03C217.98 106.813 218.061 106.605 218.259 106.566L223.264 105.57C223.459 105.531 223.696 105.669 223.8 105.881L224.284 106.866Z" fill="#6A3535"/>
<path d="M233.05 105.521C233.163 105.751 233.075 105.974 232.859 106.005L227.697 106.746C227.499 106.774 227.266 106.628 227.171 106.414L226.844 105.684C226.746 105.467 226.828 105.26 227.025 105.221L232.031 104.225C232.225 104.186 232.463 104.323 232.567 104.535L233.05 105.521Z" fill="#6A3535"/>
<path d="M242.13 103.787C242.265 104.018 242.19 104.261 241.971 104.302L237.22 105.201C237.001 105.243 236.738 105.065 236.659 104.823L236.307 103.743C236.239 103.536 236.332 103.355 236.522 103.326L241.116 102.627C241.296 102.6 241.509 102.718 241.619 102.907L242.13 103.787Z" fill="#6A3535"/>
<path d="M248.647 102.215C248.759 102.435 248.687 102.655 248.486 102.701L244.592 103.598C244.373 103.648 244.1 103.47 244.02 103.222L243.461 101.514C243.395 101.312 243.483 101.134 243.666 101.1L247.349 100.405C247.541 100.368 247.772 100.501 247.878 100.709L248.647 102.215Z" fill="#6A3535"/>
<path d="M254.272 100.59C254.482 100.831 254.436 101.145 254.183 101.196L250.808 101.874C250.618 101.913 250.386 101.782 250.278 101.576L249.747 100.564C249.62 100.321 249.72 100.081 249.955 100.064L253.351 99.8152C253.492 99.8047 253.651 99.8781 253.762 100.006L254.272 100.59Z" fill="#6A3535"/>
<path d="M253.325 116.321C253.44 116.547 253.362 116.77 253.153 116.81L249.606 117.49C249.387 117.532 249.124 117.355 249.045 117.112L248.486 115.403C248.418 115.195 248.512 115.013 248.704 114.986L252.041 114.507C252.23 114.48 252.453 114.612 252.556 114.813L253.325 116.321Z" fill="#6A3535"/>
<path d="M259.601 116.01C259.683 116.233 259.581 116.429 259.372 116.448L254.839 116.868C254.631 116.887 254.396 116.723 254.316 116.501L253.722 114.88C253.639 114.654 253.749 114.456 253.963 114.443L258.542 114.169C258.747 114.156 258.973 114.318 259.054 114.534L259.601 116.01Z" fill="#6A3535"/>
<path d="M266.469 110.778C266.55 110.996 266.453 111.19 266.251 111.215L257.338 112.327C257.128 112.353 256.887 112.188 256.804 111.962L256.209 110.334C256.128 110.115 256.228 109.922 256.434 109.9L265.396 108.943C265.604 108.922 265.841 109.084 265.923 109.307L266.469 110.778Z" fill="#6A3535"/>
<path d="M272.189 114.337C272.27 114.555 272.173 114.748 271.97 114.773L263.058 115.885C262.847 115.911 262.606 115.747 262.523 115.521L261.928 113.893C261.847 113.674 261.948 113.48 262.153 113.458L271.116 112.501C271.324 112.48 271.56 112.643 271.643 112.865L272.189 114.337Z" fill="#6A3535"/>
<path d="M278.547 109.348C278.628 109.565 278.531 109.759 278.329 109.784L269.416 110.896C269.206 110.923 268.964 110.757 268.882 110.531L268.287 108.904C268.206 108.685 268.306 108.49 268.511 108.468L277.474 107.513C277.682 107.49 277.919 107.654 278.001 107.876L278.547 109.348Z" fill="#6A3535"/>
<path d="M277.666 105.092C277.746 105.31 277.649 105.503 277.447 105.528L268.534 106.64C268.324 106.666 268.082 106.502 267.999 106.275L267.404 104.648C267.324 104.429 267.424 104.235 267.629 104.213L276.592 103.256C276.8 103.235 277.037 103.397 277.12 103.62L277.666 105.092Z" fill="#6A3535"/>
<path d="M285.369 113.034C285.449 113.251 285.353 113.445 285.151 113.47L276.237 114.582C276.028 114.608 275.786 114.443 275.703 114.217L275.108 112.59C275.028 112.371 275.128 112.176 275.333 112.155L284.295 111.198C284.504 111.176 284.741 111.339 284.823 111.562L285.369 113.034Z" fill="#6A3535"/>
<path d="M285.496 109.006C285.611 109.231 285.532 109.455 285.324 109.494L281.777 110.174C281.558 110.216 281.295 110.039 281.216 109.797L280.657 108.088C280.589 107.879 280.684 107.697 280.875 107.67L284.212 107.192C284.402 107.164 284.624 107.297 284.727 107.497L285.496 109.006Z" fill="#6A3535"/>
<path d="M281.91 101.985C282.035 102.229 281.93 102.467 281.692 102.48L278.513 102.652C278.349 102.66 278.167 102.557 278.06 102.396L277.293 101.231C277.133 100.987 277.209 100.719 277.449 100.685L280.654 100.226C280.843 100.198 281.066 100.331 281.168 100.531L281.91 101.985Z" fill="#6A3535"/>
<path d="M281.355 100.255C281.47 100.48 281.391 100.705 281.182 100.744L277.635 101.424C277.417 101.466 277.154 101.288 277.075 101.047L276.516 99.3377C276.447 99.1288 276.542 98.9474 276.734 98.9199L280.071 98.4409C280.26 98.4143 280.483 98.5465 280.585 98.7473L281.355 100.255Z" fill="#6A3535"/>
<path d="M292.548 112.142C292.663 112.368 292.584 112.591 292.376 112.631L288.829 113.311C288.611 113.353 288.347 113.176 288.268 112.933L287.709 111.224C287.641 111.016 287.736 110.835 287.928 110.807L291.264 110.328C291.454 110.301 291.676 110.433 291.779 110.634L292.548 112.142Z" fill="#6A3535"/>
</g>
<path d="M255.645 54.8385C256.09 54.8385 256.451 54.4774 256.451 54.032C256.451 53.5866 256.09 53.2256 255.645 53.2256C255.199 53.2256 254.838 53.5866 254.838 54.032C254.838 54.4774 255.199 54.8385 255.645 54.8385Z" fill="black"/>
<path d="M255.645 50.8063C256.09 50.8063 256.451 50.4452 256.451 49.9998C256.451 49.5544 256.09 49.1934 255.645 49.1934C255.199 49.1934 254.838 49.5544 254.838 49.9998C254.838 50.4452 255.199 50.8063 255.645 50.8063Z" fill="black"/>
<path d="M255.645 47.5804C256.09 47.5804 256.451 47.2194 256.451 46.774C256.451 46.3286 256.09 45.9675 255.645 45.9675C255.199 45.9675 254.838 46.3286 254.838 46.774C254.838 47.2194 255.199 47.5804 255.645 47.5804Z" fill="black"/>
<path d="M255.645 44.3546C256.09 44.3546 256.451 43.9935 256.451 43.5482C256.451 43.1028 256.09 42.7417 255.645 42.7417C255.199 42.7417 254.838 43.1028 254.838 43.5482C254.838 43.9935 255.199 44.3546 255.645 44.3546Z" fill="black"/>
<path d="M255.645 40.3224C256.09 40.3224 256.451 39.9613 256.451 39.5159C256.451 39.0705 256.09 38.7095 255.645 38.7095C255.199 38.7095 254.838 39.0705 254.838 39.5159C254.838 39.9613 255.199 40.3224 255.645 40.3224Z" fill="black"/>
<path d="M248.387 35.4838C248.832 35.4838 249.193 35.1227 249.193 34.6773C249.193 34.2319 248.832 33.8708 248.387 33.8708C247.942 33.8708 247.581 34.2319 247.581 34.6773C247.581 35.1227 247.942 35.4838 248.387 35.4838Z" fill="black"/>
<path d="M251.613 35.4838C252.058 35.4838 252.419 35.1227 252.419 34.6773C252.419 34.2319 252.058 33.8708 251.613 33.8708C251.167 33.8708 250.806 34.2319 250.806 34.6773C250.806 35.1227 251.167 35.4838 251.613 35.4838Z" fill="black"/>
<path d="M255.645 35.4838C256.09 35.4838 256.451 35.1227 256.451 34.6773C256.451 34.2319 256.09 33.8708 255.645 33.8708C255.199 33.8708 254.838 34.2319 254.838 34.6773C254.838 35.1227 255.199 35.4838 255.645 35.4838Z" fill="black"/>
<path d="M259.677 35.4838C260.122 35.4838 260.484 35.1227 260.484 34.6773C260.484 34.2319 260.122 33.8708 259.677 33.8708C259.232 33.8708 258.871 34.2319 258.871 34.6773C258.871 35.1227 259.232 35.4838 259.677 35.4838Z" fill="black"/>
<path d="M262.903 35.4838C263.349 35.4838 263.71 35.1227 263.71 34.6773C263.71 34.2319 263.349 33.8708 262.903 33.8708C262.458 33.8708 262.097 34.2319 262.097 34.6773C262.097 35.1227 262.458 35.4838 262.903 35.4838Z" fill="black"/>
<path d="M255.645 30.6451C256.09 30.6451 256.451 30.2841 256.451 29.8387C256.451 29.3933 256.09 29.0322 255.645 29.0322C255.199 29.0322 254.838 29.3933 254.838 29.8387C254.838 30.2841 255.199 30.6451 255.645 30.6451Z" fill="black"/>
<path d="M255.645 25.8063C256.09 25.8063 256.451 25.4452 256.451 24.9998C256.451 24.5544 256.09 24.1934 255.645 24.1934C255.199 24.1934 254.838 24.5544 254.838 24.9998C254.838 25.4452 255.199 25.8063 255.645 25.8063Z" fill="black"/>
<path d="M98.7378 378.302H124.039L120.506 369.722L253.616 371.345L333.718 372.273V375.287H327.827H386.835L383.167 377.631L386.835 439.155L375.146 448.664L381.027 482.747L249.837 486.29L113.806 484.899L102.584 422.727L106.252 403.937L98.7378 378.302Z" fill="#A9AD81"/>
<path d="M113.144 396.906H87.4054L82.2578 378.166V357.258L276.155 364.759L392.837 369.045L392.317 381.347L393.548 394.529L253.849 390.477L113.144 396.906Z" fill="#8D8F6D"/>
<path d="M180.531 416.935V417.589C180.531 421.847 180.265 425.661 179.733 429.032H173.926C174.233 427.548 174.386 425.839 174.386 423.903C174.386 421.952 174.257 419.629 173.999 416.935H180.531ZM191.938 427.847L191.962 426.831C191.962 425.685 191.865 424.322 191.671 422.742H196.897C196.897 425.032 196.784 427.129 196.559 429.032C194.059 429.387 191.47 429.564 188.792 429.564H187.244C185.776 428.935 184.631 428.016 183.809 426.806C182.986 425.581 182.575 424.282 182.575 422.911C182.575 421.089 183.309 419.548 184.776 418.29C186.26 417.016 188.421 416.379 191.26 416.379C192.744 416.379 194.397 416.581 196.22 416.984C195.946 418.081 195.631 419.048 195.276 419.887C194.292 419.951 193.236 420 192.107 420.032C192.284 419.484 192.413 418.943 192.494 418.411C191.978 418.314 191.446 418.266 190.897 418.266C190.365 418.266 189.728 418.355 188.986 418.532C188.728 419.629 188.599 420.621 188.599 421.508C188.599 422.847 188.897 424.105 189.494 425.282C190.107 426.443 190.921 427.298 191.938 427.847ZM204.828 427.169C205.586 427.347 206.312 427.435 207.005 427.435C207.699 427.435 208.247 427.282 208.65 426.976C209.07 426.653 209.376 426.105 209.57 425.33L212.473 425.427C212.231 426.879 211.909 428.081 211.505 429.032H199.626C199.32 426.968 199.167 424.831 199.167 422.621C199.167 420.411 199.279 418.516 199.505 416.935H206.473C205.409 421.016 204.86 424.427 204.828 427.169ZM222.793 421.798L225.067 421.943C225.293 421.943 225.463 421.935 225.575 421.919L224.438 424.048H224.221C223.914 424.048 223.479 423.968 222.914 423.806C222.35 423.629 221.946 423.54 221.704 423.54C221.043 423.54 220.519 423.968 220.132 424.822C220.067 425.613 220.019 426.403 219.987 427.193C220.825 427.355 221.487 427.435 221.971 427.435H222.188C222.882 427.435 223.43 427.282 223.834 426.976C224.253 426.669 224.551 426.121 224.729 425.33L227.632 425.451C227.39 426.839 227.067 428.032 226.664 429.032H214.785C214.463 426.855 214.301 424.693 214.301 422.548C214.301 420.403 214.414 418.532 214.64 416.935H227.608C227.317 418.677 227.059 419.903 226.834 420.613C225.882 420.661 225.011 420.693 224.221 420.71C224.35 420.339 224.414 419.992 224.414 419.669C224.414 418.895 223.834 418.508 222.672 418.508C222.237 418.508 221.753 418.556 221.221 418.653C220.866 420.185 220.592 421.532 220.398 422.693C221.043 422.097 221.842 421.798 222.793 421.798ZM239.218 418.387C238.573 418.29 237.879 418.242 237.138 418.242C236.412 418.242 235.702 418.29 235.009 418.387C235.444 419.129 235.96 419.734 236.557 420.201C237.154 420.669 237.904 421.137 238.807 421.605C239.726 422.056 240.468 422.476 241.033 422.863C241.613 423.25 242.25 423.887 242.944 424.774C243.638 425.661 244.073 426.589 244.25 427.556C243.476 428.556 242.452 429.435 241.178 430.193C239.904 430.968 238.597 431.484 237.259 431.742C236.355 431.661 235.21 431.403 233.823 430.968C232.452 430.548 231.42 430.339 230.726 430.339C230.033 430.339 229.339 430.556 228.646 430.992C228.936 430.169 229.412 429.137 230.073 427.895H230.267C231.299 427.895 232.267 428.056 233.17 428.379C234.089 428.701 234.92 429.024 235.662 429.347C236.42 429.669 237.025 429.831 237.476 429.831C237.944 429.831 238.283 429.798 238.492 429.734C238.492 428.669 238.162 427.79 237.5 427.097C237.146 426.726 236.839 426.443 236.581 426.25C236.339 426.04 235.96 425.758 235.444 425.403L235.033 425.113C233.936 424.355 233.033 423.589 232.323 422.814C231.613 422.024 231.097 421.056 230.775 419.911C231.291 418.766 231.799 417.774 232.299 416.935C233.831 416.564 235.42 416.379 237.065 416.379H238.129C239.517 416.379 241.105 416.572 242.896 416.96C242.638 418.024 242.323 418.984 241.952 419.839C240.597 419.935 239.549 419.984 238.807 419.984C238.952 419.613 239.089 419.081 239.218 418.387ZM252.592 416.935V417.589C252.592 421.847 252.325 425.661 251.793 429.032H245.987C246.293 427.548 246.446 425.839 246.446 423.903C246.446 421.952 246.317 419.629 246.059 416.935H252.592ZM270.628 428.839V429.032H265.015C264.95 428.113 264.813 427.161 264.604 426.177C263.604 427.193 262.475 428.145 261.217 429.032H255.579C255.467 428.371 255.41 427.5 255.41 426.419C255.41 425.322 255.571 424.226 255.894 423.129C257.055 422.79 258.168 422.218 259.233 421.411C260.313 420.605 261.096 419.734 261.579 418.798C261.144 418.121 260.684 417.5 260.2 416.935H268.233C269.829 420.403 270.628 424.371 270.628 428.839ZM264.168 424.411C263.749 422.976 263.2 421.621 262.523 420.347C261.765 422.572 261.329 424.677 261.217 426.661C262.378 426.064 263.362 425.314 264.168 424.411ZM287.167 416.379C290.279 416.379 292.812 416.766 294.763 417.54C295.457 418.927 295.804 420.33 295.804 421.75C295.804 423.572 295.183 425.153 293.941 426.492C292.134 428.411 289.691 429.371 286.61 429.371C285.546 429.371 284.102 429.25 282.279 429.008C281.65 425.766 281.336 422.774 281.336 420.032C281.336 419.081 281.384 418.048 281.481 416.935C284.078 416.564 285.973 416.379 287.167 416.379ZM287.892 418.193C287.602 421.226 287.457 423.403 287.457 424.726C287.457 426.032 287.481 427.097 287.529 427.919C288.4 427.451 289.078 426.669 289.562 425.572C290.062 424.46 290.312 423.339 290.312 422.21C290.312 421.064 290.102 420.129 289.683 419.403C289.279 418.677 288.683 418.274 287.892 418.193ZM306.951 421.798L309.225 421.943C309.451 421.943 309.621 421.935 309.734 421.919L308.596 424.048H308.379C308.072 424.048 307.637 423.968 307.072 423.806C306.508 423.629 306.104 423.54 305.863 423.54C305.201 423.54 304.677 423.968 304.29 424.822C304.225 425.613 304.177 426.403 304.145 427.193C304.984 427.355 305.645 427.435 306.129 427.435H306.346C307.04 427.435 307.588 427.282 307.992 426.976C308.411 426.669 308.709 426.121 308.887 425.33L311.79 425.451C311.548 426.839 311.225 428.032 310.822 429.032H298.943C298.621 426.855 298.459 424.693 298.459 422.548C298.459 420.403 298.572 418.532 298.798 416.935H311.766C311.475 418.677 311.217 419.903 310.992 420.613C310.04 420.661 309.169 420.693 308.379 420.71C308.508 420.339 308.572 419.992 308.572 419.669C308.572 418.895 307.992 418.508 306.83 418.508C306.395 418.508 305.911 418.556 305.379 418.653C305.024 420.185 304.75 421.532 304.556 422.693C305.201 422.097 306 421.798 306.951 421.798ZM193.256 445.556C193.256 448.718 192.95 452.081 192.337 455.645H186.554C186.813 453.742 186.982 451.693 187.063 449.5C186.224 448.984 185.288 448.669 184.256 448.556C184.159 450.927 183.901 453.29 183.482 455.645H177.99C178.2 454.064 178.304 452.177 178.304 449.984C178.304 447.774 178.159 445.629 177.869 443.548H184.256C184.288 444.21 184.304 445.193 184.304 446.5C185.24 446.79 186.167 447.185 187.087 447.685C187.087 446.185 187.03 444.806 186.917 443.548H193.208C193.24 444.451 193.256 445.121 193.256 445.556ZM210.947 455.451V455.645H205.334C205.27 454.726 205.133 453.774 204.923 452.79C203.923 453.806 202.794 454.758 201.536 455.645H195.899C195.786 454.984 195.729 454.113 195.729 453.032C195.729 451.935 195.891 450.839 196.213 449.742C197.375 449.403 198.488 448.831 199.552 448.024C200.633 447.218 201.415 446.347 201.899 445.411C201.463 444.734 201.004 444.113 200.52 443.548H208.552C210.149 447.016 210.947 450.984 210.947 455.451ZM204.488 451.024C204.068 449.589 203.52 448.234 202.842 446.96C202.084 449.185 201.649 451.29 201.536 453.274C202.697 452.677 203.681 451.927 204.488 451.024ZM227.301 444.661C227.301 444.226 227.237 443.855 227.108 443.548H234.003C234.584 445.097 235.011 446.992 235.285 449.234C235.575 451.476 235.729 453.613 235.745 455.645H230.156C230.043 452.742 229.567 449.943 228.729 447.25C227.325 449.992 226.567 452.79 226.454 455.645H221.713C221.293 452.484 220.487 449.677 219.293 447.226C218.422 449.274 217.987 451.177 217.987 452.935C217.987 453.887 218.1 454.79 218.325 455.645H212.446C212.334 454.984 212.277 454.113 212.277 453.032C212.277 451.935 212.438 450.839 212.761 449.742C213.906 449.403 215.003 448.847 216.051 448.072C217.116 447.298 217.898 446.452 218.398 445.532C217.979 444.839 217.535 444.177 217.067 443.548H224.713C225.325 445.21 225.785 447.016 226.092 448.968C226.898 447.468 227.301 446.032 227.301 444.661ZM246.892 448.411L249.167 448.556C249.392 448.556 249.562 448.548 249.675 448.532L248.538 450.661H248.32C248.013 450.661 247.578 450.581 247.013 450.419C246.449 450.242 246.046 450.153 245.804 450.153C245.142 450.153 244.618 450.581 244.231 451.435C244.167 452.226 244.118 453.016 244.086 453.806C244.925 453.968 245.586 454.048 246.07 454.048H246.288C246.981 454.048 247.529 453.895 247.933 453.589C248.352 453.282 248.65 452.734 248.828 451.943L251.731 452.064C251.489 453.451 251.167 454.645 250.763 455.645H238.884C238.562 453.468 238.4 451.306 238.4 449.161C238.4 447.016 238.513 445.145 238.739 443.548H251.707C251.417 445.29 251.159 446.516 250.933 447.226C249.981 447.274 249.11 447.306 248.32 447.322C248.449 446.951 248.513 446.605 248.513 446.282C248.513 445.508 247.933 445.121 246.771 445.121C246.336 445.121 245.852 445.169 245.32 445.266C244.965 446.798 244.691 448.145 244.497 449.306C245.142 448.71 245.941 448.411 246.892 448.411ZM259.713 453.782C260.471 453.96 261.196 454.048 261.89 454.048C262.584 454.048 263.132 453.895 263.535 453.589C263.954 453.266 264.261 452.718 264.454 451.943L267.358 452.04C267.116 453.492 266.793 454.693 266.39 455.645H254.511C254.204 453.581 254.051 451.443 254.051 449.234C254.051 447.024 254.164 445.129 254.39 443.548H261.358C260.293 447.629 259.745 451.04 259.713 453.782ZM274.267 453.782C275.025 453.96 275.75 454.048 276.444 454.048C277.138 454.048 277.686 453.895 278.089 453.589C278.509 453.266 278.815 452.718 279.009 451.943L281.912 452.04C281.67 453.492 281.347 454.693 280.944 455.645H269.065C268.759 453.581 268.605 451.443 268.605 449.234C268.605 447.024 268.718 445.129 268.944 443.548H275.912C274.847 447.629 274.299 451.04 274.267 453.782ZM290.442 443.548V444.201C290.442 448.46 290.175 452.274 289.643 455.645H283.837C284.143 454.161 284.296 452.452 284.296 450.516C284.296 448.564 284.167 446.242 283.909 443.548H290.442ZM307.413 443.548C307.509 445.242 307.558 447.032 307.558 448.919C307.558 450.79 307.477 453.032 307.316 455.645H304.993C301.864 453.968 298.993 451.685 296.38 448.798C296.509 449.879 296.574 450.992 296.574 452.137C296.574 453.266 296.534 454.435 296.453 455.645H293.622C293.945 453.661 294.106 451.831 294.106 450.153C294.106 448.46 294.025 447.121 293.864 446.137C293.219 445.169 292.711 444.306 292.34 443.548H299.211C299.888 444.71 300.808 445.911 301.969 447.153C303.146 448.379 304.267 449.339 305.332 450.032C305.332 447.677 305.066 445.516 304.534 443.548H307.413Z" fill="black"/>
</g>
<path d="M479.839 4.03223H20.1613C11.2534 4.03223 4.03223 11.2534 4.03223 20.1613V479.839C4.03223 488.746 11.2534 495.968 20.1613 495.968H479.839C488.746 495.968 495.968 488.746 495.968 479.839V20.1613C495.968 11.2534 488.746 4.03223 479.839 4.03223Z" stroke="#A9AD81" stroke-width="10"/>
</g>
<defs>
<filter id="filter0_d_342_29524" x="214.036" y="97.8794" width="82.5649" height="29.3699" filterUnits="userSpaceOnUse" color-interpolation-filters="sRGB">
<feFlood flood-opacity="0" result="BackgroundImageFix"/>
<feColorMatrix in="SourceAlpha" type="matrix" values="0 0 0 0 0 0 0 0 0 0 0 0 0 0 0 0 0 0 127 0" result="hardAlpha"/>
<feOffset dy="4"/>
<feGaussianBlur stdDeviation="2"/>
<feComposite in2="hardAlpha" operator="out"/>
<feColorMatrix type="matrix" values="0 0 0 0 0 0 0 0 0 0 0 0 0 0 0 0 0 0 0.25 0"/>
<feBlend mode="normal" in2="BackgroundImageFix" result="effect1_dropShadow_342_29524"/>
<feBlend mode="normal" in="SourceGraphic" in2="effect1_dropShadow_342_29524" result="shape"/>
</filter>
<clipPath id="clip0_342_29524">
<rect width="500" height="500" fill="white"/>
</clipPath>
</defs>
</svg>
