<svg width="500" height="500" viewBox="0 0 500 500" fill="none" xmlns="http://www.w3.org/2000/svg">
<g clip-path="url(#clip0_342_31075)">
<mask id="mask0_342_31075" style="mask-type:luminance" maskUnits="userSpaceOnUse" x="0" y="0" width="500" height="500">
<path d="M487.5 0H12.5C5.59644 0 0 5.59644 0 12.5V487.5C0 494.404 5.59644 500 12.5 500H487.5C494.404 500 500 494.404 500 487.5V12.5C500 5.59644 494.404 0 487.5 0Z" fill="white"/>
</mask>
<g mask="url(#mask0_342_31075)">
<path d="M487.5 0H12.5C5.59644 0 0 5.59644 0 12.5V487.5C0 494.404 5.59644 500 12.5 500H487.5C494.404 500 500 494.404 500 487.5V12.5C500 5.59644 494.404 0 487.5 0Z" fill="#72ABDF"/>
<path d="M127.242 59.5089L41.2128 -1.22023L-23.3088 -37.5V12.9762L93.445 94.2117L148.749 180.968L213.271 271.667H258.333L172.304 114.717L127.242 59.5089Z" fill="#318D4B"/>
<path d="M93.0218 65.811L7.30475 6.88572L-56.9832 -28.3164V20.6605L59.3473 99.4829L114.451 183.662L178.739 271.667H223.638L137.922 119.38L93.0218 65.811Z" fill="#318D4B"/>
<path d="M48.122 65.811L-37.5952 6.88572L-101.883 -28.3164V20.6605L14.4474 99.4829L69.5513 183.662L133.839 271.667H178.738L93.0217 119.38L48.122 65.811Z" fill="#318D4B"/>
<path d="M-7.03394 75.2633L-96.8032 19.0437L-164.13 -14.542V32.1859L-42.3005 107.388L15.4084 187.703L82.7353 271.667H134.859L39.988 126.372L-7.03394 75.2633Z" fill="#318D4B"/>
<path d="M-45.7588 65.811L-131.476 6.88572L-195.763 -28.3164V20.6605L-79.4333 99.4829L-24.3295 183.662L39.9584 271.667H84.8583L-0.859282 119.38L-45.7588 65.811Z" fill="#318D4B"/>
<path d="M-82.4949 65.811L-168.212 6.88572L-232.5 -28.3164V20.6605L-116.169 99.4829L-61.0656 183.662L3.22227 271.667H48.1217L-37.5954 119.38L-82.4949 65.811Z" fill="#318D4B"/>
<path d="M419.583 261.917H410V142.917L416.667 247.042L419.583 142.917L425.417 247.042L428.75 142.917L433.333 261.917H419.583Z" fill="#225330"/>
<path d="M357.917 254.833H348.333V135.833L355 239.959L357.917 135.833L363.75 239.959L367.083 135.833L371.667 254.833H357.917Z" fill="#225330"/>
<path d="M486.25 260.5H476.667V141.5L483.333 245.625L486.25 141.5L492.083 245.625L495.417 141.5L500 260.5H486.25Z" fill="#225330"/>
<path d="M264.583 259.083H255V140.083L261.667 244.208L264.583 140.083L270.417 244.208L273.75 140.083L278.333 259.083H264.583Z" fill="#225330"/>
<path d="M396.25 261.917H386.667V142.917L393.333 247.042L396.25 142.917L402.083 247.042L405.417 142.917L410 261.917H396.25Z" fill="#225330"/>
<path d="M334.583 254.833H325V135.833L331.667 239.959L334.583 135.833L340.417 239.959L343.75 135.833L348.333 254.833H334.583Z" fill="#225330"/>
<path d="M462.917 260.5H453.333V141.5L460 245.625L462.917 141.5L468.75 245.625L472.083 141.5L476.667 260.5H462.917Z" fill="#225330"/>
<path d="M241.25 259.083H231.667V140.083L238.333 244.208L241.25 140.083L247.083 244.208L250.417 140.083L255 259.083H241.25Z" fill="#225330"/>
<path d="M372.917 261.917H363.333V142.917L370 247.042L372.917 142.917L378.75 247.042L382.083 142.917L386.667 261.917H372.917Z" fill="#225330"/>
<path d="M311.25 254.833H301.667V135.833L308.333 239.959L311.25 135.833L317.083 239.959L320.417 135.833L325 254.833H311.25Z" fill="#225330"/>
<path d="M439.583 260.5H430V141.5L436.667 245.625L439.583 141.5L445.417 245.625L448.75 141.5L453.333 260.5H439.583Z" fill="#225330"/>
<path d="M217.917 259.083H208.333V140.083L215 244.208L217.917 140.083L223.75 244.208L227.083 140.083L231.667 259.083H217.917Z" fill="#225330"/>
<path d="M349.583 261.917H340V142.917L346.667 247.042L349.583 142.917L355.417 247.042L358.75 142.917L363.333 261.917H349.583Z" fill="#225330"/>
<path d="M287.917 254.833H278.333V135.833L285 239.959L287.917 135.833L293.75 239.959L297.083 135.833L301.667 254.833H287.917Z" fill="#225330"/>
<path d="M416.25 260.5H406.667V141.5L413.333 245.625L416.25 141.5L422.083 245.625L425.417 141.5L430 260.5H416.25Z" fill="#225330"/>
<path d="M194.583 259.083H185V140.083L191.667 244.208L194.583 140.083L200.417 244.208L203.75 140.083L208.333 259.083H194.583Z" fill="#225330"/>
<path d="M334.583 276.083H325V157.083L331.667 261.209L334.583 157.083L340.417 261.209L343.75 157.083L348.333 276.083H334.583Z" fill="#225330"/>
<path d="M272.917 269H263.333V150L270 254.125L272.917 150L278.75 254.125L282.083 150L286.667 269H272.917Z" fill="#225330"/>
<path d="M401.25 274.667H391.667V155.667L398.333 259.792L401.25 155.667L407.083 259.792L410.417 155.667L415 274.667H401.25Z" fill="#225330"/>
<path d="M179.583 273.25H170V154.25L176.667 258.375L179.583 154.25L185.417 258.375L188.75 154.25L193.333 273.25H179.583Z" fill="#225330"/>
<path d="M361.25 261.917H351.667V142.917L358.333 247.042L361.25 142.917L367.083 247.042L370.417 142.917L375 261.917H361.25Z" fill="#225330"/>
<path d="M299.583 254.833H290V135.833L296.667 239.959L299.583 135.833L305.417 239.959L308.75 135.833L313.333 254.833H299.583Z" fill="#225330"/>
<path d="M427.917 260.5H418.333V141.5L425 245.625L427.917 141.5L433.75 245.625L437.083 141.5L441.667 260.5H427.917Z" fill="#225330"/>
<path d="M206.25 259.083H196.667V140.083L203.333 244.208L206.25 140.083L212.083 244.208L215.417 140.083L220 259.083H206.25Z" fill="#225330"/>
<path d="M377.917 261.917H368.333V142.917L375 247.042L377.917 142.917L383.75 247.042L387.083 142.917L391.667 261.917H377.917Z" fill="#225330"/>
<path d="M316.25 254.833H306.667V135.833L313.333 239.959L316.25 135.833L322.083 239.959L325.417 135.833L330 254.833H316.25Z" fill="#225330"/>
<path d="M444.583 260.5H435V141.5L441.667 245.625L444.583 141.5L450.417 245.625L453.75 141.5L458.333 260.5H444.583Z" fill="#225330"/>
<path d="M222.917 259.083H213.333V140.083L220 244.208L222.917 140.083L228.75 244.208L232.083 140.083L236.667 259.083H222.917Z" fill="#225330"/>
<path d="M369.583 277.5H360V158.5L366.667 262.625L369.583 158.5L375.417 262.625L378.75 158.5L383.333 277.5H369.583Z" fill="#225330"/>
<path d="M307.917 270.417H298.333V151.417L305 255.542L307.917 151.417L313.75 255.542L317.083 151.417L321.667 270.417H307.917Z" fill="#225330"/>
<path d="M436.25 276.083H426.667V157.083L433.333 261.209L436.25 157.083L442.083 261.209L445.417 157.083L450 276.083H436.25Z" fill="#225330"/>
<path d="M214.583 274.667H205V155.667L211.667 259.792L214.583 155.667L220.417 259.792L223.75 155.667L228.333 274.667H214.583Z" fill="#225330"/>
<path d="M396.25 261.917H386.667V142.917L393.333 247.042L396.25 142.917L402.083 247.042L405.417 142.917L410 261.917H396.25Z" fill="#225330"/>
<path d="M334.583 254.833H325V135.833L331.667 239.959L334.583 135.833L340.417 239.959L343.75 135.833L348.333 254.833H334.583Z" fill="#225330"/>
<path d="M462.917 260.5H453.333V141.5L460 245.625L462.917 141.5L468.75 245.625L472.083 141.5L476.667 260.5H462.917Z" fill="#225330"/>
<path d="M241.25 259.083H231.667V140.083L238.333 244.208L241.25 140.083L247.083 244.208L250.417 140.083L255 259.083H241.25Z" fill="#225330"/>
<path d="M401.25 277.5H391.667V158.5L398.333 262.625L401.25 158.5L407.083 262.625L410.417 158.5L415 277.5H401.25Z" fill="#225330"/>
<path d="M339.583 270.417H330V151.417L336.667 255.542L339.583 151.417L345.417 255.542L348.75 151.417L353.333 270.417H339.583Z" fill="#225330"/>
<path d="M467.917 276.083H458.333V157.083L465 261.209L467.917 157.083L473.75 261.209L477.083 157.083L481.667 276.083H467.917Z" fill="#225330"/>
<path d="M246.25 274.667H236.667V155.667L243.333 259.792L246.25 155.667L252.083 259.792L255.417 155.667L260 274.667H246.25Z" fill="#225330"/>
<path d="M209.583 280.25H200V161.25L206.667 265.375L209.583 161.25L215.417 265.375L218.75 161.25L223.333 280.25H209.583Z" fill="#225330"/>
<path d="M147.917 273.167H138.333V154.167L145 258.292L147.917 154.167L153.75 258.292L157.083 154.167L161.667 273.167H147.917Z" fill="#225330"/>
<path d="M276.25 278.833H266.667V159.833L273.333 263.958L276.25 159.833L282.083 263.958L285.417 159.833L290 278.833H276.25Z" fill="#225330"/>
<path d="M54.5833 277.417H45V158.417L51.6667 262.542L54.5833 158.417L60.4167 262.542L63.75 158.417L68.3333 277.417H54.5833Z" fill="#225330"/>
<path d="M186.25 280.25H176.667V161.25L183.333 265.375L186.25 161.25L192.083 265.375L195.417 161.25L200 280.25H186.25Z" fill="#225330"/>
<path d="M124.583 273.167H115V154.167L121.667 258.292L124.583 154.167L130.417 258.292L133.75 154.167L138.333 273.167H124.583Z" fill="#225330"/>
<path d="M252.917 278.833H243.333V159.833L250 263.958L252.917 159.833L258.75 263.958L262.083 159.833L266.667 278.833H252.917Z" fill="#225330"/>
<path d="M31.2501 277.417H21.6667V158.417L28.3334 262.542L31.2501 158.417L37.0834 262.542L40.4167 158.417L45.0001 277.417H31.2501Z" fill="#225330"/>
<path d="M162.917 280.25H153.333V161.25L160 265.375L162.917 161.25L168.75 265.375L172.083 161.25L176.667 280.25H162.917Z" fill="#225330"/>
<path d="M101.25 273.167H91.6665V154.167L98.3332 258.292L101.25 154.167L107.083 258.292L110.417 154.167L115 273.167H101.25Z" fill="#225330"/>
<path d="M229.583 278.833H220V159.833L226.667 263.958L229.583 159.833L235.417 263.958L238.75 159.833L243.333 278.833H229.583Z" fill="#225330"/>
<path d="M7.91659 277.417H-1.66675V158.417L4.99992 262.542L7.91659 158.417L13.7499 262.542L17.0833 158.417L21.6666 277.417H7.91659Z" fill="#225330"/>
<path d="M139.583 280.25H130V161.25L136.667 265.375L139.583 161.25L145.417 265.375L148.75 161.25L153.333 280.25H139.583Z" fill="#225330"/>
<path d="M77.9168 273.167H68.3335V154.167L75.0002 258.292L77.9168 154.167L83.7502 258.292L87.0835 154.167L91.6668 273.167H77.9168Z" fill="#225330"/>
<path d="M206.25 278.833H196.667V159.833L203.333 263.958L206.25 159.833L212.083 263.958L215.417 159.833L220 278.833H206.25Z" fill="#225330"/>
<path d="M124.583 294.417H115V175.417L121.667 279.542L124.583 175.417L130.417 279.542L133.75 175.417L138.333 294.417H124.583Z" fill="#225330"/>
<path d="M62.9168 287.333H53.3335V168.333L60.0002 272.459L62.9168 168.333L68.7502 272.459L72.0835 168.333L76.6668 287.333H62.9168Z" fill="#225330"/>
<path d="M191.25 293H181.667V174L188.333 278.125L191.25 174L197.083 278.125L200.417 174L205 293H191.25Z" fill="#225330"/>
<path d="M151.25 280.25H141.667V161.25L148.333 265.375L151.25 161.25L157.083 265.375L160.417 161.25L165 280.25H151.25Z" fill="#225330"/>
<path d="M89.5833 273.167H80V154.167L86.6667 258.292L89.5833 154.167L95.4167 258.292L98.75 154.167L103.333 273.167H89.5833Z" fill="#225330"/>
<path d="M217.917 278.833H208.333V159.833L215 263.958L217.917 159.833L223.75 263.958L227.083 159.833L231.667 278.833H217.917Z" fill="#225330"/>
<path d="M-3.74992 277.417H-13.3333V158.417L-6.66658 262.542L-3.74992 158.417L2.08342 262.542L5.41675 158.417L10.0001 277.417H-3.74992Z" fill="#225330"/>
<path d="M167.917 280.25H158.333V161.25L165 265.375L167.917 161.25L173.75 265.375L177.083 161.25L181.667 280.25H167.917Z" fill="#225330"/>
<path d="M106.25 273.167H96.6665V154.167L103.333 258.292L106.25 154.167L112.083 258.292L115.417 154.167L120 273.167H106.25Z" fill="#225330"/>
<path d="M234.583 278.833H225V159.833L231.667 263.958L234.583 159.833L240.417 263.958L243.75 159.833L248.333 278.833H234.583Z" fill="#225330"/>
<path d="M12.9166 277.417H3.33325V158.417L9.99992 262.542L12.9166 158.417L18.7499 262.542L22.0833 158.417L26.6666 277.417H12.9166Z" fill="#225330"/>
<path d="M159.583 295.833H150V176.833L156.667 280.958L159.583 176.833L165.417 280.958L168.75 176.833L173.333 295.833H159.583Z" fill="#225330"/>
<path d="M97.9168 288.75H88.3335V169.75L95.0002 273.875L97.9168 169.75L103.75 273.875L107.083 169.75L111.667 288.75H97.9168Z" fill="#225330"/>
<path d="M226.25 294.417H216.667V175.417L223.333 279.542L226.25 175.417L232.083 279.542L235.417 175.417L240 294.417H226.25Z" fill="#225330"/>
<path d="M4.58333 293H-5V174L1.66667 278.125L4.58333 174L10.4167 278.125L13.75 174L18.3333 293H4.58333Z" fill="#225330"/>
<path d="M186.25 280.25H176.667V161.25L183.333 265.375L186.25 161.25L192.083 265.375L195.417 161.25L200 280.25H186.25Z" fill="#225330"/>
<path d="M124.583 273.167H115V154.167L121.667 258.292L124.583 154.167L130.417 258.292L133.75 154.167L138.333 273.167H124.583Z" fill="#225330"/>
<path d="M252.917 278.833H243.333V159.833L250 263.958L252.917 159.833L258.75 263.958L262.083 159.833L266.667 278.833H252.917Z" fill="#225330"/>
<path d="M31.2501 277.417H21.6667V158.417L28.3334 262.542L31.2501 158.417L37.0834 262.542L40.4167 158.417L45.0001 277.417H31.2501Z" fill="#225330"/>
<path d="M191.25 295.833H181.667V176.833L188.333 280.958L191.25 176.833L197.083 280.958L200.417 176.833L205 295.833H191.25Z" fill="#225330"/>
<path d="M129.583 288.75H120V169.75L126.667 273.875L129.583 169.75L135.417 273.875L138.75 169.75L143.333 288.75H129.583Z" fill="#225330"/>
<path d="M257.917 294.417H248.333V175.417L255 279.542L257.917 175.417L263.75 279.542L267.083 175.417L271.667 294.417H257.917Z" fill="#225330"/>
<path d="M36.2501 293H26.6667V174L33.3334 278.125L36.2501 174L42.0834 278.125L45.4167 174L50.0001 293H36.2501Z" fill="#225330"/>
<path d="M357.279 127.789L363.254 130.879L370.723 129.334L372.216 288.473L364.748 300.834L366.242 290.019L357.279 288.473L351.304 283.838L337.861 290.019L348.317 282.293L351.304 271.478L350.144 275.677L340.848 276.113L345.33 274.568L349.811 273.023L352.798 266.843L357.279 184.955L324.418 169.504L327.405 166.414L355.786 175.685L357.279 171.049V127.789Z" fill="#613527"/>
<path d="M370.723 129.333H378.191L384.166 123.153V147.874L391.634 146.329L412.546 130.878L414.039 132.423L400.597 143.238L406.571 140.148L433.458 124.698L436.445 126.243L385.659 160.234L391.634 268.387L394.622 273.022L402.09 276.112H399.103H391.634L387.153 282.292L385.659 285.382V294.653L382.672 288.472H372.216L370.723 129.333Z" fill="#613527"/>
<path d="M334.875 158.689C348.317 164.869 328.899 183.41 324.419 172.595C310.975 183.41 303.507 160.234 313.963 158.689C306.494 146.329 322.924 135.513 324.419 144.784C345.33 137.058 337.862 155.599 334.875 158.689Z" fill="#5C9748"/>
<path d="M339.799 152.903C353.242 159.083 333.823 177.623 329.343 166.808C315.899 177.623 308.431 154.448 318.888 152.903C311.418 140.543 327.849 129.727 329.343 138.998C350.254 131.272 342.786 149.813 339.799 152.903Z" fill="#5C9748"/>
<path d="M330.837 152.903C344.279 159.083 324.862 177.623 320.382 166.808C306.937 177.623 299.469 154.448 309.926 152.903C302.457 140.543 318.887 129.727 320.382 138.998C341.292 131.272 333.823 149.813 330.837 152.903Z" fill="#5C9748"/>
<path d="M450.332 125.092C463.775 131.272 444.357 149.813 439.877 138.998C426.432 149.813 418.964 126.637 429.421 125.092C421.952 112.732 438.382 101.916 439.877 111.187C460.787 103.461 453.319 122.002 450.332 125.092Z" fill="#5C9748"/>
<path d="M396.502 89.5818C429.608 109.469 381.784 169.134 370.751 134.33C337.639 169.134 319.246 94.5543 344.999 89.5818C326.603 49.8054 367.069 15.0004 370.751 44.8334C422.251 19.9724 403.857 79.6371 396.502 89.5818Z" fill="#5C9748"/>
<path d="M415.988 70.9593C449.095 90.8467 401.271 150.512 390.238 115.708C357.126 150.512 338.733 75.9314 364.486 70.9593C346.09 31.1829 386.556 -3.62219 390.238 26.2108C441.738 1.34993 423.343 61.0146 415.988 70.9593Z" fill="#5C9748"/>
<path d="M386.558 70.9593C419.664 90.8467 371.841 150.512 360.807 115.708C327.695 150.512 309.302 75.9314 335.056 70.9593C316.659 31.1829 357.126 -3.62219 360.807 26.2108C412.307 1.34993 393.913 61.0146 386.558 70.9593Z" fill="#5C9748"/>
<path d="M317.279 117.789L323.254 120.879L330.723 119.334L332.216 278.473L324.748 290.834L326.242 280.019L317.279 278.473L311.304 273.838L297.861 280.019L308.317 272.293L311.304 261.478L310.144 265.677L300.848 266.113L305.33 264.568L309.811 263.023L312.798 256.843L317.279 174.955L284.418 159.504L287.405 156.414L315.786 165.685L317.279 161.049V117.789Z" fill="#8D4E3A"/>
<path d="M330.723 119.333H338.191L344.166 113.153V137.874L351.634 136.329L372.546 120.878L374.039 122.423L360.597 133.238L366.571 130.148L393.458 114.698L396.445 116.243L345.659 150.234L351.634 258.387L354.622 263.022L362.09 266.112H359.103H351.634L347.153 272.292L345.659 275.382V284.653L342.672 278.472H332.216L330.723 119.333Z" fill="#8D4E3A"/>
<path d="M294.875 148.689C308.317 154.869 288.899 173.41 284.419 162.595C270.975 173.41 263.507 150.234 273.963 148.689C266.494 136.329 282.924 125.513 284.419 134.784C305.33 127.058 297.862 145.599 294.875 148.689Z" fill="#458D2C"/>
<path d="M299.799 142.903C313.242 149.083 293.823 167.623 289.343 156.808C275.899 167.623 268.431 144.448 278.888 142.903C271.418 130.543 287.849 119.727 289.343 128.998C310.254 121.272 302.786 139.813 299.799 142.903Z" fill="#458D2C"/>
<path d="M290.837 142.903C304.279 149.083 284.862 167.623 280.382 156.808C266.937 167.623 259.469 144.448 269.926 142.903C262.457 130.543 278.887 119.727 280.382 128.998C301.292 121.272 293.823 139.813 290.837 142.903Z" fill="#458D2C"/>
<path d="M410.332 115.092C423.775 121.272 404.357 139.813 399.877 128.998C386.432 139.813 378.964 116.637 389.421 115.092C381.952 102.732 398.382 91.9162 399.877 101.187C420.787 93.4612 413.319 112.002 410.332 115.092Z" fill="#458D2C"/>
<path d="M356.502 79.5819C389.608 99.4693 341.784 159.134 330.751 124.33C297.639 159.134 279.246 84.5543 304.999 79.5819C286.603 39.8054 327.069 5.00035 330.751 34.8334C382.251 9.97245 363.857 69.6371 356.502 79.5819Z" fill="#458D2C"/>
<path d="M375.988 60.9593C409.095 80.8469 361.271 140.512 350.238 105.708C317.126 140.512 298.733 65.9314 324.486 60.9593C306.09 21.1829 346.556 -13.6222 350.238 16.2108C401.738 -8.65009 383.343 51.0146 375.988 60.9593Z" fill="#458D2C"/>
<path d="M346.558 60.9593C379.664 80.8469 331.841 140.512 320.807 105.708C287.695 140.512 269.302 65.9314 295.056 60.9593C276.659 21.1829 317.126 -13.6222 320.807 16.2108C372.307 -8.65009 353.913 51.0146 346.558 60.9593Z" fill="#458D2C"/>
<path d="M222.317 116.955L228.392 120.045L235.984 118.5L237.503 277.639L229.91 290L231.429 279.185L222.317 277.639L216.242 273.004L202.576 279.185L213.206 271.459L216.242 260.644L215.063 264.843L205.612 265.279L210.168 263.734L214.724 262.189L217.762 256.009L222.317 174.122L188.908 158.671L191.946 155.581L220.798 164.852L222.317 160.216V116.955Z" fill="#7D402D"/>
<path d="M235.984 118.5H243.578L249.652 112.32V137.041L257.245 135.496L278.505 120.045L280.024 121.59L266.357 132.405L272.431 129.315L299.765 113.865L302.803 115.41L251.17 149.401L257.245 257.554L260.282 262.189L267.875 265.279H264.838H257.245L252.689 271.459L251.17 274.549V283.82L248.134 277.639H237.504L235.984 118.5Z" fill="#7D402D"/>
<path d="M199.54 147.856C213.206 154.036 193.464 172.577 188.909 161.762C175.241 172.577 167.648 149.401 178.279 147.856C170.686 135.496 187.39 124.68 188.909 133.951C210.168 126.225 202.576 144.766 199.54 147.856Z" fill="#528E3D"/>
<path d="M204.546 142.07C218.212 148.25 198.471 166.79 193.916 155.975C180.247 166.79 172.655 143.615 183.286 142.07C175.691 129.71 192.396 118.894 193.916 128.165C215.175 120.439 207.582 138.98 204.546 142.07Z" fill="#528E3D"/>
<path d="M195.435 142.07C209.101 148.25 189.359 166.79 184.804 155.975C171.136 166.79 163.543 143.615 174.174 142.07C166.581 129.71 183.285 118.894 184.804 128.165C206.063 120.439 198.471 138.98 195.435 142.07Z" fill="#528E3D"/>
<path d="M316.921 114.259C330.587 120.439 310.846 138.979 306.291 128.164C292.623 138.979 285.03 115.804 295.661 114.259C288.067 101.899 304.771 91.0827 306.291 100.354C327.551 92.6277 319.957 111.169 316.921 114.259Z" fill="#528E3D"/>
<path d="M262.193 78.7484C295.852 98.6358 247.231 158.301 236.013 123.497C202.35 158.301 183.65 83.7208 209.832 78.7484C191.13 38.972 232.271 4.16685 236.013 34C288.372 9.13895 269.672 68.8036 262.193 78.7484Z" fill="#528E3D"/>
<path d="M282.005 60.1263C315.663 80.0139 267.042 139.679 255.824 104.874C222.161 139.679 203.461 65.0984 229.644 60.1263C210.942 20.3499 252.082 -14.4552 255.824 15.3778C308.182 -9.48309 289.482 50.1816 282.005 60.1263Z" fill="#528E3D"/>
<path d="M252.084 60.1263C285.742 80.0139 237.121 139.679 225.903 104.874C192.24 139.679 173.54 65.0984 199.723 60.1263C181.021 20.3499 222.161 -14.4552 225.903 15.3778C278.262 -9.48309 259.562 50.1816 252.084 60.1263Z" fill="#528E3D"/>
<path d="M48.1507 120.289L54.225 123.379L61.8179 121.834L63.3365 280.973L55.7436 293.334L57.2622 282.519L48.1507 280.973L42.0763 276.338L28.409 282.519L39.0391 274.793L42.0763 263.978L40.897 268.177L31.4462 268.613L36.002 267.068L40.5577 265.523L43.5949 259.343L48.1507 177.455L14.7417 162.004L17.7789 158.914L46.6321 168.185L48.1507 163.549V120.289Z" fill="#7D402D"/>
<path d="M61.8179 121.833H69.4108L75.4852 115.653V140.374L83.0781 138.829L104.338 123.378L105.857 124.923L92.19 135.738L98.2642 132.648L125.598 117.198L128.636 118.743L77.0038 152.734L83.0781 260.887L86.115 265.522L93.7084 268.612H90.6709H83.0781L78.5224 274.792L77.0038 277.882V287.153L73.9666 280.972H63.3365L61.8179 121.833Z" fill="#7D402D"/>
<path d="M25.373 151.189C39.0394 157.369 19.2977 175.91 14.7429 165.095C1.07455 175.91 -6.51818 152.734 4.11285 151.189C-3.481 138.829 13.2234 128.013 14.7429 137.284C36.0022 129.558 28.4092 148.099 25.373 151.189Z" fill="#528E3D"/>
<path d="M30.3794 145.403C44.0457 151.583 24.304 170.123 19.7493 159.308C6.0809 170.123 -1.51183 146.948 9.1192 145.403C1.52535 133.043 18.2297 122.227 19.7493 131.498C41.0085 123.772 33.4155 142.313 30.3794 145.403Z" fill="#528E3D"/>
<path d="M21.2678 145.403C34.9341 151.583 15.1925 170.123 10.6378 159.308C-3.03067 170.123 -10.6234 146.948 0.0076311 145.403C-7.58622 133.043 9.11817 122.227 10.6378 131.498C31.8969 123.772 24.304 142.313 21.2678 145.403Z" fill="#528E3D"/>
<path d="M142.755 117.592C156.421 123.772 136.68 142.313 132.125 131.498C118.457 142.313 110.863 119.137 121.495 117.592C113.901 105.232 130.605 94.4162 132.125 103.687C153.384 95.9612 145.791 114.502 142.755 117.592Z" fill="#528E3D"/>
<path d="M88.0266 82.0819C121.685 101.969 73.0642 161.634 61.8465 126.83C28.1831 161.634 9.48319 87.0543 35.6659 82.0819C16.9634 42.3054 58.1039 7.50035 61.8465 37.3334C114.205 12.4724 95.5049 72.1371 88.0266 82.0819Z" fill="#528E3D"/>
<path d="M107.838 63.4593C141.497 83.3467 92.875 143.012 81.6577 108.207C47.9943 143.012 29.2945 68.4314 55.4772 63.4593C36.7747 23.6829 77.9151 -11.1222 81.6577 18.7108C134.016 -6.15009 115.316 53.5146 107.838 63.4593Z" fill="#528E3D"/>
<path d="M77.9173 63.4593C111.576 83.3467 62.9546 143.012 51.7369 108.207C18.0735 143.012 -0.626402 68.4314 25.5563 63.4593C6.85374 23.6829 47.9942 -11.1222 51.7369 18.7108C104.095 -6.15009 85.395 53.5146 77.9173 63.4593Z" fill="#528E3D"/>
<path d="M111.484 111.955L117.558 115.045L125.151 113.5L126.67 272.639L119.076 285L120.596 274.185L111.484 272.639L105.409 268.004L91.7423 274.185L102.372 266.459L105.409 255.644L104.23 259.843L94.779 260.279L99.3348 258.734L103.891 257.189L106.928 251.009L111.484 169.122L78.0747 153.671L81.112 150.581L109.965 159.852L111.484 155.216V111.955Z" fill="#7D402D"/>
<path d="M125.151 113.5H132.744L138.818 107.32V132.041L146.412 130.496L167.672 115.045L169.19 116.59L155.523 127.405L161.598 124.315L188.932 108.865L191.969 110.41L140.337 144.401L146.412 252.554L149.448 257.189L157.042 260.279H154.004H146.412L141.856 266.459L140.337 269.549V278.82L137.3 272.639H126.67L125.151 113.5Z" fill="#7D402D"/>
<path d="M88.7069 142.856C102.373 149.036 82.6312 167.577 78.0764 156.762C64.408 167.577 56.8153 144.401 67.4463 142.856C59.8525 130.496 76.5568 119.68 78.0764 128.951C99.3353 121.225 91.7428 139.766 88.7069 142.856Z" fill="#639452" fill-opacity="0.6"/>
<path d="M93.7126 137.07C107.379 143.25 87.6376 161.79 83.0828 150.975C69.4144 161.79 61.8217 138.615 72.4527 137.07C64.8589 124.71 81.5632 113.894 83.0828 123.165C104.342 115.439 96.7493 133.98 93.7126 137.07Z" fill="#639452" fill-opacity="0.6"/>
<path d="M84.6015 137.07C98.2673 143.25 78.5257 161.79 73.971 150.975C60.3026 161.79 52.7098 138.615 63.3409 137.07C55.747 124.71 72.4514 113.894 73.971 123.165C95.2298 115.439 87.6373 133.98 84.6015 137.07Z" fill="#639452" fill-opacity="0.6"/>
<path d="M206.088 109.259C219.754 115.439 200.013 133.979 195.458 123.164C181.79 133.979 174.197 110.804 184.828 109.259C177.234 96.8985 193.938 86.0827 195.458 95.3535C216.718 87.6277 209.124 106.169 206.088 109.259Z" fill="#639452" fill-opacity="0.6"/>
<path d="M151.36 73.7484C185.018 93.6358 136.397 153.301 125.18 118.497C91.5165 153.301 72.8165 78.7205 98.999 73.7484C80.2966 33.972 121.437 -0.833151 125.18 29C177.538 4.13897 158.838 63.8036 151.36 73.7484Z" fill="#639452" fill-opacity="0.6"/>
<path d="M171.171 55.1263C204.83 75.0139 156.208 134.679 144.991 99.8745C111.327 134.679 92.6273 60.0984 118.811 55.1263C100.108 15.3499 141.248 -19.4552 144.991 10.3778C197.349 -14.4831 178.649 45.1816 171.171 55.1263Z" fill="#639452" fill-opacity="0.6"/>
<path d="M141.251 55.1263C174.909 75.0139 126.288 134.679 115.07 99.8745C81.4069 134.679 62.707 60.0984 88.89 55.1263C70.1871 15.3499 111.328 -19.4552 115.07 10.3778C167.428 -14.4831 148.728 45.1816 141.251 55.1263Z" fill="#639452" fill-opacity="0.6"/>
<path d="M292.042 135.289L288.656 138.379L284.424 136.834L283.578 295.973L287.809 308.334L286.963 297.519L292.042 295.973L295.428 291.338L303.045 297.519L297.12 289.793L295.428 278.978L296.085 283.177L301.353 283.613L298.813 282.068L296.274 280.523L294.581 274.343L292.042 192.455L310.663 177.004L308.97 173.914L292.888 183.185L292.042 178.549V135.289Z" fill="#7D402D"/>
<path d="M284.424 136.833H280.192L276.806 130.653V155.374L272.574 153.829L260.724 138.378L259.877 139.923L267.495 150.738L264.11 147.648L248.874 132.198L247.181 133.743L275.959 167.734L272.574 275.887L270.881 280.522L266.649 283.612H268.342H272.574L275.113 289.792L275.959 292.882V302.153L277.652 295.972H283.577L284.424 136.833Z" fill="#7D402D"/>
<path d="M304.738 166.189C297.12 172.369 308.124 190.91 310.663 180.095C318.281 190.91 322.513 167.734 316.588 166.189C320.82 153.829 311.509 143.013 310.663 152.284C298.813 144.558 303.045 163.099 304.738 166.189Z" fill="#528E3D"/>
<path d="M301.947 160.403C294.33 166.583 305.333 185.123 307.872 174.308C315.491 185.123 319.723 161.948 313.797 160.403C318.03 148.043 308.719 137.227 307.872 146.498C296.023 138.772 300.255 157.313 301.947 160.403Z" fill="#528E3D"/>
<path d="M307.026 160.403C299.408 166.583 310.412 185.123 312.951 174.308C320.569 185.123 324.801 161.948 318.876 160.403C323.108 148.043 313.797 137.227 312.951 146.498C301.101 138.772 305.333 157.313 307.026 160.403Z" fill="#528E3D"/>
<path d="M239.312 132.592C231.694 138.772 242.698 157.313 245.237 146.498C252.855 157.313 257.087 134.137 251.162 132.592C255.394 120.232 246.084 109.416 245.237 118.687C233.387 110.961 237.619 129.502 239.312 132.592Z" fill="#528E3D"/>
<path d="M269.816 97.0818C251.055 116.969 278.156 176.634 284.407 141.83C303.171 176.634 313.594 102.054 299 97.0818C309.425 57.3054 286.494 22.5004 284.407 52.3334C255.224 27.4724 265.647 87.1368 269.816 97.0818Z" fill="#528E3D"/>
<path d="M258.773 78.4593C240.013 98.3467 267.113 158.012 273.366 123.208C292.129 158.012 302.552 83.4317 287.958 78.4593C298.382 38.6829 275.452 3.87781 273.366 33.7108C244.182 8.84993 254.605 68.5146 258.773 78.4593Z" fill="#528E3D"/>
<path d="M275.451 78.4593C256.69 98.3467 283.79 158.012 290.042 123.208C308.806 158.012 319.229 83.4317 304.635 78.4593C315.06 38.6829 292.129 3.87781 290.042 33.7108C260.859 8.84993 271.282 68.5146 275.451 78.4593Z" fill="#528E3D"/>
<path d="M400.612 119.455L406.587 122.545L414.056 121L415.549 280.139L408.081 292.5L409.575 281.685L400.612 280.139L394.637 275.504L381.194 281.685L391.65 273.959L394.637 263.144L393.477 267.343L384.181 267.779L388.663 266.234L393.144 264.689L396.131 258.509L400.612 176.622L367.751 161.171L370.738 158.081L399.119 167.352L400.612 162.716V119.455Z" fill="#8C391E"/>
<path d="M414.056 121H421.524L427.499 114.82V139.541L434.967 137.996L455.879 122.545L457.372 124.09L443.93 134.905L449.904 131.815L476.791 116.365L479.778 117.91L428.992 151.901L434.967 260.054L437.955 264.689L445.423 267.779H442.436H434.967L430.486 273.959L428.992 277.049V286.32L426.005 280.139H415.549L414.056 121Z" fill="#8C391E"/>
<path d="M378.208 150.356C391.651 156.536 372.233 175.077 367.753 164.262C354.308 175.077 346.84 151.901 357.297 150.356C349.828 137.996 366.258 127.18 367.753 136.451C388.663 128.725 381.195 147.266 378.208 150.356Z" fill="#7FB26D"/>
<path d="M383.132 144.57C396.575 150.75 377.156 169.29 372.676 158.475C359.232 169.29 351.764 146.115 362.221 144.57C354.751 132.21 371.182 121.394 372.676 130.665C393.587 122.939 386.119 141.48 383.132 144.57Z" fill="#7FB26D"/>
<path d="M374.171 144.57C387.613 150.75 368.195 169.29 363.715 158.475C350.271 169.29 342.803 146.115 353.259 144.57C345.79 132.21 362.22 121.394 363.715 130.665C384.626 122.939 377.157 141.48 374.171 144.57Z" fill="#7FB26D"/>
<path d="M493.666 116.759C507.108 122.939 487.69 141.479 483.21 130.664C469.766 141.479 462.298 118.304 472.754 116.759C465.285 104.399 481.716 93.5827 483.21 102.854C504.121 95.1277 496.653 113.669 493.666 116.759Z" fill="#7FB26D"/>
<path d="M439.835 81.2484C472.942 101.136 425.118 160.801 414.084 125.997C380.973 160.801 362.579 86.2208 388.333 81.2484C369.937 41.472 410.403 6.66685 414.084 36.5C465.584 11.6389 447.19 71.3036 439.835 81.2484Z" fill="#7FB26D"/>
<path d="M459.322 62.6263C492.428 82.5139 444.604 142.179 433.571 107.374C400.459 142.179 382.066 67.5984 407.819 62.6263C389.424 22.8499 429.889 -11.9552 433.571 17.8778C485.071 -6.98309 466.677 52.6816 459.322 62.6263Z" fill="#7FB26D"/>
<path d="M429.892 62.6263C462.998 82.5139 415.174 142.179 404.14 107.374C371.028 142.179 352.635 67.5984 378.389 62.6263C359.993 22.8499 400.459 -11.9552 404.14 17.8778C455.64 -6.98309 437.247 52.6816 429.892 62.6263Z" fill="#7FB26D"/>
<path d="M559.167 269.167H-3.33325V510.834H559.167V269.167Z" fill="#378D4F"/>
<path d="M427.917 279.167H418.333V209.167L425 270.417L427.917 209.167L433.75 270.417L437.083 209.167L441.667 279.167H427.917Z" fill="#318D4B"/>
<path d="M366.25 275H356.667V205L363.333 266.25L366.25 205L372.083 266.25L375.417 205L380 275H366.25Z" fill="#318D4B"/>
<path d="M494.583 278.333H485V208.333L491.667 269.583L494.583 208.333L500.417 269.583L503.75 208.333L508.333 278.333H494.583Z" fill="#318D4B"/>
<path d="M272.917 277.5H263.333V207.5L270 268.75L272.917 207.5L278.75 268.75L282.083 207.5L286.667 277.5H272.917Z" fill="#318D4B"/>
<path d="M404.583 279.167H395V209.167L401.667 270.417L404.583 209.167L410.417 270.417L413.75 209.167L418.333 279.167H404.583Z" fill="#318D4B"/>
<path d="M342.917 275H333.333V205L340 266.25L342.917 205L348.75 266.25L352.083 205L356.667 275H342.917Z" fill="#318D4B"/>
<path d="M471.25 278.333H461.667V208.333L468.333 269.583L471.25 208.333L477.083 269.583L480.417 208.333L485 278.333H471.25Z" fill="#318D4B"/>
<path d="M249.583 277.5H240V207.5L246.667 268.75L249.583 207.5L255.417 268.75L258.75 207.5L263.333 277.5H249.583Z" fill="#318D4B"/>
<path d="M381.25 279.167H371.667V209.167L378.333 270.417L381.25 209.167L387.083 270.417L390.417 209.167L395 279.167H381.25Z" fill="#318D4B"/>
<path d="M319.583 275H310V205L316.667 266.25L319.583 205L325.417 266.25L328.75 205L333.333 275H319.583Z" fill="#318D4B"/>
<path d="M447.917 278.333H438.333V208.333L445 269.583L447.917 208.333L453.75 269.583L457.083 208.333L461.667 278.333H447.917Z" fill="#318D4B"/>
<path d="M226.25 277.5H216.667V207.5L223.333 268.75L226.25 207.5L232.083 268.75L235.417 207.5L240 277.5H226.25Z" fill="#318D4B"/>
<path d="M357.917 279.167H348.333V209.167L355 270.417L357.917 209.167L363.75 270.417L367.083 209.167L371.667 279.167H357.917Z" fill="#318D4B"/>
<path d="M296.25 275H286.667V205L293.333 266.25L296.25 205L302.083 266.25L305.417 205L310 275H296.25Z" fill="#318D4B"/>
<path d="M424.583 278.333H415V208.333L421.667 269.583L424.583 208.333L430.417 269.583L433.75 208.333L438.333 278.333H424.583Z" fill="#318D4B"/>
<path d="M202.917 277.5H193.333V207.5L200 268.75L202.917 207.5L208.75 268.75L212.083 207.5L216.667 277.5H202.917Z" fill="#318D4B"/>
<path d="M342.917 287.5H333.333V217.5L340 278.75L342.917 217.5L348.75 278.75L352.083 217.5L356.667 287.5H342.917Z" fill="#318D4B"/>
<path d="M281.25 283.333H271.667V213.333L278.333 274.583L281.25 213.333L287.083 274.583L290.417 213.333L295 283.333H281.25Z" fill="#318D4B"/>
<path d="M409.583 286.667H400V216.667L406.667 277.917L409.583 216.667L415.417 277.917L418.75 216.667L423.333 286.667H409.583Z" fill="#318D4B"/>
<path d="M187.917 285.833H178.333V215.833L185 277.083L187.917 215.833L193.75 277.083L197.083 215.833L201.667 285.833H187.917Z" fill="#318D4B"/>
<path d="M369.583 279.167H360V209.167L366.667 270.417L369.583 209.167L375.417 270.417L378.75 209.167L383.333 279.167H369.583Z" fill="#318D4B"/>
<path d="M307.917 275H298.333V205L305 266.25L307.917 205L313.75 266.25L317.083 205L321.667 275H307.917Z" fill="#318D4B"/>
<path d="M436.25 278.333H426.667V208.333L433.333 269.583L436.25 208.333L442.083 269.583L445.417 208.333L450 278.333H436.25Z" fill="#318D4B"/>
<path d="M214.583 277.5H205V207.5L211.667 268.75L214.583 207.5L220.417 268.75L223.75 207.5L228.333 277.5H214.583Z" fill="#318D4B"/>
<path d="M386.25 279.167H376.667V209.167L383.333 270.417L386.25 209.167L392.083 270.417L395.417 209.167L400 279.167H386.25Z" fill="#318D4B"/>
<path d="M324.583 275H315V205L321.667 266.25L324.583 205L330.417 266.25L333.75 205L338.333 275H324.583Z" fill="#318D4B"/>
<path d="M452.917 278.333H443.333V208.333L450 269.583L452.917 208.333L458.75 269.583L462.083 208.333L466.667 278.333H452.917Z" fill="#318D4B"/>
<path d="M231.25 277.5H221.667V207.5L228.333 268.75L231.25 207.5L237.083 268.75L240.417 207.5L245 277.5H231.25Z" fill="#318D4B"/>
<path d="M377.917 288.333H368.333V218.333L375 279.583L377.917 218.333L383.75 279.583L387.083 218.333L391.667 288.333H377.917Z" fill="#318D4B"/>
<path d="M316.25 284.167H306.667V214.167L313.333 275.417L316.25 214.167L322.083 275.417L325.417 214.167L330 284.167H316.25Z" fill="#318D4B"/>
<path d="M444.583 287.5H435V217.5L441.667 278.75L444.583 217.5L450.417 278.75L453.75 217.5L458.333 287.5H444.583Z" fill="#318D4B"/>
<path d="M222.917 286.667H213.333V216.667L220 277.917L222.917 216.667L228.75 277.917L232.083 216.667L236.667 286.667H222.917Z" fill="#318D4B"/>
<path d="M404.583 279.167H395V209.167L401.667 270.417L404.583 209.167L410.417 270.417L413.75 209.167L418.333 279.167H404.583Z" fill="#318D4B"/>
<path d="M342.917 275H333.333V205L340 266.25L342.917 205L348.75 266.25L352.083 205L356.667 275H342.917Z" fill="#318D4B"/>
<path d="M471.25 278.333H461.667V208.333L468.333 269.583L471.25 208.333L477.083 269.583L480.417 208.333L485 278.333H471.25Z" fill="#318D4B"/>
<path d="M249.583 277.5H240V207.5L246.667 268.75L249.583 207.5L255.417 268.75L258.75 207.5L263.333 277.5H249.583Z" fill="#318D4B"/>
<path d="M409.583 288.333H400V218.333L406.667 279.583L409.583 218.333L415.417 279.583L418.75 218.333L423.333 288.333H409.583Z" fill="#318D4B"/>
<path d="M347.917 284.167H338.333V214.167L345 275.417L347.917 214.167L353.75 275.417L357.083 214.167L361.667 284.167H347.917Z" fill="#318D4B"/>
<path d="M476.25 287.5H466.667V217.5L473.333 278.75L476.25 217.5L482.083 278.75L485.417 217.5L490 287.5H476.25Z" fill="#318D4B"/>
<path d="M254.583 286.667H245V216.667L251.667 277.917L254.583 216.667L260.417 277.917L263.75 216.667L268.333 286.667H254.583Z" fill="#318D4B"/>
<path d="M233.75 270.833H224.167V200.833L230.833 262.083L233.75 200.833L239.583 262.083L242.917 200.833L247.5 270.833H233.75Z" fill="#318D4B"/>
<path d="M172.083 266.667H162.5V196.667L169.167 257.917L172.083 196.667L177.917 257.917L181.25 196.667L185.833 266.667H172.083Z" fill="#318D4B"/>
<path d="M300.417 270H290.833V200L297.5 261.25L300.417 200L306.25 261.25L309.583 200L314.167 270H300.417Z" fill="#318D4B"/>
<path d="M78.7498 269.167H69.1665V199.167L75.8332 260.417L78.7498 199.167L84.5832 260.417L87.9165 199.167L92.4998 269.167H78.7498Z" fill="#318D4B"/>
<path d="M210.417 270.833H200.833V200.833L207.5 262.083L210.417 200.833L216.25 262.083L219.583 200.833L224.167 270.833H210.417Z" fill="#318D4B"/>
<path d="M148.75 266.667H139.167V196.667L145.833 257.917L148.75 196.667L154.583 257.917L157.917 196.667L162.5 266.667H148.75Z" fill="#318D4B"/>
<path d="M277.083 270H267.5V200L274.167 261.25L277.083 200L282.917 261.25L286.25 200L290.833 270H277.083Z" fill="#318D4B"/>
<path d="M55.4168 269.167H45.8335V199.167L52.5002 260.417L55.4168 199.167L61.2502 260.417L64.5835 199.167L69.1668 269.167H55.4168Z" fill="#318D4B"/>
<path d="M187.083 270.833H177.5V200.833L184.167 262.083L187.083 200.833L192.917 262.083L196.25 200.833L200.833 270.833H187.083Z" fill="#318D4B"/>
<path d="M125.417 266.667H115.833V196.667L122.5 257.917L125.417 196.667L131.25 257.917L134.583 196.667L139.167 266.667H125.417Z" fill="#318D4B"/>
<path d="M253.75 270H244.167V200L250.833 261.25L253.75 200L259.583 261.25L262.917 200L267.5 270H253.75Z" fill="#318D4B"/>
<path d="M32.0833 269.167H22.5V199.167L29.1667 260.417L32.0833 199.167L37.9167 260.417L41.25 199.167L45.8333 269.167H32.0833Z" fill="#318D4B"/>
<path d="M163.75 270.833H154.167V200.833L160.833 262.083L163.75 200.833L169.583 262.083L172.917 200.833L177.5 270.833H163.75Z" fill="#318D4B"/>
<path d="M102.083 266.667H92.5V196.667L99.1667 257.917L102.083 196.667L107.917 257.917L111.25 196.667L115.833 266.667H102.083Z" fill="#318D4B"/>
<path d="M230.417 270H220.833V200L227.5 261.25L230.417 200L236.25 261.25L239.583 200L244.167 270H230.417Z" fill="#318D4B"/>
<path d="M8.75008 269.167H-0.833252V199.167L5.83342 260.417L8.75008 199.167L14.5834 260.417L17.9167 199.167L22.5001 269.167H8.75008Z" fill="#318D4B"/>
<path d="M148.75 279.167H139.167V209.167L145.833 270.417L148.75 209.167L154.583 270.417L157.917 209.167L162.5 279.167H148.75Z" fill="#318D4B"/>
<path d="M87.0833 275H77.5V205L84.1667 266.25L87.0833 205L92.9167 266.25L96.25 205L100.833 275H87.0833Z" fill="#318D4B"/>
<path d="M215.417 278.333H205.833V208.333L212.5 269.583L215.417 208.333L221.25 269.583L224.583 208.333L229.167 278.333H215.417Z" fill="#318D4B"/>
<path d="M-6.24992 277.5H-15.8333V207.5L-9.16658 268.75L-6.24992 207.5L-0.416585 268.75L2.91675 207.5L7.50008 277.5H-6.24992Z" fill="#318D4B"/>
<path d="M175.417 270.833H165.833V200.833L172.5 262.083L175.417 200.833L181.25 262.083L184.583 200.833L189.167 270.833H175.417Z" fill="#318D4B"/>
<path d="M113.75 266.667H104.167V196.667L110.833 257.917L113.75 196.667L119.583 257.917L122.917 196.667L127.5 266.667H113.75Z" fill="#318D4B"/>
<path d="M242.083 270H232.5V200L239.167 261.25L242.083 200L247.917 261.25L251.25 200L255.833 270H242.083Z" fill="#318D4B"/>
<path d="M20.4166 269.167H10.8333V199.167L17.4999 260.417L20.4166 199.167L26.2499 260.417L29.5833 199.167L34.1666 269.167H20.4166Z" fill="#318D4B"/>
<path d="M192.083 270.833H182.5V200.833L189.167 262.083L192.083 200.833L197.917 262.083L201.25 200.833L205.833 270.833H192.083Z" fill="#318D4B"/>
<path d="M130.417 266.667H120.833V196.667L127.5 257.917L130.417 196.667L136.25 257.917L139.583 196.667L144.167 266.667H130.417Z" fill="#318D4B"/>
<path d="M258.75 270H249.167V200L255.833 261.25L258.75 200L264.583 261.25L267.917 200L272.5 270H258.75Z" fill="#318D4B"/>
<path d="M37.0833 269.167H27.5V199.167L34.1667 260.417L37.0833 199.167L42.9167 260.417L46.25 199.167L50.8333 269.167H37.0833Z" fill="#318D4B"/>
<path d="M183.75 280H174.167V210L180.833 271.25L183.75 210L189.583 271.25L192.917 210L197.5 280H183.75Z" fill="#318D4B"/>
<path d="M122.083 275.833H112.5V205.833L119.167 267.083L122.083 205.833L127.917 267.083L131.25 205.833L135.833 275.833H122.083Z" fill="#318D4B"/>
<path d="M250.417 279.167H240.833V209.167L247.5 270.417L250.417 209.167L256.25 270.417L259.583 209.167L264.167 279.167H250.417Z" fill="#318D4B"/>
<path d="M28.7501 278.333H19.1667V208.333L25.8334 269.583L28.7501 208.333L34.5834 269.583L37.9167 208.333L42.5001 278.333H28.7501Z" fill="#318D4B"/>
<path d="M210.417 270.833H200.833V200.833L207.5 262.083L210.417 200.833L216.25 262.083L219.583 200.833L224.167 270.833H210.417Z" fill="#318D4B"/>
<path d="M148.75 266.667H139.167V196.667L145.833 257.917L148.75 196.667L154.583 257.917L157.917 196.667L162.5 266.667H148.75Z" fill="#318D4B"/>
<path d="M277.083 270H267.5V200L274.167 261.25L277.083 200L282.917 261.25L286.25 200L290.833 270H277.083Z" fill="#318D4B"/>
<path d="M55.4168 269.167H45.8335V199.167L52.5002 260.417L55.4168 199.167L61.2502 260.417L64.5835 199.167L69.1668 269.167H55.4168Z" fill="#318D4B"/>
<path d="M215.417 280H205.833V210L212.5 271.25L215.417 210L221.25 271.25L224.583 210L229.167 280H215.417Z" fill="#318D4B"/>
<path d="M153.75 275.833H144.167V205.833L150.833 267.083L153.75 205.833L159.583 267.083L162.917 205.833L167.5 275.833H153.75Z" fill="#318D4B"/>
<path d="M282.083 279.167H272.5V209.167L279.167 270.417L282.083 209.167L287.917 270.417L291.25 209.167L295.833 279.167H282.083Z" fill="#318D4B"/>
<path d="M60.4168 278.333H50.8335V208.333L57.5002 269.583L60.4168 208.333L66.2502 269.583L69.5835 208.333L74.1668 278.333H60.4168Z" fill="#318D4B"/>
<path d="M393.946 124.347L399.921 127.32L407.389 125.833L408.882 278.942L401.414 290.833L402.908 280.428L393.946 278.942L387.971 274.482L374.527 280.428L384.983 272.995L387.971 262.59L386.811 266.63L377.515 267.049L381.997 265.563L386.477 264.077L389.465 258.131L393.946 179.347L361.085 164.482L364.072 161.509L392.452 170.428L393.946 165.968V124.347Z" fill="#552415"/>
<path d="M407.389 125.834H414.857L420.832 119.888V143.671L428.301 142.185L449.212 127.32L450.706 128.806L437.263 139.212L443.237 136.239L470.124 121.374L473.112 122.86L422.326 155.564L428.301 259.617L431.288 264.077L438.757 267.049H435.769H428.301L423.82 272.995L422.326 275.969V284.888L419.338 278.942H408.882L407.389 125.834Z" fill="#552415"/>
<path d="M371.541 154.077C384.984 160.023 365.566 177.86 361.086 167.455C347.641 177.86 340.173 155.563 350.63 154.077C343.161 142.185 359.591 131.779 361.086 140.698C381.996 133.266 374.528 151.103 371.541 154.077Z" fill="#88C572"/>
<path d="M376.466 148.509C389.908 154.455 370.49 172.293 366.01 161.888C352.566 172.293 345.097 149.996 355.554 148.509C348.085 136.618 364.516 126.212 366.01 135.131C386.921 127.698 379.452 145.537 376.466 148.509Z" fill="#88C572"/>
<path d="M367.504 148.509C380.946 154.455 361.529 172.293 357.049 161.888C343.604 172.293 336.136 149.996 346.593 148.509C339.124 136.618 355.554 126.212 357.049 135.131C377.959 127.698 370.49 145.537 367.504 148.509Z" fill="#88C572"/>
<path d="M486.999 121.752C500.441 127.698 481.023 145.536 476.543 135.131C463.099 145.536 455.631 123.239 466.087 121.752C458.618 109.861 475.049 99.455 476.543 108.374C497.454 100.942 489.986 118.779 486.999 121.752Z" fill="#88C572"/>
<path d="M433.169 87.5883C466.275 106.722 418.451 164.126 407.418 130.641C374.306 164.126 355.913 92.3717 381.666 87.5883C363.27 49.3196 403.736 15.8336 407.418 44.536C458.918 20.6172 440.524 78.0206 433.169 87.5883Z" fill="#88C572"/>
<path d="M452.655 69.6719C485.761 88.806 437.937 146.209 426.904 112.724C393.792 146.209 375.399 74.4556 401.152 69.6719C382.757 31.4031 423.222 -2.08293 426.904 26.6195C478.404 2.70075 460.01 60.1041 452.655 69.6719Z" fill="#88C572"/>
<path d="M423.225 69.6719C456.331 88.806 408.508 146.209 397.474 112.724C364.362 146.209 345.969 74.4556 371.723 69.6719C353.326 31.4031 393.793 -2.08293 397.474 26.6195C448.974 2.70075 430.58 60.1041 423.225 69.6719Z" fill="#88C572"/>
<path d="M107.279 124.347L113.254 127.32L120.723 125.833L122.216 278.942L114.748 290.833L116.242 280.428L107.279 278.942L101.304 274.482L87.8609 280.428L98.3167 272.995L101.304 262.59L100.144 266.63L90.8484 267.049L95.3301 265.563L99.8109 264.077L102.798 258.131L107.279 179.347L74.418 164.482L77.4054 161.509L105.786 170.428L107.279 165.968V124.347Z" fill="#552415"/>
<path d="M120.723 125.834H128.191L134.166 119.888V143.671L141.634 142.185L162.546 127.32L164.039 128.806L150.597 139.212L156.571 136.239L183.458 121.374L186.445 122.86L135.659 155.564L141.634 259.617L144.622 264.077L152.09 267.049H149.103H141.634L137.153 272.995L135.659 275.969V284.888L132.672 278.942H122.216L120.723 125.834Z" fill="#552415"/>
<path d="M84.875 154.077C98.3175 160.023 78.8993 177.86 74.4192 167.455C60.9749 177.86 53.5066 155.563 63.9634 154.077C56.494 142.185 72.9245 131.779 74.4192 140.698C95.33 133.266 87.8617 151.103 84.875 154.077Z" fill="#6C9A5C"/>
<path d="M89.799 148.509C103.242 154.455 83.8232 172.293 79.3435 161.888C65.8992 172.293 58.4309 149.996 68.8877 148.509C61.4184 136.618 77.8489 126.212 79.3435 135.131C100.254 127.698 92.7857 145.537 89.799 148.509Z" fill="#6C9A5C"/>
<path d="M80.8375 148.509C94.2793 154.455 74.8616 172.293 70.3816 161.888C56.9373 172.293 49.469 149.996 59.9257 148.509C52.4564 136.618 68.8869 126.212 70.3816 135.131C91.2926 127.698 83.8235 145.537 80.8375 148.509Z" fill="#6C9A5C"/>
<path d="M200.332 121.752C213.775 127.698 194.357 145.536 189.877 135.131C176.432 145.536 168.964 123.239 179.421 121.752C171.952 109.861 188.382 99.455 189.877 108.374C210.787 100.942 203.319 118.779 200.332 121.752Z" fill="#6C9A5C"/>
<path d="M146.502 87.5883C179.608 106.722 131.784 164.126 120.751 130.641C87.639 164.126 69.2457 92.3717 94.999 87.5883C76.6032 49.3196 117.069 15.8336 120.751 44.536C172.251 20.6172 153.857 78.0206 146.502 87.5883Z" fill="#6C9A5C"/>
<path d="M165.988 69.6719C199.095 88.806 151.271 146.209 140.238 112.724C107.126 146.209 88.7325 74.4556 114.486 69.6719C96.09 31.4031 136.556 -2.08293 140.238 26.6195C191.738 2.70075 173.343 60.1041 165.988 69.6719Z" fill="#6C9A5C"/>
<path d="M136.559 69.6719C169.664 88.806 121.841 146.209 110.807 112.724C77.6955 146.209 59.3022 74.4556 85.056 69.6719C66.6597 31.4031 107.126 -2.08293 110.807 26.6195C162.307 2.70075 143.914 60.1041 136.559 69.6719Z" fill="#6C9A5C"/>
<path d="M458.6 43.6884C481.298 57.0301 509.396 51.348 521.358 30.997C533.32 10.6459 524.616 -16.6674 501.917 -30.0092C479.218 -43.3509 451.12 -37.6687 439.159 -17.3177C427.197 3.03332 435.901 30.3467 458.6 43.6884Z" fill="#DCEF6A"/>
<path d="M174.779 116.014L180.754 118.987L188.223 117.5L189.716 270.609L182.248 282.5L183.742 272.094L174.779 270.609L168.804 266.149L155.361 272.094L165.817 264.662L168.804 254.257L167.644 258.297L158.348 258.716L162.83 257.23L167.311 255.744L170.298 249.798L174.779 171.014L141.918 156.149L144.905 153.176L173.286 162.095L174.779 157.635V116.014Z" fill="#79321B"/>
<path d="M188.223 117.5H195.691L201.666 111.554V135.338L209.134 133.852L230.046 118.987L231.539 120.473L218.097 130.878L224.071 127.905L250.958 113.041L253.945 114.527L203.159 147.23L209.134 251.283L212.122 255.743L219.59 258.716H216.603H209.134L204.653 264.662L203.159 267.635V276.554L200.172 270.608H189.716L188.223 117.5Z" fill="#79321B"/>
<path d="M152.375 145.744C165.817 151.69 146.399 169.527 141.919 159.122C128.475 169.527 121.007 147.23 131.463 145.744C123.994 133.852 140.424 123.446 141.919 132.365C162.83 124.933 155.362 142.77 152.375 145.744Z" fill="#88C572"/>
<path d="M157.299 140.176C170.742 146.122 151.323 163.96 146.843 153.554C133.399 163.96 125.931 141.662 136.388 140.176C128.918 128.284 145.349 117.878 146.843 126.797C167.754 119.365 160.286 137.203 157.299 140.176Z" fill="#88C572"/>
<path d="M148.337 140.176C161.779 146.122 142.362 163.96 137.882 153.554C124.437 163.96 116.969 141.662 127.426 140.176C119.957 128.284 136.387 117.878 137.882 126.797C158.792 119.365 151.323 137.203 148.337 140.176Z" fill="#88C572"/>
<path d="M267.832 113.419C281.275 119.365 261.857 137.203 257.377 126.798C243.932 137.203 236.464 114.906 246.921 113.419C239.452 101.528 255.882 91.122 257.377 100.041C278.287 92.6086 270.819 110.446 267.832 113.419Z" fill="#88C572"/>
<path d="M214.002 79.2554C247.108 98.3895 199.284 155.793 188.251 122.308C155.139 155.793 136.746 84.0386 162.499 79.2554C144.103 40.9866 184.569 7.50057 188.251 36.203C239.751 12.2842 221.357 69.6876 214.002 79.2554Z" fill="#88C572"/>
<path d="M233.488 61.3384C266.595 80.4722 218.771 137.876 207.738 104.391C174.626 137.876 156.233 66.1221 181.986 61.3384C163.59 23.0696 204.056 -10.4164 207.738 18.286C259.238 -5.63274 240.843 51.7706 233.488 61.3384Z" fill="#88C572"/>
<path d="M204.058 61.3384C237.164 80.4722 189.341 137.876 178.307 104.391C145.195 137.876 126.802 66.1221 152.556 61.3384C134.159 23.0696 174.626 -10.4164 178.307 18.286C229.807 -5.63274 211.413 51.7706 204.058 61.3384Z" fill="#88C572"/>
<path d="M421.446 141.014L427.421 143.987L434.889 142.5L436.382 295.609L428.914 307.5L430.408 297.094L421.446 295.609L415.471 291.149L402.027 297.094L412.483 289.662L415.471 279.257L414.311 283.297L405.015 283.716L409.497 282.23L413.977 280.744L416.965 274.798L421.446 196.014L388.585 181.149L391.572 178.176L419.952 187.095L421.446 182.635V141.014Z" fill="#552415"/>
<path d="M434.889 142.5H442.357L448.333 136.554V160.338L455.801 158.852L476.712 143.987L478.206 145.473L464.763 155.878L470.737 152.905L497.624 138.041L500.612 139.527L449.826 172.23L455.801 276.283L458.788 280.743L466.257 283.716H463.269H455.801L451.32 289.662L449.826 292.635V301.554L446.838 295.608H436.382L434.889 142.5Z" fill="#552415"/>
<path d="M399.041 170.744C412.484 176.69 393.066 194.527 388.586 184.122C375.141 194.527 367.673 172.23 378.13 170.744C370.661 158.852 387.091 148.446 388.586 157.365C409.496 149.933 402.028 167.77 399.041 170.744Z" fill="#88C572"/>
<path d="M403.966 165.176C417.408 171.122 397.99 188.96 393.51 178.554C380.066 188.96 372.597 166.662 383.054 165.176C375.585 153.284 392.016 142.878 393.51 151.797C414.421 144.365 406.952 162.203 403.966 165.176Z" fill="#88C572"/>
<path d="M395.004 165.176C408.446 171.122 389.029 188.96 384.549 178.554C371.104 188.96 363.636 166.662 374.093 165.176C366.624 153.284 383.054 142.878 384.549 151.797C405.459 144.365 397.99 162.203 395.004 165.176Z" fill="#88C572"/>
<path d="M514.499 138.419C527.941 144.365 508.523 162.203 504.043 151.798C490.599 162.203 483.131 139.906 493.587 138.419C486.118 126.528 502.549 116.122 504.043 125.041C524.954 117.609 517.486 135.446 514.499 138.419Z" fill="#88C572"/>
<path d="M460.669 104.255C493.775 123.389 445.951 180.793 434.918 147.308C401.806 180.793 383.413 109.039 409.166 104.255C390.77 65.9866 431.236 32.5006 434.918 61.203C486.418 37.2842 468.024 94.6878 460.669 104.255Z" fill="#88C572"/>
<path d="M480.155 86.3383C513.261 105.472 465.437 162.876 454.404 129.391C421.292 162.876 402.899 91.1217 428.652 86.3383C410.257 48.0696 450.722 14.5836 454.404 43.286C505.904 19.3672 487.51 76.7706 480.155 86.3383Z" fill="#88C572"/>
<path d="M450.725 86.3383C483.831 105.472 436.008 162.876 424.974 129.391C391.862 162.876 373.469 91.1217 399.223 86.3383C380.826 48.0696 421.293 14.5836 424.974 43.286C476.474 19.3672 458.08 76.7706 450.725 86.3383Z" fill="#88C572"/>
<path d="M481.446 146.847L487.421 149.82L494.889 148.333L496.382 301.442L488.914 313.333L490.408 302.928L481.446 301.442L475.471 296.982L462.027 302.928L472.483 295.495L475.471 285.09L474.311 289.13L465.015 289.549L469.497 288.063L473.977 286.577L476.965 280.631L481.446 201.847L448.585 186.982L451.572 184.009L479.952 192.928L481.446 188.468V146.847Z" fill="#A34629"/>
<path d="M494.889 148.334H502.357L508.333 142.388V166.171L515.801 164.685L536.712 149.82L538.206 151.306L524.763 161.712L530.737 158.739L557.624 143.874L560.612 145.36L509.826 178.064L515.801 282.117L518.788 286.577L526.257 289.549H523.269H515.801L511.32 295.495L509.826 298.469V307.388L506.838 301.442H496.382L494.889 148.334Z" fill="#A34629"/>
<path d="M459.041 176.577C472.484 182.523 453.066 200.36 448.586 189.955C435.141 200.36 427.673 178.063 438.13 176.577C430.661 164.685 447.091 154.279 448.586 163.198C469.496 155.766 462.028 173.603 459.041 176.577Z" fill="#4A6F3D"/>
<path d="M463.966 171.009C477.408 176.955 457.99 194.793 453.51 184.388C440.066 194.793 432.597 172.496 443.054 171.009C435.585 159.118 452.016 148.712 453.51 157.631C474.421 150.198 466.952 168.037 463.966 171.009Z" fill="#4A6F3D"/>
<path d="M455.004 171.009C468.446 176.955 449.029 194.793 444.549 184.388C431.104 194.793 423.636 172.496 434.093 171.009C426.624 159.118 443.054 148.712 444.549 157.631C465.459 150.198 457.99 168.037 455.004 171.009Z" fill="#4A6F3D"/>
<path d="M520.668 110.088C553.775 129.222 505.951 186.626 494.918 153.141C461.806 186.626 443.413 114.872 469.166 110.088C450.77 71.8196 491.236 38.3336 494.918 67.036C546.418 43.1172 528.023 100.521 520.668 110.088Z" fill="#4A6F3D"/>
<path d="M540.155 92.1718C573.261 111.306 525.437 168.709 514.404 135.224C481.292 168.709 462.899 96.9552 488.652 92.1718C470.257 53.9031 510.722 20.4171 514.404 49.1195C565.904 25.2007 547.51 82.6041 540.155 92.1718Z" fill="#4A6F3D"/>
<path d="M510.725 92.1718C543.831 111.306 496.008 168.709 484.974 135.224C451.862 168.709 433.469 96.9552 459.223 92.1718C440.826 53.9031 481.293 20.4171 484.974 49.1195C536.474 25.2007 518.08 82.6041 510.725 92.1718Z" fill="#4A6F3D"/>
<path d="M265.677 136.807L260.897 139.527L254.922 138.167L253.727 278.284L259.702 289.167L258.507 279.644L265.677 278.284L270.457 274.202L281.211 279.644L272.847 272.842L270.457 263.32L271.384 267.017L278.821 267.401L275.236 266.041L271.652 264.68L269.262 259.238L265.677 187.14L291.966 173.536L289.576 170.815L266.872 178.977L265.677 174.897V136.807Z" fill="#613527"/>
<path d="M254.922 138.167H248.948L244.168 132.725V154.491L238.193 153.131L221.463 139.527L220.268 140.888L231.023 150.41L226.243 147.689L204.734 134.086L202.344 135.446L242.973 165.374L238.193 260.599L235.803 264.68L229.828 267.401H232.218H238.193L241.778 272.843L242.973 275.563V283.725L245.363 278.284H253.727L254.922 138.167Z" fill="#613527"/>
<path d="M283.6 164.014C272.846 169.455 288.381 185.779 291.965 176.257C302.72 185.779 308.695 165.374 300.329 164.014C306.305 153.131 293.16 143.609 291.965 151.771C275.236 144.969 281.211 161.293 283.6 164.014Z" fill="#5C9748"/>
<path d="M279.66 158.918C268.906 164.36 284.441 180.684 288.025 171.162C298.781 180.684 304.755 160.279 296.39 158.918C302.365 148.036 289.221 138.513 288.025 146.676C271.296 139.873 277.271 156.197 279.66 158.918Z" fill="#5C9748"/>
<path d="M286.83 158.918C276.077 164.36 291.611 180.684 295.195 171.162C305.95 180.684 311.925 160.279 303.559 158.918C309.535 148.036 296.391 138.513 295.195 146.676C278.467 139.873 284.441 156.197 286.83 158.918Z" fill="#5C9748"/>
<path d="M191.234 134.433C180.48 139.874 196.014 156.198 199.598 146.676C210.354 156.198 216.328 135.793 207.963 134.433C213.938 123.549 200.794 114.027 199.598 122.189C182.87 115.387 188.845 131.712 191.234 134.433Z" fill="#5C9748"/>
<path d="M234.298 103.167C207.813 120.678 246.072 173.21 254.899 142.567C281.389 173.21 296.103 107.544 275.501 103.167C290.217 68.145 257.844 37.5003 254.899 63.7673C213.699 41.878 228.414 94.4109 234.298 103.167Z" fill="#5C9748"/>
<path d="M218.709 86.77C192.224 104.281 230.484 156.813 239.31 126.17C265.799 156.813 280.514 91.1484 259.912 86.77C274.629 51.7485 242.255 21.1038 239.31 47.3708C198.11 25.4816 212.825 78.0143 218.709 86.77Z" fill="#5C9748"/>
<path d="M242.253 86.77C215.768 104.281 254.027 156.813 262.855 126.17C289.344 156.813 304.058 91.1484 283.456 86.77C298.172 51.7485 265.8 21.1038 262.855 47.3708C221.654 25.4816 236.37 78.0143 242.253 86.77Z" fill="#5C9748"/>
<path d="M459.779 190.18L465.754 193.154L473.223 191.667L474.716 344.775L467.248 356.667L468.742 346.261L459.779 344.775L453.804 340.315L440.361 346.261L450.817 338.828L453.804 328.424L452.644 332.463L443.348 332.883L447.83 331.397L452.311 329.91L455.298 323.964L459.779 245.18L426.918 230.315L429.905 227.343L458.286 236.261L459.779 231.802V190.18Z" fill="#8A4029"/>
<path d="M473.223 191.667H480.691L486.666 185.721V209.505L494.134 208.019L515.046 193.154L516.539 194.64L503.097 205.045L509.071 202.072L535.958 187.208L538.945 188.694L488.159 221.397L494.134 325.45L497.122 329.91L504.59 332.883H501.603H494.134L489.653 338.829L488.159 341.802V350.721L485.172 344.775H474.716L473.223 191.667Z" fill="#8A4029"/>
<path d="M437.375 219.91C450.817 225.856 431.399 243.694 426.919 233.289C413.475 243.694 406.007 221.397 416.463 219.91C408.994 208.019 425.424 197.613 426.919 206.532C447.83 199.099 440.362 216.937 437.375 219.91Z" fill="#699D56"/>
<path d="M442.299 214.343C455.742 220.289 436.323 238.127 431.843 227.721C418.399 238.127 410.931 215.829 421.388 214.343C413.918 202.451 430.349 192.045 431.843 200.964C452.754 193.532 445.286 211.37 442.299 214.343Z" fill="#699D56"/>
<path d="M433.337 214.343C446.779 220.289 427.362 238.127 422.882 227.721C409.437 238.127 401.969 215.829 412.426 214.343C404.957 202.451 421.387 192.045 422.882 200.964C443.792 193.532 436.323 211.37 433.337 214.343Z" fill="#699D56"/>
<g filter="url(#filter0_d_342_31075)">
<path d="M499.002 153.421C532.108 172.556 484.284 229.959 473.251 196.474C440.139 229.959 421.746 158.205 447.499 153.421C429.103 115.152 469.569 81.6667 473.251 110.369C524.751 86.4506 506.357 143.854 499.002 153.421Z" fill="#699D56"/>
<path d="M518.488 135.505C551.595 154.639 503.771 212.042 492.737 178.557C459.626 212.042 441.233 140.288 466.986 135.505C448.59 97.2358 489.056 63.7502 492.737 92.4525C544.237 68.5339 525.843 125.937 518.488 135.505Z" fill="#699D56"/>
<path d="M489.058 135.505C522.164 154.639 474.341 212.042 463.307 178.557C430.195 212.042 411.802 140.288 437.556 135.505C419.159 97.2358 459.626 63.7502 463.307 92.4525C514.807 68.5339 496.413 125.937 489.058 135.505Z" fill="#699D56"/>
</g>
<path d="M293.333 322.204C293.333 336.873 241.898 369.167 211.437 369.167C180.977 369.167 144.167 341.878 144.167 327.208C144.167 312.539 184.122 309.167 214.583 309.167C245.044 309.167 293.333 307.535 293.333 322.204Z" fill="#543535"/>
<path d="M321.667 243.195C321.667 245.841 305.575 251.667 296.046 251.667C286.516 251.667 275 246.744 275 244.097C275 241.452 287.5 240.843 297.03 240.843C306.559 240.843 321.667 240.548 321.667 243.195Z" fill="#543535"/>
<path d="M277.917 332.917C277.917 344.684 241.668 361.25 212.059 361.25C182.449 361.25 152.5 342.184 152.5 330.417C152.5 318.649 182.449 320.833 212.059 320.833C241.668 320.833 277.917 321.149 277.917 332.917Z" fill="#402626"/>
<path d="M316.667 245.345C316.667 247.279 305.347 250 296.1 250C286.853 250 277.5 246.868 277.5 244.934C277.5 243.001 286.853 243.36 296.1 243.36C305.347 243.36 316.667 243.412 316.667 245.345Z" fill="#402626"/>
<path d="M266.25 342.083C266.25 346.597 234.111 356.667 208.415 356.667C182.719 356.667 163.75 348.263 163.75 343.75C163.75 339.237 188.888 327.5 214.583 327.5C240.279 327.5 266.25 337.57 266.25 342.083Z" fill="#301F1F"/>
<path d="M313.333 246.667C313.333 247.441 303.143 249.167 294.995 249.167C286.848 249.167 280.833 247.726 280.833 246.953C280.833 246.179 288.803 244.167 296.951 244.167C305.098 244.167 313.333 245.893 313.333 246.667Z" fill="#301F1F"/>
<path d="M262.917 342.917C262.917 346.786 233.881 355 209.036 355C184.191 355 167.5 348.453 167.5 344.583C167.5 340.714 190.155 338.333 215 338.333C239.845 338.333 262.917 339.048 262.917 342.917Z" fill="black"/>
<path d="M312.5 246.75C312.5 247.524 303.371 249.167 295.559 249.167C287.747 249.167 282.5 247.858 282.5 247.083C282.5 246.309 289.623 245.833 297.434 245.833C305.246 245.833 312.5 245.976 312.5 246.75Z" fill="black"/>
<path d="M100 259.862C100 262.508 87.0692 268.334 79.4117 268.334C71.754 268.334 62.5 263.411 62.5 260.764C62.5 258.119 72.5447 257.51 80.2025 257.51C87.86 257.51 100 257.215 100 259.862Z" fill="#543535"/>
<path d="M95.8332 262.012C95.8332 263.945 86.6807 266.667 79.2046 266.667C71.7283 266.667 64.1665 263.534 64.1665 261.601C64.1665 259.668 71.7283 260.027 79.2046 260.027C86.6807 260.027 95.8332 260.079 95.8332 262.012Z" fill="#402626"/>
<path d="M93.3333 263.333C93.3333 264.108 85.2333 265.833 78.757 265.833C72.2808 265.833 67.5 264.393 67.5 263.619C67.5 262.845 73.8354 260.833 80.3117 260.833C86.7875 260.833 93.3333 262.559 93.3333 263.333Z" fill="#301F1F"/>
<path d="M92.5002 263.417C92.5002 264.191 85.146 265.833 78.8535 265.833C72.5609 265.833 68.3335 264.524 68.3335 263.75C68.3335 262.976 74.0714 262.5 80.3641 262.5C86.6568 262.5 92.5002 262.643 92.5002 263.417Z" fill="black"/>
<path d="M61.6667 293.1C61.6667 301.242 40.9779 319.167 28.7256 319.167C16.4732 319.167 1.66675 304.019 1.66675 295.878C1.66675 287.735 17.7384 285.864 29.9907 285.864C42.2432 285.864 61.6667 284.958 61.6667 293.1Z" fill="#543535"/>
<path d="M54.9999 299.715C54.9999 305.664 40.3562 314.038 28.3942 314.038C16.4322 314.038 4.33325 304.4 4.33325 298.451C4.33325 292.503 16.4322 293.607 28.3942 293.607C40.3562 293.607 54.9999 293.766 54.9999 299.715Z" fill="#402626"/>
<path d="M51.0001 303.782C51.0001 306.163 38.0399 311.474 27.678 311.474C17.3161 311.474 9.66675 307.042 9.66675 304.661C9.66675 302.28 19.8034 296.09 30.1654 296.09C40.5273 296.09 51.0001 301.401 51.0001 303.782Z" fill="#301F1F"/>
<path d="M49.6667 304.039C49.6667 306.419 37.9002 311.474 27.832 311.474C17.7637 311.474 11 307.445 11 305.064C11 302.684 20.1807 301.218 30.2488 301.218C40.3171 301.218 49.6667 301.658 49.6667 304.039Z" fill="black"/>
<path d="M24.7792 124.347L30.754 127.32L38.2225 125.833L39.7161 278.942L36.6665 310.417L34.5832 310.833V292.083L33.7414 280.428L23.7499 289.167L21.6665 293.333L24.7792 297.5L20.2981 294.167L17.6445 301.25V287.917L24.7792 278.942L18.8045 274.482L5.36121 280.428L15.817 272.995L18.8045 262.59L17.6445 266.63L8.34863 267.049L12.8297 265.563L17.3108 264.077L20.2981 258.131L24.7792 179.347L-8.08203 164.482L-5.09464 161.509L23.2855 170.428L24.7792 165.968V124.347Z" fill="#150F0D"/>
<path d="M38.2227 125.834H45.6912L51.6659 119.888V143.671L59.1343 142.185L80.0461 127.32L81.5397 128.806L68.0965 139.212L74.0713 136.239L100.958 121.374L103.945 122.86L53.1596 155.564L59.1343 259.617L62.1217 264.077L74.5834 264.584L76.6667 265.834L73.3334 265.417L69.5902 267.049H66.6028H59.1343L54.6532 272.995L53.1596 275.969V284.888L50.1722 278.942H39.7163L38.2227 125.834Z" fill="#150F0D"/>
<path d="M2.37503 154.077C15.8173 160.023 -3.60074 177.861 -8.0808 167.455C-21.5251 177.861 -28.9934 155.563 -18.5366 154.077C-26.006 142.185 -9.57554 131.779 -8.0808 140.698C12.8299 133.266 5.36141 151.103 2.37503 154.077Z" fill="#88C572" fill-opacity="0.8"/>
<path d="M7.29962 148.509C20.7418 154.455 1.32384 172.293 -3.15623 161.888C-16.6006 172.293 -24.0688 149.996 -13.6121 148.509C-21.0814 136.618 -4.65093 126.212 -3.15623 135.131C17.7544 127.698 10.286 145.537 7.29962 148.509Z" fill="#88C572" fill-opacity="0.8"/>
<path d="M-1.66255 148.509C11.7797 154.455 -7.63833 172.293 -12.1184 161.888C-25.5627 172.293 -33.0309 149.996 -22.5743 148.509C-30.0436 136.618 -13.6131 126.212 -12.1184 135.131C8.7923 127.698 1.32382 145.537 -1.66255 148.509Z" fill="#88C572" fill-opacity="0.8"/>
<path d="M117.832 121.752C131.275 127.698 111.857 145.536 107.377 135.131C93.9325 145.536 86.4642 123.239 96.9208 121.752C89.4517 109.861 105.882 99.455 107.377 108.374C128.287 100.942 120.819 118.779 117.832 121.752Z" fill="#88C572" fill-opacity="0.8"/>
<path d="M64.0021 87.5883C97.1084 106.722 49.2846 164.126 38.2507 130.641C5.13919 164.126 -13.2541 92.3717 12.4994 87.5883C-5.89656 49.3196 34.5695 15.8336 38.2507 44.536C89.7509 20.6172 71.3571 78.0206 64.0021 87.5883Z" fill="#88C572" fill-opacity="0.8"/>
<path d="M83.4885 69.6719C116.595 88.806 68.7711 146.209 57.7373 112.724C24.6258 146.209 6.23246 74.4556 31.986 69.6719C13.59 31.4031 54.056 -2.08293 57.7373 26.6195C109.238 2.70075 90.8435 60.1041 83.4885 69.6719Z" fill="#88C572" fill-opacity="0.8"/>
<path d="M54.0582 69.6719C87.1642 88.806 39.3406 146.209 28.3069 112.724C-4.80466 146.209 -23.198 74.4556 2.55556 69.6719C-15.8405 31.4031 24.6256 -2.08293 28.3069 26.6195C79.807 2.70075 61.4132 60.1041 54.0582 69.6719Z" fill="#88C572" fill-opacity="0.8"/>
<g filter="url(#filter1_d_342_31075)">
<path d="M404.779 191.847L410.754 194.82L418.222 193.334L419.715 346.442L412.247 358.334L413.741 347.928L404.779 346.442L398.804 341.982L385.36 347.928L395.816 340.495L398.804 330.09L397.644 334.13L388.348 334.55L392.83 333.064L397.31 331.577L400.298 325.631L404.779 246.847L371.918 231.982L374.905 229.01L403.285 237.928L404.779 233.469V191.847Z" fill="#613527"/>
<path d="M418.222 193.334H425.691L431.666 187.388V211.171L439.134 209.685L460.045 194.82L461.539 196.306L448.096 206.712L454.071 203.739L480.957 188.874L483.945 190.36L433.159 223.064L439.134 327.117L442.121 331.577L449.59 334.549H446.602H439.134L434.653 340.495L433.159 343.469V352.388L430.171 346.442H419.715L418.222 193.334Z" fill="#613527"/>
<path d="M382.375 221.577C395.817 227.523 376.399 245.361 371.919 234.956C358.475 245.361 351.007 223.064 361.463 221.577C353.994 209.686 370.424 199.28 371.919 208.199C392.83 200.766 385.362 218.604 382.375 221.577Z" fill="#5C9748"/>
<path d="M387.299 216.009C400.741 221.955 381.323 239.793 376.843 229.388C363.399 239.793 355.93 217.496 366.387 216.009C358.918 204.118 375.349 193.712 376.843 202.631C397.754 195.198 390.285 213.037 387.299 216.009Z" fill="#5C9748"/>
<path d="M378.337 216.009C391.779 221.955 372.362 239.793 367.882 229.388C354.437 239.793 346.969 217.496 357.426 216.009C349.957 204.118 366.387 193.712 367.882 202.631C388.792 195.198 381.323 213.037 378.337 216.009Z" fill="#5C9748"/>
<path d="M497.832 189.253C511.275 195.199 491.857 213.036 487.377 202.631C473.932 213.036 466.464 190.74 476.921 189.253C469.452 177.361 485.882 166.955 487.377 175.875C508.287 168.442 500.819 186.28 497.832 189.253Z" fill="#5C9748"/>
<path d="M444.002 155.089C477.108 174.223 429.284 231.626 418.251 198.141C385.139 231.626 366.746 159.872 392.499 155.089C374.103 116.819 414.569 83.3336 418.251 112.036C469.751 88.1177 451.357 145.521 444.002 155.089Z" fill="#5C9748"/>
<path d="M463.488 137.172C496.595 156.306 448.771 213.709 437.737 180.224C404.626 213.709 386.233 141.955 411.986 137.172C393.59 98.9028 434.056 65.4172 437.737 94.1194C489.237 70.2009 470.843 127.604 463.488 137.172Z" fill="#5C9748"/>
<path d="M434.058 137.172C467.164 156.306 419.341 213.709 408.307 180.224C375.195 213.709 356.802 141.955 382.556 137.172C364.159 98.9028 404.626 65.4172 408.307 94.1194C459.807 70.2009 441.413 127.604 434.058 137.172Z" fill="#5C9748"/>
</g>
<path d="M181.233 338.353L140.49 342.453L142.612 336.84L142.663 336.707L142.621 336.571L140.587 329.918L194.032 337.768L182.883 370.908L180.288 368.776L186.269 339.893L186.353 339.492L185.953 339.402L181.367 338.362L181.301 338.347L181.233 338.353ZM194.169 336.947L140.378 329.045L139.663 321.938L139.645 321.767L139.513 321.658L133.773 316.944L156.44 314.663L156.945 314.613L156.797 314.127L154.57 306.845L154.543 306.759L154.485 306.693L137.833 287.638L138.641 286.644L150.013 298.634L150.668 298.125L147.113 292.478L147.108 292.47L147.103 292.463L129.745 267.379L130.588 265.148L167.754 311.832L167.843 311.943L167.983 311.977L196.011 318.763L196.945 319.966L194.291 322.623L194.773 323.289L196.07 322.64L194.35 323.823L193.356 324.508L194.56 324.583L197.886 324.791L194.509 325.424L193.138 325.681L194.426 326.218L198.345 327.852L194.467 329.011L193.167 329.399L194.461 329.808L199.243 331.317L194.416 333.469L194.169 333.579V333.85V336.947ZM233.385 328.337L228.022 327.666L233.113 324.951L232.893 324.168L227.503 324.484L232.298 321.608L233.16 321.09L232.184 320.846L228.533 319.933L231.804 318.786L232.134 318.67L232.078 318.326L231.71 316.064L271.206 295.581L271.245 295.56L271.279 295.532L275.418 292.113L275.517 292.031L275.553 291.907L277.165 286.268L277.247 287.078L277.994 294.508L278.015 294.715L278.193 294.823L284.558 298.686L284.589 298.706L284.625 298.719L287.733 299.908L287.824 299.943L287.923 299.933L295.048 299.216L290.915 301.842L290.698 301.979L290.723 302.235L291.739 312.33L234.923 335.787L234.579 333.277L234.53 332.917H234.167H231.13L233.086 332.048L233.297 331.954L233.329 331.726L233.746 328.809L233.806 328.389L233.385 328.337ZM237.053 335.809L292.169 313.054L302.821 318.338L294.28 317.977L293.873 317.959L293.846 318.366L293.271 327.331L289.484 333.635L289.358 333.844L289.479 334.056L294.705 343.253L288.975 336.697L288.879 336.587L288.736 336.561L282.514 335.433L282.22 335.38L278.083 334.63L277.963 335.291L273.572 333.612L273.488 333.579L273.397 333.584L237.053 335.809ZM278.78 335.603L281.777 336.147L282.645 342.081L281.946 340.518L280.018 336.208L279.948 336.05L279.787 335.988L278.78 335.603Z" fill="#1E0700" stroke="#170A06"/>
<path d="M96.1958 390.912H122.341L118.689 382.046L256.237 383.723L339.008 384.682V387.797H332.922H393.896L390.106 390.219L393.896 453.793L381.817 463.62L387.894 498.838L252.332 502.5L111.767 501.063L100.17 436.818L103.96 417.402L96.1958 390.912Z" fill="#A9AD81"/>
<path d="M111.082 410.137H84.4857L79.1665 390.772V369.167L279.527 376.918L400.098 381.347L399.561 394.059L400.833 407.68L256.477 403.494L111.082 410.137Z" fill="#8D8F6D"/>
<path d="M206.471 430.042C207.604 430.042 208.529 429.95 209.246 429.767C208.946 427.917 208.096 426.542 206.696 425.642C206.546 427.125 206.471 428.592 206.471 430.042ZM200.171 424.167C200.171 422.417 200.329 420.75 200.646 419.167H214.521C213.771 421.5 212.337 423.192 210.221 424.242C212.137 424.925 213.671 425.875 214.821 427.092C214.671 428.642 214.312 430.167 213.746 431.667H201.171C200.504 429.35 200.171 426.85 200.171 424.167ZM206.896 423.917C207.712 423.7 208.471 423.325 209.171 422.792C209.871 422.258 210.371 421.6 210.671 420.817C209.337 420.817 208.254 420.858 207.421 420.942C207.221 421.908 207.046 422.9 206.896 423.917ZM218.878 431.592C217.395 429.692 216.653 427.742 216.653 425.742C216.653 423.742 217.486 422.05 219.153 420.667C220.82 419.283 222.953 418.592 225.553 418.592C226.936 418.592 228.311 418.8 229.678 419.217C230.878 420.733 231.478 422.358 231.478 424.092C231.478 426.275 230.586 428.175 228.803 429.792C227.02 431.408 224.861 432.217 222.328 432.217C221.245 432.217 220.095 432.008 218.878 431.592ZM222.678 420.767C222.095 421.767 221.803 422.942 221.803 424.292C221.803 425.642 222.095 426.892 222.678 428.042C223.278 429.175 224.095 429.992 225.128 430.492C225.911 429.492 226.303 428.333 226.303 427.017C226.303 425.7 225.978 424.475 225.328 423.342C224.695 422.208 223.811 421.35 222.678 420.767ZM242.833 420.667C242.166 420.567 241.45 420.517 240.683 420.517C239.933 420.517 239.2 420.567 238.483 420.667C238.933 421.433 239.466 422.058 240.083 422.542C240.7 423.025 241.475 423.508 242.408 423.992C243.358 424.458 244.125 424.892 244.708 425.292C245.308 425.692 245.966 426.35 246.683 427.267C247.4 428.183 247.85 429.142 248.033 430.142C247.233 431.175 246.175 432.083 244.858 432.867C243.541 433.667 242.191 434.2 240.808 434.467C239.875 434.383 238.691 434.117 237.258 433.667C235.841 433.233 234.775 433.017 234.058 433.017C233.341 433.017 232.625 433.242 231.908 433.692C232.208 432.842 232.7 431.775 233.383 430.492H233.583C234.65 430.492 235.65 430.658 236.583 430.992C237.533 431.325 238.391 431.658 239.158 431.992C239.941 432.325 240.566 432.492 241.033 432.492C241.516 432.492 241.866 432.458 242.083 432.392C242.083 431.292 241.741 430.383 241.058 429.667C240.691 429.283 240.375 428.992 240.108 428.792C239.858 428.575 239.466 428.283 238.933 427.917L238.508 427.617C237.375 426.833 236.441 426.042 235.708 425.242C234.975 424.425 234.441 423.425 234.108 422.242C234.641 421.058 235.166 420.033 235.683 419.167C237.266 418.783 238.908 418.592 240.608 418.592H241.708C243.141 418.592 244.783 418.792 246.633 419.192C246.366 420.292 246.041 421.283 245.658 422.167C244.258 422.267 243.175 422.317 242.408 422.317C242.558 421.933 242.7 421.383 242.833 420.667ZM251.352 431.592C249.869 429.692 249.127 427.75 249.127 425.767C249.127 423.767 249.961 422.075 251.627 420.692C253.294 419.292 255.427 418.592 258.027 418.592C259.461 418.592 260.827 418.792 262.127 419.192C263.344 420.725 263.952 422.367 263.952 424.117C263.952 426.5 262.911 428.525 260.827 430.192C261.011 430.158 261.344 430.075 261.827 429.942C262.311 429.808 262.702 429.742 263.002 429.742C263.319 429.742 263.652 429.8 264.002 429.917L265.802 432.242C265.469 431.842 264.977 431.642 264.327 431.642C263.694 431.642 262.844 431.733 261.777 431.917C260.711 432.1 259.986 432.2 259.602 432.217C259.269 432.067 258.936 431.817 258.602 431.467C257.386 431.967 256.177 432.217 254.977 432.217C253.777 432.217 252.569 432.008 251.352 431.592ZM255.152 420.792C254.552 421.825 254.252 423.008 254.252 424.342C254.252 425.658 254.552 426.892 255.152 428.042C255.752 429.175 256.569 429.992 257.602 430.492C258.386 429.492 258.777 428.333 258.777 427.017C258.777 425.7 258.452 424.475 257.802 423.342C257.169 422.208 256.286 421.358 255.152 420.792ZM281.227 419.167C281.294 420.25 281.327 421.833 281.327 423.917C281.327 425.983 281.194 428.192 280.927 430.542C279.194 431.658 277.119 432.217 274.702 432.217C271.486 432.217 268.886 431.658 266.902 430.542C266.686 428.742 266.577 427 266.577 425.317C266.577 423.617 266.702 421.567 266.952 419.167H273.677C273.011 422.783 272.661 426.258 272.627 429.592C273.327 430.225 274.336 430.542 275.652 430.542C276.969 430.542 277.977 430.308 278.677 429.842C278.711 429.292 278.727 428.5 278.727 427.467C278.727 424.833 278.494 422.067 278.027 419.167H281.227ZM292.682 424.192L295.032 424.342C295.266 424.342 295.441 424.333 295.557 424.317L294.382 426.517H294.157C293.841 426.517 293.391 426.433 292.807 426.267C292.224 426.083 291.807 425.992 291.557 425.992C290.874 425.992 290.332 426.433 289.932 427.317C289.866 428.133 289.816 428.95 289.782 429.767C290.649 429.933 291.332 430.017 291.832 430.017H292.057C292.774 430.017 293.341 429.858 293.757 429.542C294.191 429.225 294.499 428.658 294.682 427.842L297.682 427.967C297.432 429.4 297.099 430.633 296.682 431.667H284.407C284.074 429.417 283.907 427.183 283.907 424.967C283.907 422.75 284.024 420.817 284.257 419.167H297.657C297.357 420.967 297.091 422.233 296.857 422.967C295.874 423.017 294.974 423.05 294.157 423.067C294.291 422.683 294.357 422.325 294.357 421.992C294.357 421.192 293.757 420.792 292.557 420.792C292.107 420.792 291.607 420.842 291.057 420.942C290.691 422.525 290.407 423.917 290.207 425.117C290.874 424.5 291.699 424.192 292.682 424.192ZM177.137 447.817C177.137 447.367 177.071 446.983 176.937 446.667H184.062C184.662 448.267 185.104 450.225 185.387 452.542C185.687 454.858 185.846 457.067 185.862 459.167H180.087C179.971 456.167 179.479 453.275 178.612 450.492C177.162 453.325 176.379 456.217 176.262 459.167H171.362C170.929 455.9 170.096 453 168.862 450.467C167.962 452.583 167.512 454.55 167.512 456.367C167.512 457.35 167.629 458.283 167.862 459.167H161.787C161.671 458.483 161.612 457.583 161.612 456.467C161.612 455.333 161.779 454.2 162.112 453.067C163.296 452.717 164.429 452.142 165.512 451.342C166.612 450.542 167.421 449.667 167.937 448.717C167.504 448 167.046 447.317 166.562 446.667H174.462C175.096 448.383 175.571 450.25 175.887 452.267C176.721 450.717 177.137 449.233 177.137 447.817ZM204.256 458.967V459.167H198.456C198.39 458.217 198.248 457.233 198.031 456.217C196.998 457.267 195.831 458.25 194.531 459.167H188.706C188.59 458.483 188.531 457.583 188.531 456.467C188.531 455.333 188.698 454.2 189.031 453.067C190.231 452.717 191.381 452.125 192.481 451.292C193.598 450.458 194.406 449.558 194.906 448.592C194.456 447.892 193.981 447.25 193.481 446.667H201.781C203.431 450.25 204.256 454.35 204.256 458.967ZM197.581 454.392C197.148 452.908 196.581 451.508 195.881 450.192C195.098 452.492 194.648 454.667 194.531 456.717C195.731 456.1 196.748 455.325 197.581 454.392ZM212.606 446.092C215.823 446.092 218.44 446.492 220.456 447.292C221.173 448.725 221.531 450.175 221.531 451.642C221.531 453.525 220.89 455.158 219.606 456.542C217.74 458.525 215.215 459.517 212.031 459.517C210.931 459.517 209.44 459.392 207.556 459.142C206.906 455.792 206.581 452.7 206.581 449.867C206.581 448.883 206.631 447.817 206.731 446.667C209.415 446.283 211.373 446.092 212.606 446.092ZM213.356 447.967C213.056 451.1 212.906 453.35 212.906 454.717C212.906 456.067 212.931 457.167 212.981 458.017C213.881 457.533 214.581 456.725 215.081 455.592C215.598 454.442 215.856 453.283 215.856 452.117C215.856 450.933 215.64 449.967 215.206 449.217C214.79 448.467 214.173 448.05 213.356 447.967ZM238.226 451.017L238.201 451.867C236.867 452.583 235.201 453.142 233.201 453.542C234.634 453.925 236.017 454.117 237.351 454.117H237.876C238.792 455.467 239.384 457.15 239.651 459.167H233.176C233.009 458 232.667 457 232.151 456.167C231.651 455.317 231.034 454.742 230.301 454.442C230.284 454.725 230.276 455.292 230.276 456.142C230.276 456.992 230.326 458 230.426 459.167H224.976C224.492 456.75 224.251 454.508 224.251 452.442C224.251 450.358 224.367 448.433 224.601 446.667H237.651C238.034 448.35 238.226 449.8 238.226 451.017ZM230.826 448.342C230.626 449.808 230.476 451.25 230.376 452.667C231.292 452.533 232.042 452.208 232.626 451.692C232.309 450.575 231.709 449.458 230.826 448.342ZM248.852 446.667V447.342C248.852 451.742 248.577 455.683 248.027 459.167H242.027C242.344 457.633 242.502 455.867 242.502 453.867C242.502 451.85 242.369 449.45 242.102 446.667H248.852ZM260.639 457.942L260.664 456.892C260.664 455.708 260.564 454.3 260.364 452.667H265.764C265.764 455.033 265.647 457.2 265.414 459.167C262.831 459.533 260.156 459.717 257.389 459.717H255.789C254.272 459.067 253.089 458.117 252.239 456.867C251.389 455.6 250.964 454.258 250.964 452.842C250.964 450.958 251.722 449.367 253.239 448.067C254.772 446.75 257.006 446.092 259.939 446.092C261.472 446.092 263.181 446.3 265.064 446.717C264.781 447.85 264.456 448.85 264.089 449.717C263.072 449.783 261.981 449.833 260.814 449.867C260.997 449.3 261.131 448.742 261.214 448.192C260.681 448.092 260.131 448.042 259.564 448.042C259.014 448.042 258.356 448.133 257.589 448.317C257.322 449.45 257.189 450.475 257.189 451.392C257.189 452.775 257.497 454.075 258.114 455.292C258.747 456.492 259.589 457.375 260.639 457.942ZM283.559 446.667C283.626 447.75 283.659 449.333 283.659 451.417C283.659 453.483 283.526 455.692 283.259 458.042C281.526 459.158 279.451 459.717 277.034 459.717C273.817 459.717 271.217 459.158 269.234 458.042C269.017 456.242 268.909 454.5 268.909 452.817C268.909 451.117 269.034 449.067 269.284 446.667H276.009C275.342 450.283 274.992 453.758 274.959 457.092C275.659 457.725 276.667 458.042 277.984 458.042C279.301 458.042 280.309 457.808 281.009 457.342C281.042 456.792 281.059 456 281.059 454.967C281.059 452.333 280.826 449.567 280.359 446.667H283.559ZM295.013 451.692L297.363 451.842C297.596 451.842 297.771 451.833 297.888 451.817L296.713 454.017H296.488C296.171 454.017 295.721 453.933 295.138 453.767C294.555 453.583 294.138 453.492 293.888 453.492C293.205 453.492 292.663 453.933 292.263 454.817C292.196 455.633 292.146 456.45 292.113 457.267C292.98 457.433 293.663 457.517 294.163 457.517H294.388C295.105 457.517 295.671 457.358 296.088 457.042C296.521 456.725 296.83 456.158 297.013 455.342L300.013 455.467C299.763 456.9 299.43 458.133 299.013 459.167H286.738C286.405 456.917 286.238 454.683 286.238 452.467C286.238 450.25 286.355 448.317 286.588 446.667H299.988C299.688 448.467 299.421 449.733 299.188 450.467C298.205 450.517 297.305 450.55 296.488 450.567C296.621 450.183 296.688 449.825 296.688 449.492C296.688 448.692 296.088 448.292 294.888 448.292C294.438 448.292 293.938 448.342 293.388 448.442C293.021 450.025 292.738 451.417 292.538 452.617C293.205 452 294.03 451.692 295.013 451.692ZM316.961 451.017L316.936 451.867C315.602 452.583 313.936 453.142 311.936 453.542C313.369 453.925 314.752 454.117 316.086 454.117H316.611C317.527 455.467 318.119 457.15 318.386 459.167H311.911C311.744 458 311.402 457 310.886 456.167C310.386 455.317 309.769 454.742 309.036 454.442C309.019 454.725 309.011 455.292 309.011 456.142C309.011 456.992 309.061 458 309.161 459.167H303.711C303.227 456.75 302.986 454.508 302.986 452.442C302.986 450.358 303.102 448.433 303.336 446.667H316.386C316.769 448.35 316.961 449.8 316.961 451.017ZM309.561 448.342C309.361 449.808 309.211 451.25 309.111 452.667C310.027 452.533 310.777 452.208 311.361 451.692C311.044 450.575 310.444 449.458 309.561 448.342ZM336.312 458.967V459.167H330.512C330.446 458.217 330.304 457.233 330.087 456.217C329.054 457.267 327.887 458.25 326.587 459.167H320.762C320.646 458.483 320.587 457.583 320.587 456.467C320.587 455.333 320.754 454.2 321.087 453.067C322.287 452.717 323.437 452.125 324.537 451.292C325.654 450.458 326.462 449.558 326.962 448.592C326.512 447.892 326.037 447.25 325.537 446.667H333.837C335.487 450.25 336.312 454.35 336.312 458.967ZM329.637 454.392C329.204 452.908 328.637 451.508 327.937 450.192C327.154 452.492 326.704 454.667 326.587 456.717C327.787 456.1 328.804 455.325 329.637 454.392Z" fill="black"/>
<path d="M164.523 271.587H173.789L172.495 269.395L221.24 269.81L250.573 270.047V270.817H248.417H270.025L268.682 271.416L270.025 287.128L265.745 289.558L267.898 298.262L219.857 299.167L170.042 298.812L165.932 282.933L167.275 278.134L164.523 271.587Z" fill="#A9AD81"/>
<path d="M171.328 272.133H161.888L160 270.731V269.167L231.112 269.728L273.906 270.049C273.782 270.647 273.853 271.269 274.107 271.824L274.167 271.955L222.932 271.652L171.328 272.133Z" fill="#8D8F6D"/>
<path d="M185.084 280.18L186.338 280.26C186.462 280.26 186.555 280.256 186.618 280.247L185.991 281.42H185.871C185.702 281.42 185.462 281.376 185.151 281.287C184.84 281.189 184.618 281.14 184.484 281.14C184.12 281.14 183.831 281.376 183.618 281.847C183.582 282.283 183.555 282.718 183.538 283.153C184 283.243 184.364 283.287 184.631 283.287H184.751C185.133 283.287 185.435 283.203 185.658 283.033C185.888 282.864 186.053 282.563 186.151 282.127L187.751 282.193C187.618 282.958 187.44 283.616 187.218 284.167H180.671C180.493 282.967 180.404 281.776 180.404 280.593C180.404 279.411 180.467 278.38 180.591 277.5H187.738C187.578 278.46 187.435 279.136 187.311 279.527C186.787 279.553 186.307 279.571 185.871 279.58C185.942 279.376 185.978 279.184 185.978 279.007C185.978 278.58 185.658 278.367 185.018 278.367C184.778 278.367 184.511 278.393 184.218 278.447C184.022 279.291 183.871 280.033 183.764 280.673C184.12 280.344 184.56 280.18 185.084 280.18ZM197.109 277.5C197.163 278.433 197.189 279.42 197.189 280.46C197.189 281.491 197.145 282.727 197.056 284.167H195.776C194.052 283.243 192.469 281.984 191.029 280.393C191.101 280.989 191.136 281.603 191.136 282.233C191.136 282.856 191.114 283.5 191.069 284.167H189.509C189.688 283.073 189.776 282.064 189.776 281.14C189.776 280.207 189.732 279.469 189.643 278.927C189.288 278.393 189.008 277.918 188.803 277.5H192.589C192.963 278.14 193.469 278.803 194.109 279.487C194.758 280.163 195.376 280.691 195.963 281.073C195.963 279.776 195.816 278.584 195.523 277.5H197.109ZM204.321 278.367C204.089 279.771 203.974 280.918 203.974 281.807C203.974 282.696 204.009 283.483 204.081 284.167H201.174C200.872 282.753 200.721 281.233 200.721 279.607C200.721 279.331 200.729 278.918 200.748 278.367C199.992 278.589 199.529 279.1 199.361 279.9L198.041 279.82L198.521 277.5H207.388C207.209 278.478 207.005 279.278 206.774 279.9L205.428 279.82C205.463 279.678 205.481 279.536 205.481 279.393C205.481 279.047 205.374 278.789 205.161 278.62C204.948 278.451 204.668 278.367 204.321 278.367ZM215.722 279.82L215.708 280.273C214.998 280.656 214.108 280.953 213.042 281.167C213.806 281.371 214.544 281.473 215.255 281.473H215.535C216.024 282.193 216.339 283.091 216.482 284.167H213.028C212.939 283.544 212.758 283.011 212.482 282.567C212.215 282.113 211.886 281.807 211.495 281.647C211.486 281.798 211.482 282.1 211.482 282.553C211.482 283.007 211.508 283.544 211.562 284.167H208.655C208.398 282.878 208.268 281.683 208.268 280.58C208.268 279.469 208.331 278.443 208.455 277.5H215.415C215.619 278.398 215.722 279.171 215.722 279.82ZM211.775 278.393C211.668 279.176 211.588 279.944 211.535 280.7C212.024 280.629 212.424 280.456 212.735 280.18C212.566 279.584 212.246 278.989 211.775 278.393ZM226.043 284.06V284.167H222.949C222.913 283.66 222.838 283.136 222.723 282.593C222.172 283.153 221.549 283.678 220.856 284.167H217.749C217.687 283.803 217.656 283.323 217.656 282.727C217.656 282.123 217.745 281.518 217.923 280.913C218.563 280.727 219.176 280.411 219.763 279.967C220.358 279.523 220.789 279.043 221.056 278.527C220.816 278.153 220.563 277.811 220.296 277.5H224.723C225.603 279.411 226.043 281.598 226.043 284.06ZM222.483 281.62C222.252 280.829 221.949 280.083 221.576 279.38C221.158 280.607 220.918 281.767 220.856 282.86C221.496 282.531 222.038 282.118 222.483 281.62ZM230.496 277.193C232.211 277.193 233.607 277.407 234.683 277.833C235.064 278.598 235.256 279.371 235.256 280.153C235.256 281.158 234.913 282.029 234.229 282.767C233.233 283.824 231.887 284.353 230.189 284.353C229.603 284.353 228.807 284.287 227.803 284.153C227.456 282.367 227.283 280.718 227.283 279.207C227.283 278.683 227.309 278.113 227.363 277.5C228.793 277.296 229.838 277.193 230.496 277.193ZM230.896 278.193C230.736 279.864 230.656 281.064 230.656 281.793C230.656 282.513 230.669 283.1 230.696 283.553C231.176 283.296 231.549 282.864 231.816 282.26C232.091 281.647 232.229 281.029 232.229 280.407C232.229 279.776 232.113 279.26 231.883 278.86C231.66 278.46 231.331 278.238 230.896 278.193ZM245.066 284.06V284.167H241.973C241.937 283.66 241.862 283.136 241.746 282.593C241.195 283.153 240.573 283.678 239.879 284.167H236.773C236.71 283.803 236.679 283.323 236.679 282.727C236.679 282.123 236.768 281.518 236.946 280.913C237.586 280.727 238.199 280.411 238.786 279.967C239.382 279.523 239.813 279.043 240.079 278.527C239.839 278.153 239.586 277.811 239.319 277.5H243.746C244.626 279.411 245.066 281.598 245.066 284.06ZM241.506 281.62C241.275 280.829 240.973 280.083 240.599 279.38C240.182 280.607 239.942 281.767 239.879 282.86C240.519 282.531 241.062 282.118 241.506 281.62ZM250.959 278.3C250.603 278.247 250.221 278.22 249.813 278.22C249.413 278.22 249.021 278.247 248.639 278.3C248.879 278.709 249.163 279.043 249.493 279.3C249.821 279.558 250.234 279.816 250.733 280.073C251.239 280.323 251.648 280.553 251.959 280.767C252.279 280.98 252.63 281.331 253.013 281.82C253.394 282.309 253.634 282.82 253.733 283.353C253.306 283.904 252.741 284.389 252.039 284.807C251.337 285.233 250.617 285.518 249.879 285.66C249.381 285.616 248.75 285.473 247.986 285.233C247.23 285.003 246.661 284.887 246.279 284.887C245.897 284.887 245.514 285.007 245.133 285.247C245.293 284.793 245.554 284.224 245.919 283.54H246.026C246.594 283.54 247.128 283.629 247.626 283.807C248.133 283.984 248.59 284.163 248.999 284.34C249.417 284.518 249.75 284.607 249.999 284.607C250.257 284.607 250.443 284.589 250.559 284.553C250.559 283.967 250.377 283.483 250.013 283.1C249.817 282.896 249.648 282.74 249.506 282.633C249.373 282.518 249.163 282.363 248.879 282.167L248.653 282.007C248.048 281.589 247.55 281.167 247.159 280.74C246.768 280.304 246.483 279.771 246.306 279.14C246.59 278.509 246.87 277.963 247.146 277.5C247.99 277.296 248.866 277.193 249.773 277.193H250.359C251.123 277.193 251.999 277.3 252.986 277.513C252.843 278.1 252.67 278.629 252.466 279.1C251.719 279.153 251.141 279.18 250.733 279.18C250.813 278.976 250.888 278.683 250.959 278.3Z" fill="black"/>
</g>
<path d="M487.5 4.1665H12.5001C7.89771 4.1665 4.16675 7.89746 4.16675 12.4998V487.5C4.16675 492.102 7.89771 495.833 12.5001 495.833H487.5C492.102 495.833 495.833 492.102 495.833 487.5V12.4998C495.833 7.89746 492.102 4.1665 487.5 4.1665Z" stroke="#A9AD81" stroke-width="10"/>
</g>
<defs>
<filter id="filter0_d_342_31075" x="421.424" y="81.6665" width="112.56" height="133.086" filterUnits="userSpaceOnUse" color-interpolation-filters="sRGB">
<feFlood flood-opacity="0" result="BackgroundImageFix"/>
<feColorMatrix in="SourceAlpha" type="matrix" values="0 0 0 0 0 0 0 0 0 0 0 0 0 0 0 0 0 0 127 0" result="hardAlpha"/>
<feOffset dy="4"/>
<feGaussianBlur stdDeviation="2"/>
<feComposite in2="hardAlpha" operator="out"/>
<feColorMatrix type="matrix" values="0 0 0 0 0 0 0 0 0 0 0 0 0 0 0 0 0 0 0.25 0"/>
<feBlend mode="normal" in2="BackgroundImageFix" result="effect1_dropShadow_342_31075"/>
<feBlend mode="normal" in="SourceGraphic" in2="effect1_dropShadow_342_31075" result="shape"/>
</filter>
<filter id="filter1_d_342_31075" x="348.5" y="83.3335" width="158" height="283" filterUnits="userSpaceOnUse" color-interpolation-filters="sRGB">
<feFlood flood-opacity="0" result="BackgroundImageFix"/>
<feColorMatrix in="SourceAlpha" type="matrix" values="0 0 0 0 0 0 0 0 0 0 0 0 0 0 0 0 0 0 127 0" result="hardAlpha"/>
<feOffset dy="4"/>
<feGaussianBlur stdDeviation="2"/>
<feComposite in2="hardAlpha" operator="out"/>
<feColorMatrix type="matrix" values="0 0 0 0 0 0 0 0 0 0 0 0 0 0 0 0 0 0 0.25 0"/>
<feBlend mode="normal" in2="BackgroundImageFix" result="effect1_dropShadow_342_31075"/>
<feBlend mode="normal" in="SourceGraphic" in2="effect1_dropShadow_342_31075" result="shape"/>
</filter>
<clipPath id="clip0_342_31075">
<rect width="500" height="500" fill="white"/>
</clipPath>
</defs>
</svg>
