<svg width="500" height="500" viewBox="0 0 500 500" fill="none" xmlns="http://www.w3.org/2000/svg">
<g clip-path="url(#clip0_342_31415)">
<mask id="mask0_342_31415" style="mask-type:luminance" maskUnits="userSpaceOnUse" x="0" y="0" width="500" height="500">
<path d="M487.5 0H12.5C5.59644 0 0 5.59644 0 12.5V487.5C0 494.404 5.59644 500 12.5 500H487.5C494.404 500 500 494.404 500 487.5V12.5C500 5.59644 494.404 0 487.5 0Z" fill="white"/>
</mask>
<g mask="url(#mask0_342_31415)">
<path d="M487.5 0H12.5C5.59644 0 0 5.59644 0 12.5V487.5C0 494.404 5.59644 500 12.5 500H487.5C494.404 500 500 494.404 500 487.5V12.5C500 5.59644 494.404 0 487.5 0Z" fill="#302B2B"/>
<path d="M522.916 75.8331C522.916 238.474 739.166 616.666 248.333 522.916C-178.334 625.416 -60.8337 260.141 -60.8337 97.4998C-60.8337 -65.1409 114.065 -6.90082 258.201 -6.90082C402.336 -6.90082 522.916 -86.8077 522.916 75.8331Z" fill="#543535"/>
<path d="M492.6 204.583C492.6 328.32 327.535 494.99 246.477 494.99C165.419 494.99 12.1826 299.143 12.1826 175.407C12.1826 51.67 125.708 -4.59326 206.766 -4.59326C287.825 -4.59326 492.6 80.8464 492.6 204.583Z" fill="#402626"/>
<path d="M455.833 187.308C455.833 290.714 314.391 430 244.932 430C175.474 430 44.1665 266.332 44.1665 162.925C44.1665 59.519 141.446 12.5 210.904 12.5C280.362 12.5 455.833 83.9017 455.833 187.308Z" fill="#301F1F"/>
<path d="M420.833 170.593C420.833 251.296 303.728 360 246.221 360C188.714 360 80 232.267 80 151.564C80 70.862 160.541 34.1665 218.048 34.1665C275.555 34.1665 420.833 89.8915 420.833 170.593Z" fill="#2C1C1C"/>
<path d="M333.117 160.244C333.117 240.906 389.134 292.744 267.7 292.744C146.265 292.744 138.207 290.311 138.207 209.65C138.207 148.051 134.297 146.379 177.917 87.4998C183.899 33.5712 156.852 93.0057 213.117 63.5774C226.879 10.6067 187.828 83.9282 213.117 63.5774C252.02 -7.29901 333.117 96.2173 333.117 160.244Z" fill="#251818"/>
<g filter="url(#filter0_d_342_31415)">
<path d="M289.592 150.833C362.5 97.0831 295.773 282.916 243.75 282.916C191.727 282.916 126.667 138.75 194.592 146.666C194.592 94.3373 192.917 92.9164 211.603 42.8969C214.167 -2.91694 215.833 61.6664 239.937 36.6664C245.833 -8.33364 257.5 62.9164 268.333 45.6279C285 -14.5836 289.592 96.4406 289.592 150.833Z" fill="#741E1E"/>
</g>
<path d="M106.196 365.078H132.341L128.689 356.212L266.237 357.89L349.008 358.848V361.963H342.922H403.896L400.106 364.386L403.896 427.96L391.817 437.787L397.894 473.005L262.332 476.667L121.767 475.229L110.17 410.984L113.96 391.568L106.196 365.078Z" fill="#A9AD81"/>
<path d="M121.082 384.303H94.4857L89.1665 364.938V343.333L289.527 351.084L410.098 355.513L409.561 368.226L410.833 381.846L266.477 377.66L121.082 384.303Z" fill="#8D8F6D"/>
<path d="M213.517 394.858C212.934 394.758 212.367 394.708 211.817 394.708C211.284 394.708 210.634 394.8 209.867 394.983C209.617 396.033 209.492 397.058 209.492 398.058C209.492 400.642 210.642 402.625 212.942 404.008C214.476 402.992 215.859 401.725 217.092 400.208C217.142 400.875 217.184 401.892 217.217 403.258C215.984 404.225 214.726 404.983 213.442 405.533C212.159 406.083 210.559 406.358 208.642 406.358H208.067C206.567 405.708 205.384 404.75 204.517 403.483C203.667 402.217 203.242 400.883 203.242 399.483C203.242 397.617 204.009 396.033 205.542 394.733C207.076 393.417 209.301 392.758 212.217 392.758C213.851 392.758 215.559 392.967 217.342 393.383C217.076 394.433 216.742 395.425 216.342 396.358C215.292 396.458 214.209 396.508 213.092 396.508C213.259 396.042 213.401 395.492 213.517 394.858ZM235.338 405.633V405.833H229.538C229.471 404.883 229.33 403.9 229.113 402.883C228.08 403.933 226.913 404.917 225.613 405.833H219.788C219.671 405.15 219.613 404.25 219.613 403.133C219.613 402 219.78 400.867 220.113 399.733C221.313 399.383 222.463 398.792 223.563 397.958C224.68 397.125 225.488 396.225 225.988 395.258C225.538 394.558 225.063 393.917 224.563 393.333H232.863C234.513 396.917 235.338 401.017 235.338 405.633ZM228.663 401.058C228.23 399.575 227.663 398.175 226.963 396.858C226.18 399.158 225.73 401.333 225.613 403.383C226.813 402.767 227.83 401.992 228.663 401.058ZM252.238 394.483C252.238 394.033 252.171 393.65 252.038 393.333H259.163C259.763 394.933 260.205 396.892 260.488 399.208C260.788 401.525 260.946 403.733 260.963 405.833H255.188C255.071 402.833 254.58 399.942 253.713 397.158C252.263 399.992 251.48 402.883 251.363 405.833H246.463C246.03 402.567 245.196 399.667 243.963 397.133C243.063 399.25 242.613 401.217 242.613 403.033C242.613 404.017 242.73 404.95 242.963 405.833H236.888C236.771 405.15 236.713 404.25 236.713 403.133C236.713 402 236.88 400.867 237.213 399.733C238.396 399.383 239.53 398.808 240.613 398.008C241.713 397.208 242.521 396.333 243.038 395.383C242.605 394.667 242.146 393.983 241.663 393.333H249.563C250.196 395.05 250.671 396.917 250.988 398.933C251.821 397.383 252.238 395.9 252.238 394.483ZM279.356 405.633V405.833H273.556C273.49 404.883 273.348 403.9 273.131 402.883C272.098 403.933 270.931 404.917 269.631 405.833H263.806C263.69 405.15 263.631 404.25 263.631 403.133C263.631 402 263.798 400.867 264.131 399.733C265.331 399.383 266.481 398.792 267.581 397.958C268.698 397.125 269.506 396.225 270.006 395.258C269.556 394.558 269.081 393.917 268.581 393.333H276.881C278.531 396.917 279.356 401.017 279.356 405.633ZM272.681 401.058C272.248 399.575 271.681 398.175 270.981 396.858C270.198 399.158 269.748 401.333 269.631 403.383C270.831 402.767 271.848 401.992 272.681 401.058ZM295.381 397.683L295.356 398.533C294.023 399.25 292.356 399.808 290.356 400.208C291.79 400.592 293.173 400.783 294.506 400.783H295.031C295.948 402.133 296.54 403.817 296.806 405.833H290.331C290.165 404.667 289.823 403.667 289.306 402.833C288.806 401.983 288.19 401.408 287.456 401.108C287.44 401.392 287.431 401.958 287.431 402.808C287.431 403.658 287.481 404.667 287.581 405.833H282.131C281.648 403.417 281.406 401.175 281.406 399.108C281.406 397.025 281.523 395.1 281.756 393.333H294.806C295.19 395.017 295.381 396.467 295.381 397.683ZM287.981 395.008C287.781 396.475 287.631 397.917 287.531 399.333C288.448 399.2 289.198 398.875 289.781 398.358C289.465 397.242 288.865 396.125 287.981 395.008ZM314.732 405.633V405.833H308.932C308.866 404.883 308.724 403.9 308.507 402.883C307.474 403.933 306.307 404.917 305.007 405.833H299.182C299.066 405.15 299.007 404.25 299.007 403.133C299.007 402 299.174 400.867 299.507 399.733C300.707 399.383 301.857 398.792 302.957 397.958C304.074 397.125 304.882 396.225 305.382 395.258C304.932 394.558 304.457 393.917 303.957 393.333H312.257C313.907 396.917 314.732 401.017 314.732 405.633ZM308.057 401.058C307.624 399.575 307.057 398.175 306.357 396.858C305.574 399.158 305.124 401.333 305.007 403.383C306.207 402.767 307.224 401.992 308.057 401.058ZM145.89 421.983C145.89 421.533 145.823 421.15 145.69 420.833H152.815C153.415 422.433 153.856 424.392 154.14 426.708C154.44 429.025 154.598 431.233 154.615 433.333H148.84C148.723 430.333 148.231 427.442 147.365 424.658C145.915 427.492 145.131 430.383 145.015 433.333H140.115C139.681 430.067 138.848 427.167 137.615 424.633C136.715 426.75 136.265 428.717 136.265 430.533C136.265 431.517 136.381 432.45 136.615 433.333H130.54C130.423 432.65 130.365 431.75 130.365 430.633C130.365 429.5 130.531 428.367 130.865 427.233C132.048 426.883 133.181 426.308 134.265 425.508C135.365 424.708 136.173 423.833 136.69 422.883C136.256 422.167 135.798 421.483 135.315 420.833H143.215C143.848 422.55 144.323 424.417 144.64 426.433C145.473 424.883 145.89 423.4 145.89 421.983ZM158.834 433.258C157.351 431.358 156.609 429.408 156.609 427.408C156.609 425.408 157.442 423.717 159.109 422.333C160.776 420.95 162.909 420.258 165.509 420.258C166.892 420.258 168.267 420.467 169.634 420.883C170.834 422.4 171.434 424.025 171.434 425.758C171.434 427.942 170.542 429.842 168.759 431.458C166.976 433.075 164.817 433.883 162.284 433.883C161.201 433.883 160.051 433.675 158.834 433.258ZM162.634 422.433C162.051 423.433 161.759 424.608 161.759 425.958C161.759 427.308 162.051 428.558 162.634 429.708C163.234 430.842 164.051 431.658 165.084 432.158C165.867 431.158 166.259 430 166.259 428.683C166.259 427.367 165.934 426.142 165.284 425.008C164.651 423.875 163.767 423.017 162.634 422.433ZM188.364 420.833C188.464 422.583 188.514 424.433 188.514 426.383C188.514 428.317 188.431 430.633 188.264 433.333H185.864C182.631 431.6 179.664 429.242 176.964 426.258C177.097 427.375 177.164 428.525 177.164 429.708C177.164 430.875 177.122 432.083 177.039 433.333H174.114C174.447 431.283 174.614 429.392 174.614 427.658C174.614 425.908 174.531 424.525 174.364 423.508C173.697 422.508 173.172 421.617 172.789 420.833H179.889C180.589 422.033 181.539 423.275 182.739 424.558C183.956 425.825 185.114 426.817 186.214 427.533C186.214 425.1 185.939 422.867 185.389 420.833H188.364ZM207.336 433.133V433.333H201.536C201.469 432.383 201.327 431.4 201.111 430.383C200.077 431.433 198.911 432.417 197.611 433.333H191.786C191.669 432.65 191.611 431.75 191.611 430.633C191.611 429.5 191.777 428.367 192.111 427.233C193.311 426.883 194.461 426.292 195.561 425.458C196.677 424.625 197.486 423.725 197.986 422.758C197.536 422.058 197.061 421.417 196.561 420.833H204.861C206.511 424.417 207.336 428.517 207.336 433.133ZM200.661 428.558C200.227 427.075 199.661 425.675 198.961 424.358C198.177 426.658 197.727 428.833 197.611 430.883C198.811 430.267 199.827 429.492 200.661 428.558ZM223.36 425.183L223.335 426.033C222.001 426.75 220.335 427.308 218.335 427.708C219.768 428.092 221.151 428.283 222.485 428.283H223.01C223.926 429.633 224.518 431.317 224.785 433.333H218.31C218.143 432.167 217.801 431.167 217.285 430.333C216.785 429.483 216.168 428.908 215.435 428.608C215.418 428.892 215.41 429.458 215.41 430.308C215.41 431.158 215.46 432.167 215.56 433.333H210.11C209.626 430.917 209.385 428.675 209.385 426.608C209.385 424.525 209.501 422.6 209.735 420.833H222.785C223.168 422.517 223.36 423.967 223.36 425.183ZM215.96 422.508C215.76 423.975 215.61 425.417 215.51 426.833C216.426 426.7 217.176 426.375 217.76 425.858C217.443 424.742 216.843 423.625 215.96 422.508ZM228.686 433.258C227.203 431.358 226.461 429.417 226.461 427.433C226.461 425.433 227.295 423.742 228.961 422.358C230.628 420.958 232.761 420.258 235.361 420.258C236.795 420.258 238.161 420.458 239.461 420.858C240.678 422.392 241.286 424.033 241.286 425.783C241.286 428.167 240.245 430.192 238.161 431.858C238.345 431.825 238.678 431.742 239.161 431.608C239.645 431.475 240.036 431.408 240.336 431.408C240.653 431.408 240.986 431.467 241.336 431.583L243.136 433.908C242.803 433.508 242.311 433.308 241.661 433.308C241.028 433.308 240.178 433.4 239.111 433.583C238.045 433.767 237.32 433.867 236.936 433.883C236.603 433.733 236.27 433.483 235.936 433.133C234.72 433.633 233.511 433.883 232.311 433.883C231.111 433.883 229.903 433.675 228.686 433.258ZM232.486 422.458C231.886 423.492 231.586 424.675 231.586 426.008C231.586 427.325 231.886 428.558 232.486 429.708C233.086 430.842 233.903 431.658 234.936 432.158C235.72 431.158 236.111 430 236.111 428.683C236.111 427.367 235.786 426.142 235.136 425.008C234.503 423.875 233.62 423.025 232.486 422.458ZM258.561 420.833C258.628 421.917 258.661 423.5 258.661 425.583C258.661 427.65 258.528 429.858 258.261 432.208C256.528 433.325 254.453 433.883 252.036 433.883C248.82 433.883 246.22 433.325 244.236 432.208C244.02 430.408 243.911 428.667 243.911 426.983C243.911 425.283 244.036 423.233 244.286 420.833H251.011C250.345 424.45 249.995 427.925 249.961 431.258C250.661 431.892 251.67 432.208 252.986 432.208C254.303 432.208 255.311 431.975 256.011 431.508C256.045 430.958 256.061 430.167 256.061 429.133C256.061 426.5 255.828 423.733 255.361 420.833H258.561ZM268.166 420.833V421.508C268.166 425.908 267.891 429.85 267.341 433.333H261.341C261.657 431.8 261.816 430.033 261.816 428.033C261.816 426.017 261.682 423.617 261.416 420.833H268.166ZM280.778 422.358C280.195 422.258 279.628 422.208 279.078 422.208C278.545 422.208 277.895 422.3 277.128 422.483C276.878 423.533 276.753 424.558 276.753 425.558C276.753 428.142 277.903 430.125 280.203 431.508C281.736 430.492 283.12 429.225 284.353 427.708C284.403 428.375 284.445 429.392 284.478 430.758C283.245 431.725 281.986 432.483 280.703 433.033C279.42 433.583 277.82 433.858 275.903 433.858H275.328C273.828 433.208 272.645 432.25 271.778 430.983C270.928 429.717 270.503 428.383 270.503 426.983C270.503 425.117 271.27 423.533 272.803 422.233C274.336 420.917 276.561 420.258 279.478 420.258C281.111 420.258 282.82 420.467 284.603 420.883C284.336 421.933 284.003 422.925 283.603 423.858C282.553 423.958 281.47 424.008 280.353 424.008C280.52 423.542 280.661 422.992 280.778 422.358ZM302.599 433.133V433.333H296.799C296.732 432.383 296.591 431.4 296.374 430.383C295.341 431.433 294.174 432.417 292.874 433.333H287.049C286.932 432.65 286.874 431.75 286.874 430.633C286.874 429.5 287.041 428.367 287.374 427.233C288.574 426.883 289.724 426.292 290.824 425.458C291.941 424.625 292.749 423.725 293.249 422.758C292.799 422.058 292.324 421.417 291.824 420.833H300.124C301.774 424.417 302.599 428.517 302.599 433.133ZM295.924 428.558C295.491 427.075 294.924 425.675 294.224 424.358C293.441 426.658 292.991 428.833 292.874 430.883C294.074 430.267 295.091 429.492 295.924 428.558ZM319.689 420.258C322.906 420.258 325.522 420.658 327.539 421.458C328.256 422.892 328.614 424.342 328.614 425.808C328.614 427.692 327.972 429.325 326.689 430.708C324.822 432.692 322.297 433.683 319.114 433.683C318.014 433.683 316.522 433.558 314.639 433.308C313.989 429.958 313.664 426.867 313.664 424.033C313.664 423.05 313.714 421.983 313.814 420.833C316.497 420.45 318.456 420.258 319.689 420.258ZM320.439 422.133C320.139 425.267 319.989 427.517 319.989 428.883C319.989 430.233 320.014 431.333 320.064 432.183C320.964 431.7 321.664 430.892 322.164 429.758C322.681 428.608 322.939 427.45 322.939 426.283C322.939 425.1 322.722 424.133 322.289 423.383C321.872 422.633 321.256 422.217 320.439 422.133ZM340.133 425.858L342.483 426.008C342.716 426.008 342.891 426 343.008 425.983L341.833 428.183H341.608C341.291 428.183 340.841 428.1 340.258 427.933C339.675 427.75 339.258 427.658 339.008 427.658C338.325 427.658 337.783 428.1 337.383 428.983C337.316 429.8 337.266 430.617 337.233 431.433C338.1 431.6 338.783 431.683 339.283 431.683H339.508C340.225 431.683 340.791 431.525 341.208 431.208C341.641 430.892 341.95 430.325 342.133 429.508L345.133 429.633C344.883 431.067 344.55 432.3 344.133 433.333H331.858C331.525 431.083 331.358 428.85 331.358 426.633C331.358 424.417 331.475 422.483 331.708 420.833H345.108C344.808 422.633 344.541 423.9 344.308 424.633C343.325 424.683 342.425 424.717 341.608 424.733C341.741 424.35 341.808 423.992 341.808 423.658C341.808 422.858 341.208 422.458 340.008 422.458C339.558 422.458 339.058 422.508 338.508 422.608C338.141 424.192 337.858 425.583 337.658 426.783C338.325 426.167 339.15 425.858 340.133 425.858ZM362.121 431.408C362.904 431.592 363.654 431.683 364.371 431.683C365.087 431.683 365.654 431.525 366.071 431.208C366.504 430.875 366.821 430.308 367.021 429.508L370.021 429.608C369.771 431.108 369.437 432.35 369.021 433.333H356.746C356.429 431.2 356.271 428.992 356.271 426.708C356.271 424.425 356.387 422.467 356.621 420.833H363.821C362.721 425.05 362.154 428.575 362.121 431.408ZM387.56 433.133V433.333H381.76C381.693 432.383 381.551 431.4 381.335 430.383C380.301 431.433 379.135 432.417 377.835 433.333H372.01C371.893 432.65 371.835 431.75 371.835 430.633C371.835 429.5 372.001 428.367 372.335 427.233C373.535 426.883 374.685 426.292 375.785 425.458C376.901 424.625 377.71 423.725 378.21 422.758C377.76 422.058 377.285 421.417 376.785 420.833H385.085C386.735 424.417 387.56 428.517 387.56 433.133ZM380.885 428.558C380.451 427.075 379.885 425.675 379.185 424.358C378.401 426.658 377.951 428.833 377.835 430.883C379.035 430.267 380.051 429.492 380.885 428.558ZM187.137 449.483C187.137 449.033 187.071 448.65 186.937 448.333H194.062C194.662 449.933 195.104 451.892 195.387 454.208C195.687 456.525 195.846 458.733 195.862 460.833H190.087C189.971 457.833 189.479 454.942 188.612 452.158C187.162 454.992 186.379 457.883 186.262 460.833H181.362C180.929 457.567 180.096 454.667 178.862 452.133C177.962 454.25 177.512 456.217 177.512 458.033C177.512 459.017 177.629 459.95 177.862 460.833H171.787C171.671 460.15 171.612 459.25 171.612 458.133C171.612 457 171.779 455.867 172.112 454.733C173.296 454.383 174.429 453.808 175.512 453.008C176.612 452.208 177.421 451.333 177.937 450.383C177.504 449.667 177.046 448.983 176.562 448.333H184.462C185.096 450.05 185.571 451.917 185.887 453.933C186.721 452.383 187.137 450.9 187.137 449.483ZM214.256 460.633V460.833H208.456C208.39 459.883 208.248 458.9 208.031 457.883C206.998 458.933 205.831 459.917 204.531 460.833H198.706C198.59 460.15 198.531 459.25 198.531 458.133C198.531 457 198.698 455.867 199.031 454.733C200.231 454.383 201.381 453.792 202.481 452.958C203.598 452.125 204.406 451.225 204.906 450.258C204.456 449.558 203.981 448.917 203.481 448.333H211.781C213.431 451.917 214.256 456.017 214.256 460.633ZM207.581 456.058C207.148 454.575 206.581 453.175 205.881 451.858C205.098 454.158 204.648 456.333 204.531 458.383C205.731 457.767 206.748 456.992 207.581 456.058ZM222.606 447.758C225.823 447.758 228.44 448.158 230.456 448.958C231.173 450.392 231.531 451.842 231.531 453.308C231.531 455.192 230.89 456.825 229.606 458.208C227.74 460.192 225.215 461.183 222.031 461.183C220.931 461.183 219.44 461.058 217.556 460.808C216.906 457.458 216.581 454.367 216.581 451.533C216.581 450.55 216.631 449.483 216.731 448.333C219.415 447.95 221.373 447.758 222.606 447.758ZM223.356 449.633C223.056 452.767 222.906 455.017 222.906 456.383C222.906 457.733 222.931 458.833 222.981 459.683C223.881 459.2 224.581 458.392 225.081 457.258C225.598 456.108 225.856 454.95 225.856 453.783C225.856 452.6 225.64 451.633 225.206 450.883C224.79 450.133 224.173 449.717 223.356 449.633ZM248.226 452.683L248.201 453.533C246.867 454.25 245.201 454.808 243.201 455.208C244.634 455.592 246.017 455.783 247.351 455.783H247.876C248.792 457.133 249.384 458.817 249.651 460.833H243.176C243.009 459.667 242.667 458.667 242.151 457.833C241.651 456.983 241.034 456.408 240.301 456.108C240.284 456.392 240.276 456.958 240.276 457.808C240.276 458.658 240.326 459.667 240.426 460.833H234.976C234.492 458.417 234.251 456.175 234.251 454.108C234.251 452.025 234.367 450.1 234.601 448.333H247.651C248.034 450.017 248.226 451.467 248.226 452.683ZM240.826 450.008C240.626 451.475 240.476 452.917 240.376 454.333C241.292 454.2 242.042 453.875 242.626 453.358C242.309 452.242 241.709 451.125 240.826 450.008ZM258.852 448.333V449.008C258.852 453.408 258.577 457.35 258.027 460.833H252.027C252.344 459.3 252.502 457.533 252.502 455.533C252.502 453.517 252.369 451.117 252.102 448.333H258.852ZM270.639 459.608L270.664 458.558C270.664 457.375 270.564 455.967 270.364 454.333H275.764C275.764 456.7 275.647 458.867 275.414 460.833C272.831 461.2 270.156 461.383 267.389 461.383H265.789C264.272 460.733 263.089 459.783 262.239 458.533C261.389 457.267 260.964 455.925 260.964 454.508C260.964 452.625 261.722 451.033 263.239 449.733C264.772 448.417 267.006 447.758 269.939 447.758C271.472 447.758 273.181 447.967 275.064 448.383C274.781 449.517 274.456 450.517 274.089 451.383C273.072 451.45 271.981 451.5 270.814 451.533C270.997 450.967 271.131 450.408 271.214 449.858C270.681 449.758 270.131 449.708 269.564 449.708C269.014 449.708 268.356 449.8 267.589 449.983C267.322 451.117 267.189 452.142 267.189 453.058C267.189 454.442 267.497 455.742 268.114 456.958C268.747 458.158 269.589 459.042 270.639 459.608ZM293.559 448.333C293.626 449.417 293.659 451 293.659 453.083C293.659 455.15 293.526 457.358 293.259 459.708C291.526 460.825 289.451 461.383 287.034 461.383C283.817 461.383 281.217 460.825 279.234 459.708C279.017 457.908 278.909 456.167 278.909 454.483C278.909 452.783 279.034 450.733 279.284 448.333H286.009C285.342 451.95 284.992 455.425 284.959 458.758C285.659 459.392 286.667 459.708 287.984 459.708C289.301 459.708 290.309 459.475 291.009 459.008C291.042 458.458 291.059 457.667 291.059 456.633C291.059 454 290.826 451.233 290.359 448.333H293.559ZM305.013 453.358L307.363 453.508C307.596 453.508 307.771 453.5 307.888 453.483L306.713 455.683H306.488C306.171 455.683 305.721 455.6 305.138 455.433C304.555 455.25 304.138 455.158 303.888 455.158C303.205 455.158 302.663 455.6 302.263 456.483C302.196 457.3 302.146 458.117 302.113 458.933C302.98 459.1 303.663 459.183 304.163 459.183H304.388C305.105 459.183 305.671 459.025 306.088 458.708C306.521 458.392 306.83 457.825 307.013 457.008L310.013 457.133C309.763 458.567 309.43 459.8 309.013 460.833H296.738C296.405 458.583 296.238 456.35 296.238 454.133C296.238 451.917 296.355 449.983 296.588 448.333H309.988C309.688 450.133 309.421 451.4 309.188 452.133C308.205 452.183 307.305 452.217 306.488 452.233C306.621 451.85 306.688 451.492 306.688 451.158C306.688 450.358 306.088 449.958 304.888 449.958C304.438 449.958 303.938 450.008 303.388 450.108C303.021 451.692 302.738 453.083 302.538 454.283C303.205 453.667 304.03 453.358 305.013 453.358ZM326.961 452.683L326.936 453.533C325.602 454.25 323.936 454.808 321.936 455.208C323.369 455.592 324.752 455.783 326.086 455.783H326.611C327.527 457.133 328.119 458.817 328.386 460.833H321.911C321.744 459.667 321.402 458.667 320.886 457.833C320.386 456.983 319.769 456.408 319.036 456.108C319.019 456.392 319.011 456.958 319.011 457.808C319.011 458.658 319.061 459.667 319.161 460.833H313.711C313.227 458.417 312.986 456.175 312.986 454.108C312.986 452.025 313.102 450.1 313.336 448.333H326.386C326.769 450.017 326.961 451.467 326.961 452.683ZM319.561 450.008C319.361 451.475 319.211 452.917 319.111 454.333C320.027 454.2 320.777 453.875 321.361 453.358C321.044 452.242 320.444 451.125 319.561 450.008ZM346.312 460.633V460.833H340.512C340.446 459.883 340.304 458.9 340.087 457.883C339.054 458.933 337.887 459.917 336.587 460.833H330.762C330.646 460.15 330.587 459.25 330.587 458.133C330.587 457 330.754 455.867 331.087 454.733C332.287 454.383 333.437 453.792 334.537 452.958C335.654 452.125 336.462 451.225 336.962 450.258C336.512 449.558 336.037 448.917 335.537 448.333H343.837C345.487 451.917 346.312 456.017 346.312 460.633ZM339.637 456.058C339.204 454.575 338.637 453.175 337.937 451.858C337.154 454.158 336.704 456.333 336.587 458.383C337.787 457.767 338.804 456.992 339.637 456.058Z" fill="black"/>
</g>
<path d="M487.5 4.1665H12.4998C7.89746 4.1665 4.1665 7.89746 4.1665 12.4998V487.5C4.1665 492.102 7.89746 495.833 12.4998 495.833H487.5C492.102 495.833 495.833 492.102 495.833 487.5V12.4998C495.833 7.89746 492.102 4.1665 487.5 4.1665Z" stroke="#A9AD81" stroke-width="10"/>
</g>
<defs>
<filter id="filter0_d_342_31415" x="161.409" y="21.5122" width="164.34" height="269.404" filterUnits="userSpaceOnUse" color-interpolation-filters="sRGB">
<feFlood flood-opacity="0" result="BackgroundImageFix"/>
<feColorMatrix in="SourceAlpha" type="matrix" values="0 0 0 0 0 0 0 0 0 0 0 0 0 0 0 0 0 0 127 0" result="hardAlpha"/>
<feOffset dy="4"/>
<feGaussianBlur stdDeviation="2"/>
<feComposite in2="hardAlpha" operator="out"/>
<feColorMatrix type="matrix" values="0 0 0 0 0 0 0 0 0 0 0 0 0 0 0 0 0 0 0.25 0"/>
<feBlend mode="normal" in2="BackgroundImageFix" result="effect1_dropShadow_342_31415"/>
<feBlend mode="normal" in="SourceGraphic" in2="effect1_dropShadow_342_31415" result="shape"/>
</filter>
<clipPath id="clip0_342_31415">
<rect width="500" height="500" fill="white"/>
</clipPath>
</defs>
</svg>
