<svg width="500" height="500" viewBox="0 0 500 500" fill="none" xmlns="http://www.w3.org/2000/svg">
<g clip-path="url(#clip0_342_31432)">
<mask id="mask0_342_31432" style="mask-type:luminance" maskUnits="userSpaceOnUse" x="0" y="0" width="500" height="500">
<path d="M487.5 0H12.5C5.59644 0 0 5.59644 0 12.5V487.5C0 494.404 5.59644 500 12.5 500H487.5C494.404 500 500 494.404 500 487.5V12.5C500 5.59644 494.404 0 487.5 0Z" fill="white"/>
</mask>
<g mask="url(#mask0_342_31432)">
<path d="M487.5 0H12.5C5.59644 0 0 5.59644 0 12.5V487.5C0 494.404 5.59644 500 12.5 500H487.5C494.404 500 500 494.404 500 487.5V12.5C500 5.59644 494.404 0 487.5 0Z" fill="#318D4B"/>
<path d="M441.502 127.95H433.637V67.75L439.108 120.425L441.502 67.75L446.289 120.425L449.025 67.75L452.787 127.95H441.502Z" fill="#5FC57C"/>
<path d="M390.891 124.367H383.026V64.1665L388.498 116.842L390.891 64.1665L395.678 116.842L398.414 64.1665L402.176 124.367H390.891Z" fill="#5FC57C"/>
<path d="M496.215 127.233H488.35V67.0332L493.822 119.708L496.215 67.0332L501.003 119.708L503.738 67.0332L507.5 127.233H496.215Z" fill="#5FC57C"/>
<path d="M314.292 126.517H306.427V66.3169L311.898 118.992L314.292 66.3169L319.079 118.992L321.815 66.3169L325.577 126.517H314.292Z" fill="#5FC57C"/>
<path d="M422.352 127.95H414.487V67.75L419.958 120.425L422.352 67.75L427.139 120.425L429.875 67.75L433.637 127.95H422.352Z" fill="#5FC57C"/>
<path d="M371.742 124.367H363.876V64.1665L369.348 116.842L371.742 64.1665L376.529 116.842L379.264 64.1665L383.026 124.367H371.742Z" fill="#5FC57C"/>
<path d="M477.066 127.233H469.201V67.0332L474.672 119.708L477.066 67.0332L481.854 119.708L484.589 67.0332L488.35 127.233H477.066Z" fill="#5FC57C"/>
<path d="M295.143 126.517H287.277V66.3169L292.749 118.992L295.143 66.3169L299.93 118.992L302.665 66.3169L306.427 126.517H295.143Z" fill="#5FC57C"/>
<path d="M403.202 127.95H395.337V67.75L400.809 120.425L403.202 67.75L407.989 120.425L410.725 67.75L414.487 127.95H403.202Z" fill="#5FC57C"/>
<path d="M352.592 124.367H344.727V64.1665L350.198 116.842L352.592 64.1665L357.38 116.842L360.115 64.1665L363.877 124.367H352.592Z" fill="#5FC57C"/>
<path d="M457.916 127.233H450.051V67.0332L455.522 119.708L457.916 67.0332L462.703 119.708L465.438 67.0332L469.2 127.233H457.916Z" fill="#5FC57C"/>
<path d="M275.993 126.517H268.127V66.3169L273.599 118.992L275.993 66.3169L280.78 118.992L283.515 66.3169L287.277 126.517H275.993Z" fill="#5FC57C"/>
<path d="M384.052 127.95H376.187V67.75L381.659 120.425L384.052 67.75L388.839 120.425L391.575 67.75L395.337 127.95H384.052Z" fill="#5FC57C"/>
<path d="M333.442 124.367H325.577V64.1665L331.048 116.842L333.442 64.1665L338.229 116.842L340.965 64.1665L344.727 124.367H333.442Z" fill="#5FC57C"/>
<path d="M438.766 127.233H430.901V67.0332L436.372 119.708L438.766 67.0332L443.553 119.708L446.289 67.0332L450.051 127.233H438.766Z" fill="#5FC57C"/>
<path d="M256.843 126.517H248.978V66.3169L254.448 118.992L256.843 66.3169L261.63 118.992L264.366 66.3169L268.128 126.517H256.843Z" fill="#5FC57C"/>
<path d="M371.741 135.117H363.876V74.9165L369.348 127.592L371.741 74.9165L376.528 127.592L379.264 74.9165L383.026 135.117H371.741Z" fill="#5FC57C"/>
<path d="M321.131 131.533H313.266V71.3335L318.738 124.008L321.131 71.3335L325.919 124.008L328.654 71.3335L332.416 131.533H321.131Z" fill="#5FC57C"/>
<path d="M426.455 134.4H418.59V74.2002L424.062 126.875L426.455 74.2002L431.243 126.875L433.979 74.2002L437.74 134.4H426.455Z" fill="#5FC57C"/>
<path d="M244.532 133.683H236.667V73.4834L242.139 126.158L244.532 73.4834L249.32 126.158L252.055 73.4834L255.817 133.683H244.532Z" fill="#5FC57C"/>
<path d="M393.627 127.95H385.762V67.75L391.233 120.425L393.627 67.75L398.414 120.425L401.15 67.75L404.912 127.95H393.627Z" fill="#5FC57C"/>
<path d="M343.017 124.367H335.152V64.1665L340.623 116.842L343.017 64.1665L347.804 116.842L350.54 64.1665L354.302 124.367H343.017Z" fill="#5FC57C"/>
<path d="M448.341 127.233H440.476V67.0332L445.947 119.708L448.341 67.0332L453.129 119.708L455.864 67.0332L459.626 127.233H448.341Z" fill="#5FC57C"/>
<path d="M266.418 126.517H258.553V66.3169L264.024 118.992L266.418 66.3169L271.205 118.992L273.941 66.3169L277.702 126.517H266.418Z" fill="#5FC57C"/>
<path d="M407.305 127.95H399.44V67.75L404.912 120.425L407.305 67.75L412.092 120.425L414.828 67.75L418.59 127.95H407.305Z" fill="#5FC57C"/>
<path d="M356.695 124.367H348.83V64.1665L354.302 116.842L356.695 64.1665L361.483 116.842L364.218 64.1665L367.98 124.367H356.695Z" fill="#5FC57C"/>
<path d="M462.019 127.233H454.154V67.0332L459.626 119.708L462.019 67.0332L466.807 119.708L469.543 67.0332L473.304 127.233H462.019Z" fill="#5FC57C"/>
<path d="M280.096 126.517H272.231V66.3169L277.702 118.992L280.096 66.3169L284.883 118.992L287.619 66.3169L291.381 126.517H280.096Z" fill="#5FC57C"/>
<path d="M400.466 135.834H392.601V75.6338L398.073 128.309L400.466 75.6338L405.254 128.309L407.989 75.6338L411.751 135.834H400.466Z" fill="#5FC57C"/>
<path d="M349.856 132.25H341.991V72.0498L347.463 124.725L349.856 72.0498L354.644 124.725L357.38 72.0498L361.141 132.25H349.856Z" fill="#5FC57C"/>
<path d="M455.18 135.117H447.315V74.9165L452.786 127.592L455.18 74.9165L459.968 127.592L462.704 74.9165L466.465 135.117H455.18Z" fill="#5FC57C"/>
<path d="M273.257 134.4H265.392V74.2002L270.862 126.875L273.257 74.2002L278.044 126.875L280.78 74.2002L284.542 134.4H273.257Z" fill="#5FC57C"/>
<path d="M422.352 127.95H414.487V67.75L419.958 120.425L422.352 67.75L427.139 120.425L429.875 67.75L433.637 127.95H422.352Z" fill="#5FC57C"/>
<path d="M371.742 124.367H363.876V64.1665L369.348 116.842L371.742 64.1665L376.529 116.842L379.264 64.1665L383.026 124.367H371.742Z" fill="#5FC57C"/>
<path d="M477.066 127.233H469.201V67.0332L474.672 119.708L477.066 67.0332L481.854 119.708L484.589 67.0332L488.35 127.233H477.066Z" fill="#5FC57C"/>
<path d="M295.143 126.517H287.277V66.3169L292.749 118.992L295.143 66.3169L299.93 118.992L302.665 66.3169L306.427 126.517H295.143Z" fill="#5FC57C"/>
<path d="M426.455 135.834H418.59V75.6338L424.062 128.309L426.455 75.6338L431.243 128.309L433.979 75.6338L437.74 135.834H426.455Z" fill="#5FC57C"/>
<path d="M375.845 132.25H367.98V72.0498L373.451 124.725L375.845 72.0498L380.632 124.725L383.368 72.0498L387.129 132.25H375.845Z" fill="#5FC57C"/>
<path d="M481.169 135.117H473.304V74.9165L478.775 127.592L481.169 74.9165L485.957 127.592L488.693 74.9165L492.453 135.117H481.169Z" fill="#5FC57C"/>
<path d="M299.246 134.4H291.381V74.2002L296.852 126.875L299.246 74.2002L304.033 126.875L306.769 74.2002L310.531 134.4H299.246Z" fill="#5FC57C"/>
<path d="M454.002 83.7832H446.137V23.583L451.608 76.258L454.002 23.583L458.789 76.258L461.525 23.583L465.287 83.7832H454.002Z" fill="#5FC57C"/>
<path d="M403.391 80.2H395.526V20L400.998 72.675L403.391 20L408.178 72.675L410.914 20L414.676 80.2H403.391Z" fill="#5FC57C"/>
<path d="M326.792 82.3499H318.927V22.1499L324.398 74.8249L326.792 22.1499L331.579 74.8249L334.315 22.1499L338.077 82.3499H326.792Z" fill="#5FC57C"/>
<path d="M434.852 83.7832H426.987V23.583L432.458 76.258L434.852 23.583L439.639 76.258L442.375 23.583L446.137 83.7832H434.852Z" fill="#5FC57C"/>
<path d="M384.242 80.2H376.376V20L381.848 72.675L384.242 20L389.029 72.675L391.764 20L395.526 80.2H384.242Z" fill="#5FC57C"/>
<path d="M489.566 83.0667H481.701V22.8667L487.172 75.5417L489.566 22.8667L494.354 75.5417L497.089 22.8667L500.85 83.0667H489.566Z" fill="#5FC57C"/>
<path d="M307.643 82.3499H299.777V22.1499L305.249 74.8249L307.643 22.1499L312.43 74.8249L315.165 22.1499L318.927 82.3499H307.643Z" fill="#5FC57C"/>
<path d="M415.702 83.7832H407.837V23.583L413.309 76.258L415.702 23.583L420.489 76.258L423.225 23.583L426.987 83.7832H415.702Z" fill="#5FC57C"/>
<path d="M365.092 80.2H357.227V20L362.698 72.675L365.092 20L369.88 72.675L372.615 20L376.377 80.2H365.092Z" fill="#5FC57C"/>
<path d="M470.416 83.0667H462.551V22.8667L468.022 75.5417L470.416 22.8667L475.203 75.5417L477.938 22.8667L481.7 83.0667H470.416Z" fill="#5FC57C"/>
<path d="M288.493 82.3499H280.627V22.1499L286.099 74.8249L288.493 22.1499L293.28 74.8249L296.015 22.1499L299.777 82.3499H288.493Z" fill="#5FC57C"/>
<path d="M396.552 83.7832H388.687V23.583L394.159 76.258L396.552 23.583L401.339 76.258L404.075 23.583L407.837 83.7832H396.552Z" fill="#5FC57C"/>
<path d="M345.942 80.2H338.077V20L343.548 72.675L345.942 20L350.729 72.675L353.465 20L357.227 80.2H345.942Z" fill="#5FC57C"/>
<path d="M451.266 83.0667H443.401V22.8667L448.872 75.5417L451.266 22.8667L456.053 75.5417L458.789 22.8667L462.551 83.0667H451.266Z" fill="#5FC57C"/>
<path d="M269.343 82.3499H261.478V22.1499L266.948 74.8249L269.343 22.1499L274.13 74.8249L276.866 22.1499L280.628 82.3499H269.343Z" fill="#5FC57C"/>
<path d="M384.241 90.9501H376.376V30.75L381.848 83.4251L384.241 30.75L389.028 83.4251L391.764 30.75L395.526 90.9501H384.241Z" fill="#5FC57C"/>
<path d="M333.631 87.3669H325.766V27.167L331.238 79.842L333.631 27.167L338.419 79.842L341.154 27.167L344.916 87.3669H333.631Z" fill="#5FC57C"/>
<path d="M438.955 90.2332H431.09V30.0332L436.562 82.7082L438.955 30.0332L443.743 82.7082L446.479 30.0332L450.24 90.2332H438.955Z" fill="#5FC57C"/>
<path d="M257.032 89.5167H249.167V29.3169L254.639 81.9919L257.032 29.3169L261.82 81.9919L264.555 29.3169L268.317 89.5167H257.032Z" fill="#5FC57C"/>
<path d="M406.127 83.7832H398.262V23.583L403.733 76.258L406.127 23.583L410.914 76.258L413.65 23.583L417.412 83.7832H406.127Z" fill="#5FC57C"/>
<path d="M355.517 80.2H347.652V20L353.123 72.675L355.517 20L360.304 72.675L363.04 20L366.802 80.2H355.517Z" fill="#5FC57C"/>
<path d="M460.841 83.0667H452.976V22.8667L458.447 75.5417L460.841 22.8667L465.629 75.5417L468.364 22.8667L472.126 83.0667H460.841Z" fill="#5FC57C"/>
<path d="M278.918 82.3499H271.053V22.1499L276.524 74.8249L278.918 22.1499L283.705 74.8249L286.441 22.1499L290.202 82.3499H278.918Z" fill="#5FC57C"/>
<path d="M419.805 83.7832H411.94V23.583L417.412 76.258L419.805 23.583L424.592 76.258L427.328 23.583L431.09 83.7832H419.805Z" fill="#5FC57C"/>
<path d="M369.195 80.2H361.33V20L366.802 72.675L369.195 20L373.983 72.675L376.718 20L380.48 80.2H369.195Z" fill="#5FC57C"/>
<path d="M474.519 83.0667H466.654V22.8667L472.126 75.5417L474.519 22.8667L479.307 75.5417L482.043 22.8667L485.804 83.0667H474.519Z" fill="#5FC57C"/>
<path d="M292.596 82.3499H284.731V22.1499L290.202 74.8249L292.596 22.1499L297.383 74.8249L300.119 22.1499L303.881 82.3499H292.596Z" fill="#5FC57C"/>
<path d="M412.966 91.6665H405.101V31.4668L410.573 84.1415L412.966 31.4668L417.754 84.1415L420.489 31.4668L424.251 91.6665H412.966Z" fill="#5FC57C"/>
<path d="M362.356 88.0833H354.491V27.8833L359.963 80.5583L362.356 27.8833L367.144 80.5583L369.88 27.8833L373.641 88.0833H362.356Z" fill="#5FC57C"/>
<path d="M467.68 90.9501H459.815V30.75L465.286 83.4251L467.68 30.75L472.468 83.4251L475.204 30.75L478.965 90.9501H467.68Z" fill="#5FC57C"/>
<path d="M285.757 90.2332H277.892V30.0332L283.362 82.7082L285.757 30.0332L290.544 82.7082L293.28 30.0332L297.042 90.2332H285.757Z" fill="#5FC57C"/>
<path d="M434.852 83.7832H426.987V23.583L432.458 76.258L434.852 23.583L439.639 76.258L442.375 23.583L446.137 83.7832H434.852Z" fill="#5FC57C"/>
<path d="M384.242 80.2H376.376V20L381.848 72.675L384.242 20L389.029 72.675L391.764 20L395.526 80.2H384.242Z" fill="#5FC57C"/>
<path d="M489.566 83.0667H481.701V22.8667L487.172 75.5417L489.566 22.8667L494.354 75.5417L497.089 22.8667L500.85 83.0667H489.566Z" fill="#5FC57C"/>
<path d="M307.643 82.3499H299.777V22.1499L305.249 74.8249L307.643 22.1499L312.43 74.8249L315.165 22.1499L318.927 82.3499H307.643Z" fill="#5FC57C"/>
<path d="M438.955 91.6665H431.09V31.4668L436.562 84.1415L438.955 31.4668L443.743 84.1415L446.479 31.4668L450.24 91.6665H438.955Z" fill="#5FC57C"/>
<path d="M388.345 88.0833H380.48V27.8833L385.951 80.5583L388.345 27.8833L393.132 80.5583L395.868 27.8833L399.629 88.0833H388.345Z" fill="#5FC57C"/>
<path d="M493.669 90.9501H485.804V30.75L491.275 83.4251L493.669 30.75L498.457 83.4251L501.193 30.75L504.953 90.9501H493.669Z" fill="#5FC57C"/>
<path d="M311.746 90.2332H303.881V30.0332L309.352 82.7082L311.746 30.0332L316.533 82.7082L319.269 30.0332L323.031 90.2332H311.746Z" fill="#5FC57C"/>
<path d="M450.669 152.3H442.804V93.5L448.275 144.95L450.669 93.5L455.456 144.95L458.192 93.5L461.954 152.3H450.669Z" fill="#5FC57C"/>
<path d="M400.058 148.8H392.193V90L397.665 141.45L400.058 90L404.845 141.45L407.581 90L411.343 148.8H400.058Z" fill="#5FC57C"/>
<path d="M505.382 151.6H497.517V92.7998L502.988 144.25L505.382 92.7998L510.169 144.25L512.905 92.7998L516.667 151.6H505.382Z" fill="#5FC57C"/>
<path d="M323.459 150.9H315.594V92.1001L321.065 143.55L323.459 92.1001L328.246 143.55L330.982 92.1001L334.744 150.9H323.459Z" fill="#5FC57C"/>
<path d="M431.518 152.3H423.653V93.5L429.124 144.95L431.518 93.5L436.306 144.95L439.042 93.5L442.803 152.3H431.518Z" fill="#5FC57C"/>
<path d="M380.908 148.8H373.042V90L378.514 141.45L380.908 90L385.696 141.45L388.431 90L392.192 148.8H380.908Z" fill="#5FC57C"/>
<path d="M486.233 151.6H478.368V92.7998L483.839 144.25L486.233 92.7998L491.02 144.25L493.755 92.7998L497.517 151.6H486.233Z" fill="#5FC57C"/>
<path d="M304.309 150.9H296.443V92.1001L301.915 143.55L304.309 92.1001L309.097 143.55L311.832 92.1001L315.593 150.9H304.309Z" fill="#5FC57C"/>
<path d="M412.368 152.3H404.503V93.5L409.975 144.95L412.368 93.5L417.156 144.95L419.892 93.5L423.653 152.3H412.368Z" fill="#5FC57C"/>
<path d="M361.759 148.8H353.894V90L359.364 141.45L361.759 90L366.546 141.45L369.282 90L373.044 148.8H361.759Z" fill="#5FC57C"/>
<path d="M467.083 151.6H459.218V92.7998L464.689 144.25L467.083 92.7998L471.87 144.25L474.605 92.7998L478.367 151.6H467.083Z" fill="#5FC57C"/>
<path d="M285.159 150.9H277.293V92.1001L282.765 143.55L285.159 92.1001L289.947 143.55L292.682 92.1001L296.443 150.9H285.159Z" fill="#5FC57C"/>
<path d="M393.219 152.3H385.354V93.5L390.825 144.95L393.219 93.5L398.006 144.95L400.742 93.5L404.504 152.3H393.219Z" fill="#5FC57C"/>
<path d="M342.609 148.8H334.744V90L340.215 141.45L342.609 90L347.396 141.45L350.132 90L353.894 148.8H342.609Z" fill="#5FC57C"/>
<path d="M447.933 151.6H440.068V92.7998L445.539 144.25L447.933 92.7998L452.72 144.25L455.456 92.7998L459.218 151.6H447.933Z" fill="#5FC57C"/>
<path d="M266.01 150.9H258.145V92.1001L263.615 143.55L266.01 92.1001L270.797 143.55L273.533 92.1001L277.295 150.9H266.01Z" fill="#5FC57C"/>
<path d="M380.907 159.3H373.042V100.5L378.514 151.95L380.907 100.5L385.695 151.95L388.431 100.5L392.192 159.3H380.907Z" fill="#5FC57C"/>
<path d="M330.298 155.8H322.433V97L327.904 148.45L330.298 97L335.085 148.45L337.821 97L341.583 155.8H330.298Z" fill="#5FC57C"/>
<path d="M435.622 158.6H427.757V99.7998L433.229 151.25L435.622 99.7998L440.409 151.25L443.145 99.7998L446.907 158.6H435.622Z" fill="#5FC57C"/>
<path d="M253.698 157.9H245.833V99.1001L251.305 150.55L253.698 99.1001L258.486 150.55L261.222 99.1001L264.984 157.9H253.698Z" fill="#5FC57C"/>
<path d="M402.794 152.3H394.929V93.5L400.4 144.95L402.794 93.5L407.581 144.95L410.317 93.5L414.079 152.3H402.794Z" fill="#5FC57C"/>
<path d="M352.183 148.8H344.318V90L349.789 141.45L352.183 90L356.971 141.45L359.707 90L363.468 148.8H352.183Z" fill="#5FC57C"/>
<path d="M457.508 151.6H449.643V92.7998L455.113 144.25L457.508 92.7998L462.295 144.25L465.031 92.7998L468.793 151.6H457.508Z" fill="#5FC57C"/>
<path d="M275.584 150.9H267.719V92.1001L273.19 143.55L275.584 92.1001L280.372 143.55L283.108 92.1001L286.868 150.9H275.584Z" fill="#5FC57C"/>
<path d="M416.472 152.3H408.607V93.5L414.079 144.95L416.472 93.5L421.259 144.95L423.995 93.5L427.757 152.3H416.472Z" fill="#5FC57C"/>
<path d="M365.862 148.8H357.997V90L363.469 141.45L365.862 90L370.65 141.45L373.385 90L377.147 148.8H365.862Z" fill="#5FC57C"/>
<path d="M471.186 151.6H463.321V92.7998L468.793 144.25L471.186 92.7998L475.973 144.25L478.709 92.7998L482.471 151.6H471.186Z" fill="#5FC57C"/>
<path d="M289.262 150.9H281.397V92.1001L286.868 143.55L289.262 92.1001L294.05 143.55L296.786 92.1001L300.547 150.9H289.262Z" fill="#5FC57C"/>
<path d="M409.633 160H401.768V101.2L407.239 152.65L409.633 101.2L414.42 152.65L417.156 101.2L420.918 160H409.633Z" fill="#5FC57C"/>
<path d="M359.023 156.5H351.158V97.7002L356.629 149.15L359.023 97.7002L363.81 149.15L366.546 97.7002L370.308 156.5H359.023Z" fill="#5FC57C"/>
<path d="M464.347 159.3H456.482V100.5L461.953 151.95L464.347 100.5L469.134 151.95L471.87 100.5L475.632 159.3H464.347Z" fill="#5FC57C"/>
<path d="M282.424 158.6H274.559V99.7998L280.029 151.25L282.424 99.7998L287.211 151.25L289.947 99.7998L293.709 158.6H282.424Z" fill="#5FC57C"/>
<path d="M431.518 152.3H423.653V93.5L429.124 144.95L431.518 93.5L436.306 144.95L439.042 93.5L442.803 152.3H431.518Z" fill="#5FC57C"/>
<path d="M380.908 148.8H373.042V90L378.514 141.45L380.908 90L385.696 141.45L388.431 90L392.192 148.8H380.908Z" fill="#5FC57C"/>
<path d="M486.233 151.6H478.368V92.7998L483.839 144.25L486.233 92.7998L491.02 144.25L493.755 92.7998L497.517 151.6H486.233Z" fill="#5FC57C"/>
<path d="M304.309 150.9H296.443V92.1001L301.915 143.55L304.309 92.1001L309.097 143.55L311.832 92.1001L315.593 150.9H304.309Z" fill="#5FC57C"/>
<path d="M435.622 160H427.757V101.2L433.229 152.65L435.622 101.2L440.409 152.65L443.145 101.2L446.907 160H435.622Z" fill="#5FC57C"/>
<path d="M385.012 156.5H377.147V97.7002L382.618 149.15L385.012 97.7002L389.799 149.15L392.535 97.7002L396.296 156.5H385.012Z" fill="#5FC57C"/>
<path d="M490.336 159.3H482.471V100.5L487.942 151.95L490.336 100.5L495.124 151.95L497.86 100.5L501.62 159.3H490.336Z" fill="#5FC57C"/>
<path d="M308.413 158.6H300.548V99.7998L306.019 151.25L308.413 99.7998L313.2 151.25L315.936 99.7998L319.698 158.6H308.413Z" fill="#5FC57C"/>
<path d="M454.835 176.441H446.97V136.542L452.441 171.454L454.835 136.542L459.623 171.454L462.359 136.542L466.12 176.441H454.835Z" fill="#5FC57C"/>
<path d="M404.224 174.067H396.359V134.167L401.831 169.079L404.224 134.167L409.012 169.079L411.748 134.167L415.509 174.067H404.224Z" fill="#5FC57C"/>
<path d="M327.625 175.492H319.76V135.592L325.232 170.504L327.625 135.592L332.413 170.504L335.149 135.592L338.91 175.492H327.625Z" fill="#5FC57C"/>
<path d="M435.685 176.441H427.82V136.542L433.291 171.454L435.685 136.542L440.473 171.454L443.209 136.542L446.97 176.441H435.685Z" fill="#5FC57C"/>
<path d="M385.075 174.067H377.209V134.167L382.681 169.079L385.075 134.167L389.863 169.079L392.598 134.167L396.359 174.067H385.075Z" fill="#5FC57C"/>
<path d="M490.399 175.966H482.534V136.066L488.005 170.979L490.399 136.066L495.187 170.979L497.922 136.066L501.683 175.966H490.399Z" fill="#5FC57C"/>
<path d="M308.476 175.492H300.61V135.592L306.082 170.504L308.476 135.592L313.264 170.504L315.999 135.592L319.76 175.492H308.476Z" fill="#5FC57C"/>
<path d="M416.535 176.441H408.67V136.542L414.142 171.454L416.535 136.542L421.322 171.454L424.058 136.542L427.82 176.441H416.535Z" fill="#5FC57C"/>
<path d="M365.925 174.067H358.06V134.167L363.531 169.079L365.925 134.167L370.713 169.079L373.448 134.167L377.21 174.067H365.925Z" fill="#5FC57C"/>
<path d="M471.249 175.966H463.384V136.066L468.855 170.979L471.249 136.066L476.037 170.979L478.772 136.066L482.533 175.966H471.249Z" fill="#5FC57C"/>
<path d="M289.326 175.492H281.46V135.592L286.932 170.504L289.326 135.592L294.113 170.504L296.848 135.592L300.61 175.492H289.326Z" fill="#5FC57C"/>
<path d="M397.385 176.441H389.52V136.542L394.992 171.454L397.385 136.542L402.173 171.454L404.908 136.542L408.67 176.441H397.385Z" fill="#5FC57C"/>
<path d="M346.775 174.067H338.91V134.167L344.382 169.079L346.775 134.167L351.563 169.079L354.298 134.167L358.06 174.067H346.775Z" fill="#5FC57C"/>
<path d="M452.099 175.966H444.234V136.066L449.705 170.979L452.099 136.066L456.887 170.979L459.623 136.066L463.384 175.966H452.099Z" fill="#5FC57C"/>
<path d="M270.176 175.492H262.311V135.592L267.782 170.504L270.176 135.592L274.964 170.504L277.699 135.592L281.461 175.492H270.176Z" fill="#5FC57C"/>
<path d="M385.074 181.191H377.209V141.292L382.681 176.204L385.074 141.292L389.862 176.204L392.598 141.292L396.359 181.191H385.074Z" fill="#5FC57C"/>
<path d="M334.464 178.817H326.599V138.917L332.071 173.829L334.464 138.917L339.252 173.829L341.987 138.917L345.749 178.817H334.464Z" fill="#5FC57C"/>
<path d="M439.788 180.716H431.923V140.816L437.395 175.729L439.788 140.816L444.576 175.729L447.312 140.816L451.073 180.716H439.788Z" fill="#5FC57C"/>
<path d="M257.865 180.242H250V140.342L255.472 175.254L257.865 140.342L262.653 175.254L265.388 140.342L269.15 180.242H257.865Z" fill="#5FC57C"/>
<path d="M406.96 176.441H399.095V136.542L404.567 171.454L406.96 136.542L411.748 171.454L414.484 136.542L418.245 176.441H406.96Z" fill="#5FC57C"/>
<path d="M356.35 174.067H348.485V134.167L353.956 169.079L356.35 134.167L361.138 169.079L363.874 134.167L367.635 174.067H356.35Z" fill="#5FC57C"/>
<path d="M461.675 175.966H453.81V136.066L459.28 170.979L461.675 136.066L466.462 170.979L469.198 136.066L472.96 175.966H461.675Z" fill="#5FC57C"/>
<path d="M279.751 175.492H271.886V135.592L277.357 170.504L279.751 135.592L284.538 170.504L287.274 135.592L291.035 175.492H279.751Z" fill="#5FC57C"/>
<path d="M420.638 176.441H412.773V136.542L418.245 171.454L420.638 136.542L425.426 171.454L428.162 136.542L431.923 176.441H420.638Z" fill="#5FC57C"/>
<path d="M370.029 174.067H362.164V134.167L367.635 169.079L370.029 134.167L374.816 169.079L377.552 134.167L381.314 174.067H370.029Z" fill="#5FC57C"/>
<path d="M475.353 175.966H467.488V136.066L472.959 170.979L475.353 136.066L480.14 170.979L482.876 136.066L486.638 175.966H475.353Z" fill="#5FC57C"/>
<path d="M293.429 175.492H285.564V135.592L291.035 170.504L293.429 135.592L298.217 170.504L300.953 135.592L304.714 175.492H293.429Z" fill="#5FC57C"/>
<path d="M413.799 181.667H405.934V141.767L411.406 176.679L413.799 141.767L418.587 176.679L421.322 141.767L425.084 181.667H413.799Z" fill="#5FC57C"/>
<path d="M363.189 179.292H355.324V139.392L360.796 174.304L363.189 139.392L367.977 174.304L370.713 139.392L374.474 179.292H363.189Z" fill="#5FC57C"/>
<path d="M468.513 181.191H460.648V141.292L466.119 176.204L468.513 141.292L473.301 176.204L476.037 141.292L479.798 181.191H468.513Z" fill="#5FC57C"/>
<path d="M286.59 180.716H278.725V140.816L284.196 175.729L286.59 140.816L291.378 175.729L294.113 140.816L297.875 180.716H286.59Z" fill="#5FC57C"/>
<path d="M435.685 176.441H427.82V136.542L433.291 171.454L435.685 136.542L440.473 171.454L443.209 136.542L446.97 176.441H435.685Z" fill="#5FC57C"/>
<path d="M385.075 174.067H377.209V134.167L382.681 169.079L385.075 134.167L389.863 169.079L392.598 134.167L396.359 174.067H385.075Z" fill="#5FC57C"/>
<path d="M490.399 175.966H482.534V136.066L488.005 170.979L490.399 136.066L495.187 170.979L497.922 136.066L501.683 175.966H490.399Z" fill="#5FC57C"/>
<path d="M308.476 175.492H300.61V135.592L306.082 170.504L308.476 135.592L313.264 170.504L315.999 135.592L319.76 175.492H308.476Z" fill="#5FC57C"/>
<path d="M439.788 181.667H431.923V141.767L437.395 176.679L439.788 141.767L444.576 176.679L447.312 141.767L451.073 181.667H439.788Z" fill="#5FC57C"/>
<path d="M389.178 179.292H381.313V139.392L386.784 174.304L389.178 139.392L393.966 174.304L396.702 139.392L400.463 179.292H389.178Z" fill="#5FC57C"/>
<path d="M494.503 181.191H486.638V141.292L492.109 176.204L494.503 141.292L499.29 176.204L502.026 141.292L505.787 181.191H494.503Z" fill="#5FC57C"/>
<path d="M312.579 180.716H304.714V140.816L310.185 175.729L312.579 140.816L317.367 175.729L320.103 140.816L323.864 180.716H312.579Z" fill="#5FC57C"/>
<path d="M376.029 500.609H360.758V460.708L371.381 495.621L376.029 460.708L385.324 495.621L390.635 460.708L397.939 500.609H376.029Z" fill="#5FC57C"/>
<path d="M277.766 498.234H262.496V458.333L273.119 493.246L277.766 458.333L287.062 493.246L292.373 458.333L299.676 498.234H277.766Z" fill="#5FC57C"/>
<path d="M482.258 500.133H466.987V460.233L477.61 495.146L482.258 460.233L491.553 495.146L496.864 460.233L504.167 500.133H482.258Z" fill="#5FC57C"/>
<path d="M129.046 499.658H113.775V459.758L124.399 494.671L129.046 459.758L138.341 494.671L143.653 459.758L150.956 499.658H129.046Z" fill="#5FC57C"/>
<path d="M338.848 500.609H323.578V460.708L334.2 495.621L338.848 460.708L348.143 495.621L353.454 460.708L360.758 500.609H338.848Z" fill="#5FC57C"/>
<path d="M240.586 498.234H225.316V458.333L235.938 493.246L240.586 458.333L249.881 493.246L255.193 458.333L262.496 498.234H240.586Z" fill="#5FC57C"/>
<path d="M445.077 500.133H429.807V460.233L440.429 495.146L445.077 460.233L454.372 495.146L459.683 460.233L466.987 500.133H445.077Z" fill="#5FC57C"/>
<path d="M91.8658 499.658H76.5952V459.758L87.2183 494.671L91.8658 459.758L101.161 494.671L106.472 459.758L113.775 499.658H91.8658Z" fill="#5FC57C"/>
<path d="M301.667 500.609H286.397V460.708L297.02 495.621L301.667 460.708L310.962 495.621L316.274 460.708L323.577 500.609H301.667Z" fill="#5FC57C"/>
<path d="M203.406 498.234H188.135V458.333L198.759 493.246L203.406 458.333L212.701 493.246L218.013 458.333L225.316 498.234H203.406Z" fill="#5FC57C"/>
<path d="M407.897 500.133H392.626V460.233L403.249 495.146L407.897 460.233L417.192 495.146L422.503 460.233L429.807 500.133H407.897Z" fill="#5FC57C"/>
<path d="M54.6854 499.658H39.415V459.758L50.0379 494.671L54.6854 459.758L63.9805 494.671L69.2919 459.758L76.5951 499.658H54.6854Z" fill="#5FC57C"/>
<path d="M264.488 500.609H249.218V460.708L259.84 495.621L264.488 460.708L273.783 495.621L279.094 460.708L286.398 500.609H264.488Z" fill="#5FC57C"/>
<path d="M166.226 498.234H150.955V458.333L161.578 493.246L166.226 458.333L175.521 493.246L180.833 458.333L188.136 498.234H166.226Z" fill="#5FC57C"/>
<path d="M370.717 500.133H355.446V460.233L366.069 495.146L370.717 460.233L380.012 495.146L385.323 460.233L392.627 500.133H370.717Z" fill="#5FC57C"/>
<path d="M17.5053 499.658H2.23486V459.758L12.8577 494.671L17.5053 459.758L26.8003 494.671L32.1117 459.758L39.415 499.658H17.5053Z" fill="#5FC57C"/>
<path d="M240.586 505.359H225.316V465.458L235.938 500.371L240.586 465.458L249.881 500.371L255.193 465.458L262.496 505.359H240.586Z" fill="#5FC57C"/>
<path d="M142.324 502.984H127.054V463.083L137.677 497.996L142.324 463.083L151.619 497.996L156.931 463.083L164.234 502.984H142.324Z" fill="#5FC57C"/>
<path d="M346.815 504.883H331.545V464.983L342.167 499.896L346.815 464.983L356.11 499.896L361.422 464.983L368.725 504.883H346.815Z" fill="#5FC57C"/>
<path d="M-6.39609 504.408H-21.6665V464.508L-11.0436 499.421L-6.39609 464.508L2.89894 499.421L8.21039 464.508L15.5137 504.408H-6.39609Z" fill="#5FC57C"/>
<path d="M283.078 500.609H267.808V460.708L278.43 495.621L283.078 460.708L292.373 495.621L297.684 460.708L304.988 500.609H283.078Z" fill="#5FC57C"/>
<path d="M184.816 498.234H169.546V458.333L180.168 493.246L184.816 458.333L194.111 493.246L199.423 458.333L206.726 498.234H184.816Z" fill="#5FC57C"/>
<path d="M389.307 500.133H374.037V460.233L384.659 495.146L389.307 460.233L398.602 495.146L403.913 460.233L411.217 500.133H389.307Z" fill="#5FC57C"/>
<path d="M36.0956 499.658H20.8252V459.758L31.4481 494.671L36.0956 459.758L45.3906 494.671L50.7021 459.758L58.0054 499.658H36.0956Z" fill="#5FC57C"/>
<path d="M309.635 500.609H294.364V460.708L304.988 495.621L309.635 460.708L318.93 495.621L324.241 460.708L331.544 500.609H309.635Z" fill="#5FC57C"/>
<path d="M211.373 498.234H196.103V458.333L206.726 493.246L211.373 458.333L220.668 493.246L225.98 458.333L233.283 498.234H211.373Z" fill="#5FC57C"/>
<path d="M415.865 500.133H400.594V460.233L411.217 495.146L415.865 460.233L425.16 495.146L430.47 460.233L437.774 500.133H415.865Z" fill="#5FC57C"/>
<path d="M62.6527 499.658H47.3823V459.758L58.0052 494.671L62.6527 459.758L71.9478 494.671L77.2592 459.758L84.5627 499.658H62.6527Z" fill="#5FC57C"/>
<path d="M296.356 505.834H281.086V465.934L291.708 500.846L296.356 465.934L305.651 500.846L310.963 465.934L318.266 505.834H296.356Z" fill="#5FC57C"/>
<path d="M198.094 503.459H182.824V463.559L193.447 498.471L198.094 463.559L207.389 498.471L212.701 463.559L220.004 503.459H198.094Z" fill="#5FC57C"/>
<path d="M402.585 505.359H387.315V465.458L397.938 500.371L402.585 465.458L411.88 500.371L417.192 465.458L424.495 505.359H402.585Z" fill="#5FC57C"/>
<path d="M49.3739 504.883H34.1035V464.983L44.7264 499.896L49.3739 464.983L58.669 499.896L63.9804 464.983L71.2837 504.883H49.3739Z" fill="#5FC57C"/>
<path d="M338.848 500.609H323.578V460.708L334.2 495.621L338.848 460.708L348.143 495.621L353.454 460.708L360.758 500.609H338.848Z" fill="#5FC57C"/>
<path d="M240.586 498.234H225.316V458.333L235.938 493.246L240.586 458.333L249.881 493.246L255.193 458.333L262.496 498.234H240.586Z" fill="#5FC57C"/>
<path d="M445.077 500.133H429.807V460.233L440.429 495.146L445.077 460.233L454.372 495.146L459.683 460.233L466.987 500.133H445.077Z" fill="#5FC57C"/>
<path d="M91.8658 499.658H76.5952V459.758L87.2183 494.671L91.8658 459.758L101.161 494.671L106.472 459.758L113.775 499.658H91.8658Z" fill="#5FC57C"/>
<path d="M346.815 505.834H331.545V465.934L342.167 500.846L346.815 465.934L356.11 500.846L361.422 465.934L368.725 505.834H346.815Z" fill="#5FC57C"/>
<path d="M248.554 503.459H233.283V463.559L243.906 498.471L248.554 463.559L257.849 498.471L263.159 463.559L270.463 503.459H248.554Z" fill="#5FC57C"/>
<path d="M453.044 505.359H437.773V465.458L448.397 500.371L453.044 465.458L462.339 500.371L467.65 465.458L474.953 505.359H453.044Z" fill="#5FC57C"/>
<path d="M99.8333 504.883H84.5625V464.983L95.1858 499.896L99.8333 464.983L109.128 499.896L114.439 464.983L121.743 504.883H99.8333Z" fill="#5FC57C"/>
<path d="M379.362 489.775H364.091V449.875L374.714 484.788L379.362 449.875L388.657 484.788L393.968 449.875L401.272 489.775H379.362Z" fill="#5FC57C"/>
<path d="M281.099 487.4H265.829V447.5L276.452 482.413L281.099 447.5L290.395 482.413L295.706 447.5L303.009 487.4H281.099Z" fill="#5FC57C"/>
<path d="M485.591 489.3H470.32V449.4L480.944 484.312L485.591 449.4L494.886 484.312L500.197 449.4L507.5 489.3H485.591Z" fill="#5FC57C"/>
<path d="M132.379 488.825H117.108V448.925L127.732 483.837L132.379 448.925L141.674 483.837L146.986 448.925L154.289 488.825H132.379Z" fill="#5FC57C"/>
<path d="M342.181 489.775H326.911V449.875L337.534 484.788L342.181 449.875L351.476 484.788L356.788 449.875L364.091 489.775H342.181Z" fill="#5FC57C"/>
<path d="M243.919 487.4H228.649V447.5L239.272 482.413L243.919 447.5L253.214 482.413L258.526 447.5L265.829 487.4H243.919Z" fill="#5FC57C"/>
<path d="M448.41 489.3H433.14V449.4L443.763 484.312L448.41 449.4L457.705 484.312L463.017 449.4L470.32 489.3H448.41Z" fill="#5FC57C"/>
<path d="M95.1993 488.825H79.9287V448.925L90.5518 483.837L95.1993 448.925L104.494 483.837L109.806 448.925L117.108 488.825H95.1993Z" fill="#5FC57C"/>
<path d="M305.001 489.775H289.731V449.875L300.353 484.788L305.001 449.875L314.296 484.788L319.608 449.875L326.911 489.775H305.001Z" fill="#5FC57C"/>
<path d="M206.739 487.4H191.468V447.5L202.092 482.413L206.739 447.5L216.034 482.413L221.346 447.5L228.649 487.4H206.739Z" fill="#5FC57C"/>
<path d="M411.23 489.3H395.959V449.4L406.583 484.312L411.23 449.4L420.525 484.312L425.837 449.4L433.14 489.3H411.23Z" fill="#5FC57C"/>
<path d="M58.0189 488.825H42.7485V448.925L53.3714 483.837L58.0189 448.925L67.314 483.837L72.6254 448.925L79.9286 488.825H58.0189Z" fill="#5FC57C"/>
<path d="M267.821 489.775H252.551V449.875L263.173 484.788L267.821 449.875L277.116 484.788L282.427 449.875L289.731 489.775H267.821Z" fill="#5FC57C"/>
<path d="M169.559 487.4H154.289V447.5L164.912 482.413L169.559 447.5L178.854 482.413L184.166 447.5L191.469 487.4H169.559Z" fill="#5FC57C"/>
<path d="M374.05 489.3H358.779V449.4L369.403 484.312L374.05 449.4L383.345 484.312L388.657 449.4L395.96 489.3H374.05Z" fill="#5FC57C"/>
<path d="M20.8388 488.825H5.56836V448.925L16.1912 483.837L20.8388 448.925L30.1338 483.837L35.4452 448.925L42.7485 488.825H20.8388Z" fill="#5FC57C"/>
<path d="M243.919 494.525H228.649V454.625L239.272 489.538L243.919 454.625L253.214 489.538L258.526 454.625L265.829 494.525H243.919Z" fill="#5FC57C"/>
<path d="M145.658 492.15H130.388V452.25L141.01 487.162L145.658 452.25L154.953 487.162L160.264 452.25L167.568 492.15H145.658Z" fill="#5FC57C"/>
<path d="M350.148 494.05H334.878V454.15L345.501 489.062L350.148 454.15L359.443 489.062L364.755 454.15L372.058 494.05H350.148Z" fill="#5FC57C"/>
<path d="M-3.06259 493.575H-18.333V453.675L-7.71012 488.587L-3.06259 453.675L6.23244 488.587L11.5439 453.675L18.8472 493.575H-3.06259Z" fill="#5FC57C"/>
<path d="M286.411 489.775H271.141V449.875L281.764 484.788L286.411 449.875L295.706 484.788L301.018 449.875L308.321 489.775H286.411Z" fill="#5FC57C"/>
<path d="M188.149 487.4H172.879V447.5L183.502 482.413L188.149 447.5L197.444 482.413L202.756 447.5L210.059 487.4H188.149Z" fill="#5FC57C"/>
<path d="M392.64 489.3H377.37V449.4L387.993 484.312L392.64 449.4L401.935 484.312L407.247 449.4L414.55 489.3H392.64Z" fill="#5FC57C"/>
<path d="M39.4291 488.825H24.1587V448.925L34.7816 483.837L39.4291 448.925L48.7241 483.837L54.0356 448.925L61.3389 488.825H39.4291Z" fill="#5FC57C"/>
<path d="M312.969 489.775H297.698V449.875L308.321 484.788L312.969 449.875L322.264 484.788L327.574 449.875L334.878 489.775H312.969Z" fill="#5FC57C"/>
<path d="M214.707 487.4H199.436V447.5L210.059 482.413L214.707 447.5L224.002 482.413L229.314 447.5L236.616 487.4H214.707Z" fill="#5FC57C"/>
<path d="M419.198 489.3H403.927V449.4L414.55 484.312L419.198 449.4L428.493 484.312L433.803 449.4L441.107 489.3H419.198Z" fill="#5FC57C"/>
<path d="M65.9862 488.825H50.7158V448.925L61.3387 483.837L65.9862 448.925L75.2813 483.837L80.5927 448.925L87.8962 488.825H65.9862Z" fill="#5FC57C"/>
<path d="M299.689 495H284.419V455.1L295.042 490.013L299.689 455.1L308.984 490.013L314.296 455.1L321.599 495H299.689Z" fill="#5FC57C"/>
<path d="M201.428 492.625H186.158V452.725L196.78 487.638L201.428 452.725L210.723 487.638L216.034 452.725L223.338 492.625H201.428Z" fill="#5FC57C"/>
<path d="M405.918 494.525H390.648V454.625L401.271 489.538L405.918 454.625L415.213 489.538L420.525 454.625L427.828 494.525H405.918Z" fill="#5FC57C"/>
<path d="M52.7074 494.05H37.437V454.15L48.0599 489.062L52.7074 454.15L62.0025 489.062L67.3139 454.15L74.6172 494.05H52.7074Z" fill="#5FC57C"/>
<path d="M342.181 489.775H326.911V449.875L337.534 484.788L342.181 449.875L351.476 484.788L356.788 449.875L364.091 489.775H342.181Z" fill="#5FC57C"/>
<path d="M243.919 487.4H228.649V447.5L239.272 482.413L243.919 447.5L253.214 482.413L258.526 447.5L265.829 487.4H243.919Z" fill="#5FC57C"/>
<path d="M448.41 489.3H433.14V449.4L443.763 484.312L448.41 449.4L457.705 484.312L463.017 449.4L470.32 489.3H448.41Z" fill="#5FC57C"/>
<path d="M95.1993 488.825H79.9287V448.925L90.5518 483.837L95.1993 448.925L104.494 483.837L109.806 448.925L117.108 488.825H95.1993Z" fill="#5FC57C"/>
<path d="M350.148 495H334.878V455.1L345.501 490.013L350.148 455.1L359.443 490.013L364.755 455.1L372.058 495H350.148Z" fill="#5FC57C"/>
<path d="M251.887 492.625H236.616V452.725L247.24 487.638L251.887 452.725L261.182 487.638L266.493 452.725L273.796 492.625H251.887Z" fill="#5FC57C"/>
<path d="M456.378 494.525H441.107V454.625L451.73 489.538L456.378 454.625L465.673 489.538L470.984 454.625L478.287 494.525H456.378Z" fill="#5FC57C"/>
<path d="M103.167 494.05H87.896V454.15L98.5193 489.062L103.167 454.15L112.462 489.062L117.773 454.15L125.076 494.05H103.167Z" fill="#5FC57C"/>
<path d="M444.002 35.35H436.137V-19.25L441.608 28.525L444.002 -19.25L448.789 28.525L451.525 -19.25L455.287 35.35H444.002Z" fill="#5FC57C"/>
<path d="M393.391 32.1H385.526V-22.5L390.998 25.275L393.391 -22.5L398.178 25.275L400.914 -22.5L404.676 32.1H393.391Z" fill="#5FC57C"/>
<path d="M498.715 34.7001H490.85V-19.8999L496.322 27.8751L498.715 -19.8999L503.503 27.8751L506.238 -19.8999L510 34.7001H498.715Z" fill="#5FC57C"/>
<path d="M316.792 34.0497H308.927V-20.5503L314.398 27.2247L316.792 -20.5503L321.579 27.2247L324.315 -20.5503L328.077 34.0497H316.792Z" fill="#5FC57C"/>
<path d="M424.852 35.35H416.987V-19.25L422.458 28.525L424.852 -19.25L429.639 28.525L432.375 -19.25L436.137 35.35H424.852Z" fill="#5FC57C"/>
<path d="M374.242 32.1H366.376V-22.5L371.848 25.275L374.242 -22.5L379.029 25.275L381.764 -22.5L385.526 32.1H374.242Z" fill="#5FC57C"/>
<path d="M479.566 34.7001H471.701V-19.8999L477.172 27.8751L479.566 -19.8999L484.354 27.8751L487.089 -19.8999L490.85 34.7001H479.566Z" fill="#5FC57C"/>
<path d="M297.643 34.0497H289.777V-20.5503L295.249 27.2247L297.643 -20.5503L302.43 27.2247L305.165 -20.5503L308.927 34.0497H297.643Z" fill="#5FC57C"/>
<path d="M405.702 35.35H397.837V-19.25L403.309 28.525L405.702 -19.25L410.489 28.525L413.225 -19.25L416.987 35.35H405.702Z" fill="#5FC57C"/>
<path d="M355.092 32.1H347.227V-22.5L352.698 25.275L355.092 -22.5L359.88 25.275L362.615 -22.5L366.377 32.1H355.092Z" fill="#5FC57C"/>
<path d="M460.416 34.7001H452.551V-19.8999L458.022 27.8751L460.416 -19.8999L465.203 27.8751L467.938 -19.8999L471.7 34.7001H460.416Z" fill="#5FC57C"/>
<path d="M278.493 34.0497H270.627V-20.5503L276.099 27.2247L278.493 -20.5503L283.28 27.2247L286.015 -20.5503L289.777 34.0497H278.493Z" fill="#5FC57C"/>
<path d="M386.552 35.35H378.687V-19.25L384.159 28.525L386.552 -19.25L391.339 28.525L394.075 -19.25L397.837 35.35H386.552Z" fill="#5FC57C"/>
<path d="M335.942 32.1H328.077V-22.5L333.548 25.275L335.942 -22.5L340.729 25.275L343.465 -22.5L347.227 32.1H335.942Z" fill="#5FC57C"/>
<path d="M441.266 34.7001H433.401V-19.8999L438.872 27.8751L441.266 -19.8999L446.053 27.8751L448.789 -19.8999L452.551 34.7001H441.266Z" fill="#5FC57C"/>
<path d="M259.343 34.0497H251.478V-20.5503L256.948 27.2247L259.343 -20.5503L264.13 27.2247L266.866 -20.5503L270.628 34.0497H259.343Z" fill="#5FC57C"/>
<path d="M374.241 41.85H366.376V-12.75L371.848 35.025L374.241 -12.75L379.028 35.025L381.764 -12.75L385.526 41.85H374.241Z" fill="#5FC57C"/>
<path d="M323.631 38.6H315.766V-16L321.238 31.775L323.631 -16L328.419 31.775L331.154 -16L334.916 38.6H323.631Z" fill="#5FC57C"/>
<path d="M428.955 41.2001H421.09V-13.3999L426.562 34.3751L428.955 -13.3999L433.743 34.3751L436.479 -13.3999L440.24 41.2001H428.955Z" fill="#5FC57C"/>
<path d="M247.032 40.5502H239.167V-14.0498L244.639 33.7252L247.032 -14.0498L251.82 33.7252L254.555 -14.0498L258.317 40.5502H247.032Z" fill="#5FC57C"/>
<path d="M396.127 35.35H388.262V-19.25L393.733 28.525L396.127 -19.25L400.914 28.525L403.65 -19.25L407.412 35.35H396.127Z" fill="#5FC57C"/>
<path d="M345.517 32.1H337.652V-22.5L343.123 25.275L345.517 -22.5L350.304 25.275L353.04 -22.5L356.802 32.1H345.517Z" fill="#5FC57C"/>
<path d="M450.841 34.7001H442.976V-19.8999L448.447 27.8751L450.841 -19.8999L455.629 27.8751L458.364 -19.8999L462.126 34.7001H450.841Z" fill="#5FC57C"/>
<path d="M268.918 34.0497H261.053V-20.5503L266.524 27.2247L268.918 -20.5503L273.705 27.2247L276.441 -20.5503L280.202 34.0497H268.918Z" fill="#5FC57C"/>
<path d="M409.805 35.35H401.94V-19.25L407.412 28.525L409.805 -19.25L414.592 28.525L417.328 -19.25L421.09 35.35H409.805Z" fill="#5FC57C"/>
<path d="M359.195 32.1H351.33V-22.5L356.802 25.275L359.195 -22.5L363.983 25.275L366.718 -22.5L370.48 32.1H359.195Z" fill="#5FC57C"/>
<path d="M464.519 34.7001H456.654V-19.8999L462.126 27.8751L464.519 -19.8999L469.307 27.8751L472.043 -19.8999L475.804 34.7001H464.519Z" fill="#5FC57C"/>
<path d="M282.596 34.0497H274.731V-20.5503L280.202 27.2247L282.596 -20.5503L287.383 27.2247L290.119 -20.5503L293.881 34.0497H282.596Z" fill="#5FC57C"/>
<path d="M402.966 42.4999H395.101V-12.1001L400.573 35.6749L402.966 -12.1001L407.754 35.6749L410.489 -12.1001L414.251 42.4999H402.966Z" fill="#5FC57C"/>
<path d="M352.356 39.2499H344.491V-15.3501L349.963 32.4249L352.356 -15.3501L357.144 32.4249L359.88 -15.3501L363.641 39.2499H352.356Z" fill="#5FC57C"/>
<path d="M457.68 41.85H449.815V-12.75L455.286 35.025L457.68 -12.75L462.468 35.025L465.204 -12.75L468.965 41.85H457.68Z" fill="#5FC57C"/>
<path d="M275.757 41.2001H267.892V-13.3999L273.362 34.3751L275.757 -13.3999L280.544 34.3751L283.28 -13.3999L287.042 41.2001H275.757Z" fill="#5FC57C"/>
<path d="M424.852 35.35H416.987V-19.25L422.458 28.525L424.852 -19.25L429.639 28.525L432.375 -19.25L436.137 35.35H424.852Z" fill="#5FC57C"/>
<path d="M374.242 32.1H366.376V-22.5L371.848 25.275L374.242 -22.5L379.029 25.275L381.764 -22.5L385.526 32.1H374.242Z" fill="#5FC57C"/>
<path d="M479.566 34.7001H471.701V-19.8999L477.172 27.8751L479.566 -19.8999L484.354 27.8751L487.089 -19.8999L490.85 34.7001H479.566Z" fill="#5FC57C"/>
<path d="M297.643 34.0497H289.777V-20.5503L295.249 27.2247L297.643 -20.5503L302.43 27.2247L305.165 -20.5503L308.927 34.0497H297.643Z" fill="#5FC57C"/>
<path d="M428.955 42.4999H421.09V-12.1001L426.562 35.6749L428.955 -12.1001L433.743 35.6749L436.479 -12.1001L440.24 42.4999H428.955Z" fill="#5FC57C"/>
<path d="M378.345 39.2499H370.48V-15.3501L375.951 32.4249L378.345 -15.3501L383.132 32.4249L385.868 -15.3501L389.629 39.2499H378.345Z" fill="#5FC57C"/>
<path d="M483.669 41.85H475.804V-12.75L481.275 35.025L483.669 -12.75L488.457 35.025L491.193 -12.75L494.953 41.85H483.669Z" fill="#5FC57C"/>
<path d="M301.746 41.2001H293.881V-13.3999L299.352 34.3751L301.746 -13.3999L306.533 34.3751L309.269 -13.3999L313.031 41.2001H301.746Z" fill="#5FC57C"/>
<path d="M230.833 125.833C430.833 265 185 249.583 97.0835 284.167C-45.4165 290.833 23.7502 250.417 -21.6665 125.833C-21.6665 19.9998 1.25018 -76.6669 97.0835 -32.5002C170.952 -32.5002 233.75 65.8331 230.833 125.833Z" fill="#D9D9D9"/>
<path d="M345.833 100.942C545.833 240.108 300 224.692 212.083 259.275C69.5835 265.942 138.75 225.525 93.3335 100.942C93.3335 -4.89195 116.25 -101.558 212.083 -57.392C285.952 -57.392 348.75 40.9414 345.833 100.942Z" fill="#B2B2B2"/>
<path d="M297.5 51.6868C497.5 190.853 251.667 175.437 163.75 210.02C21.25 216.687 90.4167 176.27 45 51.6868C45 -54.1465 67.9167 -150.813 163.75 -106.647C237.618 -106.647 300.417 -8.31317 297.5 51.6868Z" fill="#A79999"/>
<path d="M357.917 26.795C470.833 225 366.667 150.545 278.75 185.128C136.25 191.795 205.417 151.378 160 26.795C160 -79.0383 182.917 -175.705 278.75 -131.538C352.618 -131.538 360.833 -33.205 357.917 26.795Z" fill="#756E6E"/>
<path d="M182.5 135.417C165.417 275.417 150.834 233.333 107.5 256.667C88.3337 238.75 18.7503 270.417 9.16699 135.417C9.16699 68.4522 53.1923 7.5 107.5 7.5C161.809 7.5 182.5 68.4522 182.5 135.417Z" fill="black"/>
<path d="M178.333 188.333C152.917 263.75 151.667 233.75 108.333 257.083C89.1668 239.167 39.5835 267.5 17.0835 183.75C17.0835 116.786 52.5647 225.417 103.333 222.5C157.642 222.5 178.333 121.369 178.333 188.333Z" fill="#141414"/>
<path d="M278.334 232.5C284.777 232.5 290 227.65 290 221.667C290 215.684 284.777 210.833 278.334 210.833C271.89 210.833 266.667 215.684 266.667 221.667C266.667 227.65 271.89 232.5 278.334 232.5Z" fill="black"/>
<path d="M233.334 236.667C239.777 236.667 245 231.816 245 225.833C245 219.85 239.777 215 233.334 215C226.89 215 221.667 219.85 221.667 225.833C221.667 231.816 226.89 236.667 233.334 236.667Z" fill="black"/>
<path d="M319.167 225C325.61 225 330.833 220.15 330.833 214.167C330.833 208.184 325.61 203.333 319.167 203.333C312.723 203.333 307.5 208.184 307.5 214.167C307.5 220.15 312.723 225 319.167 225Z" fill="black"/>
<path d="M360 213.333C366.443 213.333 371.667 208.483 371.667 202.5C371.667 196.517 366.443 191.667 360 191.667C353.557 191.667 348.333 196.517 348.333 202.5C348.333 208.483 353.557 213.333 360 213.333Z" fill="black"/>
<path d="M410.834 197.5C417.277 197.5 422.5 192.65 422.5 186.667C422.5 180.684 417.277 175.833 410.834 175.833C404.39 175.833 399.167 180.684 399.167 186.667C399.167 192.65 404.39 197.5 410.834 197.5Z" fill="black"/>
<path d="M32.5197 359.753C61.0573 398.49 34.7312 383.938 12.5118 390.698C-23.5023 392 -6.02178 384.102 -17.5 359.753C-17.5 339.069 -11.7083 320.178 12.5118 328.809C31.1807 328.809 33.2569 348.027 32.5197 359.753Z" fill="#756E6E"/>
<path d="M30.0197 385.586C58.5573 424.323 32.2312 409.771 10.0118 416.531C-26.0023 417.833 -8.52175 409.935 -20 385.586C-20 364.902 -14.2083 346.011 10.0118 354.642C28.6807 354.642 30.7569 373.86 30.0197 385.586Z" fill="#A79999"/>
<path d="M505.02 396.42C533.557 435.157 507.231 420.605 485.012 427.364C448.997 428.667 466.478 420.768 455 396.42C455 375.736 460.792 356.844 485.012 365.476C503.681 365.476 505.757 384.693 505.02 396.42Z" fill="#A79999"/>
<path d="M498.353 187.253C526.891 225.99 500.564 211.438 478.345 218.198C442.331 219.5 459.812 211.602 448.333 187.253C448.333 166.569 454.125 147.678 478.345 156.309C497.014 156.309 499.09 175.527 498.353 187.253Z" fill="#A79999"/>
<path d="M471.486 188.086C450.939 226.823 469.894 212.271 485.892 219.031C511.822 220.333 499.236 212.435 507.5 188.086C507.5 167.402 503.33 148.511 485.892 157.142C472.45 157.142 470.955 176.36 471.486 188.086Z" fill="#756E6E"/>
<path d="M475.653 408.92C455.105 447.657 474.06 433.105 490.058 439.864C515.988 441.167 503.403 433.268 511.667 408.92C511.667 388.236 507.497 369.344 490.058 377.976C476.617 377.976 475.122 397.193 475.653 408.92Z" fill="#756E6E"/>
<path d="M106.196 361.745H132.341L128.689 352.879L266.237 354.556L349.008 355.515V358.63H342.922H403.896L400.106 361.052L403.896 424.626L391.817 434.453L397.894 469.671L262.332 473.333L121.767 471.896L110.17 407.651L113.96 388.235L106.196 361.745Z" fill="#A9AD81"/>
<path d="M121.083 380.97H94.4862L89.167 361.605V340L289.528 347.751L410.099 352.18L409.561 364.893L410.834 378.513L266.478 374.327L121.083 380.97Z" fill="#8D8F6D"/>
<path d="M199.617 402.816C199.617 402.366 199.55 401.983 199.417 401.666H206.542C207.142 403.266 207.584 405.225 207.867 407.541C208.167 409.858 208.325 412.066 208.342 414.166H202.567C202.45 411.166 201.959 408.275 201.092 405.491C199.642 408.325 198.859 411.216 198.742 414.166H193.842C193.409 410.9 192.575 408 191.342 405.466C190.442 407.583 189.992 409.55 189.992 411.367C189.992 412.35 190.109 413.283 190.342 414.166H184.267C184.15 413.483 184.092 412.583 184.092 411.467C184.092 410.333 184.259 409.2 184.592 408.066C185.775 407.716 186.909 407.141 187.992 406.341C189.092 405.541 189.9 404.666 190.417 403.716C189.984 403 189.525 402.316 189.042 401.666H196.942C197.575 403.383 198.05 405.25 198.367 407.266C199.2 405.716 199.617 404.233 199.617 402.816ZM212.561 414.091C211.078 412.191 210.336 410.242 210.336 408.242C210.336 406.242 211.169 404.55 212.836 403.166C214.503 401.783 216.636 401.091 219.236 401.091C220.619 401.091 221.994 401.3 223.361 401.716C224.561 403.233 225.161 404.858 225.161 406.591C225.161 408.775 224.269 410.675 222.486 412.291C220.703 413.908 218.544 414.716 216.011 414.716C214.928 414.716 213.778 414.508 212.561 414.091ZM216.361 403.267C215.778 404.267 215.486 405.441 215.486 406.791C215.486 408.141 215.778 409.391 216.361 410.541C216.961 411.675 217.778 412.491 218.811 412.991C219.594 411.991 219.986 410.833 219.986 409.517C219.986 408.2 219.661 406.975 219.011 405.842C218.378 404.708 217.494 403.85 216.361 403.267ZM242.091 401.666C242.191 403.416 242.241 405.266 242.241 407.216C242.241 409.15 242.158 411.466 241.991 414.166H239.591C236.358 412.433 233.391 410.075 230.691 407.092C230.824 408.208 230.891 409.358 230.891 410.541C230.891 411.708 230.849 412.916 230.766 414.166H227.841C228.174 412.116 228.341 410.225 228.341 408.491C228.341 406.741 228.258 405.358 228.091 404.341C227.424 403.341 226.899 402.45 226.516 401.666H233.616C234.316 402.866 235.266 404.108 236.466 405.391C237.683 406.658 238.841 407.65 239.941 408.367C239.941 405.933 239.666 403.7 239.116 401.666H242.091ZM255.612 403.292C255.179 405.925 254.962 408.075 254.962 409.741C254.962 411.408 255.029 412.883 255.162 414.166H249.712C249.145 411.516 248.862 408.666 248.862 405.616C248.862 405.1 248.879 404.325 248.912 403.292C247.495 403.708 246.629 404.666 246.312 406.166L243.837 406.016L244.737 401.666H261.362C261.029 403.5 260.645 405 260.212 406.166L257.687 406.016C257.754 405.75 257.787 405.483 257.787 405.217C257.787 404.567 257.587 404.083 257.187 403.766C256.787 403.45 256.262 403.292 255.612 403.292ZM274.856 413.967V414.166H269.056C268.989 413.25 268.848 412.266 268.631 411.216C267.464 412.383 266.298 413.366 265.131 414.166H259.306C259.189 413.483 259.131 412.583 259.131 411.467C259.131 410.333 259.298 409.2 259.631 408.066C260.831 407.716 261.981 407.125 263.081 406.291C264.198 405.458 265.006 404.558 265.506 403.591C265.039 402.858 264.564 402.216 264.081 401.666H272.381C274.031 405.283 274.856 409.383 274.856 413.967ZM268.181 409.391C267.764 407.958 267.198 406.558 266.481 405.192C265.698 407.492 265.248 409.666 265.131 411.716C266.364 411.05 267.381 410.275 268.181 409.391ZM291.456 401.666C291.556 403.416 291.606 405.266 291.606 407.216C291.606 409.15 291.523 411.466 291.356 414.166H288.956C285.723 412.433 282.756 410.075 280.056 407.092C280.189 408.208 280.256 409.358 280.256 410.541C280.256 411.708 280.214 412.916 280.131 414.166H277.206C277.539 412.116 277.706 410.225 277.706 408.491C277.706 406.741 277.623 405.358 277.456 404.341C276.789 403.341 276.264 402.45 275.881 401.666H282.981C283.681 402.866 284.631 404.108 285.831 405.391C287.048 406.658 288.206 407.65 289.306 408.367C289.306 405.933 289.031 403.7 288.481 401.666H291.456ZM287.056 398.967C286.956 399.133 286.731 399.317 286.381 399.517C286.048 399.7 285.631 399.791 285.131 399.791C284.648 399.791 284.123 399.625 283.556 399.291C282.989 398.941 282.573 398.766 282.306 398.766C281.689 398.766 281.139 399.042 280.656 399.592L280.981 398.591C281.181 398.358 281.431 398.15 281.731 397.966C282.048 397.766 282.381 397.667 282.731 397.667C283.098 397.667 283.531 397.758 284.031 397.941C284.548 398.125 284.989 398.216 285.356 398.216C286.256 398.216 287.081 397.825 287.831 397.042C287.764 397.175 287.648 397.483 287.481 397.966C287.314 398.45 287.173 398.783 287.056 398.967ZM310.427 413.967V414.166H304.627C304.56 413.25 304.419 412.266 304.202 411.216C303.035 412.383 301.869 413.366 300.702 414.166H294.877C294.76 413.483 294.702 412.583 294.702 411.467C294.702 410.333 294.869 409.2 295.202 408.066C296.402 407.716 297.552 407.125 298.652 406.291C299.769 405.458 300.577 404.558 301.077 403.591C300.61 402.858 300.135 402.216 299.652 401.666H307.952C309.602 405.283 310.427 409.383 310.427 413.967ZM303.752 409.391C303.335 407.958 302.769 406.558 302.052 405.192C301.269 407.492 300.819 409.666 300.702 411.716C301.935 411.05 302.952 410.275 303.752 409.391ZM321.453 403.166C320.786 403.066 320.069 403.016 319.303 403.016C318.553 403.016 317.819 403.066 317.103 403.166C317.553 403.933 318.086 404.558 318.703 405.041C319.319 405.525 320.094 406.008 321.028 406.492C321.978 406.958 322.744 407.391 323.328 407.791C323.928 408.191 324.586 408.85 325.303 409.766C326.019 410.683 326.469 411.642 326.653 412.642C325.853 413.675 324.794 414.583 323.478 415.366C322.161 416.166 320.811 416.7 319.428 416.966C318.494 416.883 317.311 416.616 315.878 416.166C314.461 415.733 313.394 415.516 312.678 415.516C311.961 415.516 311.244 415.741 310.528 416.191C310.828 415.341 311.319 414.275 312.003 412.991H312.203C313.269 412.991 314.269 413.158 315.203 413.491C316.153 413.825 317.011 414.158 317.778 414.492C318.561 414.825 319.186 414.991 319.653 414.991C320.136 414.991 320.486 414.958 320.703 414.891C320.703 413.791 320.361 412.883 319.678 412.166C319.311 411.783 318.994 411.491 318.728 411.291C318.478 411.075 318.086 410.783 317.553 410.416L317.128 410.117C315.994 409.333 315.061 408.542 314.328 407.742C313.594 406.925 313.061 405.925 312.728 404.741C313.261 403.558 313.786 402.533 314.303 401.666C315.886 401.283 317.528 401.091 319.228 401.091H320.328C321.761 401.091 323.403 401.291 325.253 401.691C324.986 402.791 324.661 403.783 324.278 404.666C322.878 404.766 321.794 404.816 321.028 404.816C321.178 404.433 321.319 403.883 321.453 403.166ZM185.284 428.991H186.109C187.175 428.991 187.967 428.867 188.484 428.617C187.75 429.7 187.042 430.641 186.359 431.441H185.959C185.109 431.441 184.284 431.308 183.484 431.041C182.35 431.975 181.442 433.216 180.759 434.766C182.525 435.216 184.492 435.483 186.659 435.566C187.159 436.833 187.5 438.866 187.684 441.666H181.209C180.925 440.433 180.492 439.3 179.909 438.266C179.342 437.216 178.75 436.5 178.134 436.117C178.017 437.483 177.959 438.583 177.959 439.416C177.959 440.25 177.984 441 178.034 441.666H172.534C172.217 439.216 172.059 437.15 172.059 435.466C172.059 433.766 172.184 431.666 172.434 429.166H179.384C178.884 431.233 178.542 432.966 178.359 434.366C179.109 433.133 179.892 432.1 180.709 431.267C181.542 430.417 182.525 429.7 183.659 429.116C184.092 429.033 184.634 428.991 185.284 428.991ZM191.784 441.591C190.301 439.691 189.559 437.742 189.559 435.742C189.559 433.742 190.393 432.05 192.059 430.666C193.726 429.283 195.859 428.591 198.459 428.591C199.843 428.591 201.218 428.8 202.584 429.216C203.784 430.733 204.384 432.358 204.384 434.091C204.384 436.275 203.493 438.175 201.709 439.791C199.926 441.408 197.768 442.216 195.234 442.216C194.151 442.216 193.001 442.008 191.784 441.591ZM195.584 430.766C195.001 431.766 194.709 432.942 194.709 434.292C194.709 435.642 195.001 436.892 195.584 438.042C196.184 439.175 197.001 439.992 198.034 440.492C198.818 439.492 199.209 438.333 199.209 437.016C199.209 435.7 198.884 434.475 198.234 433.342C197.601 432.208 196.718 431.35 195.584 430.766ZM212.514 438.541C212.514 439.491 212.556 440.533 212.639 441.666H207.139C206.456 439.016 206.114 436.2 206.114 433.216C206.114 431.7 206.206 430.35 206.389 429.166H219.939C220.423 431.05 220.689 433.292 220.739 435.892C218.273 436.992 215.531 437.708 212.514 438.042V438.541ZM212.539 436.317C213.606 436.183 214.498 435.916 215.214 435.516C214.948 433.75 214.231 432.183 213.064 430.816C212.798 432.466 212.623 434.3 212.539 436.317ZM229.14 438.541C229.14 439.491 229.182 440.533 229.265 441.666H223.765C223.082 439.016 222.74 436.2 222.74 433.216C222.74 431.7 222.832 430.35 223.015 429.166H236.565C237.049 431.05 237.315 433.292 237.365 435.892C234.899 436.992 232.157 437.708 229.14 438.042V438.541ZM229.165 436.317C230.232 436.183 231.124 435.916 231.84 435.516C231.574 433.75 230.857 432.183 229.69 430.816C229.424 432.466 229.249 434.3 229.165 436.317ZM248.791 434.192L251.141 434.342C251.374 434.342 251.549 434.333 251.666 434.316L250.491 436.517H250.266C249.949 436.517 249.499 436.433 248.916 436.267C248.333 436.083 247.916 435.991 247.666 435.991C246.983 435.991 246.441 436.433 246.041 437.317C245.974 438.133 245.924 438.95 245.891 439.766C246.758 439.933 247.441 440.017 247.941 440.017H248.166C248.883 440.017 249.449 439.858 249.866 439.542C250.299 439.225 250.608 438.658 250.791 437.841L253.791 437.966C253.541 439.4 253.208 440.633 252.791 441.666H240.516C240.183 439.416 240.016 437.183 240.016 434.967C240.016 432.75 240.133 430.816 240.366 429.166H253.766C253.466 430.966 253.199 432.233 252.966 432.966C251.983 433.016 251.083 433.05 250.266 433.066C250.399 432.683 250.466 432.325 250.466 431.992C250.466 431.192 249.866 430.792 248.666 430.792C248.216 430.792 247.716 430.841 247.166 430.941C246.799 432.525 246.516 433.917 246.316 435.117C246.983 434.5 247.808 434.192 248.791 434.192ZM262.039 439.741C262.822 439.925 263.572 440.017 264.289 440.017C265.005 440.017 265.572 439.858 265.989 439.542C266.422 439.208 266.739 438.641 266.939 437.841L269.939 437.942C269.689 439.442 269.355 440.683 268.939 441.666H256.664C256.347 439.533 256.189 437.325 256.189 435.041C256.189 432.758 256.305 430.8 256.539 429.166H263.739C262.639 433.383 262.072 436.908 262.039 439.741ZM278.278 440.041C279.411 440.041 280.336 439.95 281.053 439.766C280.753 437.916 279.903 436.542 278.503 435.642C278.353 437.125 278.278 438.591 278.278 440.041ZM271.978 434.166C271.978 432.416 272.136 430.75 272.453 429.166H286.328C285.578 431.5 284.144 433.192 282.028 434.242C283.944 434.925 285.478 435.875 286.628 437.092C286.478 438.642 286.119 440.166 285.553 441.666H272.978C272.311 439.35 271.978 436.85 271.978 434.166ZM278.703 433.917C279.519 433.7 280.278 433.325 280.978 432.791C281.678 432.258 282.178 431.6 282.478 430.816C281.144 430.816 280.061 430.858 279.228 430.941C279.028 431.908 278.853 432.9 278.703 433.917ZM297.986 434.192L300.336 434.342C300.569 434.342 300.744 434.333 300.861 434.316L299.686 436.517H299.461C299.144 436.517 298.694 436.433 298.111 436.267C297.528 436.083 297.111 435.991 296.861 435.991C296.178 435.991 295.636 436.433 295.236 437.317C295.169 438.133 295.119 438.95 295.086 439.766C295.953 439.933 296.636 440.017 297.136 440.017H297.361C298.078 440.017 298.644 439.858 299.061 439.542C299.494 439.225 299.803 438.658 299.986 437.841L302.986 437.966C302.736 439.4 302.403 440.633 301.986 441.666H289.711C289.378 439.416 289.211 437.183 289.211 434.967C289.211 432.75 289.328 430.816 289.561 429.166H302.961C302.661 430.966 302.394 432.233 302.161 432.966C301.178 433.016 300.278 433.05 299.461 433.066C299.594 432.683 299.661 432.325 299.661 431.992C299.661 431.192 299.061 430.792 297.861 430.792C297.411 430.792 296.911 430.841 296.361 430.941C295.994 432.525 295.711 433.917 295.511 435.117C296.178 434.5 297.003 434.192 297.986 434.192ZM319.934 433.516L319.909 434.366C318.575 435.083 316.909 435.641 314.909 436.041C316.342 436.425 317.725 436.616 319.059 436.616H319.584C320.5 437.966 321.092 439.65 321.359 441.666H314.884C314.717 440.5 314.375 439.5 313.859 438.667C313.359 437.817 312.742 437.242 312.009 436.942C311.992 437.225 311.984 437.791 311.984 438.641C311.984 439.491 312.034 440.5 312.134 441.666H306.684C306.2 439.25 305.959 437.008 305.959 434.941C305.959 432.858 306.075 430.933 306.309 429.166H319.359C319.742 430.85 319.934 432.3 319.934 433.516ZM312.534 430.842C312.334 432.308 312.184 433.75 312.084 435.167C313 435.033 313.75 434.708 314.334 434.192C314.017 433.075 313.417 431.958 312.534 430.842ZM332.434 440.442L332.459 439.392C332.459 438.208 332.359 436.8 332.159 435.167H337.559C337.559 437.533 337.443 439.7 337.209 441.666C334.626 442.033 331.951 442.216 329.184 442.216H327.584C326.068 441.566 324.884 440.616 324.034 439.366C323.184 438.1 322.759 436.758 322.759 435.341C322.759 433.458 323.518 431.866 325.034 430.566C326.568 429.25 328.801 428.591 331.734 428.591C333.268 428.591 334.976 428.8 336.859 429.216C336.576 430.35 336.251 431.35 335.884 432.216C334.868 432.283 333.776 432.333 332.609 432.367C332.793 431.8 332.926 431.242 333.009 430.692C332.476 430.592 331.926 430.542 331.359 430.542C330.809 430.542 330.151 430.633 329.384 430.816C329.118 431.95 328.984 432.975 328.984 433.891C328.984 435.275 329.293 436.575 329.909 437.791C330.543 438.991 331.384 439.875 332.434 440.442Z" fill="black"/>
</g>
<path d="M487.5 4.1665H12.4998C7.89746 4.1665 4.1665 7.89746 4.1665 12.4998V487.5C4.1665 492.102 7.89746 495.833 12.4998 495.833H487.5C492.102 495.833 495.833 492.102 495.833 487.5V12.4998C495.833 7.89746 492.102 4.1665 487.5 4.1665Z" stroke="#A9AD81" stroke-width="10"/>
</g>
<defs>
<clipPath id="clip0_342_31432">
<rect width="500" height="500" fill="white"/>
</clipPath>
</defs>
</svg>
