<svg width="500" height="600" viewBox="0 0 500 600" fill="none" xmlns="http://www.w3.org/2000/svg">
<g clip-path="url(#clip0_314_13292)">
<path d="M500 0H0V600H500V0Z" fill="#A9AD81"/>
<path d="M255.748 552.27C274.502 557.654 282.934 572.506 270.913 573.285C258.893 574.064 207.313 568.164 206.49 555.461C205.667 542.759 214.745 531.83 226.765 531.051C238.786 530.272 254.925 539.567 255.748 552.27Z" fill="#693F3F"/>
<path d="M337.603 539.344C357.42 544.659 366.283 559.483 353.566 560.307C340.848 561.131 286.313 555.423 285.49 542.72C284.667 530.017 294.309 519.052 307.027 518.228C319.744 517.404 336.78 526.641 337.603 539.344Z" fill="#693F3F"/>
<path d="M306.984 277V305.192L293.14 309.891L284.834 305.192L266.062 287.24L254.186 339.718H279.297L298.451 406.276L293.14 462.594L284.834 534.272H313.566L333 529.152L323.283 458.754V396.036L310.327 302.599L306.984 277Z" fill="#987E7E"/>
<path d="M264.686 289.799L250.842 317.992L236.998 322.69L228.692 317.992L225.99 289.799L217.352 312.024L228.692 399.876L225.99 465.62L211 540.672L240.288 553L255.265 540.672L261.743 403.716V342.278L264.686 289.799Z" fill="#987E7E"/>
<path d="M286 128.864L264.407 133.492L237 126L243.367 142.746L260.704 166.322L257.486 189.898L275.607 191L286 179.102L279.079 145.169L286 128.864Z" fill="#FFC7C7"/>
<path d="M272 133.444V127.444H236.381L234 123L244.913 181.667L251.564 195L272 184.111L261.38 158.111L269.118 140.778L272 133.444Z" fill="#EDBCBC"/>
<path d="M263.747 170.473H231.615L169.312 123.426L127.972 63L117 74.5946L154.422 138.811L204.774 191.655L220.5 237.5L217 271.5V312.507L238 327H257.281L279.812 315.628L290 312.507L277.657 287.98L280.204 242.047L275.502 186.304L263.747 170.473Z" fill="#C3A6A6"/>
<path d="M288.34 169.413H300.313L318.898 127.24L335.714 69L347 74.2232L339.757 132.818L318.898 185.837L314.109 232.81L318.898 301.4L300.313 312H288.34L275.228 301.4L275 232.81L275.228 185.837L288.34 169.413Z" fill="#BAA0A0"/>
<path d="M290 64L276.141 45.1724L257.988 38L230.271 50.1034L225 68.7069V91.3448L233.394 126.31L257.988 142L283.168 134.603L290 122.276V98.9655V64Z" fill="#FFC7C7"/>
<path d="M355.679 49.4892L352.194 42.2554L346.739 38.6948L337.24 41.0553L334.606 47.0173L333.456 54.6733L334.37 67.0232L341.456 73.8669L349.903 72.9397L352.719 69.1977L353.903 61.3143L355.679 49.4892Z" fill="#FFC7C7"/>
<path d="M122.099 35.3346L113.084 28.3721L103.572 27.5493L92.0777 37.2305L92.0334 46.8052L95.007 57.5448L103.562 72.94L117.233 76.888L128.148 69.8005L129.754 62.9813L126.692 51.9226L122.099 35.3346Z" fill="#FFC7C7"/>
<path d="M263.114 74L258 95.283L265.672 98L270 95.283L263.114 74Z" fill="#F1B7B7"/>
<path d="M253 114.66C253 122.027 258.373 128 265 128C271.628 128 277 122.027 277 114.66C277 107.293 271.628 105 265 105C258.373 105 253 107.293 253 114.66Z" fill="#BA7878"/>
<path d="M277.203 72.3086C274.284 72.3086 271.918 70.711 271.918 68.7402C271.918 66.7695 274.284 65.1719 277.203 65.1719C280.121 65.1719 282.487 66.7695 282.487 68.7402C282.487 70.711 280.121 72.3086 277.203 72.3086Z" fill="#D9D9D9"/>
<path d="M277.007 70.0786C276.358 70.0786 275.832 69.4795 275.832 68.7405C275.832 68.0014 276.358 67.4023 277.007 67.4023C277.655 67.4023 278.181 68.0014 278.181 68.7405C278.181 69.4795 277.655 70.0786 277.007 70.0786Z" fill="#2A2424"/>
<path d="M243.539 72.3086C240.62 72.3086 238.254 70.711 238.254 68.7402C238.254 66.7695 240.62 65.1719 243.539 65.1719C246.457 65.1719 248.823 66.7695 248.823 68.7402C248.823 70.711 246.457 72.3086 243.539 72.3086Z" fill="#D9D9D9"/>
<path d="M243.344 70.0786C242.695 70.0786 242.169 69.4795 242.169 68.7405C242.169 68.0014 242.695 67.4023 243.344 67.4023C243.992 67.4023 244.518 68.0014 244.518 68.7405C244.518 69.4795 243.992 70.0786 243.344 70.0786Z" fill="#2A2424"/>
<path d="M253.911 32L235.284 40.7356L229.075 50.5632L225 68.2529L229.851 63.0115L234.508 70L240.135 59.5172L250.612 63.0115L257.209 59.5172L264.388 70L272.538 55.5862L290 63.8851L288.836 51.8736L274.866 37.8966L253.911 32Z" fill="#6C3B3B"/>
</g>
<defs>
<clipPath id="clip0_314_13292">
<rect width="500" height="600" fill="white"/>
</clipPath>
</defs>
</svg>
