<svg width="500" height="600" viewBox="0 0 500 600" fill="none" xmlns="http://www.w3.org/2000/svg">
<g clip-path="url(#clip0_315_13323)">
<path d="M500 0H0V600H500V0Z" fill="#A9AD81"/>
<path d="M144.755 264.68L133.714 282.115L122.075 329.455L130.483 305.378L135.345 337.91L136.921 312.751L153.083 337.999L141.375 307.74L161.965 334.687L155.358 318.011L151.767 296.047L162.181 315.873L160.795 293.458L169.583 276.002L203.656 227.642L226.736 197.079L229.256 182.551L217.384 180.039L197.851 194.082L188.241 212.132L175.915 235.995L144.755 264.68Z" fill="#716363"/>
<path d="M186.784 328.37L194.317 315.264L200.38 311.607L213.699 314.276L223.252 323.499L228.304 343.999L219.669 364.192L206.073 380.955L189.355 382.476L149.397 416.67L134.668 489.781L147.212 511.136L155.572 515.881L140.939 511.136V517.323L136.758 537.236L134.668 517.323L125.734 537.755L127.825 517.841L128.397 517.323L111.672 532.49L122.524 517.323L103.311 527.745L117.945 508.763L137.874 406.682L175.485 348.029L186.784 328.37Z" fill="#716363"/>
<path d="M206.611 220.375L210.792 170.547L217.063 158.683L241.082 163.322L273.505 161.055L275.595 168.174L294.408 222.748L305.572 296.304V315.286L294.408 393.588L271.412 412.57L256.782 424.434H241.082L223.333 412.57L204.519 398.333L181.526 357.996L181.525 341.387L194.068 305.795L202.43 277.322L204.519 251.221L206.611 220.375Z" fill="#7D7171"/>
<path d="M353.642 251.091L365.401 267.911L379.008 314.57L369.602 290.974L366.106 323.731L363.48 298.685L348.392 324.776L358.821 293.92L339.382 321.947L345.283 304.934L347.951 282.8L338.379 303.166L338.825 280.702L329.317 263.739L293.258 217.271L268.925 187.987L265.8 173.611L277.553 170.461L297.652 183.436L309.954 211.537L328.407 224.783L353.642 251.091Z" fill="#716363"/>
<path d="M238.725 68.3933L240.794 49.3306L253.207 42.1821L280.102 49.3306L292.515 68.3939L288.377 87.456L271.826 94.605V135.113L275.679 169.664L263.551 173.238L249.069 175.621L228.38 173.238L212.403 169.664L216.351 148.847L220.105 135.113L180.797 130.347L203.554 96.9879L213.898 82.6909L238.725 68.3933Z" fill="#7D7171"/>
<path d="M179.435 130.206L198.247 127.834L214.974 123.088" stroke="black" stroke-width="0.1"/>
<path d="M219.154 134.955L235.876 127.837L237.967 125.463" stroke="#655252" stroke-width="0.1"/>
<path d="M180.51 129.459C180.51 129.459 168.791 116.01 188.859 116.671C196.067 118.11 180.521 129.461 180.51 129.459Z" fill="#9F6565"/>
<path d="M233.663 94.3929C233.663 100.71 206.232 117.269 222.691 100.112C239.149 117.269 211.718 100.71 211.718 94.3929C211.718 88.0759 222.691 89.2056 222.691 82.9551C222.691 88.6741 233.663 88.0759 233.663 94.3929Z" fill="#060404"/>
<path d="M301.214 350.378L297.758 335.07L292.832 329.21L278.679 326.374L266.254 331.191L254.823 348.388L257.176 370.783L265.558 391.951L281.807 400.079L311.132 448.16L297.758 528.834L287.069 535.112L275.595 538.325L283.957 540.698L267.233 557.308L287.069 545.444L265.143 571.544L290.228 550.189L273.505 576.29L294.409 552.562L283.957 581.035L302.77 545.444L325.765 443.414L306.398 373.341L301.214 350.378Z" fill="#716363"/>
<path d="M214.722 17.5947L220.558 72.9411L221.27 17.1314L225.796 72.5705L228.599 75.5584L229.127 16.5754L236.548 76.589L234.365 16.2047L243.004 74.539L245.44 71.1804L244.842 15.4633L253.297 70.6244L251.39 15L254.974 76.8782L247.393 82.1941L237.008 84.5221L225.13 83.7695L218.306 79.473L214.722 17.5947Z" fill="#C55879"/>
</g>
<defs>
<clipPath id="clip0_315_13323">
<rect width="500" height="600" fill="white"/>
</clipPath>
</defs>
</svg>
